<?xml version="1.0" encoding="utf-8"?>
<!-- Generator: Adobe Illustrator 21.1.0, SVG Export Plug-In . SVG Version: 6.00 Build 0)  -->
<svg version="1.1" id="Layer_2" xmlns="http://www.w3.org/2000/svg" xmlns:xlink="http://www.w3.org/1999/xlink" x="0px" y="0px"
	 viewBox="0 0 300 600" style="enable-background:new 0 0 300 600;" xml:space="preserve">
<style type="text/css">
	.st0{fill:#2A2E6E;}
	.st1{fill:#008037;}
	.st2{fill:#006B2C;}
	.st3{fill:#EAEAE9;}
	.st4{fill:#005321;}
	.st5{fill:#C4BFBE;}
	.st6{fill:#504C4B;}
	.st7{fill:#3C3937;}
	.st8{fill:none;stroke:#787473;stroke-miterlimit:10;}
	.st9{fill:#23201C;}
	.st10{fill:#5F5C5B;}
	.st11{fill:#787473;}
	.st12{fill:#A4A1A0;}
	.st13{fill:#FFFFFF;}
	.st14{fill:#036D32;}
	.st15{fill:none;stroke:#A4A1A0;stroke-width:2;stroke-linecap:round;stroke-linejoin:round;stroke-miterlimit:10;}
	.st16{fill:#C6C8E5;}
</style>
<g>
	<path class="st0" d="M175.2,322.5l0.4,1.8l6.2-1.4c0,0,0,0,0.1,0c0-0.3,0-0.6-0.1-0.9c-0.1-0.3-0.2-0.6-0.3-0.8
		c-0.2,0-0.4,0-0.5,0.1L175.2,322.5z"/>
	<g>
		<path class="st1" d="M197.7,336.4l-14.1-13c-0.5-0.5-1.2-0.6-1.8-0.5l-6.2,1.4l-0.4-1.8l5.7-1.3c1.5-0.4,3.2,0.1,4.3,1.2L199,335
			L197.7,336.4z"/>
	</g>
	<path class="st2" d="M229.5,365.5l-30.1-33.1c-0.8-0.9-2.2-1-3.2-0.3l-14.5,10.9l7.7,12.6l8-12.1c0.6-1,2-1.1,2.8-0.2l24.2,26.4
		L229.5,365.5z"/>
	<path class="st3" d="M187.6,355.6l-7.8,6.7l9.6,1.3c0.9,0.1,1.8,0.5,2.5,1.2l5.9,5.9l5-1.2l1-15.8l0,0c1.7-1.4,1.8-4,0.3-5.6
		l-0.2-0.3c-1.3-1.5-3.6-1.7-5.1-0.5L187.6,355.6z"/>
	<path class="st4" d="M189.4,355.5l6.3-9.6c0-0.3,0-0.6,0-0.8l-0.1-2.1c-0.1-3.1-1.3-5.9-3.3-8.1l-10.7,8L189.4,355.5z"/>
	<path class="st5" d="M195.2,350l-7.6,5.6l-7.8,6.7l1.4,0.2l1.2-0.3c2.7-0.6,5.1-1.8,7.2-3.5C192.4,356.4,194.3,353.4,195.2,350z"/>
	<path class="st4" d="M215.5,350.1l-4.6-5.1c-1.6,1.5-3.2,3-4.7,4.7l4.6,5.1C212.3,353.1,213.9,351.6,215.5,350.1z"/>
	<path class="st5" d="M195.3,368.2l2.4,2.4l4.3-1c0.3-0.7,0.6-1.4,0.8-2.1l0.9-13.8c0.8-0.7,1.3-1.7,1.4-2.7
		C200.9,356.1,197.6,362,195.3,368.2z"/>
	<path class="st1" d="M241.8,333.2c-2.4,0.2-4.9,0.6-7.3,1.1c-27.4,6.3-44.5,33.6-38.2,61c0.9,4.1,2.3,7.9,4.1,11.5l45.4-22.7
		L241.8,333.2z"/>
	<path class="st6" d="M179.6,426.4L98.7,445l-12-52.4l86.9-36.5c0,0,19,29.4,19.7,41.6C194,409.8,179.6,426.4,179.6,426.4z"/>
	<path class="st7" d="M137.6,391.1c-1.5-1.8-3.9-2.8-6.4-2.2l-14.1,3.2c-2.4,0.6-4.2,2.5-4.8,4.8c-1.5,1-2.4,2.9-1.9,4.8
		c0.4,1.8,1.9,3.1,3.6,3.4c1.5,2,4,3.1,6.6,2.5l14.1-3.2c2.6-0.6,4.4-2.7,4.9-5.1c1.4-1,2.2-2.9,1.8-4.7
		C141,392.7,139.5,391.4,137.6,391.1z"/>
	<path class="st7" d="M98.7,445l18.2-4.2c2.7-7.9,3.3-16.6,1.3-25.3c-0.5-2-1-3.9-1.7-5.8c0.8-0.1,1.7-0.2,2.5-0.4l1.5-0.3
		c-3.3-9.6-9.4-17.7-17-23.5l-16.8,7.1L98.7,445z"/>
	<polygon class="st4" points="157.2,389.1 109.8,399.9 106.3,384.3 128.7,379.2 151.3,358.2 153.6,373.5 	"/>
	<path class="st2" d="M156.2,389.3l-4.6-6.7l3-4.6l-1-4.5l-1.1-7l-2.5-0.1l-13.1,9.5c-0.9,0.6-1.3,1.7-1.1,2.8l2,8.6
		c0.2,0.8,0.6,1.5,1.2,2l0.5,0.4l0.8,3.3L156.2,389.3z"/>
	<path class="st1" d="M54.3,357.7l78.6,35.7l-1,10.1h0c-12.3,0.6-18.9,14.6-11.7,24.6l7.4,10.2l-25.7,5.9l-51.6-82
		C48.7,359.6,51.5,356.4,54.3,357.7z"/>
	<path class="st4" d="M115.9,405.8l1.5-0.3c-8.4-24.1-33.8-38.6-59.3-32.7c-0.4,0.1-0.7,0.2-1.1,0.3l7.8,12.5
		c13.3-1.7,26.1,4,33.9,14.1C102.9,404.8,109.5,407.3,115.9,405.8z"/>
	<path class="st7" d="M68.1,364L68.1,364c-1,1.3-0.5,3.3,1,4l27.1,12.4l0,0c-1.4-6.2-6.3-11.1-12.5-12.6L68.1,364z"/>
	<line class="st8" x1="68.1" y1="364" x2="68.1" y2="364"/>
	<line class="st8" x1="96.3" y1="380.3" x2="96.3" y2="380.3"/>
	<g>
		<path class="st5" d="M96,380.8l-27.1-12.4c-0.9-0.4-1.5-1.1-1.7-2.1c-0.2-0.9-0.1-1.8,0.5-2.5l1,0.3l-0.1,0.2
			c-0.4,0.5-0.5,1.2-0.4,1.8s0.6,1.1,1.2,1.4l27.1,12.4L96,380.8z"/>
	</g>
	<path class="st2" d="M61.3,376.3c-0.6,0.1-1.2,0.3-1.9,0.5l42.5,67.5l15.1-3.5c1.5-4.4,2.3-9,2.5-13.7c-2.5-4.1-2.8-8.8-1.5-12.8
		c-0.4-1.5-0.9-3-1.4-4.5c0.8-0.1,1.7-0.2,2.5-0.4l1.5-0.3C112.2,384.9,86.8,370.4,61.3,376.3z"/>
	<path class="st7" d="M153.2,412c-0.3,0.1-0.6-0.1-0.6-0.4c-0.6-2.7-3.3-4.4-6-3.7l-3.1,0.7c-2.7,0.6-4.4,3.3-3.7,6
		c0.1,0.3-0.1,0.6-0.4,0.6c-3.9,0.9-6.3,4.7-5.4,8.6c0.9,3.9,4.7,6.3,8.6,5.4l13.8-3.2c3.9-0.9,6.3-4.7,5.4-8.6
		C161,413.5,157.1,411.1,153.2,412z M155.8,423l-13.8,3.2c-2.3,0.5-4.5-0.9-5-3.1c-0.5-2.3,0.9-4.5,3.1-5c1.9-0.4,3.1-2.3,2.6-4.2
		c-0.2-1.1,0.4-2.2,1.5-2.4l3.1-0.7c1.1-0.2,2.2,0.4,2.4,1.5c0.4,1.9,2.3,3.1,4.2,2.6c2.3-0.5,4.5,0.9,5,3.1S158,422.5,155.8,423z"
		/>
	<polygon class="st9" points="143.9,388.4 146.6,400.4 150.5,401.9 177.4,402.6 181.3,408.3 182.7,422.5 188.5,414.1 192.3,395.2 
		187.6,376.9 	"/>
	<polygon class="st10" points="160.7,401.5 166.3,426.1 179.3,423.2 184,413.9 179.4,404.8 169.6,400.7 	"/>
	<path class="st7" d="M184,413.9l-4.6-9.1l-9.8-4.1l-8.9,0.8l0.7,3.1l10.5,0.4c3.8,0.2,7,2.8,7.9,6.5c1,4.5-1.8,9.1-6.3,10.1
		l-7.7,1.8l0.6,2.7l12.9-3L184,413.9z"/>
	<path class="st11" d="M151.2,411.9L151.2,411.9c-0.4-1.9-2.3-3.1-4.2-2.6l-3.1,0.7c-1.9,0.4-3.1,2.3-2.6,4.2l0,0
		c0.3,1.1-0.4,2.2-1.5,2.4v0c-3.1,0.7-5,3.8-4.3,6.8h0c0.7,3.1,3.8,5,6.8,4.3l13.8-3.2c3.1-0.7,5-3.8,4.3-6.8l0,0
		c-0.7-3.1-3.8-5-6.8-4.3v0C152.5,413.7,151.4,413,151.2,411.9z"/>
	<g>
		<path class="st5" d="M174.5,426.6l-25,5.7c-3.9,0.9-7.7-1.5-8.6-5.4c-0.4-1.5-1.9-2.5-3.4-2.2l-9,2.1c-1.2,0.3-2.3-0.5-2.6-1.6
			c-0.3-1.2,0.5-2.3,1.6-2.6l9-2.1c3.9-0.9,7.7,1.5,8.6,5.4c0.4,1.5,1.9,2.5,3.4,2.2l25-5.7c4.9-1.1,8-6.1,6.9-11
			c-0.9-4-4.4-6.9-8.6-7.1l-21.9-0.9c-2.9-0.1-5.5-2.2-6.1-5.1l-2.7-11.9c-0.3-1.2,2.1,4.9,3.3,4.6s2.3,0.5,2.6,1.6l1.1,4.7
			c0.2,1,1.1,1.7,2.1,1.7l21.9,0.9c6.1,0.3,11.2,4.6,12.6,10.5C186.3,417.7,181.8,425,174.5,426.6z"/>
	</g>
	<g>
		<path class="st12" d="M149.6,398.9l5.8,4.7l3.8,0.2l3.4-3.1c0.3-0.3,0.5-0.7,0.5-1.1l-12.9-0.6C150,399,149.8,399,149.6,398.9z"/>
	</g>
	<path class="st12" d="M148.3,397.9c-0.1-0.2-0.2-0.4-0.2-0.6l-1.1-4.7c-0.3-1.2-1.4-1.9-2.6-1.6c-1.2,0.3-3.6-5.8-3.3-4.6l1.6,7.1
		L148.3,397.9z"/>
	<path class="st11" d="M157.7,366.9l2.4,6.8l-6,9.2l9.1,13.3c0.4,0.6,0.3,1.5-0.2,2l-4.1,3.7c-0.6,0.5-1.4,0.5-2,0.1l-15.4-12.4
		c-0.6-0.5-1.1-1.2-1.2-2l-2-8.6c-0.2-1.1,0.2-2.2,1.1-2.8l13.1-9.5L157.7,366.9z"/>
	<path class="st9" d="M92.2,381.2L92.2,381.2c0.5,2.2,2,4,4.1,4.8l4.4,1.7c5.3,2.1,11.2,2.5,16.8,1.2h0c4.1-0.9,7.9-2.8,11.3-5.4
		l4.3-3.4c4.6-3.6,6.7-9.6,5.4-15.3h0c-0.4-1.5-1.9-2.5-3.4-2.1l0,0c-0.8,0.2-1.5,0.7-1.9,1.4c-1.1,2-3.6,6.2-7.1,8.6
		c-2.2,1.5-5.5,2.6-8.5,3.3c-3.7,0.9-7.5,0.8-11.1-0.1l-7-1.8c-1.6-0.4-3.2-0.1-4.6,0.7h0C92.7,376.1,91.6,378.7,92.2,381.2z"/>
	<g>
		
			<ellipse transform="matrix(0.9747 -0.2237 0.2237 0.9747 -88.1678 49.0813)" class="st5" cx="172.5" cy="413.6" rx="5.7" ry="5.7"/>
		
			<ellipse transform="matrix(0.9747 -0.2237 0.2237 0.9747 -88.1678 49.0813)" class="st13" cx="172.5" cy="413.6" rx="4.4" ry="4.4"/>
	</g>
	<path class="st5" d="M131.2,404l-11,2.5c-4.3,1-8.5-1.7-9.5-6l0,0c-1-4.3,1.7-8.5,6-9.5l11-2.5c4.3-1,8.5,1.7,9.5,6v0
		C138.2,398.7,135.5,403,131.2,404z"/>
	<path class="st12" d="M136.7,392.3c0-0.1-0.1-0.2-0.1-0.3c0-0.1-0.1-0.2-0.1-0.3c-0.1-0.1-0.1-0.3-0.2-0.4c0,0,0-0.1-0.1-0.1
		c-0.1-0.2-0.2-0.3-0.3-0.5c0,0,0,0,0-0.1c-0.1-0.2-0.2-0.3-0.4-0.5c0,0,0,0,0,0c-0.4-0.5-0.9-0.9-1.4-1.2l-22.9,5.3
		c-0.9,1.4-1.2,3.1-0.8,4.8l0.7,3c0.4,1.6,1.3,2.9,2.5,3.7l23.4-5.4l0,0c0.1-0.2,0.2-0.3,0.2-0.5c0,0,0,0,0-0.1
		c0.1-0.1,0.1-0.3,0.2-0.4c0,0,0-0.1,0-0.1c0-0.1,0.1-0.3,0.1-0.4c0-0.1,0-0.1,0-0.2c0-0.1,0.1-0.3,0.1-0.4c0-0.1,0-0.1,0-0.2
		c0-0.1,0-0.2,0-0.4c0-0.1,0-0.2,0-0.3c0-0.1,0-0.2,0-0.3c0-0.1,0-0.2,0-0.4c0-0.1,0-0.2,0-0.2c0-0.2-0.1-0.4-0.1-0.6l-0.7-3
		C136.8,392.7,136.7,392.5,136.7,392.3z"/>
	<path class="st3" d="M136,399.2l-22.1,5.1c-2.4,0.6-4.9-1-5.4-3.4l0,0c-0.6-2.4,1-4.9,3.4-5.4l22.1-5.1c2.4-0.6,4.9,1,5.4,3.4l0,0
		C140,396.2,138.4,398.6,136,399.2z"/>
	<g>
		<path class="st1" d="M215.4,342.3c-6.3,1.4-12.2-1-13.3-5.5c-1-4.5,3.2-9.3,9.5-10.8L215.4,342.3z"/>
		
			<ellipse transform="matrix(0.9747 -0.2237 0.2237 0.9747 -69.3463 56.2355)" class="st13" cx="213.5" cy="334.1" rx="2.8" ry="8.4"/>
		<g>
			<path class="st4" d="M215.5,343c-2.3,0.5-4.5-3.7-5.5-8.1s-0.9-9.2,1.4-9.7c0.4-0.1,0.8,0.2,0.9,0.6c0.1,0.4-0.2,0.8-0.6,0.9
				c-0.7,0.2-1.3,3.3-0.3,7.9c1.1,4.6,3,7.1,3.7,7c0.4-0.1,0.8,0.2,0.9,0.6C216.2,342.5,215.9,342.9,215.5,343z"/>
		</g>
	</g>
	<g>
		<path class="st11" d="M173.6,430.8l-60.3,13.8c-1.2,0.3-2.3-0.5-2.6-1.6s0.5-2.3,1.6-2.6l60.3-13.8c6.2-1.4,11.2-6,13.1-12.1
			l3.6-11.6c1-3,1.1-6.3,0.4-9.4l-3-12.9c-0.3-1.2,0.5-2.3,1.6-2.6s0.6-7.2,0.8-6.1l4.7,20.6c0.9,3.9,0.7,7.9-0.5,11.7l-3.6,11.6
			C187.4,423.3,181.2,429.1,173.6,430.8z"/>
	</g>
	<path class="st10" d="M189.2,372c-0.3-1.2,0.3,5.8-0.8,6.1c-1.2,0.3-1.9,1.4-1.6,2.6l1.4,6.1l3-6.3L189.2,372z"/>
	<path class="st11" d="M166.1,364.1l0.8,7.1l9.4,5.7l-2.4,15.9c-0.1,0.8,0.3,1.5,1.1,1.7l5.3,1.6c0.7,0.2,1.5-0.1,1.8-0.8l8.4-17.9
		c0.3-0.7,0.4-1.5,0.2-2.3l-2-8.6c-0.2-1.1-1.1-1.9-2.2-2.1l-16-2.8L166.1,364.1z"/>
	<path class="st11" d="M176,386.7c-1.4,2.4-3.7,4.2-6.5,4.8c-2.8,0.6-5.7,0.1-8-1.6c-1.2-0.9-2.8-1.2-4.3-0.8c-0.5,0.1-1,0-1.5-0.3
		l-4.1-2.6c-0.8-0.5-1.3-1.3-1.5-2.2c-0.3-1.4,0.2-2.9,1.4-3.7l9.8-6.7c0,0,0,0,0.1,0c0.1-0.1,0.2-0.2,0.3-0.2l0.3-0.2
		c0,0,0.1,0,0.1,0c1.5-0.9,3.2-1.5,5-1.5c4.5-0.1,8.5,2.8,9.8,7C177.7,381.4,177.4,384.2,176,386.7z"/>
	<path class="st10" d="M158.2,388.9c-0.4,0-0.7,0.1-1.1,0.1c-0.5,0.1-1,0-1.5-0.3l-4.1-2.6c-0.8-0.5-1.3-1.3-1.5-2.2
		c-0.3-1.4,0.2-2.9,1.4-3.7l7.7-5.2l1-1.5l-1-2.8l-9.6,6.6c-2.4,1.6-3.5,4.5-2.9,7.4c0.4,1.8,1.5,3.4,3.1,4.3l4.1,2.6
		c1.2,0.8,2.7,1,4.1,0.7c0.5-0.1,1.1,0,1.5,0.3c0.7,0.5,1.5,0.9,2.3,1.3L158.2,388.9z"/>
	<path class="st10" d="M179,388.4c1.9-3.3,2.3-7.2,1.1-10.8c-1.8-5.7-7.2-9.6-13.2-9.4c-0.1,0-0.2,0-0.3,0l0.4,3l0.8,0.5
		c3.4,0.2,6.6,2.1,8.2,5l0.4,0.2l-0.1,0.4c0.2,0.4,0.4,0.9,0.5,1.3c0.9,2.7,0.6,5.6-0.8,8c-0.4,0.7-0.8,1.3-1.4,1.8l-0.6,4.3
		c0,0.2,0,0.4,0,0.6C176,392.2,177.8,390.5,179,388.4z"/>
	<g>
		<path class="st5" d="M166.9,369.9c-2.2,0.1-4.2,0.7-5.9,1.8l0,0l-0.3,0.2c-0.2,0.1-0.3,0.2-0.5,0.3l-9.8,6.7
			c-1.8,1.2-2.6,3.4-2.2,5.5h0c0.3,1.3,1.1,2.5,2.3,3.3l4.1,2.6c0.8,0.5,1.8,0.7,2.8,0.5l0,0c1-0.2,2.1,0,2.9,0.5
			c2.6,1.9,6,2.7,9.4,1.9c6.7-1.5,10.7-8.4,8.6-15.1C176.9,373.2,172.1,369.8,166.9,369.9z"/>
		
			<ellipse transform="matrix(0.9747 -0.2237 0.2237 0.9747 -81.1619 47.094)" class="st3" cx="167.2" cy="381.7" rx="6.7" ry="6.7"/>
		
			<ellipse transform="matrix(0.9747 -0.2237 0.2237 0.9747 -81.1619 47.094)" class="st13" cx="167.2" cy="381.7" rx="5.2" ry="5.2"/>
	</g>
	<path class="st1" d="M137.3,368.6L137.3,368.6c0.4,1.7,2.1,2.8,3.8,2.4l38.4-8.2c2.7-0.6,5.1-1.8,7.2-3.5v0
		c4.1-3.3,6.3-8.4,6.1-13.6l-0.1-2.1c-0.2-5.6-4-10.3-9.3-11.8h0c-3-0.8-6.1-0.5-8.9,0.8h0c-6.8,3.3-13,7.8-18.1,13.4l-18.3,19.7
		C137.4,366.5,137.1,367.6,137.3,368.6z"/>
	<path class="st14" d="M146.2,363.4L146.2,363.4c0.3,1.2,1.5,2,2.8,1.8l28.2-6c2-0.4,3.8-1.3,5.3-2.6h0c3-2.5,4.7-6.2,4.5-10
		l-0.1-1.5c-0.1-4.1-2.9-7.6-6.9-8.7h0c-2.2-0.6-4.5-0.4-6.5,0.6h0c-5,2.4-9.5,5.7-13.3,9.8l-13.5,14.5
		C146.2,361.9,146,362.7,146.2,363.4z"/>
	<line class="st15" x1="153.8" y1="385.3" x2="160.4" y2="391.3"/>
	<g>
		
			<ellipse transform="matrix(0.8995 -0.4369 0.4369 0.8995 -165.2675 99.6869)" class="st11" cx="134.1" cy="409.1" rx="2.5" ry="2.5"/>
		
			<ellipse transform="matrix(0.8995 -0.4369 0.4369 0.8995 -165.2675 99.6869)" class="st9" cx="134.1" cy="409.1" rx="1.9" ry="1.9"/>
	</g>
	<line class="st15" x1="193.3" y1="363" x2="188.2" y2="363.4"/>
	<path class="st15" d="M199.9,353.7L199.9,353.7c0.8,0.6,1.8,0.7,2.8,0.4l1.1-0.4"/>
	<path class="st16" d="M181,338.1c-2.1-0.6-4.2-0.4-6.2,0.6c0,0,0,0,0,0c-4.3,2.1-8.2,4.9-11.5,8.5L152,359.3
		c-0.4,0.4-0.4,1,0.1,1.4c0.3,0.2,0.6,0.3,0.9,0.2c0.2,0,0.4-0.1,0.5-0.3l11.3-12.2c3.1-3.3,6.8-6,10.9-8l0,0
		c1.5-0.7,3.2-0.9,4.8-0.4c0.2,0,0.3,0,0.5,0c0.3-0.1,0.6-0.3,0.7-0.7C181.8,338.8,181.5,338.2,181,338.1z"/>
	<g>
		<path class="st1" d="M55.8,375.4c-15.6,3.6-27.9,14.1-34.4,27.5l0.3,0.1c6.4,2.8,13.9,1.3,18.7-3.7c4.8-5.1,11.2-8.8,18.5-10.5
			c14.6-3.3,29.1,2.4,37.6,13.5c4,5.2,10.6,7.7,17,6.2l1.5-0.3C106.7,384,81.3,369.6,55.8,375.4z"/>
	</g>
	<g>
		
			<ellipse transform="matrix(0.8995 -0.4369 0.4369 0.8995 -166.547 96.401)" class="st11" cx="126.3" cy="410.2" rx="3.1" ry="3.1"/>
		
			<ellipse transform="matrix(0.8995 -0.4369 0.4369 0.8995 -166.547 96.401)" class="st9" cx="126.3" cy="410.2" rx="2.4" ry="2.4"/>
	</g>
	<g>
		
			<ellipse transform="matrix(0.8995 -0.4369 0.4369 0.8995 -167.996 98.8782)" class="st11" cx="130.9" cy="414.6" rx="2.3" ry="2.3"/>
		
			<ellipse transform="matrix(0.8995 -0.4369 0.4369 0.8995 -167.996 98.8782)" class="st9" cx="130.9" cy="414.6" rx="1.8" ry="1.8"/>
	</g>
	<path class="st9" d="M177.1,326.3l-19.7,4.5c-1.7,0.4-3.4-0.7-3.8-2.4l0,0c-0.4-1.7,0.7-3.4,2.4-3.8l19.7-4.5
		c1.7-0.4,3.4,0.7,3.8,2.4h0C179.9,324.2,178.9,325.9,177.1,326.3z"/>
</g>
</svg>
