<?xml version="1.0" encoding="utf-8"?>
<!-- Generator: Adobe Illustrator 21.1.0, SVG Export Plug-In . SVG Version: 6.00 Build 0)  -->
<svg version="1.1" id="Layer_1" xmlns="http://www.w3.org/2000/svg" xmlns:xlink="http://www.w3.org/1999/xlink" x="0px" y="0px"
	 viewBox="0 0 59.7 103.9" style="enable-background:new 0 0 59.7 103.9;" xml:space="preserve">
<style type="text/css">
	.st0{fill:url(#SVGID_1_);}
	.st1{fill:#1E1A1B;}
	.st2{fill:url(#SVGID_2_);}
	.st3{fill:#FFFFFF;}
	.st4{fill:url(#SVGID_3_);}
	.st5{fill:url(#SVGID_4_);}
	.st6{fill:url(#SVGID_5_);}
	.st7{fill:url(#SVGID_6_);}
	.st8{fill:url(#SVGID_7_);}
	.st9{fill:url(#SVGID_8_);}
	.st10{fill:url(#SVGID_9_);}
	.st11{fill:url(#SVGID_10_);}
	.st12{fill:url(#SVGID_11_);}
	.st13{fill:url(#SVGID_12_);}
	.st14{fill:url(#SVGID_13_);}
	.st15{fill:url(#SVGID_14_);}
	.st16{fill:url(#SVGID_15_);}
	.st17{fill:url(#SVGID_16_);}
	.st18{fill:url(#SVGID_17_);}
	.st19{fill:#12100B;}
	.st20{fill:url(#SVGID_18_);}
	.st21{fill:url(#SVGID_19_);}
	.st22{fill:url(#SVGID_20_);}
	.st23{fill:url(#SVGID_21_);}
	.st24{fill:url(#SVGID_22_);}
	.st25{fill:url(#SVGID_23_);}
	.st26{fill:url(#SVGID_24_);}
	.st27{fill:url(#SVGID_25_);}
	.st28{fill:url(#SVGID_26_);}
	.st29{fill:url(#SVGID_27_);}
	.st30{fill:url(#SVGID_28_);}
	.st31{fill:url(#SVGID_29_);}
	.st32{fill:url(#SVGID_30_);}
	.st33{fill:url(#SVGID_31_);}
	.st34{fill:url(#SVGID_32_);}
	.st35{fill:url(#SVGID_33_);}
	.st36{fill:url(#SVGID_34_);}
	.st37{fill:url(#SVGID_35_);}
	.st38{fill:url(#SVGID_36_);}
	.st39{fill:url(#SVGID_37_);}
	.st40{fill:url(#SVGID_38_);}
	.st41{fill:url(#SVGID_39_);}
	.st42{fill:url(#SVGID_40_);}
	.st43{fill:url(#SVGID_41_);}
	.st44{fill:url(#SVGID_42_);}
	.st45{fill:url(#SVGID_43_);}
	.st46{fill:url(#SVGID_44_);}
	.st47{fill:url(#SVGID_45_);}
	.st48{fill:url(#SVGID_46_);}
	.st49{fill:url(#SVGID_47_);}
	.st50{fill:url(#SVGID_48_);}
	.st51{fill:url(#SVGID_49_);}
	.st52{fill:url(#SVGID_50_);}
	.st53{fill:url(#SVGID_51_);}
	.st54{fill:url(#SVGID_52_);}
	.st55{fill:url(#SVGID_53_);}
	.st56{fill:url(#SVGID_54_);}
	.st57{fill:url(#SVGID_55_);}
	.st58{fill:url(#SVGID_56_);}
</style>
<g>
	<g>
		<g>
			<g>
				
					<radialGradient id="SVGID_1_" cx="1512.1787" cy="-188.9773" r="23.8269" gradientTransform="matrix(-1.0984 4.761593e-03 5.335803e-03 1.2309 1690.0767 301.1025)" gradientUnits="userSpaceOnUse">
					<stop  offset="0" style="stop-color:#941B80"/>
					<stop  offset="1" style="stop-color:#662482"/>
				</radialGradient>
				<path class="st0" d="M4.9,65.3c1.2,3.5,2.5,6.8,4.1,10.1c1.9,4,4.6,9.4,6.6,12.5c1.1,1.8,2.3,3.4,3.4,4.6
					c0.1,0.1,0.2,0.2,0.3,0.3c0,0,5.8,5.2,9.1,7.2l6.9,4l-1.7-9.8l8.3,2l-2.8-10.6l8.6,1.2l-4.4-9.4l8.7-0.8l-5.2-8.9l8.3-1.9
					l-0.3-0.4c-5.6-6.4-12.7-11.1-20.5-13.6l0,0c-2.5-0.8-5-1.3-7.6-1.6L0.9,47.5L2,52.9c0.4,3.4,0.1,3.5,1.1,7.1
					C3.3,60.5,4.1,63,4.9,65.3z"/>
			</g>
			<path class="st1" d="M35,81.2l7.2,1l-3.7-7.8l7.3-0.6l-4.4-7.4l6.9-1.6l-0.3-0.3c-4.7-5.4-10.6-9.2-17.1-11.3l0,0
				c-2.1-0.6-4.2-1.1-6.4-1.3L3,49.3l1.2,10.9c0.1,0.6,0,0.9,0.2,1.5l-2.2-4.4c0.4,2,3.5,10.5,4.4,12.3l4.2,8.7
				c1.8,3.8,4.2,7.2,7.1,10.1v0c2.3,2.4,4.9,4.4,7.6,5.9l5.7,3.3l-0.7-9.2l6.9,1.6L35,81.2z"/>
			
				<radialGradient id="SVGID_2_" cx="1568.1671" cy="-343.1751" r="18.0887" gradientTransform="matrix(-1.2089 5.240418e-03 5.740516e-03 1.3242 1922.0034 518.7441)" gradientUnits="userSpaceOnUse">
				<stop  offset="0" style="stop-color:#1A75BA"/>
				<stop  offset="1" style="stop-color:#65C6ED"/>
			</radialGradient>
			<path class="st2" d="M33.9,80l6.9,0.9l-3.6-7.5l7-0.6l-4.2-7.1l6.7-1.5l-0.3-0.3C41.9,58.7,36.2,55,30,53h0c-2-0.6-4-1.1-6.1-1.3
				L3,49.3l1,10.5c0.1,1-2.1-4.1-2.1-4.1C2.3,58,5.7,67.3,6.8,69.5l3.7,7.6c1.8,3.7,4.1,7,6.8,9.8h0c2.2,2.3,4.7,4.2,7.4,5.7
				l5.5,3.2l-0.7-8.9l6.7,1.6L33.9,80z"/>
			<g>
				<path class="st3" d="M30,76.6l6.2,0.8L33,70.7l6.3-0.5l-3.8-6.3l6-1.3l-0.2-0.3c-4.1-4.5-9.2-7.8-14.8-9.6l0,0
					c-1.8-0.5-3.6-0.9-5.5-1.1L2.3,49.4L1,54.4C1.3,56,4.6,65.1,5.4,66.6L9,74c1.6,3.2,3.6,6.1,6.1,8.6v0c2,2,4.2,3.7,6.6,5.1
					l4.9,2.8L26,82.7l6,1.4L30,76.6z"/>
				
					<radialGradient id="SVGID_3_" cx="1402.3906" cy="220.137" r="18.0887" gradientTransform="matrix(-1.0426 4.519755e-03 4.879607e-03 1.1256 1481.803 -184.9451)" gradientUnits="userSpaceOnUse">
					<stop  offset="0" style="stop-color:#941B80"/>
					<stop  offset="1" style="stop-color:#662482"/>
				</radialGradient>
				<path class="st4" d="M28.9,75.6l6,0.8l-3.1-6.4l6.1-0.5l-3.6-6l5.7-1.3l-0.2-0.3c-3.9-4.4-8.8-7.6-14.2-9.2h0
					c-1.7-0.5-3.5-0.9-5.3-1.1l-18-2.1l0.8,8.9c0.1,0.8-1.8-3.5-1.8-3.5c0.4,2,3.4,10,4.3,11.8l3.2,6.5c1.5,3.1,3.5,5.9,5.9,8.3h0
					c1.9,1.9,4,3.6,6.3,4.9l4.8,2.7l-0.6-7.5l5.7,1.3L28.9,75.6z"/>
				<path class="st1" d="M31,61.2l5.3-1.2l-0.2-0.2c-3.6-4.1-8.1-7.1-13.1-8.6c-1.6-0.5-3.2-0.8-4.9-1L1.5,48.2l0.9,9.1
					c0.1,0.6,0.2,1.4,0.4,2.1c0.4,1.7,1,3.3,1.8,4.8l2.8,6c1.4,2.9,3.2,5.5,5.4,7.8c1.8,1.8,3.7,3.3,5.9,4.5l4.4,2.5l-0.6-7l5.3,1.2
					L26,72.6l5.5,0.7l-2.8-6l5.6-0.5L31,61.2z"/>
				
					<radialGradient id="SVGID_4_" cx="1412.4058" cy="45.3065" r="15.4746" gradientTransform="matrix(-1.0815 4.688448e-03 5.063487e-03 1.1681 1545.7954 6.5935)" gradientUnits="userSpaceOnUse">
					<stop  offset="0" style="stop-color:#1A75BA"/>
					<stop  offset="1" style="stop-color:#65C6ED"/>
				</radialGradient>
				<path class="st5" d="M30.1,60.9l5.1-1.2l-0.2-0.2c-3.5-4-7.9-6.9-12.7-8.4h0c-1.5-0.5-3.1-0.8-4.7-1l-16-1.9l0.8,8.4
					c0.1,1.2-1-1.4-0.5,0c0.4,1.3,2.5,7,3,8.1l2.4,4.9c1.4,2.8,3.1,5.4,5.3,7.5c1.7,1.7,3.6,3.2,5.7,4.4l4.3,2.4l-0.5-6.8l5.2,1.2
					l-1.7-6.6l5.4,0.7l-2.8-5.8l5.4-0.5L30.1,60.9z"/>
				<path class="st3" d="M26.4,59.8l4.5-1.1l-0.2-0.2c-3.1-3.6-6.9-6.3-11.1-7.7c-1.3-0.4-2.7-0.7-4.1-0.9l-14-1.7l0,7.5
					c0,0.5,1.8,5.4,2.4,6.8l2.5,5.4c1.2,2.6,2.7,4.9,4.6,6.9c1.5,1.6,3.2,3,5,4.1l3.7,2.2l-0.5-6.3l4.5,1.1l-1.5-6l4.7,0.7l-2.4-5.3
					l4.7-0.4L26.4,59.8z"/>
				
					<radialGradient id="SVGID_5_" cx="1486.0212" cy="90.999" r="15.6502" gradientTransform="matrix(-0.9137 3.961091e-03 4.511106e-03 1.0406 1372.9231 -36.394)" gradientUnits="userSpaceOnUse">
					<stop  offset="0" style="stop-color:#941B80"/>
					<stop  offset="1" style="stop-color:#662482"/>
				</radialGradient>
				<path class="st6" d="M25.7,59.5l4.3-1l-0.2-0.2c-3-3.5-6.7-6.1-10.8-7.4h0c-1.3-0.4-2.6-0.7-4-0.9L1.5,48.2L0.9,54
					c0.1,1,2,5.6,2,5.6S3.8,62,4.3,63l2,4.3c1.2,2.5,2.7,4.8,4.4,6.7c1.4,1.6,3.1,2.9,4.8,3.9l3.6,2.2l-0.5-6.1l4.4,1.1l-1.5-5.8
					l4.5,0.6l-2.3-5.2l4.6-0.4L25.7,59.5z"/>
				<path class="st1" d="M22.4,58l3.7-1l-0.2-0.2c-2.6-3.1-5.8-5.2-9.3-6.3c-1.1-0.4-2.3-0.6-3.5-0.8L1.5,48.2l0.6,6.8
					c0,0.4-0.9-0.5-0.7,0.1c0.3,1.2,1.4,3.6,2,4.7l2.3,4.9c1,2.2,2.3,4.1,3.8,5.8c1.2,1.3,2.6,2.5,4.1,3.4l3.1,1.9l-0.4-5.3l3.8,0.9
					l-1.3-5l3.9,0.5l-2-4.5l4-0.4L22.4,58z"/>
				
					<radialGradient id="SVGID_6_" cx="1577.214" cy="171.303" r="15.4746" gradientTransform="matrix(-0.7658 3.319888e-03 3.785355e-03 0.8732 1220.7253 -93.1983)" gradientUnits="userSpaceOnUse">
					<stop  offset="0" style="stop-color:#1A75BA"/>
					<stop  offset="1" style="stop-color:#65C6ED"/>
				</radialGradient>
				<path class="st7" d="M21.7,57.7l3.6-0.9l-0.2-0.2c-2.5-3-5.6-5.1-9-6.3h0c-1.1-0.4-2.2-0.6-3.4-0.8L1.5,48.2l0.6,6.3
					c0.1,0.9-0.7,0.2-0.4,1.3c0.3,0.9,1.7,3.9,2.1,4.7l1.8,3.7c1,2.1,2.2,4,3.7,5.6c1.2,1.3,2.6,2.4,4,3.3l3,1.8l-0.4-5.1l3.6,0.9
					l-1.2-4.9l3.8,0.5l-1.9-4.3l3.9-0.4L21.7,57.7z"/>
				<path class="st3" d="M19.5,57.3l3.3-1.2l-0.1-0.2c-2.2-2.7-5-4.7-8-5.7c-1-0.3-2-0.6-3-0.7L1.5,48.2l0.5,6
					c0,0.4,0.1,0.9,0.3,1.4C2.6,56.8,1.2,55,1.6,56l3.5,6.9c0.9,1.9,2,3.7,3.3,5.1c1.1,1.2,2.3,2.2,3.6,3l2.7,1.7L14.4,68l3.3,0.8
					l-1.1-4.5l3.4,0.5l-1.7-3.6l3.4-0.3L19.5,57.3z"/>
				
					<radialGradient id="SVGID_7_" cx="1296.6281" cy="730.6478" r="15.4746" gradientTransform="matrix(-0.6627 2.872898e-03 3.351361e-03 0.7731 868.7327 -508.4977)" gradientUnits="userSpaceOnUse">
					<stop  offset="0" style="stop-color:#941B80"/>
					<stop  offset="1" style="stop-color:#662482"/>
				</radialGradient>
				<path class="st8" d="M18.9,57.1l3.3-1.3L22,55.7c-2.2-2.6-4.8-4.5-7.8-5.5h0c-0.9-0.3-1.9-0.5-2.9-0.7l-9.8-1.2L2,53.8
					c0.1,0.8,0.4,2,0.7,3c0.2,0.8-0.1,0.7,0.2,1.5L4.2,61c0,0,2.7,5,4,6.5c1,1.2,2.2,2.1,3.5,2.9l2.6,1.6L14,67.5l3.2,0.8l-1.1-4.3
					l3.3,0.5l-1.7-3.5l3.3-0.3L18.9,57.1z"/>
				<path class="st1" d="M17.2,57l2.6-1.6c0,0-4.4-4.2-7-5.1c-0.8-0.3-1.7-0.8-2.5-0.9l-8.8-1.2L2,53.7c0,0.4,0.1,0.8,0.2,1.3
					c0.2,1,0.6,2,0.9,2.9l1.5,3.6c0.7,1.7,1.7,3.3,2.9,4.7c0.9,1.1,2,2,3.1,2.7l2.3,1.5l-0.3-4.2l2.8,0.7l-1-4.1l2.9,0.4L16,60.2
					l3-0.3L17.2,57z"/>
				
					<radialGradient id="SVGID_8_" cx="1394.8756" cy="788.7543" r="15.3759" gradientTransform="matrix(-0.5763 2.498078e-03 3.038229e-03 0.7009 811.8255 -497.3094)" gradientUnits="userSpaceOnUse">
					<stop  offset="0" style="stop-color:#1A75BA"/>
					<stop  offset="1" style="stop-color:#65C6ED"/>
				</radialGradient>
				<path class="st9" d="M16.6,56.9l2.6-1.5c0,0-4.1-4.1-6.7-5l0-0.4c-0.8-0.3-1.7-0.5-2.5-0.6l-8.5-1.1l0.4,5.1
					C2,54,2.3,55.1,2.5,56c0.2,0.8,0.5,1.5,0.8,2.2L4,60.6c0,0,2.2,3.7,3.3,5c0.9,1,1.9,1.9,3,2.7l2.3,1.5l-0.3-4.1l2.7,0.7
					l-0.9-3.9l2.9,0.4l-1.5-3l2.8-0.3L16.6,56.9z"/>
				<path class="st3" d="M11.4,52.3c-0.8-0.2-1.5-0.4-2.3-0.5L1.6,51l0.5,5.1c0,0.5-1.3-1.8-1.3-1.8s2,4.3,2.3,4.7L4,60.7
					c0.7,1.3,1.5,2.4,2.6,3.4c0.8,0.8,1.8,1.5,2.8,2l2.1,1.1l-0.3-3.1l2.5,0.6l-0.9-3l2.6,0.3l-1.4-2.7l2.7-0.2l-1.6-2.5l2-1.1
					C17.3,55.6,14.9,52.5,11.4,52.3z"/>
				
					<radialGradient id="SVGID_9_" cx="257.8946" cy="1978.7126" r="7.4455" gradientTransform="matrix(-1.0209 4.425395e-03 4.879999e-03 1.1257 262.38 -2169.7217)" gradientUnits="userSpaceOnUse">
					<stop  offset="0" style="stop-color:#941B80"/>
					<stop  offset="1" style="stop-color:#662482"/>
				</radialGradient>
				<path class="st10" d="M16.7,55.4c-1.7-1.8-3.3-2.5-5.6-3.2c-0.7-0.2-1.5-0.4-2.3-0.4L1.6,51c0,0-1,2.6-0.8,3
					c0.2,0.7,2.1,4.4,2.4,5l0.7,1.4c0.7,1.2,1.5,2.4,2.5,3.3v0c0.8,0.8,1.7,1.4,2.7,2l2,1.1l-0.3-3l2.5,0.5l-0.8-2.9l2.6,0.3
					l-1.3-2.6l2.6-0.2l-1.6-2.4L16.7,55.4z"/>
				<g>
					<g>
						<g>
							<path class="st1" d="M10.1,52.1c-0.7-0.2-1.3-0.3-2-0.4L1.5,51l0.4,4.6c0,0.5-1.1-1.7-1.1-1.7s1.8,3.9,2,4.3l0.8,1.6
								C4.2,61,5,62,5.9,62.9c0.7,0.7,1.6,1.3,2.4,1.8l1.8,1l-0.2-2.8l2.2,0.5l-0.7-2.7l2.3,0.3l-1.2-2.4l2.3-0.2l-1.4-2.3l2.2-0.8
								C15.7,55.4,12.9,52.6,10.1,52.1z"/>
							
								<radialGradient id="SVGID_10_" cx="318.7801" cy="2018.3048" r="7.5777" gradientTransform="matrix(-0.8907 3.861369e-03 4.405930e-03 1.0164 283.0349 -1994.4298)" gradientUnits="userSpaceOnUse">
								<stop  offset="0" style="stop-color:#1A75BA"/>
								<stop  offset="1" style="stop-color:#65C6ED"/>
							</radialGradient>
							<path class="st11" d="M15.1,55.2c0,0-2.7-2.7-5.3-3.1c-0.6-0.2-1.3-0.3-2-0.4L1.5,51c0,0-0.9,2.4-0.7,2.7
								c0.2,0.6,1.8,4,2.1,4.5l0.6,1.3c0.6,1.1,1.3,2.1,2.2,3v0c0.7,0.7,1.5,1.3,2.4,1.8l1.8,1l-0.2-2.7l2.2,0.5l-0.7-2.6l2.2,0.3
								l-1.1-2.3l2.3-0.2L13.1,56L15.1,55.2z"/>
						</g>
					</g>
				</g>
				<g>
					<g>
						<g>
							<path class="st3" d="M13.6,54.9c-1.3-1.4-3-2.4-4.8-3c-0.6-0.2-1.2-0.3-1.8-0.4L1.4,51l0.4,3.9c0,0.4-1-1.4-1-1.4
								s1.5,3.3,1.7,3.7l0.7,1.4c0.5,1,1.2,1.9,2,2.7c0.6,0.6,1.4,1.1,2.1,1.6l1.6,0.9l-0.2-2.4l1.9,0.4L10,59.4l2,0.3l-1-2.1l2-0.2
								l-1.2-1.9L13.6,54.9L13.6,54.9z"/>
							
								<radialGradient id="SVGID_11_" cx="391.2702" cy="2083.3757" r="7.5079" gradientTransform="matrix(-0.7735 3.353078e-03 3.799322e-03 0.8764 301.9363 -1770.0975)" gradientUnits="userSpaceOnUse">
								<stop  offset="0" style="stop-color:#941B80"/>
								<stop  offset="1" style="stop-color:#662482"/>
							</radialGradient>
							<path class="st12" d="M13.3,54.8c-1.3-1.4-2.9-2.4-4.6-2.9c-0.6-0.2-1.1-0.3-1.7-0.3L1.4,51c0,0-0.5,2.9-0.3,3.2
								c0.2,0.5,1.3,2.6,1.5,3.1l0.6,1.1c0.5,1,1.1,1.9,1.9,2.6v0c0.6,0.6,1.3,1.1,2.1,1.5l1.5,0.8L8.5,61l1.9,0.4l-0.6-2.3l1.9,0.2
								l-1-2l2-0.2l-1.2-1.9L13.3,54.8L13.3,54.8z"/>
						</g>
					</g>
				</g>
				<g>
					<g>
						<g>
							<path class="st1" d="M11.9,54.4c-1.1-1.2-2.5-2.1-4.1-2.5c-0.5-0.1-1-0.2-1.5-0.3L1.3,51l0.3,3.4c0,0.3-0.8-1.2-0.8-1.2
								s1.3,2.8,1.5,3.1l0.6,1.2c0.4,0.9,1,1.6,1.7,2.3c0.6,0.5,1.2,1,1.8,1.3l1.4,0.7l-0.2-2.1l1.7,0.4l-0.6-2l1.7,0.2l-0.9-1.8
								l1.8-0.1l-1-1.7L11.9,54.4L11.9,54.4z"/>
							
								<radialGradient id="SVGID_12_" cx="479.148" cy="2165.2703" r="7.5056" gradientTransform="matrix(-0.6673 2.892880e-03 3.238218e-03 0.747 319.0685 -1562.5919)" gradientUnits="userSpaceOnUse">
								<stop  offset="0" style="stop-color:#1A75BA"/>
								<stop  offset="1" style="stop-color:#65C6ED"/>
							</radialGradient>
							<path class="st13" d="M11.5,54.3c-1.1-1.2-2.5-2-4-2.5c-0.5-0.1-1-0.2-1.5-0.3L1.3,51l0.3,3.2c0,0.3-0.7-0.8-0.6-0.5
								c0.2,0.4,1.1,2.2,1.3,2.6l0.5,0.9c0.4,0.8,1,1.6,1.6,2.2v0c0.5,0.5,1.1,1,1.8,1.3l1.3,0.7l-0.2-2L9,59.9l-0.5-1.9l1.7,0.2
								l-0.9-1.7l1.7-0.1l-1-1.6L11.5,54.3L11.5,54.3z"/>
						</g>
					</g>
				</g>
				<g>
					<g>
						<path class="st3" d="M10.2,53.8c-1-1-2.2-1.8-3.5-2.1c-0.4-0.1-0.9-0.2-1.3-0.3L1.2,51l0.3,2.8c0,0.3-0.7-1-0.7-1
							s1.1,2.4,1.3,2.7l0.5,1c0.4,0.7,0.9,1.4,1.4,1.9c0.5,0.4,1,0.8,1.6,1.1l1.2,0.6l-0.1-1.7L8,58.7L7.5,57L9,57.2l-0.7-1.5
							l1.5-0.1l-0.9-1.4L10.2,53.8L10.2,53.8z"/>
						
							<radialGradient id="SVGID_13_" cx="595.696" cy="2266.3525" r="7.5056" gradientTransform="matrix(-0.5646 2.447415e-03 2.738942e-03 0.6318 335.5818 -1377.9568)" gradientUnits="userSpaceOnUse">
							<stop  offset="0" style="stop-color:#941B80"/>
							<stop  offset="1" style="stop-color:#662482"/>
						</radialGradient>
						<path class="st14" d="M9.9,53.8c-0.9-1-2.1-1.7-3.4-2.1c-0.4-0.1-0.8-0.2-1.2-0.2l-4-0.4l0.2,2.7c0,0.2-0.6-0.7-0.5-0.4
							c0.1,0.4,0.9,1.9,1.1,2.2l0.4,0.8c0.4,0.7,0.8,1.3,1.4,1.9v0c0.5,0.4,1,0.8,1.5,1.1l1.1,0.6l-0.1-1.7l1.4,0.3l-0.5-1.6L8.7,57
							L8,55.6l1.4-0.1l-0.9-1.4L9.9,53.8L9.9,53.8z"/>
					</g>
				</g>
				<g>
					<g>
						<path class="st1" d="M8.7,53.3c-0.8-0.8-1.8-1.4-2.9-1.7c-0.4-0.1-0.7-0.2-1.1-0.2L1.2,51l0.2,2.3c0,0.2-0.6-0.8-0.6-0.8
							s1,1.9,1.1,2.1l0.4,0.8C2.6,56,3,56.5,3.5,56.9c0.4,0.4,0.8,0.7,1.3,0.9l1,0.5L5.7,57l1.2,0.2l-0.4-1.4L7.7,56l-0.6-1.2
							l1.3-0.1l-0.7-1.1L8.7,53.3L8.7,53.3z"/>
						
							<radialGradient id="SVGID_14_" cx="734.3512" cy="2425.7351" r="7.5056" gradientTransform="matrix(-0.4772 2.068480e-03 2.203300e-03 0.5083 349.8068 -1179.8583)" gradientUnits="userSpaceOnUse">
							<stop  offset="0" style="stop-color:#1A75BA"/>
							<stop  offset="1" style="stop-color:#65C6ED"/>
						</radialGradient>
						<path class="st15" d="M8.5,53.2c-0.8-0.8-1.8-1.4-2.8-1.7c-0.3-0.1-0.7-0.2-1.1-0.2L1.2,51l0.2,2.2c0,0.2-0.5-0.5-0.4-0.3
							c0.1,0.3,0.8,1.5,0.9,1.8l0.3,0.6c0.3,0.6,0.7,1.1,1.2,1.5l0,0c0.4,0.3,0.8,0.6,1.3,0.9l1,0.5l-0.1-1.4L6.7,57l-0.4-1.3
							l1.2,0.1l-0.6-1.2l1.2-0.1l-0.7-1.1L8.5,53.2L8.5,53.2z"/>
					</g>
					<g>
						<path class="st3" d="M7.4,52.9c-0.7-0.7-1.5-1.2-2.4-1.4c-0.3-0.1-0.6-0.1-0.9-0.2L1.1,51l0.2,1.9c0,0.2-0.5-0.7-0.5-0.7
							s0.8,1.6,0.9,1.8L2,54.6c0.3,0.5,0.6,0.9,1,1.3c0.3,0.3,0.7,0.5,1.1,0.7L5,57.1l-0.1-1.2l1,0.2L5.5,55l1,0.1l-0.5-1l1-0.1
							l-0.6-0.9L7.4,52.9L7.4,52.9z"/>
						
							<radialGradient id="SVGID_15_" cx="915.304" cy="2599.4019" r="7.5056" gradientTransform="matrix(-0.397 1.720775e-03 1.816268e-03 0.419 362.6919 -1036.7319)" gradientUnits="userSpaceOnUse">
							<stop  offset="0" style="stop-color:#941B80"/>
							<stop  offset="1" style="stop-color:#662482"/>
						</radialGradient>
						<path class="st16" d="M7.2,52.8c-0.7-0.7-1.5-1.1-2.4-1.4c-0.3-0.1-0.6-0.1-0.9-0.2L1.1,51l0.2,1.8c0,0.2-0.4-0.4-0.3-0.3
							C1,52.8,1.6,53.8,1.7,54L2,54.5c0.3,0.5,0.6,0.9,1,1.2l0,0C3.3,56,3.7,56.3,4,56.5l0.8,0.4l-0.1-1.1l1,0.2l-0.3-1.1l1,0.1
							l-0.5-1l1-0.1l-0.6-0.9L7.2,52.8L7.2,52.8z"/>
					</g>
				</g>
				<g>
					<path class="st1" d="M6.4,52.6c-0.6-0.6-1.3-1-2.1-1.2c-0.3-0.1-0.5-0.1-0.8-0.1L1.1,51l0.2,1.6c0,0.2-0.4-0.6-0.4-0.6
						s0.7,1.3,0.7,1.5l0.3,0.6c0.2,0.4,0.5,0.8,0.9,1.1c0.3,0.3,0.6,0.5,0.9,0.6l0.7,0.4l-0.1-1l0.8,0.2l-0.3-0.9l0.9,0.1l-0.4-0.8
						l0.9-0.1l-0.5-0.8L6.4,52.6L6.4,52.6z"/>
					
						<radialGradient id="SVGID_16_" cx="916.5732" cy="2598.3191" r="6.3537" gradientTransform="matrix(-0.397 1.720775e-03 1.816268e-03 0.419 362.6919 -1036.7319)" gradientUnits="userSpaceOnUse">
						<stop  offset="0" style="stop-color:#1A75BA"/>
						<stop  offset="1" style="stop-color:#65C6ED"/>
					</radialGradient>
					<path class="st17" d="M6.2,52.5c-0.6-0.6-1.2-1-2-1.2c-0.2-0.1-0.5-0.1-0.7-0.1L1.1,51l0.1,1.5c0,0.1-0.3-0.4-0.3-0.2
						c0.1,0.2,0.6,1,0.7,1.2L1.8,54C2,54.4,2.3,54.7,2.6,55v0c0.3,0.2,0.6,0.5,0.9,0.6L4.2,56l-0.1-1l0.8,0.2l-0.3-0.9l0.8,0.1
						l-0.4-0.8l0.9-0.1l-0.5-0.8L6.2,52.5L6.2,52.5z"/>
				</g>
				<g>
					<path class="st3" d="M5.2,52.3c-0.4-0.5-1-0.8-1.6-1c-0.2-0.1-0.4,0-0.6,0L1.3,51l0.1,1.3c0,0.3-0.7-0.4-0.6-0.2l0.2,0.5
						c0.2,0.3,1.2,1.4,1.4,1.7c0.2,0.2,0.4,0.4,0.7,0.5l0.5,0.3l-0.1-0.8l0.6,0.1L4,53.7l0.7,0.1l-0.3-0.7L5,53.1l-0.4-0.6L5.2,52.3
						L5.2,52.3z"/>
					
						<radialGradient id="SVGID_17_" cx="1116.2322" cy="1819.8776" r="4.6719" gradientTransform="matrix(-0.4319 1.872164e-03 1.975008e-03 0.4556 481.5051 -778.242)" gradientUnits="userSpaceOnUse">
						<stop  offset="0" style="stop-color:#941B80"/>
						<stop  offset="1" style="stop-color:#662482"/>
					</radialGradient>
					<path class="st18" d="M5.1,52.2c-0.4-0.4-0.9-0.8-1.5-0.9c-0.2-0.1-0.4-0.1-0.6-0.1L1.3,51l0.1,1.3c0,0.3-0.5,0.1-0.5,0.1
						l0.2,0.5c0.2,0.4,1.1,1.3,1.3,1.4l0,0c0.2,0.2,0.7,0.5,1,0.7L3.6,55l-0.1-0.8l0.6,0.1L4,53.6l0.6,0.1L4.3,53L4.9,53l-0.4-0.6
						L5.1,52.2L5.1,52.2z"/>
					<path class="st19" d="M4.6,52.1c-0.4-0.3-0.9-0.6-1.4-0.7c-0.2,0-0.4,0-0.5,0l-1.7-0.3l0.1,1c0,0.2-0.5-0.4-0.5-0.4l0.3,0.7
						c0.4,0.6,1,1,1.2,1.2c0.2,0.2,0.4,0.3,0.6,0.4l0.5,0.2l-0.1-0.6l0.6,0.1l-0.2-0.6l0.6,0.1l-0.3-0.5l0.6,0L4,52.2L4.6,52.1
						L4.6,52.1z"/>
					
						<radialGradient id="SVGID_18_" cx="1310.0914" cy="1759.7374" r="3.609" gradientTransform="matrix(-0.5135 2.226202e-03 1.904776e-03 0.4394 672.0013 -723.4786)" gradientUnits="userSpaceOnUse">
						<stop  offset="0" style="stop-color:#1A75BA"/>
						<stop  offset="1" style="stop-color:#65C6ED"/>
					</radialGradient>
					<path class="st20" d="M4.5,52.1c-0.4-0.3-0.9-0.6-1.4-0.7c-0.2,0-0.3-0.1-0.5-0.1l-1.6-0.1l0.1,1c0,0.2-0.5-0.2-0.4,0
						c0,0,0.1,0.3,0.2,0.4c0.2,0.2,0.9,0.9,1.1,1l0,0c0.2,0.2,0.6,0.4,0.9,0.5l0.2,0.1L3,53.6l0.6,0.1l-0.2-0.6L4,53.2l-0.3-0.5
						l0.6,0l-0.4-0.5L4.5,52.1L4.5,52.1z"/>
					<g>
						<path class="st3" d="M4.1,51.2c-0.4-0.4-1-0.6-1.5-0.8c-0.2,0-0.4-0.1-0.6-0.1l-1.8-0.3l0.1,1.1c0,0.3,0.3,0.8,0.3,0.8
							c0.2,0.5,0.5,0.8,0.8,1c0.2,0.2,0.4,0.3,0.7,0.4l0.5,0.2L2.5,53l0.6,0.1l-0.2-0.7l0.7,0.1L3.2,52l0.7,0l-0.4-0.6L4.1,51.2
							L4.1,51.2z"/>
						
							<radialGradient id="SVGID_19_" cx="1494.416" cy="1736.7043" r="3.3309" gradientTransform="matrix(-0.572 2.479456e-03 2.298417e-03 0.5302 852.8732 -872.6577)" gradientUnits="userSpaceOnUse">
							<stop  offset="0" style="stop-color:#941B80"/>
							<stop  offset="1" style="stop-color:#662482"/>
						</radialGradient>
						<path class="st21" d="M4,51.2c-0.4-0.4-0.9-0.7-1.5-0.8l0,0c-0.2,0-0.4-0.1-0.6-0.1l-1.7-0.2l0.1,1c0,0.3,0.1,0.7,0.3,1l0,0.1
							c0.2,0.3,0.4,0.5,0.6,0.7c0.2,0.2,0.4,0.3,0.7,0.4l0.5,0.2l-0.1-0.7L3,53.1l-0.2-0.6l0.6,0.1l-0.3-0.6l0.6,0l-0.4-0.5L4,51.2
							L4,51.2z"/>
					</g>
				</g>
				<g>
					<path class="st19" d="M3.5,51c-0.4-0.3-0.8-0.5-1.3-0.6c-0.2,0-0.3-0.1-0.5-0.1l-1.5-0.2L0.3,51c0,0.3,0.1,0.6,0.3,0.8l0.1,0.1
						c0.1,0.2,0.3,0.5,0.5,0.6c0.2,0.2,0.4,0.3,0.6,0.4l0.4,0.2l-0.1-0.6l0.5,0.1l-0.2-0.6L3,52.2l-0.3-0.5l0.6,0L3,51.2L3.5,51
						L3.5,51z"/>
					
						<radialGradient id="SVGID_20_" cx="1586.3881" cy="1305.1705" r="2.5749" gradientTransform="matrix(-0.6232 2.701487e-03 2.513572e-03 0.5798 987.1156 -709.4886)" gradientUnits="userSpaceOnUse">
						<stop  offset="0" style="stop-color:#1A75BA"/>
						<stop  offset="1" style="stop-color:#65C6ED"/>
					</radialGradient>
					<path class="st22" d="M3.4,51c-0.4-0.3-0.8-0.6-1.3-0.7v0c-0.2,0-0.3-0.1-0.5-0.1l-1.4-0.1L0.3,51c0,0.3,0.1,0.6,0.3,0.8l0,0.1
						c0.1,0.2,0.3,0.4,0.5,0.6c0.2,0.1,0.4,0.3,0.6,0.4l0.4,0.2l-0.1-0.6l0.5,0.1l-0.2-0.5l0.5,0.1l-0.3-0.5l0.5,0l-0.3-0.5L3.4,51
						L3.4,51z"/>
				</g>
				<g>
					<path class="st3" d="M2.9,50.9c-0.3-0.3-0.6-0.5-1-0.6c-0.1,0-0.3-0.1-0.4-0.1l-1.1-0.1L0.5,51c0,0.2,0.1,0.4,0.2,0.6l0,0
						c0.1,0.2,0.3,0.4,0.4,0.6c0.1,0.1,0.3,0.2,0.5,0.3l0.3,0.2l0-0.5l0.4,0.1l-0.1-0.5l0.4,0.1l-0.2-0.4l0.4,0L2.5,51L2.9,50.9
						L2.9,50.9z"/>
					
						<radialGradient id="SVGID_21_" cx="1682.9341" cy="448.4105" r="1.774" gradientTransform="matrix(-0.6816 2.954633e-03 3.073490e-03 0.709 1147.288 -271.5124)" gradientUnits="userSpaceOnUse">
						<stop  offset="0" style="stop-color:#941B80"/>
						<stop  offset="1" style="stop-color:#662482"/>
					</radialGradient>
					<path class="st23" d="M2.8,50.9c-0.3-0.3-0.6-0.5-1-0.6c-0.1,0-0.2-0.1-0.4-0.1l-1.1,0L0.5,51c0,0.2,0.1,0.4,0.2,0.6h0
						c0.1,0.2,0.2,0.4,0.4,0.5c0.1,0.1,0.3,0.2,0.4,0.3l0.3,0.2l0-0.5l0.4,0.1l-0.1-0.5l0.4,0.1l-0.2-0.4l0.4,0L2.4,51L2.8,50.9
						L2.8,50.9z"/>
					<path class="st19" d="M2.5,50.7c-0.3-0.2-0.6-0.4-0.9-0.5c-0.1,0-0.2,0-0.3-0.1l-0.9-0.1l-0.1,0.2L0.3,51
						c0,0.2,0.1,0.3,0.2,0.5c0.1,0.2,0.2,0.3,0.3,0.4C1,51.9,1.1,52,1.3,52.1l0.3,0.1l0-0.4l0.4,0.1l-0.1-0.4l0.4,0L2,51.2l0.4,0
						l-0.2-0.3L2.5,50.7L2.5,50.7z"/>
					
						<radialGradient id="SVGID_22_" cx="1645.9558" cy="448.0806" r="1.5404" gradientTransform="matrix(-0.7243 3.139782e-03 3.074415e-03 0.7092 1192.0394 -271.8318)" gradientUnits="userSpaceOnUse">
						<stop  offset="0" style="stop-color:#1A75BA"/>
						<stop  offset="1" style="stop-color:#65C6ED"/>
					</radialGradient>
					<path class="st24" d="M2.4,50.7c-0.2-0.2-0.6-0.5-0.9-0.6c-0.1,0-0.2,0-0.3-0.1c0,0-0.8-0.1-1.1,0l0.3,1c0,0.1,0,0.1,0.1,0.2h0
						c0.1,0.2,0.2,0.3,0.4,0.4C0.9,51.9,1.1,52,1.2,52l0.3,0.1l0-0.4l0.4,0.1l-0.1-0.4l0.4,0l-0.2-0.3l0.4,0l-0.2-0.3L2.4,50.7
						L2.4,50.7z"/>
				</g>
				<g>
					<path class="st3" d="M2.1,50.7c-0.2-0.2-0.5-0.4-0.8-0.4c-0.1,0-0.2,0-0.3-0.1l-0.8-0.1l-0.1,0.2l0.1,0.6
						c0,0.1,0.1,0.3,0.2,0.4c0.1,0.1,0.2,0.2,0.3,0.3c0.1,0.1,0.2,0.2,0.3,0.2l0.3,0.1l0-0.4l0.3,0.1l-0.1-0.3l0.3,0L1.7,51L2,51
						l-0.2-0.3L2.1,50.7L2.1,50.7z"/>
					
						<radialGradient id="SVGID_23_" cx="1611.1478" cy="404.2589" r="1.2336" gradientTransform="matrix(-0.771 3.342396e-03 3.317307e-03 0.7652 1242.0187 -263.7646)" gradientUnits="userSpaceOnUse">
						<stop  offset="0" style="stop-color:#941B80"/>
						<stop  offset="1" style="stop-color:#662482"/>
					</radialGradient>
					<path class="st25" d="M2.1,50.6c-0.2-0.2-0.5-0.4-0.8-0.5c-0.1,0-0.2,0-0.3-0.1c0,0-0.7-0.1-0.9,0L0.4,51c0,0.1,0,0.1,0.1,0.2
						h0c0.1,0.1,0.2,0.3,0.3,0.4c0.1,0.1,0.2,0.2,0.3,0.2l0.3,0.1l0-0.3l0.3,0.1l-0.1-0.3l0.3,0L1.7,51L2,51l-0.2-0.3L2.1,50.6
						L2.1,50.6z"/>
					<g>
						<path class="st19" d="M1.9,50.6c-0.2-0.2-0.4-0.3-0.7-0.4c-0.1,0-0.2,0-0.2,0l-0.7,0l0.1,0.5c0,0.1,0.1,0.3,0.1,0.4l0,0
							c0.1,0.1,0.2,0.2,0.3,0.3c0.1,0.1,0.2,0.1,0.3,0.2l0.2,0.1l0-0.3l0.3,0.1l-0.1-0.3l0.3,0l-0.1-0.3l0.3,0l-0.2-0.2L1.9,50.6
							L1.9,50.6z"/>
						
							<radialGradient id="SVGID_24_" cx="1573.702" cy="359.7536" r="0.949" gradientTransform="matrix(-0.8279 3.589144e-03 3.607057e-03 0.8321 1302.6774 -254.148)" gradientUnits="userSpaceOnUse">
							<stop  offset="0" style="stop-color:#1A75BA"/>
							<stop  offset="1" style="stop-color:#65C6ED"/>
						</radialGradient>
						<path class="st26" d="M1.8,50.5c-0.2-0.2-0.4-0.3-0.6-0.4c-0.1,0-0.2,0-0.2,0l-0.7-0.1l0,0.4c0,0.1,0.1,0.4,0.2,0.5h0
							c0.1,0.1,0.2,0.2,0.3,0.3c0.1,0.1,0.2,0.1,0.3,0.2l0.2,0.1l0-0.3l0.3,0.1l-0.1-0.3l0.3,0l-0.1-0.3l0.3,0l-0.2-0.2L1.8,50.5
							L1.8,50.5z"/>
						<g>
							<path class="st3" d="M1.6,50.5c-0.2-0.1-0.3-0.3-0.5-0.3c-0.1,0-0.1,0-0.2,0l-0.6,0l-0.1,0l0.3,0.6c0,0.1,0.1,0.2,0.2,0.3
								c0,0,0.1,0.1,0.1,0.1c0.1,0.1,0.2,0.1,0.2,0.2L1,51.4l0-0.3l0.2,0L1.2,51l0.2,0l-0.1-0.2l0.2,0l-0.1-0.2L1.6,50.5L1.6,50.5z"
								/>
							
								<radialGradient id="SVGID_25_" cx="1486.1846" cy="274.4176" r="0.7216" gradientTransform="matrix(-1 4.334948e-03 4.334948e-03 1 1485.7889 -230.1143)" gradientUnits="userSpaceOnUse">
								<stop  offset="0" style="stop-color:#941B80"/>
								<stop  offset="1" style="stop-color:#662482"/>
							</radialGradient>
							<path class="st27" d="M1.5,50.5c-0.1-0.1-0.3-0.2-0.5-0.3c-0.1,0-0.1,0-0.2,0L0,50.1l0.3,0.7c0,0.1,0.1,0.2,0.1,0.2
								c0,0,0.1,0.1,0.1,0.1c0.1,0.1,0.2,0.1,0.2,0.2L1,51.4l0-0.2l0.2,0L1.1,51l0.2,0l-0.1-0.2l0.2,0l-0.1-0.2L1.5,50.5L1.5,50.5z"
								/>
						</g>
					</g>
				</g>
			</g>
		</g>
		<path class="st19" d="M1.3,50.5c-0.1-0.1-0.3-0.2-0.4-0.2c-0.1,0-0.1,0-0.2,0l-0.5,0l0,0.3c0,0.1,0,0.2,0.1,0.2l0,0
			c0,0.1,0.1,0.2,0.2,0.2c0.1,0.1,0.1,0.1,0.2,0.1l0.1,0.1l0-0.2l0.2,0L1,50.9l0.2,0L1,50.7l0.2,0l-0.1-0.2L1.3,50.5L1.3,50.5z"/>
		
			<radialGradient id="SVGID_26_" cx="1486.2522" cy="274.3473" r="0.5192" gradientTransform="matrix(-1 4.334948e-03 4.334948e-03 1 1485.7889 -230.1143)" gradientUnits="userSpaceOnUse">
			<stop  offset="0" style="stop-color:#1A75BA"/>
			<stop  offset="1" style="stop-color:#65C6ED"/>
		</radialGradient>
		<path class="st28" d="M1.3,50.5c-0.1-0.1-0.3-0.2-0.4-0.2c-0.1,0-0.1,0-0.2,0l-0.5,0l0,0.3c0,0.1,0.1,0.3,0.1,0.3h0
			c0,0.1,0.1,0.2,0.2,0.2c0.1,0.1,0.1,0.1,0.2,0.1l0.1,0.1l0-0.2L1,51l-0.1-0.2l0.2,0L1,50.7l0.2,0l-0.1-0.2L1.3,50.5L1.3,50.5z"/>
	</g>
	<g>
		
			<radialGradient id="SVGID_27_" cx="1519.0928" cy="203.3511" r="33.646" gradientTransform="matrix(-0.8325 3.609079e-03 3.726091e-03 0.8595 1294.0327 -153.021)" gradientUnits="userSpaceOnUse">
			<stop  offset="0" style="stop-color:#941B80"/>
			<stop  offset="1" style="stop-color:#662482"/>
		</radialGradient>
		<path class="st29" d="M0.5,49.5l0.6-4.3c0.1-1,0.3-1.9,0.6-2.8c2.2-7.2,6.2-13.7,11.6-18.6l4-3.6c7.4-6.7,15.3-11.2,24.4-15.2
			l0.5-0.2c4.5-2,9.3-3.4,14.2-4.2L59.5,0l-7.3,13.2l7.4-0.9l-7.9,11.9l6.4,0l-8.5,11.2l4.5,0L45.5,45l3.8,0.1l0,0
			c-2.8,2.5-6,4.5-9.5,5.7l-3.3,1.1c-9.3,3.2-19.4,3.3-28.7,0.1c-1.9-0.6-3.6-1.4-5-2.2L0.5,49.5z"/>
		<path class="st1" d="M0.6,49l1.1-6c1.7-6.4,4.7-12.1,9.8-16.5l3.4-3C21.3,18,28,14.3,35.8,11.1l0.4-0.2c3.9-1.6,8-2.8,12.2-3.4
			L51.1,7l-6.3,10.9l6.3-0.8l-6.8,9.8l5.5,0l-7.3,9.2l3.9,0l-7.4,8l3.3,0.1l-3.6,3.2c-2.6,2.3-5.6,4.2-8.9,5.3
			c-2.4,0.8-5,1.3-7.6,1.5l-0.3,0c-6.8,0.3-13.6-1.3-19.5-4.8L0.6,49z"/>
		
			<radialGradient id="SVGID_28_" cx="1582.4705" cy="78.6622" r="27.8235" gradientTransform="matrix(-0.8301 3.598633e-03 3.758532e-03 0.867 1338.293 -42.3724)" gradientUnits="userSpaceOnUse">
			<stop  offset="0" style="stop-color:#1A75BA"/>
			<stop  offset="1" style="stop-color:#65C6ED"/>
		</radialGradient>
		<path class="st30" d="M0.6,49l0.7-3.6c0.4-2.2,1-4.4,1.9-6.4c1.7-4.4,4.3-8.3,7.9-11.5l3.3-2.9c6.1-5.3,12.6-8.9,20.1-12l0.4-0.2
			c3.8-1.6,7.7-2.7,11.7-3.3l2.6-0.4l-6,10.5l6.1-0.7l-6.6,9.4l5.3,0l-7,8.9l3.7,0l-7.2,7.7l3.1,0l-3.5,3.1c-2.5,2.2-5.4,4-8.6,5.1
			c-2.4,0.8-4.8,1.3-7.3,1.4l-0.3,0C14.5,54.5,8,52.9,2.3,49.5L0.6,49z"/>
		<path class="st3" d="M0.6,49.4l1-5.3c1.5-5.7,4.1-10.7,8.6-14.5l3-2.6c5.6-4.9,11.5-8.1,18.3-11l0.4-0.2c3.4-1.4,7-2.5,10.6-3
			l2.3-0.4l-5.5,9.6l5.6-0.7l-6,8.6l4.8,0l-6.4,8.1l3.4,0l-6.5,7l2.9,0l-3.2,2.8c-2.3,2-4.9,3.7-7.8,4.7c-2.1,0.7-4.4,1.2-6.7,1.3
			l-0.2,0c-6,0.3-11.9-1.2-17.1-4.3L0.6,49.4z"/>
		
			<radialGradient id="SVGID_29_" cx="1586.1493" cy="78.8834" r="24.3457" gradientTransform="matrix(-0.8301 3.598633e-03 3.781075e-03 0.8722 1338.3011 -40.4945)" gradientUnits="userSpaceOnUse">
			<stop  offset="0" style="stop-color:#941B80"/>
			<stop  offset="1" style="stop-color:#662482"/>
		</radialGradient>
		<path class="st31" d="M0.6,49.4l0.6-3.2c0.4-1.9,0.9-3.8,1.6-5.7c1.5-3.8,3.7-7.3,6.9-10.1l2.9-2.5c5.3-4.7,11.1-7.8,17.6-10.6
			l0.4-0.2c3.3-1.4,6.7-2.4,10.3-2.9l2.2-0.4l-5.3,9.2l5.4-0.6l-5.7,8.3l4.6,0L36,38.7l3.3,0L33,45.4l2.7,0l-3,2.7
			c-2.2,2-4.7,3.5-7.5,4.5c-2.1,0.7-4.2,1.1-6.4,1.3l-0.2,0C12.8,54.2,7,52.8,2.1,49.8L0.6,49.4z"/>
		<path class="st1" d="M0.6,48.7l-0.1-1.2c0,0-0.3,2,0.8-2.7S5.2,35.4,9.1,32l2.6-2.3c4.9-4.3,10-7.2,16-9.8l0.3-0.1
			c3-1.3,6.1-2.2,9.3-2.7l2-0.3l-4.8,8.5l4.9-0.6l-5.2,7.6l4.2,0l-5.6,7.2l3,0l-5.7,6.2l2.5,0l-2.8,2.5c-2,1.8-4.3,3.3-6.8,4.2
			c-1.9,0.7-3.8,1.1-5.8,1.2l-0.2,0c-5.2,0.3-10.4-1.1-14.9-3.8L0.6,48.7z"/>
		
			<radialGradient id="SVGID_30_" cx="1691.9362" cy="-362.2927" r="19.5032" gradientTransform="matrix(-0.9131 3.958261e-03 4.232812e-03 0.9764 1565.4951 382.9514)" gradientUnits="userSpaceOnUse">
			<stop  offset="0" style="stop-color:#1A75BA"/>
			<stop  offset="1" style="stop-color:#65C6ED"/>
		</radialGradient>
		<path class="st32" d="M0.2,48.9l1.1-3.5c1.3-4.8,3.8-9.2,7.5-12.5l2.5-2.3c4.7-4.2,9.7-7,15.4-9.4L27,21c2.9-1.2,5.9-2.1,9-2.6
			l2-0.3l-4.6,8.2l4.7-0.6l-5,7.4l4.1,0l-5.4,7l2.9,0L29,46l2.4,0l-2.7,2.4c-1.9,1.7-4.1,3.2-6.6,4c-1.8,0.6-3.7,1-5.6,1.1l-0.2,0
			c-5,0.3-10-1-14.4-3.7L0.2,48.9z"/>
		<path class="st3" d="M0.7,49l-0.1-1.1c0,0-0.3,1.8,0.7-2.4S4.8,37,8.2,33.9l2.3-2.1c4.3-3.9,8.8-6.5,14.1-8.8l0.3-0.1
			c2.6-1.2,5.4-2,8.2-2.4l1.8-0.3l-4.2,7.7l4.3-0.5l-4.6,6.9l3.7,0l-4.9,6.5l2.6,0l-5,5.6l2.2,0l-2.4,2.2c-1.8,1.6-3.8,3-6,3.8
			c-1.6,0.6-3.4,1-5.1,1l-0.2,0C10.6,53.6,6,52.4,2,50L0.7,49z"/>
		
			<radialGradient id="SVGID_31_" cx="1522.0378" cy="87.3518" r="19.7693" gradientTransform="matrix(-0.7943 3.443306e-03 3.771799e-03 0.8701 1225.6218 -43.8675)" gradientUnits="userSpaceOnUse">
			<stop  offset="0" style="stop-color:#941B80"/>
			<stop  offset="1" style="stop-color:#662482"/>
		</radialGradient>
		<path class="st33" d="M0.3,49.1l0.9-3.2c1.1-4.4,3.3-8.3,6.6-11.3l2.2-2c4.1-3.8,8.5-6.3,13.6-8.5l0.3-0.1
			c2.5-1.1,5.2-1.9,7.9-2.3l1.7-0.3l-4.1,7.4l4.1-0.5l-4.4,6.6l3.6,0l-4.7,6.3l2.5,0l-4.8,5.4l2.1,0l-2.3,2.2
			c-1.7,1.6-3.6,2.9-5.8,3.6c-1.6,0.6-3.3,0.9-5,1l-0.2,0c-4.4,0.2-8.9-0.9-12.7-3.3L0.3,49.1z"/>
		<path class="st1" d="M0.6,49.1l-0.1-0.9c0,0-0.2,1.6,0.6-2.1c0.9-3.7,3-7.5,6.1-10.3l2.1-1.9c3.8-3.5,7.9-5.8,12.6-7.8l0.3-0.1
			c2.3-1,4.8-1.7,7.3-2.1l1.6-0.3l-3.8,6.8l3.8-0.5L27,36l3.3,0l-4.4,5.8l2.3,0l-4.5,5l2,0l-2.2,2c-1.6,1.4-3.4,2.6-5.4,3.3
			c-1.5,0.5-3,0.8-4.6,0.9l-0.2,0c-4.1,0.2-8.2-0.8-11.7-3L0.6,49.1z"/>
		
			<radialGradient id="SVGID_32_" cx="1523.9032" cy="99.4231" r="17.7174" gradientTransform="matrix(-0.7895 3.422614e-03 3.720606e-03 0.8583 1217.8701 -51.6791)" gradientUnits="userSpaceOnUse">
			<stop  offset="0" style="stop-color:#1A75BA"/>
			<stop  offset="1" style="stop-color:#65C6ED"/>
		</radialGradient>
		<path class="st34" d="M0.2,49.2l0.8-2.8c1-3.9,2.9-7.3,5.9-10l2-1.8c3.7-3.3,7.6-5.6,12.1-7.5l0.2-0.1c2.3-1,4.6-1.7,7-2.1
			l1.5-0.2l-3.6,6.6l3.7-0.5L26,36.6l3.2,0L25,42.2l2.2,0L22.9,47l1.9,0l-2.1,1.9c-1.5,1.4-3.2,2.5-5.2,3.2
			c-1.4,0.5-2.9,0.8-4.4,0.9L13,53c-4,0.2-7.9-0.8-11.3-2.9L0.2,49.2z"/>
		<path class="st3" d="M0.4,48.9l0.7-2c0.9-3.6,2.6-6.8,5.2-9.2L8.1,36c3.3-3.1,6.8-5.1,10.8-6.9l0.2-0.1c2-0.9,4.1-1.5,6.3-1.9
			l1.4-0.2l-3.2,6l3.3-0.4l-3.5,5.4l2.9,0L22.5,43l2,0l-3.8,4.4l1.7,0l-1.9,1.8c-1.3,1.3-2.9,2.3-4.6,2.9c-1.3,0.5-2.6,0.7-3.9,0.8
			l-0.1,0c-3.2,0.2-6.5-0.6-9.3-2.2c-0.5-0.3-0.9-0.6-1.3-1L0.4,48.9z"/>
		
			<radialGradient id="SVGID_33_" cx="1650.9209" cy="-294.1232" r="14.2208" gradientTransform="matrix(-0.845 3.663200e-03 4.092070e-03 0.944 1409.4629 312.0502)" gradientUnits="userSpaceOnUse">
			<stop  offset="0" style="stop-color:#941B80"/>
			<stop  offset="1" style="stop-color:#662482"/>
		</radialGradient>
		<path class="st35" d="M0.4,49l0.7-1.9c0.9-3.4,2.5-6.5,5-8.8l1.7-1.6c3.2-2.9,6.5-4.9,10.4-6.7l0.2-0.1c1.9-0.9,4-1.5,6.1-1.8
			l1.3-0.2l-3.1,5.8l3.2-0.4l-3.4,5.2l2.7,0l-3.6,4.9l1.9,0l-3.7,4.2l1.6,0l-1.8,1.7c-1.3,1.2-2.8,2.2-4.4,2.8
			c-1.2,0.5-2.5,0.7-3.8,0.8l-0.1,0c-2.6,0.1-5.1-0.3-7.5-1.4C2.6,51,1.4,50.1,0.4,49L0.4,49z"/>
		<g>
			<g>
				<g>
					<path class="st1" d="M0.3,49l0.6-1.8c0.8-3.1,2.2-5.9,4.5-8l1.5-1.4c2.8-2.7,5.9-4.5,9.3-6l0.2-0.1c1.7-0.8,3.6-1.3,5.4-1.7
						l1.2-0.2l-2.8,5.3l2.8-0.4l-3,4.7l2.5,0l-3.2,4.5l1.7,0l-3.3,3.8l1.5,0l-1.6,1.5c-1.2,1.1-2.5,2-4,2.6
						c-1.1,0.4-2.2,0.7-3.4,0.7l-0.1,0c-2.8,0.1-5.6-0.5-8-1.9c-0.4-0.2-0.8-0.5-1.1-0.9L0.3,49z"/>
					
						<radialGradient id="SVGID_34_" cx="1659.913" cy="-288.7495" r="12.4529" gradientTransform="matrix(-0.8331 3.611513e-03 4.084242e-03 0.9422 1395.3323 307.7212)" gradientUnits="userSpaceOnUse">
						<stop  offset="0" style="stop-color:#1A75BA"/>
						<stop  offset="1" style="stop-color:#65C6ED"/>
					</radialGradient>
					<path class="st36" d="M0.3,49.1l0.6-1.7c0.7-3,2.1-5.7,4.3-7.7l1.5-1.4c2.7-2.6,5.6-4.3,9-5.8l0.2-0.1c1.7-0.8,3.4-1.3,5.2-1.6
						l1.1-0.2l-2.7,5.1l2.7-0.4l-2.9,4.5l2.4,0l-3.1,4.3l1.7,0L17,47.9l1.4,0l-1.5,1.5c-1.1,1.1-2.4,1.9-3.8,2.5
						c-1.1,0.4-2.2,0.6-3.3,0.7l-0.1,0c-2.2,0.1-4.4-0.3-6.5-1.2C2.1,50.9,1.1,50.1,0.3,49.1L0.3,49.1z"/>
					<path class="st3" d="M17.7,36.9l2.4-4.7l-1,0.2c-1.6,0.3-3.2,0.8-4.8,1.5L14.2,34c-3,1.4-5.7,3-8.2,5.3l-1.3,1.3
						c-0.8,0.8-1.6,1.7-2.2,2.7c-0.6,1-1.1,2.2-1.4,3.4c0,0.1,0,0.4-0.1,0.5l-0.8,2.1l-0.1,0l1.7,1.5c0.1,0,0.1,0.1,0.2,0.1
						c2.1,1.1,4.3,1.6,6.6,1.5l0.1,0c1-0.1,2-0.3,3-0.6c1.3-0.5,2.5-1.3,3.5-2.3l1.4-1.4l-1.3,0l2.9-3.4l-1.5,0l2.8-3.9l-2.2,0
						l2.7-4.2L17.7,36.9z"/>
					
						<radialGradient id="SVGID_35_" cx="1780.3898" cy="-664.0007" r="9.5855" gradientTransform="matrix(-0.9598 4.160936e-03 4.620928e-03 1.066 1721.7911 743.1185)" gradientUnits="userSpaceOnUse">
						<stop  offset="0" style="stop-color:#941B80"/>
						<stop  offset="1" style="stop-color:#662482"/>
					</radialGradient>
					<path class="st37" d="M17.1,37.5l2.4-4.5l-1,0.2c-1.6,0.3-3.1,0.7-4.6,1.4l-0.2,0.1c-2.9,1.3-5.5,2.9-7.9,5.1L4.5,41
						c-0.8,0.8-1.5,1.6-2.1,2.6c-0.7,1-1.1,2.2-1.4,3.4l0,0l-0.7,1.9l-0.2,0.4l1.7,1.4c0.4,0.3,0.9,0.5,1.4,0.8
						c1.6,0.7,3.4,0.9,5.1,0.9l0.1,0c1-0.1,1.9-0.3,2.9-0.6c1.2-0.5,2.4-1.2,3.3-2.2l1.4-1.3l-1.2,0l2.8-3.3l-1.5,0l2.7-3.8l-2.1,0
						l2.6-4L17.1,37.5z"/>
					<path class="st1" d="M0.2,49.4c0,0,0.7-1.3,1.1-3.5c0.8-2.3,1.7-3.2,2.9-4.3l1.2-1.1c2.2-2.1,4.5-3.5,7.1-4.8l0.1-0.1
						c1.3-0.6,2.7-1.1,4.2-1.3l0.9-0.2l-2.1,4.2l2.2-0.3l-2.3,3.7l1.9,0l-2.5,3.5l1.3,0l-2.5,3l1.1,0l-1.2,1.2c-0.9,0.9-1.9,1.6-3,2
						c-0.8,0.3-1.7,0.5-2.6,0.6l-0.1,0c-2.3,0.1-4.6-0.6-6.6-1.9L0.2,49.4z"/>
					
						<radialGradient id="SVGID_36_" cx="1846.9937" cy="-1006.7467" r="7.3207" gradientTransform="matrix(-1.0994 4.765822e-03 5.408910e-03 1.2477 2044.6866 1290.8579)" gradientUnits="userSpaceOnUse">
						<stop  offset="0" style="stop-color:#1A75BA"/>
						<stop  offset="1" style="stop-color:#65C6ED"/>
					</radialGradient>
					<path class="st38" d="M15,38.8l2.1-4L16.2,35c-1.4,0.2-2.7,0.7-4,1.3l-0.1,0.1c-2.6,1.2-4.8,2.6-6.9,4.6L4.1,42
						c-0.9,0.9-1.7,1.9-2.3,3c-0.2,0.4-0.4,0.9-0.5,1.4l0,0l-0.9,2.8l-0.1,0.5l1,0.7c1.8,1.2,3.9,1.8,6,1.8c0.1,0,0.2,0,0.2,0l0.1,0
						c0.9,0,1.7-0.2,2.5-0.5c1.1-0.4,2.1-1.1,2.9-2l1.2-1.2l-1.1,0l2.4-2.9l-1.3,0l2.4-3.4l-1.8,0l2.2-3.6L15,38.8z"/>
					<path class="st3" d="M0.1,49.6c0,0,0.6-1.1,1-3c0.7-1.9,1.5-2.8,2.5-3.8l1-1c1.9-1.8,3.9-3,6.2-4.1l0.1-0.1
						c1.2-0.5,2.4-0.9,3.6-1.1l0.8-0.1L13.5,40l1.9-0.2l-2,3.2l1.6,0l-2.2,3l1.2,0l-2.2,2.6l1,0l-1.1,1c-0.8,0.8-1.7,1.4-2.7,1.8
						c-0.7,0.3-1.5,0.4-2.3,0.5l-0.1,0c-2,0.1-4-0.5-5.7-1.7L0.1,49.6z"/>
					
						<radialGradient id="SVGID_37_" cx="1697.6195" cy="-642.7548" r="7.2578" gradientTransform="matrix(-0.9661 4.188027e-03 4.722254e-03 1.0893 1650.6177 737.5349)" gradientUnits="userSpaceOnUse">
						<stop  offset="0" style="stop-color:#941B80"/>
						<stop  offset="1" style="stop-color:#662482"/>
					</radialGradient>
					<path class="st39" d="M13,40.4l1.8-3.5l-0.8,0.1c-1.2,0.2-2.4,0.6-3.5,1.1l-0.1,0.1c-2.2,1-4.2,2.2-6,4l-1,1
						c-0.8,0.8-1.4,1.6-2,2.6c-0.2,0.4-0.4,0.8-0.5,1.2l0,0l-0.8,2.4l-0.1,0.4l0.9,0.6c1.6,1.1,3.4,1.6,5.2,1.5c0.1,0,0.1,0,0.2,0
						l0.1,0c0.7,0,1.5-0.2,2.2-0.5c0.9-0.4,1.8-1,2.6-1.7l1-1l-0.9,0l2.1-2.5l-1.1,0l2.1-2.9l-1.6,0l2-3.1L13,40.4z"/>
					<path class="st1" d="M0.3,49.6c0,0,0.5-0.9,0.8-2.6c0.6-1.7,1.2-2.4,2.1-3.2L4.1,43c1.6-1.5,3.3-2.6,5.3-3.5l0.1,0
						c1-0.5,2-0.8,3.1-1l0.7-0.1l-1.6,3.1l1.6-0.2L11.5,44l1.4,0L11,46.6l1,0l-1.9,2.2l0.8,0l-0.9,0.9c-0.7,0.6-1.4,1.2-2.2,1.5
						c-0.6,0.2-1.3,0.4-1.9,0.4l-0.1,0c-1.7,0.1-3.4-0.4-4.9-1.4L0.3,49.6z"/>
					
						<radialGradient id="SVGID_38_" cx="1488.8436" cy="-119.9725" r="7.3277" gradientTransform="matrix(-0.8088 3.506145e-03 3.969038e-03 0.9156 1211.1537 149.8967)" gradientUnits="userSpaceOnUse">
						<stop  offset="0" style="stop-color:#1A75BA"/>
						<stop  offset="1" style="stop-color:#65C6ED"/>
					</radialGradient>
					<path class="st40" d="M11.2,41.8l1.5-2.9L12,39c-1,0.2-2,0.5-2.9,0.9L9,40c-1.9,0.9-3.5,1.9-5.1,3.4l-0.8,0.8
						c-0.7,0.6-1.2,1.4-1.7,2.2c-0.2,0.3-0.3,0.7-0.4,1l0,0l-0.7,2l-0.1,0.4l0.8,0.5c1.3,0.9,2.9,1.4,4.4,1.3c0.1,0,0.1,0,0.2,0
						l0.1,0c0.6,0,1.3-0.2,1.8-0.4c0.8-0.3,1.5-0.8,2.2-1.4l0.9-0.9l-0.8,0l1.8-2.1l-0.9,0l1.8-2.5l-1.3,0l1.6-2.6L11.2,41.8z"/>
				</g>
				<g>
					<path class="st3" d="M0.3,49.8l0.6-1.2c0,0,0.3-1.1,0.5-1.8c0.3-0.7,0.9-1.6,1.4-2l0.8-0.7c1.4-1.3,2.9-2.2,4.6-2.9l0.1,0
						c0.9-0.4,1.8-0.6,2.7-0.8l0.6-0.1l-1.4,2.5l1.4-0.2l-1.5,2.3l1.2,0L9.7,47l0.9,0l-1.6,1.9l0.7,0l-0.8,0.7c-0.6,0.5-1.2,1-2,1.2
						c-0.5,0.2-1.1,0.3-1.7,0.3l-0.1,0c-1.5,0.1-3-0.3-4.3-1.1L0.3,49.8z"/>
					
						<radialGradient id="SVGID_39_" cx="1597.6222" cy="-380.3741" r="5.475" gradientTransform="matrix(-0.9293 4.028407e-03 4.551492e-03 1.0499 1492.0901 438.868)" gradientUnits="userSpaceOnUse">
						<stop  offset="0" style="stop-color:#941B80"/>
						<stop  offset="1" style="stop-color:#662482"/>
					</radialGradient>
					<path class="st41" d="M0.3,49.8l0.5-0.9C1.1,48,1.6,46,2.7,45l0.7-0.7c1.4-1.2,2.8-2.1,4.5-2.8l0.1,0c0.8-0.4,1.7-0.6,2.6-0.8
						l0.6-0.1l-1.3,2.4l1.4-0.2l-1.5,2.2l1.2,0l-1.6,2.1l0.8,0L8.6,49l0.7,0l-0.8,0.7c-0.6,0.5-1.2,0.9-1.9,1.2
						c-0.5,0.2-1.1,0.3-1.6,0.3l-0.1,0c-1.5,0.1-2.9-0.3-4.2-1.1L0.3,49.8z"/>
					<path class="st1" d="M8.2,49.4l-0.7,0l1.5-1.6l-0.8,0l1.5-1.9l-1.1,0l1.4-2l-1.3,0.2l1.3-2.3l-0.5,0.1
						c-0.9,0.1-1.7,0.4-2.5,0.7l-0.1,0c-1.6,0.7-3,1.4-4.3,2.6h0c-0.5,0.4-0.8,1-1.1,1.6l-1,3.1l1.8,1c0,0,1.1,0.2,1.8,0.2
						c0.9,0,1.7-0.1,2.6-0.5C7,50.3,7.3,50.2,7.5,50L8.2,49.4z"/>
					<g>
						
							<radialGradient id="SVGID_40_" cx="1681.2307" cy="-580.7941" r="4.1132" gradientTransform="matrix(-1.0679 4.629191e-03 4.984058e-03 1.1497 1803.2186 706.4616)" gradientUnits="userSpaceOnUse">
							<stop  offset="0" style="stop-color:#1A75BA"/>
							<stop  offset="1" style="stop-color:#65C6ED"/>
						</radialGradient>
						<path class="st42" d="M7.9,49.4l-0.6,0l1.5-1.6l-0.8,0L9.4,46l-1.1,0l1.3-1.9l-1.2,0.2L9.6,42l-0.5,0.1
							c-0.8,0.1-1.6,0.4-2.4,0.7l-0.1,0c-1.5,0.6-2.9,1.4-4.1,2.5h0c-0.4,0.4-0.8,0.9-1,1.5L0.4,50l1.6,0.6c0.2,0.1,0.4,0.1,0.7,0.2
							c0.4,0.1,0.9,0.2,1.3,0.2c0.8,0,1.7-0.1,2.5-0.4C6.7,50.4,7,50.2,7.2,50L7.9,49.4z"/>
					</g>
					<path class="st3" d="M7.1,49.1l-0.5,0l1.2-1.3l-0.6,0l1.2-1.6l-0.9,0l1.1-1.7l-1.1,0.1l1-1.9l-0.4,0.1c-0.7,0.1-1.4,0.3-2,0.6
						l-0.1,0c-1.3,0.6-2.4,1.2-3.5,2.1h0c-0.4,0.3-0.7,0.8-0.9,1.3l-0.8,2.5l1.4,0.8c0,0,0.9,0.2,1.4,0.2c0.7,0,1.4-0.1,2.1-0.4
						c0.3-0.1,0.5-0.2,0.7-0.4L7.1,49.1z"/>
					<g>
						
							<radialGradient id="SVGID_41_" cx="1513.6766" cy="-86.9394" r="3.9787" gradientTransform="matrix(-0.8935 3.873446e-03 4.236669e-03 0.9773 1357.3741 125.8339)" gradientUnits="userSpaceOnUse">
							<stop  offset="0" style="stop-color:#941B80"/>
							<stop  offset="1" style="stop-color:#662482"/>
						</radialGradient>
						<path class="st43" d="M6.8,49.1l-0.5,0l1.2-1.3l-0.6,0L8,46.3l-0.9,0l1.1-1.6l-1,0.1l1-1.8l-0.4,0.1c-0.7,0.1-1.3,0.3-1.9,0.6
							l-0.1,0c-1.2,0.5-2.3,1.1-3.3,2h0c-0.4,0.3-0.6,0.7-0.8,1.2l-0.9,2.9l1.5,0.3c0,0,0.9,0.2,1.4,0.2c0.7,0,1.4-0.1,2-0.4
							c0.3-0.1,0.5-0.2,0.6-0.4L6.8,49.1z"/>
					</g>
					<path class="st1" d="M6,49.4l-0.5,0l1.1-1.2l-0.6,0l1-1.4l-0.8,0l1-1.4l-0.9,0.1l0.9-1.6l-0.4,0.1c-0.6,0.1-1.2,0.3-1.7,0.5
						l-0.1,0c-1.1,0.5-2.1,1-3,1.9l0,0c-0.3,0.3-0.6,0.7-0.7,1.1l-0.7,2.3l1.2,0.7c0,0,0.8,0.2,1.2,0.2c0.6,0,1.2-0.1,1.8-0.3
						c0.2-0.1,0.5-0.2,0.6-0.3L6,49.4z"/>
					<g>
						
							<radialGradient id="SVGID_42_" cx="1659.3445" cy="-189.0291" r="3.9545" gradientTransform="matrix(-0.7731 3.351576e-03 3.732015e-03 0.8609 1287.3383 204.4828)" gradientUnits="userSpaceOnUse">
							<stop  offset="0" style="stop-color:#1A75BA"/>
							<stop  offset="1" style="stop-color:#65C6ED"/>
						</radialGradient>
						<path class="st44" d="M5.7,49.4l-0.4,0l1-1.1l-0.5,0l1-1.3L6,47L7,45.6l-0.9,0.1l0.9-1.6l-0.4,0.1c-0.6,0.1-1.1,0.3-1.7,0.5
							l-0.1,0c-1.1,0.5-2,1-2.9,1.8h0c-0.3,0.3-0.5,0.6-0.7,1.1l-0.8,2.6l1.3,0.3c0,0,0.7,0.2,1.2,0.2c0.6,0,1.2-0.1,1.7-0.3
							c0.2-0.1,0.4-0.2,0.6-0.3L5.7,49.4z"/>
					</g>
					<path class="st3" d="M5.1,49.5l-0.4,0l0.9-1l-0.5,0L6,47.3l-0.7,0L6.2,46l-0.8,0.1l0.8-1.4l-0.3,0.1c-0.5,0.1-1,0.2-1.5,0.4
						l-0.1,0c-1,0.4-1.8,0.9-2.6,1.6h0c-0.3,0.3-0.5,0.6-0.6,0.9l-0.6,1.9l1,0.6c0,0,0.7,0.1,1.1,0.1c0.5,0,1-0.1,1.5-0.3
						c0.2-0.1,0.4-0.2,0.5-0.3L5.1,49.5z"/>
					<g>
						
							<radialGradient id="SVGID_43_" cx="1660.0442" cy="-188.5842" r="3.4009" gradientTransform="matrix(-0.7731 3.351576e-03 3.732015e-03 0.8609 1287.3383 204.4828)" gradientUnits="userSpaceOnUse">
							<stop  offset="0" style="stop-color:#941B80"/>
							<stop  offset="1" style="stop-color:#662482"/>
						</radialGradient>
						<path class="st45" d="M4.9,49.5l-0.4,0l0.9-1l-0.5,0l0.9-1.1l-0.6,0L6,46.2l-0.7,0.1l0.7-1.3L5.6,45c-0.5,0.1-1,0.2-1.4,0.4
							l-0.1,0c-0.9,0.4-1.7,0.9-2.5,1.5h0c-0.3,0.2-0.5,0.6-0.6,0.9l-0.7,2.2l1.1,0.2c0,0,0.6,0.1,1,0.1c0.5,0,1-0.1,1.5-0.3
							c0.2-0.1,0.4-0.2,0.5-0.3L4.9,49.5z"/>
					</g>
					<path class="st1" d="M4.7,47.5l0.7-1l-0.6,0.1l0.6-1.1l-0.3,0c-0.4,0.1-0.8,0.2-1.2,0.4l0,0c-0.8,0.3-1.5,0.7-2.1,1.3l-0.1,0.1
						c-0.3,0.2-0.5,0.5-0.6,0.9l-0.5,1.5l1,0.6c0.3,0.1,0.6,0.1,0.9,0.1l0,0c0.3,0,0.5-0.1,0.8-0.2c0.3-0.1,0.6-0.3,0.9-0.5l0.4-0.3
						l-0.3,0l0.7-0.8l-0.4,0l0.7-0.9L4.7,47.5z"/>
					
						<radialGradient id="SVGID_44_" cx="1682.3595" cy="-299.1994" r="2.553" gradientTransform="matrix(-0.8892 3.854620e-03 4.172164e-03 0.9624 1499.9921 329.4013)" gradientUnits="userSpaceOnUse">
						<stop  offset="0" style="stop-color:#1A75BA"/>
						<stop  offset="1" style="stop-color:#65C6ED"/>
					</radialGradient>
					<path class="st46" d="M4.6,46.7l0.6-1.1l-0.3,0c-0.4,0.1-0.8,0.2-1.2,0.3l0,0c-0.8,0.3-1.4,0.7-2,1.2h0
						c-0.3,0.3-0.5,0.6-0.7,1.1l-0.5,1.2l-0.1,0.7c0,0,1.7,0.1,1.9,0.1l0,0c0.3,0,0.5-0.1,0.7-0.1C3.4,50,3.7,49.8,4,49.6l0.3-0.3
						l-0.3,0l0.7-0.8l-0.4,0l0.7-0.9l-0.5,0l0.7-1L4.6,46.7z"/>
					<path class="st3" d="M4.1,47.8l0.6-0.9L4.1,47l0.5-1l-0.2,0c-0.4,0.1-0.7,0.2-1.1,0.3l0,0c-0.7,0.3-1.3,0.6-1.8,1.1l-0.1,0.1
						c-0.2,0.2-0.4,0.5-0.5,0.8l-0.4,1.3l0.8,0.5c0.3,0.1,0.5,0.1,0.8,0.1l0,0c0.2,0,0.4-0.1,0.7-0.1c0.3-0.1,0.5-0.3,0.8-0.5
						l0.3-0.3l-0.3,0l0.6-0.7l-0.3,0l0.6-0.8L4.1,47.8z"/>
					
						<radialGradient id="SVGID_45_" cx="1485.0255" cy="277.7132" r="2.6186" gradientTransform="matrix(-0.7461 3.234371e-03 3.558933e-03 0.821 1109.479 -184.5835)" gradientUnits="userSpaceOnUse">
						<stop  offset="0" style="stop-color:#941B80"/>
						<stop  offset="1" style="stop-color:#662482"/>
					</radialGradient>
					<path class="st47" d="M4,47.1l0.5-0.9l-0.2,0c-0.3,0.1-0.7,0.2-1,0.3l0,0c-0.7,0.3-1.2,0.6-1.7,1.1h0c-0.3,0.2-0.5,0.6-0.6,0.9
						l-0.4,1.1l-0.1,0.6c0,0,1.4,0.1,1.7,0.1l0,0c0.2,0,0.4-0.1,0.6-0.1C3,50,3.3,49.9,3.5,49.7l0.3-0.3l-0.3,0l0.6-0.7l-0.3,0
						l0.6-0.8l-0.5,0l0.6-0.8L4,47.1z"/>
					<path class="st1" d="M3.6,48l0.5-0.8l-0.5,0.1l0.5-0.8l-0.2,0c-0.3,0.1-0.6,0.1-0.9,0.3l0,0c-0.6,0.3-1.1,0.5-1.6,1l-0.1,0.1
						C1.1,48,1,48.3,0.9,48.5l-0.4,1.1l0.7,0.5c0.2,0.1,0.5,0.1,0.7,0.1l0,0c0.2,0,0.4,0,0.6-0.1C2.8,50,3,49.8,3.2,49.6l0.3-0.2
						l-0.2,0l0.6-0.6l-0.3,0L4,48L3.6,48z"/>
					
						<radialGradient id="SVGID_46_" cx="1535.3979" cy="122.0728" r="2.1847" gradientTransform="matrix(-0.7778 3.371651e-03 3.706107e-03 0.8549 1195.9535 -61.1433)" gradientUnits="userSpaceOnUse">
						<stop  offset="0" style="stop-color:#1A75BA"/>
						<stop  offset="1" style="stop-color:#65C6ED"/>
					</radialGradient>
					<path class="st48" d="M3.5,47.4L4,46.6l-0.2,0c-0.3,0-0.6,0.1-0.9,0.3l0,0c-0.6,0.2-1.1,0.5-1.5,0.9h0
						c-0.2,0.2-0.4,0.5-0.5,0.8l-0.3,0.9l-0.1,0.5c0,0,1.2,0.1,1.4,0.1l0,0c0.2,0,0.4,0,0.6-0.1c0.2-0.1,0.5-0.2,0.6-0.4l0.3-0.2
						l-0.2,0l0.5-0.6l-0.3,0l0.5-0.7l-0.4,0L4,47.4L3.5,47.4z"/>
				</g>
				<g>
					<path class="st3" d="M3.1,48.3l0.4-0.7l-0.4,0.1L3.6,47l-0.2,0c-0.3,0-0.5,0.1-0.8,0.2l0,0c-0.5,0.2-1,0.5-1.4,0.8l-0.1,0.1
						c-0.2,0.2-0.3,0.4-0.4,0.6l-0.3,1l0.6,0.4c0.2,0,0.4,0.1,0.6,0.1l0,0c0.2,0,0.3,0,0.5-0.1c0.2-0.1,0.4-0.2,0.6-0.4L3,49.5
						l-0.2,0l0.5-0.5l-0.3,0l0.5-0.6L3.1,48.3z"/>
					
						<radialGradient id="SVGID_47_" cx="1535.795" cy="122.3329" r="1.9089" gradientTransform="matrix(-0.7778 3.371651e-03 3.706107e-03 0.8549 1195.9535 -61.1433)" gradientUnits="userSpaceOnUse">
						<stop  offset="0" style="stop-color:#941B80"/>
						<stop  offset="1" style="stop-color:#662482"/>
					</radialGradient>
					<path class="st49" d="M3.1,47.8l0.4-0.7l-0.2,0c-0.3,0-0.5,0.1-0.8,0.2l0,0c-0.5,0.2-0.9,0.5-1.3,0.8h0
						c-0.2,0.2-0.4,0.4-0.5,0.7l-0.3,0.8l-0.1,0.4c0,0,1.1,0.1,1.3,0.1l0,0c0.2,0,0.3,0,0.5-0.1c0.2-0.1,0.4-0.2,0.6-0.3l0.2-0.2
						l-0.2,0L3.2,49l-0.2,0l0.5-0.6l-0.4,0l0.4-0.6L3.1,47.8z"/>
					<path class="st1" d="M2.7,48L3,47.4l-0.1,0c-0.2,0-0.5,0.1-0.7,0.2l0,0C1.8,47.8,1.4,48,1,48.3l0,0c-0.2,0.1-0.4,0.6-0.4,0.8
						l-0.2,0.5l0.8,0.5c0.1,0,0.1,0,0.2,0l0,0c0.2,0,0.4-0.1,0.6-0.2c0.1-0.1,0.2-0.1,0.3-0.2l0.2-0.2l-0.2,0l0.4-0.5l-0.2,0L3,48.5
						l-0.3,0L3.1,48L2.7,48z"/>
					
						<radialGradient id="SVGID_48_" cx="1538.5741" cy="360.8188" r="1.648" gradientTransform="matrix(-0.7794 3.378698e-03 3.448742e-03 0.7956 1199.5897 -243.4485)" gradientUnits="userSpaceOnUse">
						<stop  offset="0" style="stop-color:#1A75BA"/>
						<stop  offset="1" style="stop-color:#65C6ED"/>
					</radialGradient>
					<path class="st50" d="M2.6,48.1l0.3-0.6l-0.1,0c-0.2,0-0.4,0.1-0.7,0.2l0,0c-0.4,0.2-0.8,0.4-1.1,0.7h0
						c-0.2,0.1-0.4,0.7-0.5,0.9l-0.1,0.3l0.1,0.5c0,0,0.9,0,0.9,0l0,0c0.2,0,0.4-0.1,0.6-0.2c0.1-0.1,0.2-0.1,0.3-0.2l0.2-0.2
						l-0.2,0l0.4-0.4l-0.2,0l0.4-0.5l-0.3,0l0.4-0.5L2.6,48.1z"/>
					<path class="st3" d="M2.4,48.2l0.3-0.6l-0.1,0c-0.2,0-0.4,0.1-0.6,0.2l0,0c-0.4,0.2-0.7,0.4-1,0.7l0,0
						c-0.1,0.1-0.2,0.3-0.3,0.5l-0.2,0.6l0.1,0.4c0,0,0.7,0,0.8,0l0,0c0.2,0,0.4-0.1,0.5-0.1c0.1-0.1,0.2-0.1,0.3-0.2l0.2-0.2
						l-0.2,0l0.4-0.4l-0.2,0l0.4-0.5l-0.3,0l0.3-0.5L2.4,48.2z"/>
					
						<radialGradient id="SVGID_49_" cx="1539.2994" cy="303.5403" r="1.459" gradientTransform="matrix(-0.7797 3.380191e-03 3.515329e-03 0.8109 1200.6771 -202.4362)" gradientUnits="userSpaceOnUse">
						<stop  offset="0" style="stop-color:#941B80"/>
						<stop  offset="1" style="stop-color:#662482"/>
					</radialGradient>
					<path class="st51" d="M2.3,48.3l0.3-0.6l-0.1,0c-0.2,0-0.4,0.1-0.6,0.2l0,0c-0.4,0.2-0.7,0.4-1,0.6h0c-0.1,0.1-0.2,0.3-0.3,0.5
						l-0.2,0.6l0.1,0.5c0,0,0.7,0,0.7,0l0,0c0.2,0,0.4-0.1,0.5-0.1c0.1-0.1,0.2-0.1,0.3-0.2l0.2-0.2l-0.2,0l0.4-0.4l-0.2,0l0.3-0.5
						l-0.3,0l0.3-0.5L2.3,48.3z"/>
					<path class="st1" d="M2.1,48.4l0.3-0.5l-0.1,0c-0.2,0-0.4,0.1-0.5,0.2l0,0c-0.3,0.2-0.7,0.3-0.9,0.6l0,0
						c-0.1,0.1-0.2,0.3-0.3,0.4l-0.2,0.6l0,0.3l0.8,0.2c0.2,0,0.3-0.1,0.5-0.1c0.1,0,0.2-0.1,0.3-0.2L2,49.6l-0.1,0l0.3-0.4l-0.2,0
						l0.3-0.4l-0.2,0l0.3-0.5L2.1,48.4z"/>
					
						<radialGradient id="SVGID_50_" cx="1539.5513" cy="303.6729" r="1.3067" gradientTransform="matrix(-0.7797 3.380191e-03 3.515329e-03 0.8109 1200.6771 -202.4362)" gradientUnits="userSpaceOnUse">
						<stop  offset="0" style="stop-color:#1A75BA"/>
						<stop  offset="1" style="stop-color:#65C6ED"/>
					</radialGradient>
					<path class="st52" d="M2,48.5L2.3,48l-0.1,0c-0.2,0-0.4,0.1-0.5,0.2l0,0c-0.3,0.1-0.6,0.3-0.9,0.6h0c-0.1,0.1-0.2,0.3-0.3,0.4
						l-0.2,0.5l0,0.3L0.8,50c0.2,0,0.4,0,0.6,0c0,0,0.1,0,0.1,0c0.1,0,0.2-0.1,0.2-0.2l0.2-0.1l-0.1,0l0.3-0.4l-0.2,0l0.3-0.4
						l-0.2,0l0.3-0.4L2,48.5z"/>
					<path class="st3" d="M1.9,48.5l0.2-0.4l-0.1,0c-0.2,0-0.3,0.1-0.4,0.1l0,0c-0.3,0.1-0.5,0.3-0.8,0.5l0,0
						c-0.1,0.1-0.2,0.2-0.2,0.3l-0.2,0.5l0.5,0.3c0,0,0.1,0,0.1,0l0,0c0.1,0,0.3,0,0.4-0.1c0.1,0,0.1-0.1,0.2-0.1l0.1-0.1l-0.1,0
						L2,49.2l-0.1,0l0.3-0.3l-0.2,0l0.2-0.4L1.9,48.5z"/>
					
						<radialGradient id="SVGID_51_" cx="1590.5459" cy="390.8823" r="1.0712" gradientTransform="matrix(-0.7844 3.400296e-03 3.411826e-03 0.787 1247.4957 -264.0209)" gradientUnits="userSpaceOnUse">
						<stop  offset="0" style="stop-color:#941B80"/>
						<stop  offset="1" style="stop-color:#662482"/>
					</radialGradient>
					<path class="st53" d="M1.8,48.6l0.2-0.4l-0.1,0c-0.1,0-0.3,0.1-0.4,0.1l0,0c-0.3,0.1-0.5,0.3-0.7,0.4h0
						c-0.1,0.1-0.2,0.2-0.2,0.3l-0.2,0.4l0.1,0.3c0,0,0.5,0,0.5,0l0,0c0.1,0,0.3,0,0.4-0.1c0.1,0,0.1-0.1,0.2-0.1l0.1-0.1l-0.1,0
						l0.3-0.3l-0.1,0L2,48.9l-0.2,0l0.2-0.4L1.8,48.6z"/>
				</g>
				<g>
					<path class="st1" d="M1.7,48.7l0.2-0.3l-0.1,0c-0.1,0-0.2,0.1-0.3,0.1l0,0c-0.2,0.1-0.4,0.2-0.6,0.4l0,0
						c-0.1,0.1-0.1,0.2-0.2,0.3l-0.1,0.4l0.4,0.3c0,0,0.1,0,0.1,0l0,0c0.1,0,0.2,0,0.3-0.1c0.1,0,0.1-0.1,0.2-0.1l0.1-0.1l-0.1,0
						l0.2-0.2l-0.1,0l0.2-0.3l-0.2,0l0.2-0.3L1.7,48.7z"/>
					
						<radialGradient id="SVGID_52_" cx="1618.459" cy="384.7067" r="0.8769" gradientTransform="matrix(-0.7456 3.232237e-03 3.448825e-03 0.7956 1206.5717 -262.201)" gradientUnits="userSpaceOnUse">
						<stop  offset="0" style="stop-color:#1A75BA"/>
						<stop  offset="1" style="stop-color:#65C6ED"/>
					</radialGradient>
					<path class="st54" d="M1.6,48.7l0.2-0.3l-0.1,0c-0.1,0-0.2,0.1-0.3,0.1l0,0c-0.2,0.1-0.4,0.2-0.6,0.4h0
						c-0.1,0.1-0.1,0.2-0.2,0.3l-0.1,0.4l0.1,0.3c0,0,0.4,0,0.4,0l0,0c0.1,0,0.2,0,0.3-0.1c0.1,0,0.1-0.1,0.2-0.1l0.1-0.1l-0.1,0
						l0.2-0.2l-0.1,0L1.8,49l-0.2,0l0.2-0.3L1.6,48.7z"/>
					<path class="st3" d="M1.5,48.8l0.2-0.3l-0.1,0c-0.1,0-0.2,0-0.3,0.1l-0.1,0C1,48.8,0.8,48.9,0.7,49h0c-0.1,0.1-0.1,0.1-0.2,0.2
						l-0.1,0.6l0.3-0.1l0.1,0l0.2,0c0,0,0.1,0,0.1,0c0,0,0,0,0,0c0.1,0,0.2-0.1,0.2-0.1l0.1-0.1l-0.1,0l0.2-0.2l-0.1,0l0.2-0.2
						l-0.1,0l0.2-0.3L1.5,48.8z"/>
					
						<radialGradient id="SVGID_53_" cx="1575.7394" cy="397.6772" r="0.7492" gradientTransform="matrix(-0.8069 3.498082e-03 3.370521e-03 0.7775 1271.1854 -265.5112)" gradientUnits="userSpaceOnUse">
						<stop  offset="0" style="stop-color:#941B80"/>
						<stop  offset="1" style="stop-color:#662482"/>
					</radialGradient>
					<path class="st55" d="M1.4,48.9l0.2-0.3l-0.1,0c-0.1,0-0.2,0-0.3,0.1l-0.1,0c-0.2,0.1-0.3,0.2-0.5,0.3l0,0
						c-0.1,0-0.1,0.1-0.1,0.2l-0.1,0.2h0c0,0.2,0.2,0.4,0.2,0.4l0.1,0c0.1,0,0.2,0,0.4-0.1c0,0,0.1,0,0.1,0c0,0,0.1,0,0.1-0.1
						l0.1-0.1l-0.1,0l0.2-0.2l-0.1,0l0.2-0.2l-0.1,0l0.2-0.2L1.4,48.9z"/>
					<path class="st1" d="M1.2,49l0.1-0.2l-0.1,0c-0.1,0-0.2,0-0.3,0.1l0,0c-0.2,0.1-0.3,0.2-0.5,0.3h0c-0.1,0.1-0.1,0.1-0.1,0.2
						l-0.1,0.3l0.2,0.2c0,0,0.1,0,0.2,0l0,0c0.1,0,0.2,0,0.2-0.1c0,0,0.1-0.1,0.1-0.1l0.1-0.1l-0.1,0l0.2-0.2l-0.1,0l0.2-0.2l-0.1,0
						L1.4,49L1.2,49z"/>
					
						<radialGradient id="SVGID_54_" cx="1577.1381" cy="389.0883" r="0.6116" gradientTransform="matrix(-0.8051 3.490244e-03 3.425347e-03 0.7902 1269.3169 -263.6621)" gradientUnits="userSpaceOnUse">
						<stop  offset="0" style="stop-color:#1A75BA"/>
						<stop  offset="1" style="stop-color:#65C6ED"/>
					</radialGradient>
					<path class="st56" d="M1.2,49l0.1-0.2l-0.1,0c-0.1,0-0.2,0-0.3,0.1l0,0c-0.2,0.1-0.3,0.1-0.4,0.3h0c-0.1,0.1-0.1,0.1-0.1,0.2
						l-0.1,0.2l0.2,0.2c0,0,0.1,0,0.1,0l0,0c0.1,0,0.2,0,0.2-0.1c0,0,0.1-0.1,0.1-0.1l0.1-0.1l-0.1,0l0.2-0.2l-0.1,0l0.2-0.2l-0.1,0
						L1.3,49L1.2,49z"/>
					<path class="st3" d="M1.1,49.1L1.2,49l0,0C1.1,49,1,49,1,49l0,0c-0.1,0-0.2,0.1-0.3,0.2h0c0,0-0.1,0.1-0.1,0.1l0,0.3l0.3,0
						c0,0,0,0,0,0c0,0,0.1,0,0.1-0.1l0.1,0l0,0l0.1-0.1l-0.1,0l0.1-0.1l-0.1,0L1.1,49.1L1.1,49.1z"/>
					
						<radialGradient id="SVGID_55_" cx="1577.1548" cy="389.1422" r="0.4005" gradientTransform="matrix(-0.8051 3.490244e-03 3.425347e-03 0.7902 1269.3169 -263.6621)" gradientUnits="userSpaceOnUse">
						<stop  offset="0" style="stop-color:#941B80"/>
						<stop  offset="1" style="stop-color:#662482"/>
					</radialGradient>
					<path class="st57" d="M1.1,49.1L1.1,49l0,0c-0.1,0-0.1,0-0.2,0l0,0c-0.1,0-0.2,0.1-0.3,0.2h0c0,0-0.1,0.1-0.1,0.1l-0.1,0.1
						l0.2,0.2l0,0c0,0,0.1,0,0.1,0c0.1,0,0.1,0,0.1-0.1l0,0l0,0l0.1-0.1l-0.1,0l0.1-0.1l-0.1,0L1.1,49.1L1.1,49.1z"/>
					<path class="st1" d="M1,49.3L1,49.1l0,0C1,49.2,0.9,49.2,1,49.3l-0.1-0.1c-0.1,0-0.1,0.1-0.2,0.1h0c0,0,0,0-0.1,0.1l0,0.1
						l0.1,0.1l0.1,0c0,0,0,0,0,0c0,0,0.1,0,0.1-0.1l0,0l0,0L1,49.4l0,0L1,49.3L1,49.3L1,49.3L1,49.3z"/>
					
						<radialGradient id="SVGID_56_" cx="1577.21" cy="389.2271" r="0.2786" gradientTransform="matrix(-0.8051 3.490244e-03 3.425347e-03 0.7902 1269.3169 -263.6621)" gradientUnits="userSpaceOnUse">
						<stop  offset="0" style="stop-color:#1A75BA"/>
						<stop  offset="1" style="stop-color:#65C6ED"/>
					</radialGradient>
					<path class="st58" d="M0.9,49.3L1,49.2L0.9,49.3C0.9,49.2,0.9,49.2,0.9,49.3l-0.1-0.1c-0.1,0-0.1,0.1-0.2,0.1l0,0
						c0,0,0,0,0,0.1l0,0.1l0.1,0.1l0.1,0c0,0,0,0,0,0c0,0,0.1,0,0.1-0.1l0,0l0,0L1,49.4l0,0L0.9,49.3L0.9,49.3L0.9,49.3L0.9,49.3z"
						/>
				</g>
			</g>
		</g>
	</g>
</g>
</svg>
