<?xml version="1.0" encoding="utf-8"?>
<!-- Generator: Adobe Illustrator 21.1.0, SVG Export Plug-In . SVG Version: 6.00 Build 0)  -->
<svg version="1.1" id="Layer_1" xmlns="http://www.w3.org/2000/svg" xmlns:xlink="http://www.w3.org/1999/xlink" x="0px" y="0px"
	 viewBox="0 0 120.5 104.3" style="enable-background:new 0 0 120.5 104.3;" xml:space="preserve">
<style type="text/css">
	.st0{fill:#12100B;}
	.st1{fill:#424039;}
	.st2{fill:#EDEDEB;}
	.st3{fill:#8B867E;}
	.st4{fill:#67635B;}
</style>
<path class="st0" d="M60.4,52.7c0.5,0,0.9,0.3,1.2,0.9l0,0c-0.1-0.2-0.2-0.5-0.3-0.7c0,0,0,0,0,0c-0.1-0.3-0.2-0.6-0.2-0.9l0-0.2
	c0-0.2,0-0.3,0.1-0.4c-0.2,0.2-0.5,0.4-0.8,0.4c-0.3,0-0.6-0.1-0.8-0.4c0.1,0.1,0.1,0.3,0.1,0.5l0,0.2c0,0.3-0.1,0.6-0.2,0.9
	c0,0,0,0,0,0c-0.1,0.2-0.2,0.5-0.3,0.7l0,0C59.5,53.1,59.9,52.7,60.4,52.7z"/>
<g>
	<path class="st0" d="M59.8,40.7L58,38.8c-0.3-0.3-0.5-0.6-0.6-1l-0.1-0.6c-0.1-0.4-0.3-0.9-0.7-1.2l-0.4-0.3c0,0,0,0,0,0L56,35.4
		c-0.1-0.1-0.2-0.1-0.3,0c-0.1,0.1,0,0.3,0.1,0.3c0,0,0.3,0,0.5,0.1l0,0l0.2,0.2c0.3,0.3,0.5,0.7,0.6,1.1l0.1,0.6
		c0.1,0.4,0.3,0.8,0.6,1.1l1.8,1.9c0.2,0.2,0.3,0.4,0.3,0.7l0,0.3c0,0,0,0.1,0.1,0.1c0,0,0.1,0,0.1-0.1l0-0.3
		C60.1,41.2,60,40.9,59.8,40.7z"/>
	<path class="st0" d="M60.9,40.7l1.8-1.9c0.3-0.3,0.5-0.6,0.5-1l0.1-0.6c0.1-0.4,0.3-0.9,0.7-1.2l0.4-0.3c0,0,0,0,0,0l0.3-0.3
		c0.1-0.1,0.2-0.1,0.3,0c0.1,0.1,0,0.3-0.1,0.3c0,0-0.3,0-0.5,0.1l0,0l-0.2,0.2c-0.3,0.3-0.5,0.7-0.6,1.1l-0.1,0.6
		c-0.1,0.4-0.3,0.8-0.6,1.1l-1.8,1.9c-0.2,0.2-0.3,0.4-0.3,0.7l0,0.3c0,0,0,0.1-0.1,0.1s-0.1,0-0.1-0.1l0-0.3
		C60.6,41.2,60.7,40.9,60.9,40.7z"/>
	<path class="st1" d="M60.6,59.1l-0.2,0c-0.4,0-0.8-0.3-0.8-0.8l0,0c0-0.4,0.3-0.8,0.8-0.8l0.2,0c0.4,0,0.8,0.3,0.8,0.8v0
		C61.4,58.8,61,59.1,60.6,59.1z"/>
	<path class="st2" d="M60.8,57.6c-0.1,0-0.2,0-0.3,0l-0.2,0c-0.1,0-0.2,0-0.3,0l0,1.1c0,0.2,0.2,0.4,0.4,0.4h0
		c0.2,0,0.4-0.2,0.4-0.4L60.8,57.6z"/>
	<path class="st0" d="M59.6,58c0.1,0,0.2,0.1,0.3,0.1l1,0c0.1,0,0.2,0,0.3-0.1c-0.1-0.3-0.4-0.4-0.7-0.4l-0.2,0
		C60,57.6,59.8,57.7,59.6,58z"/>
	<path class="st3" d="M60.3,57.6c-0.1,0-0.2,0-0.3,0l0,0.5l0.8,0l0-0.5c-0.1,0-0.2,0-0.3,0L60.3,57.6z"/>
	<ellipse transform="matrix(1 -4.334948e-03 4.334948e-03 1 -0.1848 0.2584)" class="st2" cx="59.5" cy="42.8" rx="0.4" ry="0.4"/>
	<path class="st3" d="M59.5,42.3c-0.1,0-0.1,0-0.2,0l0,0.5c0,0.1,0,0.2-0.1,0.2c0.1,0,0.1,0.1,0.2,0.1c0.2,0,0.4-0.2,0.4-0.4
		C60,42.5,59.8,42.3,59.5,42.3z"/>
	<ellipse transform="matrix(1 -4.334948e-03 4.334948e-03 1 -0.1848 0.2659)" class="st2" cx="61.3" cy="42.8" rx="0.4" ry="0.4"/>
	<path class="st3" d="M61.3,42.3c0.1,0,0.1,0,0.2,0l0,0.5c0,0.1,0,0.2,0.1,0.2c-0.1,0-0.1,0.1-0.2,0.1c-0.2,0-0.4-0.2-0.4-0.4
		C60.8,42.5,61,42.3,61.3,42.3z"/>
	<path class="st1" d="M61.3,43.2c-0.1-0.1-0.1-0.2-0.1-0.3l0-0.9c0-0.3-0.2-0.5-0.4-0.5l0,0c-0.3,0-0.6,0-0.9,0l0,0
		c-0.2,0-0.4,0.2-0.4,0.5l0,0.9c0,0.1,0,0.2-0.1,0.3c-0.1,0.2-0.4,0.7-0.4,1.3c0,0.8,0.2,0.4,0.2,0.4l1.1-0.1l1.1,0.1
		c0,0,0.2,0.4,0.2-0.4C61.7,43.9,61.5,43.4,61.3,43.2z"/>
	<path class="st0" d="M59.7,44l-0.6,0.1c0,0.1,0,0.2,0,0.4c0,0.8,0.2,0.4,0.2,0.4l1.1-0.1l1.1,0.1c0,0,0.2,0.4,0.2-0.4
		c0-0.1,0-0.3,0-0.4L61.1,44C60.6,43.9,60.1,43.9,59.7,44z"/>
	<path class="st1" d="M60.9,57.7l-1,0c-0.4,0-0.8-0.3-0.8-0.8v0c0-0.4,0.3-0.8,0.8-0.8l1,0c0.4,0,0.8,0.3,0.8,0.8v0
		C61.7,57.4,61.4,57.7,60.9,57.7z"/>
	<path class="st2" d="M60.4,57.7L60.4,57.7c0.2,0,0.4-0.2,0.4-0.4l0-1.2l-0.8,0l0,1.2C60.1,57.6,60.2,57.7,60.4,57.7z"/>
	<path class="st0" d="M59.2,56.7c0.1,0,0.2,0.1,0.3,0.1l1.8,0c0.1,0,0.2,0,0.3-0.1c-0.1-0.3-0.4-0.5-0.7-0.5l-1,0
		C59.6,56.2,59.4,56.4,59.2,56.7z"/>
	
		<rect x="60.1" y="56.2" transform="matrix(1 -4.334948e-03 4.334948e-03 1 -0.2442 0.2625)" class="st3" width="0.8" height="0.5"/>
	<path class="st1" d="M61.1,56.4l-1.4,0c-0.5,0-1-0.4-1-1v0c0-0.5,0.4-1,1-1l1.4,0c0.5,0,1,0.4,1,1v0C62.1,56,61.7,56.4,61.1,56.4z"
		/>
	<path class="st2" d="M60.4,56.4L60.4,56.4c0.2,0,0.4-0.2,0.4-0.4l0-1.6l-0.8,0l0,1.6C60.1,56.2,60.2,56.4,60.4,56.4z"/>
	<path class="st0" d="M58.9,54.8c0.1,0.1,0.3,0.1,0.4,0.1l2.1,0c0.2,0,0.3-0.1,0.4-0.1c-0.1-0.2-0.4-0.3-0.6-0.3l-1.8,0
		C59.3,54.5,59.1,54.6,58.9,54.8z"/>
	
		<rect x="60.1" y="54.5" transform="matrix(1 -4.334948e-03 4.334948e-03 1 -0.2365 0.2625)" class="st3" width="0.8" height="0.5"/>
	<path class="st1" d="M61.3,54.6l-1.8,0c-0.5,0-1-0.4-1-1v0c0-0.5,0.4-1,1-1l1.8,0c0.5,0,1,0.4,1,1l0,0
		C62.3,54.1,61.9,54.6,61.3,54.6z"/>
	<path class="st2" d="M60.4,54.6L60.4,54.6c0.2,0,0.4-0.2,0.4-0.4l0-1.6l-0.8,0l0,1.6C60.1,54.4,60.2,54.6,60.4,54.6z"/>
	<path class="st0" d="M62,52.8c-0.1-0.1-0.3-0.2-0.5-0.2l-2.1,0c-0.2,0-0.3,0.1-0.5,0.2c0.1,0.2,0.4,0.4,0.7,0.4l1.8,0
		C61.6,53.1,61.8,53,62,52.8z"/>
	
		<rect x="60.1" y="52.6" transform="matrix(1 -4.334948e-03 4.334948e-03 1 -0.2287 0.2624)" class="st3" width="0.8" height="0.5"/>
	<path class="st1" d="M61.1,52.8l-1.4,0c-0.5,0-1-0.4-1-1l0,0c0-0.5,0.4-1,1-1l1.4,0c0.5,0,1,0.4,1,1l0,0
		C62.1,52.4,61.7,52.8,61.1,52.8z"/>
	<path class="st2" d="M60.4,52.8L60.4,52.8c0.2,0,0.4-0.2,0.4-0.4l0-1.6l-0.8,0l0,1.6C60.1,52.7,60.2,52.8,60.4,52.8z"/>
	<path class="st0" d="M61.6,50.9c-0.1,0-0.2-0.1-0.3-0.1l-1.8,0c-0.1,0-0.2,0-0.3,0.1c0.1,0.4,0.4,0.7,0.8,0.7l0.9,0
		C61.3,51.6,61.6,51.3,61.6,50.9z"/>
	<rect x="60" y="50.9" transform="matrix(1 -4.334948e-03 4.334948e-03 1 -0.2216 0.2624)" class="st3" width="0.8" height="0.7"/>
	<path class="st1" d="M60.5,51.3l-0.1,0c-0.6,0-1.2-0.5-1.2-1.2l0,0c0-0.6,0.5-1.2,1.2-1.2l0.1,0c0.6,0,1.2,0.5,1.2,1.2v0
		C61.6,50.8,61.1,51.3,60.5,51.3z"/>
	<path class="st2" d="M60.8,50.9l0-2L60,49l0,2c0,0.2,0.2,0.4,0.4,0.4l0,0C60.6,51.3,60.8,51.1,60.8,50.9z"/>
	<path class="st0" d="M61.6,49.7c0-0.4-0.4-0.8-0.8-0.8L60,49c-0.4,0-0.8,0.3-0.8,0.8c0.1,0.2,0.3,0.4,0.5,0.5l0.2,0.1
		c0.3,0.2,0.7,0.2,1.1,0l0.2-0.1C61.4,50.1,61.5,49.9,61.6,49.7z"/>
	<path class="st3" d="M60.8,50.4l0-1.4L60,49l0,1.4C60.3,50.5,60.6,50.5,60.8,50.4z"/>
	<path class="st4" d="M59.7,44.3L59,44.4c-0.4,0.1-0.6,0.4-0.4,0.7l0.3,0.9c0.1,0.2,0.1,0.5,0.1,0.7l0,2.1c0,0.4,0.2,0.8,0.6,1
		l0.2,0.1c0.3,0.2,0.7,0.2,1.1,0l0.2-0.1c0.4-0.2,0.6-0.6,0.6-1l0-2.1c0-0.2,0-0.5,0.1-0.7l0.3-0.9c0.1-0.3-0.1-0.6-0.4-0.7
		l-0.7-0.1C60.6,44.2,60.1,44.2,59.7,44.3z"/>
	<path class="st2" d="M61,46.8L61,46.6c-0.1-0.1-0.1-0.3-0.1-0.4l-0.1-1c0-0.2-0.2-0.4-0.4-0.4l0,0c-0.2,0-0.4,0.2-0.4,0.4l-0.1,1
		c0,0.2,0,0.3-0.1,0.4l-0.1,0.2c-0.2,0.5-0.3,0.9-0.3,1.4c0,0.5,0.1,0.9,0.3,1.4l0,0.1c0.1,0.2,0.4,0.4,0.6,0.4l0,0
		c0.3,0,0.5-0.2,0.6-0.4l0-0.1c0.2-0.4,0.3-0.9,0.3-1.4C61.4,47.8,61.3,47.3,61,46.8z"/>
</g>
</svg>
