<?xml version="1.0" encoding="utf-8"?>
<!-- Generator: Adobe Illustrator 21.1.0, SVG Export Plug-In . SVG Version: 6.00 Build 0)  -->
<svg version="1.1" id="Layer_1" xmlns="http://www.w3.org/2000/svg" xmlns:xlink="http://www.w3.org/1999/xlink" x="0px" y="0px"
	 viewBox="0 0 60 103.7" style="enable-background:new 0 0 60 103.7;" xml:space="preserve">
<style type="text/css">
	.st0{fill:url(#SVGID_1_);}
	.st1{fill:#1E1A1B;}
	.st2{fill:url(#SVGID_2_);}
	.st3{fill:#FFFFFF;}
	.st4{fill:url(#SVGID_3_);}
	.st5{fill:url(#SVGID_4_);}
	.st6{fill:url(#SVGID_5_);}
	.st7{fill:url(#SVGID_6_);}
	.st8{fill:url(#SVGID_7_);}
	.st9{fill:url(#SVGID_8_);}
	.st10{fill:url(#SVGID_9_);}
	.st11{fill:url(#SVGID_10_);}
	.st12{fill:url(#SVGID_11_);}
	.st13{fill:url(#SVGID_12_);}
	.st14{fill:url(#SVGID_13_);}
	.st15{fill:url(#SVGID_14_);}
	.st16{fill:url(#SVGID_15_);}
	.st17{fill:url(#SVGID_16_);}
	.st18{fill:url(#SVGID_17_);}
	.st19{fill:#12100B;}
	.st20{fill:url(#SVGID_18_);}
	.st21{fill:url(#SVGID_19_);}
	.st22{fill:url(#SVGID_20_);}
	.st23{fill:url(#SVGID_21_);}
	.st24{fill:url(#SVGID_22_);}
	.st25{fill:url(#SVGID_23_);}
	.st26{fill:url(#SVGID_24_);}
	.st27{fill:url(#SVGID_25_);}
	.st28{fill:url(#SVGID_26_);}
	.st29{fill:url(#SVGID_27_);}
	.st30{fill:url(#SVGID_28_);}
	.st31{fill:url(#SVGID_29_);}
	.st32{fill:url(#SVGID_30_);}
	.st33{fill:url(#SVGID_31_);}
	.st34{fill:url(#SVGID_32_);}
	.st35{fill:url(#SVGID_33_);}
	.st36{fill:url(#SVGID_34_);}
	.st37{fill:url(#SVGID_35_);}
	.st38{fill:url(#SVGID_36_);}
	.st39{fill:url(#SVGID_37_);}
	.st40{fill:url(#SVGID_38_);}
	.st41{fill:url(#SVGID_39_);}
	.st42{fill:url(#SVGID_40_);}
	.st43{fill:url(#SVGID_41_);}
	.st44{fill:url(#SVGID_42_);}
	.st45{fill:url(#SVGID_43_);}
	.st46{fill:url(#SVGID_44_);}
	.st47{fill:url(#SVGID_45_);}
	.st48{fill:url(#SVGID_46_);}
	.st49{fill:url(#SVGID_47_);}
	.st50{fill:url(#SVGID_48_);}
	.st51{fill:url(#SVGID_49_);}
	.st52{fill:url(#SVGID_50_);}
	.st53{fill:url(#SVGID_51_);}
	.st54{fill:url(#SVGID_52_);}
	.st55{fill:url(#SVGID_53_);}
	.st56{fill:url(#SVGID_54_);}
	.st57{fill:url(#SVGID_55_);}
	.st58{fill:url(#SVGID_56_);}
</style>
<g>
	<g>
		<g>
			<g>
				
					<radialGradient id="SVGID_1_" cx="322.1061" cy="-189.4831" r="23.8269" gradientTransform="matrix(1.0984 -4.761593e-03 5.335803e-03 1.2309 -320.659 310.1835)" gradientUnits="userSpaceOnUse">
					<stop  offset="0" style="stop-color:#941B80"/>
					<stop  offset="1" style="stop-color:#662482"/>
				</radialGradient>
				<path class="st0" d="M55.2,64.9c-1.1,3.5-2.5,6.8-4,10.1c-1.9,4-4.5,9.4-6.5,12.6c-1.1,1.8-2.3,3.4-3.4,4.6
					c-0.1,0.1-0.2,0.2-0.3,0.3c0,0-5.8,5.3-9.1,7.2l-6.8,4l1.6-9.9l-8.3,2l2.7-10.7l-8.6,1.2l4.3-9.5l-8.7-0.7l5.1-8.9L5,65.6
					l0.3-0.4C10.9,58.7,18,54,25.7,51.5l0,0c2.5-0.8,5-1.4,7.6-1.7L59.1,47L58,52.4c-0.4,3.4-0.1,3.5-1.1,7.1
					C56.8,60,56,62.5,55.2,64.9z"/>
			</g>
			<path class="st1" d="M25.2,81L18,82l3.6-7.9l-7.3-0.6l4.3-7.4l-6.9-1.5l0.3-0.3c4.7-5.4,10.5-9.3,17-11.4l0,0
				c2.1-0.7,4.2-1.1,6.3-1.4L57,48.8l-1.1,10.9c0,0.6,0,0.9-0.2,1.5l2.2-4.4c-0.4,2-3.4,10.5-4.2,12.3l-4.1,8.7
				c-1.8,3.8-4.2,7.3-7,10.2v0c-2.3,2.4-4.8,4.4-7.6,6l-5.7,3.3l0.6-9.2l-6.9,1.7L25.2,81z"/>
			
				<radialGradient id="SVGID_2_" cx="489.5362" cy="-343.7173" r="18.0887" gradientTransform="matrix(1.2089 -5.240418e-03 5.740516e-03 1.3242 -553.9572 529.9373)" gradientUnits="userSpaceOnUse">
				<stop  offset="0" style="stop-color:#1A75BA"/>
				<stop  offset="1" style="stop-color:#65C6ED"/>
			</radialGradient>
			<path class="st2" d="M26.4,79.8l-6.9,1l3.5-7.6l-7.1-0.6l4.1-7.1l-6.7-1.4l0.3-0.3c4.5-5.2,10.2-9,16.4-11h0c2-0.6,4-1.1,6.1-1.4
				L57,48.8l-0.9,10.5c-0.1,1,2.1-4.2,2.1-4.2c-0.5,2.4-3.8,11.7-4.8,13.9l-3.6,7.7c-1.7,3.7-4,7-6.7,9.8h0
				c-2.2,2.3-4.7,4.2-7.3,5.8l-5.5,3.2l0.6-8.9l-6.7,1.6L26.4,79.8z"/>
			<g>
				<path class="st3" d="M30.3,76.3l-6.2,0.9l3.1-6.7L20.9,70l3.7-6.3l-6-1.3l0.2-0.3c4-4.6,9.1-7.9,14.7-9.7l0,0
					c1.8-0.6,3.6-1,5.5-1.2l18.6-2.3l1.4,4.9c-0.3,1.7-3.6,10.8-4.3,12.3l-3.6,7.4c-1.6,3.2-3.6,6.2-6,8.7v0c-2,2-4.2,3.7-6.5,5.1
					l-4.9,2.8l0.6-7.8l-6,1.4L30.3,76.3z"/>
				
					<radialGradient id="SVGID_3_" cx="147.0581" cy="219.6796" r="18.0887" gradientTransform="matrix(1.0426 -4.519755e-03 4.879607e-03 1.1256 -114.9572 -177.7663)" gradientUnits="userSpaceOnUse">
					<stop  offset="0" style="stop-color:#941B80"/>
					<stop  offset="1" style="stop-color:#662482"/>
				</radialGradient>
				<path class="st4" d="M31.3,75.3l-6,0.8l3-6.4l-6.1-0.5l3.6-6.1l-5.7-1.2l0.2-0.3c3.9-4.4,8.8-7.6,14.1-9.3h0
					c1.7-0.5,3.5-0.9,5.3-1.2l18-2.2l-0.8,8.9c-0.1,0.8,1.8-3.5,1.8-3.5c-0.4,2-3.3,10-4.2,11.8l-3.1,6.5c-1.5,3.1-3.5,5.9-5.8,8.4
					h0c-1.9,1.9-4,3.6-6.3,4.9l-4.7,2.7l0.5-7.5l-5.7,1.4L31.3,75.3z"/>
				<path class="st1" d="M29.1,61l-5.3-1.1l0.2-0.2c3.6-4.1,8.1-7.1,13-8.7c1.6-0.5,3.2-0.9,4.9-1.1l16.5-2.1l-0.8,9.1
					c-0.1,0.6-0.2,1.4-0.4,2.1c-0.4,1.7-1,3.3-1.7,4.8l-2.8,6c-1.4,2.9-3.2,5.6-5.4,7.8c-1.7,1.8-3.7,3.4-5.8,4.6l-4.4,2.6l0.5-7
					l-5.3,1.3l1.7-6.8l-5.5,0.8l2.8-6l-5.6-0.4L29.1,61z"/>
				
					<radialGradient id="SVGID_4_" cx="203.3053" cy="44.8286" r="15.4746" gradientTransform="matrix(1.0815 -4.688448e-03 5.063487e-03 1.1681 -178.4376 14.3683)" gradientUnits="userSpaceOnUse">
					<stop  offset="0" style="stop-color:#1A75BA"/>
					<stop  offset="1" style="stop-color:#65C6ED"/>
				</radialGradient>
				<path class="st5" d="M30,60.6l-5.2-1.1l0.2-0.2c3.5-4,7.9-6.9,12.7-8.5h0c1.5-0.5,3.1-0.8,4.7-1l16-2l-0.7,8.4
					c-0.1,1.2,0.9-1.4,0.5,0c-0.4,1.3-2.4,7-3,8.2l-2.3,4.9c-1.3,2.8-3.1,5.4-5.2,7.6c-1.7,1.8-3.6,3.3-5.7,4.5l-4.3,2.5l0.5-6.8
					l-5.1,1.3l1.7-6.6l-5.3,0.8l2.7-5.8l-5.5-0.4L30,60.6z"/>
				<path class="st3" d="M33.7,59.5l-4.5-1l0.2-0.2c3-3.7,6.8-6.4,11-7.8c1.3-0.5,2.7-0.8,4.1-1l13.9-1.8l0,7.5
					c0,0.5-1.7,5.4-2.3,6.8l-2.5,5.5c-1.2,2.6-2.7,4.9-4.5,7c-1.5,1.6-3.1,3-4.9,4.1l-3.7,2.3l0.4-6.3l-4.5,1.1l1.5-6l-4.7,0.7
					l2.3-5.4l-4.7-0.4L33.7,59.5z"/>
				
					<radialGradient id="SVGID_5_" cx="49.4673" cy="90.5878" r="15.6502" gradientTransform="matrix(0.9137 -3.961091e-03 4.511106e-03 1.0406 -0.9816 -30.2683)" gradientUnits="userSpaceOnUse">
					<stop  offset="0" style="stop-color:#941B80"/>
					<stop  offset="1" style="stop-color:#662482"/>
				</radialGradient>
				<path class="st6" d="M34.4,59.2l-4.4-1l0.2-0.2c2.9-3.6,6.6-6.2,10.7-7.5h0c1.3-0.4,2.6-0.8,4-0.9l13.5-1.8l0.7,5.8
					c-0.1,1-2,5.6-2,5.6s-0.9,2.3-1.4,3.4l-2,4.4c-1.1,2.5-2.6,4.8-4.4,6.8c-1.4,1.6-3,2.9-4.8,4l-3.6,2.2l0.4-6.1l-4.3,1.1l1.4-5.9
					L34,69.7l2.3-5.2l-4.6-0.4L34.4,59.2z"/>
				<path class="st1" d="M37.7,57.6l-3.8-1l0.2-0.2c2.5-3.1,5.7-5.2,9.2-6.4c1.1-0.4,2.3-0.6,3.4-0.8l11.7-1.5l-0.5,6.8
					c0,0.4,0.9-0.5,0.7,0.1c-0.3,1.2-1.4,3.6-1.9,4.7l-2.3,4.9c-1,2.2-2.3,4.2-3.8,5.8c-1.2,1.4-2.6,2.5-4.1,3.4l-3.1,1.9l0.3-5.3
					l-3.7,1l1.2-5.1l-3.9,0.6l2-4.5l-4-0.3L37.7,57.6z"/>
				
					<radialGradient id="SVGID_6_" cx="-142.5095" cy="171.0091" r="15.4746" gradientTransform="matrix(0.7658 -3.319888e-03 3.785355e-03 0.8732 155.0928 -88.5803)" gradientUnits="userSpaceOnUse">
					<stop  offset="0" style="stop-color:#1A75BA"/>
					<stop  offset="1" style="stop-color:#65C6ED"/>
				</radialGradient>
				<path class="st7" d="M38.3,57.4l-3.6-0.8l0.1-0.2c2.5-3,5.6-5.2,9-6.3h0c1.1-0.4,2.2-0.6,3.3-0.8l11.3-1.5L58,54
					c-0.1,0.9,0.7,0.2,0.4,1.3c-0.3,0.9-1.6,3.9-2,4.7l-1.8,3.7c-0.9,2.1-2.2,4-3.7,5.7c-1.2,1.3-2.5,2.4-4,3.3l-3,1.9l0.3-5.1
					l-3.6,0.9l1.2-4.9L38,66.1l1.9-4.4L36,61.5L38.3,57.4z"/>
				<path class="st3" d="M40.5,56.9l-3.3-1.2l0.1-0.2c2.2-2.7,5-4.7,8-5.8c1-0.3,2-0.6,3-0.7l10.1-1.4L58,53.8
					c0,0.4-0.1,0.9-0.3,1.4c-0.3,1.1,1.1-0.8,0.7,0.3L55,62.4c-0.8,1.9-2,3.7-3.3,5.2c-1.1,1.2-2.3,2.2-3.6,3l-2.7,1.7l0.3-4.7
					l-3.2,0.9l1.1-4.5l-3.4,0.5l1.7-3.6l-3.4-0.3L40.5,56.9z"/>
				
					<radialGradient id="SVGID_7_" cx="-695.2676" cy="730.4483" r="15.4746" gradientTransform="matrix(0.6627 -2.872898e-03 3.351361e-03 0.7731 506.5215 -507.0314)" gradientUnits="userSpaceOnUse">
					<stop  offset="0" style="stop-color:#941B80"/>
					<stop  offset="1" style="stop-color:#662482"/>
				</radialGradient>
				<path class="st8" d="M41.1,56.7l-3.3-1.2l0.1-0.2c2.1-2.7,4.8-4.6,7.8-5.6h0c0.9-0.3,1.9-0.6,2.9-0.7l9.8-1.3L58,53.3
					c-0.1,0.8-0.4,2-0.6,3c-0.2,0.8,0.1,0.7-0.2,1.5l-1.3,2.7c0,0-2.7,5-4,6.5c-1,1.2-2.2,2.2-3.5,3l-2.6,1.6l0.3-4.5L43,67.9l1-4.3
					L40.7,64l1.7-3.5l-3.3-0.3L41.1,56.7z"/>
				<path class="st1" d="M42.8,56.6l-2.7-1.6c0,0,4.3-4.2,7-5.2c0.8-0.3,1.6-0.8,2.5-1l8.8-1.2l-0.4,5.5c0,0.4-0.1,0.8-0.2,1.3
					c-0.2,1-0.5,2-0.9,2.9L55.5,61c-0.7,1.7-1.7,3.3-2.9,4.7c-0.9,1.1-2,2-3.1,2.8L47.2,70l0.3-4.2l-2.8,0.8l0.9-4.1L42.6,63
					l1.5-3.1l-3-0.3L42.8,56.6z"/>
				
					<radialGradient id="SVGID_8_" cx="-900.3293" cy="788.6398" r="15.3759" gradientTransform="matrix(0.5763 -2.498078e-03 3.038229e-03 0.7009 566.0809 -496.4218)" gradientUnits="userSpaceOnUse">
					<stop  offset="0" style="stop-color:#1A75BA"/>
					<stop  offset="1" style="stop-color:#65C6ED"/>
				</radialGradient>
				<path class="st9" d="M43.4,56.5L40.8,55c0,0,4.1-4.1,6.6-5l0-0.4c0.8-0.3,1.7-0.5,2.5-0.6l8.5-1.2l-0.4,5.1
					c-0.1,0.7-0.3,1.8-0.6,2.7c-0.2,0.8-0.4,1.5-0.7,2.2l-0.7,2.4c0,0-2.2,3.7-3.3,5.1c-0.9,1.1-1.9,2-3,2.7l-2.3,1.5l0.3-4.1L45,66
					l0.9-3.9l-2.8,0.5l1.4-3l-2.8-0.2L43.4,56.5z"/>
				<path class="st3" d="M48.6,51.8c0.8-0.2,1.5-0.4,2.3-0.5l7.5-0.9L58,55.6c0,0.5,1.3-1.8,1.3-1.8s-2,4.3-2.2,4.7l-0.9,1.8
					c-0.7,1.3-1.5,2.5-2.6,3.5c-0.8,0.8-1.8,1.5-2.8,2l-2.1,1.1l0.2-3.1l-2.5,0.6l0.8-3l-2.6,0.3l1.3-2.7l-2.7-0.2l1.6-2.5l-2-1.1
					C42.8,55.2,45.1,52.2,48.6,51.8z"/>
				
					<radialGradient id="SVGID_9_" cx="-1024.8353" cy="1978.2552" r="7.4455" gradientTransform="matrix(1.0209 -4.425395e-03 4.879999e-03 1.1257 1087.8562 -2173.0432)" gradientUnits="userSpaceOnUse">
					<stop  offset="0" style="stop-color:#941B80"/>
					<stop  offset="1" style="stop-color:#662482"/>
				</radialGradient>
				<path class="st10" d="M43.3,55c1.7-1.8,3.2-2.5,5.6-3.2c0.7-0.2,1.5-0.4,2.3-0.5l7.3-0.8c0,0,1,2.6,0.9,3c-0.2,0.7-2,4.4-2.4,5
					L56.2,60c-0.6,1.3-1.5,2.4-2.5,3.4v0c-0.8,0.8-1.7,1.4-2.7,2l-2,1.1l0.2-3l-2.5,0.6l0.8-2.9l-2.6,0.3l1.3-2.6l-2.6-0.2l1.5-2.4
					L43.3,55z"/>
				<g>
					<g>
						<g>
							<path class="st1" d="M49.9,51.7c0.7-0.2,1.3-0.3,2-0.4l6.5-0.8l-0.4,4.6c0,0.5,1.1-1.7,1.1-1.7s-1.7,3.9-1.9,4.3l-0.8,1.6
								c-0.6,1.2-1.3,2.2-2.2,3.1c-0.7,0.7-1.5,1.3-2.4,1.8l-1.8,1l0.2-2.8L48,63l0.7-2.7l-2.3,0.3l1.2-2.4L45.2,58l1.4-2.3L44.4,55
								C44.4,55,47.1,52.2,49.9,51.7z"/>
							
								<radialGradient id="SVGID_10_" cx="-1155.6378" cy="2017.9082" r="7.5777" gradientTransform="matrix(0.8907 -3.861369e-03 4.405930e-03 1.0164 1072.5703 -1997.7074)" gradientUnits="userSpaceOnUse">
								<stop  offset="0" style="stop-color:#1A75BA"/>
								<stop  offset="1" style="stop-color:#65C6ED"/>
							</radialGradient>
							<path class="st11" d="M44.9,54.9c0,0,2.7-2.7,5.3-3.2c0.6-0.2,1.3-0.3,2-0.4l6.3-0.8c0,0,0.9,2.4,0.8,2.7
								c-0.2,0.6-1.8,4-2.1,4.5L56.5,59c-0.6,1.1-1.3,2.2-2.2,3v0c-0.7,0.7-1.5,1.3-2.4,1.8l-1.8,1l0.2-2.7l-2.1,0.5L49,60l-2.2,0.3
								l1.1-2.3l-2.3-0.2l1.3-2.2L44.9,54.9z"/>
						</g>
					</g>
				</g>
				<g>
					<g>
						<g>
							<path class="st3" d="M46.4,54.5c1.3-1.4,2.9-2.5,4.7-3c0.6-0.2,1.2-0.3,1.8-0.4l5.7-0.7l-0.3,3.9c0,0.4,1-1.4,1-1.4
								s-1.5,3.3-1.7,3.7l-0.7,1.4c-0.5,1-1.2,1.9-1.9,2.7c-0.6,0.6-1.3,1.2-2.1,1.6l-1.6,0.9l0.2-2.4l-1.9,0.4l0.6-2.3l-2,0.3
								l1-2.1l-2-0.2l1.2-2L46.4,54.5L46.4,54.5z"/>
							
								<radialGradient id="SVGID_11_" cx="-1311.1379" cy="2083.0793" r="7.5079" gradientTransform="matrix(0.7735 -3.353078e-03 3.799322e-03 0.8764 1059.0824 -1773.3779)" gradientUnits="userSpaceOnUse">
								<stop  offset="0" style="stop-color:#941B80"/>
								<stop  offset="1" style="stop-color:#662482"/>
							</radialGradient>
							<path class="st12" d="M46.8,54.4c1.3-1.4,2.8-2.4,4.6-2.9c0.6-0.2,1.1-0.3,1.7-0.4l5.5-0.7c0,0,0.5,2.9,0.4,3.2
								c-0.2,0.5-1.3,2.6-1.5,3.1l-0.6,1.1c-0.5,1-1.1,1.9-1.9,2.6v0c-0.6,0.6-1.3,1.1-2,1.5l-1.5,0.9l0.2-2.4L49.7,61l0.6-2.3
								L48.4,59l1-2l-2-0.1l1.2-1.9L46.8,54.4L46.8,54.4z"/>
						</g>
					</g>
				</g>
				<g>
					<g>
						<g>
							<path class="st1" d="M48.2,53.9c1.1-1.2,2.5-2.1,4.1-2.6c0.5-0.1,1-0.3,1.5-0.3l4.9-0.6l-0.3,3.4c0,0.3,0.8-1.2,0.8-1.2
								s-1.3,2.9-1.5,3.2L57.2,57c-0.4,0.9-1,1.6-1.7,2.3c-0.5,0.5-1.2,1-1.8,1.4l-1.4,0.8l0.2-2.1l-1.7,0.4l0.5-2l-1.7,0.2l0.9-1.8
								L48.7,56l1-1.7L48.2,53.9L48.2,53.9z"/>
							
								<radialGradient id="SVGID_12_" cx="-1498.7844" cy="2165.0996" r="7.5056" gradientTransform="matrix(0.6673 -2.892880e-03 3.238218e-03 0.747 1046.8896 -1565.8777)" gradientUnits="userSpaceOnUse">
								<stop  offset="0" style="stop-color:#1A75BA"/>
								<stop  offset="1" style="stop-color:#65C6ED"/>
							</radialGradient>
							<path class="st13" d="M48.5,53.8c1.1-1.2,2.5-2,4-2.5c0.5-0.1,1-0.2,1.5-0.3l4.8-0.6l-0.3,3.2c0,0.3,0.7-0.8,0.6-0.5
								c-0.2,0.4-1.1,2.2-1.3,2.6l-0.5,0.9c-0.4,0.8-1,1.6-1.6,2.2v0c-0.5,0.5-1.1,1-1.8,1.3l-1.3,0.7l0.1-2L51,59.4l0.5-1.9
								l-1.7,0.2l0.8-1.7L49,55.9l1-1.6L48.5,53.8L48.5,53.8z"/>
						</g>
					</g>
				</g>
				<g>
					<g>
						<path class="st3" d="M49.9,53.4c0.9-1,2.1-1.8,3.5-2.2c0.4-0.1,0.9-0.2,1.3-0.3l4.1-0.5l-0.2,2.8c0,0.3,0.7-1,0.7-1
							S58.1,54.7,58,55l-0.5,1c-0.4,0.7-0.8,1.4-1.4,1.9c-0.5,0.5-1,0.8-1.5,1.1l-1.2,0.6l0.1-1.8l-1.4,0.3l0.5-1.7l-1.5,0.2
							l0.7-1.5l-1.5-0.1l0.9-1.4L49.9,53.4L49.9,53.4z"/>
						
							<radialGradient id="SVGID_13_" cx="-1747.6328" cy="2266.3372" r="7.5056" gradientTransform="matrix(0.5646 -2.447415e-03 2.738942e-03 0.6318 1035.0171 -1381.2373)" gradientUnits="userSpaceOnUse">
							<stop  offset="0" style="stop-color:#941B80"/>
							<stop  offset="1" style="stop-color:#662482"/>
						</radialGradient>
						<path class="st14" d="M50.1,53.3c0.9-1,2.1-1.7,3.4-2.1c0.4-0.1,0.8-0.2,1.2-0.3l4-0.5l-0.2,2.7c0,0.2,0.6-0.7,0.5-0.4
							c-0.1,0.4-0.9,1.9-1.1,2.2l-0.4,0.8c-0.4,0.7-0.8,1.3-1.4,1.9v0c-0.4,0.4-1,0.8-1.5,1.1l-1.1,0.6l0.1-1.7L52.3,58l0.4-1.6
							l-1.4,0.2l0.7-1.5L50.6,55l0.8-1.4L50.1,53.3L50.1,53.3z"/>
					</g>
				</g>
				<g>
					<g>
						<path class="st1" d="M51.3,52.8c0.8-0.8,1.8-1.4,2.9-1.7c0.4-0.1,0.7-0.2,1.1-0.2l3.5-0.4l-0.2,2.3c0,0.2,0.6-0.8,0.6-0.8
							s-0.9,1.9-1,2.1l-0.4,0.8c-0.3,0.6-0.7,1.1-1.2,1.6c-0.4,0.4-0.8,0.7-1.3,0.9l-1,0.5l0.1-1.4l-1.2,0.3l0.4-1.4l-1.2,0.2
							l0.6-1.2l-1.3-0.1l0.7-1.1L51.3,52.8L51.3,52.8z"/>
						
							<radialGradient id="SVGID_14_" cx="-2043.6833" cy="2425.9648" r="7.5056" gradientTransform="matrix(0.4772 -2.068480e-03 2.203300e-03 0.5083 1025.0953 -1183.1605)" gradientUnits="userSpaceOnUse">
							<stop  offset="0" style="stop-color:#1A75BA"/>
							<stop  offset="1" style="stop-color:#65C6ED"/>
						</radialGradient>
						<path class="st15" d="M51.5,52.8c0.8-0.8,1.8-1.4,2.8-1.7c0.3-0.1,0.7-0.2,1.1-0.2l3.4-0.4l-0.2,2.2c0,0.2,0.5-0.5,0.4-0.3
							c-0.1,0.3-0.8,1.5-0.9,1.8l-0.3,0.6c-0.3,0.6-0.7,1.1-1.2,1.5v0c-0.4,0.4-0.8,0.7-1.3,0.9l-1,0.5l0.1-1.4l-1.2,0.3l0.4-1.3
							l-1.2,0.2l0.6-1.2l-1.2-0.1l0.7-1.1L51.5,52.8L51.5,52.8z"/>
					</g>
					<g>
						<path class="st3" d="M52.6,52.4c0.7-0.7,1.5-1.2,2.4-1.4c0.3-0.1,0.6-0.1,0.9-0.2l2.9-0.3l-0.2,1.9c0,0.2,0.5-0.7,0.5-0.7
							s-0.8,1.6-0.9,1.8L58,54.1c-0.3,0.5-0.6,0.9-1,1.3c-0.3,0.3-0.7,0.6-1.1,0.8l-0.8,0.4l0.1-1.2l-1,0.2l0.3-1.1l-1,0.1l0.5-1
							l-1-0.1l0.6-0.9L52.6,52.4L52.6,52.4z"/>
						
							<radialGradient id="SVGID_15_" cx="-2430.0461" cy="2599.8987" r="7.5056" gradientTransform="matrix(0.397 -1.720775e-03 1.816268e-03 0.419 1015.824 -1040.0294)" gradientUnits="userSpaceOnUse">
							<stop  offset="0" style="stop-color:#941B80"/>
							<stop  offset="1" style="stop-color:#662482"/>
						</radialGradient>
						<path class="st16" d="M52.8,52.4c0.6-0.7,1.5-1.1,2.4-1.4c0.3-0.1,0.6-0.1,0.9-0.2l2.8-0.3l-0.2,1.8c0,0.2,0.4-0.4,0.3-0.3
							c-0.1,0.2-0.6,1.2-0.8,1.5L58,54c-0.2,0.5-0.6,0.9-1,1.3v0c-0.3,0.3-0.7,0.5-1.1,0.7l-0.8,0.4l0.1-1.1l-1,0.2l0.3-1.1l-1,0.1
							l0.5-1l-1-0.1l0.6-0.9L52.8,52.4L52.8,52.4z"/>
					</g>
				</g>
				<g>
					<path class="st1" d="M53.6,52.1c0.6-0.6,1.3-1,2.1-1.2c0.3-0.1,0.5-0.1,0.8-0.2l2.5-0.3l-0.1,1.6c0,0.2,0.4-0.6,0.4-0.6
						s-0.7,1.4-0.7,1.5l-0.3,0.6c-0.2,0.4-0.5,0.8-0.8,1.1c-0.3,0.3-0.6,0.5-0.9,0.6l-0.7,0.4l0.1-1L55,54.9l0.3-0.9L54.4,54
						l0.4-0.8l-0.9-0.1l0.5-0.8L53.6,52.1L53.6,52.1z"/>
					
						<radialGradient id="SVGID_16_" cx="-2428.7769" cy="2598.8159" r="6.3537" gradientTransform="matrix(0.397 -1.720775e-03 1.816268e-03 0.419 1015.824 -1040.0294)" gradientUnits="userSpaceOnUse">
						<stop  offset="0" style="stop-color:#1A75BA"/>
						<stop  offset="1" style="stop-color:#65C6ED"/>
					</radialGradient>
					<path class="st17" d="M53.8,52.1c0.5-0.6,1.2-1,2-1.2c0.2-0.1,0.5-0.1,0.7-0.1l2.4-0.3L58.8,52c0,0.1,0.3-0.4,0.3-0.2
						C59,52,58.5,52.8,58.4,53l-0.2,0.4c-0.2,0.4-0.5,0.8-0.8,1.1v0c-0.3,0.2-0.6,0.5-0.9,0.6l-0.7,0.3l0.1-1l-0.8,0.2l0.3-0.9
						l-0.8,0.1l0.4-0.8L54.1,53l0.5-0.8L53.8,52.1L53.8,52.1z"/>
				</g>
				<g>
					<path class="st3" d="M54.8,51.8c0.4-0.5,1-0.8,1.5-1c0.2-0.1,0.4,0,0.6,0l1.8-0.4l-0.1,1.3c0,0.3,0.7-0.4,0.6-0.2L59,52.1
						c-0.2,0.3-1.2,1.4-1.4,1.7c-0.2,0.2-0.4,0.4-0.7,0.5l-0.5,0.3l0.1-0.8L55.8,54l0.2-0.8l-0.7,0.1l0.3-0.7l-0.7,0l0.4-0.6
						L54.8,51.8L54.8,51.8z"/>
					
						<radialGradient id="SVGID_17_" cx="-1956.2097" cy="1820.2521" r="4.6719" gradientTransform="matrix(0.4319 -1.872164e-03 1.975008e-03 0.4556 898.2234 -780.4772)" gradientUnits="userSpaceOnUse">
						<stop  offset="0" style="stop-color:#941B80"/>
						<stop  offset="1" style="stop-color:#662482"/>
					</radialGradient>
					<path class="st18" d="M54.9,51.7c0.4-0.5,0.9-0.8,1.5-1c0.2-0.1,0.4-0.1,0.6-0.1l1.8-0.2l-0.1,1.3c0,0.3,0.5,0.1,0.5,0.1
						l-0.2,0.5c-0.2,0.4-1.1,1.3-1.3,1.4l0,0c-0.2,0.2-0.7,0.5-0.9,0.7l-0.2,0.1l0.1-0.8l-0.6,0.1l0.2-0.7l-0.6,0.1l0.3-0.7l-0.6,0
						l0.4-0.6L54.9,51.7L54.9,51.7z"/>
					<path class="st19" d="M55.4,51.6c0.4-0.3,0.9-0.6,1.4-0.7c0.2,0,0.4,0,0.5,0l1.7-0.3l-0.1,1c0,0.2,0.5-0.4,0.5-0.4L59.2,52
						c-0.4,0.6-1,1-1.2,1.2c-0.2,0.2-0.4,0.3-0.6,0.4l-0.5,0.2l0.1-0.6l-0.6,0.1l0.2-0.6l-0.6,0.1l0.3-0.5l-0.6,0l0.4-0.5L55.4,51.6
						L55.4,51.6z"/>
					
						<radialGradient id="SVGID_18_" cx="-1269.0289" cy="1760.1635" r="3.609" gradientTransform="matrix(0.5135 -2.226202e-03 1.904776e-03 0.4394 705.7932 -724.0704)" gradientUnits="userSpaceOnUse">
						<stop  offset="0" style="stop-color:#1A75BA"/>
						<stop  offset="1" style="stop-color:#65C6ED"/>
					</radialGradient>
					<path class="st20" d="M55.5,51.6c0.4-0.3,0.9-0.6,1.4-0.7c0.2,0,0.3-0.1,0.5-0.1l1.6-0.2l-0.1,1c0,0.2,0.5-0.2,0.4,0
						c0,0-0.1,0.3-0.2,0.5c-0.2,0.3-0.9,0.9-1.1,1l0,0c-0.2,0.2-0.6,0.4-0.9,0.5l-0.2,0.1l0.1-0.6l-0.6,0.1l0.2-0.6L56,52.7l0.3-0.5
						l-0.6,0l0.4-0.5L55.5,51.6L55.5,51.6z"/>
					<g>
						<path class="st3" d="M55.9,50.7c0.4-0.4,1-0.6,1.5-0.8c0.2-0.1,0.4-0.1,0.6-0.1l1.8-0.3l-0.1,1.1c0,0.3-0.3,0.9-0.3,0.9
							c-0.2,0.5-0.5,0.8-0.8,1c-0.2,0.2-0.4,0.3-0.7,0.4l-0.5,0.3l0.1-0.7l-0.6,0.1l0.2-0.7l-0.7,0.1l0.3-0.6l-0.7,0l0.4-0.6
							L55.9,50.7L55.9,50.7z"/>
						
							<radialGradient id="SVGID_19_" cx="-818.2493" cy="1736.8822" r="3.3309" gradientTransform="matrix(0.572 -2.479456e-03 2.298417e-03 0.5302 521.9069 -871.5754)" gradientUnits="userSpaceOnUse">
							<stop  offset="0" style="stop-color:#941B80"/>
							<stop  offset="1" style="stop-color:#662482"/>
						</radialGradient>
						<path class="st21" d="M56,50.7c0.4-0.4,0.9-0.7,1.5-0.8v0c0.2,0,0.4-0.1,0.6-0.1l1.7-0.2l-0.1,1c0,0.3-0.1,0.7-0.3,1l0,0.1
							c-0.2,0.3-0.4,0.5-0.6,0.8c-0.2,0.2-0.4,0.3-0.7,0.4l-0.5,0.2l0.1-0.7L57,52.6l0.2-0.7L56.5,52l0.3-0.6l-0.6,0l0.4-0.5
							L56,50.7L56,50.7z"/>
					</g>
				</g>
				<g>
					<path class="st19" d="M56.5,50.6c0.4-0.3,0.8-0.5,1.3-0.7c0.2,0,0.3-0.1,0.5-0.1l1.5-0.2l-0.1,0.9c0,0.3-0.1,0.6-0.3,0.8
						l-0.1,0.1c-0.1,0.2-0.3,0.5-0.5,0.7c-0.2,0.2-0.4,0.3-0.6,0.4l-0.4,0.2l0-0.6l-0.5,0.1l0.2-0.6L57,51.7l0.3-0.5l-0.6,0l0.3-0.5
						L56.5,50.6L56.5,50.6z"/>
					
						<radialGradient id="SVGID_20_" cx="-533.7715" cy="1305.2456" r="2.5749" gradientTransform="matrix(0.6232 -2.701487e-03 2.513572e-03 0.5798 387.5693 -707.1912)" gradientUnits="userSpaceOnUse">
						<stop  offset="0" style="stop-color:#1A75BA"/>
						<stop  offset="1" style="stop-color:#65C6ED"/>
					</radialGradient>
					<path class="st22" d="M56.6,50.5c0.3-0.3,0.8-0.6,1.3-0.7v0c0.2,0,0.3-0.1,0.5-0.1l1.4-0.2l-0.1,0.9c0,0.3-0.1,0.6-0.3,0.8
						l0,0.1c-0.1,0.2-0.3,0.5-0.5,0.6c-0.2,0.1-0.4,0.3-0.6,0.4l-0.4,0.2l0-0.6l-0.5,0.1l0.2-0.5l-0.5,0.1l0.3-0.5l-0.5,0l0.3-0.5
						L56.6,50.5L56.6,50.5z"/>
				</g>
				<g>
					<path class="st3" d="M57.1,50.4c0.3-0.3,0.6-0.5,1-0.6c0.1,0,0.3-0.1,0.4-0.1l1.1-0.1l-0.1,0.9c0,0.2-0.1,0.4-0.2,0.6l0,0
						c-0.1,0.2-0.3,0.4-0.4,0.6c-0.1,0.1-0.3,0.2-0.5,0.3l-0.3,0.2l0-0.5l-0.4,0.1l0.1-0.5l-0.4,0.1l0.2-0.4l-0.4,0l0.3-0.4
						L57.1,50.4L57.1,50.4z"/>
					
						<radialGradient id="SVGID_21_" cx="-253.0406" cy="448.2855" r="1.774" gradientTransform="matrix(0.6816 -2.954633e-03 3.073490e-03 0.709 229.4732 -267.7032)" gradientUnits="userSpaceOnUse">
						<stop  offset="0" style="stop-color:#941B80"/>
						<stop  offset="1" style="stop-color:#662482"/>
					</radialGradient>
					<path class="st23" d="M57.2,50.4c0.3-0.3,0.6-0.5,1-0.6c0.1,0,0.2-0.1,0.4-0.1l1.1,0l-0.1,0.8c0,0.2-0.1,0.4-0.2,0.6l0,0
						c-0.1,0.2-0.2,0.4-0.4,0.5c-0.1,0.1-0.3,0.2-0.4,0.3l-0.3,0.2l0-0.5l-0.4,0.1l0.1-0.5l-0.4,0.1l0.2-0.4l-0.4,0l0.3-0.4
						L57.2,50.4L57.2,50.4z"/>
					<path class="st19" d="M57.5,50.2c0.3-0.2,0.6-0.4,0.9-0.5c0.1,0,0.2-0.1,0.3-0.1l0.9-0.1l0.1,0.2l-0.1,0.7
						c0,0.2-0.1,0.3-0.2,0.5c-0.1,0.2-0.2,0.3-0.3,0.4c-0.1,0.1-0.3,0.2-0.4,0.3l-0.3,0.2l0-0.4l-0.4,0.1l0.1-0.4l-0.4,0l0.2-0.4
						l-0.4,0l0.2-0.3L57.5,50.2L57.5,50.2z"/>
					
						<radialGradient id="SVGID_22_" cx="-174.1123" cy="447.9554" r="1.5404" gradientTransform="matrix(0.7243 -3.139782e-03 3.074415e-03 0.7092 183.4572 -267.6288)" gradientUnits="userSpaceOnUse">
						<stop  offset="0" style="stop-color:#1A75BA"/>
						<stop  offset="1" style="stop-color:#65C6ED"/>
					</radialGradient>
					<path class="st24" d="M57.6,50.2c0.2-0.2,0.5-0.5,0.9-0.6c0.1,0,0.2,0,0.3-0.1c0,0,0.8-0.1,1.1,0l-0.2,1c0,0.1,0,0.1-0.1,0.2
						l0,0c-0.1,0.2-0.2,0.3-0.4,0.4c-0.1,0.1-0.3,0.2-0.4,0.3l-0.3,0.1l0-0.4l-0.4,0.1l0.1-0.4l-0.4,0l0.2-0.3l-0.4,0l0.2-0.3
						L57.6,50.2L57.6,50.2z"/>
				</g>
				<g>
					<path class="st3" d="M57.8,50.2c0.2-0.2,0.5-0.4,0.8-0.4c0.1,0,0.2,0,0.3-0.1l0.8-0.1l0.1,0.2l-0.1,0.6c0,0.1-0.1,0.3-0.2,0.4
						c-0.1,0.1-0.2,0.2-0.3,0.3c-0.1,0.1-0.2,0.2-0.3,0.2l-0.3,0.1l0-0.4l-0.3,0.1l0.1-0.3l-0.3,0l0.2-0.3l-0.3,0l0.2-0.3L57.8,50.2
						L57.8,50.2z"/>
					
						<radialGradient id="SVGID_23_" cx="-96.7959" cy="404.0679" r="1.2336" gradientTransform="matrix(0.771 -3.342396e-03 3.317307e-03 0.7652 132.1674 -259.0653)" gradientUnits="userSpaceOnUse">
						<stop  offset="0" style="stop-color:#941B80"/>
						<stop  offset="1" style="stop-color:#662482"/>
					</radialGradient>
					<path class="st25" d="M57.9,50.1c0.2-0.2,0.5-0.4,0.8-0.5c0.1,0,0.2,0,0.3-0.1c0,0,0.7-0.1,0.9,0l-0.2,0.9c0,0.1,0,0.1-0.1,0.2
						l0,0c-0.1,0.1-0.2,0.3-0.3,0.4c-0.1,0.1-0.2,0.2-0.3,0.2l-0.3,0.1l0-0.3l-0.3,0.1l0.1-0.3l-0.3,0l0.2-0.3l-0.3,0l0.2-0.3
						L57.9,50.1L57.9,50.1z"/>
					<g>
						<path class="st19" d="M58.1,50.1c0.2-0.2,0.4-0.3,0.7-0.4c0.1,0,0.2,0,0.2,0l0.7,0l-0.1,0.5c0,0.1-0.1,0.3-0.1,0.4l0,0
							c-0.1,0.1-0.2,0.2-0.3,0.3c-0.1,0.1-0.2,0.1-0.3,0.2l-0.2,0.1l0-0.3l-0.3,0.1l0.1-0.3l-0.3,0l0.1-0.3l-0.3,0l0.2-0.2
							L58.1,50.1L58.1,50.1z"/>
						
							<radialGradient id="SVGID_24_" cx="-14.7895" cy="359.4957" r="0.949" gradientTransform="matrix(0.8279 -3.589144e-03 3.607057e-03 0.8321 69.9109 -248.8475)" gradientUnits="userSpaceOnUse">
							<stop  offset="0" style="stop-color:#1A75BA"/>
							<stop  offset="1" style="stop-color:#65C6ED"/>
						</radialGradient>
						<path class="st26" d="M58.2,50c0.2-0.2,0.4-0.3,0.6-0.4c0.1,0,0.2,0,0.2,0l0.7-0.1l0,0.4c0,0.1-0.1,0.4-0.1,0.5l0,0
							c-0.1,0.1-0.2,0.2-0.3,0.3C59.2,50.9,59.1,51,59,51l-0.2,0.1l0-0.3l-0.3,0.1l0.1-0.3l-0.3,0l0.1-0.3l-0.3,0l0.2-0.2L58.2,50
							L58.2,50z"/>
						<g>
							<path class="st3" d="M58.4,50c0.1-0.1,0.3-0.3,0.5-0.3c0.1,0,0.1,0,0.2,0l0.6,0l0.1,0l-0.3,0.6c0,0.1-0.1,0.2-0.2,0.3
								c0,0-0.1,0.1-0.1,0.1c-0.1,0.1-0.2,0.1-0.2,0.2L59,50.9l0-0.3l-0.2,0l0.1-0.2l-0.2,0l0.1-0.2l-0.2,0l0.1-0.2L58.4,50L58.4,50
								z"/>
							
								<radialGradient id="SVGID_25_" cx="176.0739" cy="274.0312" r="0.7216" gradientTransform="matrix(1 -4.334948e-03 4.334948e-03 1 -118.0741 -223.0334)" gradientUnits="userSpaceOnUse">
								<stop  offset="0" style="stop-color:#941B80"/>
								<stop  offset="1" style="stop-color:#662482"/>
							</radialGradient>
							<path class="st27" d="M58.5,50c0.1-0.1,0.3-0.2,0.5-0.3c0.1,0,0.1,0,0.2,0l0.8-0.1l-0.3,0.7c0,0.1-0.1,0.2-0.1,0.2
								c0,0-0.1,0.1-0.1,0.1c-0.1,0.1-0.1,0.1-0.2,0.2L59,50.9l0-0.2l-0.2,0l0.1-0.2l-0.2,0l0.1-0.2l-0.2,0l0.1-0.2L58.5,50L58.5,50
								z"/>
						</g>
					</g>
				</g>
			</g>
		</g>
		<path class="st19" d="M58.7,50c0.1-0.1,0.3-0.2,0.4-0.3c0.1,0,0.1,0,0.2,0l0.5,0l0,0.3c0,0.1,0,0.2-0.1,0.2l0,0
			c0,0.1-0.1,0.2-0.2,0.2c-0.1,0.1-0.1,0.1-0.2,0.1l-0.1,0.1l0-0.2l-0.2,0l0.1-0.2l-0.2,0l0.1-0.2l-0.2,0l0.1-0.2L58.7,50L58.7,50z"
			/>
		
			<radialGradient id="SVGID_26_" cx="176.1415" cy="273.961" r="0.5192" gradientTransform="matrix(1 -4.334948e-03 4.334948e-03 1 -118.0741 -223.0334)" gradientUnits="userSpaceOnUse">
			<stop  offset="0" style="stop-color:#1A75BA"/>
			<stop  offset="1" style="stop-color:#65C6ED"/>
		</radialGradient>
		<path class="st28" d="M58.7,50c0.1-0.1,0.3-0.2,0.4-0.2c0.1,0,0.1,0,0.2,0l0.5-0.1l0,0.3c0,0.1-0.1,0.3-0.1,0.3l0,0
			c0,0.1-0.1,0.2-0.2,0.2c-0.1,0.1-0.1,0.1-0.2,0.1l-0.1,0.1l0-0.2l-0.2,0l0.1-0.2l-0.2,0l0.1-0.2l-0.2,0l0.1-0.2L58.7,50L58.7,50z"
			/>
	</g>
	<g>
		
			<radialGradient id="SVGID_27_" cx="-60.4612" cy="203.0688" r="33.646" gradientTransform="matrix(0.8325 -3.609079e-03 3.726091e-03 0.8595 79.2961 -147.7706)" gradientUnits="userSpaceOnUse">
			<stop  offset="0" style="stop-color:#941B80"/>
			<stop  offset="1" style="stop-color:#662482"/>
		</radialGradient>
		<path class="st29" d="M59.5,48.9l-0.7-4.3c-0.1-1-0.4-1.9-0.6-2.8c-2.2-7.2-6.3-13.6-11.8-18.5l-4-3.6c-7.4-6.6-15.4-11.1-24.5-15
			l-0.5-0.2C12.8,2.6,8,1.2,3.1,0.5L0,0l7.4,13.2L0,12.3l8,11.8l-6.4,0l8.6,11.1l-4.5,0.1l8.7,9.6L10.6,45l0,0
			c2.8,2.5,6.1,4.4,9.6,5.6l3.3,1.1c9.3,3.1,19.4,3.2,28.7-0.1c1.9-0.7,3.6-1.4,5-2.3L59.5,48.9z"/>
		<path class="st1" d="M59.4,48.5l-1.2-6c-1.8-6.4-4.8-12.1-9.9-16.4l-3.5-3c-6.4-5.5-13.2-9.1-21-12.3l-0.4-0.2
			c-3.9-1.6-8-2.7-12.2-3.3L8.5,7l6.3,10.8l-6.4-0.7l6.9,9.7l-5.5,0l7.4,9.2l-3.9,0l7.5,7.9L17.6,44l3.6,3.1
			c2.6,2.3,5.6,4.1,8.9,5.3c2.4,0.8,5,1.3,7.6,1.4l0.3,0c6.8,0.3,13.6-1.5,19.4-5L59.4,48.5z"/>
		
			<radialGradient id="SVGID_28_" cx="-1.7543" cy="78.3735" r="27.8235" gradientTransform="matrix(0.8301 -3.598633e-03 3.758532e-03 0.867 36.068 -36.7351)" gradientUnits="userSpaceOnUse">
			<stop  offset="0" style="stop-color:#1A75BA"/>
			<stop  offset="1" style="stop-color:#65C6ED"/>
		</radialGradient>
		<path class="st30" d="M59.4,48.5L58.7,45c-0.4-2.2-1.1-4.3-1.9-6.4c-1.8-4.4-4.4-8.2-8-11.4l-3.3-2.9c-6.2-5.3-12.7-8.8-20.2-11.9
			l-0.4-0.2C21,10.7,17,9.7,13,9.1l-2.6-0.4l6.1,10.4l-6.1-0.7l6.6,9.3l-5.3,0l7.1,8.8l-3.7,0l7.2,7.6l-3.1,0.1l3.5,3
			c2.5,2.2,5.4,4,8.6,5.1c2.4,0.8,4.8,1.3,7.4,1.4l0.3,0c6.6,0.3,13.1-1.4,18.7-4.8L59.4,48.5z"/>
		<path class="st3" d="M59.4,48.9l-1-5.3C56.8,38,54.1,33,49.7,29.2l-3-2.6c-5.6-4.8-11.5-8-18.4-10.8l-0.4-0.2
			c-3.4-1.4-7-2.4-10.7-2.9l-2.3-0.3l5.6,9.5l-5.6-0.6l6,8.5l-4.8,0l6.4,8.1l-3.4,0l6.6,6.9l-2.9,0.1l3.2,2.8c2.3,2,4.9,3.6,7.8,4.6
			c2.1,0.7,4.4,1.1,6.7,1.2l0.2,0c6,0.2,11.9-1.3,17-4.4L59.4,48.9z"/>
		
			<radialGradient id="SVGID_29_" cx="1.9245" cy="78.5904" r="24.3457" gradientTransform="matrix(0.8301 -3.598633e-03 3.781075e-03 0.8722 36.0762 -34.8519)" gradientUnits="userSpaceOnUse">
			<stop  offset="0" style="stop-color:#941B80"/>
			<stop  offset="1" style="stop-color:#662482"/>
		</radialGradient>
		<path class="st31" d="M59.4,48.9l-0.6-3.1c-0.4-1.9-0.9-3.8-1.7-5.7c-1.6-3.8-3.8-7.3-7-10l-2.9-2.5C41.8,23,36,19.9,29.4,17.2
			L29.1,17c-3.3-1.4-6.8-2.3-10.3-2.8l-2.2-0.3l5.3,9.2l-5.4-0.6l5.8,8.2l-4.6,0l6.2,7.8l-3.3,0l6.3,6.7l-2.7,0.1l3.1,2.7
			c2.2,1.9,4.7,3.5,7.5,4.5c2.1,0.7,4.2,1.1,6.4,1.2l0.2,0c5.8,0.2,11.5-1.2,16.4-4.3L59.4,48.9z"/>
		<path class="st1" d="M59.4,48.2l0.1-1.2c0,0,0.3,2-0.8-2.7s-3.9-9.4-7.8-12.8l-2.7-2.3C43.2,24.9,38,22.1,32,19.6l-0.3-0.1
			c-3-1.3-6.1-2.1-9.3-2.6l-2-0.3l4.9,8.5l-4.9-0.6l5.3,7.6l-4.2,0l5.6,7.2l-3,0l5.7,6.2l-2.5,0.1l2.8,2.5c2,1.8,4.3,3.2,6.8,4.1
			c1.9,0.6,3.8,1,5.8,1.1l0.2,0c5.2,0.2,10.4-1.1,14.9-3.9L59.4,48.2z"/>
		
			<radialGradient id="SVGID_30_" cx="254.3337" cy="-362.6637" r="19.5032" gradientTransform="matrix(0.9131 -3.958261e-03 4.232812e-03 0.9764 -189.8917 390.6652)" gradientUnits="userSpaceOnUse">
			<stop  offset="0" style="stop-color:#1A75BA"/>
			<stop  offset="1" style="stop-color:#65C6ED"/>
		</radialGradient>
		<path class="st32" d="M59.8,48.3l-1.1-3.5c-1.3-4.8-3.8-9.2-7.6-12.5l-2.6-2.2c-4.7-4.1-9.7-6.9-15.5-9.3l-0.3-0.1
			c-2.9-1.2-5.9-2-9-2.5l-2-0.3l4.7,8.2l-4.7-0.5l5.1,7.3l-4.1,0l5.4,6.9l-2.9,0l5.5,6l-2.4,0.1l2.7,2.4c1.9,1.7,4.2,3.1,6.6,4
			c1.8,0.6,3.7,1,5.6,1.1l0.2,0c5,0.2,10-1.1,14.3-3.8L59.8,48.3z"/>
		<path class="st3" d="M59.2,48.5l0.1-1.1c0,0,0.3,1.8-0.7-2.4s-3.5-8.5-6.9-11.6l-2.3-2.1c-4.3-3.9-8.9-6.5-14.2-8.7l-0.3-0.1
			c-2.6-1.1-5.4-1.9-8.2-2.4l-1.8-0.3l4.3,7.7L24.8,27l4.7,6.9l-3.7,0l5,6.5l-2.6,0l5.1,5.6L31,46l2.5,2.2c1.8,1.6,3.8,2.9,6,3.7
			c1.7,0.6,3.4,0.9,5.1,1l0.2,0c4.6,0.2,9.2-1,13.1-3.5L59.2,48.5z"/>
		
			<radialGradient id="SVGID_31_" cx="-134.9856" cy="87.0606" r="19.7693" gradientTransform="matrix(0.7943 -3.443306e-03 3.771799e-03 0.8701 149.7819 -39.2085)" gradientUnits="userSpaceOnUse">
			<stop  offset="0" style="stop-color:#941B80"/>
			<stop  offset="1" style="stop-color:#662482"/>
		</radialGradient>
		<path class="st33" d="M59.6,48.6l-1-3.2c-1.2-4.4-3.4-8.3-6.7-11.3l-2.3-2c-4.2-3.7-8.6-6.2-13.7-8.4l-0.3-0.1
			c-2.5-1.1-5.2-1.9-7.9-2.3l-1.7-0.3l4.1,7.4L26.1,28l4.5,6.6l-3.6,0l4.8,6.2l-2.5,0l4.9,5.4l-2.1,0.1l2.4,2.1
			c1.7,1.6,3.7,2.8,5.8,3.6c1.6,0.6,3.3,0.9,5,1l0.2,0c4.4,0.2,8.8-1,12.6-3.4L59.6,48.6z"/>
		<path class="st1" d="M59.4,48.6l0.1-0.9c0,0,0.2,1.6-0.7-2.1c-0.9-3.7-3.1-7.5-6.2-10.2l-2.1-1.9c-3.8-3.4-7.9-5.7-12.6-7.7
			l-0.3-0.1c-2.4-1-4.8-1.7-7.3-2.1l-1.6-0.2l3.8,6.8l-3.8-0.4l4.1,6.1l-3.3,0l4.4,5.7l-2.3,0l4.5,4.9l-2,0l2.2,2
			c1.6,1.4,3.4,2.6,5.4,3.3c1.5,0.5,3,0.8,4.6,0.9l0.2,0c4.1,0.2,8.2-0.9,11.7-3.1L59.4,48.6z"/>
		
			<radialGradient id="SVGID_32_" cx="-143.3171" cy="99.1419" r="17.7174" gradientTransform="matrix(0.7895 -3.422614e-03 3.720606e-03 0.8583 157.6068 -47.0996)" gradientUnits="userSpaceOnUse">
			<stop  offset="0" style="stop-color:#1A75BA"/>
			<stop  offset="1" style="stop-color:#65C6ED"/>
		</radialGradient>
		<path class="st34" d="M59.8,48.7l-0.9-2.8c-1-3.9-3-7.3-6-9.9l-2-1.8c-3.7-3.3-7.6-5.5-12.2-7.4l-0.2-0.1c-2.3-1-4.6-1.6-7.1-2
			l-1.5-0.2l3.7,6.5l-3.7-0.4l4,5.8l-3.2,0l4.3,5.5l-2.2,0l4.3,4.8l-1.9,0l2.1,1.9c1.5,1.4,3.3,2.5,5.2,3.2c1.4,0.5,2.9,0.8,4.4,0.9
			l0.2,0c4,0.2,7.9-0.9,11.3-3L59.8,48.7z"/>
		<path class="st3" d="M59.5,48.4l-0.7-2c-0.9-3.5-2.6-6.7-5.3-9.1l-1.8-1.6c-3.3-3-6.8-5-10.9-6.8l-0.2-0.1c-2-0.9-4.1-1.5-6.3-1.8
			l-1.4-0.2l3.3,6l-3.3-0.4l3.6,5.4l-2.9,0l3.8,5.1l-2,0l3.9,4.4l-1.7,0l1.9,1.7c1.4,1.3,2.9,2.3,4.6,2.9c1.3,0.5,2.6,0.7,3.9,0.8
			l0.1,0c3.2,0.1,6.5-0.7,9.3-2.3c0.5-0.3,0.9-0.6,1.3-1.1L59.5,48.4z"/>
		
			<radialGradient id="SVGID_33_" cx="95.1405" cy="-294.4718" r="14.2208" gradientTransform="matrix(0.845 -3.663200e-03 4.092070e-03 0.944 -32.4667 318.3719)" gradientUnits="userSpaceOnUse">
			<stop  offset="0" style="stop-color:#941B80"/>
			<stop  offset="1" style="stop-color:#662482"/>
		</radialGradient>
		<path class="st35" d="M59.5,48.5l-0.7-1.9c-0.9-3.4-2.5-6.5-5.1-8.8L52,36.2c-3.2-2.9-6.6-4.9-10.5-6.6l-0.2-0.1
			c-2-0.9-4-1.4-6.1-1.8l-1.3-0.2l3.2,5.8L33.9,33l3.4,5.2l-2.7,0l3.7,4.9l-1.9,0l3.7,4.2l-1.6,0l1.8,1.7c1.3,1.2,2.8,2.2,4.5,2.8
			c1.2,0.4,2.5,0.7,3.8,0.8l0.1,0c2.6,0.1,5.1-0.4,7.5-1.5C57.4,50.5,58.6,49.6,59.5,48.5L59.5,48.5z"/>
		<g>
			<g>
				<g>
					<path class="st1" d="M59.7,48.5l-0.6-1.7c-0.8-3.1-2.3-5.9-4.6-8L53,37.4c-2.9-2.6-5.9-4.4-9.4-6l-0.2-0.1
						c-1.7-0.8-3.6-1.3-5.4-1.6l-1.2-0.2l2.8,5.2l-2.8-0.3l3.1,4.7l-2.5,0l3.3,4.4l-1.7,0l3.4,3.8l-1.5,0l1.6,1.5
						c1.2,1.1,2.5,2,4,2.5c1.1,0.4,2.2,0.6,3.4,0.7l0.1,0c2.8,0.1,5.6-0.6,8-2c0.4-0.2,0.8-0.5,1.1-0.9L59.7,48.5z"/>
					
						<radialGradient id="SVGID_34_" cx="81.4436" cy="-289.0967" r="12.4529" gradientTransform="matrix(0.8331 -3.611513e-03 4.084242e-03 0.9422 -18.0215 313.9171)" gradientUnits="userSpaceOnUse">
						<stop  offset="0" style="stop-color:#1A75BA"/>
						<stop  offset="1" style="stop-color:#65C6ED"/>
					</radialGradient>
					<path class="st36" d="M59.7,48.6L59.1,47c-0.8-3-2.2-5.7-4.4-7.7l-1.5-1.4c-2.8-2.5-5.7-4.2-9-5.7L44,32.1
						c-1.7-0.7-3.4-1.3-5.2-1.6l-1.1-0.2l2.7,5.1l-2.7-0.3l3,4.5l-2.4,0l3.2,4.3l-1.7,0l3.2,3.7l-1.4,0l1.6,1.5
						c1.1,1.1,2.4,1.9,3.9,2.4c1.1,0.4,2.2,0.6,3.3,0.7l0.1,0c2.2,0.1,4.4-0.3,6.5-1.3C57.9,50.4,58.9,49.6,59.7,48.6L59.7,48.6z"/>
					<path class="st3" d="M42.2,36.6l-2.5-4.6l1,0.2c1.6,0.3,3.2,0.7,4.8,1.4l0.2,0.1c3.1,1.4,5.7,2.9,8.2,5.3l1.4,1.3
						c0.8,0.8,1.6,1.7,2.2,2.6c0.6,1,1.1,2.2,1.4,3.3c0,0.1,0,0.4,0.1,0.5l0.8,2.1l0.1,0l-1.7,1.5c-0.1,0-0.1,0.1-0.2,0.1
						c-2,1.1-4.3,1.7-6.6,1.6l-0.1,0c-1,0-2-0.3-3-0.6c-1.3-0.5-2.5-1.3-3.5-2.2l-1.4-1.3l1.3,0l-2.9-3.4l1.5,0l-2.9-3.9l2.2,0
						l-2.7-4.1L42.2,36.6z"/>
					
						<radialGradient id="SVGID_35_" cx="414.2524" cy="-664.4265" r="9.5855" gradientTransform="matrix(0.9598 -4.160936e-03 4.620928e-03 1.066 -344.442 752.2714)" gradientUnits="userSpaceOnUse">
						<stop  offset="0" style="stop-color:#941B80"/>
						<stop  offset="1" style="stop-color:#662482"/>
					</radialGradient>
					<path class="st37" d="M42.8,37.1l-2.4-4.5l1,0.2c1.6,0.3,3.1,0.7,4.6,1.4l0.2,0.1c2.9,1.3,5.5,2.8,7.9,5.1l1.3,1.2
						c0.8,0.8,1.5,1.6,2.1,2.5c0.7,1,1.2,2.2,1.5,3.4l0,0l0.7,1.9l0.2,0.4l-1.7,1.4c-0.4,0.3-0.9,0.5-1.4,0.8
						c-1.6,0.7-3.4,1-5.1,0.9l-0.1,0c-1,0-1.9-0.2-2.9-0.6c-1.2-0.5-2.4-1.2-3.4-2.2l-1.4-1.3l1.2,0l-2.8-3.2l1.5,0l-2.8-3.8l2.1,0
						l-2.6-4L42.8,37.1z"/>
					<path class="st1" d="M59.8,48.9c0,0-0.7-1.3-1.1-3.5c-0.8-2.2-1.7-3.2-2.9-4.3L54.5,40c-2.2-2.1-4.5-3.5-7.2-4.7l-0.1-0.1
						c-1.3-0.6-2.7-1-4.2-1.3l-0.9-0.1l2.2,4.1l-2.2-0.3l2.4,3.7l-1.9,0l2.5,3.5l-1.3,0l2.6,3l-1.1,0l1.2,1.2c0.9,0.9,1.9,1.6,3.1,2
						c0.8,0.3,1.7,0.5,2.6,0.5l0.1,0c2.3,0.1,4.6-0.6,6.6-2L59.8,48.9z"/>
					
						<radialGradient id="SVGID_36_" cx="658.0034" cy="-1007.2595" r="7.3207" gradientTransform="matrix(1.0994 -4.765822e-03 5.408910e-03 1.2477 -666.7034 1302.9935)" gradientUnits="userSpaceOnUse">
						<stop  offset="0" style="stop-color:#1A75BA"/>
						<stop  offset="1" style="stop-color:#65C6ED"/>
					</radialGradient>
					<path class="st38" d="M44.9,38.4l-2.1-4l0.9,0.1c1.4,0.2,2.7,0.6,4,1.2l0.1,0.1c2.6,1.2,4.8,2.5,6.9,4.5l1.1,1.1
						c0.9,0.9,1.7,1.9,2.3,3c0.2,0.4,0.4,0.9,0.5,1.4l0,0l0.9,2.8l0.1,0.5l-1,0.7c-1.8,1.2-3.9,1.9-6,1.8c-0.1,0-0.2,0-0.2,0l-0.1,0
						c-0.9,0-1.7-0.2-2.5-0.5c-1.1-0.4-2.1-1.1-2.9-1.9l-1.2-1.2l1.1,0l-2.5-2.9l1.3,0l-2.4-3.4l1.8,0l-2.3-3.6L44.9,38.4z"/>
					<path class="st3" d="M59.8,49.1c0,0-0.6-1.1-1-3c-0.7-1.9-1.5-2.8-2.5-3.7l-1-1c-1.9-1.8-3.9-3-6.3-4.1l-0.1-0.1
						c-1.2-0.5-2.4-0.9-3.6-1.1L44.5,36l1.9,3.6l-1.9-0.2l2.1,3.2l-1.6,0l2.2,3l-1.2,0l2.2,2.6l-1,0l1.1,1c0.8,0.8,1.7,1.4,2.7,1.7
						c0.7,0.3,1.5,0.4,2.3,0.5l0.1,0c2,0.1,4-0.5,5.7-1.7L59.8,49.1z"/>
					
						<radialGradient id="SVGID_37_" cx="340.5106" cy="-643.1934" r="7.2578" gradientTransform="matrix(0.9661 -4.188027e-03 4.722254e-03 1.0893 -273.5043 746.0956)" gradientUnits="userSpaceOnUse">
						<stop  offset="0" style="stop-color:#941B80"/>
						<stop  offset="1" style="stop-color:#662482"/>
					</radialGradient>
					<path class="st39" d="M46.9,40L45,36.6l0.8,0.1c1.2,0.2,2.4,0.6,3.5,1.1l0.1,0.1c2.2,1,4.2,2.2,6,3.9l1,0.9
						c0.8,0.7,1.5,1.6,2,2.6c0.2,0.4,0.4,0.8,0.5,1.2l0,0l0.8,2.4l0.1,0.4l-0.9,0.6c-1.6,1.1-3.4,1.6-5.2,1.6c-0.1,0-0.1,0-0.2,0
						l-0.1,0c-0.7,0-1.5-0.2-2.2-0.4c-1-0.4-1.8-0.9-2.6-1.7l-1-1l0.9,0l-2.2-2.5l1.1,0l-2.1-2.9l1.6,0l-2-3.1L46.9,40z"/>
					<path class="st1" d="M59.7,49.1c0,0-0.5-0.9-0.8-2.6c-0.6-1.6-1.3-2.3-2.1-3.2l-0.9-0.8c-1.6-1.5-3.3-2.6-5.3-3.5l-0.1,0
						c-1-0.4-2-0.8-3.1-0.9L46.7,38l1.6,3l-1.6-0.2l1.7,2.7l-1.4,0l1.9,2.6l-1,0l1.9,2.2l-0.8,0l0.9,0.9c0.7,0.6,1.4,1.2,2.3,1.5
						c0.6,0.2,1.3,0.4,1.9,0.4l0.1,0c1.7,0.1,3.4-0.5,4.8-1.4L59.7,49.1z"/>
					
						<radialGradient id="SVGID_38_" cx="-137.9519" cy="-120.3002" r="7.3277" gradientTransform="matrix(0.8088 -3.506145e-03 3.969038e-03 0.9156 165.5008 154.4715)" gradientUnits="userSpaceOnUse">
						<stop  offset="0" style="stop-color:#1A75BA"/>
						<stop  offset="1" style="stop-color:#65C6ED"/>
					</radialGradient>
					<path class="st40" d="M48.7,41.4l-1.5-2.9l0.6,0.1c1,0.2,2,0.5,3,0.9l0.1,0c1.9,0.9,3.5,1.8,5.1,3.3l0.8,0.8
						c0.7,0.6,1.2,1.4,1.7,2.2c0.2,0.3,0.3,0.7,0.4,1l0,0l0.7,2l0.1,0.4l-0.8,0.5c-1.3,0.9-2.8,1.4-4.4,1.3c-0.1,0-0.1,0-0.2,0
						l-0.1,0c-0.6,0-1.3-0.2-1.9-0.4c-0.8-0.3-1.5-0.8-2.2-1.4l-0.9-0.8l0.8,0l-1.8-2.1l0.9,0l-1.8-2.5l1.3,0l-1.7-2.6L48.7,41.4z"
						/>
				</g>
				<g>
					<path class="st3" d="M59.7,49.3l-0.7-1.2c0,0-0.3-1.1-0.5-1.8c-0.3-0.7-0.9-1.6-1.4-2l-0.8-0.7c-1.4-1.3-2.9-2.1-4.7-2.9
						l-0.1,0c-0.9-0.4-1.8-0.6-2.7-0.8l-0.6-0.1l1.4,2.5l-1.4-0.2l1.5,2.3l-1.2,0l1.6,2.1l-0.9,0l1.7,1.8l-0.7,0l0.8,0.7
						c0.6,0.5,1.2,1,2,1.2c0.5,0.2,1.1,0.3,1.7,0.3l0.1,0c1.5,0.1,3-0.3,4.3-1.2L59.7,49.3z"/>
					
						<radialGradient id="SVGID_39_" cx="185.5676" cy="-380.7908" r="5.475" gradientTransform="matrix(0.9293 -4.028407e-03 4.551492e-03 1.0499 -116.4831 446.0205)" gradientUnits="userSpaceOnUse">
						<stop  offset="0" style="stop-color:#941B80"/>
						<stop  offset="1" style="stop-color:#662482"/>
					</radialGradient>
					<path class="st41" d="M59.7,49.3l-0.5-0.9c-0.3-0.9-0.9-2.9-2-3.9l-0.7-0.7c-1.4-1.2-2.8-2-4.5-2.8l-0.1,0
						c-0.8-0.4-1.7-0.6-2.6-0.7l-0.6-0.1l1.4,2.4l-1.4-0.2l1.5,2.2l-1.2,0l1.6,2.1l-0.8,0l1.6,1.8l-0.7,0l0.8,0.7
						c0.6,0.5,1.2,0.9,1.9,1.2c0.5,0.2,1.1,0.3,1.6,0.3l0.1,0c1.5,0.1,2.9-0.3,4.1-1.1L59.7,49.3z"/>
					<path class="st1" d="M51.8,48.9l0.7,0l-1.5-1.6l0.8,0l-1.5-1.9l1.1,0l-1.4-2l1.3,0.1l-1.3-2.2l0.5,0.1c0.9,0.1,1.7,0.4,2.5,0.7
						l0.1,0c1.6,0.7,3,1.4,4.3,2.5l0,0c0.5,0.4,0.8,1,1.1,1.6l1.1,3.1l-1.8,1c0,0-1.1,0.2-1.8,0.2c-0.9,0-1.7-0.1-2.6-0.4
						c-0.3-0.1-0.7-0.3-0.8-0.4L51.8,48.9z"/>
					<g>
						
							<radialGradient id="SVGID_40_" cx="456.274" cy="-581.2633" r="4.1132" gradientTransform="matrix(1.0679 -4.629191e-03 4.984058e-03 1.1497 -429.3792 716.4213)" gradientUnits="userSpaceOnUse">
							<stop  offset="0" style="stop-color:#1A75BA"/>
							<stop  offset="1" style="stop-color:#65C6ED"/>
						</radialGradient>
						<path class="st42" d="M52.1,49l0.6,0l-1.5-1.6l0.8,0l-1.4-1.8l1.1,0l-1.4-1.9l1.3,0.1l-1.2-2.2l0.5,0.1
							c0.8,0.1,1.6,0.3,2.4,0.7l0.1,0c1.5,0.6,2.9,1.4,4.1,2.4l0,0c0.4,0.4,0.8,0.9,1,1.5l1.2,3.2l-1.6,0.6
							c-0.2,0.1-0.4,0.1-0.7,0.2c-0.4,0.1-0.9,0.2-1.3,0.2c-0.8,0-1.7-0.1-2.5-0.4c-0.3-0.1-0.6-0.3-0.8-0.4L52.1,49z"/>
					</g>
					<path class="st3" d="M52.9,48.6l0.5,0l-1.2-1.3l0.6,0l-1.2-1.6l0.9,0l-1.1-1.6l1.1,0.1l-1.1-1.8l0.4,0.1c0.7,0.1,1.4,0.3,2,0.6
						l0.1,0c1.3,0.5,2.4,1.2,3.5,2.1h0c0.4,0.3,0.7,0.8,0.9,1.3l0.9,2.5l-1.4,0.8c0,0-0.9,0.2-1.4,0.2c-0.7,0-1.4-0.1-2.1-0.4
						c-0.3-0.1-0.5-0.2-0.7-0.4L52.9,48.6z"/>
					<g>
						
							<radialGradient id="SVGID_41_" cx="43.948" cy="-87.311" r="3.9787" gradientTransform="matrix(0.8935 -3.873446e-03 4.236669e-03 0.9773 16.571 131.7513)" gradientUnits="userSpaceOnUse">
							<stop  offset="0" style="stop-color:#941B80"/>
							<stop  offset="1" style="stop-color:#662482"/>
						</radialGradient>
						<path class="st43" d="M53.1,48.7l0.5,0l-1.2-1.3l0.6,0l-1.2-1.5l0.9,0l-1.1-1.6l1,0.1l-1-1.8l0.4,0.1c0.7,0.1,1.3,0.3,1.9,0.5
							l0.1,0c1.2,0.5,2.3,1.1,3.3,2h0c0.4,0.3,0.6,0.7,0.8,1.2l1,2.9l-1.5,0.3c0,0-0.9,0.2-1.4,0.2c-0.7,0-1.4-0.1-2-0.3
							c-0.3-0.1-0.5-0.2-0.7-0.4L53.1,48.7z"/>
					</g>
					<path class="st1" d="M54,48.9l0.5,0l-1.1-1.2l0.6,0l-1-1.4l0.8,0l-1-1.4l0.9,0.1l-0.9-1.6l0.4,0.1c0.6,0.1,1.2,0.3,1.7,0.5
						l0.1,0c1.1,0.5,2.1,1,3,1.8l0,0c0.3,0.3,0.6,0.7,0.7,1.1l0.7,2.3l-1.2,0.7c0,0-0.8,0.2-1.2,0.2c-0.6,0-1.2-0.1-1.8-0.3
						c-0.2-0.1-0.5-0.2-0.6-0.3L54,48.9z"/>
					<g>
						
							<radialGradient id="SVGID_42_" cx="-43.8402" cy="-189.3126" r="3.9545" gradientTransform="matrix(0.7731 -3.351576e-03 3.732015e-03 0.8609 90.8469 209.6555)" gradientUnits="userSpaceOnUse">
							<stop  offset="0" style="stop-color:#1A75BA"/>
							<stop  offset="1" style="stop-color:#65C6ED"/>
						</radialGradient>
						<path class="st44" d="M54.2,48.9l0.4,0l-1-1.1l0.5,0l-1-1.3l0.8,0L53,45.1l0.9,0.1L53,43.7l0.4,0.1c0.6,0.1,1.1,0.2,1.7,0.5
							l0.1,0c1.1,0.5,2,1,2.9,1.8l0,0c0.3,0.3,0.6,0.6,0.7,1.1l0.8,2.5l-1.3,0.3c0,0-0.7,0.2-1.2,0.2c-0.6,0-1.2-0.1-1.7-0.3
							c-0.2-0.1-0.4-0.2-0.6-0.3L54.2,48.9z"/>
					</g>
					<path class="st3" d="M54.9,49l0.4,0l-0.9-1l0.5,0l-0.9-1.2l0.7,0l-0.8-1.2l0.8,0.1l-0.8-1.4l0.3,0.1c0.5,0.1,1,0.2,1.5,0.4
						l0.1,0c1,0.4,1.8,0.9,2.6,1.6v0c0.3,0.2,0.5,0.6,0.6,0.9l0.6,1.9l-1,0.6c0,0-0.7,0.1-1.1,0.2c-0.5,0-1-0.1-1.5-0.3
						c-0.2-0.1-0.4-0.2-0.5-0.3L54.9,49z"/>
					<g>
						
							<radialGradient id="SVGID_43_" cx="-43.1405" cy="-188.8677" r="3.4009" gradientTransform="matrix(0.7731 -3.351576e-03 3.732015e-03 0.8609 90.8469 209.6555)" gradientUnits="userSpaceOnUse">
							<stop  offset="0" style="stop-color:#941B80"/>
							<stop  offset="1" style="stop-color:#662482"/>
						</radialGradient>
						<path class="st45" d="M55.1,49l0.4,0l-0.9-1l0.5,0l-0.9-1.1l0.6,0L54,45.7l0.7,0.1L54,44.5l0.3,0c0.5,0.1,1,0.2,1.4,0.4l0.1,0
							c0.9,0.4,1.7,0.8,2.5,1.5l0,0c0.3,0.2,0.5,0.6,0.6,0.9l0.7,2.2l-1.1,0.2c0,0-0.6,0.1-1,0.1c-0.5,0-1-0.1-1.5-0.3
							c-0.2-0.1-0.4-0.2-0.5-0.3L55.1,49z"/>
					</g>
					<path class="st1" d="M55.3,47l-0.7-1l0.6,0.1L54.6,45l0.3,0c0.4,0.1,0.8,0.2,1.2,0.3l0,0c0.8,0.3,1.5,0.7,2.1,1.3l0.1,0.1
						c0.3,0.2,0.5,0.5,0.6,0.9l0.5,1.5l-1,0.6c-0.3,0.1-0.6,0.1-0.9,0.1l0,0c-0.3,0-0.5-0.1-0.8-0.1c-0.3-0.1-0.6-0.3-0.9-0.5
						l-0.4-0.3l0.3,0l-0.8-0.8l0.4,0L54.7,47L55.3,47z"/>
					
						<radialGradient id="SVGID_44_" cx="205.3081" cy="-299.5609" r="2.553" gradientTransform="matrix(0.8892 -3.854620e-03 4.172164e-03 0.9624 -124.1483 336.5317)" gradientUnits="userSpaceOnUse">
						<stop  offset="0" style="stop-color:#1A75BA"/>
						<stop  offset="1" style="stop-color:#65C6ED"/>
					</radialGradient>
					<path class="st46" d="M55.4,46.2l-0.6-1.1l0.3,0c0.4,0.1,0.8,0.2,1.2,0.3l0,0c0.8,0.3,1.4,0.7,2,1.2l0,0
						c0.3,0.3,0.6,0.6,0.7,1.1l0.5,1.2l0.1,0.7c0,0-1.7,0.1-1.9,0.1l0,0c-0.3,0-0.5-0.1-0.7-0.1c-0.3-0.1-0.6-0.3-0.9-0.5l-0.4-0.3
						l0.3,0L55.2,48l0.4,0l-0.7-0.9l0.5,0l-0.7-1L55.4,46.2z"/>
					<path class="st3" d="M55.9,47.3l-0.6-0.9l0.6,0.1l-0.6-1l0.2,0c0.4,0.1,0.7,0.2,1.1,0.3l0,0c0.7,0.3,1.3,0.6,1.8,1.1l0.1,0.1
						c0.2,0.2,0.4,0.5,0.5,0.8l0.4,1.3l-0.8,0.6c-0.3,0.1-0.5,0.1-0.8,0.1l0,0c-0.2,0-0.4-0.1-0.7-0.1c-0.3-0.1-0.5-0.3-0.8-0.5
						l-0.3-0.3l0.3,0l-0.7-0.7l0.3,0l-0.6-0.8L55.9,47.3z"/>
					
						<radialGradient id="SVGID_45_" cx="-280.9501" cy="277.4657" r="2.6186" gradientTransform="matrix(0.7461 -3.234371e-03 3.558933e-03 0.821 266.1259 -180.9825)" gradientUnits="userSpaceOnUse">
						<stop  offset="0" style="stop-color:#941B80"/>
						<stop  offset="1" style="stop-color:#662482"/>
					</radialGradient>
					<path class="st47" d="M56,46.6l-0.5-0.9l0.2,0c0.4,0.1,0.7,0.1,1,0.3l0,0c0.7,0.3,1.2,0.6,1.8,1.1h0c0.3,0.2,0.5,0.6,0.6,0.9
						l0.4,1.1l0.1,0.6c0,0-1.4,0.1-1.7,0.1l0,0c-0.2,0-0.4-0.1-0.6-0.1c-0.3-0.1-0.5-0.3-0.7-0.5l-0.3-0.3l0.3,0l-0.6-0.7l0.3,0
						l-0.6-0.8l0.5,0l-0.6-0.8L56,46.6z"/>
					<path class="st1" d="M56.3,47.6l-0.5-0.8l0.5,0.1L55.8,46l0.2,0c0.3,0,0.6,0.1,0.9,0.3l0,0c0.6,0.2,1.1,0.5,1.6,1l0.1,0.1
						c0.2,0.2,0.3,0.4,0.4,0.7l0.4,1.1l-0.7,0.5c-0.2,0.1-0.5,0.1-0.7,0.1l0,0c-0.2,0-0.4,0-0.6-0.1c-0.3-0.1-0.5-0.2-0.7-0.4
						l-0.3-0.2l0.2,0l-0.6-0.6l0.3,0l-0.6-0.7L56.3,47.6z"/>
					
						<radialGradient id="SVGID_46_" cx="-157.4696" cy="121.7945" r="2.1847" gradientTransform="matrix(0.7778 -3.371651e-03 3.706107e-03 0.8549 179.7883 -56.7584)" gradientUnits="userSpaceOnUse">
						<stop  offset="0" style="stop-color:#1A75BA"/>
						<stop  offset="1" style="stop-color:#65C6ED"/>
					</radialGradient>
					<path class="st48" d="M56.4,47L56,46.1l0.2,0c0.3,0,0.6,0.1,0.9,0.2l0,0c0.6,0.2,1.1,0.5,1.5,0.9l0,0c0.2,0.2,0.4,0.5,0.5,0.8
						l0.3,0.9l0.1,0.5c0,0-1.2,0.1-1.4,0.1l0,0c-0.2,0-0.4,0-0.6-0.1c-0.2-0.1-0.5-0.2-0.7-0.4l-0.3-0.2l0.2,0l-0.5-0.6l0.3,0
						l-0.5-0.7l0.4,0L56,46.9L56.4,47z"/>
				</g>
				<g>
					<path class="st3" d="M56.8,47.8l-0.5-0.7l0.4,0l-0.4-0.7l0.2,0c0.3,0,0.5,0.1,0.8,0.2l0,0c0.5,0.2,1,0.5,1.4,0.8l0.1,0.1
						c0.2,0.2,0.3,0.3,0.4,0.6l0.3,1l-0.6,0.4c-0.2,0-0.4,0.1-0.6,0.1l0,0c-0.2,0-0.3,0-0.5-0.1c-0.2-0.1-0.4-0.2-0.6-0.4L57,49
						l0.2,0l-0.5-0.5l0.3,0l-0.5-0.6L56.8,47.8z"/>
					
						<radialGradient id="SVGID_47_" cx="-157.0726" cy="122.0546" r="1.9089" gradientTransform="matrix(0.7778 -3.371651e-03 3.706107e-03 0.8549 179.7883 -56.7584)" gradientUnits="userSpaceOnUse">
						<stop  offset="0" style="stop-color:#941B80"/>
						<stop  offset="1" style="stop-color:#662482"/>
					</radialGradient>
					<path class="st49" d="M56.9,47.3l-0.4-0.7l0.2,0c0.3,0,0.5,0.1,0.8,0.2l0,0c0.5,0.2,0.9,0.4,1.3,0.8h0c0.2,0.2,0.4,0.4,0.5,0.7
						l0.3,0.8l0.1,0.4c0,0-1.1,0.1-1.3,0.1l0,0c-0.2,0-0.3,0-0.5-0.1c-0.2-0.1-0.4-0.2-0.6-0.3L57.1,49l0.2,0l-0.5-0.5l0.2,0
						l-0.5-0.6l0.4,0l-0.4-0.6L56.9,47.3z"/>
					<path class="st1" d="M57.3,47.5l-0.4-0.6l0.1,0c0.2,0,0.5,0.1,0.7,0.2l0,0c0.4,0.2,0.8,0.4,1.2,0.7l0,0
						c0.2,0.1,0.4,0.6,0.4,0.8l0.2,0.5l-0.8,0.5c-0.1,0-0.1,0-0.2,0l0,0c-0.2,0-0.4-0.1-0.6-0.2c-0.1-0.1-0.2-0.1-0.3-0.2L57.4,49
						l0.2,0l-0.4-0.5l0.2,0L57,48l0.3,0l-0.4-0.6L57.3,47.5z"/>
					
						<radialGradient id="SVGID_48_" cx="-150.701" cy="360.596" r="1.648" gradientTransform="matrix(0.7794 -3.378698e-03 3.448742e-03 0.7956 174.5233 -239.0858)" gradientUnits="userSpaceOnUse">
						<stop  offset="0" style="stop-color:#1A75BA"/>
						<stop  offset="1" style="stop-color:#65C6ED"/>
					</radialGradient>
					<path class="st50" d="M57.4,47.6L57,47l0.1,0c0.2,0,0.4,0.1,0.7,0.2l0,0c0.4,0.2,0.8,0.4,1.1,0.7l0,0c0.2,0.1,0.4,0.7,0.5,0.9
						l0.1,0.3l-0.1,0.5c0,0-0.9,0.1-0.9,0.1l0,0c-0.2,0-0.4-0.1-0.6-0.2c-0.1-0.1-0.2-0.1-0.3-0.2l-0.2-0.2l0.2,0l-0.4-0.4l0.2,0
						l-0.4-0.5l0.3,0L57,47.6L57.4,47.6z"/>
					<path class="st3" d="M57.6,47.7l-0.3-0.6l0.1,0c0.2,0,0.4,0.1,0.6,0.2l0,0c0.4,0.2,0.7,0.4,1,0.6l0,0c0.1,0.1,0.3,0.3,0.3,0.5
						l0.2,0.6l-0.1,0.4c0,0-0.7,0-0.8,0l0,0c-0.2,0-0.4-0.1-0.5-0.1c-0.1-0.1-0.2-0.1-0.3-0.2l-0.2-0.2l0.2,0l-0.4-0.4l0.2,0
						l-0.4-0.5l0.3,0l-0.3-0.5L57.6,47.7z"/>
					
						<radialGradient id="SVGID_49_" cx="-149.2166" cy="303.3025" r="1.459" gradientTransform="matrix(0.7797 -3.380191e-03 3.515329e-03 0.8109 173.7814 -198.0499)" gradientUnits="userSpaceOnUse">
						<stop  offset="0" style="stop-color:#941B80"/>
						<stop  offset="1" style="stop-color:#662482"/>
					</radialGradient>
					<path class="st51" d="M57.7,47.8l-0.3-0.5l0.1,0c0.2,0,0.4,0.1,0.6,0.2l0,0c0.4,0.2,0.7,0.3,1,0.6l0,0c0.1,0.1,0.3,0.3,0.3,0.5
						l0.2,0.6l-0.1,0.5c0,0-0.7,0-0.7,0l0,0c-0.2,0-0.4-0.1-0.5-0.1c-0.1-0.1-0.2-0.1-0.3-0.2l-0.2-0.2l0.2,0l-0.4-0.4l0.2,0
						l-0.4-0.5l0.3,0l-0.3-0.5L57.7,47.8z"/>
					<path class="st1" d="M57.9,47.9l-0.3-0.5l0.1,0c0.2,0,0.4,0.1,0.5,0.2l0,0c0.4,0.2,0.7,0.3,0.9,0.6l0,0
						c0.1,0.1,0.2,0.3,0.3,0.4l0.2,0.6l0,0.3l-0.8,0.2c-0.2,0-0.3-0.1-0.5-0.1c-0.1,0-0.2-0.1-0.3-0.2L58,49.1l0.1,0l-0.3-0.4l0.2,0
						l-0.3-0.4l0.2,0l-0.3-0.5L57.9,47.9z"/>
					
						<radialGradient id="SVGID_50_" cx="-148.9648" cy="303.435" r="1.3067" gradientTransform="matrix(0.7797 -3.380191e-03 3.515329e-03 0.8109 173.7814 -198.0499)" gradientUnits="userSpaceOnUse">
						<stop  offset="0" style="stop-color:#1A75BA"/>
						<stop  offset="1" style="stop-color:#65C6ED"/>
					</radialGradient>
					<path class="st52" d="M57.9,48l-0.3-0.5l0.1,0c0.2,0,0.4,0.1,0.5,0.2l0,0c0.3,0.1,0.6,0.3,0.9,0.6l0,0c0.1,0.1,0.2,0.3,0.3,0.4
						l0.2,0.5l0,0.3l-0.5,0.1c-0.2,0-0.4,0-0.6,0c0,0-0.1,0-0.1,0c-0.1,0-0.2-0.1-0.2-0.2l-0.2-0.1l0.1,0l-0.3-0.4l0.2,0l-0.3-0.4
						l0.2,0l-0.3-0.4L57.9,48z"/>
					<path class="st3" d="M58.1,48l-0.2-0.4l0.1,0c0.2,0,0.3,0.1,0.4,0.1l0,0c0.3,0.1,0.5,0.3,0.8,0.5l0,0c0.1,0.1,0.2,0.2,0.2,0.3
						l0.2,0.5L59,49.4c0,0-0.1,0-0.1,0l0,0c-0.1,0-0.3,0-0.4-0.1c-0.1,0-0.1-0.1-0.2-0.1L58.2,49l0.1,0L58,48.7l0.1,0l-0.3-0.3
						l0.2,0L57.8,48L58.1,48z"/>
					
						<radialGradient id="SVGID_51_" cx="-87.8113" cy="390.6683" r="1.0712" gradientTransform="matrix(0.7844 -3.400296e-03 3.411826e-03 0.787 126.2933 -259.2501)" gradientUnits="userSpaceOnUse">
						<stop  offset="0" style="stop-color:#941B80"/>
						<stop  offset="1" style="stop-color:#662482"/>
					</radialGradient>
					<path class="st53" d="M58.1,48.1l-0.2-0.4l0.1,0c0.1,0,0.3,0.1,0.4,0.1l0,0c0.3,0.1,0.5,0.2,0.7,0.4h0c0.1,0.1,0.2,0.2,0.2,0.3
						l0.2,0.4l-0.1,0.3c0,0-0.5,0-0.5,0l0,0c-0.1,0-0.3,0-0.4-0.1c-0.1,0-0.1-0.1-0.2-0.1L58.2,49l0.1,0l-0.3-0.3l0.1,0L58,48.4
						l0.2,0L57.9,48L58.1,48.1z"/>
				</g>
				<g>
					<path class="st1" d="M58.3,48.2l-0.2-0.3l0.1,0c0.1,0,0.2,0.1,0.3,0.1l0,0c0.2,0.1,0.4,0.2,0.6,0.4l0,0
						c0.1,0.1,0.1,0.2,0.2,0.3l0.1,0.4l-0.4,0.3c0,0-0.1,0-0.1,0l0,0c-0.1,0-0.2,0-0.3-0.1c-0.1,0-0.1-0.1-0.2-0.1L58.4,49l0.1,0
						l-0.2-0.2l0.1,0l-0.2-0.3l0.2,0l-0.2-0.3L58.3,48.2z"/>
					
						<radialGradient id="SVGID_52_" cx="-148.7019" cy="384.4839" r="0.8769" gradientTransform="matrix(0.7456 -3.232237e-03 3.448825e-03 0.7956 168.3784 -257.7814)" gradientUnits="userSpaceOnUse">
						<stop  offset="0" style="stop-color:#1A75BA"/>
						<stop  offset="1" style="stop-color:#65C6ED"/>
					</radialGradient>
					<path class="st54" d="M58.4,48.2l-0.2-0.3l0.1,0c0.1,0,0.2,0.1,0.3,0.1l0,0c0.2,0.1,0.4,0.2,0.6,0.4l0,0
						c0.1,0.1,0.1,0.2,0.2,0.3l0.1,0.4l-0.1,0.3c0,0-0.4,0-0.4,0l0,0c-0.1,0-0.2,0-0.3-0.1c-0.1,0-0.1-0.1-0.2-0.1L58.4,49l0.1,0
						l-0.2-0.2l0.1,0l-0.2-0.3l0.2,0l-0.2-0.3L58.4,48.2z"/>
					<path class="st3" d="M58.5,48.3L58.3,48l0.1,0c0.1,0,0.2,0,0.3,0.1l0.1,0c0.2,0.1,0.3,0.2,0.5,0.3l0,0c0.1,0.1,0.1,0.1,0.2,0.2
						l0.2,0.6l-0.3-0.1l-0.1,0l-0.2,0c0,0-0.1,0-0.1,0c0,0,0,0,0,0c-0.1,0-0.2-0.1-0.2-0.1L58.6,49l0.1,0l-0.2-0.2l0.1,0l-0.2-0.2
						l0.1,0l-0.2-0.3L58.5,48.3z"/>
					
						<radialGradient id="SVGID_53_" cx="-54.8738" cy="397.4731" r="0.7492" gradientTransform="matrix(0.8069 -3.498082e-03 3.370521e-03 0.7775 101.9242 -260.5418)" gradientUnits="userSpaceOnUse">
						<stop  offset="0" style="stop-color:#941B80"/>
						<stop  offset="1" style="stop-color:#662482"/>
					</radialGradient>
					<path class="st55" d="M58.6,48.4l-0.2-0.3l0.1,0c0.1,0,0.2,0,0.3,0.1l0.1,0c0.2,0.1,0.3,0.2,0.5,0.3l0,0c0.1,0,0.1,0.1,0.1,0.2
						l0.1,0.2l0,0c0,0.2-0.2,0.4-0.2,0.4l-0.1,0c-0.1,0-0.2,0-0.4-0.1c0,0-0.1,0-0.1,0c0,0-0.1,0-0.1-0.1L58.6,49l0.1,0l-0.2-0.2
						l0.1,0l-0.2-0.2l0.1,0l-0.2-0.2L58.6,48.4z"/>
					<path class="st1" d="M58.7,48.5l-0.1-0.2l0.1,0c0.1,0,0.2,0,0.3,0.1l0,0c0.2,0.1,0.3,0.1,0.5,0.3l0,0c0.1,0.1,0.1,0.1,0.1,0.2
						l0.1,0.3l-0.2,0.2c0,0-0.1,0-0.2,0l0,0c-0.1,0-0.2,0-0.2-0.1c0,0-0.1-0.1-0.1-0.1L58.8,49l0.1,0l-0.2-0.2l0.1,0l-0.2-0.2l0.1,0
						l-0.1-0.2L58.7,48.5z"/>
					
						<radialGradient id="SVGID_54_" cx="-57.2033" cy="388.8711" r="0.6116" gradientTransform="matrix(0.8051 -3.490244e-03 3.425347e-03 0.7902 103.8623 -258.6963)" gradientUnits="userSpaceOnUse">
						<stop  offset="0" style="stop-color:#1A75BA"/>
						<stop  offset="1" style="stop-color:#65C6ED"/>
					</radialGradient>
					<path class="st56" d="M58.8,48.5l-0.1-0.2l0.1,0c0.1,0,0.2,0,0.3,0.1l0,0c0.2,0.1,0.3,0.1,0.4,0.3l0,0c0.1,0.1,0.1,0.1,0.1,0.2
						l0.1,0.2l-0.2,0.2c0,0-0.1,0-0.1,0l0,0c-0.1,0-0.2,0-0.2-0.1c0,0-0.1,0-0.1-0.1l-0.1-0.1l0.1,0l-0.2-0.2l0.1,0l-0.2-0.2l0.1,0
						l-0.1-0.2L58.8,48.5z"/>
					<path class="st3" d="M58.9,48.6l-0.1-0.2l0,0c0.1,0,0.1,0,0.2,0l0,0c0.1,0,0.2,0.1,0.3,0.2l0,0c0,0,0.1,0.1,0.1,0.1l0,0.3
						l-0.3,0c0,0,0,0,0,0c0,0-0.1,0-0.1-0.1l-0.1,0l0,0l-0.1-0.1l0.1,0l-0.1-0.1l0.1,0L58.9,48.6L58.9,48.6z"/>
					
						<radialGradient id="SVGID_55_" cx="-57.1865" cy="388.925" r="0.4005" gradientTransform="matrix(0.8051 -3.490244e-03 3.425347e-03 0.7902 103.8623 -258.6963)" gradientUnits="userSpaceOnUse">
						<stop  offset="0" style="stop-color:#941B80"/>
						<stop  offset="1" style="stop-color:#662482"/>
					</radialGradient>
					<path class="st57" d="M58.9,48.6l-0.1-0.1l0,0c0.1,0,0.1,0,0.2,0l0,0c0.1,0,0.2,0.1,0.3,0.2l0,0c0,0,0.1,0.1,0.1,0.1l0.1,0.1
						l-0.2,0.2l0,0c0,0-0.1,0-0.1,0c-0.1,0-0.1,0-0.2-0.1l0,0l0,0l-0.1-0.1l0.1,0l-0.1-0.1l0.1,0L58.9,48.6L58.9,48.6z"/>
					<path class="st1" d="M59,48.7L59,48.6l0,0C59,48.6,59.1,48.7,59,48.7l0.1-0.1c0.1,0,0.1,0.1,0.2,0.1l0,0c0,0,0,0,0.1,0.1l0,0.1
						l-0.1,0.2l-0.1,0l0,0c0,0-0.1,0-0.1-0.1l0,0l0,0L59,48.9l0,0L59,48.7L59,48.7L59,48.7L59,48.7z"/>
					
						<radialGradient id="SVGID_56_" cx="-57.1314" cy="389.0099" r="0.2786" gradientTransform="matrix(0.8051 -3.490244e-03 3.425347e-03 0.7902 103.8623 -258.6963)" gradientUnits="userSpaceOnUse">
						<stop  offset="0" style="stop-color:#1A75BA"/>
						<stop  offset="1" style="stop-color:#65C6ED"/>
					</radialGradient>
					<path class="st58" d="M59,48.8L59,48.7L59,48.8C59,48.7,59.1,48.7,59,48.8l0.1-0.1c0.1,0,0.1,0.1,0.2,0.1l0,0c0,0,0,0,0,0.1
						l0,0.1l-0.1,0.1l-0.1,0c0,0,0,0,0,0c0,0-0.1,0-0.1-0.1l0,0l0,0L59,48.9l0,0L59,48.8L59,48.8L59,48.8L59,48.8z"/>
				</g>
			</g>
		</g>
	</g>
</g>
</svg>
