<?xml version="1.0" encoding="utf-8"?>
<!-- Generator: Adobe Illustrator 21.1.0, SVG Export Plug-In . SVG Version: 6.00 Build 0)  -->
<svg version="1.1" id="Layer_1" xmlns="http://www.w3.org/2000/svg" xmlns:xlink="http://www.w3.org/1999/xlink" x="0px" y="0px"
	 viewBox="0 0 300 250" style="enable-background:new 0 0 300 250;" xml:space="preserve">
<style type="text/css">
	.st0{fill:#2A2E6E;}
	.st1{fill:#008037;}
	.st2{fill:#006B2C;}
	.st3{fill:#EAEAE9;}
	.st4{fill:#005321;}
	.st5{fill:#C4BFBE;}
	.st6{fill:#504C4B;}
	.st7{fill:#3C3937;}
	.st8{fill:none;stroke:#787473;stroke-miterlimit:10;}
	.st9{fill:#23201C;}
	.st10{fill:#5F5C5B;}
	.st11{fill:#787473;}
	.st12{fill:#A4A1A0;}
	.st13{fill:#FFFFFF;}
	.st14{fill:#036D32;}
	.st15{fill:none;stroke:#A4A1A0;stroke-width:2;stroke-linecap:round;stroke-linejoin:round;stroke-miterlimit:10;}
	.st16{fill:#C6C8E5;}
</style>
<path class="st0" d="M168.1,51.5l0.4,1.8l6.2-1.4c0,0,0,0,0.1,0c0-0.3,0-0.6-0.1-0.9c-0.1-0.3-0.2-0.6-0.3-0.8c-0.2,0-0.4,0-0.5,0.1
	L168.1,51.5z"/>
<g>
	<path class="st1" d="M190.7,65.5l-14.1-13.1c-0.5-0.5-1.2-0.6-1.9-0.5l-6.2,1.4l-0.4-1.8l5.7-1.3c1.6-0.4,3.2,0.1,4.3,1.2L192,64.1
		L190.7,65.5z"/>
</g>
<path class="st2" d="M222.6,94.7l-30.2-33.3c-0.8-0.9-2.2-1-3.2-0.3L174.6,72l7.7,12.6l8.1-12.2c0.6-1,2-1.1,2.8-0.2l24.3,26.6
	L222.6,94.7z"/>
<path class="st3" d="M180.5,84.7l-7.8,6.8l9.6,1.3c0.9,0.1,1.8,0.6,2.5,1.2l5.9,5.9l5.1-1.2l1-15.8v0c1.7-1.4,1.8-4,0.3-5.6
	l-0.2-0.3c-1.3-1.5-3.6-1.7-5.2-0.5L180.5,84.7z"/>
<path class="st4" d="M182.4,84.7l6.4-9.6c0-0.3,0-0.6,0-0.8l-0.1-2.1c-0.1-3.1-1.3-6-3.3-8.1l-10.7,8L182.4,84.7z"/>
<path class="st5" d="M188.2,79.2l-7.6,5.6l-7.8,6.8l1.4,0.2l1.3-0.3c2.7-0.6,5.2-1.8,7.3-3.5C185.3,85.6,187.3,82.6,188.2,79.2z"/>
<path class="st4" d="M208.6,79.2l-4.6-5.1c-1.7,1.5-3.2,3-4.7,4.7l4.7,5.1C205.4,82.3,206.9,80.7,208.6,79.2z"/>
<path class="st5" d="M188.3,97.5l2.4,2.4l4.3-1c0.3-0.7,0.6-1.4,0.9-2.1l0.9-13.9c0.8-0.7,1.3-1.7,1.4-2.7
	C193.9,85.3,190.5,91.2,188.3,97.5z"/>
<path class="st1" d="M235,62.3c-2.4,0.2-4.9,0.6-7.3,1.1c-27.5,6.3-44.7,33.8-38.4,61.3c0.9,4.1,2.3,7.9,4.1,11.5l45.6-22.8
	L235,62.3z"/>
<path class="st6" d="M172.5,155.9l-81.2,18.6l-12.1-52.7l87.3-36.7c0,0,19,29.5,19.8,41.7C187,139.2,172.5,155.9,172.5,155.9z"/>
<path class="st7" d="M130.4,120.5c-1.5-1.8-3.9-2.8-6.4-2.2l-14.1,3.2c-2.5,0.6-4.3,2.5-4.8,4.8c-1.5,1-2.4,2.9-1.9,4.8
	c0.4,1.8,1.9,3.2,3.7,3.5c1.5,2,4.1,3.1,6.7,2.5l14.1-3.2c2.6-0.6,4.5-2.7,4.9-5.2c1.4-1,2.2-2.9,1.8-4.7
	C133.8,122,132.2,120.7,130.4,120.5z"/>
<path class="st7" d="M91.3,174.6l18.3-4.2c2.7-7.9,3.3-16.7,1.3-25.4c-0.5-2-1-3.9-1.7-5.8c0.8-0.1,1.7-0.2,2.5-0.4l1.5-0.4
	c-3.4-9.6-9.4-17.7-17.1-23.6l-16.9,7.1L91.3,174.6z"/>
<polygon class="st4" points="150,118.4 102.4,129.3 98.9,113.6 121.4,108.5 144.1,87.4 146.4,102.7 "/>
<path class="st2" d="M149,118.6l-4.6-6.7l3-4.6l-1-4.5l-1.1-7.1l-2.6-0.1l-13.2,9.6c-0.9,0.6-1.3,1.8-1.1,2.8l2,8.7
	c0.2,0.8,0.6,1.5,1.2,2l0.5,0.4l0.8,3.3L149,118.6z"/>
<path class="st1" d="M46.7,86.9l78.9,35.9l-1,10.2l0,0c-12.3,0.6-19,14.7-11.8,24.7l7.5,10.3l-25.8,5.9L42.7,91.5
	C41,88.8,43.8,85.6,46.7,86.9z"/>
<path class="st4" d="M108.5,135.2l1.5-0.4c-8.4-24.2-34-38.7-59.5-32.9c-0.4,0.1-0.7,0.2-1.1,0.3l7.9,12.5
	c13.3-1.7,26.2,4,34.1,14.2C95.4,134.2,102.1,136.7,108.5,135.2z"/>
<path class="st7" d="M60.6,93.2L60.6,93.2c-1,1.3-0.5,3.3,1,4l27.2,12.4v0c-1.4-6.2-6.3-11.1-12.5-12.6L60.6,93.2z"/>
<line class="st8" x1="60.6" y1="93.2" x2="60.6" y2="93.2"/>
<line class="st8" x1="88.8" y1="109.6" x2="88.8" y2="109.6"/>
<g>
	<path class="st5" d="M88.6,110.1L61.4,97.7c-0.9-0.4-1.5-1.2-1.7-2.1c-0.2-0.9-0.1-1.8,0.5-2.6l1,0.3L61,93.5
		c-0.4,0.5-0.5,1.2-0.4,1.8c0.2,0.6,0.6,1.1,1.2,1.4L89,109.2L88.6,110.1z"/>
</g>
<path class="st2" d="M53.7,105.6c-0.6,0.1-1.2,0.3-1.9,0.5l42.7,67.8l15.1-3.5c1.5-4.4,2.3-9,2.5-13.8c-2.5-4.1-2.8-8.8-1.5-12.9
	c-0.4-1.5-0.9-3.1-1.4-4.5c0.8-0.1,1.7-0.2,2.5-0.4l1.5-0.4C104.8,114.2,79.3,99.7,53.7,105.6z"/>
<path class="st7" d="M146,141.4c-0.3,0.1-0.6-0.1-0.6-0.4c-0.6-2.7-3.3-4.4-6-3.8l-3.1,0.7c-2.7,0.6-4.4,3.3-3.8,6
	c0.1,0.3-0.1,0.6-0.4,0.6c-3.9,0.9-6.3,4.8-5.4,8.6c0.9,3.9,4.8,6.3,8.6,5.4l13.9-3.2c3.9-0.9,6.3-4.8,5.4-8.6
	C153.8,142.9,149.9,140.5,146,141.4z M148.6,152.5l-13.9,3.2c-2.3,0.5-4.5-0.9-5-3.2c-0.5-2.3,0.9-4.5,3.2-5
	c1.9-0.4,3.1-2.3,2.7-4.2c-0.2-1.1,0.4-2.2,1.5-2.4l3.1-0.7c1.1-0.2,2.2,0.4,2.4,1.5c0.4,1.9,2.3,3.1,4.2,2.7c2.3-0.5,4.5,0.9,5,3.2
	C152.3,149.7,150.9,152,148.6,152.5z"/>
<polygon class="st9" points="136.6,117.8 139.4,129.8 143.3,131.3 170.3,132 174.2,137.8 175.6,152 181.5,143.5 185.3,124.6 
	180.5,106.1 "/>
<ellipse transform="matrix(0.9747 -0.2237 0.2237 0.9747 -31.5023 30.9007)" class="st3" cx="120.6" cy="154.5" rx="5.9" ry="5.9"/>
<polygon class="st10" points="153.5,130.9 159.2,155.6 172.2,152.6 176.9,143.3 172.3,134.2 162.4,130.1 "/>
<path class="st7" d="M176.9,143.3l-4.7-9.1l-9.9-4.1l-8.9,0.8l0.7,3.1l10.5,0.4c3.8,0.2,7,2.9,7.9,6.6c1,4.6-1.8,9.1-6.4,10.1
	l-7.7,1.8l0.6,2.7l13-3L176.9,143.3z"/>
<path class="st11" d="M143.9,141.3L143.9,141.3c-0.4-1.9-2.3-3.1-4.2-2.6l-3.1,0.7c-1.9,0.4-3.1,2.3-2.6,4.2l0,0
	c0.3,1.1-0.4,2.2-1.5,2.4l0,0c-3.1,0.7-5,3.8-4.3,6.8v0c0.7,3.1,3.8,5,6.8,4.3l13.9-3.2c3.1-0.7,5-3.8,4.3-6.8l0,0
	c-0.7-3.1-3.8-5-6.8-4.3l0,0C145.3,143.1,144.2,142.4,143.9,141.3z"/>
<path class="st10" d="M135,157.2L135,157.2l-1.2-5.6l-5.6,1.3C128.9,156,132,157.9,135,157.2z"/>
<path class="st10" d="M138.9,153.8c-0.9-3.9-4.8-6.3-8.7-5.4l-1.4,0.3c-0.7,1.2-1,2.7-0.6,4.2c0,0.1,0.1,0.3,0.1,0.4l2.9-0.7
	c1.5-0.4,3.1,0.6,3.5,2.2c0.2,0.8,0.5,1.6,0.9,2.2l5.1-1.2C139.9,155.5,139.2,154.8,138.9,153.8z"/>
<g>
	<path class="st5" d="M167.4,156.1l-25.1,5.8c-3.9,0.9-7.8-1.5-8.7-5.4c-0.4-1.5-1.9-2.5-3.5-2.2l-9,2.1c-1.2,0.3-2.3-0.5-2.6-1.6
		c-0.3-1.2,0.5-2.3,1.6-2.6l9-2.1c3.9-0.9,7.8,1.5,8.7,5.4c0.4,1.5,1.9,2.5,3.5,2.2l25.1-5.8c5-1.1,8.1-6.1,6.9-11
		c-0.9-4-4.5-7-8.6-7.1l-22-0.9c-3-0.1-5.5-2.2-6.1-5.1l-2.8-12c-0.3-1.2,2.1,4.9,3.3,4.6s2.3,0.5,2.6,1.6l1.1,4.8
		c0.2,1,1.1,1.7,2.1,1.7l22,0.9c6.1,0.3,11.3,4.6,12.7,10.5C179.3,147.2,174.7,154.5,167.4,156.1z"/>
</g>
<g>
	<path class="st12" d="M142.4,128.3l5.8,4.7l3.8,0.2l3.4-3.1c0.3-0.3,0.5-0.7,0.5-1.1l-13-0.6C142.7,128.4,142.6,128.4,142.4,128.3z
		"/>
</g>
<path class="st12" d="M141.1,127.2c-0.1-0.2-0.2-0.4-0.2-0.6l-1.1-4.8c-0.3-1.2-1.4-1.9-2.6-1.6c-1.2,0.3-3.6-5.8-3.3-4.6l1.6,7.1
	L141.1,127.2z"/>
<path class="st11" d="M150.5,96.1l2.4,6.8l-6,9.3l9.1,13.3c0.4,0.6,0.3,1.5-0.2,2l-4.1,3.7c-0.6,0.5-1.4,0.5-2,0.1l-15.5-12.4
	c-0.6-0.5-1.1-1.2-1.2-2l-2-8.7c-0.2-1.1,0.2-2.2,1.1-2.8l13.2-9.6L150.5,96.1z"/>
<path class="st9" d="M84.7,110.5L84.7,110.5c0.5,2.2,2.1,4,4.2,4.8l4.4,1.7c5.4,2.1,11.2,2.5,16.8,1.2l0,0c4.1-0.9,8-2.8,11.3-5.4
	l4.3-3.4c4.6-3.6,6.7-9.6,5.4-15.4l0,0c-0.4-1.5-1.9-2.5-3.4-2.2h0c-0.8,0.2-1.5,0.7-1.9,1.4c-1.1,2-3.6,6.2-7.1,8.6
	c-2.2,1.5-5.6,2.6-8.5,3.3c-3.7,0.9-7.5,0.8-11.2-0.1l-7-1.8c-1.6-0.4-3.2-0.1-4.6,0.7h0C85.2,105.4,84.2,108,84.7,110.5z"/>
<g>
	
		<ellipse transform="matrix(0.9747 -0.2237 0.2237 0.9747 -27.8148 40.6287)" class="st5" cx="165.4" cy="143.1" rx="5.7" ry="5.7"/>
	
		<ellipse transform="matrix(0.9747 -0.2237 0.2237 0.9747 -27.8148 40.6287)" class="st13" cx="165.4" cy="143.1" rx="4.5" ry="4.5"/>
</g>
<path class="st5" d="M124.5,133.2l-12.3,2.8c-4,0.9-7.9-1.6-8.8-5.5l-0.3-1.2c-0.9-4,1.6-7.9,5.5-8.8l12.3-2.8
	c4-0.9,7.9,1.6,8.8,5.5l0.3,1.2C131,128.3,128.5,132.3,124.5,133.2z"/>
<path class="st12" d="M129.4,121.6c0-0.1-0.1-0.2-0.1-0.3c0-0.1-0.1-0.2-0.1-0.3c-0.1-0.1-0.1-0.3-0.2-0.4c0,0,0-0.1-0.1-0.1
	c-0.1-0.2-0.2-0.3-0.3-0.5c0,0,0,0,0-0.1c-0.1-0.2-0.2-0.3-0.4-0.5c0,0,0,0,0,0c-0.4-0.5-0.9-0.9-1.4-1.2l-23,5.3
	c-0.9,1.4-1.2,3.1-0.8,4.8l0.7,3c0.4,1.6,1.3,2.9,2.5,3.8l23.5-5.4l0,0c0.1-0.2,0.2-0.3,0.2-0.5c0,0,0,0,0-0.1
	c0.1-0.1,0.1-0.3,0.2-0.5c0,0,0-0.1,0-0.1c0-0.1,0.1-0.3,0.1-0.4c0-0.1,0-0.1,0-0.2c0-0.1,0.1-0.3,0.1-0.4c0-0.1,0-0.1,0-0.2
	c0-0.1,0-0.2,0-0.4c0-0.1,0-0.2,0-0.3c0-0.1,0-0.2,0-0.3c0-0.1,0-0.2,0-0.4c0-0.1,0-0.2,0-0.2c0-0.2-0.1-0.4-0.1-0.6l-0.7-3
	C129.5,122,129.5,121.8,129.4,121.6z"/>
<path class="st3" d="M129.1,128.5l-22.9,5.3c-2.3,0.5-4.5-0.9-5-3.2l-0.2-0.7c-0.5-2.3,0.9-4.5,3.2-5l22.9-5.3
	c2.3-0.5,4.5,0.9,5,3.2l0.2,0.7C132.7,125.7,131.3,128,129.1,128.5z"/>
<g>
	<path class="st1" d="M208.4,71.4c-6.3,1.4-12.3-1-13.3-5.6c-1-4.5,3.2-9.4,9.6-10.8L208.4,71.4z"/>
	<ellipse transform="matrix(0.9747 -0.2237 0.2237 0.9747 -8.9109 47.8143)" class="st13" cx="206.5" cy="63.2" rx="2.8" ry="8.4"/>
	<g>
		<path class="st4" d="M208.6,72.2c-2.3,0.5-4.5-3.7-5.5-8.1s-0.9-9.2,1.4-9.7c0.4-0.1,0.8,0.2,0.9,0.6s-0.2,0.8-0.6,0.9
			c-0.7,0.2-1.4,3.3-0.3,7.9s3,7.2,3.7,7c0.4-0.1,0.8,0.2,0.9,0.6S209,72.1,208.6,72.2z"/>
	</g>
</g>
<g>
	<path class="st11" d="M166.4,160.4l-60.6,13.9c-1.2,0.3-2.3-0.5-2.6-1.6s0.5-2.3,1.6-2.6l60.6-13.9c6.2-1.4,11.2-6.1,13.1-12.1
		l3.7-11.6c1-3,1.1-6.3,0.4-9.4l-3-13c-0.3-1.2,0.5-2.3,1.6-2.6c1.2-0.3,0.6-7.3,0.8-6.1l4.7,20.7c0.9,3.9,0.7,7.9-0.5,11.7
		l-3.7,11.6C180.4,152.8,174.1,158.6,166.4,160.4z"/>
</g>
<path class="st10" d="M182.1,101.2c-0.3-1.2,0.3,5.8-0.8,6.1c-1.2,0.3-1.9,1.4-1.6,2.6l1.4,6.2l3-6.4L182.1,101.2z"/>
<path class="st11" d="M158.9,93.3l0.8,7.2l9.5,5.7l-2.4,16c-0.1,0.8,0.4,1.5,1.1,1.7l5.3,1.6c0.7,0.2,1.5-0.1,1.8-0.8l8.5-17.9
	c0.3-0.7,0.4-1.5,0.3-2.3l-2-8.7c-0.2-1.1-1.1-1.9-2.2-2.1l-16-2.8L158.9,93.3z"/>
<path class="st11" d="M168.8,116c-1.4,2.4-3.8,4.2-6.5,4.8c-2.8,0.6-5.7,0.1-8.1-1.6c-1.2-0.9-2.8-1.2-4.3-0.8c-0.5,0.1-1,0-1.5-0.3
	l-4.2-2.6c-0.8-0.5-1.3-1.3-1.5-2.2c-0.3-1.4,0.2-2.9,1.5-3.7l9.8-6.7c0,0,0,0,0.1,0c0.1-0.1,0.2-0.2,0.3-0.2l0.3-0.2
	c0,0,0.1,0,0.1,0c1.5-0.9,3.2-1.5,5-1.5c4.5-0.1,8.5,2.8,9.9,7C170.6,110.7,170.3,113.5,168.8,116z"/>
<path class="st10" d="M151,118.3c-0.4,0-0.7,0.1-1.1,0.1c-0.5,0.1-1,0-1.5-0.3l-4.2-2.6c-0.8-0.5-1.3-1.3-1.5-2.2
	c-0.3-1.4,0.2-2.9,1.5-3.7l7.7-5.2l1-1.5l-1-2.8l-9.7,6.6c-2.4,1.6-3.5,4.5-2.9,7.4c0.4,1.8,1.5,3.4,3.1,4.4l4.2,2.6
	c1.2,0.8,2.7,1,4.1,0.7c0.5-0.1,1.1,0,1.5,0.3c0.7,0.5,1.5,0.9,2.3,1.3L151,118.3z"/>
<path class="st10" d="M171.9,117.7c1.9-3.3,2.3-7.2,1.1-10.9c-1.8-5.7-7.3-9.6-13.3-9.4c-0.1,0-0.2,0-0.3,0l0.4,3l0.8,0.5
	c3.5,0.2,6.6,2.1,8.3,5l0.4,0.2l-0.1,0.4c0.2,0.4,0.4,0.9,0.5,1.3c0.9,2.7,0.6,5.6-0.8,8.1c-0.4,0.7-0.8,1.3-1.4,1.8l-0.6,4.3
	c0,0.2,0,0.4,0,0.6C168.9,121.6,170.7,119.9,171.9,117.7z"/>
<g>
	<path class="st5" d="M159.8,99.2c-2.2,0.1-4.2,0.7-5.9,1.8l0,0l-0.3,0.2c-0.2,0.1-0.3,0.2-0.5,0.3l-9.8,6.7
		c-1.8,1.2-2.7,3.4-2.2,5.5l0,0c0.3,1.4,1.1,2.5,2.3,3.3l4.2,2.6c0.8,0.5,1.8,0.7,2.8,0.5h0c1-0.2,2.1-0.1,2.9,0.5
		c2.7,1.9,6.1,2.7,9.5,1.9c6.7-1.5,10.7-8.5,8.6-15.1C169.8,102.4,165,99.1,159.8,99.2z"/>
	<ellipse transform="matrix(0.9747 -0.2237 0.2237 0.9747 -20.7782 38.6327)" class="st3" cx="160.1" cy="111" rx="6.7" ry="6.7"/>
	<ellipse transform="matrix(0.9747 -0.2237 0.2237 0.9747 -20.7782 38.6327)" class="st13" cx="160.1" cy="111" rx="5.2" ry="5.2"/>
</g>
<path class="st1" d="M130,97.9L130,97.9c0.4,1.7,2.1,2.8,3.8,2.4l38.6-8.2c2.7-0.6,5.2-1.8,7.3-3.5l0,0c4.1-3.4,6.4-8.4,6.2-13.7
	l-0.1-2.1c-0.2-5.6-4-10.4-9.4-11.8l0,0c-3-0.8-6.1-0.5-8.9,0.8l0,0c-6.9,3.3-13,7.8-18.2,13.4L130.8,95
	C130.1,95.7,129.8,96.8,130,97.9z"/>
<path class="st14" d="M138.9,92.7L138.9,92.7c0.3,1.2,1.5,2,2.8,1.8l28.3-6c2-0.4,3.8-1.3,5.3-2.6v0c3-2.5,4.7-6.2,4.5-10.1
	l-0.1-1.5c-0.1-4.1-2.9-7.6-6.9-8.7h0c-2.2-0.6-4.5-0.4-6.5,0.6l0,0c-5,2.4-9.6,5.8-13.4,9.9l-13.5,14.6
	C139,91.1,138.8,91.9,138.9,92.7z"/>
<line class="st15" x1="146.6" y1="114.6" x2="153.3" y2="120.7"/>
<g>
	
		<ellipse transform="matrix(0.8995 -0.4369 0.4369 0.8995 -47.7825 69.3095)" class="st11" cx="126.8" cy="138.5" rx="2.5" ry="2.5"/>
	
		<ellipse transform="matrix(0.8995 -0.4369 0.4369 0.8995 -47.7825 69.3095)" class="st9" cx="126.8" cy="138.5" rx="1.9" ry="1.9"/>
</g>
<line class="st15" x1="186.3" y1="92.3" x2="181.1" y2="92.6"/>
<path class="st15" d="M192.9,82.9L192.9,82.9c0.8,0.6,1.8,0.7,2.8,0.4l1.1-0.4"/>
<path class="st16" d="M173.9,67.2c-2.1-0.6-4.3-0.4-6.2,0.6c0,0,0,0,0,0c-4.4,2.1-8.2,5-11.5,8.5l-11.4,12.2c-0.4,0.4-0.4,1,0.1,1.4
	c0.3,0.2,0.6,0.3,0.9,0.2c0.2,0,0.4-0.1,0.5-0.3l11.4-12.2c3.1-3.4,6.8-6.1,10.9-8.1l0,0c1.5-0.7,3.2-0.9,4.8-0.4c0.2,0,0.3,0,0.5,0
	c0.3-0.1,0.6-0.3,0.7-0.7C174.7,67.9,174.4,67.3,173.9,67.2z"/>
<g>
	<path class="st1" d="M48.2,104.7c-15.7,3.6-28,14.1-34.5,27.6l0.3,0.1c6.4,2.8,13.9,1.4,18.8-3.7c4.9-5.1,11.2-8.9,18.6-10.6
		c14.6-3.4,29.2,2.4,37.8,13.5c4,5.2,10.7,7.7,17.1,6.2l1.5-0.4C99.3,113.3,73.8,98.8,48.2,104.7z"/>
</g>
<g>
	<ellipse transform="matrix(0.8995 -0.4369 0.4369 0.8995 -49.0676 66.0092)" class="st11" cx="119" cy="139.7" rx="3.1" ry="3.1"/>
	<ellipse transform="matrix(0.8995 -0.4369 0.4369 0.8995 -49.0676 66.0092)" class="st9" cx="119" cy="139.7" rx="2.4" ry="2.4"/>
</g>
<g>
	
		<ellipse transform="matrix(0.8995 -0.4369 0.4369 0.8995 -50.5229 68.4973)" class="st11" cx="123.6" cy="144.1" rx="2.3" ry="2.3"/>
	
		<ellipse transform="matrix(0.8995 -0.4369 0.4369 0.8995 -50.5229 68.4973)" class="st9" cx="123.6" cy="144.1" rx="1.8" ry="1.8"/>
</g>
<path class="st9" d="M170.3,55.3l-20.2,4.6c-1.6,0.4-3.2-0.6-3.5-2.2l-0.1-0.5c-0.4-1.6,0.6-3.2,2.2-3.5l20.2-4.6
	c1.6-0.4,3.2,0.6,3.5,2.2l0.1,0.5C172.9,53.3,171.9,54.9,170.3,55.3z"/>
</svg>
