<svg xmlns="http://www.w3.org/2000/svg" viewBox="0 0 82.9 30.9"><path fill="#FFF" stroke="#FFF" stroke-width=".5" stroke-linecap="round" stroke-linejoin="round" stroke-miterlimit="10" d="M82.4 5.6c0 .4-.2.9-.7 1.1-.8.2-1.2.6-1.3.8-.1.1-.4.7-.5 1-.2.6-.3 1.2-.3 2.3 0 .1 0 2.1-.1 2.9-.1.8-.6 1.5-1.1 1.5-.2 0-.3-.1-.4-.2-.1-.2-.2-.4-.1-.8.1-.3 0-.8-.1-1.3-.8 1.3-1.6 2.5-2.5 3.4-.8 2.2-2.4 3.6-3.7 4.5-.7.5-1.7 1.1-2.9 1.8-2.5 1.5-5.7 3.3-8 5.5-.6.6-1.1 1.1-1.5 1.6-.7.8-1 1.1-1.4 1.1-.1 0-.4 0-.6-.5-.3-.7-.2-2.3 1-3.5 2-2 3.7-3 5.5-4 .3-.2 1.2-.7 1.4-.8.8-.5 2.7-1.7 3.2-2 .6-.3.9-.8 1-1.3l-.2.1c-.4.1-1.8.5-2.4.8-2.9 1.1-5.6 2.6-7.9 4.3-.8.6-1.4 1.2-1.7 1.6-.4.4-.6.7-1 .7-.3 0-.5-.2-.7-.6-.3-.7-.1-2.1 1.4-3.3 1-.8 3.7-2.2 3.8-2.2 0 0 2.3-1.1 3.4-1.8s2.2-1.4 2.5-1.7l.1-.1c-.6-.1-1.3-.2-2.3-.3-3.7-.4-6.7-1.6-9.1-3.9C53 10 52.1 7.1 52 6.8c-.1-.4-.1-.6 0-.8.1-.1.3-.2.4-.2.2 0 .4 0 .8.6 2.5 4.3 5.4 5.5 6.6 5.8.8.2 1.6.3 2.4.3.9 0 1.7-.1 2.4-.3h-.1c-2.3-.9-3.9-3.1-3.9-5.6 0-3.3 2.7-5.9 5.9-5.9 3.3 0 5.9 2.7 5.9 5.9 0 .7-.1 1.4-.4 2v.2c.9-.1 1.6-.1 1.9-.1h.3c.9 0 2.6-.3 3.6-2 0 0-1.1-.9-1.2-1.5 0-.1 0-.3.1-.4.1-.1.2-.2.4-.2s.4.1.6.1c-.1-.3-.2-.5-.1-.7 0-.1.1-.2.2-.3.1 0 .2-.1.3-.1.4 0 1.2.6 1.4.8.6.1 2 .2 2.4.4.4.1.5.4.5.8z"/><path fill="#004E76" d="M68.6 17.4c.2.2.4.6.4.9-.3.1-1.8.5-2.4.8-3.1 1.2-5.7 2.7-8 4.4-1.6 1.2-2.1 2.2-2.4 2.2-.3 0-.9-1.5 1-3.2.9-.8 3.7-2.2 3.7-2.2s2.3-1.1 3.4-1.8c1.3-.8 2.3-1.4 2.6-1.9 1.1.3 1.6.7 1.7.8zM78 6.2c.2-.6.3-.8-.1-1-.3-.1-.8-.3-.9-.2-.1.1.8 1.1 1 1.2z"/><path fill="#A62055" d="M74.9 16.1c-1.5 1.7-4.3 3-6.4 4.2 1.7-1 1.4-2.7.6-3.5-.3-.3-1.2-1.2-1.1-2.7 0-2 1.8-3.6 3.7-3.5.7 0 1.3.2 1.8.6.1.1.2.1.3.2.8.7 1.4 1.7 1.4 2.8 0 .9-.3 1.8-.3 1.9z"/><path fill="#3ABFF0" d="M74.9 16.1c-.7 1.9-2.1 3.4-3.5 4.3-2.3 1.6-7.5 4.1-10.9 7.3-1.5 1.4-2.3 2.6-2.7 2.6-.4 0-.6-1.9.7-3.2 2.4-2.4 4.3-3.3 6.5-4.6.1-.1 3-1.8 3.5-2.2 2.1-1.1 4.9-2.4 6.4-4.2z"/><path fill="#E6331F" d="M73.5 11.2c-.5-.3-1.1-.5-1.8-.6-2-.1-3.7 1.5-3.7 3.5 0 1.6.8 2.4 1.1 2.7-.3-.3-1.3-1-4.7-1.3-4-.4-6.8-1.8-8.8-3.8-2.1-1.9-3-4.6-3.2-5.2-.2-.6.1-.7.4-.2.2.3 2.7 5 6.9 6.1 3.4.9 6-.2 7.2-1 2.5-1.4 5.3-1.1 6.6-.2zm8.3-6c-.3-.1-1.6-.3-2.5-.4-.3-.2-1.1-.8-1.2-.7-.2.1.6 1.1.6 1.3 0 .2-.1.8-.5 1.4C76.8 9.2 74.3 9 74.1 9c1 0 3.7.1 5.6-1.5l.4-.4c.1-.1.6-.7 1.5-.9.4 0 .5-.8.2-1z"/><path fill="#96B522" d="M79.5 8.3c-.2.6-.3 1.2-.3 2.5 0 0 0 2.1-.1 2.9-.2 1.1-1 1.5-.8.6.1-.7-.2-2.2-.3-2.6.6-1.3 1.1-2.5 1.5-3.4z"/><path fill="#FDC300" d="M66.4 10.8c-.5.3-1.1.6-1.9.9-2.1-.8-3.5-2.8-3.5-5.2 0-3 2.5-5.5 5.5-5.5S72 3.5 72 6.5c0 .7-.1 1.3-.3 1.9-.2 0-.4.1-.7.1-2 .5-3.3 1.4-4.3 2.1-.1.1-.2.2-.3.2zm13.2-3.2C77.7 9.2 75 9.1 74 9.1c-.4 0-1.7 0-2.9.3-2.1.5-3.4 1.6-4.3 2.2 2.5-1.5 5.4-1.3 6.6-.4.1.1.2.1.3.2.8.7 1.4 1.7 1.4 2.8 0 .9-.3 1.8-.3 2 1.3-1.3 2.3-2.9 3.1-4.4.7-1.3 1.2-2.5 1.5-3.4.2-.6.4-1 .6-1.1-.1 0-.2.2-.4.3z"/><path fill="#FFF" d="M4.1 13.6l-.1-.1h-.1s-.1 0-.1.1l-2.6 5.6c-.1.1 0 .2.1.2h.5c.1 0 .2-.1.2-.1.2-.4.3-.8.5-1.1h2.7l.5 1.1c0 .1.1.1.2.1h.5c.1 0 .2-.1.1-.2l-2.4-5.6zm-1.2 3.9l1-2.3 1 2.3h-2zm9.5-3.9h-.6c-.1 0-.2.1-.2.2v3.5c0 .8-.5 1.5-1.4 1.5-.9 0-1.4-.7-1.4-1.5v-3.5c0-.1-.1-.2-.2-.2h-.4c-.1 0-.2.1-.2.2v3.5c0 1.3 1 2.3 2.3 2.3 1.3 0 2.3-1 2.3-2.3v-3.5c0-.1-.1-.2-.2-.2zm3.8 2.5c-.7-.3-1.1-.6-1.1-1.1 0-.3.2-.8.9-.8.5 0 1.1.4 1.1.4.1.1.2 0 .3-.1.1-.1.1-.2.2-.3.1-.1 0-.2-.1-.3-.1-.1-.7-.5-1.6-.5-1.3 0-1.8.9-1.8 1.6 0 1 .7 1.4 1.5 1.8.8.3 1.3.7 1.3 1.2 0 .4-.4.8-.9.8-.6 0-1.3-.5-1.3-.6-.1-.1-.2 0-.3.1-.1.1-.1.2-.2.3-.1.1 0 .2 0 .3.1.1.8.7 1.8.7 1.1 0 1.9-.7 1.9-1.6.1-1.1-.7-1.5-1.7-1.9zm7.6-2.5h-4.2c-.1 0-.2.1-.2.2v.5c0 .1.1.2.2.2h1.7v4.9c0 .1.1.2.2.2h.5c.1 0 .2-.1.2-.2v-4.9h1.7c.1 0 .2-.1.2-.2v-.5c-.1-.1-.2-.2-.3-.2zm6.2 1.8c0-1-.8-1.8-1.8-1.8h-2.3c-.1 0-.2.1-.2.2v5.6c0 .1.1.2.2.2h.5c.1 0 .2-.1.2-.2v-2.1h1.3l1.1 2.2.1.1h.7c.1 0 .2-.1.1-.2l-1.1-2.1c.7-.5 1.2-1.1 1.2-1.9zm-1.9 1h-1.5v-2h1.5c.5 0 1 .5 1 1 0 .6-.5 1-1 1zm6.2-2.8l-.1-.1h-.1s-.1 0-.1.1l-2.6 5.6c-.1.1 0 .2.1.2h.5c.1 0 .2-.1.2-.1.2-.4.3-.8.5-1.1h2.7l.5 1.1c0 .1.1.1.2.1h.5c.1 0 .2-.1.1-.2l-2.4-5.6zm-1.2 3.9l1-2.3 1 2.3h-2zm8.9 1.2h-2.5v-4.9c0-.1-.1-.2-.2-.2h-.6c-.1 0-.2.1-.2.2v5.6c0 .1.1.2.2.2H42c.1 0 .2-.1.2-.2v-.5l-.2-.2zm2.5-5.1h-.6c-.1 0-.2.1-.2.2v5.6c0 .1.1.2.2.2h.6c.1 0 .2-.1.2-.2v-5.6c0-.1-.1-.2-.2-.2zm7.4 5.6l-2.6-5.6-.1-.1h-.1s-.1 0-.1.1l-2.6 5.6c-.1.1 0 .2.1.2h.5c.1 0 .2-.1.2-.1.2-.4.3-.8.5-1.1h2.7l.5 1.1c0 .1.1.1.2.1h.5c.2.1.3 0 .3-.2zm-3.8-1.7l1-2.3 1 2.3h-2z"/></svg>