<?xml version="1.0" encoding="utf-8"?>
<!-- Generator: Adobe Illustrator 21.1.0, SVG Export Plug-In . SVG Version: 6.00 Build 0)  -->
<svg version="1.1" id="Layer_1" xmlns="http://www.w3.org/2000/svg" xmlns:xlink="http://www.w3.org/1999/xlink" x="0px" y="0px"
	 viewBox="0 0 2857.6 2416.3" style="enable-background:new 0 0 2857.6 2416.3;" xml:space="preserve">
<style type="text/css">
	.st0{fill:#091D2F;}
	.st1{fill:#6CC29D;}
	.st2{fill:#FFFFFF;}
	.st3{fill:#7F569C;}
	.st4{fill:#375DA9;}
</style>
<g id="feathers6">
	<g>
		<g>
			
				<ellipse transform="matrix(0.9941 -0.1081 0.1081 0.9941 -123.6255 282.3261)" class="st0" cx="2542.1" cy="1281.4" rx="316.5" ry="204.6"/>
			
				<ellipse transform="matrix(0.9941 -0.1081 0.1081 0.9941 -124.1326 279.2329)" class="st1" cx="2513.4" cy="1284.5" rx="287.6" ry="185.9"/>
			
				<ellipse transform="matrix(0.9941 -0.1081 0.1081 0.9941 -125.1422 273.0739)" class="st2" cx="2456" cy="1290.8" rx="229.9" ry="148.6"/>
			
				<ellipse transform="matrix(0.9941 -0.1081 0.1081 0.9941 -125.5104 270.8269)" class="st3" cx="2435.1" cy="1293" rx="208.9" ry="135"/>
			
				<ellipse transform="matrix(0.9941 -0.1081 0.1081 0.9941 -126.6507 263.8702)" class="st0" cx="2370.4" cy="1300.1" rx="143.8" ry="92.9"/>
			
				<ellipse transform="matrix(0.9941 -0.1081 0.1081 0.9941 -126.881 262.465)" class="st1" cx="2357.3" cy="1301.5" rx="130.6" ry="84.4"/>
			
				<ellipse transform="matrix(0.9941 -0.1081 0.1081 0.9941 -127.3397 259.6671)" class="st2" cx="2331.3" cy="1304.3" rx="104.5" ry="67.5"/>
			
				<ellipse transform="matrix(0.9941 -0.1081 0.1081 0.9941 -127.5069 258.6465)" class="st4" cx="2321.8" cy="1305.3" rx="94.9" ry="61.3"/>
		</g>
		<g>
			
				<ellipse transform="matrix(0.4969 -0.8678 0.8678 0.4969 -507.0237 827.2514)" class="st0" cx="460" cy="850.9" rx="204.6" ry="316.6"/>
			
				<ellipse transform="matrix(0.4969 -0.8678 0.8678 0.4969 -506.8693 856.2936)" class="st1" cx="485.1" cy="865.3" rx="185.9" ry="287.6"/>
			
				<ellipse transform="matrix(0.4969 -0.8678 0.8678 0.4969 -506.5596 914.1212)" class="st2" cx="535.1" cy="894" rx="148.6" ry="230"/>
			
				<ellipse transform="matrix(0.4969 -0.8678 0.8678 0.4969 -506.4476 935.2182)" class="st3" cx="553.4" cy="904.4" rx="135" ry="208.9"/>
			
				<ellipse transform="matrix(0.4969 -0.8678 0.8678 0.4969 -506.0989 1000.5346)" class="st0" cx="609.9" cy="936.8" rx="92.9" ry="143.8"/>
			
				<ellipse transform="matrix(0.4969 -0.8678 0.8678 0.4969 -506.0283 1013.7276)" class="st1" cx="621.3" cy="943.3" rx="84.4" ry="130.6"/>
			
				<ellipse transform="matrix(0.4969 -0.8678 0.8678 0.4969 -505.8881 1039.9968)" class="st2" cx="644" cy="956.3" rx="67.5" ry="104.5"/>
			
				<ellipse transform="matrix(0.4969 -0.8678 0.8678 0.4969 -505.836 1049.5806)" class="st4" cx="652.3" cy="961.1" rx="61.3" ry="94.9"/>
		</g>
		<g>
			
				<ellipse transform="matrix(0.101 -0.9949 0.9949 0.101 -1003.2873 1477.0172)" class="st0" cx="315.6" cy="1293.7" rx="204.6" ry="316.6"/>
			
				<ellipse transform="matrix(0.101 -0.9949 0.9949 0.101 -980.2998 1508.3054)" class="st1" cx="344.4" cy="1296.6" rx="185.9" ry="287.6"/>
			
				<ellipse transform="matrix(0.101 -0.9949 0.9949 0.101 -934.5284 1570.603)" class="st2" cx="401.8" cy="1302.4" rx="148.6" ry="230"/>
			
				<ellipse transform="matrix(0.101 -0.9949 0.9949 0.101 -917.8292 1593.3308)" class="st3" cx="422.7" cy="1304.5" rx="135" ry="208.9"/>
			
				<ellipse transform="matrix(0.101 -0.9949 0.9949 0.101 -866.1302 1663.6959)" class="st0" cx="487.5" cy="1311.1" rx="92.9" ry="143.8"/>
			
				<ellipse transform="matrix(0.101 -0.9949 0.9949 0.101 -855.6866 1677.9086)" class="st1" cx="500.6" cy="1312.4" rx="84.4" ry="130.7"/>
			
				<ellipse transform="matrix(0.101 -0.9949 0.9949 0.101 -834.8944 1706.2091)" class="st2" cx="526.6" cy="1315.1" rx="67.5" ry="104.5"/>
			
				<ellipse transform="matrix(0.101 -0.9949 0.9949 0.101 -827.3082 1716.533)" class="st4" cx="536.2" cy="1316" rx="61.3" ry="94.9"/>
		</g>
		<g>
			
				<ellipse transform="matrix(0.8642 -0.5031 0.5031 0.8642 -99.1877 1322.0507)" class="st0" cx="2399.8" cy="844.8" rx="316.6" ry="204.6"/>
			
				<ellipse transform="matrix(0.8642 -0.5031 0.5031 0.8642 -109.9134 1311.4399)" class="st1" cx="2374.7" cy="859.4" rx="287.6" ry="185.9"/>
			
				<ellipse transform="matrix(0.8642 -0.5031 0.5031 0.8642 -131.2703 1290.3114)" class="st2" cx="2324.9" cy="888.4" rx="229.9" ry="148.6"/>
			
				<ellipse transform="matrix(0.8642 -0.5031 0.5031 0.8642 -139.0612 1282.6034)" class="st3" cx="2306.7" cy="898.9" rx="208.9" ry="135"/>
			
				<ellipse transform="matrix(0.8642 -0.5031 0.5031 0.8642 -163.1835 1258.739)" class="st0" cx="2250.5" cy="931.7" rx="143.8" ry="92.9"/>
			
				<ellipse transform="matrix(0.8642 -0.5031 0.5031 0.8642 -168.056 1253.9189)" class="st1" cx="2239.1" cy="938.3" rx="130.6" ry="84.4"/>
			
				<ellipse transform="matrix(0.8642 -0.5031 0.5031 0.8642 -177.7575 1244.321)" class="st2" cx="2216.5" cy="951.5" rx="104.5" ry="67.5"/>
			
				<ellipse transform="matrix(0.8642 -0.5031 0.5031 0.8642 -181.2969 1240.8199)" class="st4" cx="2208.2" cy="956.3" rx="94.9" ry="61.3"/>
		</g>
		<g>
			
				<ellipse transform="matrix(0.5849 -0.8111 0.8111 0.5849 460.5128 1901.0529)" class="st0" cx="2087.6" cy="500.6" rx="316.6" ry="204.6"/>
			
				<ellipse transform="matrix(0.5849 -0.8111 0.8111 0.5849 434.4355 1897.0649)" class="st1" cx="2070.7" cy="524.1" rx="287.6" ry="185.9"/>
			
				<ellipse transform="matrix(0.5849 -0.8111 0.8111 0.5849 382.51 1889.1246)" class="st2" cx="2036.9" cy="570.8" rx="230" ry="148.6"/>
			
				<ellipse transform="matrix(0.5849 -0.8111 0.8111 0.5849 363.567 1886.2275)" class="st3" cx="2024.6" cy="587.9" rx="208.9" ry="135"/>
			
				<ellipse transform="matrix(0.5849 -0.8111 0.8111 0.5849 304.9173 1877.2583)" class="st0" cx="1986.5" cy="640.7" rx="143.8" ry="92.9"/>
			
				<ellipse transform="matrix(0.5849 -0.8111 0.8111 0.5849 293.0702 1875.4465)" class="st1" cx="1978.9" cy="651.4" rx="130.6" ry="84.4"/>
			
				<ellipse transform="matrix(0.5849 -0.8111 0.8111 0.5849 269.4828 1871.8392)" class="st2" cx="1963.5" cy="672.6" rx="104.5" ry="67.5"/>
			
				<ellipse transform="matrix(0.5849 -0.8111 0.8111 0.5849 260.8768 1870.5237)" class="st4" cx="1957.9" cy="680.4" rx="94.9" ry="61.3"/>
		</g>
		<g>
			
				<ellipse transform="matrix(0.2044 -0.9789 0.9789 0.2044 1016.1056 1876.2365)" class="st0" cx="1662.3" cy="313" rx="316.6" ry="204.6"/>
			
				<ellipse transform="matrix(0.2044 -0.9789 0.9789 0.2044 983.6544 1892.9911)" class="st1" cx="1656.4" cy="341.4" rx="287.6" ry="185.9"/>
			
				<ellipse transform="matrix(0.2044 -0.9789 0.9789 0.2044 919.0371 1926.3541)" class="st2" cx="1644.6" cy="397.8" rx="230" ry="148.6"/>
			
				<ellipse transform="matrix(0.2044 -0.9789 0.9789 0.2044 895.4635 1938.5251)" class="st3" cx="1640.3" cy="418.4" rx="208.9" ry="135"/>
			
				<ellipse transform="matrix(0.2044 -0.9789 0.9789 0.2044 822.4795 1976.2073)" class="st0" cx="1627" cy="482.1" rx="143.8" ry="92.9"/>
			
				<ellipse transform="matrix(0.2044 -0.9789 0.9789 0.2044 807.7379 1983.8186)" class="st1" cx="1624.3" cy="495" rx="130.7" ry="84.4"/>
			
				<ellipse transform="matrix(0.2044 -0.9789 0.9789 0.2044 778.3843 1998.9734)" class="st2" cx="1618.9" cy="520.6" rx="104.5" ry="67.5"/>
			
				<ellipse transform="matrix(0.2044 -0.9789 0.9789 0.2044 767.6749 2004.502)" class="st4" cx="1617" cy="530" rx="94.9" ry="61.3"/>
		</g>
		<g>
			
				<ellipse transform="matrix(0.9774 -0.2114 0.2114 0.9774 -39.0328 259.7961)" class="st0" cx="1195.5" cy="312.5" rx="204.6" ry="316.6"/>
			
				<ellipse transform="matrix(0.9774 -0.2114 0.2114 0.9774 -44.877 261.7296)" class="st1" cx="1201.6" cy="340.8" rx="185.9" ry="287.6"/>
			
				<ellipse transform="matrix(0.9774 -0.2114 0.2114 0.9774 -56.5137 265.5796)" class="st2" cx="1213.8" cy="397.1" rx="148.6" ry="230"/>
			
				<ellipse transform="matrix(0.9774 -0.2114 0.2114 0.9774 -60.7589 266.9841)" class="st3" cx="1218.3" cy="417.7" rx="135" ry="208.9"/>
			
				<ellipse transform="matrix(0.9774 -0.2114 0.2114 0.9774 -73.9026 271.3327)" class="st0" cx="1232" cy="481.3" rx="92.9" ry="143.8"/>
			
				<ellipse transform="matrix(0.9774 -0.2114 0.2114 0.9774 -76.5573 272.211)" class="st1" cx="1234.8" cy="494.2" rx="84.4" ry="130.7"/>
			
				<ellipse transform="matrix(0.9774 -0.2114 0.2114 0.9774 -81.8436 273.9599)" class="st2" cx="1240.4" cy="519.8" rx="67.5" ry="104.5"/>
			
				<ellipse transform="matrix(0.9774 -0.2114 0.2114 0.9774 -83.7719 274.598)" class="st4" cx="1242.4" cy="529.1" rx="61.3" ry="94.9"/>
		</g>
		<g>
			
				<ellipse transform="matrix(0.8069 -0.5907 0.5907 0.8069 -147.9118 551.0317)" class="st0" cx="768.8" cy="501.7" rx="204.6" ry="316.6"/>
			
				<ellipse transform="matrix(0.8069 -0.5907 0.5907 0.8069 -158.4088 565.6452)" class="st1" cx="785.9" cy="525.1" rx="185.9" ry="287.6"/>
			
				<ellipse transform="matrix(0.8069 -0.5907 0.5907 0.8069 -179.3111 594.7434)" class="st2" cx="820" cy="571.6" rx="148.6" ry="230"/>
			
				<ellipse transform="matrix(0.8069 -0.5907 0.5907 0.8069 -186.9365 605.3592)" class="st3" cx="832.4" cy="588.6" rx="135" ry="208.9"/>
			
				<ellipse transform="matrix(0.8069 -0.5907 0.5907 0.8069 -210.5455 638.2254)" class="st0" cx="870.9" cy="641.1" rx="92.9" ry="143.8"/>
			
				<ellipse transform="matrix(0.8069 -0.5907 0.5907 0.8069 -215.3138 644.8639)" class="st1" cx="878.6" cy="651.7" rx="84.4" ry="130.7"/>
			
				<ellipse transform="matrix(0.8069 -0.5907 0.5907 0.8069 -224.8088 658.0823)" class="st2" cx="894.1" cy="672.9" rx="67.5" ry="104.5"/>
			
				<ellipse transform="matrix(0.8069 -0.5907 0.5907 0.8069 -228.2731 662.9047)" class="st4" cx="899.8" cy="680.6" rx="61.3" ry="94.9"/>
		</g>
		<g>
			
				<ellipse transform="matrix(0.95 -0.3124 0.3124 0.95 -529.7906 202.0867)" class="st0" cx="365.8" cy="1754.6" rx="316.6" ry="204.6"/>
			
				<ellipse transform="matrix(0.95 -0.3124 0.3124 0.95 -525.5885 210.2262)" class="st1" cx="393.3" cy="1745.5" rx="287.6" ry="185.9"/>
			
				<ellipse transform="matrix(0.95 -0.3124 0.3124 0.95 -517.2211 226.4341)" class="st2" cx="448.1" cy="1727.5" rx="230" ry="148.6"/>
			
				<ellipse transform="matrix(0.95 -0.3124 0.3124 0.95 -514.1686 232.3469)" class="st3" cx="468.1" cy="1720.9" rx="208.9" ry="135"/>
			
				<ellipse transform="matrix(0.95 -0.3124 0.3124 0.95 -504.7177 250.6536)" class="st0" cx="529.9" cy="1700.6" rx="143.8" ry="92.9"/>
			
				<ellipse transform="matrix(0.95 -0.3124 0.3124 0.95 -502.8087 254.3513)" class="st1" cx="542.4" cy="1696.5" rx="130.7" ry="84.4"/>
			
				<ellipse transform="matrix(0.95 -0.3124 0.3124 0.95 -499.0078 261.7138)" class="st2" cx="567.3" cy="1688.3" rx="104.5" ry="67.5"/>
			
				<ellipse transform="matrix(0.95 -0.3124 0.3124 0.95 -497.6209 264.4)" class="st4" cx="576.4" cy="1685.3" rx="94.9" ry="61.3"/>
		</g>
		<g>
			
				<ellipse transform="matrix(0.7408 -0.6718 0.6718 0.7408 -1292.3927 961.1859)" class="st0" cx="599.2" cy="2155.1" rx="316.6" ry="204.6"/>
			
				<ellipse transform="matrix(0.7408 -0.6718 0.6718 0.7408 -1273.7657 970.5513)" class="st1" cx="620.6" cy="2135.6" rx="287.6" ry="185.9"/>
			
				<ellipse transform="matrix(0.7408 -0.6718 0.6718 0.7408 -1236.6764 989.1992)" class="st2" cx="663.3" cy="2096.9" rx="230" ry="148.6"/>
			
				<ellipse transform="matrix(0.7408 -0.6718 0.6718 0.7408 -1223.1448 996.0024)" class="st3" cx="678.9" cy="2082.8" rx="208.9" ry="135"/>
			
				<ellipse transform="matrix(0.7408 -0.6718 0.6718 0.7408 -1181.2521 1017.0657)" class="st0" cx="727.1" cy="2039" rx="143.8" ry="92.9"/>
			
				<ellipse transform="matrix(0.7408 -0.6718 0.6718 0.7408 -1172.7906 1021.3205)" class="st1" cx="736.9" cy="2030.2" rx="130.7" ry="84.4"/>
			
				<ellipse transform="matrix(0.7408 -0.6718 0.6718 0.7408 -1155.9421 1029.7917)" class="st2" cx="756.3" cy="2012.6" rx="104.5" ry="67.5"/>
			
				<ellipse transform="matrix(0.7408 -0.6718 0.6718 0.7408 -1149.7953 1032.8826)" class="st4" cx="763.4" cy="2006.2" rx="94.9" ry="61.3"/>
		</g>
		<g>
			
				<ellipse transform="matrix(0.3056 -0.9522 0.9522 0.3056 71.2707 3588.9753)" class="st0" cx="2496.3" cy="1745.6" rx="204.6" ry="316.5"/>
			
				<ellipse transform="matrix(0.3056 -0.9522 0.9522 0.3056 60.5559 3556.5825)" class="st1" cx="2468.7" cy="1736.8" rx="185.9" ry="287.6"/>
			
				<ellipse transform="matrix(0.3056 -0.9522 0.9522 0.3056 39.22 3492.0815)" class="st2" cx="2413.8" cy="1719.2" rx="148.6" ry="229.9"/>
			
				<ellipse transform="matrix(0.3056 -0.9522 0.9522 0.3056 31.4362 3468.5513)" class="st3" cx="2393.8" cy="1712.7" rx="135" ry="208.9"/>
			
				<ellipse transform="matrix(0.3056 -0.9522 0.9522 0.3056 7.3379 3395.697)" class="st0" cx="2331.8" cy="1692.8" rx="92.9" ry="143.8"/>
			
				<ellipse transform="matrix(0.3056 -0.9522 0.9522 0.3056 2.4709 3380.9817)" class="st1" cx="2319.3" cy="1688.8" rx="84.4" ry="130.6"/>
			
				<ellipse transform="matrix(0.3056 -0.9522 0.9522 0.3056 -7.2211 3351.6804)" class="st2" cx="2294.3" cy="1680.8" rx="67.5" ry="104.5"/>
			
				<ellipse transform="matrix(0.3056 -0.9522 0.9522 0.3056 -10.7565 3340.9912)" class="st4" cx="2285.2" cy="1677.9" rx="61.3" ry="94.9"/>
		</g>
		<g>
			
				<ellipse transform="matrix(0.6665 -0.7455 0.7455 0.6665 -848.8827 2406.8413)" class="st0" cx="2265.7" cy="2152.2" rx="204.6" ry="316.6"/>
			
				<ellipse transform="matrix(0.6665 -0.7455 0.7455 0.6665 -841.6946 2384.314)" class="st1" cx="2244.1" cy="2132.9" rx="185.9" ry="287.6"/>
			
				<ellipse transform="matrix(0.6665 -0.7455 0.7455 0.6665 -827.3815 2339.4568)" class="st2" cx="2201.1" cy="2094.5" rx="148.6" ry="230"/>
			
				<ellipse transform="matrix(0.6665 -0.7455 0.7455 0.6665 -822.1603 2323.0923)" class="st3" cx="2185.4" cy="2080.5" rx="135" ry="208.9"/>
			
				<ellipse transform="matrix(0.6665 -0.7455 0.7455 0.6665 -805.9948 2272.4265)" class="st0" cx="2136.9" cy="2037.1" rx="92.9" ry="143.8"/>
			
				<ellipse transform="matrix(0.6665 -0.7455 0.7455 0.6665 -802.7291 2262.1934)" class="st1" cx="2127.1" cy="2028.3" rx="84.4" ry="130.6"/>
			
				<ellipse transform="matrix(0.6665 -0.7455 0.7455 0.6665 -796.2277 2241.8162)" class="st2" cx="2107.6" cy="2010.9" rx="67.5" ry="104.5"/>
			
				<ellipse transform="matrix(0.6665 -0.7455 0.7455 0.6665 -793.856 2234.3823)" class="st4" cx="2100.4" cy="2004.5" rx="61.3" ry="94.9"/>
		</g>
	</g>
</g>
<g id="Layer_1_1_">
</g>
</svg>
