<?xml version="1.0" encoding="utf-8"?>
<!-- Generator: Adobe Illustrator 21.1.0, SVG Export Plug-In . SVG Version: 6.00 Build 0)  -->
<svg version="1.1" id="Layer_1" xmlns="http://www.w3.org/2000/svg" xmlns:xlink="http://www.w3.org/1999/xlink" x="0px" y="0px"
	 viewBox="0 0 1703.9 1330.1" style="enable-background:new 0 0 1703.9 1330.1;" xml:space="preserve">
<style type="text/css">
	.st0{fill:#091D2F;}
	.st1{fill:#6CC29D;}
	.st2{fill:#FFFFFF;}
	.st3{fill:#7F569C;}
	.st4{fill:#375DA9;}
</style>
<g id="feathers5">
	<g>
		<g>
			
				<ellipse transform="matrix(0.9511 -0.309 0.309 0.9511 -127.1146 490.8404)" class="st0" cx="1486.1" cy="646.7" rx="188.7" ry="122"/>
			
				<ellipse transform="matrix(0.9511 -0.309 0.309 0.9511 -129.566 486.0291)" class="st1" cx="1469.7" cy="652.1" rx="171.5" ry="110.8"/>
			
				<ellipse transform="matrix(0.9511 -0.309 0.309 0.9511 -134.4473 476.4485)" class="st2" cx="1437" cy="662.7" rx="137.1" ry="88.6"/>
			
				<ellipse transform="matrix(0.9511 -0.309 0.309 0.9511 -136.2279 472.9531)" class="st3" cx="1425.1" cy="666.6" rx="124.6" ry="80.5"/>
			
				<ellipse transform="matrix(0.9511 -0.309 0.309 0.9511 -141.7413 462.1317)" class="st0" cx="1388.2" cy="678.6" rx="85.7" ry="55.4"/>
			
				<ellipse transform="matrix(0.9511 -0.309 0.309 0.9511 -142.8548 459.946)" class="st1" cx="1380.7" cy="681" rx="77.9" ry="50.3"/>
			
				<ellipse transform="matrix(0.9511 -0.309 0.309 0.9511 -145.0724 455.5938)" class="st2" cx="1365.9" cy="685.8" rx="62.3" ry="40.3"/>
			
				<ellipse transform="matrix(0.9511 -0.309 0.309 0.9511 -145.8813 454.006)" class="st4" cx="1360.4" cy="687.6" rx="56.6" ry="36.6"/>
		</g>
		<g>
			
				<ellipse transform="matrix(0.309 -0.9511 0.9511 0.309 -466.3108 656.3322)" class="st0" cx="218.5" cy="649.1" rx="122" ry="188.7"/>
			
				<ellipse transform="matrix(0.309 -0.9511 0.9511 0.309 -460.039 675.6299)" class="st1" cx="234.9" cy="654.4" rx="110.8" ry="171.5"/>
			
				<ellipse transform="matrix(0.309 -0.9511 0.9511 0.309 -447.5515 714.0544)" class="st2" cx="267.6" cy="665" rx="88.6" ry="137.1"/>
			
				<ellipse transform="matrix(0.309 -0.9511 0.9511 0.309 -442.9954 728.0729)" class="st3" cx="279.5" cy="668.9" rx="80.5" ry="124.6"/>
			
				<ellipse transform="matrix(0.309 -0.9511 0.9511 0.309 -428.8906 771.4742)" class="st0" cx="316.5" cy="680.9" rx="55.4" ry="85.7"/>
			
				<ellipse transform="matrix(0.309 -0.9511 0.9511 0.309 -426.0419 780.2404)" class="st1" cx="323.9" cy="683.3" rx="50.3" ry="77.9"/>
			
				<ellipse transform="matrix(0.309 -0.9511 0.9511 0.309 -420.3701 797.6954)" class="st2" cx="338.8" cy="688.1" rx="40.3" ry="62.3"/>
			
				<ellipse transform="matrix(0.309 -0.9511 0.9511 0.309 -418.3007 804.0631)" class="st4" cx="344.2" cy="689.9" rx="36.6" ry="56.6"/>
		</g>
		<g>
			
				<ellipse transform="matrix(0.9945 -0.1045 0.1045 0.9945 -95.641 24.7237)" class="st0" cx="188.1" cy="925.1" rx="188.7" ry="122"/>
			
				<ellipse transform="matrix(0.9945 -0.1045 0.1045 0.9945 -95.3585 26.5077)" class="st1" cx="205.3" cy="923.3" rx="171.5" ry="110.8"/>
			
				<ellipse transform="matrix(0.9945 -0.1045 0.1045 0.9945 -94.796 30.06)" class="st2" cx="239.5" cy="919.7" rx="137.1" ry="88.6"/>
			
				<ellipse transform="matrix(0.9945 -0.1045 0.1045 0.9945 -94.5909 31.3559)" class="st3" cx="251.9" cy="918.4" rx="124.5" ry="80.5"/>
			
				<ellipse transform="matrix(0.9945 -0.1045 0.1045 0.9945 -93.9555 35.3682)" class="st0" cx="290.5" cy="914.3" rx="85.7" ry="55.4"/>
			
				<ellipse transform="matrix(0.9945 -0.1045 0.1045 0.9945 -93.8272 36.1786)" class="st1" cx="298.3" cy="913.5" rx="77.9" ry="50.3"/>
			
				<ellipse transform="matrix(0.9945 -0.1045 0.1045 0.9945 -93.5717 37.7922)" class="st2" cx="313.9" cy="911.8" rx="62.3" ry="40.2"/>
			
				<ellipse transform="matrix(0.9945 -0.1045 0.1045 0.9945 -93.4785 38.381)" class="st4" cx="319.5" cy="911.3" rx="56.6" ry="36.6"/>
		</g>
		<g>
			
				<ellipse transform="matrix(0.7431 -0.6691 0.6691 0.7431 72.8585 1008.1896)" class="st0" cx="1349.6" cy="409.2" rx="188.7" ry="122"/>
			
				<ellipse transform="matrix(0.7431 -0.6691 0.6691 0.7431 61.8365 1002.5728)" class="st1" cx="1336.8" cy="420.7" rx="171.4" ry="110.8"/>
			
				<ellipse transform="matrix(0.7431 -0.6691 0.6691 0.7431 39.8881 991.3893)" class="st2" cx="1311.3" cy="443.7" rx="137.1" ry="88.6"/>
			
				<ellipse transform="matrix(0.7431 -0.6691 0.6691 0.7431 31.8821 987.309)" class="st3" cx="1301.9" cy="452.1" rx="124.5" ry="80.5"/>
			
				<ellipse transform="matrix(0.7431 -0.6691 0.6691 0.7431 7.092 974.6774)" class="st0" cx="1273.1" cy="478.1" rx="85.7" ry="55.4"/>
			
				<ellipse transform="matrix(0.7431 -0.6691 0.6691 0.7431 2.0849 972.1262)" class="st1" cx="1267.3" cy="483.3" rx="77.9" ry="50.3"/>
			
				<ellipse transform="matrix(0.7431 -0.6691 0.6691 0.7431 -7.8856 967.0457)" class="st2" cx="1255.7" cy="493.8" rx="62.3" ry="40.2"/>
			
				<ellipse transform="matrix(0.7431 -0.6691 0.6691 0.7431 -11.5222 965.1925)" class="st4" cx="1251.4" cy="497.6" rx="56.6" ry="36.6"/>
		</g>
		<g>
			
				<ellipse transform="matrix(0.4067 -0.9136 0.9136 0.4067 442.6531 1174.3479)" class="st0" cx="1125.5" cy="246.4" rx="188.7" ry="122"/>
			
				<ellipse transform="matrix(0.4067 -0.9136 0.9136 0.4067 424.0841 1177.2891)" class="st1" cx="1118.5" cy="262.1" rx="171.4" ry="110.8"/>
			
				<ellipse transform="matrix(0.4067 -0.9136 0.9136 0.4067 387.107 1183.1434)" class="st2" cx="1104.5" cy="293.5" rx="137.1" ry="88.6"/>
			
				<ellipse transform="matrix(0.4067 -0.9136 0.9136 0.4067 373.6187 1185.2799)" class="st3" cx="1099.4" cy="305" rx="124.5" ry="80.5"/>
			
				<ellipse transform="matrix(0.4067 -0.9136 0.9136 0.4067 331.8539 1191.8925)" class="st0" cx="1083.6" cy="340.4" rx="85.7" ry="55.4"/>
			
				<ellipse transform="matrix(0.4067 -0.9136 0.9136 0.4067 323.4185 1193.228)" class="st1" cx="1080.4" cy="347.6" rx="77.9" ry="50.3"/>
			
				<ellipse transform="matrix(0.4067 -0.9136 0.9136 0.4067 306.6218 1195.8889)" class="st2" cx="1074" cy="361.9" rx="62.3" ry="40.2"/>
			
				<ellipse transform="matrix(0.4067 -0.9136 0.9136 0.4067 300.4937 1196.8589)" class="st4" cx="1071.7" cy="367.1" rx="56.6" ry="36.6"/>
		</g>
		<g>
			<ellipse class="st0" cx="854.6" cy="188.7" rx="117.9" ry="188.7"/>
			<ellipse class="st1" cx="854.6" cy="206" rx="107.1" ry="171.5"/>
			<ellipse class="st2" cx="854.6" cy="240.3" rx="85.6" ry="137.1"/>
			<ellipse class="st3" cx="854.6" cy="252.9" rx="77.8" ry="124.5"/>
			<ellipse class="st0" cx="854.6" cy="291.7" rx="53.6" ry="85.7"/>
			<ellipse class="st1" cx="854.6" cy="299.5" rx="48.7" ry="77.9"/>
			<ellipse class="st2" cx="854.6" cy="315.2" rx="38.9" ry="62.3"/>
			<ellipse class="st4" cx="854.6" cy="320.9" rx="35.3" ry="56.6"/>
		</g>
		<g>
			
				<ellipse transform="matrix(0.9136 -0.4067 0.4067 0.9136 -49.44 257.909)" class="st0" cx="582" cy="245.3" rx="122" ry="188.7"/>
			
				<ellipse transform="matrix(0.9136 -0.4067 0.4067 0.9136 -55.2461 262.1272)" class="st1" cx="589" cy="261" rx="110.8" ry="171.4"/>
			
				<ellipse transform="matrix(0.9136 -0.4067 0.4067 0.9136 -66.8077 270.5264)" class="st2" cx="603" cy="292.4" rx="88.6" ry="137.1"/>
			
				<ellipse transform="matrix(0.9136 -0.4067 0.4067 0.9136 -71.0254 273.5905)" class="st3" cx="608.1" cy="303.9" rx="80.5" ry="124.5"/>
			
				<ellipse transform="matrix(0.9136 -0.4067 0.4067 0.9136 -84.0843 283.0772)" class="st0" cx="623.9" cy="339.3" rx="55.4" ry="85.7"/>
			
				<ellipse transform="matrix(0.9136 -0.4067 0.4067 0.9136 -86.7219 284.9933)" class="st1" cx="627.1" cy="346.5" rx="50.3" ry="77.9"/>
			
				<ellipse transform="matrix(0.9136 -0.4067 0.4067 0.9136 -91.9737 288.809)" class="st2" cx="633.4" cy="360.8" rx="40.2" ry="62.3"/>
			
				<ellipse transform="matrix(0.9136 -0.4067 0.4067 0.9136 -93.8898 290.2006)" class="st4" cx="635.7" cy="366" rx="36.6" ry="56.6"/>
		</g>
		<g>
			
				<ellipse transform="matrix(0.6691 -0.7431 0.7431 0.6691 -185.209 399.5138)" class="st0" cx="356.1" cy="407.8" rx="122" ry="188.7"/>
			
				<ellipse transform="matrix(0.6691 -0.7431 0.7431 0.6691 -189.5485 412.8671)" class="st1" cx="368.9" cy="419.3" rx="110.8" ry="171.4"/>
			
				<ellipse transform="matrix(0.6691 -0.7431 0.7431 0.6691 -198.1892 439.4553)" class="st2" cx="394.4" cy="442.3" rx="88.6" ry="137.1"/>
			
				<ellipse transform="matrix(0.6691 -0.7431 0.7431 0.6691 -201.3412 449.1554)" class="st3" cx="403.7" cy="450.7" rx="80.5" ry="124.5"/>
			
				<ellipse transform="matrix(0.6691 -0.7431 0.7431 0.6691 -211.1005 479.1867)" class="st0" cx="432.6" cy="476.7" rx="55.4" ry="85.7"/>
			
				<ellipse transform="matrix(0.6691 -0.7431 0.7431 0.6691 -213.0717 485.2528)" class="st1" cx="438.4" cy="481.9" rx="50.3" ry="77.9"/>
			
				<ellipse transform="matrix(0.6691 -0.7431 0.7431 0.6691 -216.9965 497.3314)" class="st2" cx="450" cy="492.4" rx="40.2" ry="62.3"/>
			
				<ellipse transform="matrix(0.6691 -0.7431 0.7431 0.6691 -218.4291 501.7373)" class="st4" cx="454.3" cy="496.2" rx="36.6" ry="56.6"/>
		</g>
		<g>
			<ellipse transform="matrix(0.866 -0.5 0.5 0.866 -557.2637 295.9503)" class="st0" cx="273.6" cy="1187.8" rx="188.7" ry="122"/>
			
				<ellipse transform="matrix(0.866 -0.5 0.5 0.866 -550.9459 302.2681)" class="st1" cx="288.6" cy="1179.2" rx="171.5" ry="110.8"/>
			<ellipse transform="matrix(0.866 -0.5 0.5 0.866 -538.366 314.8477)" class="st2" cx="318.3" cy="1162" rx="137.1" ry="88.6"/>
			
				<ellipse transform="matrix(0.866 -0.5 0.5 0.866 -533.7764 319.4372)" class="st3" cx="329.2" cy="1155.7" rx="124.5" ry="80.5"/>
			<ellipse transform="matrix(0.866 -0.5 0.5 0.866 -519.5673 333.6461)" class="st0" cx="362.8" cy="1136.3" rx="85.7" ry="55.4"/>
			<ellipse transform="matrix(0.866 -0.5 0.5 0.866 -516.6977 336.5161)" class="st1" cx="369.6" cy="1132.4" rx="77.9" ry="50.3"/>
			<ellipse transform="matrix(0.866 -0.5 0.5 0.866 -510.9827 342.2305)" class="st2" cx="383.1" cy="1124.6" rx="62.3" ry="40.2"/>
			<ellipse transform="matrix(0.866 -0.5 0.5 0.866 -508.8978 344.3153)" class="st4" cx="388" cy="1121.7" rx="56.6" ry="36.6"/>
		</g>
		<g>
			
				<ellipse transform="matrix(0.1045 -0.9945 0.9945 0.1045 439.4647 2334.0586)" class="st0" cx="1515.8" cy="923" rx="122" ry="188.7"/>
			
				<ellipse transform="matrix(0.1045 -0.9945 0.9945 0.1045 425.8878 2315.3713)" class="st1" cx="1498.7" cy="921.2" rx="110.8" ry="171.5"/>
			
				<ellipse transform="matrix(0.1045 -0.9945 0.9945 0.1045 398.8542 2278.1599)" class="st2" cx="1464.5" cy="917.6" rx="88.6" ry="137.1"/>
			
				<ellipse transform="matrix(0.1045 -0.9945 0.9945 0.1045 388.9918 2264.5859)" class="st3" cx="1452" cy="916.3" rx="80.5" ry="124.5"/>
			
				<ellipse transform="matrix(0.1045 -0.9945 0.9945 0.1045 358.4565 2222.5564)" class="st0" cx="1413.4" cy="912.2" rx="55.4" ry="85.7"/>
			
				<ellipse transform="matrix(0.1045 -0.9945 0.9945 0.1045 352.2886 2214.0669)" class="st1" cx="1405.6" cy="911.4" rx="50.3" ry="77.9"/>
			
				<ellipse transform="matrix(0.1045 -0.9945 0.9945 0.1045 340.0067 2197.1641)" class="st2" cx="1390.1" cy="909.8" rx="40.2" ry="62.3"/>
			
				<ellipse transform="matrix(0.1045 -0.9945 0.9945 0.1045 335.5274 2190.9976)" class="st4" cx="1384.4" cy="909.2" rx="36.6" ry="56.6"/>
		</g>
		<g>
			
				<ellipse transform="matrix(0.5 -0.866 0.866 0.5 -313.8509 1833.2622)" class="st0" cx="1430.7" cy="1188.4" rx="122" ry="188.7"/>
			
				<ellipse transform="matrix(0.5 -0.866 0.866 0.5 -313.8501 1816.002)" class="st1" cx="1415.8" cy="1179.8" rx="110.8" ry="171.5"/>
			
				<ellipse transform="matrix(0.5 -0.866 0.866 0.5 -313.8497 1781.6329)" class="st2" cx="1386" cy="1162.6" rx="88.6" ry="137.1"/>
			
				<ellipse transform="matrix(0.5 -0.866 0.866 0.5 -313.8486 1769.0948)" class="st3" cx="1375.2" cy="1156.4" rx="80.5" ry="124.5"/>
			
				<ellipse transform="matrix(0.5 -0.866 0.866 0.5 -313.8473 1730.2753)" class="st0" cx="1341.6" cy="1136.9" rx="55.4" ry="85.7"/>
			<ellipse transform="matrix(0.5 -0.866 0.866 0.5 -313.8467 1722.4351)" class="st1" cx="1334.8" cy="1133" rx="50.3" ry="77.9"/>
			
				<ellipse transform="matrix(0.5 -0.866 0.866 0.5 -313.8462 1706.8218)" class="st2" cx="1321.2" cy="1125.2" rx="40.2" ry="62.3"/>
			
				<ellipse transform="matrix(0.5 -0.866 0.866 0.5 -313.8463 1701.1259)" class="st4" cx="1316.3" cy="1122.4" rx="36.6" ry="56.6"/>
		</g>
	</g>
</g>
<g id="Layer_1_1_">
</g>
</svg>
