<?xml version="1.0" encoding="utf-8"?>
<!-- Generator: Adobe Illustrator 17.0.0, SVG Export Plug-In . SVG Version: 6.00 Build 0)  -->
<!DOCTYPE svg PUBLIC "-//W3C//DTD SVG 1.1//EN" "http://www.w3.org/Graphics/SVG/1.1/DTD/svg11.dtd">
<svg version="1.1" id="Layer_1" xmlns="http://www.w3.org/2000/svg" xmlns:xlink="http://www.w3.org/1999/xlink" x="0px" y="0px"
	 width="152.619px" height="29.435px" viewBox="0 0 152.619 29.435" enable-background="new 0 0 152.619 29.435"
	 xml:space="preserve">
<path fill="#FFFFFF" d="M15.41,17.017c0,0.92-0.153,1.84-0.46,2.759c-0.307,0.767-0.767,1.533-1.38,2.146s-1.38,1.073-2.146,1.38
	c-0.92,0.307-1.84,0.46-2.76,0.46H1.459V0.613h6.899c1.993,0,3.679,0.46,4.906,1.533c1.226,1.073,1.84,2.453,1.84,4.139
	c0,1.226-0.307,2.3-0.767,3.219c-0.613,0.92-1.38,1.686-2.606,2.146c0.613,0.153,1.226,0.46,1.686,0.767
	c0.46,0.307,0.92,0.767,1.38,1.226c0.307,0.46,0.613,1.073,0.92,1.686C15.41,15.791,15.41,16.404,15.41,17.017z M11.884,6.592
	c0-1.226-0.307-2.146-1.073-2.76s-1.686-0.92-2.913-0.92H4.218v7.665h3.679c1.226,0,2.146-0.307,2.913-0.92
	C11.577,8.892,11.884,7.819,11.884,6.592z M12.65,17.017c0-0.613-0.153-1.226-0.307-1.686c-0.153-0.46-0.613-0.92-0.92-1.226
	c-0.307-0.307-0.92-0.613-1.533-0.767s-1.226-0.307-1.84-0.307H4.218v8.125h3.679c0.613,0,1.226,0,1.84-0.153
	c0.613-0.153,1.073-0.307,1.533-0.767c0.46-0.307,0.767-0.767,1.073-1.226C12.497,18.397,12.65,17.784,12.65,17.017z"/>
<path fill="#FFFFFF" d="M22.002,23.609h-2.606V0.46h2.606V23.609z"/>
<path fill="#FFFFFF" d="M34.88,23.609l-0.307-1.226c-0.46,0.46-1.073,0.767-1.84,1.073s-1.533,0.46-2.3,0.46
	c-1.533,0-2.76-0.46-3.679-1.38c-0.92-0.92-1.38-2.146-1.38-3.679c0-0.92,0.153-1.686,0.46-2.453
	c0.307-0.613,0.767-1.226,1.226-1.686c0.613-0.46,1.226-0.767,1.993-1.073s1.533-0.307,2.453-0.307h2.76v-0.613
	c0-1.226-0.307-1.993-0.767-2.453c-0.46-0.46-1.226-0.767-2.453-0.767c-0.613,0-1.38,0.153-2.146,0.307
	c-0.767,0.153-1.533,0.307-2.146,0.613V7.972c0.46-0.153,1.226-0.307,2.146-0.46c0.92-0.153,1.686-0.153,2.453-0.153
	c1.84,0,3.219,0.46,4.139,1.38s1.38,2.146,1.38,3.986v10.885H34.88z M34.42,15.791h-2.606c-1.073,0-1.993,0.153-2.606,0.613
	c-0.613,0.46-0.92,1.226-0.92,2.3c0,0.92,0.307,1.686,0.767,2.146s1.226,0.767,2.146,0.767c0.613,0,1.226-0.153,1.84-0.46
	c0.613-0.307,1.073-0.613,1.533-0.92v-4.446H34.42z"/>
<path fill="#FFFFFF" d="M48.064,21.77c0.613,0,1.38-0.153,1.993-0.307c0.613-0.153,1.226-0.307,1.84-0.613v2.3
	c-0.613,0.307-1.226,0.46-1.84,0.613c-0.767,0.153-1.38,0.153-2.146,0.153c-1.226,0-2.453-0.153-3.373-0.613
	c-0.92-0.46-1.686-0.92-2.3-1.686s-1.073-1.533-1.38-2.606c-0.307-1.073-0.46-2.146-0.46-3.526c0-1.073,0.153-2.146,0.46-3.066
	c0.307-0.92,0.767-1.84,1.38-2.606s1.38-1.38,2.3-1.84c0.92-0.46,1.993-0.767,3.219-0.767c0.767,0,1.38,0,1.993,0.153
	c0.613,0.153,1.226,0.307,1.993,0.46v2.453c-0.46-0.307-1.073-0.46-1.686-0.613c-0.613-0.153-1.226-0.307-1.993-0.307
	s-1.533,0.153-2.146,0.46c-0.613,0.307-1.073,0.767-1.533,1.38c-0.46,0.613-0.613,1.226-0.767,1.993
	c-0.153,0.767-0.307,1.533-0.307,2.3c0,0.767,0.153,1.533,0.307,2.3c0.153,0.767,0.46,1.38,0.767,1.993
	c0.307,0.613,0.92,1.073,1.533,1.38C46.378,21.463,47.144,21.77,48.064,21.77z"/>
<path fill="#FFFFFF" d="M60.789,14.257l6.439,9.352h-3.373l-5.826-8.585h-0.153v8.585H55.27V0.46h2.606v13.491h0.153l5.519-6.132
	h3.526L60.789,14.257z"/>
<path fill="#FFFFFF" d="M79.492,23.609h-2.76V0.46h12.111v2.453h-9.352v7.512h8.432v2.453h-8.432
	C79.492,12.878,79.492,23.609,79.492,23.609z"/>
<path fill="#FFFFFF" d="M94.056,10.272c0.46-0.767,1.073-1.533,1.84-2.146c0.767-0.613,1.686-0.92,2.606-0.92
	c0.307,0,0.613,0,1.073,0v2.146c-0.153,0-0.307,0-0.46,0s-0.307,0-0.46,0c-0.767,0-1.533,0.153-2.3,0.613
	c-0.767,0.46-1.533,0.92-2.146,1.533v11.805h-2.606V7.359h2.3L94.056,10.272z"/>
<path fill="#FFFFFF" d="M101.721,1.84c0-0.46,0.153-0.92,0.46-1.226C102.488,0.307,102.948,0,103.408,0
	c0.46,0,0.92,0.153,1.38,0.613c0.307,0.307,0.613,0.767,0.613,1.226s-0.153,0.92-0.613,1.226c-0.307,0.307-0.767,0.613-1.38,0.613
	c-0.613,0-0.92-0.153-1.226-0.613C101.875,2.76,101.721,2.3,101.721,1.84z M104.941,23.609h-2.606V7.665h2.606V23.609z"/>
<path fill="#FFFFFF" d="M121.498,23.609h-2.3l-0.307-1.38c-0.46,0.46-0.92,0.767-1.686,1.226c-0.613,0.307-1.533,0.613-2.453,0.613
	c-1.073,0-1.993-0.153-2.913-0.613c-0.92-0.46-1.38-0.92-1.993-1.686c-0.46-0.767-0.92-1.533-1.073-2.606
	c-0.307-0.92-0.307-1.993-0.307-3.219c0-1.226,0.153-2.3,0.46-3.373c0.307-1.073,0.613-1.993,1.226-2.76
	c0.46-0.767,1.226-1.38,1.993-1.84c0.767-0.46,1.84-0.613,2.913-0.613c0.767,0,1.533,0.153,2.146,0.46
	c0.613,0.307,1.073,0.613,1.533,0.92V0.46h2.76C121.498,0.46,121.498,23.609,121.498,23.609z M118.892,10.731
	c-0.46-0.307-0.92-0.613-1.533-0.92c-0.46-0.153-1.073-0.307-1.84-0.307c-0.92,0-1.533,0.153-2.146,0.46
	c-0.613,0.307-0.92,0.767-1.38,1.38c-0.307,0.613-0.613,1.226-0.613,1.993c-0.153,0.767-0.153,1.533-0.153,2.3
	c0,0.767,0,1.533,0.153,2.3c0.153,0.767,0.307,1.38,0.767,1.993c0.307,0.613,0.767,0.92,1.226,1.38
	c0.46,0.307,1.226,0.46,1.993,0.46c1.226,0,2.3-0.46,3.373-1.38v-9.658H118.892z"/>
<path fill="#FFFFFF" d="M134.376,23.609l-0.307-1.226c-0.46,0.46-1.073,0.767-1.84,1.073c-0.767,0.307-1.533,0.46-2.3,0.46
	c-1.533,0-2.76-0.46-3.679-1.38s-1.38-2.146-1.38-3.679c0-0.92,0.153-1.686,0.46-2.453c0.307-0.613,0.767-1.226,1.226-1.686
	c0.613-0.46,1.226-0.767,1.993-1.073c0.767-0.307,1.533-0.307,2.453-0.307h2.76v-0.613c0-1.226-0.307-1.993-0.767-2.453
	c-0.46-0.46-1.226-0.767-2.453-0.767c-0.613,0-1.38,0.153-2.146,0.307c-0.767,0.153-1.533,0.307-2.146,0.613V7.972
	c0.46-0.153,1.226-0.307,2.146-0.46c0.92-0.153,1.686-0.153,2.453-0.153c1.84,0,3.219,0.46,4.139,1.38s1.38,2.146,1.38,3.986v10.885
	H134.376z M134.069,15.791h-2.606c-1.073,0-1.993,0.153-2.606,0.613c-0.613,0.46-0.92,1.226-0.92,2.3
	c0,0.92,0.307,1.686,0.767,2.146c0.46,0.46,1.226,0.767,2.146,0.767c0.613,0,1.226-0.153,1.84-0.46
	c0.613-0.307,1.073-0.613,1.533-0.92v-4.446H134.069z"/>
<path fill="#FFFFFF" d="M145.874,19.93l3.986-12.265h2.76L147.1,23.456c-0.307,0.92-0.613,1.686-1.073,2.453s-0.767,1.38-1.38,1.84
	c-0.46,0.46-1.073,0.92-1.84,1.226c-0.613,0.307-1.38,0.46-2.3,0.46c-0.307,0-0.613,0-0.92,0s-0.613-0.153-0.92-0.153v-2.3
	c0.307,0,0.613,0.153,0.92,0.153s0.613,0,0.767,0c0.613,0,1.073-0.153,1.533-0.307c0.46-0.153,0.767-0.46,1.073-0.767
	c0.307-0.307,0.613-0.767,0.767-1.226c0.153-0.46,0.46-0.92,0.767-1.533l-5.826-15.637h2.913L145.874,19.93z"/>
</svg>
