<?xml version="1.0" encoding="utf-8"?>
<!-- Generator: Adobe Illustrator 17.0.0, SVG Export Plug-In . SVG Version: 6.00 Build 0)  -->
<!DOCTYPE svg PUBLIC "-//W3C//DTD SVG 1.1//EN" "http://www.w3.org/Graphics/SVG/1.1/DTD/svg11.dtd">
<svg version="1.1" id="Layer_1" xmlns="http://www.w3.org/2000/svg" xmlns:xlink="http://www.w3.org/1999/xlink" x="0px" y="0px"
	 width="369.5px" height="35px" viewBox="0 0 369.5 35" enable-background="new 0 0 369.5 35" xml:space="preserve">
<path fill="#FFFFFF" d="M16.882,21.816c0,0.92-0.153,1.84-0.46,2.76c-0.307,0.767-0.767,1.533-1.38,2.146
	c-0.613,0.613-1.38,1.073-2.146,1.38c-0.92,0.307-1.84,0.46-2.76,0.46H2.931V5.412H9.83c1.993,0,3.679,0.46,4.906,1.533
	c1.226,1.073,1.84,2.453,1.84,4.139c0,1.226-0.307,2.3-0.767,3.219c-0.613,0.92-1.38,1.686-2.606,2.146
	c0.613,0.153,1.226,0.46,1.686,0.767c0.46,0.307,0.92,0.767,1.38,1.226c0.307,0.46,0.613,1.073,0.92,1.686
	C16.882,20.589,16.882,21.202,16.882,21.816z M13.356,11.391c0-1.226-0.307-2.146-1.073-2.759c-0.767-0.613-1.686-0.92-2.913-0.92
	H5.69v7.665h3.68c1.226,0,2.146-0.307,2.913-0.92C12.896,13.69,13.356,12.617,13.356,11.391z M13.969,21.816
	c0-0.613-0.153-1.226-0.307-1.686c-0.153-0.46-0.613-0.92-0.92-1.226c-0.307-0.307-0.92-0.613-1.533-0.767
	c-0.613-0.153-1.226-0.307-1.84-0.307H5.537v8.125h3.679c0.613,0,1.226,0,1.84-0.153c0.613-0.153,1.073-0.307,1.533-0.767
	c0.46-0.307,0.767-0.767,1.073-1.226C13.816,23.195,13.969,22.582,13.969,21.816z"/>
<path fill="#FFFFFF" d="M18.108,5.105h14.564v2.453h-5.826v20.696h-2.76V7.558H18.26V5.105H18.108z"/>
<path fill="#FFFFFF" d="M56.435,21.816c0,0.92-0.153,1.84-0.46,2.76c-0.307,0.767-0.767,1.533-1.38,2.146
	c-0.613,0.613-1.38,1.073-2.146,1.38c-0.92,0.307-1.84,0.46-2.76,0.46h-7.205V5.412h6.899c1.993,0,3.679,0.46,4.906,1.533
	s1.84,2.453,1.84,4.139c0,1.226-0.307,2.3-0.767,3.219c-0.613,0.92-1.38,1.686-2.606,2.146c0.613,0.153,1.226,0.46,1.686,0.767
	c0.46,0.307,0.92,0.767,1.38,1.226c0.307,0.46,0.613,1.073,0.92,1.686C56.282,20.589,56.435,21.202,56.435,21.816z M52.909,11.391
	c0-1.226-0.307-2.146-1.073-2.759c-0.767-0.613-1.686-0.92-2.913-0.92h-3.679v7.665h3.679c1.226,0,2.146-0.307,2.913-0.92
	C52.449,13.69,52.909,12.617,52.909,11.391z M53.522,21.816c0-0.613-0.153-1.226-0.307-1.686c-0.153-0.46-0.613-0.92-0.92-1.226
	c-0.307-0.307-0.92-0.613-1.533-0.767c-0.613-0.153-1.226-0.307-1.84-0.307H45.09v8.125h3.679c0.613,0,1.226,0,1.84-0.153
	c0.613-0.153,1.073-0.307,1.533-0.767c0.46-0.307,0.767-0.767,1.073-1.226C53.369,23.195,53.522,22.582,53.522,21.816z"/>
<path fill="#FFFFFF" d="M60.114,12.464h2.606v10.731c0,1.073,0.153,1.84,0.613,2.453c0.46,0.613,1.073,0.92,2.146,0.92
	c0.767,0,1.533-0.307,2.146-0.767c0.613-0.46,1.226-0.92,1.84-1.533V12.464h2.76v15.944h-2.3l-0.307-1.993
	c-0.307,0.307-0.613,0.613-0.92,0.767c-0.307,0.307-0.613,0.46-1.073,0.767c-0.46,0.153-0.767,0.46-1.226,0.46
	c-0.46,0.153-1.073,0.153-1.533,0.153c-1.533,0-2.606-0.46-3.373-1.226s-1.226-1.993-1.226-3.526V12.464H60.114z"/>
<path fill="#FFFFFF" d="M85.41,23.962c0,0.767-0.153,1.533-0.46,2.146s-0.613,1.073-1.073,1.533s-1.073,0.613-1.686,0.92
	s-1.38,0.307-1.993,0.307c-0.767,0-1.533,0-2.3-0.153s-1.533-0.46-2.3-0.767v-2.453c0.613,0.307,1.38,0.613,1.993,0.767
	c0.767,0.153,1.533,0.307,2.3,0.307s1.38-0.153,1.993-0.46c0.46-0.307,0.767-0.92,0.767-1.686c0-0.613-0.153-1.073-0.46-1.38
	s-0.767-0.767-1.226-1.073c-0.46-0.307-1.073-0.613-1.533-0.92s-1.073-0.613-1.533-0.92s-0.92-0.767-1.226-1.38
	c-0.307-0.613-0.46-1.226-0.46-2.146c0-0.613,0.153-1.226,0.46-1.84c0.307-0.613,0.613-1.073,1.073-1.38s0.92-0.613,1.533-0.92
	c0.613-0.153,1.226-0.307,1.993-0.307c1.38,0,2.606,0.307,3.833,0.767v2.606c-0.613-0.307-1.226-0.46-1.686-0.767
	c-0.613-0.153-1.226-0.307-1.993-0.307s-1.38,0.153-1.84,0.46s-0.767,0.767-0.767,1.38c0,0.613,0.153,0.92,0.46,1.38
	c0.307,0.307,0.767,0.613,1.226,0.92c0.46,0.307,1.073,0.613,1.686,0.92s1.073,0.613,1.686,1.073s0.92,0.92,1.226,1.38
	C85.256,22.429,85.41,23.195,85.41,23.962z"/>
<path fill="#FFFFFF" d="M88.476,6.638c0-0.46,0.153-0.92,0.46-1.226c0.307-0.307,0.767-0.613,1.226-0.613
	c0.46,0,0.92,0.153,1.38,0.613c0.307,0.307,0.613,0.767,0.613,1.226c0,0.46-0.153,0.92-0.613,1.226
	c-0.307,0.307-0.767,0.613-1.38,0.613s-0.92-0.153-1.226-0.613C88.629,7.558,88.476,7.098,88.476,6.638z M91.695,28.408h-2.606
	V12.464h2.606V28.408z"/>
<path fill="#FFFFFF" d="M108.406,28.408H105.8V17.676c0-1.073-0.153-1.84-0.613-2.453s-1.073-0.92-2.146-0.92
	c-0.767,0-1.533,0.307-2.146,0.767s-1.226,0.92-1.84,1.533v11.805h-2.606V12.464h2.3l0.307,1.993
	c0.767-0.767,1.533-1.38,2.146-1.686c0.767-0.46,1.533-0.613,2.606-0.613c1.533,0,2.606,0.46,3.373,1.226s1.226,1.993,1.226,3.526
	v11.498H108.406z"/>
<path fill="#FFFFFF" d="M114.691,21.202c0,0.767,0.153,1.38,0.307,1.993c0.153,0.613,0.46,1.226,0.767,1.686
	c0.307,0.46,0.92,0.92,1.533,1.226c0.613,0.307,1.38,0.46,2.3,0.46c1.38,0,2.913-0.307,4.446-1.073v2.3
	c-0.613,0.307-1.533,0.613-2.3,0.767c-0.92,0.153-1.686,0.307-2.606,0.307c-1.226,0-2.3-0.153-3.219-0.613
	c-0.92-0.46-1.686-0.92-2.146-1.686c-0.613-0.767-1.073-1.533-1.226-2.606c-0.307-1.073-0.46-2.146-0.46-3.373
	c0-1.073,0.153-2.146,0.46-3.219s0.613-1.84,1.226-2.606c0.613-0.767,1.226-1.38,1.993-1.84s1.84-0.613,2.913-0.613
	c1.073,0,1.993,0.153,2.76,0.613s1.38,0.92,1.84,1.686c0.46,0.767,0.767,1.533,1.073,2.453c0.153,0.92,0.307,1.84,0.307,2.913
	c0,0.307,0,0.613,0,0.92c0,0.153,0,0.46,0,0.613h-9.965v-0.308H114.691z M121.59,18.903c0-0.613,0-1.226-0.153-1.686
	c-0.153-0.613-0.307-1.073-0.46-1.533c-0.307-0.46-0.613-0.767-1.073-1.073c-0.46-0.307-1.073-0.46-1.686-0.46
	s-1.073,0.153-1.533,0.307c-0.46,0.307-0.767,0.613-1.073,0.92c-0.307,0.46-0.613,0.92-0.767,1.533
	c-0.153,0.613-0.307,1.226-0.307,1.84h7.052L121.59,18.903L121.59,18.903z"/>
<path fill="#FFFFFF" d="M136.614,23.962c0,0.767-0.153,1.533-0.46,2.146s-0.613,1.073-1.073,1.533
	c-0.46,0.46-1.073,0.613-1.686,0.92s-1.38,0.307-1.993,0.307c-0.767,0-1.533,0-2.3-0.153s-1.533-0.46-2.3-0.767v-2.453
	c0.613,0.307,1.38,0.613,1.993,0.767c0.767,0.153,1.533,0.307,2.3,0.307s1.38-0.153,1.993-0.46c0.46-0.307,0.767-0.92,0.767-1.686
	c0-0.613-0.153-1.073-0.46-1.38s-0.767-0.767-1.226-1.073c-0.46-0.307-1.073-0.613-1.533-0.92s-1.073-0.613-1.533-0.92
	s-0.92-0.767-1.226-1.38c-0.307-0.613-0.46-1.226-0.46-2.146c0-0.613,0.153-1.226,0.46-1.84c0.307-0.613,0.613-1.073,1.073-1.38
	s0.92-0.613,1.686-0.92c0.613-0.153,1.226-0.307,1.993-0.307c1.38,0,2.606,0.307,3.833,0.767v2.606
	c-0.613-0.307-1.226-0.46-1.686-0.767s-1.226-0.307-1.993-0.307s-1.38,0.153-1.84,0.46s-0.767,0.767-0.767,1.38
	c0,0.613,0.153,0.92,0.46,1.38s0.767,0.613,1.226,0.92c0.46,0.307,1.073,0.613,1.686,0.92s1.073,0.613,1.686,1.073
	c0.46,0.46,0.92,0.92,1.226,1.38C136.768,22.429,136.614,23.195,136.614,23.962z"/>
<path fill="#FFFFFF" d="M148.879,23.962c0,0.767-0.153,1.533-0.46,2.146s-0.613,1.073-1.073,1.533
	c-0.46,0.46-1.073,0.613-1.686,0.92s-1.38,0.307-1.993,0.307c-0.767,0-1.533,0-2.3-0.153s-1.533-0.46-2.3-0.767v-2.453
	c0.613,0.307,1.38,0.613,1.993,0.767c0.767,0.153,1.533,0.307,2.3,0.307s1.38-0.153,1.993-0.46c0.46-0.307,0.767-0.92,0.767-1.686
	c0-0.613-0.153-1.073-0.46-1.38s-0.767-0.767-1.226-1.073c-0.46-0.307-1.073-0.613-1.533-0.92s-1.073-0.613-1.533-0.92
	s-0.92-0.767-1.226-1.38c-0.307-0.613-0.46-1.226-0.46-2.146c0-0.613,0.153-1.226,0.46-1.84c0.307-0.613,0.613-1.073,1.073-1.38
	s0.92-0.613,1.686-0.92c0.613-0.153,1.226-0.307,1.993-0.307c1.38,0,2.606,0.307,3.833,0.767v2.606
	c-0.613-0.307-1.226-0.46-1.686-0.767s-1.226-0.307-1.993-0.307s-1.38,0.153-1.84,0.46c-0.46,0.307-0.767,0.767-0.767,1.38
	c0,0.613,0.153,0.92,0.46,1.38s0.767,0.613,1.226,0.92c0.46,0.307,1.073,0.613,1.686,0.92s1.073,0.613,1.686,1.073
	c0.46,0.46,0.92,0.92,1.226,1.38C149.032,22.429,148.879,23.195,148.879,23.962z"/>
<path fill="#FFFFFF" d="M159.764,14.764h-2.76v-2.3h2.76v-2.453c0-1.686,0.46-3.066,1.533-3.833s2.606-1.226,4.446-1.226
	c0.92,0,1.84,0.153,2.606,0.307c0.767,0.153,1.533,0.307,1.993,0.46v2.3c-0.613-0.307-1.38-0.46-2.146-0.613
	c-0.767-0.153-1.533-0.307-2.3-0.307c-1.073,0-1.84,0.153-2.453,0.613s-0.92,1.073-0.92,2.146v2.453h9.198v15.944h-2.606V14.61
	h-6.439v13.644h-2.606v-13.49H159.764z"/>
<path fill="#FFFFFF" d="M189.198,20.129c0,1.226-0.153,2.453-0.307,3.526c-0.307,1.073-0.613,1.993-1.226,2.759
	c-0.613,0.767-1.226,1.38-2.146,1.84c-0.92,0.46-1.993,0.613-3.373,0.613c-0.46,0-1.073,0-1.533-0.153s-1.073-0.153-1.533-0.307
	s-1.073-0.307-1.533-0.46s-0.92-0.307-1.226-0.613V5.105h2.76v8.892c0.613-0.613,1.226-1.073,1.993-1.38
	c0.613-0.307,1.533-0.613,2.606-0.613s1.993,0.153,2.76,0.613s1.38,1.073,1.84,1.686c0.46,0.613,0.767,1.533,0.92,2.606
	C189.352,17.983,189.198,19.056,189.198,20.129z M186.439,20.283c0-0.767,0-1.38-0.153-2.146c-0.153-0.767-0.307-1.38-0.613-1.84
	s-0.613-0.92-1.226-1.38s-1.073-0.46-1.84-0.46c-0.613,0-1.38,0.153-1.993,0.46c-0.613,0.307-1.226,0.767-1.686,1.38v9.505
	c0.46,0.307,1.073,0.46,1.533,0.613c0.46,0.153,1.073,0.153,1.686,0.153c0.767,0,1.533-0.153,1.993-0.46
	c0.46-0.307,0.92-0.767,1.38-1.38c0.307-0.613,0.613-1.226,0.767-1.993C186.286,21.816,186.439,21.049,186.439,20.283z"/>
<path fill="#FFFFFF" d="M195.484,15.07c0.46-0.767,1.073-1.533,1.84-2.146s1.686-0.92,2.606-0.92c0.307,0,0.613,0,1.073,0v2.146
	c-0.153,0-0.307,0-0.46,0s-0.307,0-0.46,0c-0.767,0-1.533,0.153-2.3,0.613s-1.533,0.92-2.146,1.533v11.805h-2.606V12.157h2.3
	L195.484,15.07z"/>
<path fill="#FFFFFF" d="M204.836,21.202c0,0.767,0.153,1.38,0.307,1.993c0.153,0.613,0.46,1.226,0.767,1.686
	c0.307,0.46,0.92,0.92,1.533,1.226c0.613,0.307,1.38,0.46,2.3,0.46c1.38,0,2.913-0.307,4.446-1.073v2.3
	c-0.613,0.307-1.533,0.613-2.3,0.767c-0.92,0.153-1.686,0.307-2.606,0.307c-1.226,0-2.3-0.153-3.219-0.613
	c-0.92-0.46-1.686-0.92-2.146-1.686c-0.613-0.767-1.073-1.533-1.226-2.606c-0.307-1.073-0.46-2.146-0.46-3.373
	c0-1.073,0.153-2.146,0.46-3.219s0.613-1.84,1.226-2.606c0.613-0.767,1.226-1.38,1.993-1.84s1.84-0.613,2.913-0.613
	s1.993,0.153,2.76,0.613s1.38,0.92,1.84,1.686c0.46,0.767,0.767,1.533,1.073,2.453c0.153,0.92,0.307,1.84,0.307,2.913
	c0,0.307,0,0.613,0,0.92c0,0.153,0,0.46,0,0.613h-9.965v-0.308H204.836z M211.734,18.903c0-0.613,0-1.226-0.153-1.686
	c-0.153-0.613-0.307-1.073-0.46-1.533c-0.307-0.46-0.613-0.767-1.073-1.073c-0.46-0.307-1.073-0.46-1.686-0.46
	s-1.073,0.153-1.533,0.307c-0.46,0.307-0.767,0.613-1.073,0.92c-0.307,0.46-0.613,0.92-0.767,1.533
	c-0.153,0.613-0.307,1.226-0.307,1.84h7.052L211.734,18.903L211.734,18.903z"/>
<path fill="#FFFFFF" d="M237.797,20.129c0,1.226-0.153,2.453-0.307,3.526c-0.307,1.073-0.613,1.993-1.226,2.759
	c-0.613,0.767-1.226,1.38-2.146,1.84c-0.92,0.46-1.993,0.613-3.373,0.613c-0.46,0-1.073,0-1.533-0.153s-1.073-0.153-1.533-0.307
	c-0.46-0.153-1.073-0.307-1.533-0.46s-0.92-0.307-1.226-0.613V5.105h2.76v8.892c0.613-0.613,1.226-1.073,1.993-1.38
	c0.613-0.307,1.533-0.613,2.606-0.613s1.993,0.153,2.76,0.613s1.38,1.073,1.84,1.686c0.46,0.613,0.767,1.533,0.92,2.606
	S237.797,19.056,237.797,20.129z M235.037,20.283c0-0.767,0-1.38-0.153-2.146c-0.153-0.767-0.307-1.38-0.613-1.84
	s-0.613-0.92-1.226-1.38s-1.073-0.46-1.84-0.46c-0.613,0-1.38,0.153-1.993,0.46c-0.613,0.307-1.226,0.767-1.686,1.38v9.505
	c0.46,0.307,1.073,0.46,1.533,0.613c0.46,0.153,1.073,0.153,1.686,0.153c0.767,0,1.533-0.153,1.993-0.46
	c0.46-0.307,0.92-0.767,1.38-1.38c0.307-0.613,0.613-1.226,0.767-1.993C235.037,21.816,235.037,21.049,235.037,20.283z"/>
<path fill="#FFFFFF" d="M244.082,15.07c0.46-0.767,1.073-1.533,1.84-2.146s1.686-0.92,2.606-0.92c0.307,0,0.613,0,1.073,0v2.146
	c-0.153,0-0.307,0-0.46,0s-0.307,0-0.46,0c-0.767,0-1.533,0.153-2.3,0.613s-1.533,0.92-2.146,1.533v11.805h-2.606V12.157h2.3
	L244.082,15.07z"/>
<path fill="#FFFFFF" d="M264.319,20.436c0,1.073-0.153,2.146-0.46,3.219c-0.307,1.073-0.613,1.84-1.226,2.606
	c-0.613,0.767-1.226,1.38-2.146,1.84c-0.92,0.46-1.84,0.613-3.066,0.613s-2.3-0.153-3.066-0.613c-0.92-0.46-1.533-1.073-2.146-1.84
	s-0.92-1.686-1.226-2.606c-0.307-0.92-0.46-1.993-0.46-3.219c0-1.073,0.153-2.146,0.46-3.219s0.613-1.84,1.226-2.606
	c0.613-0.767,1.226-1.38,2.146-1.84s1.84-0.613,3.066-0.613c1.226,0,2.3,0.153,3.066,0.613c0.92,0.46,1.533,1.073,2.146,1.84
	s0.92,1.686,1.226,2.606C264.319,18.29,264.319,19.363,264.319,20.436z M261.559,20.436c0-0.767,0-1.533-0.153-2.146
	c-0.153-0.767-0.307-1.38-0.613-1.993c-0.307-0.613-0.767-1.073-1.226-1.38s-1.226-0.46-2.146-0.46s-1.533,0.153-2.146,0.46
	s-0.92,0.767-1.226,1.38c-0.307,0.613-0.46,1.226-0.613,1.993s-0.153,1.38-0.153,2.146s0,1.533,0.153,2.3s0.307,1.38,0.613,1.993
	c0.307,0.613,0.767,1.073,1.226,1.38c0.46,0.307,1.226,0.46,2.146,0.46c0.92,0,1.533-0.153,2.146-0.46
	c0.46-0.307,0.92-0.767,1.226-1.38c0.307-0.613,0.46-1.226,0.613-1.993S261.559,21.202,261.559,20.436z"/>
<path fill="#FFFFFF" d="M276.277,28.408l-0.307-1.226c-0.46,0.46-1.073,0.767-1.84,1.073c-0.767,0.307-1.533,0.46-2.3,0.46
	c-1.533,0-2.76-0.46-3.679-1.38c-0.92-0.92-1.38-2.146-1.38-3.679c0-0.92,0.153-1.686,0.46-2.453
	c0.307-0.613,0.767-1.226,1.226-1.686c0.46-0.46,1.226-0.767,1.993-1.073c0.767-0.307,1.533-0.307,2.453-0.307h2.76v-0.613
	c0-1.226-0.307-1.993-0.767-2.453s-1.226-0.767-2.453-0.767c-0.613,0-1.38,0.153-2.146,0.307c-0.767,0.153-1.533,0.307-2.146,0.613
	v-2.453c0.613-0.153,1.226-0.307,2.146-0.46c0.92-0.153,1.686-0.153,2.453-0.153c1.84,0,3.219,0.46,4.139,1.38
	s1.38,2.146,1.38,3.986v10.885h-1.992V28.408z M275.817,20.589h-2.606c-1.073,0-1.993,0.153-2.606,0.613
	c-0.613,0.46-0.92,1.226-0.92,2.3c0,0.92,0.307,1.686,0.767,2.146s1.226,0.767,2.146,0.767c0.613,0,1.226-0.153,1.84-0.46
	c0.613-0.307,1.073-0.613,1.533-0.92v-4.446H275.817z"/>
<path fill="#FFFFFF" d="M294.827,28.408h-2.3l-0.307-1.38c-0.46,0.46-0.92,0.767-1.686,1.226c-0.613,0.307-1.533,0.613-2.453,0.613
	c-1.073,0-1.993-0.153-2.913-0.613s-1.38-0.92-1.993-1.686c-0.46-0.767-0.92-1.533-1.073-2.606c-0.307-0.92-0.307-1.993-0.307-3.219
	s0.153-2.3,0.46-3.373c0.307-1.073,0.613-1.993,1.226-2.76c0.46-0.767,1.226-1.38,1.993-1.84s1.84-0.613,2.913-0.613
	c0.767,0,1.533,0.153,2.146,0.46s1.073,0.613,1.533,0.92V5.258h2.76v23.15H294.827z M292.067,15.53
	c-0.46-0.307-0.92-0.613-1.533-0.92s-1.073-0.307-1.84-0.307c-0.92,0-1.533,0.153-2.146,0.46s-0.92,0.767-1.38,1.38
	c-0.307,0.613-0.613,1.226-0.613,1.993c-0.153,0.767-0.153,1.533-0.153,2.3s0,1.533,0.153,2.3s0.307,1.38,0.767,1.993
	c0.307,0.613,0.767,0.92,1.226,1.38c0.46,0.46,1.226,0.46,1.993,0.46c1.226,0,2.3-0.46,3.373-1.38V15.53H292.067z"/>
<path fill="#FFFFFF" d="M312.457,20.129c0,1.226-0.153,2.453-0.307,3.526c-0.307,1.073-0.613,1.993-1.226,2.759
	c-0.613,0.767-1.226,1.38-2.146,1.84c-0.92,0.46-1.993,0.613-3.373,0.613c-0.46,0-1.073,0-1.533-0.153s-1.073-0.153-1.533-0.307
	s-1.073-0.307-1.533-0.46s-0.92-0.307-1.226-0.613V5.105h2.76v8.892c0.613-0.613,1.226-1.073,1.993-1.38
	c0.613-0.307,1.533-0.613,2.606-0.613s1.993,0.153,2.76,0.613s1.38,1.073,1.84,1.686s0.767,1.533,0.92,2.606
	C312.61,17.983,312.457,19.056,312.457,20.129z M309.697,20.283c0-0.767,0-1.38-0.153-2.146c-0.153-0.767-0.307-1.38-0.613-1.84
	s-0.613-0.92-1.226-1.38s-1.073-0.46-1.84-0.46c-0.613,0-1.38,0.153-1.993,0.46s-1.226,0.767-1.686,1.38v9.505
	c0.46,0.307,1.073,0.46,1.533,0.613c0.46,0.153,1.073,0.153,1.686,0.153c0.767,0,1.533-0.153,1.993-0.46
	c0.46-0.307,0.92-0.767,1.38-1.38c0.307-0.613,0.613-1.226,0.767-1.993C309.697,21.816,309.697,21.049,309.697,20.283z"/>
<path fill="#FFFFFF" d="M324.415,28.408l-0.307-1.226c-0.46,0.46-1.073,0.767-1.84,1.073c-0.767,0.307-1.533,0.46-2.3,0.46
	c-1.533,0-2.76-0.46-3.679-1.38s-1.38-2.146-1.38-3.679c0-0.92,0.153-1.686,0.46-2.453c0.307-0.613,0.767-1.226,1.226-1.686
	c0.46-0.46,1.226-0.767,1.993-1.073c0.767-0.307,1.533-0.307,2.453-0.307h2.76v-0.613c0-1.226-0.307-1.993-0.767-2.453
	s-1.226-0.767-2.453-0.767c-0.613,0-1.38,0.153-2.146,0.307c-0.767,0.153-1.533,0.307-2.146,0.613v-2.453
	c0.613-0.153,1.226-0.307,2.146-0.46c0.92-0.153,1.686-0.153,2.453-0.153c1.84,0,3.219,0.46,4.139,1.38s1.38,2.146,1.38,3.986
	v10.885h-1.992V28.408z M323.955,20.589h-2.606c-1.073,0-1.993,0.153-2.606,0.613c-0.613,0.46-0.92,1.226-0.92,2.3
	c0,0.92,0.307,1.686,0.767,2.146s1.226,0.767,2.146,0.767c0.613,0,1.226-0.153,1.84-0.46c0.613-0.307,1.073-0.613,1.533-0.92v-4.446
	H323.955z"/>
<path fill="#FFFFFF" d="M342.965,28.408h-2.606V17.676c0-1.073-0.153-1.84-0.613-2.453s-1.073-0.92-2.146-0.92
	c-0.767,0-1.533,0.307-2.146,0.767s-1.226,0.92-1.84,1.533v11.805h-2.606V12.464h2.3l0.307,1.993
	c0.767-0.767,1.533-1.38,2.146-1.686c0.767-0.46,1.533-0.613,2.606-0.613c1.533,0,2.606,0.46,3.373,1.226s1.226,1.993,1.226,3.526
	L342.965,28.408L342.965,28.408z"/>
<path fill="#FFFFFF" d="M359.522,28.408h-2.3l-0.307-1.38c-0.46,0.46-0.92,0.767-1.686,1.226c-0.613,0.307-1.533,0.613-2.453,0.613
	c-1.073,0-1.993-0.153-2.913-0.613s-1.38-0.92-1.993-1.686c-0.46-0.767-0.92-1.533-1.073-2.606c-0.307-0.92-0.307-1.993-0.307-3.219
	s0.153-2.3,0.46-3.373c0.307-1.073,0.613-1.993,1.226-2.76c0.46-0.767,1.226-1.38,1.993-1.84s1.84-0.613,2.913-0.613
	c0.767,0,1.533,0.153,2.146,0.46s1.073,0.613,1.533,0.92V5.258h2.76v23.15H359.522z M356.916,15.53
	c-0.46-0.307-0.92-0.613-1.533-0.92s-1.073-0.307-1.84-0.307c-0.92,0-1.533,0.153-2.146,0.46s-0.92,0.767-1.38,1.38
	c-0.307,0.613-0.613,1.226-0.613,1.993c-0.153,0.767-0.153,1.533-0.153,2.3s0,1.533,0.153,2.3s0.307,1.38,0.767,1.993
	c0.307,0.613,0.767,0.92,1.226,1.38c0.46,0.46,1.226,0.46,1.993,0.46c1.226,0,2.3-0.46,3.373-1.38V15.53H356.916z"/>
<path fill="#FFFFFF" d="M367.081,26.568c0,0.613-0.153,1.073-0.613,1.533c-0.46,0.46-0.92,0.613-1.533,0.613
	s-1.073-0.153-1.533-0.613c-0.46-0.46-0.613-0.92-0.613-1.686c0-0.613,0.153-1.226,0.613-1.686c0.46-0.46,0.92-0.613,1.533-0.613
	s1.073,0.153,1.533,0.613C366.928,25.188,367.081,25.802,367.081,26.568z"/>
</svg>
