<?xml version="1.0" encoding="utf-8"?>
<!-- Generator: Adobe Illustrator 21.1.0, SVG Export Plug-In . SVG Version: 6.00 Build 0)  -->
<svg version="1.1" id="Layer_1" xmlns="http://www.w3.org/2000/svg" xmlns:xlink="http://www.w3.org/1999/xlink" x="0px" y="0px"
	 viewBox="0 0 164.1 74.4" style="enable-background:new 0 0 164.1 74.4;" xml:space="preserve">
<style type="text/css">
	.st0{fill:#2A2E6E;}
	.st1{fill:#008037;}
	.st2{fill:#006B2C;}
	.st3{fill:#EAEAE9;}
	.st4{fill:#005321;}
	.st5{fill:#C4BFBE;}
	.st6{fill:#504C4B;}
	.st7{fill:#3C3937;}
	.st8{fill:none;stroke:#787473;stroke-miterlimit:10;}
	.st9{fill:#23201C;}
	.st10{fill:#5F5C5B;}
	.st11{fill:#787473;}
	.st12{fill:#A4A1A0;}
	.st13{fill:#FFFFFF;}
	.st14{fill:#036D32;}
	.st15{fill:none;stroke:#A4A1A0;stroke-width:2;stroke-linecap:round;stroke-linejoin:round;stroke-miterlimit:10;}
	.st16{fill:#C6C8E5;}
</style>
<path class="st0" d="M103.6,1.3l0,1.1l3.7,0c0,0,0,0,0,0c0.1-0.2,0.1-0.4,0.1-0.6c0-0.2,0-0.4-0.1-0.5c-0.1,0-0.2,0-0.3,0L103.6,1.3
	z"/>
<g>
	<path class="st1" d="M114.8,12.3L108.4,3c-0.2-0.3-0.6-0.5-1-0.5l-3.7,0l0-1.1l3.5,0c0.9,0,1.8,0.5,2.3,1.2l6.2,9.1L114.8,12.3z"/>
</g>
<path class="st2" d="M129.2,33.3l-13-23.1c-0.4-0.6-1.1-0.9-1.8-0.6l-9.8,4.4l2.8,8.3l6.2-5.9c0.5-0.5,1.3-0.4,1.7,0.2L125.8,35
	L129.2,33.3z"/>
<path class="st3" d="M106.4,22l-5.4,2.8l5.4,2c0.5,0.2,1,0.6,1.3,1l2.6,4.2l3.1,0l2.6-9v0c1.2-0.6,1.6-2,0.9-3.2l-0.1-0.2
	c-0.6-1-1.8-1.4-2.9-1L106.4,22z"/>
<path class="st4" d="M107.4,22.2l4.9-4.7c0-0.2,0.1-0.3,0.1-0.5l0.2-1.2c0.3-1.8,0-3.6-0.8-5.1l-7.2,3.2L107.4,22.2z"/>
<path class="st5" d="M111.5,19.8l-5.1,2.2l-5.4,2.8l0.8,0.3l0.8,0c1.6,0,3.2-0.3,4.6-1.1C109,23.2,110.5,21.7,111.5,19.8z"/>
<path class="st4" d="M123.2,22.6l-2-3.5c-1.1,0.6-2.2,1.3-3.3,2.1l2,3.5C121,23.9,122.1,23.2,123.2,22.6z"/>
<path class="st5" d="M109.2,30.4l1.1,1.7l2.6,0c0.2-0.4,0.5-0.7,0.8-1.1l2.3-7.9c0.6-0.3,1-0.8,1.1-1.4
	C114,24.1,111.3,27,109.2,30.4z"/>
<path class="st1" d="M140.6,16.3c-1.4-0.2-2.9-0.3-4.4-0.3c-16.6,0-30.1,13.5-30.1,30.1c0,2.5,0.3,4.9,0.9,7.1l29.2-7.1L140.6,16.3z
	"/>
<path class="st6" d="M92.4,61.8l-49.1,0l0-31.8l54.9-9.6c0,0,7,19.4,5.9,26.6C102.9,54.1,92.4,61.8,92.4,61.8z"/>
<path class="st7" d="M72.9,35.9c-0.6-1.2-1.9-2.1-3.4-2.1l-8.5,0c-1.5,0-2.8,0.9-3.4,2.1c-1,0.4-1.7,1.4-1.7,2.5
	c0,1.1,0.7,2.1,1.6,2.5c0.6,1.4,1.9,2.3,3.5,2.3l8.5,0c1.6,0,2.9-1,3.5-2.3c1-0.4,1.6-1.4,1.6-2.5C74.6,37.3,73.9,36.3,72.9,35.9z"
	/>
<path class="st7" d="M43.3,61.8l11.1,0c2.6-4.2,4.1-9.1,4.1-14.4c0-1.2-0.1-2.4-0.2-3.5c0.5,0.1,1,0.1,1.5,0.1l0.9,0
	C60,38,57.6,32.5,54,28.2L43.3,30L43.3,61.8z"/>
<polygon class="st4" points="84.4,37.3 55.7,37.3 55.7,27.9 69.3,27.9 85.1,18.8 84.4,27.9 "/>
<path class="st2" d="M83.8,37.3l-1.8-4.5l2.3-2.2l0-2.7l0.3-4.2l-1.5-0.4L74.4,27c-0.6,0.3-1,0.8-1,1.5l0,5.2c0,0.5,0.2,0.9,0.4,1.3
	l0.2,0.3l0,2L83.8,37.3z"/>
<path class="st1" d="M29.3,5.6l40.6,31l-1.9,5.7h0c-7.2-1.3-12.9,5.9-10,12.6l2.9,6.9l-15.6,0L26.4,7.7C25.7,6,27.8,4.5,29.3,5.6z"
	/>
<path class="st4" d="M58.4,41.5l0.9,0c-1.7-15-14.4-26.7-29.8-26.7c-0.2,0-0.4,0-0.6,0l2.9,8.2c7.9,0.8,14.5,5.8,17.7,12.6
	C51,39.2,54.5,41.5,58.4,41.5z"/>
<path class="st7" d="M36.4,11.1L36.4,11.1c-0.8,0.6-0.7,1.8,0.1,2.4l14,10.7v0c0-3.8-2.1-7.2-5.5-8.9L36.4,11.1z"/>
<line class="st8" x1="36.4" y1="11.1" x2="36.4" y2="11.1"/>
<line class="st8" x1="50.4" y1="24.2" x2="50.4" y2="24.2"/>
<g>
	<path class="st5" d="M50.3,24.5l-14-10.7c-0.4-0.3-0.7-0.9-0.7-1.4c0-0.6,0.2-1,0.6-1.4l0.5,0.3l-0.1,0.1c-0.3,0.2-0.5,0.6-0.4,1
		c0,0.4,0.2,0.7,0.5,1l14,10.7L50.3,24.5z"/>
</g>
<path class="st2" d="M30.8,17.3c-0.4,0-0.8,0-1.1,0l15.6,44.5l9.1,0c1.4-2.3,2.5-4.9,3.2-7.6c-0.9-2.7-0.5-5.4,0.8-7.6
	c0-0.9-0.1-1.9-0.2-2.8c0.5,0.1,1,0.1,1.5,0.1l0.9,0C59,29,46.3,17.3,30.8,17.3z"/>
<path class="st7" d="M79.1,50c-0.2,0-0.3-0.1-0.3-0.3c0-1.6-1.3-3-3-3l-1.9,0c-1.6,0-3,1.3-3,3c0,0.2-0.1,0.3-0.3,0.3
	c-2.3,0-4.2,1.9-4.2,4.2c0,2.3,1.9,4.2,4.2,4.2l8.4,0c2.3,0,4.2-1.9,4.2-4.2C83.4,51.9,81.5,50,79.1,50z M79.1,56.7l-8.4,0
	c-1.4,0-2.5-1.1-2.5-2.5c0-1.4,1.1-2.5,2.5-2.5c1.1,0,2.1-0.9,2.1-2.1c0-0.7,0.5-1.2,1.2-1.2l1.9,0c0.7,0,1.2,0.5,1.2,1.2
	c0,1.1,0.9,2.1,2.1,2.1c1.4,0,2.5,1.1,2.5,2.5C81.6,55.6,80.5,56.7,79.1,56.7z"/>
<polygon class="st9" points="76.8,35.2 76.8,42.4 78.9,43.8 94.3,47.8 95.8,51.6 94.7,60 99.2,55.9 103.8,45.5 103.5,34.3 "/>
<circle class="st3" cx="62.8" cy="54.2" r="3.5"/>
<polygon class="st10" points="84.8,45 84.8,59.9 92.6,59.9 96.6,55.2 95.1,49.3 90,45.7 "/>
<path class="st7" d="M96.6,55.2l-1.5-5.9L90,45.7L84.8,45l0,1.9l6,1.6c2.2,0.6,3.7,2.6,3.7,4.8c0,2.7-2.2,5-5,5l-4.7,0l0,1.6l7.9,0
	L96.6,55.2z"/>
<path class="st11" d="M77.9,49.7L77.9,49.7c0-1.1-0.9-2.1-2.1-2.1l-1.9,0c-1.1,0-2.1,0.9-2.1,2.1v0c0,0.7-0.5,1.2-1.2,1.2l0,0
	c-1.9,0-3.4,1.5-3.4,3.4v0c0,1.9,1.5,3.4,3.4,3.4l8.4,0c1.9,0,3.4-1.5,3.4-3.4v0c0-1.9-1.5-3.4-3.4-3.4h0
	C78.5,50.9,77.9,50.3,77.9,49.7z"/>
<path class="st10" d="M70.7,57.6L70.7,57.6l0-3.4l-3.4,0C67.3,56.1,68.9,57.6,70.7,57.6z"/>
<path class="st10" d="M73.4,56.2c0-2.4-1.9-4.3-4.3-4.3l-0.9,0c-0.6,0.6-0.9,1.4-0.9,2.3c0,0.1,0,0.2,0,0.3l1.8,0
	c0.9,0,1.7,0.8,1.7,1.7c0,0.5,0.1,1,0.2,1.4l3.1,0C73.7,57.3,73.4,56.8,73.4,56.2z"/>
<g>
	<path class="st5" d="M89.4,61.3l-15.2,0c-2.4,0-4.3-1.9-4.3-4.3c0-0.9-0.8-1.7-1.7-1.7l-5.5,0c-0.7,0-1.3-0.6-1.3-1.3
		s0.6-1.3,1.3-1.3l5.5,0c2.4,0,4.3,1.9,4.3,4.3c0,0.9,0.8,1.7,1.7,1.7l15.2,0c3,0,5.4-2.4,5.4-5.4c0-2.4-1.6-4.6-4-5.2l-12.5-3.4
		c-1.7-0.5-2.9-2-2.9-3.7l0-7.2c0-0.7,0.6,3.1,1.3,3.1s1.3,0.6,1.3,1.3l0,2.9c0,0.6,0.4,1.1,1,1.3l12.5,3.4c3.5,1,5.9,4.1,5.9,7.7
		C97.4,57.7,93.8,61.3,89.4,61.3z"/>
</g>
<g>
	<path class="st12" d="M78.7,42l2.7,3.5l2.2,0.6l2.4-1.3c0.2-0.1,0.4-0.3,0.4-0.6l-7.4-2C78.9,42.1,78.8,42.1,78.7,42z"/>
</g>
<path class="st12" d="M78.1,41.2c0-0.1-0.1-0.2-0.1-0.4l0-2.9c0-0.7-0.6-1.3-1.3-1.3c-0.7,0-1.3-3.8-1.3-3.1l0,4.3L78.1,41.2z"/>
<path class="st11" d="M87.7,24.6l0.5,4.2l-4.7,4.5l3.5,8.9c0.2,0.4,0,0.9-0.4,1.1l-2.8,1.6c-0.4,0.2-0.9,0.1-1.2-0.2l-7.2-9.2
	c-0.3-0.4-0.4-0.8-0.4-1.3l0-5.2c0-0.6,0.4-1.2,1-1.5l8.8-3.7L87.7,24.6z"/>
<path class="st9" d="M48,24.2L48,24.2c0,1.3,0.7,2.6,1.8,3.3L52,29c2.8,1.9,6.1,2.9,9.5,2.9h0c2.5,0,5-0.6,7.2-1.6l2.9-1.4
	c3.1-1.5,5.1-4.6,5.1-8.1v0c0-0.9-0.8-1.7-1.7-1.7l0,0c-0.5,0-0.9,0.2-1.3,0.6c-0.9,1-2.9,3.1-5.2,4c-1.5,0.6-3.5,0.7-5.3,0.7
	c-2.2,0-4.4-0.5-6.4-1.5L53.1,21c-0.9-0.4-1.8-0.5-2.7-0.2l0,0C48.9,21.3,48,22.7,48,24.2z"/>
<g>
	<circle class="st5" cx="90" cy="53.5" r="3.4"/>
	<circle class="st13" cx="90" cy="53.5" r="2.6"/>
</g>
<path class="st5" d="M68.6,42.5l-8.9,0c-2,0-3.6-1.6-3.6-3.6l0-2.2c0-2,1.6-3.6,3.6-3.6l8.9,0c2,0,3.6,1.6,3.6,3.6l0,2.2
	C72.2,40.9,70.6,42.5,68.6,42.5z"/>
<path class="st12" d="M72.2,36.5c0-0.1,0-0.1,0-0.2c0-0.1,0-0.1,0-0.2c0-0.1,0-0.2-0.1-0.3c0,0,0-0.1,0-0.1c0-0.1-0.1-0.2-0.1-0.3
	c0,0,0,0,0,0c0-0.1-0.1-0.2-0.2-0.3c0,0,0,0,0,0c-0.2-0.3-0.4-0.6-0.6-0.9l-13.9,0c-0.7,0.7-1.1,1.6-1.1,2.7l0,1.8
	c0,1,0.4,1.8,0.9,2.5l14.2,0l0,0c0.1-0.1,0.1-0.2,0.2-0.2c0,0,0,0,0,0c0.1-0.1,0.1-0.2,0.2-0.2c0,0,0,0,0-0.1c0-0.1,0.1-0.2,0.1-0.2
	c0,0,0-0.1,0-0.1c0-0.1,0.1-0.1,0.1-0.2c0,0,0-0.1,0-0.1c0-0.1,0-0.1,0.1-0.2c0-0.1,0-0.1,0-0.2c0-0.1,0-0.1,0-0.2
	c0-0.1,0-0.1,0-0.2c0,0,0-0.1,0-0.1c0-0.1,0-0.2,0-0.4l0-1.8C72.2,36.7,72.2,36.6,72.2,36.5z"/>
<path class="st3" d="M71.5,40.4l-14.7,0c-1.1,0-2-0.9-2-2l0-1.3c0-1.1,0.9-2,2-2l14.7,0c1.1,0,2,0.9,2,2l0,1.3
	C73.5,39.4,72.6,40.4,71.5,40.4z"/>
<g>
	<path class="st1" d="M124.1,18.1c-3.8,0-6.9-2.2-6.9-4.9s3.1-4.9,6.9-4.9L124.1,18.1z"/>
	<ellipse class="st13" cx="124.1" cy="13.1" rx="1.7" ry="4.9"/>
	<g>
		<path class="st4" d="M124.1,18.5c-1.4,0-2.1-2.7-2.1-5.4c0-2.7,0.7-5.4,2.1-5.4c0.2,0,0.4,0.2,0.4,0.4c0,0.2-0.2,0.4-0.4,0.4
			c-0.4,0-1.2,1.7-1.2,4.5c0,2.8,0.8,4.5,1.2,4.5c0.2,0,0.4,0.2,0.4,0.4C124.6,18.3,124.4,18.5,124.1,18.5z"/>
	</g>
</g>
<g>
	<path class="st11" d="M88.3,63.6l-36.6,0c-0.7,0-1.3-0.6-1.3-1.3c0-0.7,0.6-1.3,1.3-1.3l36.6,0c3.7,0,7.2-2,9.1-5.2l3.6-6.2
		c1-1.6,1.5-3.5,1.5-5.4l0-7.8c0-0.7,0.6-1.3,1.3-1.3s1.3-4.1,1.3-3.4l0,12.5c0,2.3-0.6,4.6-1.8,6.7l-3.6,6.2
		C97.3,61.1,93,63.6,88.3,63.6z"/>
</g>
<path class="st10" d="M105.1,31.7c0-0.7-0.6,3.4-1.3,3.4c-0.7,0-1.3,0.6-1.3,1.3l0,3.7l2.6-3.3L105.1,31.7z"/>
<path class="st11" d="M92.8,24.1l-0.5,4.2l4.7,4.5l-3.5,8.9c-0.2,0.4,0,0.9,0.4,1.1l2.8,1.6c0.4,0.2,0.9,0.1,1.2-0.2l7.2-9.2
	c0.3-0.4,0.4-0.8,0.4-1.3l0-5.2c0-0.6-0.4-1.2-1-1.5l-8.8-3.7L92.8,24.1z"/>
<path class="st11" d="M95.5,38.4c-1.1,1.2-2.7,1.9-4.4,1.9c-1.7,0-3.3-0.7-4.4-2c-0.6-0.7-1.5-1-2.4-1c-0.3,0-0.6-0.1-0.8-0.3
	l-2-2.1c-0.4-0.4-0.6-0.9-0.6-1.5c0-0.9,0.5-1.6,1.3-1.9l6.5-2.5c0,0,0,0,0,0c0.1,0,0.1-0.1,0.2-0.1l0.2-0.1c0,0,0,0,0,0
	c1-0.3,2.1-0.4,3.1-0.2c2.6,0.5,4.5,2.7,4.7,5.3C97.2,35.6,96.7,37.2,95.5,38.4z"/>
<path class="st10" d="M85,37.4c-0.2,0-0.4-0.1-0.6-0.1c-0.3,0-0.6-0.1-0.8-0.3l-2-2.1c-0.4-0.4-0.6-0.9-0.6-1.5
	c0-0.9,0.5-1.6,1.3-1.9l5.1-2l0.7-0.7l-0.2-1.7l-6.4,2.5c-1.6,0.6-2.6,2.1-2.6,3.9c0,1.1,0.4,2.1,1.2,2.9l2,2.1c0.6,0.6,1.4,1,2.3,1
	c0.3,0,0.6,0.1,0.8,0.3c0.3,0.4,0.7,0.7,1.1,1L85,37.4z"/>
<path class="st10" d="M97.1,39.8c1.5-1.7,2.3-3.8,2.1-6.1c-0.3-3.5-2.9-6.5-6.4-7.2c-0.1,0-0.1,0-0.2,0l-0.2,1.8l0.4,0.4
	c2,0.5,3.5,2.1,4.1,4l0.2,0.2L97,33.1c0.1,0.3,0.1,0.6,0.1,0.8c0.1,1.7-0.4,3.3-1.6,4.5c-0.3,0.3-0.7,0.6-1,0.9l-0.9,2.4
	c0,0.1-0.1,0.2-0.1,0.4C94.9,41.6,96.1,40.9,97.1,39.8z"/>
<g>
	<path class="st5" d="M92.6,27.6c-1.3-0.3-2.5-0.1-3.6,0.2l0,0l-0.2,0.1c-0.1,0-0.2,0.1-0.3,0.1l-6.5,2.5c-1.2,0.5-2,1.6-2,2.9v0
		c0,0.8,0.3,1.6,0.9,2.2l2,2.1c0.4,0.4,1,0.6,1.5,0.6l0,0c0.6,0,1.2,0.2,1.6,0.7c1.3,1.4,3.1,2.3,5.2,2.3c4,0,7.3-3.4,6.9-7.6
		C97.9,30.8,95.6,28.2,92.6,27.6z"/>
	<circle class="st3" cx="91.2" cy="34.4" r="3.9"/>
	<circle class="st13" cx="91.2" cy="34.4" r="3.1"/>
</g>
<path class="st1" d="M75.7,22.9L75.7,22.9c0,1,0.8,1.9,1.9,1.9l23.2,0.4c1.6,0,3.2-0.3,4.6-1.1l0,0c2.8-1.4,4.8-4,5.3-7.1l0.2-1.2
	c0.6-3.2-0.9-6.5-3.8-8l0,0c-1.6-0.9-3.4-1.1-5.2-0.7l0,0c-4.4,1-8.5,2.8-12.2,5.3l-13.2,8.9C76,21.7,75.7,22.3,75.7,22.9z"/>
<path class="st14" d="M81.5,21.1L81.5,21.1c0,0.8,0.6,1.4,1.4,1.4l17.1,0.3c1.2,0,2.3-0.2,3.4-0.8l0,0c2-1,3.5-2.9,3.9-5.2l0.2-0.9
	c0.5-2.4-0.7-4.8-2.8-5.9l0,0c-1.2-0.6-2.5-0.8-3.8-0.5l0,0c-3.2,0.7-6.3,2-9,3.9l-9.7,6.6C81.7,20.2,81.5,20.6,81.5,21.1z"/>
<line class="st15" x1="83" y1="34.7" x2="86" y2="39"/>
<g>
	<ellipse transform="matrix(0.9744 -0.2246 0.2246 0.9744 -8.5419 16.5423)" class="st11" cx="68.4" cy="45.8" rx="1.5" ry="1.5"/>
	<ellipse transform="matrix(0.9744 -0.2246 0.2246 0.9744 -8.5419 16.5423)" class="st9" cx="68.4" cy="45.8" rx="1.1" ry="1.1"/>
</g>
<line class="st15" x1="108.7" y1="27.1" x2="105.7" y2="26.6"/>
<path class="st15" d="M113.7,22.6L113.7,22.6c0.4,0.4,1,0.7,1.5,0.6l0.7-0.1"/>
<path class="st16" d="M104.9,11.1c-1.1-0.6-2.4-0.8-3.6-0.5c0,0,0,0,0,0c-2.8,0.6-5.4,1.8-7.7,3.4l-8.1,5.5
	c-0.3,0.2-0.3,0.5-0.2,0.8c0.1,0.2,0.3,0.3,0.5,0.3c0.1,0,0.2,0,0.3-0.1l8.1-5.5c2.2-1.5,4.7-2.6,7.3-3.2l0,0c1-0.2,1.9-0.1,2.8,0.4
	c0.1,0,0.2,0.1,0.3,0.1c0.2,0,0.4-0.1,0.5-0.3C105.3,11.6,105.1,11.2,104.9,11.1z"/>
<g>
	<path class="st1" d="M27.8,16c-9.5,0-17.9,4.4-23.5,11.3l0.1,0.1c3.3,2.5,7.8,2.6,11.3,0.3c3.5-2.3,7.6-3.6,12.1-3.6
		c8.8,0,16.4,5.2,19.9,12.8c1.6,3.5,5.1,5.8,9,5.8l0.9,0C56,27.7,43.2,16,27.8,16z"/>
</g>
<g>
	<ellipse transform="matrix(0.9744 -0.2246 0.2246 0.9744 -8.5765 15.4911)" class="st11" cx="63.8" cy="45.4" rx="1.8" ry="1.8"/>
	<ellipse transform="matrix(0.9744 -0.2246 0.2246 0.9744 -8.5765 15.4911)" class="st9" cx="63.8" cy="45.4" rx="1.4" ry="1.4"/>
</g>
<g>
	<ellipse transform="matrix(0.9744 -0.2246 0.2246 0.9744 -9.2295 16.0446)" class="st11" cx="65.9" cy="48.6" rx="1.4" ry="1.4"/>
	<ellipse transform="matrix(0.9744 -0.2246 0.2246 0.9744 -9.2295 16.0446)" class="st9" cx="65.9" cy="48.6" rx="1.1" ry="1.1"/>
</g>
<path class="st9" d="M104.7,3.8l-12.8,0c-0.8,0-1.4-0.6-1.4-1.4l0-0.9c0-0.8,0.6-1.4,1.4-1.4l12.8,0c0.8,0,1.4,0.6,1.4,1.4l0,0.9
	C106.1,3.1,105.5,3.8,104.7,3.8z"/>
</svg>
