<?xml version="1.0" encoding="utf-8"?>
<!-- Generator: Adobe Illustrator 17.0.0, SVG Export Plug-In . SVG Version: 6.00 Build 0)  -->
<!DOCTYPE svg PUBLIC "-//W3C//DTD SVG 1.1//EN" "http://www.w3.org/Graphics/SVG/1.1/DTD/svg11.dtd">
<svg version="1.1" id="Layer_1" xmlns="http://www.w3.org/2000/svg" xmlns:xlink="http://www.w3.org/1999/xlink" x="0px" y="0px"
	 width="55.735px" height="28.684px" viewBox="0 0 55.735 28.684" enable-background="new 0 0 55.735 28.684" xml:space="preserve">
<g>
	<defs>
		<rect id="SVGID_1_" y="0" width="55.735" height="28.684"/>
	</defs>
	<clipPath id="SVGID_2_">
		<use xlink:href="#SVGID_1_"  overflow="visible"/>
	</clipPath>
	<path clip-path="url(#SVGID_2_)" fill="#141214" d="M32.894,20.291l0.769,4.247c0.305,1.688,1.447,3.104,3.03,3.761
		c1.751,0.726,3.762,0.41,5.205-0.82c1.716-1.461,2.966-3.394,3.597-5.559l1.073-3.685c0.181-0.625-0.263-1.257-0.913-1.297
		l-4.1-0.248L32.894,20.291z"/>
	<path clip-path="url(#SVGID_2_)" fill="#141214" d="M21.335,4.09l9.187-3.811c1.613-0.668,3.473-0.105,4.445,1.346l1.469,2.194
		c0.409,0.61,1.037,1.041,1.753,1.2l6.605,1.474c1.235,0.276,1.898,1.623,1.364,2.77c-0.18,0.388-0.481,0.706-0.858,0.909
		l-4.8,2.578L21.335,4.09z"/>
	<path clip-path="url(#SVGID_2_)" fill="#8E8E8F" d="M0.968,17.303l1.792,1.491l-1.046,1.122c-0.374,0.402-0.42,1.008-0.111,1.461
		c0.218,0.32,0.579,0.511,0.965,0.513l0.926,0.003c0.633,0.003,1.248,0.205,1.76,0.577l2.1,1.531
		c2.339,1.705,4.987,2.937,7.798,3.625l1.674,0.41c3.767,0.923,7.709,0.844,11.435-0.229c3.079-0.888,5.93-2.431,8.356-4.523
		l7.266-6.266c0.683-0.589,2.461-0.573,3.453,0.215l3.589,2.847c0.641,0.508,1.582,0.327,1.987-0.383l0.29-0.509
		c1.305-2.29,1.821-4.947,1.466-7.558c-0.275-2.031-1.066-3.957-2.297-5.595l-0.205-0.274c-0.509-0.677-1.513-0.714-2.07-0.075
		l-3.923,4.498c-0.69,0.792-2.563,0.944-3.488,0.21L39.45,7.825c-2.055-1.632-4.441-2.798-6.992-3.417
		c-4.573-1.109-9.344-1.126-13.925-0.05c-5.092,1.196-9.784,3.704-13.608,7.274l-3.951,3.69c-0.345,0.283-0.518,0.723-0.458,1.166
		C0.56,16.806,0.721,17.097,0.968,17.303"/>
	<path clip-path="url(#SVGID_2_)" fill="#FFFFFF" d="M22.167,16.776l-4.15,5.088c-1.318,1.614-3.71,1.817-5.281,0.447
		c-0.89-0.776-2.098-1.079-3.25-0.814L5.254,22.47l2.1,1.532c2.338,1.705,4.987,2.936,7.797,3.625l1.675,0.41
		c3.767,0.923,7.709,0.843,11.435-0.23c3.079-0.887,5.929-2.43,8.356-4.523l7.266-6.266c0.523-0.451,1.687-0.543,2.651-0.209
		L40.496,13.2c-3.036-1.664-6.564-2.194-9.956-1.496C27.249,12.38,24.291,14.172,22.167,16.776"/>
	<path clip-path="url(#SVGID_2_)" fill="#FFFFFF" d="M13.359,11.535c0.153,1.126-0.637,2.164-1.763,2.316
		c-1.126,0.153-2.163-0.636-2.315-1.763c-0.153-1.126,0.636-2.163,1.763-2.316C12.17,9.619,13.207,10.409,13.359,11.535"/>
	<path clip-path="url(#SVGID_2_)" fill="#141214" d="M12.498,11.652c0.088,0.65-0.368,1.249-1.019,1.337
		c-0.65,0.088-1.249-0.367-1.336-1.018c-0.088-0.65,0.367-1.249,1.017-1.337C11.811,10.546,12.408,11.002,12.498,11.652"/>
	<path clip-path="url(#SVGID_2_)" fill="#141214" d="M3.82,12.664l0.547,0.846c0.402,0.621,0.95,1.136,1.595,1.501l4.247,2.4
		c0.423,0.239,0.956,0.148,1.276-0.218c0.455-0.522,0.272-1.336-0.361-1.613l-2.755-1.203c-1.082-0.474-1.941-1.345-2.397-2.435
		L5.591,11.03c-0.224,0.197-0.447,0.398-0.666,0.602L3.82,12.664z"/>
	<path clip-path="url(#SVGID_2_)" fill="#141214" d="M14.798,22.136l4.875,1.902c3.022,1.18,6.405,1.011,9.296-0.465l4.425-2.257
		c0.88-0.45,0.909-1.698,0.05-2.188l-1.946-1.111c-2.117-1.209-4.67-1.389-6.935-0.488l-3.899,1.548
		c-1.474,0.586-3.122,0.561-4.578-0.07c-0.596-0.259-1.288-0.152-1.779,0.273C13.342,20.113,13.611,21.673,14.798,22.136"/>
	
		<path clip-path="url(#SVGID_2_)" fill="none" stroke="#545455" stroke-width="1.936" stroke-linecap="round" stroke-linejoin="round" stroke-miterlimit="10" d="
		M0.968,17.303l2.103,1.742c0.726,0.602,1.747,0.697,2.572,0.241L5.798,19.2"/>
	
		<line clip-path="url(#SVGID_2_)" fill="none" stroke="#545455" stroke-width="1.936" stroke-linecap="round" stroke-linejoin="round" stroke-miterlimit="10" x1="49.686" y1="10.695" x2="53.397" y2="7.655"/>
	
		<line clip-path="url(#SVGID_2_)" fill="none" stroke="#545455" stroke-width="1.936" stroke-linecap="round" stroke-linejoin="round" stroke-miterlimit="10" x1="50.421" y1="12.884" x2="54.767" y2="12.779"/>
	
		<line clip-path="url(#SVGID_2_)" fill="none" stroke="#545455" stroke-width="1.936" stroke-linecap="round" stroke-linejoin="round" stroke-miterlimit="10" x1="50.337" y1="15.499" x2="53.958" y2="17.594"/>
</g>
</svg>
