<?xml version="1.0" encoding="utf-8"?>
<!-- Generator: Adobe Illustrator 17.0.0, SVG Export Plug-In . SVG Version: 6.00 Build 0)  -->
<!DOCTYPE svg PUBLIC "-//W3C//DTD SVG 1.1//EN" "http://www.w3.org/Graphics/SVG/1.1/DTD/svg11.dtd">
<svg version="1.1" id="Layer_1" xmlns="http://www.w3.org/2000/svg" xmlns:xlink="http://www.w3.org/1999/xlink" x="0px" y="0px"
	 width="728px" height="90px" viewBox="0 0 728 90" enable-background="new 0 0 728 90" xml:space="preserve">
<g>
	<g>
		<rect x="22.5" y="15.584" fill="#454762" width="221" height="2.367"/>
		<rect x="22.5" y="42.901" fill="#454762" width="221" height="2.367"/>
	</g>
	<g>
		<g>
			<path fill="#FFFFFF" d="M33.94,23.079h3.747v11.538h7.298v3.156H33.94V23.079z"/>
			<path fill="#FFFFFF" d="M54.156,37.97c-4.832,0-8.382-2.86-8.382-7.495s3.452-7.495,8.382-7.495s8.382,2.86,8.382,7.495
				S58.988,37.97,54.156,37.97z M54.156,34.814c3.057,0,4.536-1.775,4.536-4.339c0-2.465-1.479-4.339-4.536-4.339
				c-3.057,0-4.536,1.775-4.536,4.339S51.099,34.814,54.156,34.814z"/>
			<path fill="#FFFFFF" d="M65.595,23.079h3.254l8.58,8.974l0,0v-8.974h3.747v14.694H78.12l-8.678-9.171l0,0v9.171h-3.747V23.079
				H65.595z"/>
			<path fill="#FFFFFF" d="M85.122,23.079h6.213c1.479,0,2.564,0.099,3.55,0.296c3.156,0.789,5.72,2.86,5.72,6.805
				s-2.663,6.016-5.128,6.903c-1.676,0.592-3.649,0.69-5.325,0.69H85.22V23.079H85.122z M90.25,34.617
				c1.381,0,2.367-0.099,3.254-0.296c1.775-0.493,3.254-1.874,3.254-4.043c0-2.17-1.381-3.254-2.86-3.747
				c-0.888-0.197-1.676-0.197-3.156-0.197h-1.874v8.382h1.381V34.617z"/>
			<path fill="#FFFFFF" d="M111.255,37.97c-4.832,0-8.382-2.86-8.382-7.495s3.452-7.495,8.382-7.495s8.382,2.86,8.382,7.495
				S116.186,37.97,111.255,37.97z M111.255,34.814c3.057,0,4.536-1.775,4.536-4.339c0-2.465-1.479-4.339-4.536-4.339
				s-4.536,1.775-4.536,4.339C106.719,33.039,108.297,34.814,111.255,34.814z"/>
			<path fill="#FFFFFF" d="M122.793,23.079h3.254l8.58,8.974l0,0v-8.974h3.747v14.694h-3.057l-8.777-9.171l0,0v9.171h-3.747V23.079z
				"/>
			<path fill="#FFFFFF" d="M147.152,30.377h7.1v2.86h-7.1V30.377z"/>
			<path fill="#FFFFFF" d="M163.127,23.079h5.72c1.282,0,2.071,0.099,2.86,0.296c2.268,0.69,3.747,2.17,3.747,4.635
				s-1.479,4.241-4.241,4.832c-0.69,0.197-1.578,0.197-2.761,0.197h-1.676v4.635h-3.747V23.079H163.127z M168.354,30.081
				c0.888,0,1.381-0.099,1.775-0.197c1.085-0.296,1.479-0.986,1.479-1.775s-0.394-1.381-1.381-1.676
				c-0.394-0.099-0.789-0.099-1.479-0.099h-1.972v3.846h1.578V30.081z"/>
			<path fill="#FFFFFF" d="M176.638,37.773l6.706-14.793h3.353l7.199,14.793h-4.142l-1.381-3.057h-6.311l-1.282,3.057H176.638z
				 M184.922,27.517L184.922,27.517l-1.775,4.142h3.649L184.922,27.517z"/>
			<path fill="#FFFFFF" d="M204.349,31.955c1.183,0.69,1.676,3.156,3.452,3.156c0.394,0,0.789-0.099,1.183-0.197l0.69,2.761
				c-0.789,0.296-1.676,0.394-2.367,0.394c-4.734,0-5.227-5.424-6.805-5.424h-0.789v5.227h-3.747V23.079h6.016
				c4.043,0,6.213,1.578,6.213,4.635C208.195,29.884,206.815,31.461,204.349,31.955L204.349,31.955z M201.588,29.588
				c1.972,0,2.761-0.592,2.761-1.676c0-1.183-0.789-1.578-2.564-1.578h-2.268v3.254H201.588z"/>
			<path fill="#FFFFFF" d="M211.844,23.079h3.747v14.694h-3.747V23.079z"/>
			<path fill="#FFFFFF" d="M219.931,33.631c1.381,0.888,3.353,1.282,5.029,1.282c2.071,0,3.254-0.493,3.254-1.479
				c0-2.17-9.171,0-9.171-5.72c0-3.156,2.761-4.734,6.213-4.734c2.268,0,4.832,0.592,6.509,1.479l-1.282,2.761
				c-1.381-0.69-3.55-1.183-5.128-1.183c-1.874,0-2.564,0.493-2.564,1.282c0,2.663,9.171,0.099,9.171,5.917
				c0,3.057-2.86,4.734-7.002,4.734c-2.367,0-4.832-0.493-6.509-1.676L219.931,33.631z"/>
		</g>
	</g>
</g>
</svg>
