<?xml version="1.0" encoding="utf-8"?>
<!-- Generator: Adobe Illustrator 17.0.0, SVG Export Plug-In . SVG Version: 6.00 Build 0)  -->
<!DOCTYPE svg PUBLIC "-//W3C//DTD SVG 1.1//EN" "http://www.w3.org/Graphics/SVG/1.1/DTD/svg11.dtd">
<svg version="1.1" id="Layer_2" xmlns="http://www.w3.org/2000/svg" xmlns:xlink="http://www.w3.org/1999/xlink" x="0px" y="0px"
	 width="728px" height="90px" viewBox="0 0 728 90" enable-background="new 0 0 728 90" xml:space="preserve">
<g>
	<g>
		<path fill="#FFFFFF" d="M259.428,34.516h6.704v0.975h-5.611v3.308h5.065v0.96h-5.065v4.489h-1.092V34.516z"/>
		<path fill="#FFFFFF" d="M266.941,37.203h2.525v2.585h0.03c0.561-1.521,1.845-2.821,3.618-2.776l-0.148,1.137
			c-1.418-0.014-2.628,1.181-3.204,3.013c-0.221,0.694-0.295,1.462-0.295,2.363v0.723h-1.093v-6.099h-1.432V37.203z"/>
		<path fill="#FFFFFF" d="M273.969,40.717c0-2.067,1.521-3.706,3.898-3.706c2.363,0,3.884,1.639,3.884,3.706
			c0,2.038-1.506,3.677-3.913,3.677C275.49,44.394,273.969,42.756,273.969,40.717z M280.614,40.717c0-1.595-1.123-2.731-2.747-2.731
			c-1.639,0-2.762,1.152-2.762,2.731c0,1.551,1.123,2.702,2.732,2.702C279.491,43.42,280.614,42.268,280.614,40.717z"/>
		<path fill="#FFFFFF" d="M282.811,37.203h2.525v2.436h0.03c0.501-1.269,1.535-2.628,3.366-2.628c1.388,0,2.319,0.797,2.319,2.348
			v0.34h0.03c0.546-1.373,1.61-2.687,3.441-2.687c1.432,0,2.318,0.797,2.318,2.392v3.249c0,0.532,0.296,0.694,0.754,0.694
			c0.177,0,0.443-0.044,0.59-0.088l0.236,0.9c-0.354,0.103-0.709,0.163-1.048,0.163c-1.004,0-1.609-0.473-1.609-1.462v-3.19
			c0-1.137-0.444-1.683-1.418-1.683c-1.33,0-2.437,1.21-2.954,2.983c-0.222,0.738-0.31,1.58-0.31,2.496v0.783h-1.078v-4.592
			c0-1.137-0.473-1.668-1.418-1.668c-1.314,0-2.422,1.21-2.939,2.983c-0.222,0.738-0.31,1.58-0.31,2.496v0.783h-1.093v-6.099h-1.432
			V37.203z"/>
	</g>
	<g>
		<path fill="#FFFFFF" d="M313.039,62.168v-1.979c-6.158-0.604-9.733-3.739-11.328-7.148l1.485-0.771
			c1.319,2.859,4.344,5.664,9.843,6.27v-3.3c-4.069-0.495-5.994-2.529-6.929-4.454l1.485-0.771c0.659,1.431,2.089,3.08,5.443,3.575
			v-7.919c-5.773-0.22-10.173-4.729-10.173-10.614c0-5.829,4.399-10.394,10.173-10.613v-1.649h1.65v1.649h3.3v-1.649h1.649v1.704
			c4.784,0.44,8.084,2.86,9.733,6.104l-1.484,0.771c-1.375-2.75-4.29-4.895-8.249-5.225v3.354c2.805,0.385,4.454,1.649,5.334,3.354
			l-1.484,0.77c-0.66-1.21-1.76-2.145-3.85-2.475v7.919c5.774,0.22,10.229,4.784,10.229,10.614c0,5.884-4.454,10.448-10.229,10.613
			v1.869h-1.649v-1.869h-3.3v1.869H313.039z M313.039,44.021v-3.299c-2.969-0.221-5.224-2.585-5.224-5.665
			c0-3.024,2.255-5.443,5.224-5.664v-3.299c-4.839,0.22-8.523,4.069-8.523,8.963C304.515,40.007,308.2,43.801,313.039,44.021z
			 M313.039,39.071v-8.028c-2.034,0.22-3.574,1.925-3.574,4.014C309.465,37.202,311.005,38.852,313.039,39.071z M317.989,29.393
			v-3.299h-3.3v3.299H317.989z M314.689,31.043v22.656h3.3V31.043H314.689z M317.989,58.648V55.35h-3.3v3.299H317.989z
			 M319.638,40.722v3.299c2.97,0.221,5.279,2.64,5.279,5.665c0,3.079-2.31,5.499-5.279,5.664v3.299
			c4.84-0.164,8.579-4.014,8.579-8.963C328.217,44.791,324.478,40.941,319.638,40.722z M319.638,45.671v8.028
			c2.035-0.165,3.63-1.869,3.63-4.014C323.268,47.596,321.673,45.891,319.638,45.671z"/>
		<path fill="#FFFFFF" d="M347.964,23.233L334.93,36.597l-1.21-1.21l11.879-12.153H347.964z M363.747,61.729h-28.046v-1.649h11.658
			v-3.3h-11.658v-1.65h11.658V30.878l-8.909,9.129l-1.21-1.21l15.233-15.563h1.484v31.896h9.789v1.65h-14.738v3.3h14.738V61.729z
			 M349.008,29.228v25.901h3.3V25.818L349.008,29.228z"/>
		<path fill="#FFFFFF" d="M379.643,23.233L366.61,36.597l-1.21-1.21l11.879-12.153H379.643z M395.426,61.729h-28.046v-1.649h11.658
			v-3.3h-11.658v-1.65h11.658V30.878l-8.909,9.129l-1.21-1.21l15.233-15.563h1.484v31.896h9.789v1.65h-14.738v3.3h14.738V61.729z
			 M380.688,29.228v25.901h3.3V25.818L380.688,29.228z"/>
		<path fill="#FFFFFF" d="M398.179,50.455c0-4.619,2.2-7.094,5.17-8.688c-2.42-1.54-4.125-4.015-4.125-7.975
			c0-6.709,5.335-10.998,13.528-10.998c8.194,0,13.528,4.289,13.528,10.998c0,3.96-1.705,6.435-4.124,7.975
			c2.97,1.595,5.169,4.069,5.169,8.688c0,6.489-5.225,11.713-14.573,11.713S398.179,56.944,398.179,50.455z M425.676,50.455
			c0-4.069-2.255-6.379-5.225-7.809c-1.265,0.55-2.805,1.045-4.18,1.374c3.245,0.99,6.104,2.64,6.104,6.324
			c0,3.85-3.024,6.874-9.624,6.874c-6.599,0-9.623-3.024-9.623-6.874c0-3.685,2.859-5.334,6.104-6.324
			c-1.374-0.329-2.914-0.824-4.179-1.374c-2.97,1.43-5.225,3.739-5.225,7.809c0,5.609,4.674,10.063,12.923,10.063
			S425.676,56.064,425.676,50.455z M421.332,33.627c0,3.354-2.42,4.895-5.609,5.885c1.595,0.385,3.135,0.88,4.619,1.43
			c2.475-1.32,4.29-3.41,4.29-7.149c0-5.719-4.675-9.349-11.879-9.349s-11.878,3.63-11.878,9.349c0,3.739,1.814,5.829,4.289,7.149
			c1.485-0.55,3.024-1.045,4.619-1.43c-3.189-0.99-5.608-2.53-5.608-5.885c0-3.629,2.859-5.884,8.578-5.884
			C418.472,27.743,421.332,29.998,421.332,33.627z M420.727,50.345c0-3.52-3.575-4.674-7.975-5.664
			c-4.399,0.99-7.974,2.145-7.974,5.664c0,2.97,2.475,5.225,7.974,5.225C418.253,55.569,420.727,53.314,420.727,50.345z
			 M419.682,33.627c0-2.64-2.31-4.234-6.93-4.234c-4.619,0-6.929,1.595-6.929,4.234c0,2.97,3.024,4.069,6.929,5.06
			C416.658,37.696,419.682,36.597,419.682,33.627z M418.253,41.821c-1.375-0.495-2.75-0.825-5.5-1.485
			c-2.749,0.66-4.124,0.99-5.499,1.485c1.484,0.495,3.795,0.989,5.499,1.319C414.458,42.811,416.767,42.316,418.253,41.821z"/>
	</g>
	<g>
		<path fill="#FFFFFF" d="M431.949,28.465c0-1.961,1.442-3.516,3.697-3.516c2.241,0,3.685,1.555,3.685,3.516
			c0,1.933-1.429,3.487-3.712,3.487C433.391,31.952,431.949,30.397,431.949,28.465z M438.252,28.465
			c0-1.513-1.064-2.592-2.605-2.592c-1.555,0-2.619,1.093-2.619,2.592c0,1.471,1.064,2.563,2.592,2.563
			C437.187,31.028,438.252,29.936,438.252,28.465z"/>
		<path fill="#FFFFFF" d="M440.334,25.131h2.396v2.479h0.028c0.56-1.387,1.751-2.661,3.487-2.661c1.415,0,2.256,0.784,2.256,2.339
			V30.3c0,0.504,0.279,0.658,0.714,0.658c0.168,0,0.42-0.042,0.561-0.084l0.224,0.854c-0.336,0.098-0.672,0.154-0.994,0.154
			c-0.952,0-1.526-0.448-1.526-1.387v-3.054c0-0.995-0.364-1.569-1.388-1.569c-1.358,0-2.577,1.373-3.095,3.124
			c-0.211,0.7-0.267,1.387-0.267,2.157v0.658h-1.036v-5.785h-1.359V25.131z"/>
		<path fill="#FFFFFF" d="M450.946,28.563c0-2.087,1.471-3.613,3.852-3.613c1.541,0,2.788,0.672,2.788,1.946
			c0,1.219-1.051,2.018-3.559,2.018c-0.672,0-1.373-0.028-1.961-0.112c0.056,1.415,1.106,2.228,2.731,2.228
			c0.98,0,1.639-0.225,2.255-0.49l0.322,0.826c-0.686,0.322-1.568,0.588-2.661,0.588C452.262,31.952,450.946,30.496,450.946,28.563z
			 M453.985,28.017c1.905,0,2.508-0.49,2.508-1.148c0-0.673-0.7-0.995-1.695-0.995c-1.457,0-2.493,0.771-2.689,2.018
			C452.669,27.975,453.34,28.017,453.985,28.017z"/>
		<path fill="#FFFFFF" d="M461.796,25.131l2.395,5.197h0.042l2.186-5.197h0.771l2.255,5.197h0.042l2.312-5.197h1.148l-3.123,6.724
			h-0.757L466.81,26.7h-0.028l-2.186,5.154h-0.756l-3.194-6.724H461.796z"/>
		<path fill="#FFFFFF" d="M473.542,28.997c0-1.457,0.644-2.647,1.807-3.348c0.729-0.435,1.652-0.7,2.928-0.7
			c0.658,0,1.345,0.056,1.933,0.111v5.197c0,0.532,0.294,0.7,0.687,0.7c0.196,0,0.448-0.056,0.588-0.098l0.211,0.854
			c-0.309,0.111-0.673,0.168-1.022,0.168c-0.799,0-1.387-0.393-1.443-1.317c0-0.224-0.014-0.476,0-0.826H479.2
			c-0.504,1.247-1.568,2.213-3.039,2.213C474.746,31.952,473.542,30.986,473.542,28.997z M479.173,26.308v-0.393
			c-0.267-0.027-0.589-0.042-1.051-0.042c-0.896,0-1.653,0.21-2.213,0.574c-0.812,0.519-1.289,1.387-1.289,2.508
			c0,1.261,0.603,2.073,1.681,2.073C477.687,31.028,479.173,29.529,479.173,26.308z"/>
		<path fill="#FFFFFF" d="M485.386,31.21l-3.46-6.079h1.177l2.844,4.959h0.028l2.549-4.959h1.121l-5.197,10.001h-1.106
			L485.386,31.21z"/>
		<path fill="#FFFFFF" d="M492.68,25.523l-1.61,0.994l-0.477-0.784l1.709-0.98l-1.709-0.98l0.477-0.785l1.61,0.995l-0.027-1.765
			h0.952l-0.028,1.765l1.625-1.009l0.477,0.784l-1.724,0.995l1.724,0.994l-0.477,0.784l-1.625-1.008l0.028,1.709h-0.952
			L492.68,25.523z"/>
	</g>
</g>
</svg>
