<?xml version="1.0" encoding="utf-8"?>
<!-- Generator: Adobe Illustrator 17.0.0, SVG Export Plug-In . SVG Version: 6.00 Build 0)  -->
<!DOCTYPE svg PUBLIC "-//W3C//DTD SVG 1.1//EN" "http://www.w3.org/Graphics/SVG/1.1/DTD/svg11.dtd">
<svg version="1.1" id="Layer_2" xmlns="http://www.w3.org/2000/svg" xmlns:xlink="http://www.w3.org/1999/xlink" x="0px" y="0px"
	 width="728px" height="90px" viewBox="0 0 728 90" enable-background="new 0 0 728 90" xml:space="preserve">
<g>
	<path fill="#FFFFFF" d="M47.536,40.982c1.061,0.8,2.541,1.28,4.342,1.28c2.24,0,4.101-0.82,4.101-2.641
		c0-2.82-5.382-1.58-7.661-3.461c-0.641-0.52-1.041-1.24-1.041-2.36c0-2.381,2.061-3.701,5.062-3.701
		c2.001,0,3.841,0.601,4.821,1.261l-0.621,1.141c-0.859-0.521-2.4-1.081-4.1-1.081c-2.581,0-3.602,1.101-3.602,2.301
		c0,3.861,8.702,0.7,8.702,5.881c0,2.701-2.641,3.981-5.661,3.981c-2.24,0-4.001-0.62-5.082-1.461L47.536,40.982z"/>
	<path fill="#FFFFFF" d="M65.756,30.139h1.061l6.742,13.243h-1.66l-2.102-4.201h-6.9l-2.041,4.201h-1.641L65.756,30.139z
		 M69.137,37.882l-2.84-5.642h-0.04l-2.741,5.642H69.137z"/>
	<path fill="#FFFFFF" d="M74.156,30.2l5.642,11.143h0.039L85.198,30.2h1.641l-6.541,13.242h-1L72.516,30.2H74.156z"/>
	<path fill="#FFFFFF" d="M89.016,30.2h9.082v1.32h-7.602v4.48h6.861v1.301h-6.861v4.761h7.721v1.32h-9.201V30.2z"/>
	<path fill="#FFFFFF" d="M106.849,39.863c0.512-9.407,11.071-7.168,14.367-9.6c0.607-0.448,0.959-1.088,0.959-1.952
		c0-1.951-2.079-3.071-5.599-3.071c-3.553,0-6.432,1.023-8.672,2.208l-1.472-2.72c2.528-1.44,5.888-2.592,10.111-2.592
		c4.703,0,9.183,1.728,9.183,6.175c0,9.151-15.006,3.552-15.391,11.487l-0.031,0.672h15.742v2.912h-19.391L106.849,39.863z"/>
	<path fill="#FFFFFF" d="M129.057,32.951c0-6.431,5.248-10.814,11.264-10.814s11.263,4.384,11.263,10.814
		c0,6.624-5.344,10.752-11.263,10.752C134.401,43.703,129.057,39.575,129.057,32.951z M148.032,32.951
		c0-4.479-3.392-7.711-7.711-7.711c-4.32,0-7.712,3.231-7.712,7.711c0,4.448,3.392,7.647,7.712,7.647
		C144.672,40.598,148.032,37.399,148.032,32.951z"/>
	<path fill="#FFFFFF" d="M153.607,30.491c0-2.223,1.738-3.719,3.829-3.719c2.112,0,3.828,1.519,3.828,3.719
		c0,2.179-1.716,3.696-3.828,3.696C155.345,34.187,153.607,32.691,153.607,30.491z M167.029,26.883h2.003l-12.014,14.5h-2.003
		L167.029,26.883z M159.46,30.491c0-1.298-0.858-2.179-2.024-2.179s-2.024,0.881-2.024,2.179c0,1.276,0.858,2.156,2.024,2.156
		S159.46,31.767,159.46,30.491z M162.628,37.906c0-2.223,1.738-3.719,3.829-3.719c2.112,0,3.828,1.519,3.828,3.719
		c0,2.179-1.716,3.696-3.828,3.696C164.367,41.602,162.628,40.106,162.628,37.906z M168.481,37.906c0-1.298-0.857-2.179-2.023-2.179
		c-1.167,0-2.024,0.881-2.024,2.179c0,1.276,0.857,2.156,2.024,2.156C167.624,40.062,168.481,39.182,168.481,37.906z"/>
	<path fill="#FFFFFF" d="M177.586,36.861c0-4.001,2.94-6.762,7.302-6.762c4.36,0,7.302,2.761,7.302,6.762
		c0,4.121-3.001,6.722-7.302,6.722C180.567,43.583,177.586,40.982,177.586,36.861z M190.629,36.861c0-3.141-2.161-5.441-5.741-5.441
		c-3.601,0-5.741,2.301-5.741,5.441s2.141,5.401,5.741,5.401C188.468,42.262,190.629,40.002,190.629,36.861z"/>
	<path fill="#FFFFFF" d="M195.506,30.2h1.181l10.442,10.603h0.04V30.2h1.48v13.183h-1.021L197.027,32.62h-0.04v10.763h-1.48V30.2z"
		/>
	<path fill="#FFFFFF" d="M25.842,65.982c1.061,0.8,2.54,1.28,4.34,1.28c2.241,0,4.102-0.82,4.102-2.641
		c0-2.82-5.381-1.58-7.662-3.461c-0.64-0.52-1.039-1.24-1.039-2.36c0-2.381,2.06-3.701,5.061-3.701c2,0,3.841,0.601,4.82,1.261
		l-0.619,1.141c-0.86-0.521-2.4-1.081-4.102-1.081c-2.58,0-3.601,1.101-3.601,2.301c0,3.861,8.702,0.7,8.702,5.881
		c0,2.701-2.641,3.981-5.662,3.981c-2.24,0-4-0.62-5.08-1.461L25.842,65.982z"/>
	<path fill="#FFFFFF" d="M41.703,56.52h-5.142V55.2h11.783v1.32h-5.162v11.862h-1.479V56.52z"/>
	<path fill="#FFFFFF" d="M53.763,55.139h1.061l6.741,13.243h-1.66l-2.101-4.201h-6.901l-2.041,4.201h-1.64L53.763,55.139z
		 M57.144,62.882l-2.841-5.642h-0.04l-2.74,5.642H57.144z"/>
	<path fill="#FFFFFF" d="M63.922,55.2h1.18l10.443,10.603h0.039V55.2h1.48v13.183h-1.02L65.442,57.62h-0.039v10.763h-1.48V55.2z"/>
	<path fill="#FFFFFF" d="M81.142,55.2h4.721c1.641,0,2.94,0.18,4.021,0.56c2.621,0.881,4.201,2.841,4.201,5.821
		c0,3.341-1.9,5.502-5.101,6.361c-1.081,0.301-2.28,0.44-3.821,0.44h-4.021V55.2z M85.103,67.062c1.42,0,2.54-0.12,3.48-0.38
		c2.7-0.761,3.94-2.581,3.94-5.121c0-2.36-1.199-3.821-3.141-4.521c-0.98-0.38-2.2-0.52-3.721-0.52h-3.04v10.542H85.103z"/>
	<path fill="#FFFFFF" d="M102.223,55.139h1.061l6.74,13.243h-1.66l-2.1-4.201h-6.902l-2.04,4.201h-1.641L102.223,55.139z
		 M105.604,62.882l-2.842-5.642h-0.039l-2.74,5.642H105.604z"/>
	<path fill="#FFFFFF" d="M112.381,55.2h3.961c1.181,0,2.041,0.1,2.761,0.32c1.66,0.54,2.701,1.66,2.701,3.4
		c0,2-1.461,3.341-4.042,3.681v0.04c0.961,0.46,1.741,3.041,3.161,4.061c0.38,0.28,0.82,0.44,1.28,0.44c0.24,0,0.54-0.04,0.761-0.1
		l0.3,1.26c-0.32,0.12-0.761,0.18-1.2,0.18c-0.801,0-1.421-0.239-2.001-0.66c-2.08-1.439-2.86-4.961-4.4-4.961h-1.801v5.521h-1.48
		V55.2z M115.962,61.541c0.98,0,1.7-0.06,2.261-0.22c1.34-0.4,2.021-1.24,2.021-2.421c0-1.06-0.681-1.78-1.54-2.08
		c-0.681-0.26-1.4-0.3-2.361-0.3h-2.48v5.021H115.962z"/>
	<path fill="#FFFFFF" d="M125.441,55.2h4.722c1.64,0,2.94,0.18,4.021,0.56c2.621,0.881,4.201,2.841,4.201,5.821
		c0,3.341-1.9,5.502-5.102,6.361c-1.08,0.301-2.28,0.44-3.82,0.44h-4.021V55.2z M129.402,67.062c1.421,0,2.541-0.12,3.481-0.38
		c2.7-0.761,3.94-2.581,3.94-5.121c0-2.36-1.2-3.821-3.141-4.521c-0.98-0.38-2.2-0.52-3.721-0.52h-3.041v10.542H129.402z"/>
	<path fill="#FFFFFF" d="M146.46,55.2h3.761c1.261,0,2.241,0.12,3.062,0.439c1.54,0.541,2.641,1.681,2.641,3.642
		c0,2.18-1.36,3.46-3.241,3.961c-0.76,0.199-1.62,0.3-2.94,0.3h-1.801v4.841h-1.48V55.2z M149.761,62.241
		c1.101,0,1.9-0.06,2.521-0.24c1.32-0.399,2.081-1.26,2.081-2.66c0-1.3-0.62-2.061-1.621-2.461c-0.699-0.279-1.54-0.359-2.74-0.359
		h-2.061v5.721H149.761z"/>
	<path fill="#FFFFFF" d="M158.98,55.2h3.961c1.181,0,2.041,0.1,2.761,0.32c1.66,0.54,2.701,1.66,2.701,3.4
		c0,2-1.461,3.341-4.041,3.681v0.04c0.96,0.46,1.74,3.041,3.16,4.061c0.38,0.28,0.82,0.44,1.28,0.44c0.24,0,0.54-0.04,0.761-0.1
		l0.3,1.26c-0.32,0.12-0.76,0.18-1.2,0.18c-0.801,0-1.421-0.239-2.001-0.66c-2.08-1.439-2.86-4.961-4.4-4.961h-1.801v5.521h-1.48
		V55.2z M162.561,61.541c0.98,0,1.7-0.06,2.261-0.22c1.34-0.4,2.021-1.24,2.021-2.421c0-1.06-0.681-1.78-1.541-2.08
		c-0.68-0.26-1.399-0.3-2.36-0.3h-2.48v5.021H162.561z"/>
	<path fill="#FFFFFF" d="M172.04,55.2h9.082v1.32h-7.602v4.48h6.861v1.301h-6.861v4.761h7.722v1.32h-9.202V55.2z"/>
	<path fill="#FFFFFF" d="M184.36,55.2h1.221l6.302,7.741h0.039l6.302-7.741h1.181v13.183h-1.48V57.82h-0.04l-5.861,7.182h-0.26
		l-5.882-7.182h-0.04v10.562h-1.48V55.2z"/>
	<path fill="#FFFFFF" d="M203.48,55.2h1.48v13.183h-1.48V55.2z"/>
	<path fill="#FFFFFF" d="M209.04,55.2h9.082v1.32h-7.602v4.48h6.861v1.301h-6.861v4.761h7.722v1.32h-9.202V55.2z"/>
	<path fill="#FFFFFF" d="M221.36,55.2h3.961c1.181,0,2.041,0.1,2.761,0.32c1.66,0.54,2.701,1.66,2.701,3.4
		c0,2-1.461,3.341-4.041,3.681v0.04c0.96,0.46,1.74,3.041,3.16,4.061c0.38,0.28,0.82,0.44,1.28,0.44c0.24,0,0.54-0.04,0.761-0.1
		l0.3,1.26c-0.32,0.12-0.761,0.18-1.2,0.18c-0.801,0-1.421-0.239-2.001-0.66c-2.08-1.439-2.86-4.961-4.4-4.961h-1.801v5.521h-1.48
		V55.2z M224.941,61.541c0.98,0,1.7-0.06,2.261-0.22c1.34-0.4,2.021-1.24,2.021-2.421c0-1.06-0.681-1.78-1.541-2.08
		c-0.68-0.26-1.399-0.3-2.36-0.3h-2.48v5.021H224.941z"/>
</g>
<g>
	<path fill="#515D77" d="M294.164,51.255c1.24,0.76,3.021,1.14,4.521,1.14c1.9,0,2.881-0.46,2.881-1.32
		c0-1.96-8.223-0.02-8.223-5.121c0-2.801,2.461-4.241,5.582-4.241c2,0,4.381,0.5,5.841,1.36l-1.12,2.46
		c-1.2-0.62-3.161-1.021-4.602-1.021c-1.64,0-2.28,0.46-2.28,1.161c0,2.36,8.222,0.12,8.222,5.301c0,2.721-2.601,4.221-6.281,4.221
		c-2.12,0-4.32-0.48-5.841-1.48L294.164,51.255z"/>
	<path fill="#515D77" d="M306.164,54.995l6.001-13.243h2.98l6.502,13.243h-3.741l-1.28-2.781h-5.701l-1.14,2.781H306.164z
		 M313.645,45.733h-0.04l-1.521,3.681h3.241L313.645,45.733z"/>
	<path fill="#515D77" d="M323.484,41.813h3.341v10.342h6.581v2.841h-9.922V41.813z"/>
	<path fill="#515D77" d="M335.204,41.813h10.242v2.84h-6.901v2.281h6.281v2.84h-6.281v2.38h7.021v2.841h-10.362V41.813z"/>
	<path fill="#515D77" d="M353.243,41.813h10.242v2.84h-6.901v2.281h6.281v2.84h-6.281v2.38h7.021v2.841h-10.362V41.813z"/>
	<path fill="#515D77" d="M366.522,41.813h2.9l7.722,8.021h0.04v-8.021h3.341v13.183h-2.761l-7.862-8.222h-0.039v8.222h-3.341V41.813
		z"/>
	<path fill="#515D77" d="M384.042,41.813h5.541c1.36,0,2.3,0.1,3.16,0.3c2.861,0.68,5.142,2.601,5.142,6.082
		c0,3.561-2.4,5.401-4.621,6.181c-1.54,0.54-3.281,0.62-4.821,0.62h-4.4V41.813z M388.642,52.155c1.2,0,2.141-0.08,2.921-0.3
		c1.62-0.46,2.9-1.7,2.9-3.661c0-1.94-1.221-2.941-2.581-3.321c-0.76-0.22-1.54-0.22-2.82-0.22h-1.68v7.501H388.642z"/>
	<path fill="#515D77" d="M401.101,51.255c1.24,0.76,3.021,1.14,4.521,1.14c1.9,0,2.881-0.46,2.881-1.32
		c0-1.96-8.223-0.02-8.223-5.121c0-2.801,2.461-4.241,5.582-4.241c2,0,4.381,0.5,5.841,1.36l-1.12,2.46
		c-1.2-0.62-3.161-1.021-4.602-1.021c-1.64,0-2.28,0.46-2.28,1.161c0,2.36,8.222,0.12,8.222,5.301c0,2.721-2.601,4.221-6.281,4.221
		c-2.12,0-4.32-0.48-5.841-1.48L401.101,51.255z"/>
	<path fill="#515D77" d="M417.261,54.995l6.001-13.243h2.98l6.502,13.243h-3.741l-1.28-2.781h-5.701l-1.14,2.781H417.261z
		 M424.743,45.733h-0.04l-1.521,3.681h3.241L424.743,45.733z"/>
	<path fill="#515D77" d="M434.582,41.813h5.161c1.12,0,1.9,0.1,2.601,0.3c2.06,0.58,3.36,1.96,3.36,4.141
		c0,2.22-1.341,3.781-3.781,4.361c-0.66,0.16-1.42,0.22-2.46,0.22h-1.54v4.161h-3.341V41.813z M439.342,48.074
		c0.84,0,1.28-0.08,1.62-0.18c0.94-0.28,1.32-0.86,1.32-1.6c0-0.74-0.38-1.26-1.26-1.521c-0.341-0.1-0.7-0.12-1.36-0.12h-1.74v3.421
		H439.342z"/>
	<path fill="#515D77" d="M455.943,49.714c1.1,0.62,1.48,2.821,3.101,2.821c0.36,0,0.7-0.08,1.021-0.2l0.6,2.521
		c-0.68,0.26-1.5,0.34-2.12,0.34c-4.261,0-4.682-4.881-6.102-4.881h-0.72v4.681h-3.341V41.813h5.44c3.602,0,5.582,1.38,5.582,4.161
		c0,1.96-1.241,3.301-3.461,3.701V49.714z M453.482,47.634c1.78,0,2.501-0.561,2.501-1.541c0-1.06-0.721-1.44-2.261-1.44h-2v2.981
		H453.482z"/>
	<path fill="#515D77" d="M462.661,41.813h3.341v13.183h-3.341V41.813z"/>
	<path fill="#515D77" d="M469.52,41.813h3.341v10.342h6.581v2.841h-9.922V41.813z"/>
	<path fill="#515D77" d="M490.2,41.813h3.301l-4.741,7.341h3.441v-3.361h3.021v3.361h3.44v2.581h-3.44v3.461h-3.021v-3.461h-6.041
		l-1.241-1.74L490.2,41.813z"/>
</g>
</svg>
