<?xml version="1.0" encoding="utf-8"?>
<!-- Generator: Adobe Illustrator 17.0.0, SVG Export Plug-In . SVG Version: 6.00 Build 0)  -->
<!DOCTYPE svg PUBLIC "-//W3C//DTD SVG 1.1//EN" "http://www.w3.org/Graphics/SVG/1.1/DTD/svg11.dtd">
<svg version="1.1" id="Layer_1" xmlns="http://www.w3.org/2000/svg" xmlns:xlink="http://www.w3.org/1999/xlink" x="0px" y="0px"
	 width="105px" height="25px" viewBox="-0.451 -0.398 105 25" enable-background="new -0.451 -0.398 105 25" xml:space="preserve">
<g>
	<path fill="#444662" d="M99.545,24.204H4.553C2.049,24.204,0,22.155,0,19.651V4.553C0,2.049,2.049,0,4.553,0h94.993
		c2.504,0,4.553,2.049,4.553,4.553v15.099C104.098,22.155,102.049,24.204,99.545,24.204z"/>
	<path opacity="0.3" fill="#FFFFFF" enable-background="new    " d="M101.682,1.005c0.631,0.906,1.005,2.004,1.005,3.186v13
		c0,3.081-2.521,5.602-5.602,5.602H4.191c-1.182,0-2.28-0.373-3.186-1.005c1.014,1.456,2.698,2.416,4.598,2.416h92.894
		c3.081,0,5.602-2.521,5.602-5.602v-13C104.098,3.703,103.138,2.019,101.682,1.005z"/>
</g>
</svg>
