<?xml version="1.0" encoding="utf-8"?>
<!-- Generator: Adobe Illustrator 17.0.0, SVG Export Plug-In . SVG Version: 6.00 Build 0)  -->
<!DOCTYPE svg PUBLIC "-//W3C//DTD SVG 1.1//EN" "http://www.w3.org/Graphics/SVG/1.1/DTD/svg11.dtd">
<svg version="1.1" id="Layer_1" xmlns="http://www.w3.org/2000/svg" xmlns:xlink="http://www.w3.org/1999/xlink" x="0px" y="0px"
	 width="72px" height="8px" viewBox="-0.059 -0.102 72 8" enable-background="new -0.059 -0.102 72 8" xml:space="preserve">
<g>
	<path fill="#FFFFFF" d="M0.001,7.68V0.058h3.481c1.399,0,2.834,0.532,2.834,2.013c0,0.763-0.405,1.318-1.156,1.538v0.023
		c0.994,0.162,1.584,0.798,1.584,1.77c0,1.827-1.712,2.278-3.134,2.278C3.61,7.68,0.001,7.68,0.001,7.68z M3.31,3.042
		c0.729,0,1.029-0.266,1.029-0.694c0-0.486-0.382-0.647-1.041-0.647H1.887v1.341C1.887,3.042,3.31,3.042,3.31,3.042z M3.401,6.037
		c1.029,0,1.365-0.22,1.365-0.706c0-0.462-0.277-0.694-1.007-0.694H1.887v1.399L3.401,6.037L3.401,6.037z"/>
	<path fill="#FFFFFF" d="M12.414,7.795c-2.521,0-4.325-1.48-4.325-3.898C8.089,1.48,9.893,0,12.414,0s4.326,1.48,4.326,3.897
		C16.74,6.315,14.936,7.795,12.414,7.795z M12.414,6.13c1.573,0,2.349-0.937,2.349-2.232s-0.775-2.232-2.349-2.232
		c-1.572,0-2.348,0.937-2.348,2.232S10.842,6.13,12.414,6.13z"/>
	<path fill="#FFFFFF" d="M22.411,7.795c-2.521,0-4.325-1.48-4.325-3.898C18.086,1.48,19.89,0,22.411,0s4.326,1.48,4.326,3.897
		C26.737,6.315,24.933,7.795,22.411,7.795z M22.411,6.13c1.573,0,2.349-0.937,2.349-2.232s-0.775-2.232-2.349-2.232
		c-1.572,0-2.348,0.937-2.348,2.232S20.839,6.13,22.411,6.13z"/>
	<path fill="#FFFFFF" d="M32.142,3.446l3.574,4.233h-2.43l-2.429-2.938l-0.439,0.44V7.68h-1.932V0.058h1.932v2.915h0.023l2.66-2.915
		h2.429L32.142,3.446z"/>
	<path fill="#FFFFFF" d="M39.722,0.058H41.4l4.464,4.638h0.023V0.058h1.932V7.68h-1.597l-4.545-4.754h-0.023V7.68h-1.932
		C39.722,7.68,39.722,0.058,39.722,0.058z"/>
	<path fill="#FFFFFF" d="M53.895,7.795c-2.521,0-4.325-1.48-4.325-3.898C49.569,1.48,51.373,0,53.895,0s4.326,1.48,4.326,3.897
		C58.221,6.315,56.416,7.795,53.895,7.795z M53.895,6.13c1.573,0,2.349-0.937,2.349-2.232s-0.775-2.232-2.349-2.232
		c-1.572,0-2.348,0.937-2.348,2.232S52.322,6.13,53.895,6.13z"/>
	<path fill="#FFFFFF" d="M60.86,0.058l1.816,4.812h0.022l1.747-4.812h1.7l1.92,4.812h0.023l1.665-4.812h2.128l-2.97,7.656h-1.62
		L65.313,2.74H65.29l-1.78,4.974h-1.666l-3.135-7.657L60.86,0.058L60.86,0.058z"/>
</g>
</svg>
