<?xml version="1.0" encoding="utf-8"?>
<!-- Generator: Adobe Illustrator 21.1.0, SVG Export Plug-In . SVG Version: 6.00 Build 0)  -->
<svg version="1.1" id="Layer_1" xmlns="http://www.w3.org/2000/svg" xmlns:xlink="http://www.w3.org/1999/xlink" x="0px" y="0px"
	 viewBox="0 0 2857.4 1972.8" style="enable-background:new 0 0 2857.4 1972.8;" xml:space="preserve">
<style type="text/css">
	.st0{fill:#091D2F;}
	.st1{fill:#6CC29D;}
	.st2{fill:#FFFFFF;}
	.st3{fill:#7F569C;}
	.st4{fill:#375DA9;}
</style>
<g id="feathers6">
	<g>
		<g>
			
				<ellipse transform="matrix(0.9941 -0.1081 0.1081 0.9941 -123.6225 282.3082)" class="st0" cx="2542" cy="1281.4" rx="316.5" ry="204.6"/>
			
				<ellipse transform="matrix(0.9941 -0.1081 0.1081 0.9941 -124.1248 279.2234)" class="st1" cx="2513.3" cy="1284.4" rx="287.6" ry="185.9"/>
			
				<ellipse transform="matrix(0.9941 -0.1081 0.1081 0.9941 -125.1432 273.0563)" class="st2" cx="2455.9" cy="1290.8" rx="229.9" ry="148.6"/>
			
				<ellipse transform="matrix(0.9941 -0.1081 0.1081 0.9941 -125.5035 270.809)" class="st3" cx="2435" cy="1293" rx="208.9" ry="135"/>
			
				<ellipse transform="matrix(0.9941 -0.1081 0.1081 0.9941 -126.6496 263.8572)" class="st0" cx="2370.3" cy="1300" rx="143.8" ry="92.9"/>
			
				<ellipse transform="matrix(0.9941 -0.1081 0.1081 0.9941 -126.878 262.4491)" class="st1" cx="2357.2" cy="1301.4" rx="130.6" ry="84.4"/>
			
				<ellipse transform="matrix(0.9941 -0.1081 0.1081 0.9941 -127.3327 259.6545)" class="st2" cx="2331.2" cy="1304.2" rx="104.5" ry="67.5"/>
			
				<ellipse transform="matrix(0.9941 -0.1081 0.1081 0.9941 -127.4966 258.633)" class="st4" cx="2321.7" cy="1305.2" rx="94.9" ry="61.3"/>
		</g>
		<g>
			
				<ellipse transform="matrix(0.4969 -0.8678 0.8678 0.4969 -506.9865 827.209)" class="st0" cx="459.9" cy="850.9" rx="204.6" ry="316.6"/>
			
				<ellipse transform="matrix(0.4969 -0.8678 0.8678 0.4969 -506.8573 856.2633)" class="st1" cx="485.1" cy="865.3" rx="185.9" ry="287.6"/>
			
				<ellipse transform="matrix(0.4969 -0.8678 0.8678 0.4969 -506.577 914.1443)" class="st2" cx="535.1" cy="894" rx="148.6" ry="230"/>
			
				<ellipse transform="matrix(0.4969 -0.8678 0.8678 0.4969 -506.4166 935.189)" class="st3" cx="553.4" cy="904.4" rx="135" ry="208.9"/>
			
				<ellipse transform="matrix(0.4969 -0.8678 0.8678 0.4969 -506.0755 1000.5479)" class="st0" cx="609.9" cy="936.7" rx="92.9" ry="143.8"/>
			
				<ellipse transform="matrix(0.4969 -0.8678 0.8678 0.4969 -506.019 1013.7051)" class="st1" cx="621.3" cy="943.3" rx="84.4" ry="130.6"/>
			
				<ellipse transform="matrix(0.4969 -0.8678 0.8678 0.4969 -505.9055 1039.9607)" class="st2" cx="644" cy="956.3" rx="67.5" ry="104.5"/>
			
				<ellipse transform="matrix(0.4969 -0.8678 0.8678 0.4969 -505.8448 1049.5975)" class="st4" cx="652.3" cy="961.1" rx="61.3" ry="94.9"/>
		</g>
		<g>
			
				<ellipse transform="matrix(0.101 -0.9949 0.9949 0.101 -1003.2706 1477.0775)" class="st0" cx="315.7" cy="1293.7" rx="204.6" ry="316.6"/>
			
				<ellipse transform="matrix(0.101 -0.9949 0.9949 0.101 -980.309 1508.3441)" class="st1" cx="344.5" cy="1296.6" rx="185.9" ry="287.6"/>
			
				<ellipse transform="matrix(0.101 -0.9949 0.9949 0.101 -934.5075 1570.583)" class="st2" cx="401.8" cy="1302.4" rx="148.6" ry="230"/>
			
				<ellipse transform="matrix(0.101 -0.9949 0.9949 0.101 -917.8545 1593.3051)" class="st3" cx="422.7" cy="1304.5" rx="135" ry="208.9"/>
			
				<ellipse transform="matrix(0.101 -0.9949 0.9949 0.101 -866.1187 1663.6832)" class="st0" cx="487.5" cy="1311.1" rx="92.9" ry="143.8"/>
			
				<ellipse transform="matrix(0.101 -0.9949 0.9949 0.101 -855.6817 1677.855)" class="st1" cx="500.6" cy="1312.4" rx="84.4" ry="130.7"/>
			
				<ellipse transform="matrix(0.101 -0.9949 0.9949 0.101 -834.9059 1706.2584)" class="st2" cx="526.7" cy="1315.1" rx="67.5" ry="104.5"/>
			
				<ellipse transform="matrix(0.101 -0.9949 0.9949 0.101 -827.2685 1716.4377)" class="st4" cx="536.1" cy="1316" rx="61.3" ry="94.9"/>
		</g>
		<g>
			
				<ellipse transform="matrix(0.8642 -0.5031 0.5031 0.8642 -99.1845 1322.0321)" class="st0" cx="2399.7" cy="844.8" rx="316.6" ry="204.6"/>
			
				<ellipse transform="matrix(0.8642 -0.5031 0.5031 0.8642 -109.9516 1311.4052)" class="st1" cx="2374.7" cy="859.4" rx="287.6" ry="185.9"/>
			
				<ellipse transform="matrix(0.8642 -0.5031 0.5031 0.8642 -131.298 1290.2839)" class="st2" cx="2324.8" cy="888.4" rx="229.9" ry="148.6"/>
			
				<ellipse transform="matrix(0.8642 -0.5031 0.5031 0.8642 -139.0681 1282.5376)" class="st3" cx="2306.6" cy="898.9" rx="208.9" ry="135"/>
			
				<ellipse transform="matrix(0.8642 -0.5031 0.5031 0.8642 -163.1771 1258.7159)" class="st0" cx="2250.4" cy="931.7" rx="143.8" ry="92.9"/>
			
				<ellipse transform="matrix(0.8642 -0.5031 0.5031 0.8642 -168.0556 1253.8772)" class="st1" cx="2239" cy="938.3" rx="130.6" ry="84.4"/>
			
				<ellipse transform="matrix(0.8642 -0.5031 0.5031 0.8642 -177.7539 1244.3007)" class="st2" cx="2216.4" cy="951.5" rx="104.5" ry="67.5"/>
			
				<ellipse transform="matrix(0.8642 -0.5031 0.5031 0.8642 -181.3069 1240.7809)" class="st4" cx="2208.1" cy="956.3" rx="94.9" ry="61.3"/>
		</g>
		<g>
			
				<ellipse transform="matrix(0.5849 -0.8111 0.8111 0.5849 460.5164 1901.0287)" class="st0" cx="2087.6" cy="500.6" rx="316.6" ry="204.6"/>
			
				<ellipse transform="matrix(0.5849 -0.8111 0.8111 0.5849 434.4682 1897.0602)" class="st1" cx="2070.7" cy="524.1" rx="287.6" ry="185.9"/>
			
				<ellipse transform="matrix(0.5849 -0.8111 0.8111 0.5849 382.4797 1889.0536)" class="st2" cx="2036.9" cy="570.8" rx="230" ry="148.6"/>
			
				<ellipse transform="matrix(0.5849 -0.8111 0.8111 0.5849 363.5328 1886.1938)" class="st3" cx="2024.6" cy="587.9" rx="208.9" ry="135"/>
			
				<ellipse transform="matrix(0.5849 -0.8111 0.8111 0.5849 304.8746 1877.208)" class="st0" cx="1986.5" cy="640.7" rx="143.8" ry="92.9"/>
			
				<ellipse transform="matrix(0.5849 -0.8111 0.8111 0.5849 293.1076 1875.4371)" class="st1" cx="1978.9" cy="651.4" rx="130.6" ry="84.4"/>
			
				<ellipse transform="matrix(0.5849 -0.8111 0.8111 0.5849 269.4521 1871.7812)" class="st2" cx="1963.5" cy="672.6" rx="104.5" ry="67.5"/>
			
				<ellipse transform="matrix(0.5849 -0.8111 0.8111 0.5849 260.8288 1870.5089)" class="st4" cx="1957.9" cy="680.4" rx="94.9" ry="61.3"/>
		</g>
		<g>
			
				<ellipse transform="matrix(0.2044 -0.9789 0.9789 0.2044 1016.1302 1876.1691)" class="st0" cx="1662.3" cy="313" rx="316.6" ry="204.6"/>
			
				<ellipse transform="matrix(0.2044 -0.9789 0.9789 0.2044 983.734 1892.9799)" class="st1" cx="1656.4" cy="341.3" rx="287.6" ry="185.9"/>
			
				<ellipse transform="matrix(0.2044 -0.9789 0.9789 0.2044 919.0799 1926.3157)" class="st2" cx="1644.6" cy="397.8" rx="230" ry="148.6"/>
			
				<ellipse transform="matrix(0.2044 -0.9789 0.9789 0.2044 895.5129 1938.5011)" class="st3" cx="1640.3" cy="418.3" rx="208.9" ry="135"/>
			
				<ellipse transform="matrix(0.2044 -0.9789 0.9789 0.2044 822.5178 1976.1335)" class="st0" cx="1626.9" cy="482.1" rx="143.8" ry="92.9"/>
			
				<ellipse transform="matrix(0.2044 -0.9789 0.9789 0.2044 807.778 1983.7804)" class="st1" cx="1624.3" cy="495" rx="130.7" ry="84.4"/>
			
				<ellipse transform="matrix(0.2044 -0.9789 0.9789 0.2044 778.3522 1998.9226)" class="st2" cx="1618.9" cy="520.6" rx="104.5" ry="67.5"/>
			
				<ellipse transform="matrix(0.2044 -0.9789 0.9789 0.2044 767.7304 2004.4736)" class="st4" cx="1617" cy="529.9" rx="94.9" ry="61.3"/>
		</g>
		<g>
			
				<ellipse transform="matrix(0.9774 -0.2114 0.2114 0.9774 -39.0421 259.79)" class="st0" cx="1195.5" cy="312.5" rx="204.6" ry="316.6"/>
			
				<ellipse transform="matrix(0.9774 -0.2114 0.2114 0.9774 -44.8878 261.7193)" class="st1" cx="1201.6" cy="340.8" rx="185.9" ry="287.6"/>
			
				<ellipse transform="matrix(0.9774 -0.2114 0.2114 0.9774 -56.5138 265.5686)" class="st2" cx="1213.8" cy="397.1" rx="148.6" ry="230"/>
			
				<ellipse transform="matrix(0.9774 -0.2114 0.2114 0.9774 -60.7641 266.9868)" class="st3" cx="1218.3" cy="417.7" rx="135" ry="208.9"/>
			
				<ellipse transform="matrix(0.9774 -0.2114 0.2114 0.9774 -73.9029 271.319)" class="st0" cx="1232" cy="481.3" rx="92.9" ry="143.8"/>
			
				<ellipse transform="matrix(0.9774 -0.2114 0.2114 0.9774 -76.5654 272.2043)" class="st1" cx="1234.8" cy="494.2" rx="84.4" ry="130.7"/>
			
				<ellipse transform="matrix(0.9774 -0.2114 0.2114 0.9774 -81.8478 273.9661)" class="st2" cx="1240.4" cy="519.8" rx="67.5" ry="104.5"/>
			
				<ellipse transform="matrix(0.9774 -0.2114 0.2114 0.9774 -83.7699 274.5977)" class="st4" cx="1242.4" cy="529.1" rx="61.3" ry="94.9"/>
		</g>
		<g>
			
				<ellipse transform="matrix(0.8069 -0.5907 0.5907 0.8069 -147.904 550.9927)" class="st0" cx="768.8" cy="501.7" rx="204.6" ry="316.6"/>
			
				<ellipse transform="matrix(0.8069 -0.5907 0.5907 0.8069 -158.4161 565.6249)" class="st1" cx="785.9" cy="525.1" rx="185.9" ry="287.6"/>
			
				<ellipse transform="matrix(0.8069 -0.5907 0.5907 0.8069 -179.2883 594.731)" class="st2" cx="820" cy="571.6" rx="148.6" ry="230"/>
			
				<ellipse transform="matrix(0.8069 -0.5907 0.5907 0.8069 -186.9363 605.3531)" class="st3" cx="832.4" cy="588.6" rx="135" ry="208.9"/>
			
				<ellipse transform="matrix(0.8069 -0.5907 0.5907 0.8069 -210.5114 638.2117)" class="st0" cx="870.9" cy="641.1" rx="92.9" ry="143.8"/>
			
				<ellipse transform="matrix(0.8069 -0.5907 0.5907 0.8069 -215.3102 644.819)" class="st1" cx="878.6" cy="651.7" rx="84.4" ry="130.7"/>
			
				<ellipse transform="matrix(0.8069 -0.5907 0.5907 0.8069 -224.8147 658.0831)" class="st2" cx="894.1" cy="672.9" rx="67.5" ry="104.5"/>
			
				<ellipse transform="matrix(0.8069 -0.5907 0.5907 0.8069 -228.2469 662.9211)" class="st4" cx="899.8" cy="680.6" rx="61.3" ry="94.9"/>
		</g>
		<g>
			
				<ellipse transform="matrix(0.95 -0.3124 0.3124 0.95 -529.8242 202.0946)" class="st0" cx="365.8" cy="1754.7" rx="316.6" ry="204.6"/>
			
				<ellipse transform="matrix(0.95 -0.3124 0.3124 0.95 -525.6071 210.2251)" class="st1" cx="393.3" cy="1745.6" rx="287.6" ry="185.9"/>
			
				<ellipse transform="matrix(0.95 -0.3124 0.3124 0.95 -517.2379 226.4437)" class="st2" cx="448.1" cy="1727.6" rx="230" ry="148.6"/>
			
				<ellipse transform="matrix(0.95 -0.3124 0.3124 0.95 -514.1741 232.358)" class="st3" cx="468.1" cy="1721" rx="208.9" ry="135"/>
			
				<ellipse transform="matrix(0.95 -0.3124 0.3124 0.95 -504.7437 250.6543)" class="st0" cx="529.9" cy="1700.7" rx="143.8" ry="92.9"/>
			
				<ellipse transform="matrix(0.95 -0.3124 0.3124 0.95 -502.8365 254.3548)" class="st1" cx="542.4" cy="1696.6" rx="130.7" ry="84.4"/>
			
				<ellipse transform="matrix(0.95 -0.3124 0.3124 0.95 -499.0272 261.7207)" class="st2" cx="567.3" cy="1688.4" rx="104.5" ry="67.5"/>
			
				<ellipse transform="matrix(0.95 -0.3124 0.3124 0.95 -497.6328 264.4113)" class="st4" cx="576.4" cy="1685.4" rx="94.9" ry="61.3"/>
		</g>
		<g>
			
				<ellipse transform="matrix(0.3056 -0.9522 0.9522 0.3056 71.5036 3588.9253)" class="st0" cx="2496.3" cy="1745.4" rx="204.6" ry="316.5"/>
			
				<ellipse transform="matrix(0.3056 -0.9522 0.9522 0.3056 60.7676 3556.6018)" class="st1" cx="2468.8" cy="1736.6" rx="185.9" ry="287.6"/>
			
				<ellipse transform="matrix(0.3056 -0.9522 0.9522 0.3056 39.4255 3492.1301)" class="st2" cx="2413.9" cy="1719" rx="148.6" ry="229.9"/>
			
				<ellipse transform="matrix(0.3056 -0.9522 0.9522 0.3056 31.6412 3468.5112)" class="st3" cx="2393.8" cy="1712.6" rx="135" ry="208.9"/>
			
				<ellipse transform="matrix(0.3056 -0.9522 0.9522 0.3056 7.5391 3395.6643)" class="st0" cx="2331.8" cy="1692.7" rx="92.9" ry="143.8"/>
			
				<ellipse transform="matrix(0.3056 -0.9522 0.9522 0.3056 2.7041 3380.9641)" class="st1" cx="2319.3" cy="1688.6" rx="84.4" ry="130.6"/>
			
				<ellipse transform="matrix(0.3056 -0.9522 0.9522 0.3056 -7.06 3351.6936)" class="st2" cx="2294.4" cy="1680.7" rx="67.5" ry="104.5"/>
			
				<ellipse transform="matrix(0.3056 -0.9522 0.9522 0.3056 -10.5926 3341.0291)" class="st4" cx="2285.3" cy="1677.8" rx="61.3" ry="94.9"/>
		</g>
	</g>
</g>
<g id="Layer_1_1_">
</g>
</svg>
