<?xml version="1.0" encoding="utf-8"?>
<!-- Generator: Adobe Illustrator 19.1.0, SVG Export Plug-In . SVG Version: 6.00 Build 0)  -->
<!DOCTYPE svg PUBLIC "-//W3C//DTD SVG 1.1//EN" "http://www.w3.org/Graphics/SVG/1.1/DTD/svg11.dtd">
<svg version="1.1" id="Layer_1" xmlns="http://www.w3.org/2000/svg" xmlns:xlink="http://www.w3.org/1999/xlink" x="0px" y="0px"
	 viewBox="332 -39 767 189" style="enable-background:new 332 -39 767 189;" xml:space="preserve">
<style type="text/css">
	.st0{fill:#FFFFFF;}
	.st1{fill:#C5CACB;}
	.st2{fill:#ADB4B7;}
	.st3{fill:#F3F3F3;}
	.st4{fill:#6B787C;}
	.st5{fill:#32444C;}
	.st6{fill:#BFBFBF;}
	.st7{fill:#4C4C4D;}
	.st8{fill:url(#SVGID_1_);}
	.st9{fill:url(#SVGID_2_);}
	.st10{fill:#010101;}
	.st11{fill:#4D4D4D;}
</style>
<circle class="st0" cx="1085.5" cy="-25.5" r="13.5"/>
<path class="st0" d="M830.9,143.5l1.5-1.4l5.1,5l5.1-5l1.5,1.4l-6.5,6.5L830.9,143.5z"/>
<g>
	<path class="st1" d="M835.9-39h-47.7c-4.5,0-8.1,3.5-8.1,7.8V7.2c0,2.2,1,4.1,2.5,5.6l59.2-49.4C840.2-38.1,838.1-39,835.9-39z"/>
	<path class="st2" d="M835.9,15c4.5,0,8.1-3.5,8.1-7.8v-38.4c0-2.1-0.9-4-2.3-5.4l-59.2,49.4c1.5,1.4,3.5,2.2,5.7,2.2
		C788.2,15,835.9,15,835.9,15z"/>
	<path class="st3" d="M833,10h-42c-3.3,0-6-2.7-6-6v-32c0-3.3,2.7-6,6-6h42c3.3,0,6,2.7,6,6V4C839,7.3,836.3,10,833,10z"/>
</g>
<g>
	<path class="st4" d="M835.9,15h-47.7c-4.5,0-8.1,3.5-8.1,7.8v38.4c0,2.2,1,4.1,2.5,5.6l59.2-49.4C840.2,15.9,838.1,15,835.9,15z"/>
	<path class="st5" d="M835.9,69c4.5,0,8.1-3.5,8.1-7.8V22.8c0-2.1-0.9-4-2.3-5.4l-59.2,49.4c1.5,1.4,3.5,2.2,5.7,2.2H835.9z"/>
	<path class="st3" d="M833,64h-42c-3.3,0-6-2.7-6-6V26c0-3.3,2.7-6,6-6h42c3.3,0,6,2.7,6,6v32C839,61.3,836.3,64,833,64z"/>
</g>
<path class="st5" d="M440-16.5v-5.2c0-0.2,0-0.4,0-0.5c0-1.4,0-2.6-0.8-3.5c-0.5-0.5-1.2-0.7-2.2-0.7h-2.6c-1,0-1.8,0.2-2.3,0.7
	c-0.8,0.8-0.8,2.1-0.8,3.5v5.7v0.5c0,1.4,0,2.7,0.8,3.5c0.5,0.5,1.2,0.7,2.3,0.7h2.6c1,0,1.7-0.2,2.2-0.7c0.8-0.8,0.8-2.1,0.8-3.5
	C440-16.2,440-16.3,440-16.5z M438.8-16c0,1.1,0,2.1-0.4,2.6c-0.3,0.3-0.7,0.4-1.4,0.4h-2.6c-0.7,0-1.1-0.1-1.4-0.4
	c-0.5-0.5-0.4-1.5-0.4-2.6v-5.7v-0.5c0-1.2,0-2.2,0.4-2.6c0.3-0.3,0.7-0.4,1.4-0.4h2.6c0.7,0,1.1,0.1,1.4,0.4
	c0.4,0.4,0.4,1.4,0.4,2.6c0,0.2,0,0.4,0,0.5v5.2C438.7-16.3,438.7-16.1,438.8-16z M416.3,2.5L416-6.4c0-0.2,0-0.3,0-0.5
	c0-1.3-0.1-2.6,0.7-3.4c0.5-0.6,1.4-0.9,2.6-0.9h3c1.2,0,2,0.2,2.6,0.8c0.8,0.8,0.8,2,0.8,3.4c0,0.2,0,0.4,0,0.5l0.1,9h-1.2l-0.1-9
	c0-0.2,0-0.4,0-0.5c0-1.1,0-2-0.5-2.5c-0.3-0.3-0.9-0.4-1.7-0.4h-3c-0.8,0-1.4,0.2-1.7,0.5c-0.4,0.5-0.4,1.4-0.4,2.5
	c0,0.2,0,0.3,0,0.5l0.3,8.9H416.3z M423.1-5c0,0.5-0.4,0.9-0.9,0.9h-2.3c-0.5,0-0.9-0.4-0.9-0.9l0,0c0-0.5,0.4-0.9,0.9-0.9h2.3
	C422.6-5.9,423.1-5.5,423.1-5L423.1-5z M437.8-21.1c0,0.5-0.4,0.9-1,0.9h-2.4c-0.5,0-1-0.4-1-0.9l0,0c0-0.5,0.4-0.9,1-0.9h2.4
	C437.3-22,437.8-21.6,437.8-21.1L437.8-21.1z M437.9-14.6c0,0.4-0.3,0.7-0.7,0.7h-3.1c-0.4,0-0.7-0.3-0.7-0.7l0,0
	c0-0.4,0.3-0.7,0.7-0.7h3.1C437.6-15.3,437.9-15,437.9-14.6L437.9-14.6z M432.7-10.4L432-8.9l-0.4-0.2c-2-1.2-3.2-3.3-3.2-5.6v-0.1
	v-0.5h1.7v0.5c0,0,0,0,0,0.1c0,1.7,0.9,3.3,2.3,4.2L432.7-10.4z M430.9-7.6l0.3,0.2l-0.7,1.6L430.2-6c-3.2-1.9-5.2-5.2-5.2-8.8v-0.1
	v-0.4h1.7v0.5C426.8-11.8,428.4-9.1,430.9-7.6z"/>
<path class="st5" d="M489.8-14.4v-5.3c0-0.2,0-0.4,0-0.5c0-1.4,0-2.7-0.8-3.5c-0.5-0.5-1.2-0.8-2.2-0.8h-2.6c-1,0-1.7,0.2-2.2,0.8
	c-0.8,0.8-0.8,2.1-0.8,3.5v5.8v0.5c0,1.4,0,2.7,0.8,3.5c0.5,0.5,1.2,0.8,2.2,0.8h2.6c1,0,1.7-0.2,2.2-0.8c0.8-0.8,0.8-2.1,0.8-3.5
	C489.8-14,489.8-14.2,489.8-14.4z M488.6-13.8c0,1.2,0,2.2-0.4,2.6c-0.3,0.3-0.7,0.4-1.3,0.4h-2.6c-0.7,0-1.1-0.1-1.4-0.4
	c-0.4-0.5-0.4-1.5-0.4-2.7v-5.8v-0.5c0-1.2,0-2.2,0.4-2.7c0.3-0.3,0.7-0.4,1.4-0.4h2.6c0.7,0,1.1,0.1,1.3,0.4
	c0.4,0.4,0.4,1.4,0.4,2.6c0,0.2,0,0.4,0,0.6v5.3C488.6-14.2,488.6-14,488.6-13.8z M487.6-19c0,0.5-0.4,0.9-1,0.9h-2.3
	c-0.5,0-1-0.4-1-0.9l0,0c0-0.5,0.4-0.9,1-0.9h2.3C487.2-19.9,487.6-19.5,487.6-19L487.6-19z M487.7-12.4c0,0.4-0.3,0.7-0.7,0.7h-3.1
	c-0.4,0-0.7-0.3-0.7-0.7l0,0c0-0.4,0.3-0.7,0.7-0.7h3.1C487.4-13.1,487.7-12.8,487.7-12.4L487.7-12.4z M508.3-7.5
	c-0.8-0.8-2.1-0.8-3.4-0.8c-0.2,0-0.4,0-0.5,0H499c-0.2,0-0.4,0-0.5,0c-1.4,0-2.6,0-3.4,0.8c-0.5,0.5-0.7,1.2-0.7,2.3v2.7
	c0,1,0.2,1.8,0.7,2.3c0.8,0.8,2.1,0.8,3.5,0.8h5.7h0.5c1.4,0,2.7,0,3.5-0.8c0.5-0.5,0.7-1.2,0.7-2.3v-2.7C509-6.2,508.8-7,508.3-7.5
	z M507.8-2.6c0,0.7-0.1,1.1-0.4,1.4c-0.5,0.5-1.5,0.4-2.6,0.4h-5.7h-0.5c-1.2,0-2.2,0-2.6-0.4c-0.3-0.3-0.4-0.7-0.4-1.4v-2.7
	c0-0.7,0.1-1.1,0.4-1.4c0.4-0.4,1.4-0.4,2.6-0.4c0.2,0,0.4,0,0.5,0h5.2c0.2,0,0.4,0,0.5,0c1.1,0,2.1,0,2.6,0.4
	c0.3,0.3,0.4,0.7,0.4,1.4V-2.6z M499.7-6c0.5,0,0.9,0.4,0.9,1v2.4c0,0.5-0.4,1-0.9,1l0,0c-0.5,0-0.9-0.4-0.9-1V-5
	C498.8-5.6,499.2-6,499.7-6L499.7-6z M506.2-6.1c0.4,0,0.7,0.3,0.7,0.7v3.1c0,0.4-0.3,0.7-0.7,0.7l0,0c-0.4,0-0.7-0.3-0.7-0.7v-3.1
	C505.5-5.8,505.8-6.1,506.2-6.1L506.2-6.1z M482.5-8.2l-0.7,1.5L481.4-7c-2-1.2-3.2-3.4-3.2-5.7v-0.1v-0.5h1.6v0.5c0,0,0,0,0,0.1
	c0,1.7,0.9,3.3,2.3,4.2L482.5-8.2z M480.8-5.4l0.3,0.2l-0.7,1.6l-0.3-0.2C477-5.6,475-9,475-12.6v-0.1v-0.4h1.7v0.6
	C476.7-9.6,478.3-6.9,480.8-5.4z M488.7-8.4c1.4-0.9,2.3-2.5,2.3-4.2v-0.1v-0.5h1.6v0.5v0.1c0,2.3-1.2,4.5-3.2,5.7L489-6.6l-0.7-1.5
	L488.7-8.4z M494.2-12.6v-0.6h1.7v0.4v0.1c0,3.6-1.9,7-5.1,8.8l-0.3,0.2l-0.7-1.6l0.3-0.2C492.6-6.9,494.2-9.6,494.2-12.6z"/>
<path class="st5" d="M543.4-23.5h2.9l-1.8,4.3h-3.3L543.4-23.5z M537.5-11.6h3.9l2.5-6h-3.4L537.5-11.6z M532-0.5h4.8l3.5-8.5h-4.1
	L532-0.5z M568.6-23.5h-2.9l1.8,4.3h3.3L568.6-23.5z M575.8-9h-4.1l3.5,8.5h4.8L575.8-9z M571.6-17.5h-3.4l2.5,6h3.9L571.6-17.5z
	 M564.9-12.5c0,0,0.1,1.2,0.7,1.6c0.6,0.5,0.9,1,0.9,1.7s0,7.2,0,7.2c0,0.3-0.3,0.5-0.6,0.5h-2.3c-0.3,0-0.5-0.2-0.5-0.5v-1.1h-7.2
	h-7.2V-2c0,0.3-0.2,0.5-0.5,0.5h-2.3c-0.3,0-0.5-0.2-0.5-0.5c0,0,0-6.6,0-7.2c0-0.7,0.2-1.3,0.9-1.7c0.6-0.5,0.7-1.6,0.7-1.6
	c-0.4-0.1-1.5-0.5-1.7-1.1s1.3-1.2,1.9-1.2c0.5,0,0.6,0.4,0.7,0.6c0.6-1.4,1.8-3.9,2.4-4c0,0,1.6-0.6,5.8-0.6s5.8,0.6,5.8,0.6
	c0.6,0.1,1.8,2.6,2.4,4c0-0.1,0.2-0.6,0.7-0.6s2,0.6,1.9,1.2C566.5-13,565.3-12.6,564.9-12.5z M549.8-3.9c0-0.3-0.2-0.5-0.5-0.5
	s-0.5,0.2-0.5,0.5s0.2,0.5,0.5,0.5S549.8-3.6,549.8-3.9z M551.1-3.9c0-0.3-0.2-0.5-0.5-0.5s-0.5,0.2-0.5,0.5s0.2,0.5,0.5,0.5
	C550.9-3.4,551.1-3.6,551.1-3.9z M551.3-10.2h-4.1l-1,1.7l4.4-0.2L551.3-10.2z M556-13.2h6.5l-1.6-3.7c-0.5-0.3-3.9-0.4-4.9-0.4
	s-4.4,0.1-4.9,0.4l-1.6,3.6L556-13.2z M564.7-10.2h-4.1l0.7,1.5l4.4,0.2L564.7-10.2z"/>
<path class="st5" d="M609.8-26H604v19.7h2.3V-14h3.5c3.6,0,5.7-2.2,5.7-6S613.5-26,609.8-26z M609.6-16.2h-3.3v-7.7h3.3
	c2.4,0,3.5,1.6,3.5,3.9C613.2-17.7,612-16.2,609.6-16.2z M625.5-20.4c-5.8,0-10.6,5-10.6,11.2S619.6,2,625.5,2
	C631.3,2,636-3,636-9.2S631.3-20.4,625.5-20.4z M625.5-18.5c3.6,0,6.7,2.3,8,5.6h-5.6h-5.1h-5.5C618.8-16.2,621.9-18.5,625.5-18.5z
	 M627.8-8.1c0,1.4-1.1,2.6-2.4,2.6c-1.3,0-2.4-1.2-2.4-2.6s1.1-2.6,2.4-2.6C626.7-10.7,627.8-9.5,627.8-8.1z M617.9-4.4
	c-0.8-1.4-1.2-3-1.2-4.8c0-0.2,0-0.5,0-0.7h3.8c-0.2,0.5-0.3,1.1-0.3,1.7c0,0.4,0,0.8,0.1,1.1L617.9-4.4z M625.5,0.1
	c-2.2,0-4.3-0.9-5.8-2.3l2.1-2.2c0.9,1,2.2,1.7,3.7,1.7c1.4,0,2.7-0.6,3.7-1.6l2.1,2.2C629.6-0.7,627.6,0.1,625.5,0.1z M630.4-7
	c0.1-0.4,0.1-0.8,0.1-1.2c0-0.6-0.1-1.2-0.3-1.7h3.9c0,0.2,0,0.5,0,0.7c0,1.8-0.5,3.5-1.3,4.9L630.4-7z"/>
<path class="st5" d="M672.1-12.8c0.1-0.1,0.1-0.4,0.1-0.4v-2.3h-0.8v-2.8h2.3v-1.3c0-0.2-0.1-0.5-0.4-0.5H671c0.1-0.2,0.2-1,0.3-1.2
	h12.2c0.1,0.2,0.3,0.4,0.3,0.6h-2.4c-0.3,0-0.4,0.3-0.4,0.5v1.3h3v1.2h1.5v-2.5c0-0.1,0-0.3-0.1-0.5h1c0.4,0,0.4-0.2,0.4-0.3v-1
	c0-0.5-0.4-0.8-0.7-0.8h-1.9c-0.5-0.8-2.2-3.1-3.5-3.1h-6.6c-1.3,0-3,2.3-3.5,3.1h-1.9c-0.3,0-0.7,0.4-0.7,0.8v1
	c0,0.1,0,0.3,0.4,0.3h1c-0.1,0.2-0.1,0.4-0.1,0.5v6.3c0,0,0,1,0.1,1.2c0.1,0.1,0.2,0.1,0.3,0.1h2.1C672-12.7,672-12.8,672.1-12.8
	 M674.1-24.4h6.6c0.2,0,0.8,0.5,1.6,1.5h-9.8C673.4-23.9,673.9-24.4,674.1-24.4 M684.5-17.2c3.9,0,7.6,1.8,10.2,4.9
	c2.2,2.7,3.4,6.1,3.4,9.7c0,1.4-0.2,2.9-0.6,4.3v0.1h-1.4l0.1-0.2c0.4-1.3,0.6-2.8,0.6-4.2c0-0.3,0-0.6,0-0.9h-3v-1.1h2.9
	c-0.4-2.5-1.4-4.8-3-6.7c-0.1-0.1-0.2-0.2-0.3-0.4l-2.1,2.2l-0.8-0.8l2.1-2.2c-2.1-1.9-4.7-3.1-7.5-3.2v3.2H684v-3.2
	c-2.6,0.1-5,1.1-7.1,2.8l2.1,2.2l-0.8,0.8l-2.1-2.2c-2.1,2.1-3.4,4.9-3.8,7.9h3v1.1h-3.1c0,0.2,0,0.3,0,0.5c0,1.6,0.3,3.1,0.8,4.5
	l0.1,0.2h-1.5V2c-0.5-1.5-0.7-3-0.7-4.6C670.9-10.7,677-17.2,684.5-17.2 M684.5-4.5c0.7,0,1.3,0.6,1.3,1.4s-0.6,1.4-1.3,1.4
	s-1.3-0.6-1.3-1.4c0-0.2,0-0.4,0.1-0.6l-3.9-5l0.4-0.4l4.3,4.6C684.3-4.5,684.4-4.5,684.5-4.5 M697.5-15.2l1.2,0.9l-4.8,0.4l0.4-5
	l0.8,1.2l2.5-2.6l2.4,2.5L697.5-15.2z"/>
<path class="st5" d="M740.9-22h-6v20h2.4v-7.8h3.6c3.7,0,5.8-2.2,5.8-6.1S744.7-22,740.9-22z M740.7-12h-3.4v-7.8h3.4
	c2.5,0,3.6,1.6,3.6,3.9S743.2-12,740.7-12z M746.4-10.3c1.3-1,2.1-2.7,2-4.4v-0.1v-0.5l1.6-0.1v0.5v0.1c0.1,2.4-1,4.6-2.8,5.9
	l-0.4,0.3l-0.7-1.5L746.4-10.3z M751.6-14.8v-0.6l1.6-0.1v0.4v0.1c0.2,3.7-1.6,7.2-4.6,9.1l-0.3,0.2l-0.7-1.6l0.3-0.2
	C750.3-8.9,751.7-11.8,751.6-14.8 M754.5-15v-0.6l1.6-0.1v0.4v0.1c0.2,4.1-2.3,9.7-6,12.1l-0.3,0.2l-0.7-1.6l0.3-0.2
	C752.4-6.6,754.6-11.5,754.5-15 M760.8-17c0,0-0.3-0.6-1-0.6s-1,0.6-1,0.6l-3.1,12.2h8.2L760.8-17z M759.6-13.6h0.2h0.2l1.7,7.4
	h-3.8L759.6-13.6z M765-2h-10.4v-1.6c0,0,0-0.6,1-0.6h8.3c1,0,1,0.6,1,0.6L765-2L765-2z"/>
<path class="st5" d="M353.3-2.2h-4.1l1.8-2.6h3.8L353.3-2.2z M356.6-7.9h-3.4L352-6.2h3.6L356.6-7.9z M346,2.5h4.6l1.9-3.3h-4.2
	L346,2.5z M374.8-7.9h-3.4l1,1.7h3.6L374.8-7.9z M377.4,2.5h4.6l-2.3-3.3h-4.2L377.4,2.5z M374.7-2.2h4.1L377-4.8h-3.8L374.7-2.2z
	 M375.4,2.5L364-3.4l-11.6,5.9h6l5.7-3.2l5.5,3.2H375.4z M373.2-20.6c0,0,0.1,1.1,0.7,1.5c0.6,0.5,0.9,1,0.9,1.6c0,0.7,0,6.9,0,6.9
	c0,0.3-0.3,0.5-0.5,0.5H372c-0.3,0-0.5-0.2-0.5-0.5v-1h-7.2h-7.2v1c0,0.3-0.2,0.5-0.5,0.5h-2.3c-0.3,0-0.5-0.2-0.5-0.5
	c0,0,0-6.2,0-6.9s0.2-1.2,0.9-1.6c0.6-0.5,0.7-1.5,0.7-1.5c-0.4-0.1-1.5-0.5-1.7-1s1.3-1.1,1.9-1.1c0.5,0,0.6,0.4,0.7,0.5
	c0.6-1.3,1.8-3.7,2.4-3.8c0,0,1.6-0.5,5.8-0.5s5.8,0.6,5.8,0.6c0.6,0.1,1.8,2.5,2.4,3.8c0-0.1,0.2-0.5,0.7-0.5s2,0.6,1.8,1.1
	C374.7-21,373.6-20.7,373.2-20.6z M358.1-12.4c0-0.3-0.2-0.5-0.5-0.5s-0.5,0.2-0.5,0.5s0.2,0.5,0.5,0.5S358.1-12.2,358.1-12.4z
	 M359.4-12.4c0-0.3-0.2-0.5-0.5-0.5s-0.5,0.2-0.5,0.5s0.2,0.5,0.5,0.5C359.2-11.9,359.4-12.2,359.4-12.4z M359.6-18.4h-4.1l-1,1.6
	L359-17L359.6-18.4z M364.2-21.3h6.4l-1.6-3.5c-0.5-0.3-3.9-0.4-4.8-0.4c-1,0-4.4,0-4.8,0.4l-1.6,3.5H364.2z M372.9-18.4h-4.1
	l0.7,1.4l4.4,0.2L372.9-18.4z"/>
<path class="st0" d="M440,37.5v-5.2c0-0.2,0-0.4,0-0.5c0-1.4,0-2.6-0.8-3.5c-0.5-0.5-1.2-0.7-2.2-0.7h-2.6c-1,0-1.8,0.2-2.3,0.7
	c-0.8,0.8-0.8,2.1-0.8,3.5v5.7V38c0,1.4,0,2.7,0.8,3.5c0.5,0.5,1.2,0.7,2.3,0.7h2.6c1,0,1.7-0.2,2.2-0.7c0.8-0.8,0.8-2.1,0.8-3.5
	C440,37.8,440,37.7,440,37.5z M438.8,38c0,1.1,0,2.1-0.4,2.6c-0.3,0.3-0.7,0.4-1.4,0.4h-2.6c-0.7,0-1.1-0.1-1.4-0.4
	c-0.5-0.5-0.4-1.5-0.4-2.6v-5.7v-0.5c0-1.2,0-2.2,0.4-2.6c0.3-0.3,0.7-0.4,1.4-0.4h2.6c0.7,0,1.1,0.1,1.4,0.4
	c0.4,0.4,0.4,1.4,0.4,2.6c0,0.2,0,0.4,0,0.5v5.2C438.7,37.7,438.7,37.9,438.8,38z M416.3,56.5l-0.3-8.9c0-0.2,0-0.3,0-0.5
	c0-1.3-0.1-2.6,0.7-3.4c0.5-0.6,1.4-0.9,2.6-0.9h3c1.2,0,2,0.2,2.6,0.8c0.8,0.8,0.8,2,0.8,3.4c0,0.2,0,0.4,0,0.5l0.1,9h-1.2l-0.1-9
	c0-0.2,0-0.4,0-0.5c0-1.1,0-2-0.5-2.5c-0.3-0.3-0.9-0.4-1.7-0.4h-3c-0.8,0-1.4,0.2-1.7,0.5c-0.4,0.5-0.4,1.4-0.4,2.5
	c0,0.2,0,0.3,0,0.5l0.3,8.9C417.5,56.5,416.3,56.5,416.3,56.5z M423.1,49c0,0.5-0.4,0.9-0.9,0.9h-2.3c-0.5,0-0.9-0.4-0.9-0.9l0,0
	c0-0.5,0.4-0.9,0.9-0.9h2.3C422.6,48.1,423.1,48.5,423.1,49L423.1,49z M437.8,32.9c0,0.5-0.4,0.9-1,0.9h-2.4c-0.5,0-1-0.4-1-0.9l0,0
	c0-0.5,0.4-0.9,1-0.9h2.4C437.3,32,437.8,32.4,437.8,32.9L437.8,32.9z M437.9,39.4c0,0.4-0.3,0.7-0.7,0.7h-3.1
	c-0.4,0-0.7-0.3-0.7-0.7l0,0c0-0.4,0.3-0.7,0.7-0.7h3.1C437.6,38.7,437.9,39,437.9,39.4L437.9,39.4z M432.7,43.6l-0.7,1.5l-0.4-0.2
	c-2-1.2-3.2-3.3-3.2-5.6v-0.1v-0.5h1.7v0.5c0,0,0,0,0,0.1c0,1.7,0.9,3.3,2.3,4.2L432.7,43.6z M430.9,46.4l0.3,0.2l-0.7,1.6l-0.3-0.2
	c-3.2-1.9-5.2-5.2-5.2-8.8v-0.1v-0.4h1.7v0.5C426.8,42.2,428.4,44.9,430.9,46.4z"/>
<path class="st0" d="M489.8,39.6v-5.3c0-0.2,0-0.4,0-0.5c0-1.4,0-2.7-0.8-3.5c-0.5-0.5-1.2-0.8-2.2-0.8h-2.6c-1,0-1.7,0.2-2.2,0.8
	c-0.8,0.8-0.8,2.1-0.8,3.5v5.8v0.5c0,1.4,0,2.7,0.8,3.5c0.5,0.5,1.2,0.8,2.2,0.8h2.6c1,0,1.7-0.2,2.2-0.8c0.8-0.8,0.8-2.1,0.8-3.5
	C489.8,40,489.8,39.8,489.8,39.6z M488.6,40.2c0,1.2,0,2.2-0.4,2.6c-0.3,0.3-0.7,0.4-1.3,0.4h-2.6c-0.7,0-1.1-0.1-1.4-0.4
	c-0.4-0.5-0.4-1.5-0.4-2.7v-5.8v-0.5c0-1.2,0-2.2,0.4-2.7c0.3-0.3,0.7-0.4,1.4-0.4h2.6c0.7,0,1.1,0.1,1.3,0.4
	c0.4,0.4,0.4,1.4,0.4,2.6c0,0.2,0,0.4,0,0.6v5.3C488.6,39.8,488.6,40,488.6,40.2z M487.6,35c0,0.5-0.4,0.9-1,0.9h-2.3
	c-0.5,0-1-0.4-1-0.9l0,0c0-0.5,0.4-0.9,1-0.9h2.3C487.2,34.1,487.6,34.5,487.6,35L487.6,35z M487.7,41.6c0,0.4-0.3,0.7-0.7,0.7h-3.1
	c-0.4,0-0.7-0.3-0.7-0.7l0,0c0-0.4,0.3-0.7,0.7-0.7h3.1C487.4,40.9,487.7,41.2,487.7,41.6L487.7,41.6z M508.3,46.5
	c-0.8-0.8-2.1-0.8-3.4-0.8c-0.2,0-0.4,0-0.5,0H499c-0.2,0-0.4,0-0.5,0c-1.4,0-2.6,0-3.4,0.8c-0.5,0.5-0.7,1.2-0.7,2.3v2.7
	c0,1,0.2,1.8,0.7,2.3c0.8,0.8,2.1,0.8,3.5,0.8h5.7h0.5c1.4,0,2.7,0,3.5-0.8c0.5-0.5,0.7-1.2,0.7-2.3v-2.7
	C509,47.8,508.8,47,508.3,46.5z M507.8,51.4c0,0.7-0.1,1.1-0.4,1.4c-0.5,0.5-1.5,0.4-2.6,0.4h-5.7h-0.5c-1.2,0-2.2,0-2.6-0.4
	c-0.3-0.3-0.4-0.7-0.4-1.4v-2.7c0-0.7,0.1-1.1,0.4-1.4c0.4-0.4,1.4-0.4,2.6-0.4c0.2,0,0.4,0,0.5,0h5.2c0.2,0,0.4,0,0.5,0
	c1.1,0,2.1,0,2.6,0.4c0.3,0.3,0.4,0.7,0.4,1.4V51.4z M499.7,48c0.5,0,0.9,0.4,0.9,1v2.4c0,0.5-0.4,1-0.9,1l0,0c-0.5,0-0.9-0.4-0.9-1
	V49C498.8,48.4,499.2,48,499.7,48L499.7,48z M506.2,47.9c0.4,0,0.7,0.3,0.7,0.7v3.1c0,0.4-0.3,0.7-0.7,0.7l0,0
	c-0.4,0-0.7-0.3-0.7-0.7v-3.1C505.5,48.2,505.8,47.9,506.2,47.9L506.2,47.9z M482.5,45.8l-0.7,1.5l-0.4-0.3c-2-1.2-3.2-3.4-3.2-5.7
	v-0.1v-0.5h1.6v0.5c0,0,0,0,0,0.1c0,1.7,0.9,3.3,2.3,4.2L482.5,45.8z M480.8,48.6l0.3,0.2l-0.7,1.6l-0.3-0.2
	c-3.1-1.8-5.1-5.2-5.1-8.8v-0.1v-0.4h1.7v0.6C476.7,44.4,478.3,47.1,480.8,48.6z M488.7,45.6c1.4-0.9,2.3-2.5,2.3-4.2v-0.1v-0.5h1.6
	v0.5v0.1c0,2.3-1.2,4.5-3.2,5.7l-0.4,0.3l-0.7-1.5L488.7,45.6z M494.2,41.4v-0.6h1.7v0.4v0.1c0,3.6-1.9,7-5.1,8.8l-0.3,0.2l-0.7-1.6
	l0.3-0.2C492.6,47.1,494.2,44.4,494.2,41.4z"/>
<path class="st0" d="M543.4,30.5h2.9l-1.8,4.3h-3.3L543.4,30.5z M537.5,42.4h3.9l2.5-6h-3.4L537.5,42.4z M532,53.5h4.8l3.5-8.5h-4.1
	L532,53.5z M568.6,30.5h-2.9l1.8,4.3h3.3L568.6,30.5z M575.8,45h-4.1l3.5,8.5h4.8L575.8,45z M571.6,36.5h-3.4l2.5,6h3.9L571.6,36.5z
	 M564.9,41.5c0,0,0.1,1.2,0.7,1.6c0.6,0.5,0.9,1,0.9,1.7s0,7.2,0,7.2c0,0.3-0.3,0.5-0.6,0.5h-2.3c-0.3,0-0.5-0.2-0.5-0.5v-1.1h-7.2
	h-7.2V52c0,0.3-0.2,0.5-0.5,0.5h-2.3c-0.3,0-0.5-0.2-0.5-0.5c0,0,0-6.6,0-7.2c0-0.7,0.2-1.3,0.9-1.7c0.6-0.5,0.7-1.6,0.7-1.6
	c-0.4-0.1-1.5-0.5-1.7-1.1s1.3-1.2,1.9-1.2c0.5,0,0.6,0.4,0.7,0.6c0.6-1.4,1.8-3.9,2.4-4c0,0,1.6-0.6,5.8-0.6s5.8,0.6,5.8,0.6
	c0.6,0.1,1.8,2.6,2.4,4c0-0.1,0.2-0.6,0.7-0.6s2,0.6,1.9,1.2C566.5,41,565.3,41.4,564.9,41.5z M549.8,50.1c0-0.3-0.2-0.5-0.5-0.5
	s-0.5,0.2-0.5,0.5s0.2,0.5,0.5,0.5S549.8,50.4,549.8,50.1z M551.1,50.1c0-0.3-0.2-0.5-0.5-0.5s-0.5,0.2-0.5,0.5s0.2,0.5,0.5,0.5
	C550.9,50.6,551.1,50.4,551.1,50.1z M551.3,43.8h-4.1l-1,1.7l4.4-0.2L551.3,43.8z M556,40.8h6.5l-1.6-3.7c-0.5-0.3-3.9-0.4-4.9-0.4
	s-4.4,0.1-4.9,0.4l-1.6,3.6L556,40.8z M564.7,43.8h-4.1l0.7,1.5l4.4,0.2L564.7,43.8z"/>
<path class="st0" d="M609.8,28H604v19.7h2.3V40h3.5c3.6,0,5.7-2.2,5.7-6S613.5,28,609.8,28z M609.6,37.8h-3.3v-7.7h3.3
	c2.4,0,3.5,1.6,3.5,3.9C613.2,36.3,612,37.8,609.6,37.8z M625.5,33.6c-5.8,0-10.6,5-10.6,11.2S619.6,56,625.5,56
	c5.8,0,10.5-5,10.5-11.2S631.3,33.6,625.5,33.6z M625.5,35.5c3.6,0,6.7,2.3,8,5.6h-5.6h-5.1h-5.5C618.8,37.8,621.9,35.5,625.5,35.5z
	 M627.8,45.9c0,1.4-1.1,2.6-2.4,2.6c-1.3,0-2.4-1.2-2.4-2.6s1.1-2.6,2.4-2.6C626.7,43.3,627.8,44.5,627.8,45.9z M617.9,49.6
	c-0.8-1.4-1.2-3-1.2-4.8c0-0.2,0-0.5,0-0.7h3.8c-0.2,0.5-0.3,1.1-0.3,1.7c0,0.4,0,0.8,0.1,1.1L617.9,49.6z M625.5,54.1
	c-2.2,0-4.3-0.9-5.8-2.3l2.1-2.2c0.9,1,2.2,1.7,3.7,1.7c1.4,0,2.7-0.6,3.7-1.6l2.1,2.2C629.6,53.3,627.6,54.1,625.5,54.1z M630.4,47
	c0.1-0.4,0.1-0.8,0.1-1.2c0-0.6-0.1-1.2-0.3-1.7h3.9c0,0.2,0,0.5,0,0.7c0,1.8-0.5,3.5-1.3,4.9L630.4,47z"/>
<path class="st0" d="M672.1,41.2c0.1-0.1,0.1-0.4,0.1-0.4v-2.3h-0.8v-2.8h2.3v-1.3c0-0.2-0.1-0.5-0.4-0.5H671c0.1-0.2,0.2-1,0.3-1.2
	h12.2c0.1,0.2,0.3,0.4,0.3,0.6h-2.4c-0.3,0-0.4,0.3-0.4,0.5v1.3h3v1.2h1.5v-2.5c0-0.1,0-0.3-0.1-0.5h1c0.4,0,0.4-0.2,0.4-0.3v-1
	c0-0.5-0.4-0.8-0.7-0.8h-1.9c-0.5-0.8-2.2-3.1-3.5-3.1h-6.6c-1.3,0-3,2.3-3.5,3.1h-1.9c-0.3,0-0.7,0.4-0.7,0.8v1
	c0,0.1,0,0.3,0.4,0.3h1c-0.1,0.2-0.1,0.4-0.1,0.5v6.3c0,0,0,1,0.1,1.2c0.1,0.1,0.2,0.1,0.3,0.1h2.1C672,41.3,672,41.2,672.1,41.2
	 M674.1,29.6h6.6c0.2,0,0.8,0.5,1.6,1.5h-9.8C673.4,30.1,673.9,29.6,674.1,29.6 M684.5,36.8c3.9,0,7.6,1.8,10.2,4.9
	c2.2,2.7,3.4,6.1,3.4,9.7c0,1.4-0.2,2.9-0.6,4.3v0.1h-1.4l0.1-0.2c0.4-1.3,0.6-2.8,0.6-4.2c0-0.3,0-0.6,0-0.9h-3v-1.1h2.9
	c-0.4-2.5-1.4-4.8-3-6.7c-0.1-0.1-0.2-0.2-0.3-0.4l-2.1,2.2l-0.8-0.8l2.1-2.2c-2.1-1.9-4.7-3.1-7.5-3.2v3.2H684v-3.2
	c-2.6,0.1-5,1.1-7.1,2.8l2.1,2.2l-0.8,0.8l-2.1-2.2c-2.1,2.1-3.4,4.9-3.8,7.9h3v1.1h-3.1c0,0.2,0,0.3,0,0.5c0,1.6,0.3,3.1,0.8,4.5
	l0.1,0.2h-1.5V56c-0.5-1.5-0.7-3-0.7-4.6C670.9,43.3,677,36.8,684.5,36.8 M684.5,49.5c0.7,0,1.3,0.6,1.3,1.4s-0.6,1.4-1.3,1.4
	s-1.3-0.6-1.3-1.4c0-0.2,0-0.4,0.1-0.6l-3.9-5l0.4-0.4l4.3,4.6C684.3,49.5,684.4,49.5,684.5,49.5 M697.5,38.8l1.2,0.9l-4.8,0.4
	l0.4-5l0.8,1.2l2.5-2.6l2.4,2.5L697.5,38.8z"/>
<path class="st0" d="M740.9,32h-6v20h2.4v-7.8h3.6c3.7,0,5.8-2.2,5.8-6.1S744.7,32,740.9,32z M740.7,42h-3.4v-7.8h3.4
	c2.5,0,3.6,1.6,3.6,3.9C744.3,40.4,743.2,42,740.7,42z M746.4,43.7c1.3-1,2.1-2.7,2-4.4v-0.1v-0.5l1.6-0.1v0.5v0.1
	c0.1,2.4-1,4.6-2.8,5.9l-0.4,0.3l-0.7-1.5L746.4,43.7z M751.6,39.2v-0.6l1.6-0.1v0.4V39c0.2,3.7-1.6,7.2-4.6,9.1l-0.3,0.2l-0.7-1.6
	l0.3-0.2C750.3,45.1,751.7,42.2,751.6,39.2 M754.5,39v-0.6l1.6-0.1v0.4v0.1c0.2,4.1-2.3,9.7-6,12.1l-0.3,0.2l-0.7-1.6l0.3-0.2
	C752.4,47.4,754.6,42.5,754.5,39 M760.8,37c0,0-0.3-0.6-1-0.6s-1,0.6-1,0.6l-3.1,12.2h8.2L760.8,37z M759.6,40.4h0.2h0.2l1.7,7.4
	h-3.8L759.6,40.4z M765,52h-10.4v-1.6c0,0,0-0.6,1-0.6h8.3c1,0,1,0.6,1,0.6L765,52L765,52z"/>
<path class="st0" d="M353.3,51.8h-4.1l1.8-2.6h3.8L353.3,51.8z M356.6,46.1h-3.4l-1.2,1.7h3.6L356.6,46.1z M346,56.5h4.6l1.9-3.3
	h-4.2L346,56.5z M374.8,46.1h-3.4l1,1.7h3.6L374.8,46.1z M377.4,56.5h4.6l-2.3-3.3h-4.2L377.4,56.5z M374.7,51.8h4.1l-1.8-2.6h-3.8
	L374.7,51.8z M375.4,56.5L364,50.6l-11.6,5.9h6l5.7-3.2l5.5,3.2H375.4z M373.2,33.4c0,0,0.1,1.1,0.7,1.5c0.6,0.5,0.9,1,0.9,1.6
	c0,0.7,0,6.9,0,6.9c0,0.3-0.3,0.5-0.5,0.5H372c-0.3,0-0.5-0.2-0.5-0.5v-1h-7.2h-7.2v1c0,0.3-0.2,0.5-0.5,0.5h-2.3
	c-0.3,0-0.5-0.2-0.5-0.5c0,0,0-6.2,0-6.9s0.2-1.2,0.9-1.6c0.6-0.5,0.7-1.5,0.7-1.5c-0.4-0.1-1.5-0.5-1.7-1s1.3-1.1,1.9-1.1
	c0.5,0,0.6,0.4,0.7,0.5c0.6-1.3,1.8-3.7,2.4-3.8c0,0,1.6-0.5,5.8-0.5s5.8,0.6,5.8,0.6c0.6,0.1,1.8,2.5,2.4,3.8
	c0-0.1,0.2-0.5,0.7-0.5s2,0.6,1.8,1.1C374.7,33,373.6,33.3,373.2,33.4z M358.1,41.6c0-0.3-0.2-0.5-0.5-0.5s-0.5,0.2-0.5,0.5
	s0.2,0.5,0.5,0.5S358.1,41.8,358.1,41.6z M359.4,41.6c0-0.3-0.2-0.5-0.5-0.5s-0.5,0.2-0.5,0.5s0.2,0.5,0.5,0.5
	C359.2,42.1,359.4,41.8,359.4,41.6z M359.6,35.6h-4.1l-1,1.6L359,37L359.6,35.6z M364.2,32.7h6.4l-1.6-3.5c-0.5-0.3-3.9-0.4-4.8-0.4
	c-1,0-4.4,0-4.8,0.4l-1.6,3.5H364.2z M372.9,35.6h-4.1l0.7,1.4l4.4,0.2L372.9,35.6z"/>
<path class="st6" d="M440,91.5v-5.2c0-0.2,0-0.4,0-0.5c0-1.4,0-2.6-0.8-3.5c-0.5-0.5-1.2-0.7-2.2-0.7h-2.6c-1,0-1.8,0.2-2.3,0.7
	c-0.8,0.8-0.8,2.1-0.8,3.5v5.7V92c0,1.4,0,2.7,0.8,3.5c0.5,0.5,1.2,0.7,2.3,0.7h2.6c1,0,1.7-0.2,2.2-0.7c0.8-0.8,0.8-2.1,0.8-3.5
	C440,91.8,440,91.7,440,91.5z M438.8,92c0,1.1,0,2.1-0.4,2.6c-0.3,0.3-0.7,0.4-1.4,0.4h-2.6c-0.7,0-1.1-0.1-1.4-0.4
	c-0.5-0.5-0.4-1.5-0.4-2.6v-5.7v-0.5c0-1.2,0-2.2,0.4-2.6c0.3-0.3,0.7-0.4,1.4-0.4h2.6c0.7,0,1.1,0.1,1.4,0.4
	c0.4,0.4,0.4,1.4,0.4,2.6c0,0.2,0,0.4,0,0.5v5.2C438.7,91.7,438.7,91.9,438.8,92z M416.3,110.5l-0.3-8.9c0-0.2,0-0.3,0-0.5
	c0-1.3-0.1-2.6,0.7-3.4c0.5-0.6,1.4-0.9,2.6-0.9h3c1.2,0,2,0.2,2.6,0.8c0.8,0.8,0.8,2,0.8,3.4c0,0.2,0,0.4,0,0.5l0.1,9h-1.2l-0.1-9
	c0-0.2,0-0.4,0-0.5c0-1.1,0-2-0.5-2.5c-0.3-0.3-0.9-0.4-1.7-0.4h-3c-0.8,0-1.4,0.2-1.7,0.5c-0.4,0.5-0.4,1.4-0.4,2.5
	c0,0.2,0,0.3,0,0.5l0.3,8.9H416.3z M423.1,103c0,0.5-0.4,0.9-0.9,0.9h-2.3c-0.5,0-0.9-0.4-0.9-0.9l0,0c0-0.5,0.4-0.9,0.9-0.9h2.3
	C422.6,102.1,423.1,102.5,423.1,103L423.1,103z M437.8,86.9c0,0.5-0.4,0.9-1,0.9h-2.4c-0.5,0-1-0.4-1-0.9l0,0c0-0.5,0.4-0.9,1-0.9
	h2.4C437.3,86,437.8,86.4,437.8,86.9L437.8,86.9z M437.9,93.4c0,0.4-0.3,0.7-0.7,0.7h-3.1c-0.4,0-0.7-0.3-0.7-0.7l0,0
	c0-0.4,0.3-0.7,0.7-0.7h3.1C437.6,92.7,437.9,93,437.9,93.4L437.9,93.4z M432.7,97.6l-0.7,1.5l-0.4-0.2c-2-1.2-3.2-3.3-3.2-5.6v-0.1
	v-0.5h1.7v0.5c0,0,0,0,0,0.1c0,1.7,0.9,3.3,2.3,4.2L432.7,97.6z M430.9,100.4l0.3,0.2l-0.7,1.6l-0.3-0.2c-3.2-1.8-5.1-5.1-5.1-8.7
	v-0.1v-0.4h1.7v0.5C426.8,96.2,428.4,98.9,430.9,100.4z"/>
<path class="st6" d="M489.8,93.6v-5.3c0-0.2,0-0.4,0-0.5c0-1.4,0-2.7-0.8-3.5c-0.5-0.5-1.2-0.8-2.2-0.8h-2.6c-1,0-1.7,0.2-2.2,0.8
	c-0.8,0.8-0.8,2.1-0.8,3.5v5.8v0.5c0,1.4,0,2.7,0.8,3.5c0.5,0.5,1.2,0.8,2.2,0.8h2.6c1,0,1.7-0.2,2.2-0.8c0.8-0.8,0.8-2.1,0.8-3.5
	C489.8,94,489.8,93.8,489.8,93.6z M488.6,94.2c0,1.2,0,2.2-0.4,2.6c-0.3,0.3-0.7,0.4-1.3,0.4h-2.6c-0.7,0-1.1-0.1-1.4-0.4
	c-0.4-0.5-0.4-1.5-0.4-2.7v-5.8v-0.5c0-1.2,0-2.2,0.4-2.7c0.3-0.3,0.7-0.4,1.4-0.4h2.6c0.7,0,1.1,0.1,1.3,0.4
	c0.4,0.4,0.4,1.4,0.4,2.6c0,0.2,0,0.4,0,0.6v5.3C488.6,93.8,488.6,94,488.6,94.2z M487.6,89c0,0.5-0.4,0.9-1,0.9h-2.3
	c-0.5,0-1-0.4-1-0.9l0,0c0-0.5,0.4-0.9,1-0.9h2.3C487.2,88.1,487.6,88.5,487.6,89L487.6,89z M487.7,95.6c0,0.4-0.3,0.7-0.7,0.7h-3.1
	c-0.4,0-0.7-0.3-0.7-0.7l0,0c0-0.4,0.3-0.7,0.7-0.7h3.1C487.4,94.9,487.7,95.2,487.7,95.6L487.7,95.6z M508.3,100.5
	c-0.8-0.8-2.1-0.8-3.4-0.8c-0.2,0-0.4,0-0.5,0H499c-0.2,0-0.4,0-0.5,0c-1.4,0-2.6,0-3.4,0.8c-0.5,0.5-0.7,1.2-0.7,2.3v2.7
	c0,1,0.2,1.8,0.7,2.3c0.8,0.8,2.1,0.8,3.5,0.8h5.7h0.5c1.4,0,2.7,0,3.5-0.8c0.5-0.5,0.7-1.2,0.7-2.3v-2.7
	C509,101.8,508.8,101,508.3,100.5z M507.8,105.4c0,0.7-0.1,1.1-0.4,1.4c-0.5,0.5-1.5,0.4-2.6,0.4h-5.7h-0.5c-1.2,0-2.2,0-2.6-0.4
	c-0.3-0.3-0.4-0.7-0.4-1.4v-2.7c0-0.7,0.1-1.1,0.4-1.4c0.4-0.4,1.4-0.4,2.6-0.4c0.2,0,0.4,0,0.5,0h5.2c0.2,0,0.4,0,0.5,0
	c1.1,0,2.1,0,2.6,0.4c0.3,0.3,0.4,0.7,0.4,1.4V105.4z M499.7,102c0.5,0,0.9,0.4,0.9,1v2.4c0,0.5-0.4,1-0.9,1l0,0
	c-0.5,0-0.9-0.4-0.9-1V103C498.8,102.4,499.2,102,499.7,102L499.7,102z M506.2,101.9c0.4,0,0.7,0.3,0.7,0.7v3.1
	c0,0.4-0.3,0.7-0.7,0.7l0,0c-0.4,0-0.7-0.3-0.7-0.7v-3.1C505.5,102.2,505.8,101.9,506.2,101.9L506.2,101.9z M482.5,99.8l-0.7,1.5
	l-0.4-0.3c-2-1.2-3.2-3.4-3.2-5.7v-0.1v-0.5h1.6v0.5c0,0,0,0,0,0.1c0,1.7,0.9,3.3,2.3,4.2L482.5,99.8z M480.8,102.6l0.3,0.2
	l-0.7,1.6l-0.3-0.2c-3.1-1.8-5.1-5.2-5.1-8.8v-0.1v-0.4h1.7v0.6C476.7,98.4,478.3,101.1,480.8,102.6z M488.7,99.6
	c1.4-0.9,2.3-2.5,2.3-4.2v-0.1v-0.5h1.6v0.5v0.1c0,2.3-1.2,4.5-3.2,5.7l-0.4,0.3l-0.7-1.5L488.7,99.6z M494.2,95.4v-0.6h1.7v0.4v0.1
	c0,3.6-1.9,7-5.1,8.8l-0.3,0.2l-0.7-1.6l0.3-0.2C492.6,101.1,494.2,98.4,494.2,95.4z"/>
<path class="st6" d="M543.4,84.5h2.9l-1.8,4.3h-3.3L543.4,84.5z M537.5,96.4h3.9l2.5-6h-3.4L537.5,96.4z M532,107.5h4.8l3.5-8.5
	h-4.1L532,107.5z M568.6,84.5h-2.9l1.8,4.3h3.3L568.6,84.5z M575.8,99h-4.1l3.5,8.5h4.8L575.8,99z M571.6,90.5h-3.4l2.5,6h3.9
	L571.6,90.5z M564.9,95.5c0,0,0.1,1.2,0.7,1.6c0.6,0.5,0.9,1,0.9,1.7s0,7.2,0,7.2c0,0.3-0.3,0.5-0.6,0.5h-2.3
	c-0.3,0-0.5-0.2-0.5-0.5v-1.1h-7.2h-7.2v1.1c0,0.3-0.2,0.5-0.5,0.5h-2.3c-0.3,0-0.5-0.2-0.5-0.5c0,0,0-6.6,0-7.2
	c0-0.7,0.2-1.3,0.9-1.7c0.6-0.5,0.7-1.6,0.7-1.6c-0.4-0.1-1.5-0.5-1.7-1.1s1.3-1.2,1.9-1.2c0.5,0,0.6,0.4,0.7,0.6
	c0.6-1.4,1.8-3.9,2.4-4c0,0,1.6-0.6,5.8-0.6s5.8,0.6,5.8,0.6c0.6,0.1,1.8,2.6,2.4,4c0-0.1,0.2-0.6,0.7-0.6s2,0.6,1.9,1.2
	C566.5,95,565.3,95.4,564.9,95.5z M549.8,104.1c0-0.3-0.2-0.5-0.5-0.5s-0.5,0.2-0.5,0.5s0.2,0.5,0.5,0.5S549.8,104.4,549.8,104.1z
	 M551.1,104.1c0-0.3-0.2-0.5-0.5-0.5s-0.5,0.2-0.5,0.5s0.2,0.5,0.5,0.5C550.9,104.6,551.1,104.4,551.1,104.1z M551.3,97.8h-4.1
	l-1,1.7l4.4-0.2L551.3,97.8z M556,94.8h6.5l-1.6-3.7c-0.5-0.3-3.9-0.4-4.9-0.4s-4.4,0.1-4.9,0.4l-1.6,3.6L556,94.8z M564.7,97.8
	h-4.1l0.7,1.5l4.4,0.2L564.7,97.8z"/>
<path class="st6" d="M609.8,82H604v19.7h2.3V94h3.5c3.6,0,5.7-2.2,5.7-6S613.5,82,609.8,82z M609.6,91.8h-3.3v-7.7h3.3
	c2.4,0,3.5,1.6,3.5,3.9C613.2,90.3,612,91.8,609.6,91.8z M625.5,87.6c-5.8,0-10.6,5-10.6,11.2s4.7,11.2,10.6,11.2
	c5.8,0,10.5-5,10.5-11.2S631.3,87.6,625.5,87.6z M625.5,89.5c3.6,0,6.7,2.3,8,5.6h-5.6h-5.1h-5.5C618.8,91.8,621.9,89.5,625.5,89.5z
	 M627.8,99.9c0,1.4-1.1,2.6-2.4,2.6c-1.3,0-2.4-1.2-2.4-2.6s1.1-2.6,2.4-2.6S627.8,98.5,627.8,99.9z M617.9,103.6
	c-0.8-1.4-1.2-3-1.2-4.8c0-0.2,0-0.5,0-0.7h3.8c-0.2,0.5-0.3,1.1-0.3,1.7c0,0.4,0,0.8,0.1,1.1L617.9,103.6z M625.5,108.1
	c-2.2,0-4.3-0.9-5.8-2.3l2.1-2.2c0.9,1,2.2,1.7,3.7,1.7c1.4,0,2.7-0.6,3.7-1.6l2.1,2.2C629.6,107.3,627.6,108.1,625.5,108.1z
	 M630.4,101c0.1-0.4,0.1-0.8,0.1-1.2c0-0.6-0.1-1.2-0.3-1.7h3.9c0,0.2,0,0.5,0,0.7c0,1.8-0.5,3.5-1.3,4.9L630.4,101z"/>
<path class="st6" d="M672.1,95.2c0.1-0.1,0.1-0.4,0.1-0.4v-2.3h-0.8v-2.8h2.3v-1.3c0-0.2-0.1-0.5-0.4-0.5H671c0.1-0.2,0.2-1,0.3-1.2
	h12.2c0.1,0.2,0.3,0.4,0.3,0.6h-2.4c-0.3,0-0.4,0.3-0.4,0.5v1.3h3v1.2h1.5v-2.5c0-0.1,0-0.3-0.1-0.5h1c0.4,0,0.4-0.2,0.4-0.3v-1
	c0-0.5-0.4-0.8-0.7-0.8h-1.9c-0.5-0.8-2.2-3.1-3.5-3.1h-6.6c-1.3,0-3,2.3-3.5,3.1h-1.9c-0.3,0-0.7,0.4-0.7,0.8v1
	c0,0.1,0,0.3,0.4,0.3h1c-0.1,0.2-0.1,0.4-0.1,0.5v6.3c0,0,0,1,0.1,1.2c0.1,0.1,0.2,0.1,0.3,0.1h2.1C672,95.3,672,95.2,672.1,95.2
	 M674.1,83.6h6.6c0.2,0,0.8,0.5,1.6,1.5h-9.8C673.4,84.1,673.9,83.6,674.1,83.6 M684.5,90.8c3.9,0,7.6,1.8,10.2,4.9
	c2.2,2.7,3.4,6.1,3.4,9.7c0,1.4-0.2,2.9-0.6,4.3v0.1h-1.4l0.1-0.2c0.4-1.3,0.6-2.8,0.6-4.2c0-0.3,0-0.6,0-0.9h-3v-1.1h2.9
	c-0.4-2.5-1.4-4.8-3-6.7c-0.1-0.1-0.2-0.2-0.3-0.4l-2.1,2.2l-0.8-0.8l2.1-2.2c-2.1-1.9-4.7-3.1-7.5-3.2v3.2H684v-3.2
	c-2.6,0.1-5,1.1-7.1,2.8l2.1,2.2l-0.8,0.8l-2.1-2.2c-2.1,2.1-3.4,4.9-3.8,7.9h3v1.1h-3.1c0,0.2,0,0.3,0,0.5c0,1.6,0.3,3.1,0.8,4.5
	l0.1,0.2h-1.5V110c-0.5-1.5-0.7-3-0.7-4.6C670.9,97.3,677,90.8,684.5,90.8 M684.5,103.5c0.7,0,1.3,0.6,1.3,1.4s-0.6,1.4-1.3,1.4
	s-1.3-0.6-1.3-1.4c0-0.2,0-0.4,0.1-0.6l-3.9-5l0.4-0.4l4.3,4.6C684.3,103.5,684.4,103.5,684.5,103.5 M697.5,92.8l1.2,0.9l-4.8,0.4
	l0.4-5l0.8,1.2l2.5-2.6l2.4,2.5L697.5,92.8z"/>
<path class="st6" d="M740.9,86h-6v20h2.4v-7.8h3.6c3.7,0,5.8-2.2,5.8-6.1S744.7,86,740.9,86z M740.7,96h-3.4v-7.8h3.4
	c2.5,0,3.6,1.6,3.6,3.9S743.2,96,740.7,96z M746.4,97.7c1.3-1,2.1-2.7,2-4.4v-0.1v-0.5l1.6-0.1v0.5v0.1c0.1,2.4-1,4.6-2.8,5.9
	l-0.4,0.3l-0.7-1.5L746.4,97.7z M751.6,93.2v-0.6l1.6-0.1v0.4V93c0.2,3.7-1.6,7.2-4.6,9.1l-0.3,0.2l-0.7-1.6l0.3-0.2
	C750.3,99.1,751.7,96.2,751.6,93.2 M754.5,93v-0.6l1.6-0.1v0.4v0.1c0.2,4.1-2.3,9.7-6,12.1l-0.3,0.2l-0.7-1.6l0.3-0.2
	C752.4,101.4,754.6,96.5,754.5,93 M760.8,91c0,0-0.3-0.6-1-0.6s-1,0.6-1,0.6l-3.1,12.2h8.2L760.8,91z M759.6,94.4h0.2h0.2l1.7,7.4
	h-3.8L759.6,94.4z M765,106h-10.4v-1.6c0,0,0-0.6,1-0.6h8.3c1,0,1,0.6,1,0.6L765,106L765,106z"/>
<path class="st6" d="M353.3,105.8h-4.1l1.8-2.6h3.8L353.3,105.8z M356.6,100.1h-3.4l-1.2,1.7h3.6L356.6,100.1z M346,110.5h4.6
	l1.9-3.3h-4.2L346,110.5z M374.8,100.1h-3.4l1,1.7h3.6L374.8,100.1z M377.4,110.5h4.6l-2.3-3.3h-4.2L377.4,110.5z M374.7,105.8h4.1
	l-1.8-2.6h-3.8L374.7,105.8z M375.4,110.5l-11.4-5.9l-11.6,5.9h6l5.7-3.2l5.5,3.2H375.4z M373.2,87.4c0,0,0.1,1.1,0.7,1.5
	c0.6,0.5,0.9,1,0.9,1.6c0,0.7,0,6.9,0,6.9c0,0.3-0.3,0.5-0.5,0.5H372c-0.3,0-0.5-0.2-0.5-0.5v-1h-7.2h-7.2v1c0,0.3-0.2,0.5-0.5,0.5
	h-2.3c-0.3,0-0.5-0.2-0.5-0.5c0,0,0-6.2,0-6.9s0.2-1.2,0.9-1.6c0.6-0.5,0.7-1.5,0.7-1.5c-0.4-0.1-1.5-0.5-1.7-1s1.3-1.1,1.9-1.1
	c0.5,0,0.6,0.4,0.7,0.5c0.6-1.3,1.8-3.7,2.4-3.8c0,0,1.6-0.5,5.8-0.5s5.8,0.6,5.8,0.6c0.6,0.1,1.8,2.5,2.4,3.8
	c0-0.1,0.2-0.5,0.7-0.5s2,0.6,1.8,1.1C374.7,87,373.6,87.3,373.2,87.4z M358.1,95.6c0-0.3-0.2-0.5-0.5-0.5s-0.5,0.2-0.5,0.5
	s0.2,0.5,0.5,0.5S358.1,95.8,358.1,95.6z M359.4,95.6c0-0.3-0.2-0.5-0.5-0.5s-0.5,0.2-0.5,0.5s0.2,0.5,0.5,0.5
	C359.2,96.1,359.4,95.8,359.4,95.6z M359.6,89.6h-4.1l-1,1.6L359,91L359.6,89.6z M364.2,86.7h6.4l-1.6-3.5c-0.5-0.3-3.9-0.4-4.8-0.4
	c-1,0-4.4,0-4.8,0.4l-1.6,3.5H364.2z M372.9,89.6h-4.1l0.7,1.4l4.4,0.2L372.9,89.6z"/>
<circle class="st0" cx="345.5" cy="136.5" r="13.5"/>
<path class="st7" d="M346.9,136.5l3.8-3.8c0.4-0.4,0.4-1,0-1.4s-1-0.4-1.4,0l-3.8,3.8l-3.8-3.8c-0.4-0.4-1-0.4-1.4,0s-0.4,1,0,1.4
	l3.8,3.8l-3.8,3.8c-0.4,0.4-0.4,1,0,1.4s1,0.4,1.4,0l3.8-3.8l3.8,3.8c0.4,0.4,1,0.4,1.4,0s0.4-1,0-1.4L346.9,136.5z"/>
<g>
	<linearGradient id="SVGID_1_" gradientUnits="userSpaceOnUse" x1="378.3" y1="150" x2="378.3" y2="125">
		<stop  offset="0" style="stop-color:#AC8B42"/>
		<stop  offset="0.5" style="stop-color:#D5C99C"/>
		<stop  offset="1" style="stop-color:#AC8B42"/>
	</linearGradient>
	<polygon class="st8" points="359,150 359,125 388.3,125 397.6,135.5 393,150 	"/>
	<linearGradient id="SVGID_2_" gradientUnits="userSpaceOnUse" x1="465.35" y1="143.4681" x2="465.35" y2="131.1602">
		<stop  offset="0" style="stop-color:#AC8B42"/>
		<stop  offset="0.5" style="stop-color:#D5C99C"/>
		<stop  offset="1" style="stop-color:#AC8B42"/>
	</linearGradient>
	<path class="st9" d="M400.7,143.2v-11.7h2.5v11.7H400.7z M404.6,143.2v-11.7h2.5v11.7H404.6z M408.7,143.2v-11.7h2.5v4.5h1.7v-4.5
		h2.5v11.7h-2.5v-4.9h-1.7v4.9H408.7z M418.5,139.3v0.8c0,0.7,0.2,1.3,1,1.3c0.6,0,0.8-0.6,0.8-1.2c0-1-0.7-1.4-1.4-1.8
		c-0.8-0.5-1.4-0.9-1.9-1.5s-0.7-1.3-0.7-2.3c0-2.2,1.2-3.3,3.1-3.3c2.2,0,3.3,1.6,3.2,3.8h-2.3c0-0.7,0-1.6-0.8-1.7
		c-0.5,0-0.8,0.3-0.9,0.8c-0.1,0.7,0.3,1.1,0.8,1.4c0.9,0.7,1.7,1.1,2.3,1.7c0.6,0.6,0.9,1.4,0.9,2.8c0,2.3-1.1,3.5-3.2,3.5
		c-2.3,0-3.2-1.4-3.2-3v-1.3H418.5z M425.8,131.4h6.5v2.3h-2v9.4h-2.5v-9.4h-2V131.4z M436,131.2c-2.2,0-3.4,1.3-3.4,3.5v4.8
		c0,2.6,0.9,4,3.4,4s3.4-1.4,3.4-4v-4.8C439.4,132.4,438.2,131.2,436,131.2z M436.9,139.7c0,0.7-0.1,1.7-0.9,1.7s-0.9-1-0.9-1.7
		v-4.8c0-0.7,0.1-1.6,0.9-1.6s0.9,0.9,0.9,1.6V139.7z M446.4,132.4c-0.7-0.9-2.1-1-3.1-1h-3v11.7h2.5v-4.6c0.9,0,1.9,0.1,2.8-0.4
		c1.1-0.6,1.4-2,1.4-3.3C447.1,134,447,133.1,446.4,132.4z M444.3,136.2c-0.4,0.3-0.9,0.3-1.4,0.3v-2.9h0.3c0.4,0,0.7,0,1,0.1
		c0.4,0.2,0.5,0.9,0.5,1.4C444.6,135.4,444.6,135.9,444.3,136.2z M452.2,139.3v0.8c0,0.7,0.2,1.3,1,1.3c0.6,0,0.8-0.6,0.8-1.2
		c0-1-0.7-1.4-1.4-1.8c-0.8-0.5-1.4-0.9-1.9-1.5s-0.7-1.3-0.7-2.3c0-2.2,1.2-3.3,3.1-3.3c2.2,0,3.3,1.6,3.2,3.8H454
		c0-0.7,0-1.6-0.8-1.7c-0.5,0-0.8,0.3-0.9,0.8c-0.1,0.7,0.3,1.1,0.8,1.4c0.9,0.7,1.7,1.1,2.3,1.7c0.6,0.6,0.9,1.4,0.9,2.8
		c0,2.3-1.1,3.5-3.2,3.5c-2.3,0-3.2-1.4-3.2-3v-1.3H452.2z M461.9,131.4h-3l-2.3,11.7h2.5l0.3-2.3h2l0.4,2.3h2.5L461.9,131.4z
		 M459.7,138.8l0.7-5.3l0,0l0.7,5.3H459.7z M464.8,143.2v-11.7h5.9v2.3h-3.4v2.1h3.1v2.3h-3.1v5L464.8,143.2L464.8,143.2z
		 M471.3,143.2v-11.7h5.7v2.3h-3.2v2.2h3.1v2.3h-3.1v2.5h3.4v2.3L471.3,143.2L471.3,143.2z M477.4,131.4h6.5v2.3h-2v9.4h-2.5v-9.4
		h-2V131.4z M487.9,135.3L487.9,135.3l1.3-3.8h2.5l-2.6,6.8v4.9h-2.5v-4.9l-2.5-6.8h2.5L487.9,135.3z M501.2,132.2
		c-0.5-0.7-1.5-0.8-2.3-0.8H496l-2.3,11.7h1.2l1-5h0.7c0.8,0,2,0,2.8-0.3c1.3-0.6,1.9-1.8,2.1-3.1
		C501.7,133.8,501.7,132.9,501.2,132.2z M500.3,134.7c-0.4,2-1.4,2.3-3,2.3h-1.1l0.9-4.4h1.2C499.6,132.6,500.7,132.9,500.3,134.7z
		 M501,143.2l2.3-11.7h1.2l-2.3,11.7H501z M510.2,135c0.2-1.4,0.1-2.6-1.4-2.6c-2,0-2.7,3.2-3,4.8c-0.4,1.6-1.1,5.2,1.1,5.2
		c1.4,0,1.9-1.3,2.3-2.6c0.1-0.3,0.1-0.5,0.2-0.8h1.2c-0.1,0.2-0.1,0.5-0.2,0.7c-0.3,1-0.4,1.7-1.1,2.5s-1.5,1.3-2.6,1.3
		c-3.3,0-2.7-3.5-2.2-6.3c0.5-2.6,1.5-6,4.5-6c2,0,2.7,1.7,2.3,3.8L510.2,135L510.2,135z M511.4,143.2l2.3-11.7h1.2l-1.2,6l0,0l5-6
		h1.5l-4.3,4.9l2.2,6.8h-1.4l-1.8-5.7l-1.4,1.6l-0.8,4.1L511.4,143.2L511.4,143.2z M524.1,135.9h-3.5l-0.5,2.7h3.5l-0.9,4.4h2.4
		l0.9-4.4h3.5l0.5-2.7h-3.5l0.8-4.3h-2.4L524.1,135.9z"/>
	<path d="M362.8,135.5v-0.6c0-2.4,1.1-3.7,3.3-3.7c2,0,3.1,1.1,3.1,3.3c0,1.5-0.4,2.4-1.4,3.4l-0.9,1c-0.4,0.4-1.3,1.4-1.4,2.1h3.8
		v2.2h-6.5v-0.4c0-2,1.1-3.7,2.3-5.1l1.1-1.3c0.5-0.6,0.7-1.2,0.7-2c0-0.6-0.2-1.2-0.9-1.2c-0.8,0-0.8,1.2-0.8,1.8v0.6h-2.4
		L362.8,135.5L362.8,135.5z M373.4,131.2c-2.1,0-3.2,1-3.2,3.4v5.6c0,2.3,1.2,3.3,3.2,3.3c2.5,0,3.2-1.3,3.2-3.9v-4.3
		C376.6,132.6,376,131.2,373.4,131.2z M373.4,141.4c-0.8,0-0.8-0.8-0.8-1.5v-5.4c0-0.7,0-1.4,0.8-1.4c0.9,0,0.8,1.2,0.8,1.4v5.4
		C374.1,140.4,374.2,141.4,373.4,141.4z M379.6,135.1h-2.2v-1.8c1.2,0,2.6-0.4,2.9-1.8h1.6v11.7h-2.3V135.1z M387.2,135.4
		c-0.7,0-1.1,0.1-1.7,0.6v-0.8c0-0.7-0.1-2.1,0.8-2.1c0.7,0,0.8,0.5,0.8,1.1h2.3c-0.1-2.4-1.2-3.1-3.3-3.1c-2.7,0-3,2.4-3,4.9v3.2
		c0,2.4,0.7,4.2,3.1,4.2c2.7,0,3.3-1.7,3.3-4.4C389.6,137.2,389.2,135.4,387.2,135.4z M387.2,139.9c0,0.7-0.1,1.6-0.8,1.6
		c-0.6,0-0.8-0.5-0.8-1v-1.8c0-0.6,0.1-1.2,0.8-1.2c0.7,0,0.9,0.6,0.9,1.2L387.2,139.9L387.2,139.9z"/>
</g>
<path class="st10" d="M868.4,45H844v64.6h13.1V87.9h11.3c15.4,0,21.6-9,21.6-21.5C890.1,54,884,45,868.4,45z M867.5,76.8h-10.4V56
	h10.4c6.4,0,8.9,4.3,8.9,10.4C876.4,72.4,873.9,76.8,867.5,76.8z M934.1,101.3c-1.4,0-1.5-0.3-1.5-1.7V80.9
	c0-11.8-6.4-18.5-19.5-18.5c-7.1,0-14,1.9-18.8,4.1l3,9.8c4.4-2,10.1-3.3,15.1-3.3c2.7,0,7.7,0.9,7.7,6.6v2.1H914
	c-16,0-22.5,4.8-22.5,15c0,8.4,5.2,14.4,15.4,14.4c5.6,0,11.6-3.1,14.6-5.7h0.2c1.6,3.5,4.2,5.4,9.1,5.4c2.7,0,4.6-0.3,6.6-0.7v-8.7
	h-3.3V101.3z M920.1,97.8c-2.6,1.9-7.1,3.1-10.4,3.1c-3.9,0-6-1.7-6-5.5c0-3.4,3.2-5.6,11.6-5.6h4.8L920.1,97.8L920.1,97.8z
	 M943.5,97.4c4.4,2.3,9.6,3.9,14.6,3.9s7.2-1.5,7.2-4.5c0-2.8-2.2-3.8-6.2-4.8l-5.9-1.4c-6.3-1.5-12.4-5.1-12.4-13.5
	c0-9,7.1-14.7,18.9-14.7c6.9,0,11.7,1.1,17,3.3l-3.5,9.1c-4.1-1.5-8.7-2.8-13.1-2.8c-4.8,0-6.9,1.4-6.9,4.2c0,2.7,2.1,3.6,5.9,4.7
	l5.8,1.4c7.3,1.8,12.9,5.6,12.9,13.7c0,9.5-7.6,15-19.2,15c-7.8,0-13.4-1.6-18.8-4.4L943.5,97.4z M983.4,97.4
	c4.4,2.3,9.6,3.9,14.6,3.9s7.2-1.5,7.2-4.5c0-2.8-2.2-3.8-6.2-4.8l-5.9-1.4c-6.3-1.5-12.4-5.1-12.4-13.5c0-9,7.1-14.7,18.9-14.7
	c6.9,0,11.7,1.1,17,3.3l-3.5,9.1c-4.1-1.5-8.7-2.8-13.1-2.8c-4.8,0-6.9,1.4-6.9,4.2c0,2.7,2.1,3.6,5.9,4.7l5.8,1.4
	c7.3,1.8,12.9,5.6,12.9,13.7c0,9.5-7.6,15-19.2,15c-7.8,0-13.4-1.6-18.8-4.4L983.4,97.4z M1062.8,101.3c-1.4,0-1.5-0.3-1.5-1.7V80.9
	c0-11.8-6.4-18.5-19.5-18.5c-7.1,0-14,1.9-18.8,4.1l3,9.8c4.4-2,10.1-3.3,15.1-3.3c2.7,0,7.7,0.9,7.7,6.6v2.1h-6.1
	c-16,0-22.5,4.8-22.5,15c0,8.4,5.2,14.4,15.4,14.4c5.6,0,11.6-3.1,14.6-5.7h0.2c1.6,3.5,4.2,5.4,9.1,5.4c2.7,0,4.6-0.3,6.6-0.7v-8.7
	h-3.3L1062.8,101.3L1062.8,101.3z M1048.9,97.8c-2.6,1.9-7.1,3.1-10.4,3.1c-3.9,0-6-1.7-6-5.5c0-3.4,3.2-5.6,11.6-5.6h4.8V97.8
	L1048.9,97.8z M1086,53.2v10.6h13v9.8h-13v21.7c0,3.3,1.7,5.2,5.4,5.2c2.2,0,5.2-0.7,7.4-1.3v10.4c-1.9,0.5-6.2,1.4-10.7,1.4
	c-10.1,0-14.8-4.2-14.8-13.4v-24h-8.3v-6.9l8.3-2.8V53.2H1086z"/>
<path class="st11" d="M852.4,26.5v1.9h-3.1v9.1h-2.2v-9.1H844v-1.9H852.4z M859.1,37.6v-4.7c0-1-0.4-1.6-1.4-1.6
	c-0.8,0-1.4,0.4-1.7,0.7v5.5h-2.2V26.2h2.2v4.2l0,0c0.4-0.4,1.3-0.9,2.3-0.9c1.9,0,2.9,1.3,2.9,3.1v4.9L859.1,37.6L859.1,37.6z
	 M870.3,32.9c0-1.8-1.1-3.4-3.6-3.4s-3.9,1.9-3.9,4.1c0,2.3,1.3,4.2,4,4.2c1.2,0,2.4-0.3,3.2-0.7l-0.5-1.6c-0.8,0.3-1.6,0.5-2.5,0.5
	c-1.2,0-1.9-0.7-2-1.8h5.2C870.3,34,870.3,33.4,870.3,32.9z M868.3,32.9H865c0-0.9,0.6-1.8,1.7-1.8c1.2,0,1.6,0.7,1.6,1.6
	C868.3,32.8,868.3,32.8,868.3,32.9z M877.4,29.8l0.3,0.8l0,0c0.5-0.4,1.3-1,2.5-1c1.8,0,2.9,1.2,2.9,3.1v4.9h-2.2v-4.7
	c0-1-0.4-1.6-1.4-1.6c-0.7,0-1.3,0.4-1.7,0.7v5.6h-2.2v-7.8H877.4z M892.2,32.9c0-1.8-1.1-3.4-3.6-3.4s-3.9,1.9-3.9,4.1
	c0,2.3,1.3,4.2,4,4.2c1.2,0,2.4-0.3,3.2-0.7l-0.5-1.6c-0.8,0.3-1.6,0.5-2.5,0.5c-1.2,0-1.9-0.7-2-1.8h5.2
	C892.1,34,892.2,33.4,892.2,32.9z M890.2,32.9h-3.3c0-0.9,0.6-1.8,1.7-1.8c1.2,0,1.6,0.7,1.6,1.6C890.2,32.8,890.2,32.8,890.2,32.9z
	 M906,29.9l-2.3,7.6h-2.4l-1.8-5.6l0,0l-1.8,5.6h-2.4l-2.3-7.6v-0.2h2.2l1.4,5.4l0,0l1.7-5.4h2.4l1.7,5.4l0,0l1.4-5.4h2.2L906,29.9
	L906,29.9z M909.5,26.2v9.6c0,0.2,0,0.3,0.3,0.3h0.9v1.5c-0.3,0.1-0.8,0.1-1.3,0.1c-1.5,0-2-0.7-2-2.3v-9.2H909.5z M919.4,29.9
	l-3.3,8.6c-0.7,1.7-1.8,2.5-3.1,2.5c-0.5,0-0.9-0.1-1.3-0.1v-1.7c0.4,0.1,0.8,0.1,1,0.1c0.7,0,1.1-0.2,1.3-0.9l0.3-0.9l-3.1-7.6
	v-0.2h2.3l1.9,5.3l0,0l1.8-5.3h2.3v0.2C919.5,29.9,919.4,29.9,919.4,29.9z M926.1,29.8l0.3,0.9l0,0c0.3-0.5,0.9-1.2,2-1.2
	c0.3,0,0.6,0,0.8,0.1l-0.2,1.8c-0.2,0-0.6-0.1-0.8-0.1c-0.9,0-1.4,0.4-1.7,0.8v5.4h-2.2v-7.8L926.1,29.8L926.1,29.8z M937.6,32.9
	c0-1.8-1.1-3.4-3.6-3.4s-3.9,1.9-3.9,4.1c0,2.3,1.3,4.2,4,4.2c1.2,0,2.4-0.3,3.2-0.7l-0.5-1.6c-0.8,0.3-1.6,0.5-2.5,0.5
	c-1.2,0-1.9-0.7-2-1.8h5.2C937.5,34,937.6,33.4,937.6,32.9z M935.6,32.9h-3.3c0-0.9,0.6-1.8,1.7-1.8c1.2,0,1.6,0.7,1.6,1.6
	C935.6,32.8,935.6,32.8,935.6,32.9z M944.4,26.2v4.1l0,0c-0.5-0.3-1.1-0.8-2.2-0.8c-2.2,0-3.4,1.9-3.4,4.1c0,2.3,1.2,4.1,3.4,4.1
	c1.2,0,1.9-0.5,2.5-0.9l0,0l0.3,0.7h1.6V26.2H944.4z M944.4,35.5c-0.4,0.3-1,0.5-1.6,0.5c-1.3,0-1.9-1-1.9-2.3
	c0-1.4,0.6-2.3,1.9-2.3c0.6,0,1.1,0.2,1.6,0.5V35.5z M955.8,32.9c0-1.8-1.1-3.4-3.6-3.4s-3.9,1.9-3.9,4.1c0,2.3,1.3,4.2,4,4.2
	c1.2,0,2.4-0.3,3.2-0.7l-0.5-1.6c-0.8,0.3-1.6,0.5-2.5,0.5c-1.2,0-1.9-0.7-2-1.8h5.2C955.7,34,955.8,33.4,955.8,32.9z M953.8,32.9
	h-3.3c0-0.9,0.6-1.8,1.7-1.8c1.2,0,1.6,0.7,1.6,1.6C953.8,32.8,953.8,32.8,953.8,32.9z M957.5,35.5c0.8,0.4,1.6,0.7,2.5,0.7
	s1.2-0.3,1.2-0.8s-0.4-0.6-1.1-0.8l-1-0.2c-1.1-0.3-2.1-0.9-2.1-2.3c0-1.5,1.2-2.5,3.2-2.5c1.2,0,2,0.2,2.9,0.6l-0.6,1.6
	c-0.7-0.3-1.5-0.5-2.2-0.5c-0.8,0-1.2,0.2-1.2,0.7s0.4,0.6,1,0.8l1,0.2c1.2,0.3,2.2,1,2.2,2.3c0,1.6-1.3,2.6-3.3,2.6
	c-1.3,0-2.3-0.3-3.2-0.7L957.5,35.5z M966,26c0.8,0,1.3,0.5,1.3,1.2s-0.5,1.2-1.3,1.2s-1.3-0.5-1.3-1.2S965.3,26,966,26z
	 M964.9,37.6v-7.8h2.2v7.8H964.9z M974.9,29.8l-0.3,0.7l0,0c-0.6-0.4-1.2-1-2.4-1c-2.2,0-3.4,1.8-3.4,4.1s1.1,4,3.4,4
	c1.1,0,1.7-0.4,2.2-0.8l0,0v0.6c0,1.3-0.6,1.7-1.8,1.7c-1,0-1.8-0.2-2.4-0.6l-0.6,1.6c0.8,0.4,1.8,0.8,3.1,0.8c2.6,0,4-1.3,4-3.9
	v-7.3h-1.8V29.8z M974.4,35.4c-0.4,0.2-1,0.4-1.6,0.4c-1.3,0-1.8-0.9-1.8-2.2c0-1.4,0.6-2.3,1.8-2.3c0.6,0,1.1,0.2,1.6,0.5V35.4z
	 M980.4,29.8l0.3,0.8l0,0c0.5-0.4,1.3-1,2.5-1c1.8,0,2.9,1.2,2.9,3.1v4.9h-2.2v-4.7c0-1-0.4-1.6-1.4-1.6c-0.7,0-1.3,0.4-1.7,0.7v5.6
	h-2.2v-7.8H980.4z M995.1,32.9c0-1.8-1.1-3.4-3.6-3.4s-3.9,1.9-3.9,4.1c0,2.3,1.3,4.2,4,4.2c1.2,0,2.4-0.3,3.2-0.7l-0.5-1.6
	c-0.8,0.3-1.6,0.5-2.5,0.5c-1.2,0-1.9-0.7-2-1.8h5.2C995.1,34,995.1,33.4,995.1,32.9z M993.1,32.9h-3.3c0-0.9,0.6-1.8,1.7-1.8
	c1.2,0,1.6,0.7,1.6,1.6C993.1,32.8,993.1,32.8,993.1,32.9z M1002,26.2v4.1l0,0c-0.5-0.3-1.1-0.8-2.2-0.8c-2.2,0-3.4,1.9-3.4,4.1
	c0,2.3,1.2,4.1,3.4,4.1c1.2,0,1.9-0.5,2.5-0.9l0,0l0.3,0.7h1.6V26.2H1002z M1002,35.5c-0.4,0.3-1,0.5-1.6,0.5c-1.3,0-1.9-1-1.9-2.3
	c0-1.4,0.6-2.3,1.9-2.3c0.6,0,1.1,0.2,1.6,0.5V35.5z M1019.5,26.7l-3.9,10.8h-2.7l-3.9-10.8v-0.2h2.4l2.8,8.6l0,0l2.8-8.6h2.4
	L1019.5,26.7L1019.5,26.7z M1024.3,29.5c-2.7,0-4.1,1.9-4.1,4.1c0,2.3,1.4,4.1,4.1,4.1s4.1-1.9,4.1-4.1
	C1028.5,31.4,1027,29.5,1024.3,29.5z M1024.3,36c-1.1,0-1.9-0.8-1.9-2.3c0-1.6,0.8-2.3,1.9-2.3c1.1,0,1.9,0.8,1.9,2.3
	S1025.5,36,1024.3,36z M1032.2,26.2v9.6c0,0.2,0,0.3,0.3,0.3h0.9v1.5c-0.3,0.1-0.8,0.1-1.3,0.1c-1.5,0-2-0.7-2-2.3v-9.2H1032.2z
	 M1036.9,33.9v3.6h-2.2V26.2h2.2v7l0,0l2.7-3.5h2.4v0.2l-3,3.6l3.1,3.9v0.2h-2.5L1036.9,33.9L1036.9,33.9z M1043.6,35.5
	c0.8,0.4,1.6,0.7,2.5,0.7s1.2-0.3,1.2-0.8s-0.4-0.6-1.1-0.8l-1-0.2c-1.1-0.3-2.1-0.9-2.1-2.3c0-1.5,1.2-2.5,3.2-2.5
	c1.2,0,2,0.2,2.9,0.6l-0.6,1.6c-0.7-0.3-1.5-0.5-2.2-0.5c-0.8,0-1.2,0.2-1.2,0.7s0.4,0.6,1,0.8l1,0.2c1.2,0.3,2.2,1,2.2,2.3
	c0,1.6-1.3,2.6-3.3,2.6c-1.3,0-2.3-0.3-3.2-0.7L1043.6,35.5z M1063.3,29.9l-2.3,7.6h-2.4l-1.8-5.6l0,0l-1.8,5.6h-2.4l-2.3-7.6v-0.2
	h2.2l1.4,5.4l0,0l1.7-5.4h2.4l1.7,5.4l0,0l1.4-5.4h2.2L1063.3,29.9L1063.3,29.9z M1071.4,36.1c-0.2,0-0.3,0-0.3-0.3v-3.2
	c0-2-1.1-3.2-3.3-3.2c-1.2,0-2.4,0.3-3.2,0.7l0.5,1.7c0.8-0.3,1.7-0.6,2.6-0.6c0.5,0,1.3,0.1,1.3,1.1v0.4h-1.1
	c-2.7,0-3.8,0.8-3.8,2.6c0,1.4,0.9,2.5,2.6,2.5c1,0,2-0.5,2.5-1l0,0c0.3,0.6,0.7,0.9,1.6,0.9c0.5,0,0.8,0,1.1-0.1v-1.5
	C1071.9,36.1,1071.4,36.1,1071.4,36.1z M1069,35.5c-0.5,0.3-1.2,0.5-1.8,0.5c-0.7,0-1-0.3-1-0.9s0.5-1,2-1h0.8V35.5z M1079.1,29.8
	l-0.3,0.7l0,0c-0.6-0.4-1.2-1-2.4-1c-2.2,0-3.4,1.8-3.4,4.1s1.1,4,3.4,4c1.1,0,1.7-0.4,2.2-0.8l0,0v0.6c0,1.3-0.6,1.7-1.8,1.7
	c-1,0-1.8-0.2-2.4-0.6l-0.6,1.6c0.8,0.4,1.8,0.8,3.1,0.8c2.6,0,4-1.3,4-3.9v-7.3h-1.8L1079.1,29.8L1079.1,29.8z M1078.6,35.4
	c-0.4,0.2-1,0.4-1.6,0.4c-1.3,0-1.8-0.9-1.8-2.2c0-1.4,0.5-2.3,1.8-2.3c0.6,0,1.1,0.2,1.6,0.5V35.4z M1090,32.9
	c0-1.8-1.1-3.4-3.6-3.4s-3.9,1.9-3.9,4.1c0,2.3,1.3,4.2,4,4.2c1.2,0,2.4-0.3,3.2-0.7l-0.5-1.6c-0.8,0.3-1.6,0.5-2.5,0.5
	c-1.2,0-1.9-0.7-2-1.8h5.2C1089.9,34,1090,33.4,1090,32.9z M1088,32.9h-3.3c0-0.9,0.6-1.8,1.7-1.8c1.2,0,1.6,0.7,1.6,1.6
	C1088,32.8,1088,32.8,1088,32.9z M1093.3,29.8l0.3,0.8l0,0c0.5-0.4,1.3-1,2.5-1c1.8,0,2.9,1.2,2.9,3.1v4.9h-2.2v-4.7
	c0-1-0.4-1.6-1.4-1.6c-0.7,0-1.3,0.4-1.7,0.7v5.6h-2.2v-7.8H1093.3z"/>
<path class="st11" d="M905.3,121.7l-3,10.8h-2.6l-2.2-8.5l0,0l-2.2,8.5h-2.7l-3-10.8v-0.2h2.4l1.8,8.6l0,0l2.3-8.6h2.6l2.3,8.6l0,0
	l1.8-8.6h2.4v0.2C905.2,121.7,905.3,121.7,905.3,121.7z M907.5,121c0.8,0,1.3,0.5,1.3,1.2s-0.5,1.2-1.3,1.2s-1.2-0.5-1.2-1.2
	S906.8,121,907.5,121z M906.4,132.6v-7.8h2.2v7.8H906.4z M913.4,122.9v1.8h2.2v1.7h-2.2v3.7c0,0.6,0.3,0.9,0.9,0.9
	c0.4,0,0.9-0.1,1.2-0.2v1.8c-0.3,0.1-1.1,0.2-1.8,0.2c-1.7,0-2.5-0.7-2.5-2.3v-4.1h-1.4v-1.2l1.4-0.5v-1.8H913.4L913.4,122.9z
	 M922.1,132.6v-4.7c0-1-0.4-1.6-1.4-1.6c-0.8,0-1.3,0.4-1.7,0.7v5.5h-2.2v-11.3h2.2v4.2l0,0c0.4-0.4,1.3-0.9,2.3-0.9
	c1.8,0,2.9,1.3,2.9,3.1v4.9h-2.1V132.6z M929.8,130.5c0.8,0.4,1.6,0.7,2.5,0.7c0.8,0,1.2-0.3,1.2-0.8s-0.4-0.6-1.1-0.8l-1-0.2
	c-1.1-0.3-2.1-0.9-2.1-2.3c0-1.5,1.2-2.5,3.2-2.5c1.2,0,2,0.2,2.9,0.6l-0.6,1.6c-0.7-0.3-1.5-0.5-2.2-0.5c-0.8,0-1.2,0.2-1.2,0.7
	s0.4,0.6,1,0.8l1,0.2c1.2,0.3,2.2,1,2.2,2.3c0,1.6-1.3,2.6-3.3,2.6c-1.3,0-2.3-0.3-3.2-0.7L929.8,130.5z M944,127.9
	c0-1.8-1.1-3.4-3.6-3.4s-3.9,1.9-3.9,4.1c0,2.3,1.3,4.2,4,4.2c1.2,0,2.4-0.3,3.1-0.7l-0.5-1.6c-0.8,0.3-1.6,0.5-2.5,0.5
	c-1.2,0-1.9-0.7-1.9-1.8h5.2C943.9,129,944,128.4,944,127.9z M942,127.9h-3.3c0-0.9,0.6-1.8,1.7-1.8c1.2,0,1.6,0.7,1.6,1.6
	C942,127.8,942,127.8,942,127.9z M952.7,124.9l-3,7.6h-2.3l-3-7.6v-0.2h2.2l1.9,5.6l0,0l1.9-5.6h2.2L952.7,124.9L952.7,124.9z
	 M960.6,127.9c0-1.8-1.1-3.4-3.6-3.4s-3.9,1.9-3.9,4.1c0,2.3,1.3,4.2,4,4.2c1.2,0,2.4-0.3,3.1-0.7l-0.5-1.6
	c-0.8,0.3-1.6,0.5-2.5,0.5c-1.2,0-1.9-0.7-1.9-1.8h5.2C960.6,129,960.6,128.4,960.6,127.9z M958.6,127.9h-3.3c0-0.9,0.6-1.8,1.7-1.8
	c1.2,0,1.6,0.7,1.6,1.6C958.6,127.8,958.6,127.8,958.6,127.9z M963.8,124.8l0.3,0.8l0,0c0.4-0.4,1.2-1,2.5-1c1.8,0,2.9,1.2,2.9,3.1
	v4.9h-2.2v-4.7c0-1-0.4-1.6-1.4-1.6c-0.7,0-1.3,0.4-1.7,0.7v5.6H962v-7.8H963.8z M981.4,131.2c-0.2,0-0.3,0-0.3-0.3v-3.2
	c0-2-1.1-3.2-3.3-3.2c-1.2,0-2.4,0.3-3.2,0.7l0.5,1.7c0.8-0.3,1.7-0.6,2.6-0.6c0.5,0,1.3,0.1,1.3,1.1v0.4h-1c-2.7,0-3.8,0.8-3.8,2.6
	c0,1.4,0.9,2.5,2.6,2.5c0.9,0,2-0.5,2.5-1l0,0c0.3,0.6,0.7,0.9,1.5,0.9c0.5,0,0.8,0,1.1-0.1v-1.5L981.4,131.2L981.4,131.2z
	 M979.1,130.6c-0.4,0.3-1.2,0.5-1.8,0.5c-0.7,0-1-0.3-1-0.9c0-0.6,0.5-1,2-1h0.8V130.6z M990.4,124.9l-3,7.6h-2.3l-3-7.6v-0.2h2.2
	l1.9,5.6l0,0l1.9-5.6h2.2L990.4,124.9L990.4,124.9z M998,131.2c-0.2,0-0.3,0-0.3-0.3v-3.2c0-2-1.1-3.2-3.3-3.2
	c-1.2,0-2.4,0.3-3.2,0.7l0.5,1.7c0.8-0.3,1.7-0.6,2.6-0.6c0.5,0,1.3,0.1,1.3,1.1v0.4h-1c-2.7,0-3.8,0.8-3.8,2.6
	c0,1.4,0.9,2.5,2.6,2.5c0.9,0,2-0.5,2.5-1l0,0c0.3,0.6,0.7,0.9,1.5,0.9c0.5,0,0.8,0,1.1-0.1v-1.5L998,131.2L998,131.2z M995.7,130.6
	c-0.4,0.3-1.2,0.5-1.8,0.5c-0.7,0-1-0.3-1-0.9c0-0.6,0.5-1,2-1h0.8V130.6z M1000.9,121c0.8,0,1.3,0.5,1.3,1.2s-0.5,1.2-1.3,1.2
	s-1.2-0.5-1.2-1.2S1000.2,121,1000.9,121z M999.8,132.6v-7.8h2.2v7.8H999.8z M1006,121.2v9.6c0,0.2,0,0.3,0.3,0.3h0.8v1.5
	c-0.3,0.1-0.8,0.1-1.3,0.1c-1.5,0-2-0.7-2-2.3v-9.2L1006,121.2L1006,121.2z M1015.1,131.2c-0.2,0-0.3,0-0.3-0.3v-3.2
	c0-2-1.1-3.2-3.3-3.2c-1.2,0-2.4,0.3-3.2,0.7l0.5,1.7c0.8-0.3,1.7-0.6,2.6-0.6c0.5,0,1.3,0.1,1.3,1.1v0.4h-1c-2.7,0-3.8,0.8-3.8,2.6
	c0,1.4,0.9,2.5,2.6,2.5c0.9,0,2-0.5,2.5-1l0,0c0.3,0.6,0.7,0.9,1.5,0.9c0.5,0,0.8,0,1.1-0.1v-1.5L1015.1,131.2L1015.1,131.2z
	 M1012.7,130.6c-0.4,0.3-1.2,0.5-1.8,0.5c-0.7,0-1-0.3-1-0.9c0-0.6,0.5-1,2-1h0.8V130.6z M1021.3,124.5c-1.1,0-1.7,0.5-2.2,0.8l0,0
	v-4.1h-2.2v11.3h1.6l0.3-0.7l0,0c0.6,0.4,1.3,0.9,2.5,0.9c2.2,0,3.4-1.9,3.4-4.1S1023.5,124.5,1021.3,124.5z M1020.6,131
	c-0.6,0-1.1-0.2-1.6-0.5v-3.8c0.4-0.3,1-0.5,1.6-0.5c1.3,0,1.8,1,1.8,2.3C1022.4,130.1,1021.9,131,1020.6,131z M1028.2,121.2v9.6
	c0,0.2,0,0.3,0.3,0.3h0.8v1.5c-0.3,0.1-0.8,0.1-1.3,0.1c-1.5,0-2-0.7-2-2.3v-9.2L1028.2,121.2L1028.2,121.2z M1037.6,127.9
	c0-1.8-1.1-3.4-3.6-3.4s-3.9,1.9-3.9,4.1c0,2.3,1.3,4.2,4,4.2c1.2,0,2.4-0.3,3.1-0.7l-0.5-1.6c-0.8,0.3-1.6,0.5-2.5,0.5
	c-1.2,0-1.9-0.7-1.9-1.8h5.2C1037.6,129,1037.6,128.4,1037.6,127.9z M1035.6,127.9h-3.3c0-0.9,0.6-1.8,1.7-1.8
	c1.2,0,1.6,0.7,1.6,1.6C1035.6,127.8,1035.6,127.8,1035.6,127.9z M873.4,138.7H870v11h3.4c4.1,0,5.6-1.9,5.6-5.5
	S877.5,138.7,873.4,138.7z M873.2,147.9h-1v-7.3h1c2.8,0,3.5,1.1,3.5,3.6S876,147.9,873.2,147.9z M882.4,142l0.3,0.9l0,0
	c0.3-0.5,0.9-1.2,2-1.2c0.3,0,0.6,0,0.8,0.1l-0.2,1.8c-0.2,0-0.6-0.1-0.8-0.1c-0.9,0-1.4,0.4-1.7,0.8v5.4h-2.2V142H882.4z
	 M887.6,138.2c0.8,0,1.3,0.5,1.3,1.2s-0.5,1.2-1.3,1.2s-1.2-0.5-1.2-1.2S886.9,138.2,887.6,138.2z M886.5,149.8V142h2.2v7.8H886.5z
	 M898,142.1l-3,7.6h-2.3l-3-7.6V142h2.2l1.9,5.6l0,0l1.9-5.6h2.2L898,142.1L898,142.1z M905.8,145.1c0-1.8-1.1-3.4-3.6-3.4
	s-3.9,1.9-3.9,4.1c0,2.3,1.3,4.2,4,4.2c1.2,0,2.4-0.3,3.1-0.7l-0.5-1.6c-0.8,0.3-1.6,0.5-2.5,0.5c-1.2,0-1.9-0.7-1.9-1.8h5.2
	C905.8,146.2,905.8,145.6,905.8,145.1z M903.9,145.1h-3.3c0-0.9,0.6-1.8,1.7-1.8c1.2,0,1.6,0.7,1.6,1.6
	C903.9,145,903.9,145,903.9,145.1z M909,142l0.3,0.9l0,0c0.3-0.5,0.9-1.2,2-1.2c0.3,0,0.6,0,0.8,0.1l-0.2,1.8
	c-0.2,0-0.6-0.1-0.8-0.1c-0.9,0-1.4,0.4-1.7,0.8v5.4h-2.2V142H909z M921.6,138.7H919l-4,11h2.4l0.7-2.3h4.3l0.7,2.3h2.5L921.6,138.7
	z M918.7,145.7l1.5-4.6l0,0l1.5,4.6H918.7z M926.6,147.7c0.8,0.4,1.6,0.7,2.5,0.7c0.8,0,1.2-0.3,1.2-0.8s-0.4-0.6-1.1-0.8l-1-0.2
	c-1.1-0.3-2.1-0.9-2.1-2.3c0-1.5,1.2-2.5,3.2-2.5c1.2,0,2,0.2,2.9,0.6l-0.6,1.6c-0.7-0.3-1.5-0.5-2.2-0.5c-0.8,0-1.2,0.2-1.2,0.7
	s0.4,0.6,1,0.8l1,0.2c1.2,0.3,2.2,1,2.2,2.3c0,1.6-1.3,2.6-3.3,2.6c-1.3,0-2.3-0.3-3.2-0.7L926.6,147.7z M933.9,147.7
	c0.8,0.4,1.6,0.7,2.5,0.7c0.8,0,1.2-0.3,1.2-0.8s-0.4-0.6-1.1-0.8l-1-0.2c-1.1-0.3-2.1-0.9-2.1-2.3c0-1.5,1.2-2.5,3.2-2.5
	c1.2,0,2,0.2,2.9,0.6l-0.6,1.6c-0.7-0.3-1.5-0.5-2.2-0.5c-0.8,0-1.2,0.2-1.2,0.7s0.4,0.6,1,0.8l1,0.2c1.2,0.3,2.2,1,2.2,2.3
	c0,1.6-1.3,2.6-3.3,2.6c-1.3,0-2.3-0.3-3.2-0.7L933.9,147.7z M942.2,138.2c0.8,0,1.3,0.5,1.3,1.2s-0.5,1.2-1.3,1.2s-1.2-0.5-1.2-1.2
	S941.5,138.2,942.2,138.2z M941.1,149.8V142h2.2v7.8H941.1z M945.3,147.7c0.8,0.4,1.6,0.7,2.5,0.7c0.8,0,1.2-0.3,1.2-0.8
	s-0.4-0.6-1.1-0.8l-1-0.2c-1.1-0.3-2.1-0.9-2.1-2.3c0-1.5,1.2-2.5,3.2-2.5c1.2,0,2,0.2,2.9,0.6l-0.6,1.6c-0.7-0.3-1.5-0.5-2.2-0.5
	c-0.8,0-1.2,0.2-1.2,0.7s0.4,0.6,1,0.8l1,0.2c1.2,0.3,2.2,1,2.2,2.3c0,1.6-1.3,2.6-3.3,2.6c-1.3,0-2.3-0.3-3.2-0.7L945.3,147.7z
	 M955.4,140.1v1.8h2.2v1.7h-2.2v3.7c0,0.6,0.3,0.9,0.9,0.9c0.4,0,0.9-0.1,1.2-0.2v1.8c-0.3,0.1-1.1,0.2-1.8,0.2
	c-1.7,0-2.5-0.7-2.5-2.3v-4.1h-1.4v-1.2l1.4-0.5v-1.8L955.4,140.1L955.4,140.1z M965.7,148.3c-0.2,0-0.3,0-0.3-0.3v-3.2
	c0-2-1.1-3.2-3.3-3.2c-1.2,0-2.4,0.3-3.2,0.7l0.5,1.7c0.8-0.3,1.7-0.6,2.6-0.6c0.5,0,1.3,0.1,1.3,1.1v0.4h-1c-2.7,0-3.8,0.8-3.8,2.6
	c0,1.4,0.9,2.5,2.6,2.5c0.9,0,2-0.5,2.5-1l0,0c0.3,0.6,0.7,0.9,1.5,0.9c0.5,0,0.8,0,1.1-0.1v-1.5L965.7,148.3L965.7,148.3z
	 M963.3,147.7c-0.4,0.3-1.2,0.5-1.8,0.5c-0.7,0-1-0.3-1-0.9c0-0.6,0.5-1,2-1h0.8V147.7z M969.2,142l0.3,0.8l0,0c0.4-0.4,1.2-1,2.5-1
	c1.8,0,2.9,1.2,2.9,3.1v4.9h-2.2v-4.7c0-1-0.4-1.6-1.4-1.6c-0.7,0-1.3,0.4-1.7,0.7v5.6h-2.2V142H969.2z M980.3,141.7
	c0.9,0,1.9,0.3,2.4,0.5l-0.4,1.7c-0.4-0.1-1-0.3-1.7-0.3c-1.2,0-2.1,0.6-2.1,2.3s0.9,2.3,2.1,2.3c0.7,0,1.3-0.2,1.7-0.3l0.4,1.7
	c-0.5,0.2-1.5,0.5-2.4,0.5c-2.6,0-4.1-1.6-4.1-4.1S977.7,141.7,980.3,141.7z M991,145.1c0-1.8-1.1-3.4-3.6-3.4s-3.9,1.9-3.9,4.1
	c0,2.3,1.3,4.2,4,4.2c1.2,0,2.4-0.3,3.1-0.7l-0.5-1.6c-0.8,0.3-1.6,0.5-2.5,0.5c-1.2,0-1.9-0.7-1.9-1.8h5.2
	C990.9,146.2,991,145.6,991,145.1z M989,145.1h-3.3c0-0.9,0.6-1.8,1.7-1.8c1.2,0,1.6,0.7,1.6,1.6C989,145,989,145,989,145.1z
	 M996.4,149.8v-6.1H995v-1.2l1.4-0.5v-1c0-1.8,1-2.6,2.6-2.6c0.4,0,1,0,1.4,0.1v1.8c-0.3-0.1-0.8-0.1-1-0.1c-0.6,0-0.8,0.2-0.8,0.9
	v0.9h1.9v1.7h-1.9v6.1L996.4,149.8L996.4,149.8z M1008.6,145.1c0-1.8-1.1-3.4-3.6-3.4s-3.9,1.9-3.9,4.1c0,2.3,1.3,4.2,4,4.2
	c1.2,0,2.4-0.3,3.1-0.7l-0.5-1.6c-0.8,0.3-1.6,0.5-2.5,0.5c-1.2,0-1.9-0.7-1.9-1.8h5.2C1008.6,146.2,1008.6,145.6,1008.6,145.1z
	 M1006.6,145.1h-3.3c0-0.9,0.6-1.8,1.7-1.8c1.2,0,1.6,0.7,1.6,1.6C1006.6,145,1006.6,145,1006.6,145.1z M1016.8,148.3
	c-0.2,0-0.3,0-0.3-0.3v-3.2c0-2-1.1-3.2-3.3-3.2c-1.2,0-2.4,0.3-3.2,0.7l0.5,1.7c0.8-0.3,1.7-0.6,2.6-0.6c0.5,0,1.3,0.1,1.3,1.1v0.4
	h-1c-2.7,0-3.8,0.8-3.8,2.6c0,1.4,0.9,2.5,2.6,2.5c0.9,0,2-0.5,2.5-1l0,0c0.3,0.6,0.7,0.9,1.5,0.9c0.5,0,0.8,0,1.1-0.1v-1.5
	L1016.8,148.3L1016.8,148.3z M1014.4,147.7c-0.4,0.3-1.2,0.5-1.8,0.5c-0.7,0-1-0.3-1-0.9c0-0.6,0.5-1,2-1h0.8V147.7z M1021.3,140.1
	v1.8h2.2v1.7h-2.2v3.7c0,0.6,0.3,0.9,0.9,0.9c0.4,0,0.9-0.1,1.2-0.2v1.8c-0.3,0.1-1.1,0.2-1.8,0.2c-1.7,0-2.5-0.7-2.5-2.3v-4.1h-1.4
	v-1.2l1.4-0.5v-1.8L1021.3,140.1L1021.3,140.1z M1027,142v4.7c0,1,0.4,1.6,1.3,1.6c0.7,0,1.3-0.4,1.6-0.7V142h2.2v7.8h-1.7l-0.3-0.8
	l0,0c-0.4,0.4-1.2,1-2.4,1c-1.8,0-2.8-1.2-2.8-3.1V142H1027z M1035.7,142l0.3,0.9l0,0c0.3-0.5,0.9-1.2,2-1.2c0.3,0,0.6,0,0.8,0.1
	l-0.2,1.8c-0.2,0-0.6-0.1-0.8-0.1c-0.9,0-1.4,0.4-1.7,0.8v5.4h-2.1V142H1035.7z M1046.7,145.1c0-1.8-1.1-3.4-3.6-3.4
	s-3.9,1.9-3.9,4.1c0,2.3,1.3,4.2,4,4.2c1.2,0,2.4-0.3,3.1-0.7l-0.5-1.6c-0.8,0.3-1.6,0.5-2.5,0.5c-1.2,0-1.9-0.7-1.9-1.8h5.2
	C1046.7,146.2,1046.7,145.6,1046.7,145.1z M1044.7,145.1h-3.3c0-0.9,0.6-1.8,1.7-1.8c1.2,0,1.6,0.7,1.6,1.6
	C1044.7,145,1044.7,145,1044.7,145.1z M1048.3,147.7c0.8,0.4,1.6,0.7,2.5,0.7s1.2-0.3,1.2-0.8s-0.4-0.6-1.1-0.8l-1-0.2
	c-1.1-0.3-2.1-0.9-2.1-2.3c0-1.5,1.2-2.5,3.2-2.5c1.2,0,2,0.2,2.9,0.6l-0.6,1.6c-0.7-0.3-1.5-0.5-2.2-0.5c-0.8,0-1.2,0.2-1.2,0.7
	s0.4,0.6,1,0.8l1,0.2c1.2,0.3,2.2,1,2.2,2.3c0,1.6-1.3,2.6-3.3,2.6c-1.3,0-2.3-0.3-3.2-0.7L1048.3,147.7z M1056.6,147.2
	c0.8,0,1.4,0.6,1.4,1.4s-0.5,1.4-1.4,1.4c-0.8,0-1.4-0.6-1.4-1.4S1055.8,147.2,1056.6,147.2z"/>
<path class="st7" d="M1093.6-29.2"/>
<path class="st7" d="M1085.5-22.1l-6.8-7.6c-0.4-0.4-1-0.4-1.4,0s-0.4,1.1,0,1.5l8.2,9.1l8.2-9.1c0.4-0.4,0.4-1.1,0-1.5
	s-1-0.4-1.4,0L1085.5-22.1z"/>
<path class="st0" d="M741,137c-0.8-0.4-1.7-0.5-2.7-0.5c-3.1,0-5.2,2.4-5.2,5.5c0,2.9,2,5.3,5.1,5.3c1,0,2.1-0.3,2.8-0.6v-2.3
	c-0.6,0.5-1.4,0.9-2.5,0.9c-2,0-3.1-1.6-3.1-3.3c0-2.1,1.3-3.4,3-3.4c0.9,0,2,0.4,2.6,0.9L741,137L741,137z M744.4,136v11h-2v-11
	H744.4z M748.1,140.6v6.5h-2v-6.5H748.1z M747.1,136.9c-0.7,0-1.2,0.6-1.2,1.3s0.6,1.3,1.2,1.3c0.6,0,1.2-0.6,1.2-1.3
	S747.8,136.9,747.1,136.9z M754.6,142.6c-0.3-0.2-0.9-0.4-1.4-0.4c-0.9,0-1.6,0.6-1.6,1.6c0,0.9,0.6,1.7,1.6,1.7
	c0.5,0,1.1-0.2,1.4-0.5v1.9c-0.4,0.1-1.1,0.4-1.8,0.4c-2.1,0-3.3-1.6-3.3-3.4c0-1.7,1.2-3.5,3.4-3.5c0.6,0,1.3,0.1,1.7,0.3
	L754.6,142.6L754.6,142.6z M758,136v7.2l2-2.7h2.5l-2.4,3l2.6,3.5h-2.6l-2-3v3h-2v-11H758z M769.5,140.6h1.1v1.6h-1.1v4.9h-2v-4.9
	h-0.8v-1.6h0.8v-2.3h2V140.6z M774.6,140.3c-2.1,0-3.5,1.5-3.5,3.4c0,2,1.5,3.5,3.4,3.5c2.3,0,3.6-1.7,3.6-3.5
	C778.1,141.8,776.6,140.3,774.6,140.3z M774.6,145.5c-0.8,0-1.5-0.7-1.5-1.6c0-0.9,0.6-1.7,1.5-1.7c0.8,0,1.5,0.7,1.5,1.6
	C776.1,144.7,775.5,145.5,774.6,145.5z M789.4,143.7c0-2.2-1.3-3.4-3.2-3.4s-3.2,1.5-3.2,3.5c0,2.3,1.6,3.4,3.2,3.4
	c1.4,0,2.3-0.5,3.1-1.5l-1.3-0.9c-0.4,0.6-0.9,0.9-1.5,0.9c-0.9,0-1.5-0.6-1.5-1.4h4.5C789.4,144.1,789.4,143.8,789.4,143.7z
	 M784.9,143.1c0.1-0.7,0.6-1.3,1.3-1.3s1.2,0.6,1.2,1.3H784.9z M792.2,140.6c0.5,0.7,0.9,1.3,1.2,2c0.4-0.7,0.8-1.3,1.2-2h2.4
	l-2.4,3.1l2.5,3.4h-2.4c-0.5-0.8-1-1.5-1.4-2.2c-0.5,0.8-1,1.6-1.5,2.2h-2.4l2.6-3.3l-2.4-3.2H792.2z M802.2,140.4
	c-1,0-1.7,0.4-2.1,1v-0.8h-2v9.4h2v-3.6c0.4,0.5,1,0.8,1.9,0.8c2,0,3.1-1.7,3.1-3.4C805.1,141.9,803.9,140.4,802.2,140.4z
	 M801.5,145.6c-0.9,0-1.5-0.7-1.5-1.7c0-0.9,0.6-1.7,1.5-1.7c1,0,1.5,0.9,1.5,1.7C803,144.7,802.5,145.6,801.5,145.6z M808.5,136v11
	h-2v-11H808.5z M813.3,140.3c-2.1,0-3.5,1.5-3.5,3.4c0,2,1.5,3.5,3.4,3.5c2.3,0,3.6-1.7,3.6-3.5
	C816.8,141.8,815.3,140.3,813.3,140.3z M813.3,145.5c-0.8,0-1.5-0.7-1.5-1.6c0-0.9,0.6-1.7,1.5-1.7c0.8,0,1.5,0.7,1.5,1.6
	C814.8,144.7,814.2,145.5,813.3,145.5z M822.1,142.5c-0.2-0.1-0.5-0.2-0.8-0.2c-0.7,0-1.1,0.6-1.1,1.9v2.8h-2v-6.5h2v1
	c0.4-0.7,0.9-1.2,1.9-1.2L822.1,142.5L822.1,142.5z M829.1,143.7c0-2.2-1.3-3.4-3.2-3.4s-3.2,1.5-3.2,3.5c0,2.3,1.6,3.4,3.2,3.4
	c1.4,0,2.3-0.5,3.1-1.5l-1.3-0.9c-0.4,0.6-0.9,0.9-1.5,0.9c-0.9,0-1.5-0.6-1.5-1.4h4.5C829.1,144.1,829.1,143.8,829.1,143.7z
	 M824.6,143.1c0.1-0.7,0.6-1.3,1.3-1.3s1.2,0.6,1.2,1.3H824.6z"/>
<path class="st0" d="M588.6,139h-2.3l-1.4,10.7h2.1l0.6-5.7c0.1-0.6,0.1-1.2,0.1-2c0.2,0.7,0.3,1.4,0.5,1.9l2,5.8h1.4l2-5.9
	c0.2-0.5,0.3-1.1,0.5-1.8c0,0.8,0,1.4,0.1,1.9l0.6,5.8h2.1l-1.4-10.7h-2.2l-1.8,5.2c-0.2,0.6-0.4,1.4-0.6,2.2
	c-0.2-0.8-0.4-1.5-0.6-2.2L588.6,139z M601.6,142.9c-2.1,0-3.5,1.6-3.5,3.5c0,2.1,1.5,3.6,3.4,3.6c2.3,0,3.6-1.8,3.6-3.6
	C605.1,144.4,603.6,142.9,601.6,142.9z M601.6,148.1c-0.8,0-1.5-0.7-1.5-1.7c0-0.9,0.6-1.7,1.5-1.7c0.8,0,1.5,0.7,1.5,1.7
	C603.1,147.3,602.5,148.1,601.6,148.1z M610.4,145.1c-0.2-0.1-0.5-0.2-0.8-0.2c-0.7,0-1.1,0.6-1.1,2v2.9h-2v-6.6h2v1
	c0.4-0.7,0.9-1.3,1.9-1.2L610.4,145.1L610.4,145.1z M617.5,146.3c0-2.2-1.3-3.5-3.2-3.5s-3.3,1.5-3.3,3.6c0,2.4,1.6,3.5,3.2,3.5
	c1.4,0,2.3-0.5,3.1-1.5l-1.3-0.9c-0.4,0.6-0.9,0.9-1.5,0.9c-0.9,0-1.5-0.6-1.5-1.5h4.5C617.5,146.7,617.5,146.4,617.5,146.3z
	 M613,145.6c0.1-0.7,0.6-1.3,1.3-1.3c0.8,0,1.2,0.6,1.2,1.3H613z M627.4,143.1v0.8c-0.3-0.6-1.1-1-1.9-1c-1.9,0-3.1,1.5-3.1,3.6
	c0,2,1.1,3.4,2.9,3.4c1,0,1.6-0.4,2.1-0.9v0.7h2v-0.6v-6H627.4z M626,148.2c-1,0-1.5-0.8-1.5-1.8s0.6-1.7,1.5-1.7
	c1,0,1.6,0.8,1.6,1.8C627.5,147.4,626.9,148.2,626,148.2z M633.3,143.1h1.2v1.6h-1.2v5h-2v-5h-0.9v-1.6h0.9v-2.4h2V143.1z
	 M640.6,143.1l1.2,3.2c0.1,0.4,0.3,1,0.5,1.5c0.1-0.5,0.3-1,0.5-1.6l1.1-3.2h2.2l-2.8,6.6h-2.2l-2.7-6.6h2.2V143.1z M648.2,143.1
	l1.2,3.2c0.1,0.4,0.2,0.8,0.4,1.2c0.1-0.4,0.2-0.8,0.3-1.1l1.1-3.2h2.1l1,3c0.1,0.5,0.3,0.9,0.4,1.3c0.1-0.5,0.3-0.9,0.4-1.3l1.1-3
	h2.1l-2.8,6.6h-1.9l-1.1-3.2c-0.1-0.3-0.2-0.6-0.3-1c-0.1,0.4-0.2,0.7-0.3,1l-1.1,3.2h-2l-2.7-6.6L648.2,143.1L648.2,143.1z
	 M660,148.7c0,0.7-0.6,1.3-1.2,1.3s-1.2-0.6-1.2-1.3s0.6-1.3,1.2-1.3S660,148,660,148.7z M666.2,145.2c-0.3-0.2-0.9-0.4-1.4-0.4
	c-0.9,0-1.6,0.6-1.6,1.6c0,0.9,0.6,1.7,1.6,1.7c0.5,0,1.1-0.2,1.4-0.5v1.9c-0.4,0.2-1.1,0.4-1.8,0.4c-2.1,0-3.3-1.6-3.3-3.5
	c0-1.8,1.2-3.6,3.4-3.6c0.6,0,1.3,0.1,1.7,0.3L666.2,145.2L666.2,145.2z M670.8,142.9c-2.1,0-3.5,1.6-3.5,3.5c0,2.1,1.5,3.6,3.4,3.6
	c2.3,0,3.6-1.8,3.6-3.6C674.4,144.4,672.9,142.9,670.8,142.9z M670.8,148.1c-0.8,0-1.5-0.7-1.5-1.7c0-0.9,0.6-1.7,1.5-1.7
	c0.8,0,1.5,0.7,1.5,1.7C672.3,147.3,671.7,148.1,670.8,148.1z M686,149.7h-2V146c0-0.6-0.2-1.3-1-1.3c-0.4,0-1.2,0.2-1.2,1.5v3.5h-2
	V146c0-0.6-0.2-1.3-1-1.3c-0.4,0-1.2,0.2-1.2,1.5v3.5h-2v-6.6h2v1c0.4-0.7,1-1.1,2-1.1c0.8,0,1.5,0.3,2,1.2c0.4-0.6,1.1-1.2,2.2-1.2
	c1.2,0,2.2,0.6,2.2,2.6V149.7z"/>
<path class="st5" d="M588.6,123h-2.3l-1.4,10.7h2.1l0.6-5.7c0.1-0.6,0.1-1.2,0.1-2c0.2,0.7,0.3,1.4,0.5,1.9l2,5.8h1.4l2-5.9
	c0.2-0.5,0.3-1.1,0.5-1.8c0,0.8,0,1.4,0.1,1.9l0.6,5.8h2.1l-1.4-10.7h-2.2l-1.8,5.2c-0.2,0.6-0.4,1.4-0.6,2.2
	c-0.2-0.8-0.4-1.5-0.6-2.2L588.6,123z M601.6,126.9c-2.1,0-3.5,1.6-3.5,3.5c0,2.1,1.5,3.6,3.4,3.6c2.3,0,3.6-1.8,3.6-3.6
	C605.1,128.4,603.6,126.9,601.6,126.9z M601.6,132.1c-0.8,0-1.5-0.7-1.5-1.7c0-0.9,0.6-1.7,1.5-1.7c0.8,0,1.5,0.7,1.5,1.7
	C603.1,131.3,602.5,132.1,601.6,132.1z M610.4,129.1c-0.2-0.1-0.5-0.2-0.8-0.2c-0.7,0-1.1,0.6-1.1,2v2.9h-2v-6.6h2v1
	c0.4-0.7,0.9-1.3,1.9-1.2L610.4,129.1L610.4,129.1z M617.5,130.3c0-2.2-1.3-3.5-3.2-3.5s-3.3,1.5-3.3,3.6c0,2.4,1.6,3.5,3.2,3.5
	c1.4,0,2.3-0.5,3.1-1.5l-1.3-0.9c-0.4,0.6-0.9,0.9-1.5,0.9c-0.9,0-1.5-0.6-1.5-1.5h4.5C617.5,130.7,617.5,130.4,617.5,130.3z
	 M613,129.6c0.1-0.7,0.6-1.3,1.3-1.3c0.8,0,1.2,0.6,1.2,1.3H613z M627.4,127.1v0.8c-0.3-0.6-1.1-1-1.9-1c-1.9,0-3.1,1.5-3.1,3.6
	c0,2,1.1,3.4,2.9,3.4c1,0,1.6-0.4,2.1-0.9v0.7h2v-0.6v-6C629.4,127.1,627.4,127.1,627.4,127.1z M626,132.2c-1,0-1.5-0.8-1.5-1.8
	s0.6-1.7,1.5-1.7c1,0,1.6,0.8,1.6,1.8C627.5,131.4,626.9,132.2,626,132.2z M633.3,127.1h1.2v1.6h-1.2v5h-2v-5h-0.9v-1.6h0.9v-2.4h2
	V127.1z M640.6,127.1l1.2,3.2c0.1,0.4,0.3,1,0.5,1.5c0.1-0.5,0.3-1,0.5-1.6l1.1-3.2h2.2l-2.8,6.6h-2.2l-2.7-6.6L640.6,127.1
	L640.6,127.1z M648.2,127.1l1.2,3.2c0.1,0.4,0.2,0.8,0.4,1.2c0.1-0.4,0.2-0.8,0.3-1.1l1.1-3.2h2.1l1,3c0.1,0.5,0.3,0.9,0.4,1.3
	c0.1-0.5,0.3-0.9,0.4-1.3l1.1-3h2.1l-2.8,6.6h-1.9l-1.1-3.2c-0.1-0.3-0.2-0.6-0.3-1c-0.1,0.4-0.2,0.7-0.3,1l-1.1,3.2h-2l-2.7-6.6
	L648.2,127.1L648.2,127.1z M660,132.7c0,0.7-0.6,1.3-1.2,1.3s-1.2-0.6-1.2-1.3s0.6-1.3,1.2-1.3S660,132,660,132.7z M666.2,129.2
	c-0.3-0.2-0.9-0.4-1.4-0.4c-0.9,0-1.6,0.6-1.6,1.6c0,0.9,0.6,1.7,1.6,1.7c0.5,0,1.1-0.2,1.4-0.5v1.9c-0.4,0.2-1.1,0.4-1.8,0.4
	c-2.1,0-3.3-1.6-3.3-3.5c0-1.8,1.2-3.6,3.4-3.6c0.6,0,1.3,0.1,1.7,0.3L666.2,129.2L666.2,129.2z M670.8,126.9
	c-2.1,0-3.5,1.6-3.5,3.5c0,2.1,1.5,3.6,3.4,3.6c2.3,0,3.6-1.8,3.6-3.6C674.4,128.4,672.9,126.9,670.8,126.9z M670.8,132.1
	c-0.8,0-1.5-0.7-1.5-1.7c0-0.9,0.6-1.7,1.5-1.7c0.8,0,1.5,0.7,1.5,1.7C672.3,131.3,671.7,132.1,670.8,132.1z M686,133.7h-2V130
	c0-0.6-0.2-1.3-1-1.3c-0.4,0-1.2,0.2-1.2,1.5v3.5h-2V130c0-0.6-0.2-1.3-1-1.3c-0.4,0-1.2,0.2-1.2,1.5v3.5h-2v-6.6h2v1
	c0.4-0.7,1-1.1,2-1.1c0.8,0,1.5,0.3,2,1.2c0.4-0.6,1.1-1.2,2.2-1.2c1.2,0,2.2,0.6,2.2,2.6V133.7z"/>
<path class="st7" d="M1032-35.5c0,2.1,1,3.5,3,3.5c0.6,0,1.1-0.2,1.7-0.4l-0.2-0.7c-0.5,0.2-1,0.3-1.5,0.3c-1.4,0-2.1-1-2.1-2.6
	c0-1.6,0.6-2.6,2.1-2.6c0.5,0,0.9,0.1,1.5,0.3l0.2-0.7c-0.6-0.3-1.2-0.4-1.7-0.4C1033-39,1032-37.6,1032-35.5z M1039.4-32.1
	c-0.1,0-0.3,0.1-0.6,0.1c-0.7,0-1-0.4-1-1.1V-39h0.9v5.9c0,0.2,0,0.3,0.3,0.3h0.4V-32.1z M1042.3-37c-1.6,0-2.2,1.1-2.2,2.5
	c0,1.4,0.6,2.5,2.2,2.5c1.6,0,2.3-1.1,2.3-2.5C1044.6-35.9,1044-37,1042.3-37z M1042.3-32.8c-1,0-1.4-0.8-1.4-1.7
	c0-1,0.4-1.7,1.4-1.7c1,0,1.4,0.8,1.4,1.7C1043.7-33.5,1043.4-32.8,1042.3-32.8z M1045.8-33.2c0.4,0.2,0.8,0.4,1.3,0.4
	c0.6,0,0.9-0.2,0.9-0.7c0-0.3-0.2-0.5-0.7-0.7l-0.5-0.2c-0.8-0.2-1.3-0.6-1.3-1.3c0-0.9,0.6-1.4,1.7-1.4c0.6,0,1.1,0.1,1.6,0.3
	l-0.3,0.7c-0.4-0.2-0.8-0.3-1.3-0.3c-0.6,0-0.9,0.2-0.9,0.7c0,0.3,0.2,0.5,0.7,0.6l0.5,0.1c0.8,0.2,1.3,0.6,1.3,1.4
	c0,0.9-0.6,1.4-1.7,1.4c-0.8,0-1.3-0.2-1.7-0.5L1045.8-33.2z M1054-35c0-1.1-0.6-2-2-2c-1.4,0-2.2,1.2-2.2,2.5
	c0,1.4,0.7,2.5,2.2,2.5c0.8,0,1.4-0.2,1.8-0.5l-0.3-0.7c-0.3,0.2-0.7,0.4-1.4,0.4c-0.9,0-1.4-0.6-1.4-1.5h3.3
	C1054-34.4,1054-34.7,1054-35z M1053.2-34.9h-2.5c0-0.8,0.5-1.3,1.3-1.3c0.8,0,1.2,0.5,1.2,1.1C1053.2-35.1,1053.2-35,1053.2-34.9z"
	/>
</svg>
