<?xml version="1.0" encoding="utf-8"?>
<!-- Generator: Adobe Illustrator 19.1.0, SVG Export Plug-In . SVG Version: 6.00 Build 0)  -->
<!DOCTYPE svg PUBLIC "-//W3C//DTD SVG 1.1//EN" "http://www.w3.org/Graphics/SVG/1.1/DTD/svg11.dtd">
<svg version="1.1" id="Layer_1" xmlns="http://www.w3.org/2000/svg" xmlns:xlink="http://www.w3.org/1999/xlink" x="0px" y="0px"
	 viewBox="0 0 656 254" enable-background="new 0 0 656 254" xml:space="preserve">
<path fill="#A6D8EB" d="M105.5,218.7l1.2-1.3l-1.2-1.3h1.2l1.2,1.3l-1.2,1.3H105.5z M107.9,218.7l1.2-1.3l-1.2-1.3h1.2l1.2,1.3
	l-1.2,1.3H107.9z M110.4,218.7l1.2-1.3l-1.2-1.3h1.2l1.2,1.3l-1.2,1.3H110.4z M112.8,218.7l1.2-1.3l-1.2-1.3h1.2l1.2,1.3l-1.2,1.3
	H112.8z M115.3,218.7l1.2-1.3l-1.2-1.3h1.2l1.2,1.3l-1.2,1.3H115.3z M117.7,218.7l1.2-1.3l-1.2-1.3h1.2l1.2,1.3l-1.2,1.3H117.7z
	 M120.1,218.7l1.2-1.3l-1.2-1.3h1.2l1.2,1.3l-1.2,1.3H120.1z M122.6,218.7l1.2-1.3l-1.2-1.3h1.2l1.2,1.3l-1.2,1.3H122.6z M125,218.7
	l1.2-1.3L125,216h1.2l1.2,1.3l-1.2,1.3H125z M127.5,218.7l1.2-1.3l-1.2-1.3h1.2l1.2,1.3l-1.2,1.3H127.5z M129.9,218.7l1.2-1.3
	l-1.2-1.3h1.2l1.2,1.3l-1.2,1.3H129.9z M132.3,218.7l1.2-1.3l-1.2-1.3h1.2l1.2,1.3l-1.2,1.3H132.3z M134.8,218.7l1.2-1.3l-1.2-1.3
	h1.2l1.2,1.3l-1.2,1.3H134.8z M137.2,218.7l1.2-1.3l-1.2-1.3h1.2l1.2,1.3l-1.2,1.3H137.2z M139.6,218.7l1.2-1.3l-1.2-1.3h1.2
	l1.2,1.3l-1.2,1.3H139.6z M142.1,218.7l1.2-1.3l-1.2-1.3h1.2l1.2,1.3l-1.2,1.3H142.1z M144.5,218.7l1.2-1.3l-1.2-1.3h1.2l1.2,1.3
	l-1.2,1.3H144.5z M147,218.7l1.2-1.3L147,216h1.2l1.2,1.3l-1.2,1.3H147z M149.4,218.7l1.2-1.3l-1.2-1.3h1.2l1.2,1.3l-1.2,1.3H149.4z
	 M151.8,218.7l1.2-1.3l-1.2-1.3l1.2,0l1.2,1.3l-1.2,1.4L151.8,218.7z M154.3,218.6l1.2-1.4l-1.3-1.3l1.2-0.1l1.3,1.2l-1.1,1.4
	L154.3,218.6z M156.8,218.5l1.1-1.4l-1.3-1.2l1.2-0.1l1.3,1.2l-1.1,1.5L156.8,218.5z M159.3,218.2l1-1.5l-1.4-1.1l1.2-0.2l1.4,1.1
	l-1,1.5L159.3,218.2z M161.8,217.8l1-1.5l-1.4-1.1l1.2-0.2l1.5,1l-0.9,1.6L161.8,217.8z M164.2,217.3l0.9-1.6l-1.5-1l1.2-0.3l1.5,1
	l-0.8,1.6L164.2,217.3z M166.7,216.7l0.8-1.6l-1.5-0.9l1.1-0.3l1.5,0.9l-0.8,1.6L166.7,216.7z M169.1,216l0.7-1.7l-1.6-0.9l1.1-0.4
	l1.6,0.8l-0.7,1.7L169.1,216z M171.4,215.1l0.7-1.7l-1.6-0.8l1.1-0.4l1.6,0.8l-0.6,1.7L171.4,215.1z M173.7,214.2l0.6-1.7l-1.6-0.7
	l1.1-0.5l1.6,0.7l-0.6,1.7L173.7,214.2z M176,213.2l0.5-1.7l-1.7-0.7l1.1-0.5l1.7,0.6l-0.5,1.7L176,213.2z M178.2,212.1l0.5-1.8
	l-1.7-0.6l1.1-0.6l1.7,0.6l-0.4,1.8L178.2,212.1z M180.4,210.9l0.4-1.8l-1.7-0.6l1-0.6l1.7,0.5l-0.4,1.8L180.4,210.9z M182.6,209.7
	l0.4-1.8l-1.7-0.5l1-0.6l1.7,0.5l-0.3,1.8L182.6,209.7z M184.7,208.4l0.3-1.8l-1.7-0.5l1-0.6l1.7,0.5l-0.3,1.8L184.7,208.4z
	 M186.7,207l0.3-1.8l-1.7-0.4l1-0.7l1.7,0.4l-0.3,1.8L186.7,207z M188.8,205.6l0.3-1.8l-1.7-0.4l1-0.7l1.7,0.4l-0.2,1.8L188.8,205.6
	z M190.8,204.3l0.2-1.8l-1.8-0.4l1-0.7l1.8,0.4l-0.2,1.8L190.8,204.3z M192.8,202.8l0.2-1.8l-1.8-0.4l1-0.7l1.8,0.4l-0.2,1.8
	L192.8,202.8z M194.8,201.4l0.2-1.8l-1.8-0.4l1-0.7l1.8,0.4l-0.2,1.8L194.8,201.4z M196.8,200l0.2-1.8l-1.8-0.4l1-0.7l1.8,0.4
	l-0.2,1.8L196.8,200z M198.8,198.6l0.2-1.8l-1.8-0.4l1-0.7l1.8,0.4l-0.3,1.8L198.8,198.6z M200.8,197.2l0.3-1.8l-1.7-0.4l1-0.7
	l1.7,0.4l-0.3,1.8L200.8,197.2z M202.8,195.9l0.3-1.8l-1.7-0.5l1-0.7l1.7,0.5l-0.3,1.8L202.8,195.9z M204.8,194.6l0.4-1.8l-1.7-0.5
	l1.1-0.6l1.7,0.5l-0.4,1.8L204.8,194.6z M206.9,193.4l0.4-1.7l-1.7-0.6l1.1-0.6l1.7,0.6l-0.5,1.7L206.9,193.4z M209,192.3l0.5-1.7
	l-1.7-0.7l1.1-0.5l1.7,0.7l-0.5,1.7L209,192.3z M211.2,191.3l0.6-1.7l-1.6-0.8l1.2-0.5l1.6,0.8l-0.6,1.7L211.2,191.3z M213.3,190.4
	l0.7-1.6l-1.6-0.9l1.2-0.4l1.6,0.9l-0.8,1.6L213.3,190.4z M215.6,189.7l0.8-1.6l-1.5-1l1.2-0.3l1.5,1l-0.9,1.6L215.6,189.7z
	 M217.8,189.2l0.9-1.5l-1.5-1.1l1.3-0.2l1.4,1.2l-1,1.5L217.8,189.2z M220.1,188.8l1.1-1.4l-1.4-1.2l1.3-0.1l1.3,1.3l-1.1,1.4
	L220.1,188.8z M222.5,188.7l1.2-1.3l-1.2-1.3l1.3,0l1.2,1.4l-1.3,1.2L222.5,188.7z M224.7,188.8l1.3-1.2l-1.1-1.5l1.3,0.2l1,1.6
	l-1.4,1.1L224.7,188.8z M227,189.1l1.5-1l-0.9-1.6l1.3,0.3l0.8,1.7l-1.5,0.9L227,189.1z M229.1,189.8l1.6-0.8l-0.6-1.7l1.2,0.5
	l0.5,1.8l-1.6,0.7L229.1,189.8z M231.2,190.8l1.7-0.6l-0.4-1.8l1.1,0.7l0.3,1.8l-1.7,0.5L231.2,190.8z M233.1,192l1.7-0.4l-0.2-1.8
	l1,0.8l0.1,1.8l-1.8,0.3L233.1,192z M234.9,193.4l1.8-0.2l0-1.8l0.9,0.9l0,1.8l-1.8,0.1L234.9,193.4z M236.6,195l1.8,0l0.1-1.8
	l0.9,0.9l-0.2,1.8l-1.8,0L236.6,195z M238.2,196.8l1.8,0.1l0.2-1.8l0.8,1l-0.3,1.8l-1.8-0.1L238.2,196.8z M239.7,198.6l1.8,0.2
	l0.3-1.8l0.7,1l-0.4,1.8l-1.8-0.2L239.7,198.6z M241.1,200.5l1.8,0.3l0.4-1.8l0.7,1l-0.4,1.8l-1.8-0.3L241.1,200.5z M242.4,202.6
	l1.8,0.3l0.5-1.7l0.7,1.1l-0.5,1.7l-1.8-0.3L242.4,202.6z M243.6,204.6l1.8,0.4l0.5-1.7l0.6,1.1L246,206l-1.7-0.4L243.6,204.6z
	 M244.8,206.7l1.7,0.4l0.6-1.7l0.6,1.1l-0.6,1.7l-1.7-0.4L244.8,206.7z M246,208.8l1.7,0.4l0.6-1.7l0.6,1.1l-0.6,1.7l-1.7-0.5
	L246,208.8z M247.1,211l1.7,0.5l0.6-1.7l0.6,1.1l-0.6,1.7l-1.7-0.5L247.1,211z M248.3,213.1l1.7,0.5l0.6-1.7l0.6,1.1l-0.6,1.7
	l-1.7-0.5L248.3,213.1z M249.4,215.3l1.7,0.5l0.6-1.7l0.6,1.1l-0.6,1.7l-1.7-0.5L249.4,215.3z M250.5,217.5l1.7,0.5l0.6-1.7l0.6,1.1
	l-0.6,1.7l-1.7-0.5L250.5,217.5z M251.6,219.7l1.7,0.5l0.6-1.7l0.6,1.1l-0.6,1.7l-1.7-0.5L251.6,219.7z M252.7,221.9l1.7,0.5
	l0.6-1.7l0.6,1.1l-0.6,1.7l-1.7-0.4L252.7,221.9z M253.9,224l1.7,0.4l0.6-1.7l0.6,1.1l-0.6,1.7l-1.8-0.4L253.9,224z M255.1,226.2
	l1.8,0.4l0.6-1.7l0.6,1.1l-0.5,1.7l-1.8-0.4L255.1,226.2z M256.3,228.3l1.8,0.4l0.5-1.7l0.6,1l-0.5,1.7l-1.8-0.3L256.3,228.3z
	 M257.6,230.5l1.8,0.3l0.5-1.7l0.6,1l-0.4,1.7l-1.8-0.3L257.6,230.5z M258.9,232.6l1.8,0.3l0.4-1.7l0.7,1l-0.4,1.8l-1.8-0.2
	L258.9,232.6z M260.4,234.6l1.8,0.2l0.3-1.8l0.7,1l-0.3,1.8l-1.8-0.1L260.4,234.6z M261.9,236.6l1.8,0.1l0.3-1.8l0.8,0.9l-0.2,1.8
	l-1.8-0.1L261.9,236.6z M263.5,238.5l1.8,0l0.2-1.8l0.8,0.9l-0.1,1.8l-1.8,0.1L263.5,238.5z M265.3,240.3l1.8-0.1l0-1.8l0.9,0.8
	l0,1.8l-1.8,0.2L265.3,240.3z M267.2,242l1.8-0.3l-0.1-1.8l0.9,0.7l0.2,1.8l-1.8,0.3L267.2,242z M269.2,243.6l1.8-0.4l-0.3-1.8
	l1,0.6l0.3,1.7l-1.7,0.5L269.2,243.6z M271.4,245l1.7-0.6l-0.4-1.7l1,0.5l0.5,1.7l-1.7,0.7L271.4,245z M273.7,246.1l1.6-0.8
	l-0.6-1.7l1.1,0.4l0.7,1.6l-1.6,0.9L273.7,246.1z M276.1,247l1.6-1l-0.8-1.6l1.1,0.3l0.9,1.5l-1.5,1L276.1,247z M278.6,247.6
	l1.4-1.1l-1-1.5l1.1,0.2l1,1.4l-1.4,1.2L278.6,247.6z M281.2,247.9l1.3-1.3l-1.1-1.4l1.1,0.1l1.2,1.3l-1.2,1.3L281.2,247.9z
	 M283.8,248l1.2-1.4l-1.2-1.3l1.2,0l1.3,1.3L285,248L283.8,248z M286.2,247.9l1.1-1.4l-1.3-1.3l1.2-0.1l1.3,1.2l-1.1,1.4
	L286.2,247.9z M288.7,247.7l1.1-1.5l-1.3-1.2l1.2-0.1l1.4,1.2l-1,1.5L288.7,247.7z M291.2,247.4l1-1.5l-1.4-1.1l1.2-0.2l1.4,1.1
	l-1,1.5L291.2,247.4z M293.7,247l0.9-1.6l-1.5-1l1.1-0.3l1.5,1l-0.9,1.6L293.7,247z M296.2,246.4l0.8-1.6l-1.5-0.9l1.1-0.3l1.5,0.9
	l-0.8,1.7L296.2,246.4z M298.6,245.7l0.7-1.7l-1.6-0.8l1.1-0.4l1.6,0.8l-0.7,1.7L298.6,245.7z M300.9,244.7l0.6-1.7l-1.6-0.7
	l1.1-0.5l1.6,0.7l-0.5,1.7L300.9,244.7z M303.2,243.7l0.5-1.8l-1.7-0.6l1-0.5l1.7,0.6l-0.4,1.8L303.2,243.7z M305.4,242.5l0.4-1.8
	l-1.7-0.5l1-0.6l1.7,0.5l-0.3,1.8L305.4,242.5z M307.6,241.2l0.3-1.8l-1.7-0.4l1-0.7l1.7,0.4l-0.2,1.8L307.6,241.2z M309.6,239.7
	l0.2-1.8l-1.8-0.3l1-0.7l1.8,0.3l-0.2,1.8L309.6,239.7z M311.6,238.2l0.1-1.8l-1.8-0.3l0.9-0.8l1.8,0.3l-0.1,1.8L311.6,238.2z
	 M313.5,236.6l0.1-1.8l-1.8-0.2l0.9-0.8l1.8,0.2l-0.1,1.8L313.5,236.6z M315.4,235l0.1-1.8l-1.8-0.2l0.9-0.8l1.8,0.2l-0.1,1.8
	L315.4,235z M317.3,233.4l0.1-1.8l-1.8-0.2l0.9-0.8l1.8,0.2l-0.1,1.8L317.3,233.4z M319.1,231.9l0.1-1.8l-1.8-0.2l0.9-0.8l1.8,0.2
	l-0.1,1.8L319.1,231.9z M321,230.3l0.1-1.8l-1.8-0.3l1-0.8l1.8,0.3l-0.1,1.8L321,230.3z M322.8,228.8l0.2-1.8l-1.8-0.3l1-0.7
	l1.8,0.4l-0.2,1.8L322.8,228.8z M324.8,227.4l0.2-1.8l-1.8-0.4l1-0.7l1.8,0.4l-0.3,1.8L324.8,227.4z M326.7,226.1l0.3-1.8l-1.7-0.5
	l1.1-0.7l1.7,0.5l-0.4,1.8L326.7,226.1z M328.8,224.8l0.4-1.7l-1.7-0.6l1.1-0.6l1.7,0.6l-0.5,1.7L328.8,224.8z M330.9,223.7l0.5-1.7
	l-1.7-0.7l1.1-0.5l1.7,0.7l-0.5,1.7L330.9,223.7z M333,222.7l0.6-1.7l-1.6-0.8l1.2-0.5l1.6,0.8l-0.6,1.7L333,222.7z M335.2,221.8
	l0.7-1.7l-1.6-0.8l1.2-0.4l1.6,0.9l-0.7,1.6L335.2,221.8z M337.4,221.1l0.8-1.6l-1.6-0.9l1.2-0.4l1.5,1l-0.8,1.6L337.4,221.1z
	 M339.7,220.4l0.9-1.6l-1.5-1l1.2-0.3l1.5,1l-0.9,1.6L339.7,220.4z M342,219.9l0.9-1.5l-1.5-1.1l1.2-0.2l1.4,1.1l-1,1.5L342,219.9z
	 M344.4,219.5l1-1.5l-1.4-1.1l1.2-0.2l1.4,1.2l-1,1.5L344.4,219.5z M346.7,219.1l1.1-1.5l-1.4-1.2l1.2-0.1l1.3,1.2l-1.1,1.4
	L346.7,219.1z M349.1,218.9l1.1-1.4l-1.3-1.2l1.2-0.1l1.3,1.3l-1.1,1.4L349.1,218.9z M351.5,218.7l1.2-1.4l-1.3-1.3l1.2,0l1.3,1.3
	l-1.2,1.4L351.5,218.7z M353.9,218.7l1.2-1.3l-1.2-1.3l1.2,0l1.2,1.3l-1.2,1.3L353.9,218.7z M356.3,218.7l1.2-1.3l-1.2-1.3h1.2
	l1.2,1.3l-1.2,1.3H356.3z M358.8,218.7l1.2-1.3l-1.2-1.3h1.2l1.2,1.3l-1.2,1.3H358.8z M361.2,218.7l1.2-1.3l-1.2-1.3h1.2l1.2,1.3
	l-1.2,1.3H361.2z M363.7,218.7l1.2-1.3l-1.2-1.3h1.2l1.2,1.3l-1.2,1.3H363.7z M366.1,218.7l1.2-1.3l-1.2-1.3h1.2l1.2,1.3l-1.2,1.3
	H366.1z M368.5,218.7l1.2-1.3l-1.2-1.3h1.2l1.2,1.3l-1.2,1.3H368.5z M371,218.7l1.2-1.3L371,216h1.2l1.2,1.3l-1.2,1.3H371z
	 M373.4,218.7l1.2-1.3l-1.2-1.3h1.2l1.2,1.3l-1.2,1.3H373.4z M375.8,218.7l1.2-1.3l-1.2-1.3h1.2l1.2,1.3l-1.2,1.3H375.8z
	 M378.3,218.7l1.2-1.3l-1.2-1.3h1.2l1.2,1.3l-1.2,1.3H378.3z M380.7,218.7l1.2-1.3l-1.2-1.3h1.2l1.2,1.3l-1.2,1.3H380.7z
	 M383.2,218.7l1.2-1.3l-1.2-1.3h1.2l1.2,1.3l-1.2,1.3H383.2z M385.6,218.7l1.2-1.3l-1.2-1.3h1.2l1.2,1.3l-1.2,1.3H385.6z M388,218.7
	l1.2-1.3L388,216h1.2l1.2,1.3l-1.2,1.3H388z M390.5,218.7l1.2-1.3l-1.2-1.3h1.2l1.2,1.3l-1.2,1.3H390.5z M392.9,218.7l1.2-1.3
	l-1.2-1.3h1.2l1.2,1.3l-1.2,1.3H392.9z M395.4,218.7l1.2-1.3l-1.2-1.3h1.2l1.2,1.3l-1.2,1.3H395.4z M397.8,218.7l1.2-1.3l-1.2-1.3
	h1.2l1.2,1.3l-1.2,1.3H397.8z M400.2,218.7l1.2-1.3l-1.2-1.3h1.2l1.2,1.3l-1.2,1.3H400.2z M402.7,218.7l1.2-1.3l-1.2-1.3h1.2
	l1.2,1.3l-1.2,1.3H402.7z M405.1,218.7l1.2-1.3l-1.2-1.3h1.2l1.2,1.3l-1.2,1.3H405.1z M407.6,218.7l1.2-1.3l-1.2-1.3h1.2l1.2,1.3
	l-1.2,1.3H407.6z M410,218.7l1.2-1.3L410,216h1.2l1.2,1.3l-1.2,1.3H410z M412.4,218.7l1.2-1.3l-1.2-1.3h1.2l1.2,1.3l-1.2,1.3H412.4z
	 M414.9,218.7l1.2-1.3l-1.2-1.3h1.2l1.2,1.3l-1.2,1.3H414.9z M417.3,218.7l1.2-1.3l-1.2-1.3h1.2l1.2,1.3l-1.2,1.3H417.3z
	 M419.8,218.7l1.2-1.3l-1.2-1.3h1.2l1.2,1.3l-1.2,1.3H419.8z M422.2,218.7l1.2-1.3l-1.2-1.3h1.2l1.2,1.3l-1.2,1.3H422.2z
	 M424.6,218.7l1.2-1.3l-1.2-1.3h1.2l1.2,1.3l-1.2,1.3H424.6z M427.1,218.7l1.2-1.3l-1.2-1.3h1.2l1.2,1.3l-1.2,1.3H427.1z"/>
<path fill="#19AFE6" d="M12.1,30.6c7.3,5,12.1,14.3,12.1,24.9c0,10.6-4.9,19.9-12.1,24.9c0,0-5.3-2-12.1-4.7
	c8.9,0,16.1-9.7,16.1-20.3c0-10.6-7.2-20.3-16.1-20.3C5.3,33.3,12.1,30.6,12.1,30.6z M94.2,55.5c0,18.9-4.2,36.6-11.6,51.9L91,111
	c7.6-16.5,12-35.4,12-55.5S98.6,16.5,91,0l-8.4,3.6C89.9,18.9,94.2,36.6,94.2,55.5z M33.1,22l-8.3,3.5c6.7,7.6,10.8,18.2,10.8,30
	c0,11.8-4.2,22.4-10.8,30l8.3,3.5c6.6-9,10.6-20.7,10.6-33.5C43.6,42.7,39.6,31,33.1,22z M51.8,14.3l-7.9,3.3
	c6.6,10.6,10.6,23.7,10.6,37.8c0,14.2-3.9,27.3-10.6,37.8l7.9,3.3c6.8-11.7,10.7-25.9,10.7-41.2C62.5,40.2,58.5,26.1,51.8,14.3z
	 M70.6,7.2l-7.8,3.3c7,13,11,28.5,11,45c0,16.6-4,32-11,45l7.8,3.3c7.2-14.1,11.3-30.7,11.3-48.3C81.9,37.8,77.8,21.3,70.6,7.2z"/>
<path fill="#EB6D9A" d="M12.1,141.6c7.3,5,12.1,14.3,12.1,24.9c0,10.6-4.9,19.9-12.1,24.9c0,0-5.3-2-12.1-4.7
	c8.9,0,16.1-9.7,16.1-20.3c0-10.6-7.2-20.3-16.1-20.3C5.3,144.3,12.1,141.6,12.1,141.6z M94.2,166.5c0,18.9-4.2,36.6-11.6,51.9
	L91,222c7.6-16.5,12-35.4,12-55.5s-4.4-39-12-55.5l-8.4,3.6C89.9,129.9,94.2,147.6,94.2,166.5z M33.1,133l-8.3,3.5
	c6.7,7.6,10.8,18.2,10.8,30c0,11.8-4.2,22.4-10.8,30l8.3,3.5c6.6-9,10.6-20.7,10.6-33.5C43.6,153.7,39.6,142,33.1,133z M51.8,125.3
	l-7.9,3.3c6.6,10.6,10.6,23.7,10.6,37.8c0,14.2-3.9,27.3-10.6,37.8l7.9,3.3c6.8-11.7,10.7-25.9,10.7-41.2
	C62.5,151.2,58.5,137.1,51.8,125.3z M70.6,118.2l-7.8,3.3c7,13,11,28.5,11,45c0,16.6-4,32-11,45l7.8,3.3
	c7.2-14.1,11.3-30.7,11.3-48.3C81.9,148.8,77.8,132.3,70.6,118.2z"/>
<path fill="#A6D8EB" d="M2.5,249l2.5,2.5L2.5,254H0l2.5-2.5L0,249H2.5z"/>
<path fill="#FDE900" d="M183.2,248l2.8,3l-2.8,3h-2.8l2.8-3l-2.8-3H183.2z M180.9,251l-2-2.1H6v4.1h173.2L180.9,251z"/>
<path fill="#19AFE6" d="M464,0c0,0.3,0,0.7,0,1c0,100.5-80.6,183-180,183S104,101.5,104,1c0-0.3,0-0.7,0-1h1.5c0,0.3,0,0.7,0,1
	c0,99.7,79.9,181.5,178.5,181.5S462.5,100.7,462.5,1c0-0.3,0-0.7,0-1H464z"/>
<path fill="#19AFE6" d="M646.7,75.8c-0.5,1.4-0.9,2.8-1.3,4.2l-16.8-0.6c0.6-2.9,1.4-5.8,2.5-8.7c2.1-5.9,5-11.2,8.4-16l16.4,5.9
	C652,64.9,648.8,70.1,646.7,75.8z M580.6,33.5l-15.6-5.6c-2.9,5.8-5.5,11.8-7.8,18.1c-3.7,10.1-6.2,20.4-7.8,30.5l16.7,0.6
	c1.4-8.6,3.6-17.3,6.7-25.9C575.1,45,577.7,39.1,580.6,33.5z M617.2,46.6L601.5,41c-3,5.4-5.6,11.1-7.8,17.1
	c-2.4,6.6-4.1,13.2-5.2,19.8l16.7,0.6c0.9-5.1,2.3-10.1,4.1-15.2C611.4,57.4,614.1,51.8,617.2,46.6z M543.2,20.1l-15.5-5.6
	c-2.9,6.1-5.5,12.4-7.9,18.9c-5,13.8-8.4,27.7-10.4,41.5l16.7,0.6c1.8-12.3,4.8-24.7,9.3-36.9C537.7,32.3,540.4,26.1,543.2,20.1z
	 M504.2,6.1l-17-6.1c-2.9,6.5-5.6,13.1-8.1,19.9c-6.4,17.8-10.8,35.8-13.1,53.5l18.3,0.7c2.2-16.1,6.1-32.4,11.9-48.5
	C498.6,18.9,501.3,12.4,504.2,6.1z"/>
<path fill="#EB6D9A" d="M646.7,155.8c-0.5,1.4-0.9,2.8-1.3,4.2l-16.8-0.6c0.6-2.9,1.4-5.8,2.5-8.7c2.1-5.9,5-11.2,8.4-16l16.4,5.9
	C652,144.9,648.8,150.1,646.7,155.8z M580.6,113.5l-15.6-5.6c-2.9,5.8-5.5,11.8-7.8,18.1c-3.7,10.1-6.2,20.4-7.8,30.5l16.7,0.6
	c1.4-8.6,3.6-17.3,6.7-25.9C575.1,125,577.7,119.1,580.6,113.5z M617.2,126.6l-15.8-5.6c-3,5.4-5.6,11.1-7.8,17.1
	c-2.4,6.6-4.1,13.2-5.2,19.8l16.7,0.6c0.9-5.1,2.3-10.1,4.1-15.2C611.4,137.4,614.1,131.8,617.2,126.6z M543.2,100.1l-15.5-5.6
	c-2.9,6.1-5.5,12.4-7.9,18.9c-5,13.8-8.4,27.7-10.4,41.5l16.7,0.6c1.8-12.3,4.8-24.7,9.3-36.9C537.7,112.3,540.4,106.1,543.2,100.1z
	 M504.2,86.1l-17-6.1c-2.9,6.5-5.6,13.1-8.1,19.9c-6.4,17.8-10.8,35.8-13.1,53.5l18.3,0.7c2.2-16.1,6.1-32.4,11.9-48.5
	C498.6,98.9,501.3,92.4,504.2,86.1z"/>
<path fill="#A6D8EB" d="M509,245.9l-1.8,4l1.9,4l-2.2,0l-1.9-4l1.8-4L509,245.9 M513.2,245.8l-2,0.1l-1.7,4l2,4l2.4-0.1l-2.1-3.9
	L513.2,245.8 M517.3,245.3l-2,0.3l-1.4,4.2l2.3,3.8l2.3-0.3l-2.5-3.7L517.3,245.3 M521.3,244.5l-2,0.4l-1,4.3l2.6,3.6l2.3-0.5
	l-2.8-3.5L521.3,244.5 M525.3,243.4l-1.9,0.6l-0.7,4.4l2.9,3.4l2.2-0.7l-3-3.3L525.3,243.4 M529.1,241.9l-1.9,0.8l-0.3,4.4l3.2,3.2
	l2.2-0.9l-3.3-3L529.1,241.9 M532.9,240.1l-1.8,0.9l0,4.4l3.4,2.9l2.1-1l-3.5-2.8L532.9,240.1 M536.5,238.1l-1.8,1l0.4,4.4l3.6,2.6
	l2-1.2l-3.7-2.5L536.5,238.1 M540,235.8l-1.7,1.2l0.7,4.4l3.8,2.4l1.9-1.3l-3.9-2.3L540,235.8 M543.4,233.2l-1.6,1.3l0.9,4.3
	l3.9,2.1l1.8-1.4l-4-2L543.4,233.2 M546.7,230.5l-1.6,1.4l1.2,4.3l4,1.9l1.7-1.5l-4.1-1.9L546.7,230.5 M549.9,227.6l-1.6,1.4
	l1.3,4.2l4.1,1.8l1.7-1.5l-4.1-1.7L549.9,227.6 M553,224.6l-1.5,1.5l1.5,4.2l4.2,1.6l1.6-1.6l-4.2-1.6L553,224.6 M556,221.5
	l-1.5,1.5l1.6,4.1l4.2,1.5l1.5-1.6l-4.2-1.5L556,221.5 M559.1,218.3l-1.5,1.6l1.7,4.1l4.2,1.4l1.5-1.6l-4.2-1.4L559.1,218.3
	 M562.1,215.1l-1.5,1.6l1.7,4.1l4.2,1.4l1.5-1.6l-4.2-1.4L562.1,215.1 M565.1,211.8l-1.5,1.6l1.7,4.1l4.2,1.4l1.5-1.6l-4.2-1.4
	L565.1,211.8 M568.1,208.5l-1.5,1.6l1.7,4.1l4.2,1.4l1.5-1.6l-4.2-1.4L568.1,208.5 M571.1,205.2l-1.5,1.6l1.7,4.1l4.2,1.4l1.5-1.6
	l-4.2-1.4L571.1,205.2 M574.2,201.9l-1.5,1.6l1.7,4.1l4.2,1.4l1.5-1.6l-4.2-1.5L574.2,201.9 M577.4,198.7l-1.6,1.6l1.6,4.2l4.2,1.5
	l1.5-1.5l-4.2-1.5L577.4,198.7 M580.6,195.5l-1.6,1.6l1.5,4.2l4.1,1.6l1.5-1.5l-4.1-1.6L580.6,195.5 M584,192.4l-1.7,1.5l1.4,4.2
	l4.1,1.7l1.6-1.4l-4.1-1.8L584,192.4 M587.5,189.4l-1.7,1.5l1.3,4.3l4,1.8l1.6-1.4l-4-1.9L587.5,189.4 M591,186.5l-1.8,1.4l1.1,4.3
	l4,2l1.7-1.3l-3.9-2L591,186.5 M594.7,183.7l-1.8,1.3l0.9,4.4l3.9,2.1l1.7-1.2l-3.8-2.2L594.7,183.7 M598.6,181.1l-1.9,1.3l0.8,4.4
	l3.8,2.3l1.7-1.2l-3.7-2.4L598.6,181.1 M602.5,178.7l-2,1.2l0.6,4.4l3.7,2.5l1.8-1.1l-3.6-2.5L602.5,178.7 M606.6,176.4l-2,1.1
	l0.3,4.5l3.6,2.6l1.8-1l-3.5-2.7L606.6,176.4 M610.8,174.4l-2.1,1l0.1,4.5l3.4,2.8l1.9-0.9l-3.3-2.9L610.8,174.4 M615.1,172.6
	l-2.1,0.9l-0.1,4.5l3.3,3l1.9-0.8l-3.2-3.1L615.1,172.6 M619.5,171l-2.2,0.7l-0.4,4.4l3.1,3.2l2-0.7l-3-3.2L619.5,171 M623.9,169.6
	l-2.2,0.6l-0.6,4.4l2.9,3.3l2-0.6l-2.9-3.4L623.9,169.6 M628.5,168.5l-2.2,0.5l-0.8,4.4l2.8,3.5l2-0.5l-2.7-3.5L628.5,168.5
	 M633,167.6l-2.2,0.4l-1,4.3l2.6,3.6l2.1-0.4l-2.5-3.6L633,167.6 M637.6,166.9l-2.3,0.3l-1.2,4.3l2.4,3.7l2.1-0.3l-2.4-3.8
	L637.6,166.9 M642.2,166.4l-2.3,0.2l-1.4,4.2l2.3,3.8l2.1-0.2l-2.2-3.9L642.2,166.4 M646.9,166.1l-2.3,0.1l-1.6,4.2l2.1,3.9l2-0.1
	l-1.9-3.9L646.9,166.1 M651.5,166l-2.2,0l-1.8,4.1l1.9,4l2.2,0l-1.9-4L651.5,166 M655.9,166l-2.2,0l-1.8,4.1l1.9,4l2.2,0l-1.9-4
	L655.9,166"/>
</svg>
