<?xml version="1.0" encoding="utf-8"?>
<!-- Generator: Adobe Illustrator 19.1.0, SVG Export Plug-In . SVG Version: 6.00 Build 0)  -->
<!DOCTYPE svg PUBLIC "-//W3C//DTD SVG 1.1//EN" "http://www.w3.org/Graphics/SVG/1.1/DTD/svg11.dtd">
<svg version="1.1" id="Layer_1" xmlns="http://www.w3.org/2000/svg" xmlns:xlink="http://www.w3.org/1999/xlink" x="0px" y="0px"
	 viewBox="-387 292.7 52 11.6" style="enable-background:new -387 292.7 52 11.6;" xml:space="preserve">
<style type="text/css">
	.st0{fill:#2B2B2B;}
	.st1{fill:#FFFFFE;}
</style>
<g>
	<path class="st0" d="M-387,304.1v-10.4h2v8.8h4.4v1.7H-387z"/>
	<path class="st0" d="M-374.9,304.1v-0.5c-0.5,0.3-1.4,0.7-2.5,0.7c-1.5,0-2.3-0.7-2.3-2.3v-0.3c0-2.1,1.5-2.4,3.7-2.4h0.9v-0.5
		c0-1.1-0.2-1.3-1.6-1.3c-0.8,0-1.6,0.1-2.5,0.2v-1.2c0.3-0.1,1.5-0.4,2.8-0.4c2.5,0,3.2,0.9,3.2,2.9v5.2H-374.9z M-377.2,295.1
		h-1.6v-1.7h1.6V295.1z M-375,300.5h-1c-1.4,0-1.9,0.2-1.9,1.2v0.3c0,0.7,0.4,0.9,1.1,0.9c0.8,0,1.5-0.3,1.8-0.5V300.5z
		 M-375.3,295.1v-1.7h1.5v1.7H-375.3z"/>
	<path class="st0" d="M-368.9,304.3c-1.1,0-2.3-0.2-2.7-0.3v-1.3c0.4,0,1.6,0.2,2.6,0.2c1.1,0,1.5-0.3,1.5-0.8
		c0-0.5-0.2-0.7-1.4-1.1l-0.6-0.2c-1.5-0.6-2.2-1.3-2.2-2.5c0-1.6,1.1-2.1,3.2-2.1c0.9,0,2.1,0.2,2.5,0.3v1.3
		c-0.9-0.1-1.8-0.1-2.4-0.1c-1,0-1.4,0.1-1.4,0.6c0,0.5,0.3,0.6,1.2,1l0.6,0.3c1.7,0.7,2.3,1.2,2.3,2.5
		C-365.7,303.4-366.7,304.3-368.9,304.3z"/>
	<path class="st0" d="M-352.7,304.1v-5.2c0-0.9,0-1.4-1-1.4c-0.4,0-1.1,0.2-1.6,0.5c0,0.3,0,0.6,0,0.9v5.2h-1.9v-5.2
		c0-0.9,0-1.4-0.9-1.4c-0.6,0-1.2,0.3-1.7,0.5v6h-1.8v-7.9h1.8v0.6c0.6-0.5,1.5-0.8,2.4-0.8c0.9,0,1.5,0.3,1.8,0.9
		c0.9-0.6,1.7-0.9,2.5-0.9c2.2,0,2.4,1.5,2.4,2.9v5.2H-352.7z"/>
	<path class="st0" d="M-347.4,300.7v0.1c0,1.1,0.2,1.9,2.1,1.9c0.8,0,1.8-0.1,2.8-0.2v1.4c-0.6,0.1-1.6,0.3-2.9,0.3
		c-2.8,0-3.9-1.1-3.9-3.9v-0.5c0-2.7,1.2-3.9,3.6-3.9c2.6,0,3.6,1.7,3.6,4.1v0.6H-347.4z M-343.9,299.4c0-0.9-0.2-1.9-1.7-1.9
		c-1.5,0-1.7,1-1.7,1.9v0.1h3.4V299.4z"/>
	<path class="st0" d="M-338.6,298.2v5.9h-1.8v-7.9h1.8v0.6c0.7-0.7,1.7-0.8,2.7-0.8v1.7C-337,297.7-338,297.9-338.6,298.2z"/>
</g>
<g>
	<path class="st1" d="M-386,303.4V293h2v8.8h4.4v1.7H-386z"/>
	<path class="st1" d="M-373.9,303.4v-0.5c-0.5,0.3-1.4,0.7-2.5,0.7c-1.5,0-2.3-0.7-2.3-2.3v-0.3c0-2.1,1.5-2.4,3.7-2.4h0.9v-0.5
		c0-1.1-0.2-1.3-1.6-1.3c-0.8,0-1.6,0.1-2.5,0.2v-1.2c0.3-0.1,1.5-0.4,2.8-0.4c2.5,0,3.2,0.9,3.2,2.9v5.2H-373.9z M-376.2,294.4
		h-1.6v-1.7h1.6V294.4z M-374,299.8h-1c-1.4,0-1.9,0.2-1.9,1.2v0.3c0,0.7,0.4,0.9,1.1,0.9c0.8,0,1.5-0.3,1.8-0.5V299.8z
		 M-374.3,294.4v-1.7h1.5v1.7H-374.3z"/>
	<path class="st1" d="M-367.9,303.6c-1.1,0-2.3-0.2-2.7-0.3V302c0.4,0,1.6,0.2,2.6,0.2c1.1,0,1.5-0.3,1.5-0.8c0-0.5-0.2-0.7-1.4-1.1
		l-0.6-0.2c-1.5-0.6-2.2-1.3-2.2-2.5c0-1.6,1.1-2.1,3.2-2.1c0.9,0,2.1,0.2,2.5,0.3v1.3c-0.9-0.1-1.8-0.1-2.4-0.1
		c-1,0-1.4,0.1-1.4,0.6c0,0.5,0.3,0.6,1.2,1l0.6,0.3c1.7,0.7,2.3,1.2,2.3,2.5C-364.7,302.7-365.7,303.6-367.9,303.6z"/>
	<path class="st1" d="M-351.7,303.4v-5.2c0-0.9,0-1.4-1-1.4c-0.4,0-1.1,0.2-1.6,0.5c0,0.3,0,0.6,0,0.9v5.2h-1.9v-5.2
		c0-0.9,0-1.4-0.9-1.4c-0.6,0-1.2,0.3-1.7,0.5v6h-1.8v-7.9h1.8v0.6c0.6-0.5,1.5-0.8,2.4-0.8c0.9,0,1.5,0.3,1.8,0.9
		c0.9-0.6,1.7-0.9,2.5-0.9c2.2,0,2.4,1.5,2.4,2.9v5.2H-351.7z"/>
	<path class="st1" d="M-346.4,300.1v0.1c0,1.1,0.2,1.9,2.1,1.9c0.8,0,1.8-0.1,2.8-0.2v1.4c-0.6,0.1-1.6,0.3-2.9,0.3
		c-2.8,0-3.9-1.1-3.9-3.9v-0.5c0-2.7,1.2-3.9,3.6-3.9c2.6,0,3.6,1.7,3.6,4.1v0.6H-346.4z M-342.9,298.7c0-0.9-0.2-1.9-1.7-1.9
		c-1.5,0-1.7,1-1.7,1.9v0.1h3.4V298.7z"/>
	<path class="st1" d="M-337.6,297.5v5.9h-1.8v-7.9h1.8v0.6c0.7-0.7,1.7-0.8,2.7-0.8v1.7C-336,297-337,297.2-337.6,297.5z"/>
</g>
</svg>
