<?xml version="1.0" encoding="utf-8"?>
<!-- Generator: Adobe Illustrator 17.0.0, SVG Export Plug-In . SVG Version: 6.00 Build 0)  -->
<!DOCTYPE svg PUBLIC "-//W3C//DTD SVG 1.1//EN" "http://www.w3.org/Graphics/SVG/1.1/DTD/svg11.dtd">
<svg version="1.1" id="Layer_2" xmlns="http://www.w3.org/2000/svg" xmlns:xlink="http://www.w3.org/1999/xlink" x="0px" y="0px"
	 width="728px" height="90px" viewBox="0 0 728 90" enable-background="new 0 0 728 90" xml:space="preserve">
<g>
	<path fill="#FFFFFF" d="M66.423,61.506c0.704,0.427,1.598,0.742,2.703,0.742c1.384,0,2.276-0.44,2.276-1.32
		c0-1.484-3.093-0.78-4.577-1.861c-0.465-0.339-0.754-0.842-0.754-1.635c0-1.634,1.357-2.439,3.231-2.439
		c1.27,0,2.477,0.365,3.256,0.817l-0.515,1.056c-0.68-0.34-1.66-0.654-2.653-0.654c-1.446,0-1.924,0.566-1.924,1.144
		c0,2.049,5.331,0.201,5.331,3.508c0,1.823-1.772,2.603-3.684,2.603c-1.371,0-2.49-0.364-3.295-0.893L66.423,61.506z"/>
	<path fill="#FFFFFF" d="M76.138,56.25h-3.081v-1.194h7.494v1.194h-3.08v7.091h-1.333V56.25z"/>
	<path fill="#FFFFFF" d="M83.766,55.018h0.931l4.25,8.324h-1.471l-1.183-2.351h-4.035l-1.119,2.351h-1.472L83.766,55.018z
		 M85.69,59.796l-1.458-2.905h-0.025l-1.383,2.905H85.69z"/>
	<path fill="#FFFFFF" d="M90.149,55.056h1.043l5.973,5.997h0.025v-5.997h1.332v8.286h-0.955l-6.061-6.085h-0.025v6.085h-1.332
		V55.056z"/>
	<path fill="#FFFFFF" d="M100.781,55.056h3.105c0.779,0,1.434,0.062,2.024,0.201c1.924,0.465,3.193,1.71,3.193,3.81
		c0,2.112-1.308,3.458-3.307,4.011c-0.679,0.188-1.434,0.264-2.364,0.264h-2.652V55.056z M103.409,62.147
		c0.816,0,1.496-0.076,2.074-0.239c1.383-0.402,2.226-1.308,2.226-2.842c0-1.546-0.893-2.313-2.15-2.641
		c-0.528-0.138-1.119-0.176-1.835-0.176h-1.609v5.897H103.409z"/>
	<path fill="#FFFFFF" d="M113.965,55.018h0.93l4.25,8.324h-1.471l-1.183-2.351h-4.036l-1.118,2.351h-1.472L113.965,55.018z
		 M115.888,59.796l-1.458-2.905h-0.025l-1.383,2.905H115.888z"/>
	<path fill="#FFFFFF" d="M120.347,55.056h2.477c0.629,0,1.194,0.038,1.673,0.163c1.081,0.29,1.948,0.994,1.948,2.301
		c0,1.42-1.019,2.137-2.376,2.364v0.025c0.54,0.302,0.88,1.408,1.546,1.949c0.252,0.201,0.528,0.327,0.881,0.327
		c0.15,0,0.39-0.025,0.578-0.075l0.276,1.131c-0.238,0.101-0.653,0.164-1.043,0.164c-0.629,0-1.119-0.227-1.521-0.553
		c-1.145-0.931-1.585-2.716-2.427-2.716h-0.679v3.206h-1.333V55.056z M122.686,58.94c0.54,0,0.968-0.025,1.307-0.125
		c0.642-0.188,1.057-0.591,1.057-1.27c0-0.628-0.402-1.031-0.943-1.182c-0.352-0.101-0.729-0.113-1.257-0.113h-1.169v2.69H122.686z"
		/>
	<path fill="#FFFFFF" d="M128.528,55.056h3.105c0.779,0,1.434,0.062,2.024,0.201c1.924,0.465,3.193,1.71,3.193,3.81
		c0,2.112-1.308,3.458-3.307,4.011c-0.679,0.188-1.434,0.264-2.364,0.264h-2.652V55.056z M131.156,62.147
		c0.817,0,1.496-0.076,2.074-0.239c1.383-0.402,2.226-1.308,2.226-2.842c0-1.546-0.893-2.313-2.15-2.641
		c-0.527-0.138-1.119-0.176-1.836-0.176h-1.609v5.897H131.156z"/>
	<path fill="#FFFFFF" d="M141.661,55.056h2.451c0.616,0,1.132,0.025,1.622,0.151c1.094,0.289,2.075,1.006,2.075,2.502
		c0,1.609-1.17,2.389-2.339,2.628c-0.44,0.088-0.893,0.125-1.521,0.125h-0.956v2.879h-1.332V55.056z M143.999,59.268
		c0.491,0,0.868-0.013,1.195-0.088c0.679-0.164,1.219-0.591,1.219-1.434c0-0.817-0.452-1.207-1.043-1.383
		c-0.377-0.113-0.817-0.113-1.358-0.113h-1.019v3.018H143.999z"/>
	<path fill="#FFFFFF" d="M149.541,55.056h2.477c0.629,0,1.194,0.038,1.673,0.163c1.081,0.29,1.948,0.994,1.948,2.301
		c0,1.42-1.019,2.137-2.376,2.364v0.025c0.54,0.302,0.88,1.408,1.546,1.949c0.252,0.201,0.528,0.327,0.881,0.327
		c0.15,0,0.39-0.025,0.578-0.075l0.276,1.131c-0.238,0.101-0.653,0.164-1.043,0.164c-0.629,0-1.119-0.227-1.521-0.553
		c-1.145-0.931-1.585-2.716-2.427-2.716h-0.679v3.206h-1.333V55.056z M151.88,58.94c0.54,0,0.968-0.025,1.307-0.125
		c0.642-0.188,1.057-0.591,1.057-1.27c0-0.628-0.402-1.031-0.943-1.182c-0.352-0.101-0.729-0.113-1.257-0.113h-1.169v2.69H151.88z"
		/>
	<path fill="#FFFFFF" d="M157.721,55.056h5.909v1.194h-4.577v2.288h4.149v1.195h-4.149v2.414h4.652v1.194h-5.984V55.056z"/>
	<path fill="#FFFFFF" d="M165.589,55.056h1.068l3.722,4.476h0.025l3.722-4.476h1.043v8.286h-1.332v-5.947h-0.025l-3.345,4.023
		h-0.176l-3.345-4.023h-0.025v5.947h-1.332V55.056z"/>
	<path fill="#FFFFFF" d="M177.426,55.056h1.332v8.286h-1.332V55.056z"/>
	<path fill="#FFFFFF" d="M181.02,55.056h5.909v1.194h-4.577v2.288h4.149v1.195h-4.149v2.414h4.652v1.194h-5.984V55.056z"/>
	<path fill="#FFFFFF" d="M188.887,55.056h2.477c0.629,0,1.194,0.038,1.672,0.163c1.082,0.29,1.949,0.994,1.949,2.301
		c0,1.42-1.019,2.137-2.376,2.364v0.025c0.54,0.302,0.88,1.408,1.546,1.949c0.252,0.201,0.528,0.327,0.881,0.327
		c0.15,0,0.39-0.025,0.578-0.075l0.276,1.131c-0.239,0.101-0.653,0.164-1.044,0.164c-0.628,0-1.118-0.227-1.521-0.553
		c-1.145-0.931-1.585-2.716-2.427-2.716h-0.68v3.206h-1.332V55.056z M191.225,58.94c0.541,0,0.969-0.025,1.309-0.125
		c0.641-0.188,1.056-0.591,1.056-1.27c0-0.628-0.402-1.031-0.943-1.182c-0.352-0.101-0.729-0.113-1.257-0.113h-1.17v2.69H191.225z"
		/>
</g>
</svg>
