<?xml version="1.0" encoding="utf-8"?>
<!-- Generator: Adobe Illustrator 17.0.0, SVG Export Plug-In . SVG Version: 6.00 Build 0)  -->
<!DOCTYPE svg PUBLIC "-//W3C//DTD SVG 1.1//EN" "http://www.w3.org/Graphics/SVG/1.1/DTD/svg11.dtd">
<svg version="1.1" id="Layer_2" xmlns="http://www.w3.org/2000/svg" xmlns:xlink="http://www.w3.org/1999/xlink" x="0px" y="0px"
	 width="728px" height="90px" viewBox="0 0 728 90" enable-background="new 0 0 728 90" xml:space="preserve">
<g>
	<path fill="#FFFFFF" d="M38.153,52.714h3.875c0.697,0,1.258,0.051,1.768,0.188c1.445,0.356,2.346,1.207,2.346,2.686
		c0,1.139-0.629,2.006-1.683,2.414v0.033c0.374,0.034,0.748,0.137,1.104,0.307c0.885,0.425,1.463,1.274,1.463,2.328
		c0,1.462-0.851,2.482-2.312,2.941c-0.714,0.221-1.513,0.306-2.481,0.306h-4.079V52.714z M41.756,57.643
		c0.696,0,1.172-0.051,1.563-0.187c0.952-0.272,1.495-0.918,1.495-1.785c0-0.952-0.543-1.479-1.376-1.7
		c-0.408-0.102-0.851-0.136-1.496-0.136h-2.532v3.808H41.756z M42.215,62.794c0.799,0,1.444-0.067,1.971-0.221
		c0.901-0.289,1.514-0.901,1.514-1.904c0-0.73-0.374-1.274-1.055-1.58c-0.51-0.238-1.172-0.34-2.073-0.34h-3.161v4.045H42.215z"/>
	<path fill="#FFFFFF" d="M52.465,59.53l-4.878-6.816h1.444l4.08,5.661h0.033l3.928-5.661h1.428l-4.777,6.816v4.386h-1.258V59.53z"/>
	<path fill="#FFFFFF" d="M64.723,52.714h1.258v4.947h7.496v-4.947h1.258v11.202h-1.258v-5.134h-7.496v5.134h-1.258V52.714z"/>
	<path fill="#FFFFFF" d="M78.374,52.714h1.26v11.202h-1.26V52.714z"/>
	<path fill="#FFFFFF" d="M89.356,52.629c1.598,0,3.109,0.323,4.471,0.884l-0.393,1.071c-1.154-0.51-2.549-0.833-4.027-0.833
		c-3.4,0-5.457,1.955-5.457,4.641c0,2.805,1.818,4.572,5.541,4.572c0.986,0,2.381-0.204,3.332-0.578v-3.229h-4.164v-1.122h5.422v5.1
		c-0.936,0.477-2.924,0.952-4.691,0.952c-4.521,0-6.766-2.295-6.766-5.626C82.624,55.111,85.19,52.629,89.356,52.629z"/>
	<path fill="#FFFFFF" d="M97.549,52.714h1.258v4.947h7.496v-4.947h1.258v11.202h-1.258v-5.134h-7.496v5.134h-1.258V52.714z"/>
	<path fill="#FFFFFF" d="M110.862,59.037h4.879v1.105h-4.879V59.037z"/>
	<path fill="#FFFFFF" d="M117.866,61.876c0.9,0.68,2.158,1.088,3.688,1.088c1.904,0,3.484-0.696,3.484-2.243
		c0-2.397-4.572-1.343-6.51-2.941c-0.543-0.441-0.885-1.054-0.885-2.006c0-2.022,1.752-3.145,4.301-3.145
		c1.701,0,3.264,0.51,4.098,1.071l-0.527,0.969c-0.73-0.442-2.039-0.918-3.484-0.918c-2.193,0-3.061,0.935-3.061,1.955
		c0,3.28,7.395,0.595,7.395,4.997c0,2.295-2.244,3.383-4.811,3.383c-1.904,0-3.398-0.527-4.316-1.241L117.866,61.876z"/>
	<path fill="#FFFFFF" d="M129.424,52.714h3.195c1.07,0,1.904,0.103,2.602,0.374c1.309,0.459,2.244,1.428,2.244,3.094
		c0,1.853-1.156,2.94-2.754,3.366c-0.646,0.17-1.377,0.255-2.5,0.255h-1.529v4.113h-1.258V52.714z M132.229,58.697
		c0.936,0,1.615-0.051,2.143-0.204c1.121-0.34,1.768-1.07,1.768-2.261c0-1.104-0.527-1.75-1.377-2.091
		c-0.596-0.237-1.309-0.306-2.33-0.306h-1.75v4.861H132.229z"/>
	<path fill="#FFFFFF" d="M140.235,52.714h7.719v1.122h-6.459v3.808h5.83v1.105h-5.83v4.045h6.561v1.122h-7.82V52.714z"/>
	<path fill="#FFFFFF" d="M150.878,52.714h7.717v1.122h-6.459v3.808h5.83v1.105h-5.83v4.045h6.561v1.122h-7.818V52.714z"/>
	<path fill="#FFFFFF" d="M161.518,52.714h4.012c1.395,0,2.5,0.153,3.418,0.477c2.227,0.748,3.568,2.413,3.568,4.946
		c0,2.839-1.613,4.675-4.334,5.405c-0.918,0.255-1.938,0.374-3.246,0.374h-3.418V52.714z M164.885,62.794
		c1.207,0,2.158-0.102,2.957-0.323c2.295-0.646,3.35-2.192,3.35-4.352c0-2.005-1.021-3.246-2.67-3.841
		c-0.832-0.323-1.869-0.442-3.162-0.442h-2.582v8.958H164.885z"/>
	<path fill="#FFFFFF" d="M181.137,53.836h-4.369v-1.122h10.012v1.122h-4.385v10.08h-1.258V53.836z"/>
	<path fill="#FFFFFF" d="M188.821,52.714h3.365c1.004,0,1.734,0.085,2.346,0.272c1.412,0.459,2.295,1.411,2.295,2.89
		c0,1.699-1.24,2.839-3.434,3.128v0.033c0.816,0.392,1.479,2.584,2.686,3.451c0.324,0.238,0.697,0.374,1.088,0.374
		c0.205,0,0.459-0.034,0.646-0.085l0.254,1.07c-0.271,0.103-0.645,0.153-1.02,0.153c-0.68,0-1.207-0.204-1.699-0.561
		c-1.768-1.225-2.432-4.216-3.74-4.216h-1.529v4.691h-1.258V52.714z M191.864,58.102c0.832,0,1.445-0.051,1.92-0.187
		c1.139-0.341,1.717-1.055,1.717-2.058c0-0.9-0.578-1.513-1.309-1.768c-0.578-0.221-1.189-0.255-2.006-0.255h-2.107v4.267H191.864z"
		/>
	<path fill="#FFFFFF" d="M204.612,52.663h0.902l5.729,11.253h-1.412l-1.785-3.569h-5.863l-1.734,3.569h-1.393L204.612,52.663z
		 M207.485,59.241l-2.414-4.793h-0.033l-2.328,4.793H207.485z"/>
	<path fill="#FFFFFF" d="M213.419,52.714h1.258v11.202h-1.258V52.714z"/>
	<path fill="#FFFFFF" d="M218.313,52.714h1.004l8.873,9.01h0.033v-9.01h1.258v11.202h-0.865l-9.01-9.146h-0.033v9.146h-1.26V52.714z
		"/>
</g>
</svg>
