<?xml version="1.0" encoding="utf-8"?>
<!-- Generator: Adobe Illustrator 17.0.0, SVG Export Plug-In . SVG Version: 6.00 Build 0)  -->
<!DOCTYPE svg PUBLIC "-//W3C//DTD SVG 1.1//EN" "http://www.w3.org/Graphics/SVG/1.1/DTD/svg11.dtd">
<svg version="1.1" id="Layer_2" xmlns="http://www.w3.org/2000/svg" xmlns:xlink="http://www.w3.org/1999/xlink" x="0px" y="0px"
	 width="728px" height="90px" viewBox="0 0 728 90" enable-background="new 0 0 728 90" xml:space="preserve">
<g>
	<g>
		<rect x="35.615" y="21.684" fill="#515D77" width="189.454" height="2.045"/>
		<rect x="35.614" y="45.105" fill="#515D77" width="189.456" height="2.046"/>
	</g>
	<g>
		<g>
			<path fill="#FFFFFF" d="M45.444,28.125h3.189v9.876h6.285v2.713h-9.475V28.125z"/>
			<path fill="#FFFFFF" d="M62.733,40.905c-4.164,0-7.145-2.445-7.145-6.438s2.98-6.438,7.145-6.438
				c4.165,0,7.146,2.445,7.146,6.438S66.898,40.905,62.733,40.905z M62.733,38.154c2.599,0,3.878-1.547,3.878-3.687
				s-1.279-3.687-3.878-3.687c-2.598,0-3.878,1.547-3.878,3.687S60.135,38.154,62.733,38.154z"/>
			<path fill="#FFFFFF" d="M72.571,28.125h2.771l7.374,7.661h0.038v-7.661h3.19v12.589h-2.636L75.8,32.862h-0.039v7.852h-3.19
				V28.125z"/>
			<path fill="#FFFFFF" d="M89.307,28.125h5.291c1.3,0,2.197,0.095,3.019,0.287c2.732,0.649,4.91,2.483,4.91,5.808
				c0,3.4-2.293,5.158-4.413,5.903c-1.471,0.516-3.133,0.592-4.604,0.592h-4.202V28.125z M93.701,38.001
				c1.146,0,2.044-0.076,2.789-0.287c1.548-0.439,2.771-1.624,2.771-3.496c0-1.854-1.166-2.809-2.465-3.171
				c-0.726-0.21-1.471-0.21-2.693-0.21h-1.605v7.164H93.701z"/>
			<path fill="#FFFFFF" d="M111.697,40.905c-4.164,0-7.145-2.445-7.145-6.438s2.98-6.438,7.145-6.438
				c4.165,0,7.146,2.445,7.146,6.438S115.862,40.905,111.697,40.905z M111.697,38.154c2.599,0,3.878-1.547,3.878-3.687
				s-1.279-3.687-3.878-3.687c-2.598,0-3.878,1.547-3.878,3.687S109.099,38.154,111.697,38.154z"/>
			<path fill="#FFFFFF" d="M121.536,28.125h2.77l7.374,7.661h0.038v-7.661h3.19v12.589h-2.636l-7.508-7.852h-0.039v7.852h-3.189
				V28.125z"/>
			<path fill="#FFFFFF" d="M142.455,34.352h6.094v2.464h-6.094V34.352z"/>
			<path fill="#FFFFFF" d="M156.094,28.125h4.93c1.069,0,1.814,0.095,2.483,0.287c1.968,0.554,3.209,1.872,3.209,3.954
				c0,2.121-1.279,3.611-3.61,4.165c-0.631,0.153-1.356,0.21-2.35,0.21h-1.472v3.974h-3.19V28.125z M160.641,34.104
				c0.803,0,1.223-0.077,1.548-0.172c0.897-0.268,1.261-0.822,1.261-1.528c0-0.707-0.363-1.204-1.203-1.452
				c-0.325-0.095-0.669-0.115-1.3-0.115h-1.662v3.267H160.641z"/>
			<path fill="#FFFFFF" d="M167.672,40.714l5.731-12.647h2.847l6.209,12.647h-3.573l-1.223-2.655h-5.444l-1.089,2.655H167.672z
				 M174.817,31.869h-0.039l-1.451,3.515h3.095L174.817,31.869z"/>
			<path fill="#FFFFFF" d="M191.437,35.67c1.051,0.592,1.414,2.694,2.961,2.694c0.344,0,0.669-0.077,0.975-0.191l0.573,2.407
				c-0.649,0.249-1.433,0.325-2.025,0.325c-4.069,0-4.47-4.661-5.826-4.661h-0.688v4.47h-3.19V28.125h5.197
				c3.438,0,5.329,1.318,5.329,3.974c0,1.872-1.184,3.152-3.305,3.534V35.67z M189.088,33.684c1.7,0,2.388-0.535,2.388-1.471
				c0-1.012-0.688-1.375-2.158-1.375h-1.911v2.847H189.088z"/>
			<path fill="#FFFFFF" d="M197.856,28.125h3.19v12.589h-3.19V28.125z"/>
			<path fill="#FFFFFF" d="M204.792,37.142c1.185,0.726,2.885,1.089,4.317,1.089c1.814,0,2.751-0.439,2.751-1.261
				c0-1.873-7.852-0.02-7.852-4.891c0-2.675,2.35-4.05,5.33-4.05c1.91,0,4.184,0.478,5.578,1.299l-1.07,2.35
				c-1.146-0.592-3.018-0.975-4.394-0.975c-1.566,0-2.178,0.439-2.178,1.108c0,2.254,7.852,0.114,7.852,5.062
				c0,2.598-2.483,4.031-5.999,4.031c-2.024,0-4.126-0.458-5.578-1.414L204.792,37.142z"/>
		</g>
	</g>
</g>
</svg>
