<?xml version="1.0" encoding="utf-8"?>
<!-- Generator: Adobe Illustrator 17.0.0, SVG Export Plug-In . SVG Version: 6.00 Build 0)  -->
<!DOCTYPE svg PUBLIC "-//W3C//DTD SVG 1.1//EN" "http://www.w3.org/Graphics/SVG/1.1/DTD/svg11.dtd">
<svg version="1.1" id="Layer_1" xmlns="http://www.w3.org/2000/svg" xmlns:xlink="http://www.w3.org/1999/xlink" x="0px" y="0px"
	 width="728px" height="90px" viewBox="0 0 728 90" enable-background="new 0 0 728 90" xml:space="preserve">
<g>
	<path fill="#444662" d="M457.862,66.134l-0.92,0.567l-0.271-0.447l0.976-0.561l-0.976-0.56l0.271-0.447l0.92,0.567l-0.016-1.007
		h0.543l-0.016,1.007l0.928-0.575l0.271,0.447l-0.983,0.567l0.983,0.568l-0.271,0.447l-0.928-0.575l0.016,0.976h-0.543
		L457.862,66.134z"/>
	<path fill="#444662" d="M462.222,64.983h-2.056v-0.528h4.71v0.528h-2.062v4.741h-0.592V64.983z"/>
	<path fill="#444662" d="M464.847,68.941c0.367,0.208,0.808,0.335,1.391,0.335c0.536,0,1.12-0.144,1.12-0.647
		c0-0.12-0.04-0.216-0.112-0.287c-0.384-0.4-1.783-0.145-2.278-0.8c-0.112-0.145-0.185-0.328-0.185-0.576
		c0-0.743,0.632-1.159,1.543-1.159c0.601,0,1.136,0.136,1.584,0.352l-0.208,0.464c-0.44-0.199-0.855-0.287-1.359-0.287
		c-0.552,0-0.943,0.191-0.943,0.591c0,0.12,0.04,0.225,0.104,0.304c0.36,0.433,1.703,0.185,2.239,0.729
		c0.144,0.144,0.239,0.335,0.239,0.623c0,0.912-0.879,1.224-1.727,1.224c-0.664,0-1.256-0.152-1.647-0.399L464.847,68.941z"/>
	<path fill="#444662" d="M468.975,68.277c0-0.808,0.575-1.224,1.247-1.415v-0.016c-0.536-0.225-0.872-0.544-0.872-1.112
		c0-0.783,0.68-1.319,2.016-1.319c1.23,0,2.087,0.488,2.087,1.352c0,0.647-0.472,1.111-1.535,1.247v0.017
		c0.543,0.216,1.127,0.535,1.694,1.071c0.192-0.256,0.353-0.56,0.488-0.911l0.527,0.191c-0.144,0.408-0.352,0.792-0.623,1.127
		c0.304,0.328,0.583,0.729,0.855,1.216h-0.688c-0.176-0.296-0.367-0.56-0.567-0.8c-0.6,0.536-1.415,0.88-2.479,0.88
		C469.791,69.804,468.975,69.212,468.975,68.277z M473.228,68.525c-0.743-0.744-1.566-1.096-2.271-1.352
		c-0.728,0.096-1.367,0.392-1.367,1.056c0,0.647,0.56,1.056,1.527,1.056C471.958,69.285,472.669,69.037,473.228,68.525z
		 M472.837,65.758c0-0.496-0.544-0.823-1.463-0.823c-0.928,0-1.407,0.319-1.407,0.808c0,0.527,0.52,0.719,1.191,0.951
		C472.429,66.574,472.837,66.262,472.837,65.758z"/>
	<path fill="#444662" d="M478.685,64.415c0.68,0,1.295,0.129,1.896,0.385l-0.185,0.503c-0.479-0.216-1.023-0.359-1.663-0.359
		c-1.511,0-2.454,0.911-2.454,2.167c0,1.335,0.855,2.166,2.446,2.166c0.607,0,1.176-0.144,1.671-0.344l0.2,0.504
		c-0.656,0.264-1.295,0.368-1.927,0.368c-1.959,0-3.015-1.063-3.015-2.646S476.839,64.415,478.685,64.415z"/>
	<path fill="#444662" d="M481.471,68.941c0.367,0.208,0.808,0.335,1.391,0.335c0.536,0,1.12-0.144,1.12-0.647
		c0-0.12-0.04-0.216-0.112-0.287c-0.384-0.4-1.783-0.145-2.278-0.8c-0.112-0.145-0.185-0.328-0.185-0.576
		c0-0.743,0.632-1.159,1.543-1.159c0.6,0,1.136,0.136,1.584,0.352l-0.208,0.464c-0.44-0.199-0.855-0.287-1.359-0.287
		c-0.552,0-0.943,0.191-0.943,0.591c0,0.12,0.04,0.225,0.104,0.304c0.36,0.433,1.703,0.185,2.239,0.729
		c0.144,0.144,0.239,0.335,0.239,0.623c0,0.912-0.879,1.224-1.727,1.224c-0.664,0-1.256-0.152-1.647-0.399L481.471,68.941z"/>
	<path fill="#444662" d="M487.271,68.117c0-0.831,0.368-1.511,1.031-1.911c0.416-0.247,0.943-0.399,1.671-0.399
		c0.376,0,0.768,0.032,1.104,0.064v2.966c0,0.304,0.168,0.4,0.393,0.4c0.111,0,0.256-0.032,0.335-0.057l0.12,0.488
		c-0.176,0.063-0.384,0.096-0.583,0.096c-0.456,0-0.792-0.224-0.824-0.752c0-0.128-0.008-0.271,0-0.472h-0.016
		c-0.288,0.712-0.896,1.264-1.735,1.264C487.959,69.804,487.271,69.252,487.271,68.117z M490.485,66.582v-0.224
		c-0.151-0.016-0.335-0.023-0.6-0.023c-0.512,0-0.943,0.119-1.263,0.327c-0.464,0.296-0.735,0.792-0.735,1.432
		c0,0.72,0.344,1.183,0.959,1.183C489.638,69.276,490.485,68.42,490.485,66.582z"/>
	<path fill="#444662" d="M493.031,66.422h-0.776v-0.512h1.367v0.575c0,0.128,0,0.32-0.008,0.512h0.017
		c0.247-0.624,0.831-1.191,1.679-1.191c0.863,0,1.503,0.6,1.503,1.655c0,1.271-0.903,2.343-2.431,2.343
		c-0.231,0-0.504-0.024-0.76-0.096v1.91h-0.591V66.422z M494.374,69.276c0.896,0,1.823-0.591,1.823-1.814
		c0-0.647-0.344-1.127-0.968-1.127c-0.768,0-1.607,0.815-1.607,2.67v0.152C493.87,69.245,494.15,69.276,494.374,69.276z"/>
	<path fill="#444662" d="M498.167,66.422h-0.776v-0.512h1.367v0.575c0,0.128,0,0.32-0.008,0.512h0.017
		c0.247-0.624,0.831-1.191,1.679-1.191c0.863,0,1.503,0.6,1.503,1.655c0,1.271-0.903,2.343-2.431,2.343
		c-0.231,0-0.504-0.024-0.76-0.096v1.91h-0.591V66.422z M499.509,69.276c0.896,0,1.823-0.591,1.823-1.814
		c0-0.647-0.344-1.127-0.968-1.127c-0.768,0-1.607,0.815-1.607,2.67v0.152C499.006,69.245,499.286,69.276,499.509,69.276z"/>
	<path fill="#444662" d="M502.463,64.063h1.367v4.798c0,0.288,0.16,0.376,0.399,0.376c0.104,0,0.248-0.024,0.328-0.049l0.12,0.488
		c-0.185,0.056-0.376,0.088-0.567,0.088c-0.544,0-0.872-0.256-0.872-0.792v-4.397h-0.775V64.063z"/>
	<path fill="#444662" d="M506.805,69.38l-1.975-3.47h0.672l1.623,2.83h0.016l1.455-2.83h0.64l-2.966,5.708h-0.632L506.805,69.38z"/>
</g>
</svg>
