<svg width="595" height="410" xmlns="http://www.w3.org/2000/svg" xmlns:xlink="http://www.w3.org/1999/xlink">
 <style type="text/css">.st0{clip-path:url(#SVGID_2_);fill:#FFFFFF;}
	.st1{clip-path:url(#SVGID_4_);fill:#FFFFFF;}
	.st2{clip-path:url(#SVGID_6_);fill:#FFFFFF;}
	.st3{clip-path:url(#SVGID_6_);fill-rule:evenodd;clip-rule:evenodd;fill:#0D2D6C;}
	.st4{clip-path:url(#SVGID_8_);fill:#FFFFFF;}</style>
 <g>
  <title>background</title>
  <rect fill="none" id="canvas_background" height="402" width="582" y="-1" x="-1"/>
 </g>
 <g>
  <title>Layer 1</title>
  <g id="svg_1">
   <defs>
    <rect height="409" width="593.1" y="1" id="SVGID_1_"/>
   </defs>
   <clipPath id="SVGID_2_">
    <use id="svg_2" xlink:href="#SVGID_1_"/>
   </clipPath>
   <path id="svg_3" d="m554.7,158.9l-80.7,0l0,-155.4l80.7,0l0,20.8l-58.2,0l0,46.5l58.2,0l0,20.2l-58.2,0l0,46.6l58.2,0l0,21.3m-149.3,-155.4c16.6,0 29.2,3.7 37.8,10.9c8.6,7.3 12.9,17.9 12.9,31.7c0,6.4 -1.4,12.1 -4.2,17c-2.9,4.9 -7,9 -12.4,12.2c7.6,2.3 13.6,6.6 18,13.1c4.5,6.5 6.6,14.2 6.6,23.2c0,7.2 -1.4,14.1 -4.1,20.4c-2.7,6.3 -6.4,11.6 -11.2,15.8c-4.7,4 -10,6.8 -16,8.5c-5.9,1.7 -14.3,2.6 -25.1,2.6l-35.8,0l0.1,-155.4l33.4,0zm-11.3,134.4l17.8,0c10.4,0 18,-1.9 22.9,-5.8c4.9,-3.9 7.4,-9.8 7.4,-18c0,-8.8 -2.6,-15.5 -7.6,-20c-5.1,-4.5 -12.6,-6.9 -22.6,-6.9l-17.8,0l-0.1,50.7zm0.2,-69.3l7.2,0c11.6,0 19.9,-1.7 24.9,-5.3c4.9,-3.5 7.4,-9.4 7.4,-17.5c0,-7.2 -2.2,-12.5 -6.7,-16c-4.5,-3.5 -11.4,-5.2 -20.6,-5.2l-12.1,0l-0.1,44zm-72.5,79.8c-6.4,4.1 -13.2,7.3 -20.3,9.4c-7.1,2.1 -14.6,3.2 -22.4,3.2c-9,0 -17.6,-1.4 -25.9,-4.3c-8.2,-2.9 -15.8,-7.1 -22.7,-12.6c-9.5,-7.7 -16.9,-17.1 -22,-28.1c-5.1,-11 -7.6,-23 -7.6,-35.9c0,-10.7 2.1,-20.8 6.1,-30.5c4.1,-9.6 10.1,-18.3 17.9,-26.2c7.4,-7.3 15.8,-12.9 24.9,-16.6c9.1,-3.8 18.9,-5.6 29.4,-5.6c10.8,0 20.7,1.9 29.9,5.6c9.2,3.8 17.6,9.4 25.1,16.9c7.9,7.8 13.8,16.6 17.8,26.4c3.9,9.8 6,20.4 6,32c0,10 -1.6,19.4 -4.7,27.9c-3.2,8.5 -8,16.5 -14.5,23.8c2.7,1.3 5.6,2.3 8.5,2.9c2.9,0.6 6,0.9 9.3,0.9l2.9,0l0,21.5l-2,0c-5.7,0 -11.5,-0.9 -17.4,-2.6c-6.2,-2 -12.2,-4.7 -18.3,-8.1m-3,-26.9c5.6,-6.2 9.6,-12.7 12.1,-19.3c2.5,-6.6 3.8,-14.1 3.8,-22.4c0,-7.1 -1.3,-13.9 -3.8,-20.4c-2.6,-6.5 -6.3,-12.4 -11.2,-17.7c-5.7,-6.2 -11.9,-10.9 -18.6,-13.9c-6.7,-3 -14.1,-4.5 -22.2,-4.5c-7.2,0 -14.1,1.4 -20.7,4.2c-6.6,2.7 -12.4,6.7 -17.4,11.9c-5.5,5.6 -9.7,12 -12.6,19.2c-3,7.2 -4.4,14.7 -4.4,22.6c0,2.4 0.1,5 0.5,7.6c0.4,2.7 1,5.5 1.8,8.5c3.4,-1.8 7.1,-3 11.2,-3.8c4,-0.8 8.8,-1.2 14.1,-1.2c11.5,0 23,2.5 34.5,7.6c11.6,4.9 22.6,12.2 32.9,21.6m-16.9,12.5c-7.9,-7.2 -16.3,-12.7 -25.3,-16.5c-9,-3.8 -18.2,-5.7 -27.6,-5.7c-2.7,0 -5.3,0.2 -7.8,0.6c-2.5,0.4 -4.9,1 -7.3,1.7c5.5,7.9 12.2,14 20.3,18.3c8,4.2 16.6,6.4 25.9,6.4c3.4,0 6.9,-0.4 10.5,-1.2c3.5,-0.7 7.3,-2 11.3,-3.6" class="st0"/>
   <path id="svg_4" d="m59.4,125.4l21.6,-37.5l-12.5,-21.6l-27.9,48.3c-3,5.2 -1.2,11.8 3.9,14.8c5.3,3 11.9,1.2 14.9,-4m-24.1,-13.9l12.8,-22.1c-18.6,0.5 -33.6,15.7 -33.6,34.5c0,19.1 15.5,34.6 34.6,34.6l71,0c15,0 27.9,-9.6 32.6,-23.1c-10.6,5.3 -22.6,5.5 -33,1.5l-69.4,0c-2.9,0 -6,-0.7 -8.7,-2.3c-4,-2.3 -6.7,-6.1 -7.9,-10.3c-1.1,-4.1 -0.7,-8.7 1.6,-12.8m28.5,-65.6l21.6,37.5l25,0l-27.9,-48.4c-3,-5.2 -9.6,-6.9 -14.7,-4c-5.2,3.1 -7,9.7 -4,14.9m24,-13.9l12.7,22c8.9,-16.4 3.2,-37 -13.1,-46.3c-16.5,-9.5 -37.6,-3.9 -47.1,12.6l-35.5,61.5c-7.6,13 -5.6,29 3.7,39.8c0.7,-11.9 6.5,-22.4 15.2,-29.4l34.7,-60.1c1.4,-2.6 3.5,-4.8 6.3,-6.4c4,-2.3 8.7,-2.8 12.8,-1.7c4.2,1.2 8,3.9 10.3,8m42.6,57.5l-43.3,0l-12.5,21.6l55.8,0c6,0 10.8,-4.8 10.8,-10.8c0,-6 -4.8,-10.8 -10.8,-10.8m0.1,27.7c4.6,0 8.8,-1.9 11.9,-5c3,-3 4.9,-7.3 4.9,-11.9c0,-3.2 -0.8,-6.2 -2.4,-8.7l-34.7,-60.1c-1.7,-11 -7.9,-21.4 -17.8,-27.9c14,-2.7 28.8,3.6 36.3,16.7l35.5,61.5c9.6,16.5 3.9,37.6 -12.7,47.2c-16.3,9.4 -36.9,4 -46.7,-11.9l25.7,0.1z" class="st0"/>
  </g>
  <g id="svg_5">
   <defs>
    <rect height="410" width="595" id="SVGID_3_"/>
   </defs>
   <clipPath id="SVGID_4_">
    <use id="svg_6" xlink:href="#SVGID_3_"/>
   </clipPath>
   <rect id="svg_7" height="75" width="5.8" class="st1" y="190.6"/>
   <polyline id="svg_8" points="26.6,190.6 33.6,190.6 75.3,255.3 75.4,255.3 75.4,190.6 80.9,190.6 80.9,265.6 75.4,265.6    32.1,198.2 31.9,198.2 31.9,265.6 26.6,265.6 26.6,190.6  " class="st1"/>
   <path id="svg_9" d="m94.6,258.9l0,-5l2.6,0c4,4 9.9,7.5 20.5,7.5c11.5,0 19.4,-4.7 19.4,-16.1c0,-11 -8.7,-13.2 -19.5,-16.1c-13.4,-3.5 -21.1,-7.8 -21.1,-20c0,-10.8 7.9,-19.1 22.6,-19.1c9.4,0 15.4,2.5 20,5.9l0,4.8l-2.7,0c-4,-3.6 -8.9,-6.1 -17.3,-6.1c-12.2,0 -17.3,6.1 -17.3,14c0,10.3 7.1,12.6 17.3,15.3c15.1,4 23.5,7.7 23.5,20.8c0,14.6 -10.3,21.1 -24.9,21.1c-11.1,0.1 -18.1,-3.1 -23.1,-7" class="st1"/>
   <path id="svg_10" d="m207.1,240.4l0,-49.8l5.5,0l0,49.6c0,18.9 -11.7,25.8 -27.2,25.8c-15.3,0 -27.8,-6.9 -27.8,-25.8l0,-49.6l5.7,0l0,49.8c0,16.1 10.2,20.9 22.4,20.9c11.8,0 21.4,-4.5 21.4,-20.9" class="st1"/>
   <path id="svg_11" d="m259.3,231.3c-2,0.2 -4.3,0.3 -6.5,0.3l-14.2,0l0,34l-5.8,0l0,-75l20,0c15.2,0 25.7,5.4 25.7,20.4c0,10.8 -5.1,16.7 -13.6,19.2l17.9,33.2l0,2.3l-4.9,0l-18.6,-34.4m-20.8,-4.3l14,0c12.5,0 20.1,-3.4 20.1,-15.9c0,-12.1 -8.3,-15.9 -20.1,-15.9l-14,0l0,31.8z" class="st1"/>
   <path id="svg_12" d="m293,263.2l26.4,-72.7l6.8,0l26,72.7l0,2.4l-5,0l-8.5,-23.5l-32.5,0l-8.4,23.5l-4.8,0l0,-2.4m14.8,-25.8l29.2,0l-14.5,-40.5l-0.2,0l-14.5,40.5z" class="st1"/>
   <polyline id="svg_13" points="366.7,190.6 373.8,190.6 415.5,255.3 415.6,255.3 415.6,190.6 421,190.6 421,265.6 415.6,265.6    372.3,198.2 372.1,198.2 372.1,265.6 366.7,265.6 366.7,190.6  " class="st1"/>
   <path id="svg_14" d="m437.4,227.9c0,-24.6 15.1,-37.7 33,-37.7c11.9,0 17.3,3 22.8,7.5l0,4.6l-2.7,0c-4.2,-4.2 -9.4,-7.5 -19.8,-7.5c-15.5,0 -27.4,11.3 -27.4,32.9c0,22.1 10.4,33.7 26.6,33.7c11.3,0 17.6,-4.2 22.2,-8.9l2.5,0l0,4.3c-5.1,4.8 -12.5,9.2 -24.8,9.2c-19.1,0 -32.4,-13.5 -32.4,-38.1" class="st1"/>
  </g>
  <g id="svg_15">
   <defs>
    <rect height="409" width="593.1" y="1" id="SVGID_5_"/>
   </defs>
   <clipPath id="SVGID_6_">
    <use id="svg_16" xlink:href="#SVGID_5_"/>
   </clipPath>
   <polyline id="svg_17" points="509.7,190.6 554.3,190.6 554.3,195.4 515.3,195.4 515.3,224.5 544.8,224.5 544.8,229.2 515.3,229.2    515.3,260.9 555.8,260.9 555.8,265.6 509.7,265.6 509.7,190.6  " class="st2"/>
  </g>
 </g>
</svg>
