<?xml version="1.0" encoding="utf-8"?>
<!-- Generator: Adobe Illustrator 19.2.1, SVG Export Plug-In . SVG Version: 6.00 Build 0)  -->
<svg version="1.1" id="Layer_1" xmlns="http://www.w3.org/2000/svg" xmlns:xlink="http://www.w3.org/1999/xlink" x="0px" y="0px"
	 viewBox="0 0 595 410" style="enable-background:new 0 0 595 410;" xml:space="preserve">
<style type="text/css">
	.st0{clip-path:url(#SVGID_2_);fill:#FFFFFF;}
	.st1{clip-path:url(#SVGID_4_);fill:#FFFFFF;}
	.st2{clip-path:url(#SVGID_6_);fill:#FFFFFF;}
	.st3{clip-path:url(#SVGID_6_);fill-rule:evenodd;clip-rule:evenodd;fill:#0D2D6C;}
	.st4{clip-path:url(#SVGID_8_);fill:#FFFFFF;}
</style>
<g>
	<defs>
		<rect id="SVGID_1_" y="1" width="593.1" height="409"/>
	</defs>
	<clipPath id="SVGID_2_">
		<use xlink:href="#SVGID_1_"  style="overflow:visible;"/>
	</clipPath>
	<path class="st0" d="M554.7,158.9l-80.7,0L474,3.5l80.7,0l0,20.8l-58.2,0l0,46.5l58.2,0l0,20.2l-58.2,0l0,46.6l58.2,0L554.7,158.9
		 M405.4,3.5c16.6,0,29.2,3.7,37.8,10.9c8.6,7.3,12.9,17.9,12.9,31.7c0,6.4-1.4,12.1-4.2,17c-2.9,4.9-7,9-12.4,12.2
		c7.6,2.3,13.6,6.6,18,13.1c4.5,6.5,6.6,14.2,6.6,23.2c0,7.2-1.4,14.1-4.1,20.4c-2.7,6.3-6.4,11.6-11.2,15.8c-4.7,4-10,6.8-16,8.5
		c-5.9,1.7-14.3,2.6-25.1,2.6l-35.8,0l0.1-155.4L405.4,3.5z M394.1,137.9l17.8,0c10.4,0,18-1.9,22.9-5.8c4.9-3.9,7.4-9.8,7.4-18
		c0-8.8-2.6-15.5-7.6-20c-5.1-4.5-12.6-6.9-22.6-6.9l-17.8,0L394.1,137.9z M394.3,68.6l7.2,0c11.6,0,19.9-1.7,24.9-5.3
		c4.9-3.5,7.4-9.4,7.4-17.5c0-7.2-2.2-12.5-6.7-16c-4.5-3.5-11.4-5.2-20.6-5.2l-12.1,0L394.3,68.6z M321.8,148.4
		c-6.4,4.1-13.2,7.3-20.3,9.4c-7.1,2.1-14.6,3.2-22.4,3.2c-9,0-17.6-1.4-25.9-4.3c-8.2-2.9-15.8-7.1-22.7-12.6
		c-9.5-7.7-16.9-17.1-22-28.1c-5.1-11-7.6-23-7.6-35.9c0-10.7,2.1-20.8,6.1-30.5c4.1-9.6,10.1-18.3,17.9-26.2
		c7.4-7.3,15.8-12.9,24.9-16.6c9.1-3.8,18.9-5.6,29.4-5.6c10.8,0,20.7,1.9,29.9,5.6c9.2,3.8,17.6,9.4,25.1,16.9
		c7.9,7.8,13.8,16.6,17.8,26.4c3.9,9.8,6,20.4,6,32c0,10-1.6,19.4-4.7,27.9c-3.2,8.5-8,16.5-14.5,23.8c2.7,1.3,5.6,2.3,8.5,2.9
		c2.9,0.6,6,0.9,9.3,0.9l2.9,0l0,21.5h-2c-5.7,0-11.5-0.9-17.4-2.6C333.9,154.5,327.9,151.8,321.8,148.4 M318.8,121.5
		c5.6-6.2,9.6-12.7,12.1-19.3c2.5-6.6,3.8-14.1,3.8-22.4c0-7.1-1.3-13.9-3.8-20.4c-2.6-6.5-6.3-12.4-11.2-17.7
		c-5.7-6.2-11.9-10.9-18.6-13.9c-6.7-3-14.1-4.5-22.2-4.5c-7.2,0-14.1,1.4-20.7,4.2c-6.6,2.7-12.4,6.7-17.4,11.9
		c-5.5,5.6-9.7,12-12.6,19.2c-3,7.2-4.4,14.7-4.4,22.6c0,2.4,0.1,5,0.5,7.6c0.4,2.7,1,5.5,1.8,8.5c3.4-1.8,7.1-3,11.2-3.8
		c4-0.8,8.8-1.2,14.1-1.2c11.5,0,23,2.5,34.5,7.6C297.5,104.8,308.5,112.1,318.8,121.5 M301.9,134c-7.9-7.2-16.3-12.7-25.3-16.5
		c-9-3.8-18.2-5.7-27.6-5.7c-2.7,0-5.3,0.2-7.8,0.6c-2.5,0.4-4.9,1-7.3,1.7c5.5,7.9,12.2,14,20.3,18.3c8,4.2,16.6,6.4,25.9,6.4
		c3.4,0,6.9-0.4,10.5-1.2C294.1,136.9,297.9,135.6,301.9,134"/>
	<path class="st0" d="M59.4,125.4L81,87.9L68.5,66.3l-27.9,48.3c-3,5.2-1.2,11.8,3.9,14.8C49.8,132.4,56.4,130.6,59.4,125.4
		 M35.3,111.5l12.8-22.1c-18.6,0.5-33.6,15.7-33.6,34.5c0,19.1,15.5,34.6,34.6,34.6l71,0c15,0,27.9-9.6,32.6-23.1
		c-10.6,5.3-22.6,5.5-33,1.5l-69.4,0c-2.9,0-6-0.7-8.7-2.3c-4-2.3-6.7-6.1-7.9-10.3C32.6,120.2,33,115.6,35.3,111.5 M63.8,45.9
		l21.6,37.5l25,0L82.5,35c-3-5.2-9.6-6.9-14.7-4C62.6,34.1,60.8,40.7,63.8,45.9 M87.8,32L100.5,54c8.9-16.4,3.2-37-13.1-46.3
		C70.9-1.8,49.8,3.8,40.3,20.3L4.8,81.8c-7.6,13-5.6,29,3.7,39.8c0.7-11.9,6.5-22.4,15.2-29.4l34.7-60.1c1.4-2.6,3.5-4.8,6.3-6.4
		c4-2.3,8.7-2.8,12.8-1.7C81.7,25.2,85.5,27.9,87.8,32 M130.4,89.5l-43.3,0l-12.5,21.6l55.8,0c6,0,10.8-4.8,10.8-10.8
		C141.2,94.3,136.4,89.5,130.4,89.5 M130.5,117.2c4.6,0,8.8-1.9,11.9-5c3-3,4.9-7.3,4.9-11.9c0-3.2-0.8-6.2-2.4-8.7l-34.7-60.1
		c-1.7-11-7.9-21.4-17.8-27.9c14-2.7,28.8,3.6,36.3,16.7l35.5,61.5c9.6,16.5,3.9,37.6-12.7,47.2c-16.3,9.4-36.9,4-46.7-11.9
		L130.5,117.2z"/>
</g>
<g>
	<defs>
		<rect id="SVGID_3_" width="595" height="410"/>
	</defs>
	<clipPath id="SVGID_4_">
		<use xlink:href="#SVGID_3_"  style="overflow:visible;"/>
	</clipPath>
	<rect y="190.6" class="st1" width="5.8" height="75"/>
	<polyline class="st1" points="26.6,190.6 33.6,190.6 75.3,255.3 75.4,255.3 75.4,190.6 80.9,190.6 80.9,265.6 75.4,265.6 
		32.1,198.2 31.9,198.2 31.9,265.6 26.6,265.6 26.6,190.6 	"/>
	<path class="st1" d="M94.6,258.9v-5h2.6c4,4,9.9,7.5,20.5,7.5c11.5,0,19.4-4.7,19.4-16.1c0-11-8.7-13.2-19.5-16.1
		c-13.4-3.5-21.1-7.8-21.1-20c0-10.8,7.9-19.1,22.6-19.1c9.4,0,15.4,2.5,20,5.9v4.8h-2.7c-4-3.6-8.9-6.1-17.3-6.1
		c-12.2,0-17.3,6.1-17.3,14c0,10.3,7.1,12.6,17.3,15.3c15.1,4,23.5,7.7,23.5,20.8c0,14.6-10.3,21.1-24.9,21.1
		C106.6,266,99.6,262.8,94.6,258.9"/>
	<path class="st1" d="M207.1,240.4v-49.8h5.5v49.6c0,18.9-11.7,25.8-27.2,25.8c-15.3,0-27.8-6.9-27.8-25.8v-49.6h5.7v49.8
		c0,16.1,10.2,20.9,22.4,20.9C197.5,261.3,207.1,256.8,207.1,240.4"/>
	<path class="st1" d="M259.3,231.3c-2,0.2-4.3,0.3-6.5,0.3h-14.2v34h-5.8v-75h20c15.2,0,25.7,5.4,25.7,20.4
		c0,10.8-5.1,16.7-13.6,19.2l17.9,33.2v2.3h-4.9L259.3,231.3 M238.5,227h14c12.5,0,20.1-3.4,20.1-15.9c0-12.1-8.3-15.9-20.1-15.9
		h-14V227z"/>
	<path class="st1" d="M293,263.2l26.4-72.7h6.8l26,72.7v2.4h-5l-8.5-23.5h-32.5l-8.4,23.5H293V263.2 M307.8,237.4H337l-14.5-40.5
		h-0.2L307.8,237.4z"/>
	<polyline class="st1" points="366.7,190.6 373.8,190.6 415.5,255.3 415.6,255.3 415.6,190.6 421,190.6 421,265.6 415.6,265.6 
		372.3,198.2 372.1,198.2 372.1,265.6 366.7,265.6 366.7,190.6 	"/>
	<path class="st1" d="M437.4,227.9c0-24.6,15.1-37.7,33-37.7c11.9,0,17.3,3,22.8,7.5v4.6h-2.7c-4.2-4.2-9.4-7.5-19.8-7.5
		c-15.5,0-27.4,11.3-27.4,32.9c0,22.1,10.4,33.7,26.6,33.7c11.3,0,17.6-4.2,22.2-8.9h2.5v4.3c-5.1,4.8-12.5,9.2-24.8,9.2
		C450.7,266,437.4,252.5,437.4,227.9"/>
</g>
<g>
	<defs>
		<rect id="SVGID_5_" y="1" width="593.1" height="409"/>
	</defs>
	<clipPath id="SVGID_6_">
		<use xlink:href="#SVGID_5_"  style="overflow:visible;"/>
	</clipPath>
	<polyline class="st2" points="509.7,190.6 554.3,190.6 554.3,195.4 515.3,195.4 515.3,224.5 544.8,224.5 544.8,229.2 515.3,229.2 
		515.3,260.9 555.8,260.9 555.8,265.6 509.7,265.6 509.7,190.6 	"/>
	<path class="st3" d="M30.9,331.6l544.6-47.5c1.8-0.2,3.7,0.6,4.8,2.2l6.2,8.9c0.6,0.8,0.9,1.7,0.9,2.6l5.6,64.7L48.5,410
		c-1.8,0.2-3.7-0.6-4.8-2.2l-6.2-8.9c-0.6-0.8-0.9-1.7-0.9-2.6L30.9,331.6"/>
</g>
<g>
	<defs>
		<rect id="SVGID_7_" width="595" height="410"/>
	</defs>
	<clipPath id="SVGID_8_">
		<use xlink:href="#SVGID_7_"  style="overflow:visible;"/>
	</clipPath>
	<path class="st4" d="M69.4,384.2l3.9-0.3c0.8-0.1,1.4-1,1.3-1.7l-2.1-24.6l-3.8,2.3l-1.4,0.1l-0.3-3.1l7-4.9l3.8-0.3l2.6,29.9
		c0.1,0.7,0.9,1.5,1.6,1.5l3.4-0.3l0.3,3.2l-16,1.4L69.4,384.2"/>
	<path class="st4" d="M88.2,368.2c-1-11.9,5.3-18.3,13.1-19c7.8-0.7,15.2,4.5,16.2,16.4c1,11.9-5.3,18.3-13.1,19
		C96.6,385.3,89.3,380.1,88.2,368.2 M111.6,366.3c-0.9-9.9-4.6-13.6-9.9-13.1c-5.3,0.5-8.3,4.8-7.4,14.6c0.9,9.8,4.5,13.5,9.8,13.1
		C109.3,380.4,112.4,376.1,111.6,366.3z"/>
	<path class="st4" d="M122.2,365.3c-1-11.9,5.3-18.3,13.1-19c7.8-0.7,15.2,4.5,16.2,16.4c1,11.9-5.3,18.3-13.1,19
		C130.5,382.4,123.2,377.2,122.2,365.3 M145.5,363.3c-0.9-9.9-4.6-13.6-9.9-13.1c-5.3,0.5-8.3,4.8-7.4,14.6
		c0.9,9.8,4.5,13.5,9.8,13.1C143.3,377.5,146.3,373.2,145.5,363.3z"/>
	<path class="st4" d="M154.8,353.7c-0.5-6,3-9.4,7.4-9.7c4.3-0.4,8.4,2.3,8.9,8.3c0.5,6-3,9.4-7.3,9.7
		C159.4,362.4,155.3,359.7,154.8,353.7 M166.5,352.7c-0.4-4-1.9-5.8-4-5.6c-2.2,0.2-3.4,2.2-3.1,6.3c0.4,4,1.9,5.8,4.1,5.6
		C165.7,358.7,166.8,356.7,166.5,352.7z M182,341.1l4-0.3l-21.1,40l-4,0.3L182,341.1z M175.7,369.3c-0.5-6,3-9.4,7.4-9.7
		c4.3-0.4,8.4,2.3,8.9,8.3c0.5,6-3,9.4-7.3,9.7C180.3,378,176.2,375.4,175.7,369.3z M187.4,368.4c-0.3-4-1.9-5.8-4-5.6
		c-2.2,0.2-3.4,2.2-3.1,6.3c0.4,4,1.9,5.8,4.1,5.6C186.6,374.4,187.7,372.4,187.4,368.4z"/>
	<path class="st4" d="M205.7,358c-1-11.5,5.4-18.3,15.3-19.2c4.1-0.4,6,0.3,7.1,0.7c0.4,0,0.7-0.5,0.7-1l3.6-0.3l0.9,10.6l-3.9,0.3
		l-1-4.9c-1.5-1.1-3.8-1.9-6.9-1.6c-6.2,0.5-10.6,5.1-9.7,14.6c0.8,9.4,5.1,13.8,11.9,13.2c4.6-0.4,7.3-2.5,8.9-5.2l2.7-0.2l0.4,4.1
		c-2.6,2.6-6.3,4.7-11.9,5.2C213.7,375.1,206.7,369.5,205.7,358"/>
	<path class="st4" d="M238.4,355.1c-1-11.5,6.1-18.4,15.1-19.2c9-0.8,17.2,4.8,18.2,16.3c1,11.5-6.1,18.4-15.1,19.1
		C247.6,372.2,239.4,366.6,238.4,355.1 M265.7,352.9c-0.8-9.2-5.7-13.5-11.8-13c-6.1,0.5-10.3,5.6-9.5,14.8
		c0.8,9.2,5.7,13.4,11.9,12.9C262.4,367.1,266.5,362,265.7,352.9z"/>
	<path class="st4" d="M276.5,366.1l2-0.2c0.8-0.1,1.5-1,1.4-1.7l-2.2-25c-0.1-0.7-0.9-1.6-1.7-1.5l-2,0.2l-0.3-3.3l12.6-1.1
		l10.4,25.2l0.2,0l6-26.7l12.4-1.1l0.3,3.3l-2.1,0.2c-0.8,0.1-1.5,1-1.4,1.8l2.2,25c0.1,0.7,0.9,1.5,1.7,1.5l2.1-0.2l0.3,3.2
		l-13.2,1.2l-0.3-3.2l3.9-0.3l-2.4-27.7l-0.3,0l-7.2,31.8l-4,0.4l-12.5-30l-0.3,0l2.4,27.7l3.9-0.3l0.3,3.2l-11.9,1L276.5,366.1"/>
	<path class="st4" d="M321.7,362.2l2-0.2c0.8-0.1,1.5-1,1.4-1.7l-2.2-25c-0.1-0.7-0.9-1.6-1.7-1.5l-2,0.2l-0.3-3.3l12.6-1.1
		l10.4,25.2l0.2,0l6-26.7l12.4-1.1l0.3,3.3l-2.1,0.2c-0.8,0.1-1.5,1-1.4,1.8l2.2,25c0.1,0.7,0.9,1.5,1.7,1.5l2.1-0.2l0.3,3.2
		l-13.2,1.2l-0.3-3.2l3.9-0.3l-2.4-27.7l-0.3,0l-7.2,31.7l-4,0.4l-12.5-30l-0.3,0l2.4,27.7l3.9-0.3l0.3,3.2l-11.8,1L321.7,362.2"/>
	<path class="st4" d="M366.8,358.2l2.5-0.2c0.8-0.1,1.5-1,1.4-1.7l-2.2-25c-0.1-0.7-0.9-1.6-1.7-1.5l-2.5,0.2l-0.3-3.3l13.8-1.2
		l0.3,3.3l-2.5,0.2c-0.8,0.1-1.5,1-1.4,1.8l2.2,25c0.1,0.7,0.9,1.5,1.7,1.5l2.5-0.2l0.3,3.2l-13.8,1.2L366.8,358.2"/>
	<path class="st4" d="M392.3,356l2.4-0.2c0.8-0.1,1.5-1,1.4-1.7l-2.3-26.5l-7.4,0.6l0.1,7.4l-3.7,0.3l-0.9-10.8l29.1-2.5l0.9,10.8
		l-3.7,0.3l-1.1-7.3l-7.4,0.6l2.3,26.5c0.1,0.7,0.9,1.5,1.7,1.5l2.4-0.2l0.3,3.2l-13.6,1.2L392.3,356"/>
	<path class="st4" d="M417.5,353.8l2-0.2c0.8-0.1,1.5-1,1.4-1.7l-2.2-25c-0.1-0.7-0.9-1.6-1.7-1.5l-2,0.2l-0.3-3.3l12.6-1.1
		l10.4,25.2l0.1,0l6-26.7l12.4-1.1l0.3,3.3l-2.1,0.2c-0.8,0.1-1.5,1-1.4,1.8l2.2,25c0.1,0.7,0.9,1.5,1.7,1.5l2.1-0.2l0.3,3.2
		l-13.2,1.2l-0.3-3.2l3.9-0.3l-2.4-27.7l-0.3,0l-7.2,31.8l-4,0.4l-12.5-30l-0.3,0l2.4,27.7l3.9-0.3l0.3,3.2l-11.8,1L417.5,353.8"/>
	<path class="st4" d="M462.7,349.9l2.1-0.2c0.7-0.1,1.5-1,1.4-1.7l-2.2-25c-0.1-0.7-0.9-1.6-1.7-1.5l-2.1,0.2l-0.3-3.3l26.8-2.3
		l0.8,9.2l-3.6,0.3l-1.1-5.7l-13.3,1.2l1,11.8l6.8-0.6l0-4.2l3.5-0.3l1,11.7l-3.5,0.3l-0.7-4.1l-6.8,0.6l1.1,12.5l13.8-1.2l0-6.4
		l3.7-0.3l0.9,9.8L463,353L462.7,349.9"/>
	<path class="st4" d="M493.8,347.1l2.1-0.2c0.7-0.1,1.5-1,1.4-1.7l-2.2-25c-0.1-0.7-0.9-1.6-1.7-1.5l-2.1,0.2l-0.3-3.3l9.7-0.8
		l18.1,23.9l0.2,0l-1.9-22.1l-4.4,0.4l-0.3-3.3l12.3-1.1l0.3,3.3l-2,0.2c-0.7,0.1-1.4,1-1.3,1.8l2.6,29.8l-5,0.4l-19.4-25.5l-0.2,0
		l2.1,23.8l4.5-0.4l0.3,3.2l-12.4,1.1L493.8,347.1"/>
	<path class="st4" d="M539.1,343.2l2.4-0.2c0.8-0.1,1.5-1,1.4-1.7l-2.3-26.5l-7.4,0.6l0.1,7.4l-3.7,0.3l-0.9-10.8l29.1-2.5l0.9,10.8
		l-3.7,0.3l-1.1-7.3l-7.4,0.6l2.3,26.5c0.1,0.7,0.9,1.5,1.7,1.5l2.4-0.2l0.3,3.2l-13.6,1.2L539.1,343.2"/>
</g>
</svg>
