<!-- Generator: Adobe Illustrator 19.1.0, SVG Export Plug-In  -->
<svg version="1.1"
	 xmlns="http://www.w3.org/2000/svg" xmlns:xlink="http://www.w3.org/1999/xlink" xmlns:a="http://ns.adobe.com/AdobeSVGViewerExtensions/3.0/"
	 x="0px" y="0px" width="89.3px" height="55.3px" viewBox="0 0 89.3 55.3" style="enable-background:new 0 0 89.3 55.3;"
	 xml:space="preserve">
<style type="text/css">
	.st0{fill:url(#SVGID_1_);}
	.st1{fill:url(#SVGID_2_);}
	.st2{fill:url(#SVGID_3_);}
	.st3{fill:url(#SVGID_4_);}
	.st4{fill:url(#SVGID_5_);}
	.st5{fill:url(#SVGID_6_);}
	.st6{fill:url(#SVGID_7_);}
	.st7{fill:url(#SVGID_8_);}
	.st8{fill:url(#SVGID_9_);}
	.st9{fill:#133E8A;}
	.st10{fill:none;}
	.st11{fill:url(#SVGID_10_);}
	.st12{fill:url(#SVGID_11_);}
	.st13{fill:url(#SVGID_12_);}
	.st14{fill:url(#SVGID_13_);}
	.st15{fill:url(#SVGID_14_);}
	.st16{fill:url(#SVGID_15_);}
	.st17{fill:url(#SVGID_16_);}
	.st18{fill:url(#SVGID_17_);}
	.st19{fill:url(#SVGID_18_);}
</style>
<defs>
</defs>
<linearGradient id="SVGID_1_" gradientUnits="userSpaceOnUse" x1="-2399.8047" y1="-4235.7354" x2="-2334.7471" y2="-4235.7354" gradientTransform="matrix(0.1171 0 0 0.1171 336.542 507.1943)">
	<stop  offset="0" style="stop-color:#962459"/>
	<stop  offset="2.235203e-03" style="stop-color:#AA1D62"/>
	<stop  offset="5.492255e-03" style="stop-color:#C0156C"/>
	<stop  offset="9.341576e-03" style="stop-color:#D10F74"/>
	<stop  offset="1.410114e-02" style="stop-color:#DC0A79"/>
	<stop  offset="2.078149e-02" style="stop-color:#E3087C"/>
	<stop  offset="3.932600e-02" style="stop-color:#E5077D"/>
	<stop  offset="0.4382" style="stop-color:#E72D87"/>
</linearGradient>
<path class="st0" d="M63.1,9.7c0.2,0.6-1.3,1.7-3.4,2.6c-2.1,0.8-4,1-4.2,0.4c-0.2-0.6,1.3-1.7,3.4-2.6C61,9.3,62.9,9.1,63.1,9.7z"
	/>
<radialGradient id="SVGID_2_" cx="-2799.2029" cy="-4134.7065" r="40.4612" gradientTransform="matrix(0.1852 0 0 0.1852 595.7168 785.1115)" gradientUnits="userSpaceOnUse">
	<stop  offset="0" style="stop-color:#FFF49A"/>
	<stop  offset="5.612379e-02" style="stop-color:#FFF083"/>
	<stop  offset="0.1705" style="stop-color:#FFEA5B"/>
	<stop  offset="0.2885" style="stop-color:#FFE53A"/>
	<stop  offset="0.4091" style="stop-color:#FFE121"/>
	<stop  offset="0.5333" style="stop-color:#FFDE0E"/>
	<stop  offset="0.6634" style="stop-color:#FFDD04"/>
	<stop  offset="0.809" style="stop-color:#FFDC00"/>
	<stop  offset="1" style="stop-color:#F5C226"/>
</radialGradient>
<path class="st1" d="M82.6,24.1c-0.1,1.4-0.7,2.6-1.8,3.1c-2,1-4.9-0.7-6.5-3.8c-1-1.9-1.2-3.9-0.8-5.4l0,0c0.2,0.2,0.3,0.3,0.5,0.5
	C77.5,21.6,80.8,23.7,82.6,24.1L82.6,24.1z"/>
<linearGradient id="SVGID_3_" gradientUnits="userSpaceOnUse" x1="-2245.3398" y1="-4161.5679" x2="-2168.3647" y2="-4161.5679" gradientTransform="matrix(0.1171 0 0 0.1171 336.542 507.1943)">
	<stop  offset="0" style="stop-color:#FFDC00"/>
	<stop  offset="0.1812" style="stop-color:#FDD704"/>
	<stop  offset="0.399" style="stop-color:#F8C80F"/>
	<stop  offset="0.6357" style="stop-color:#F0B021"/>
	<stop  offset="0.8841" style="stop-color:#E58E3B"/>
	<stop  offset="1" style="stop-color:#DF7C49"/>
</linearGradient>
<path class="st2" d="M82.6,24.1c-1.8-0.3-5.1-2.4-8.5-5.5c-0.2-0.2-0.4-0.3-0.5-0.5l0,0c0.3-0.9,0.8-1.7,1.6-2.1
	c2-1,4.9,0.7,6.5,3.8C82.4,21.2,82.7,22.8,82.6,24.1L82.6,24.1z"/>
<linearGradient id="SVGID_4_" gradientUnits="userSpaceOnUse" x1="-2238.8467" y1="-4165.6089" x2="-2200.8083" y2="-4231.4932" gradientTransform="matrix(0.1171 0 0 0.1171 336.542 507.1943)">
	<stop  offset="5.618000e-03" style="stop-color:#E95049"/>
	<stop  offset="0.217" style="stop-color:#E1413C"/>
	<stop  offset="0.7183" style="stop-color:#D22323"/>
	<stop  offset="1" style="stop-color:#CC1719"/>
</linearGradient>
<path class="st3" d="M82.6,24.1c0.1-1.3-0.2-2.8-1-4.3c-1.6-3.1-4.5-4.8-6.5-3.8c-0.8,0.4-1.3,1.1-1.6,2.1v0c0,0,0,0,0,0
	c-4-3.9-6.4-7.7-5.5-8.7c0.2-0.2,0.6-0.3,1.1-0.2l0,0c7.1,1.3,12.8,6.6,14.7,13.5l0,0c0.2,0.6,0.1,1-0.1,1.3
	C83.6,24.1,83.2,24.2,82.6,24.1L82.6,24.1z"/>
<g>
	<radialGradient id="SVGID_5_" cx="65.3453" cy="35.2057" r="13.482" fx="64.3448" fy="32.0041" gradientUnits="userSpaceOnUse">
		<stop  offset="0" style="stop-color:#D6CDE7"/>
		<stop  offset="0.1926" style="stop-color:#B5AAD2"/>
		<stop  offset="0.4268" style="stop-color:#9386BC"/>
		<stop  offset="0.6466" style="stop-color:#7A6CAD"/>
		<stop  offset="0.844" style="stop-color:#6B5CA3"/>
		<stop  offset="1" style="stop-color:#6657A0"/>
		<stop  offset="1" style="stop-color:#6657A0"/>
		<stop  offset="1" style="stop-color:#6657A0"/>
	</radialGradient>
	<path class="st4" d="M65.6,38.6c4.7-0.3,8.4-4.1,8.4-8.9c0-4.9-4-8.9-8.9-8.9c-1.7,0-3.3,0.5-4.7,1.3c0.9,1.2,1.7,2.6,2.4,4.3
		C64.3,29.9,65.8,34.6,65.6,38.6z"/>
	<radialGradient id="SVGID_6_" cx="57.412" cy="24.446" r="20.2544" gradientUnits="userSpaceOnUse">
		<stop  offset="0" style="stop-color:#63B2E0"/>
		<stop  offset="0.1197" style="stop-color:#5FA9DA"/>
		<stop  offset="0.3148" style="stop-color:#5491C9"/>
		<stop  offset="0.5599" style="stop-color:#4369AD"/>
		<stop  offset="0.5955" style="stop-color:#4063A9"/>
		<stop  offset="0.9157" style="stop-color:#253772"/>
	</radialGradient>
	<path class="st5" d="M58.9,42c1.4-0.5,3.8-1,6.3-1.2c0.1-0.3,0.1-0.6,0.2-1c0.1-0.4,0.1-0.8,0.1-1.3c-0.2,0-0.3,0-0.5,0
		c-4.9,0-8.9-4-8.9-8.9c0-3.2,1.7-6,4.2-7.6c-1.9-2.7-3.9-4.2-4.9-4.8c-1.8-1-4.6-1.8-6.4,1.8c-1.3,2.5-2,5.4-2,8.4
		c0,7.5,4.4,13.9,10.7,17C56.4,43.9,55.9,43.1,58.9,42z"/>
	<radialGradient id="SVGID_7_" cx="58.1475" cy="24.4999" r="14.5193" gradientUnits="userSpaceOnUse">
		<stop  offset="0" style="stop-color:#5A95CC"/>
		<stop  offset="0.2275" style="stop-color:#5282BE"/>
		<stop  offset="0.7346" style="stop-color:#415BA3"/>
		<stop  offset="1" style="stop-color:#3B4C99"/>
	</radialGradient>
	<path class="st6" d="M56.2,29.7c0,4.9,4,8.9,8.9,8.9c0.2,0,0.3,0,0.5,0c0.2-3.9-1.3-8.7-2.8-12.1c-0.7-1.7-1.6-3.1-2.4-4.3
		C57.9,23.7,56.2,26.5,56.2,29.7z"/>
	<linearGradient id="SVGID_8_" gradientUnits="userSpaceOnUse" x1="67.5281" y1="46.4862" x2="67.5281" y2="40.0297">
		<stop  offset="0" style="stop-color:#006027"/>
		<stop  offset="4.904962e-02" style="stop-color:#00672D"/>
		<stop  offset="0.2811" style="stop-color:#008243"/>
		<stop  offset="0.5163" style="stop-color:#009553"/>
		<stop  offset="0.7544" style="stop-color:#00A15D"/>
		<stop  offset="1" style="stop-color:#00A560"/>
	</linearGradient>
	<path class="st7" d="M74.1,40.7c-2.1-0.4-5.6-0.3-8.9,0.1c-1.2,5.3-4.4,5.1-6.3,4.3c-0.4-0.2-0.8-0.3-1.2-0.5c0,0,0,0,0,0
		c2.5,1.2,5.2,1.8,8.1,1.8c4,0,7.7-1.2,10.7-3.3C77.8,42.3,77.9,41.3,74.1,40.7z"/>
	<linearGradient id="SVGID_9_" gradientUnits="userSpaceOnUse" x1="59.7851" y1="45.4998" x2="61.9886" y2="39.4457">
		<stop  offset="0.1067" style="stop-color:#00595D"/>
		<stop  offset="0.1984" style="stop-color:#006F73"/>
		<stop  offset="0.3319" style="stop-color:#00898D"/>
		<stop  offset="0.4516" style="stop-color:#00999C"/>
		<stop  offset="0.5449" style="stop-color:#009FA2"/>
		<stop  offset="1" style="stop-color:#00B3C4"/>
	</linearGradient>
	<path class="st8" d="M65.2,40.8c-2.5,0.3-4.9,0.7-6.3,1.2c-3,1.1-2.5,1.9-1.2,2.6c0.4,0.2,0.8,0.4,1.2,0.5
		C60.8,45.8,64,46.1,65.2,40.8z"/>
</g>
<g>
	<g>
		<path class="st9" d="M21.9,28.8c3.1-1.9,2.5-7.4-3-7.4H7c-0.9,0-1.7,0.8-1.7,1.7v13C5.3,37,6,37.8,7,37.8h10.4
			C25.6,37.8,26.6,30.5,21.9,28.8z M11.5,24h6.4c3.7,0,3.5,4-0.5,4h-5.9V24z M16.6,35.1h-5.2v-4.5h6.6
			C21.9,30.5,21.9,35.1,16.6,35.1z"/>
		<path class="st9" d="M42.8,21.4H25.5c-0.8,0-1.5,0.6-1.5,1.4c0,0.8,0.8,1.4,1.5,1.4h5.7v12c0,0.9,0.8,1.7,1.7,1.7h2.7
			c0.9,0,1.7-0.8,1.7-1.7v-12h5.5c0.8,0,1.5-0.6,1.5-1.4C44.4,22.1,43.6,21.4,42.8,21.4z"/>
	</g>
</g>
<rect class="st10" width="89.3" height="55.3"/>
</svg>
