<!-- Generator: Adobe Illustrator 19.0.1, SVG Export Plug-In  -->
<svg version="1.1"
	 xmlns="http://www.w3.org/2000/svg" xmlns:xlink="http://www.w3.org/1999/xlink" xmlns:a="http://ns.adobe.com/AdobeSVGViewerExtensions/3.0/"
	 x="0px" y="0px" width="167.5px" height="15.7px" viewBox="0 0 167.5 15.7" style="enable-background:new 0 0 167.5 15.7;"
	 xml:space="preserve">
<style type="text/css">
	.st0{fill:#FFFFFF;}
	.st1{fill:none;}
</style>
<defs>
</defs>
<g>
	<path class="st0" d="M2.5,2.3h2.1c0.4,0,0.8,0.1,1.2,0.2C6.2,2.6,6.5,2.8,6.8,3C7,3.3,7.2,3.6,7.4,3.9c0.2,0.3,0.2,0.7,0.2,1.2
		S7.6,5.9,7.4,6.3C7.3,6.6,7.1,6.9,6.8,7.2c-0.3,0.2-0.6,0.4-1,0.6S5,7.9,4.6,7.9h-1v3h-1V2.3z M4.4,7C4.7,7,5,7,5.3,6.9
		C5.5,6.8,5.8,6.7,6,6.6S6.3,6.2,6.4,6c0.1-0.2,0.2-0.5,0.2-0.8C6.5,4.5,6.4,4,6,3.7S5.1,3.2,4.4,3.2H3.6V7H4.4z"/>
	<path class="st0" d="M9.8,11h-1V2.3h1V11z"/>
	<path class="st0" d="M11.5,5h1v4c0,0.4,0.1,0.7,0.2,0.9s0.4,0.3,0.8,0.3c0.3,0,0.6-0.1,0.8-0.3s0.5-0.4,0.7-0.6V5h1V11h-0.9
		L15,10.2c-0.1,0.1-0.2,0.2-0.3,0.3c-0.1,0.1-0.2,0.2-0.4,0.3S14,11,13.8,11c-0.2,0.1-0.4,0.1-0.6,0.1c-0.6,0-1-0.2-1.3-0.5
		c-0.3-0.3-0.5-0.7-0.5-1.3V5z"/>
	<path class="st0" d="M20.9,9.3c0,0.3-0.1,0.6-0.2,0.8c-0.1,0.2-0.2,0.4-0.4,0.6c-0.2,0.1-0.4,0.3-0.6,0.3c-0.2,0.1-0.5,0.1-0.8,0.1
		c-0.3,0-0.6,0-0.9-0.1s-0.6-0.1-0.8-0.3V9.8c0.2,0.1,0.5,0.2,0.8,0.3s0.6,0.1,0.8,0.1s0.5-0.1,0.7-0.2c0.2-0.1,0.3-0.3,0.3-0.6
		c0-0.2-0.1-0.4-0.2-0.5s-0.3-0.3-0.5-0.4c-0.2-0.1-0.4-0.2-0.6-0.3C18.4,8.1,18.2,8,18,7.8c-0.2-0.1-0.3-0.3-0.5-0.5
		c-0.1-0.2-0.2-0.5-0.2-0.8c0-0.2,0-0.5,0.1-0.7c0.1-0.2,0.2-0.4,0.4-0.5s0.4-0.2,0.6-0.3c0.2-0.1,0.5-0.1,0.8-0.1
		c0.5,0,1,0.1,1.5,0.3v0.9C20.5,6,20.3,5.9,20,5.9c-0.2-0.1-0.5-0.1-0.7-0.1c-0.3,0-0.5,0.1-0.7,0.2c-0.2,0.1-0.3,0.3-0.3,0.5
		c0,0.2,0.1,0.4,0.2,0.5s0.3,0.3,0.5,0.4s0.4,0.2,0.6,0.3C19.8,7.7,20,7.9,20.2,8c0.2,0.1,0.3,0.3,0.5,0.5S20.9,9,20.9,9.3z"/>
	<path class="st0" d="M29,11h-1V7c0-0.4-0.1-0.7-0.2-0.9c-0.2-0.2-0.4-0.3-0.8-0.3c-0.3,0-0.6,0.1-0.8,0.3c-0.3,0.2-0.5,0.4-0.7,0.6
		V11h-1V5h0.9l0.1,0.7c0.3-0.3,0.6-0.5,0.8-0.7c0.3-0.1,0.6-0.2,1-0.2c0.6,0,1,0.2,1.3,0.5C28.9,5.7,29,6.1,29,6.7V11z"/>
	<path class="st0" d="M31.3,8.3c0,0.3,0,0.5,0.1,0.7c0.1,0.2,0.2,0.4,0.3,0.6c0.1,0.2,0.3,0.3,0.5,0.4c0.2,0.1,0.5,0.2,0.8,0.2
		c0.5,0,1.1-0.1,1.7-0.4v0.9c-0.3,0.1-0.6,0.2-0.9,0.3c-0.3,0.1-0.7,0.1-1,0.1c-0.5,0-0.9-0.1-1.2-0.2c-0.3-0.2-0.6-0.4-0.8-0.6
		c-0.2-0.3-0.4-0.6-0.5-1S30.3,8.5,30.3,8c0-0.4,0-0.8,0.1-1.2s0.3-0.7,0.5-1c0.2-0.3,0.5-0.5,0.8-0.7C32,5,32.3,4.9,32.7,4.9
		c0.4,0,0.8,0.1,1,0.2c0.3,0.2,0.5,0.4,0.7,0.6c0.2,0.3,0.3,0.6,0.4,0.9C34.9,7,35,7.4,35,7.7c0,0.1,0,0.2,0,0.3s0,0.2,0,0.2H31.3z
		 M33.9,7.5c0-0.2,0-0.4,0-0.6s-0.1-0.4-0.2-0.6c-0.1-0.2-0.2-0.3-0.4-0.4s-0.4-0.1-0.6-0.1c-0.2,0-0.4,0-0.5,0.1s-0.3,0.2-0.4,0.4
		s-0.2,0.3-0.3,0.5c-0.1,0.2-0.1,0.4-0.1,0.7H33.9z"/>
	<path class="st0" d="M41.4,9.6L42.6,5h0.9L41.8,11h-1l-1.2-4.7L38.4,11h-1L35.6,5h1l1.3,4.6L39.1,5h1L41.4,9.6z"/>
	<path class="st0" d="M52.3,8.5c0,0.4-0.1,0.7-0.2,1s-0.3,0.6-0.5,0.8c-0.2,0.2-0.5,0.4-0.8,0.5c-0.3,0.1-0.7,0.2-1,0.2h-2.7V2.3
		h2.5c0.8,0,1.4,0.2,1.8,0.6s0.7,0.9,0.7,1.6c0,0.5-0.1,0.9-0.3,1.2c-0.2,0.3-0.5,0.6-1,0.8c0.2,0.1,0.4,0.2,0.6,0.3
		c0.2,0.1,0.4,0.3,0.5,0.5c0.1,0.2,0.2,0.4,0.3,0.6C52.3,8,52.3,8.3,52.3,8.5z M51,4.6c0-0.5-0.1-0.8-0.4-1s-0.7-0.4-1.1-0.4h-1.4
		v2.8h1.4c0.5,0,0.8-0.1,1.1-0.4C50.9,5.5,51,5.1,51,4.6z M51.3,8.5c0-0.2,0-0.4-0.1-0.6s-0.2-0.3-0.4-0.5c-0.2-0.1-0.3-0.2-0.5-0.3
		S49.8,7,49.5,7h-1.4v3h1.3c0.2,0,0.5,0,0.7-0.1s0.4-0.1,0.6-0.3s0.3-0.3,0.4-0.5C51.2,9,51.3,8.8,51.3,8.5z"/>
	<path class="st0" d="M52.8,2.3h5.4v0.9H56V11h-1V3.2h-2.2V2.3z"/>
	<path class="st0" d="M62.5,11h-1V2.3h1V11z"/>
	<path class="st0" d="M64,2.8c0-0.2,0.1-0.3,0.2-0.5c0.1-0.1,0.3-0.2,0.5-0.2c0.2,0,0.4,0.1,0.5,0.2c0.1,0.1,0.2,0.3,0.2,0.5
		c0,0.2-0.1,0.3-0.2,0.5c-0.1,0.1-0.3,0.2-0.5,0.2c-0.2,0-0.4-0.1-0.5-0.2C64.1,3.2,64,3,64,2.8z M65.2,11h-1V5h1V11z"/>
	<path class="st0" d="M71.4,11h-1V7c0-0.4-0.1-0.7-0.2-0.9c-0.2-0.2-0.4-0.3-0.8-0.3c-0.3,0-0.6,0.1-0.8,0.3
		c-0.3,0.2-0.5,0.4-0.7,0.6V11h-1V5h0.9l0.1,0.7c0.3-0.3,0.6-0.5,0.8-0.7c0.3-0.1,0.6-0.2,1-0.2c0.6,0,1,0.2,1.3,0.5
		c0.3,0.3,0.5,0.7,0.5,1.3V11z"/>
	<path class="st0" d="M73.7,8.3c0,0.3,0,0.5,0.1,0.7c0.1,0.2,0.2,0.4,0.3,0.6c0.1,0.2,0.3,0.3,0.5,0.4c0.2,0.1,0.5,0.2,0.8,0.2
		c0.5,0,1.1-0.1,1.7-0.4v0.9c-0.3,0.1-0.6,0.2-0.9,0.3c-0.3,0.1-0.7,0.1-1,0.1c-0.5,0-0.9-0.1-1.2-0.2c-0.3-0.2-0.6-0.4-0.8-0.6
		c-0.2-0.3-0.4-0.6-0.5-1S72.7,8.5,72.7,8c0-0.4,0-0.8,0.1-1.2s0.3-0.7,0.5-1c0.2-0.3,0.5-0.5,0.8-0.7c0.3-0.2,0.7-0.3,1.1-0.3
		c0.4,0,0.8,0.1,1,0.2c0.3,0.2,0.5,0.4,0.7,0.6C77,6,77.1,6.3,77.2,6.7c0.1,0.3,0.1,0.7,0.1,1.1c0,0.1,0,0.2,0,0.3s0,0.2,0,0.2H73.7
		z M76.3,7.5c0-0.2,0-0.4,0-0.6S76.1,6.4,76,6.3C76,6.1,75.8,6,75.7,5.9S75.3,5.7,75,5.7c-0.2,0-0.4,0-0.5,0.1s-0.3,0.2-0.4,0.4
		s-0.2,0.3-0.3,0.5c-0.1,0.2-0.1,0.4-0.1,0.7H76.3z"/>
	<path class="st0" d="M83.3,2.2c0.2,0,0.3,0,0.5,0c0.2,0,0.3,0,0.4,0.1v0.8c-0.1,0-0.2-0.1-0.4-0.1c-0.2,0-0.3,0-0.5,0
		c-0.4,0-0.6,0.1-0.7,0.3s-0.2,0.4-0.2,0.8V5h1.7v0.8h-1.7V11h-1V5.9h-1.1V5h1.1V4.1c0-0.7,0.2-1.1,0.5-1.5
		C82.1,2.4,82.6,2.2,83.3,2.2z"/>
	<path class="st0" d="M86,6c0.2-0.3,0.4-0.6,0.7-0.8c0.3-0.2,0.6-0.3,1-0.3c0.1,0,0.2,0,0.4,0v0.8c-0.1,0-0.1,0-0.2,0
		c0,0-0.1,0-0.2,0c-0.3,0-0.6,0.1-0.9,0.2c-0.3,0.1-0.6,0.3-0.8,0.6V11h-1V5h0.9L86,6z"/>
	<path class="st0" d="M93.5,8c0,0.4,0,0.8-0.1,1.2c-0.1,0.4-0.2,0.7-0.5,1s-0.5,0.5-0.8,0.7c-0.3,0.2-0.7,0.2-1.2,0.2
		c-0.4,0-0.8-0.1-1.2-0.2s-0.6-0.4-0.8-0.7c-0.2-0.3-0.4-0.6-0.5-1c-0.1-0.4-0.1-0.8-0.1-1.2c0-0.4,0-0.8,0.1-1.2
		c0.1-0.4,0.2-0.7,0.4-1c0.2-0.3,0.5-0.5,0.8-0.7c0.3-0.2,0.7-0.3,1.2-0.3c0.5,0,0.8,0.1,1.2,0.3c0.3,0.2,0.6,0.4,0.8,0.7
		s0.4,0.6,0.4,1C93.4,7.2,93.5,7.6,93.5,8z M92.5,8c0-0.3,0-0.5-0.1-0.8c0-0.3-0.1-0.5-0.2-0.7c-0.1-0.2-0.3-0.4-0.5-0.5
		c-0.2-0.1-0.5-0.2-0.8-0.2c-0.3,0-0.6,0.1-0.8,0.2c-0.2,0.1-0.4,0.3-0.5,0.5c-0.1,0.2-0.2,0.4-0.2,0.7c0,0.3-0.1,0.5-0.1,0.8
		c0,0.3,0,0.6,0.1,0.8s0.1,0.5,0.2,0.7c0.1,0.2,0.3,0.4,0.5,0.5c0.2,0.1,0.5,0.2,0.8,0.2c0.3,0,0.6-0.1,0.8-0.2
		c0.2-0.1,0.4-0.3,0.5-0.5c0.1-0.2,0.2-0.5,0.2-0.7S92.5,8.3,92.5,8z"/>
	<path class="st0" d="M99.1,11h-1V7c0-0.4-0.1-0.7-0.2-0.9c-0.1-0.2-0.4-0.3-0.7-0.3c-0.2,0-0.5,0.1-0.7,0.3
		c-0.2,0.2-0.5,0.4-0.7,0.6V11h-1V5h0.9l0.1,0.7c0.2-0.2,0.5-0.4,0.7-0.6c0.3-0.2,0.6-0.3,0.9-0.3c0.7,0,1.2,0.3,1.4,0.9
		c0.3-0.3,0.6-0.5,0.9-0.6c0.3-0.2,0.6-0.3,1-0.3c0.5,0,0.9,0.2,1.2,0.5c0.3,0.3,0.4,0.8,0.4,1.3V11h-1V7c0-0.2,0-0.3,0-0.5
		c0-0.1-0.1-0.3-0.1-0.4s-0.2-0.2-0.3-0.3c-0.1-0.1-0.3-0.1-0.4-0.1c-0.2,0-0.5,0.1-0.7,0.2c-0.3,0.1-0.5,0.3-0.7,0.5
		c0,0,0,0.1,0,0.2c0,0.1,0,0.1,0,0.2V11z"/>
	<path class="st0" d="M106.1,10.1h1.1l0.5-3.3h-1.2V6h1.3l0.1-0.7c0.2-1.1,0.5-1.9,1-2.4c0.5-0.5,1.1-0.7,1.9-0.7
		c0.5,0,0.8,0.1,1.1,0.2v0.9c-0.2-0.1-0.3-0.1-0.5-0.2c-0.2,0-0.4-0.1-0.6-0.1c-0.2,0-0.4,0-0.6,0.1c-0.2,0.1-0.4,0.2-0.5,0.3
		c-0.2,0.2-0.3,0.4-0.4,0.7c-0.1,0.3-0.2,0.6-0.3,1.1L108.9,6h2.4v0.8h-2.6l-0.5,3.3h3.7V11h-5.9V10.1z"/>
	<path class="st0" d="M116.7,10.1h1.9V11h-4.9v-0.9h1.9V3.2l-1.9,0.5V2.8l2.1-0.5h0.8V10.1z"/>
	<path class="st0" d="M125,4.4c0,0.3,0,0.6-0.1,0.8s-0.2,0.4-0.3,0.6c-0.1,0.2-0.3,0.3-0.5,0.4c-0.2,0.1-0.4,0.2-0.6,0.3
		c0.5,0.1,0.9,0.4,1.2,0.7s0.4,0.8,0.4,1.4c0,0.9-0.3,1.5-0.8,1.9c-0.5,0.4-1.3,0.6-2.2,0.6c-0.4,0-0.7,0-1.1-0.1
		c-0.3-0.1-0.6-0.1-0.8-0.2V9.9c0.3,0.1,0.6,0.2,0.9,0.3c0.3,0.1,0.6,0.1,0.9,0.1c0.3,0,0.5,0,0.8-0.1c0.2-0.1,0.4-0.2,0.6-0.3
		s0.3-0.3,0.4-0.5c0.1-0.2,0.1-0.5,0.1-0.8c0-0.3,0-0.5-0.1-0.7c-0.1-0.2-0.2-0.4-0.4-0.5c-0.2-0.1-0.4-0.2-0.6-0.3
		c-0.2-0.1-0.5-0.1-0.8-0.1h-1V6h0.9c0.2,0,0.4,0,0.6-0.1s0.4-0.1,0.6-0.3c0.2-0.1,0.3-0.3,0.4-0.5s0.2-0.4,0.2-0.7
		c0-0.3,0-0.5-0.1-0.7c-0.1-0.2-0.2-0.3-0.4-0.4c-0.2-0.1-0.3-0.2-0.5-0.2s-0.4-0.1-0.6-0.1c-0.3,0-0.6,0-0.9,0.1s-0.5,0.1-0.8,0.2
		V2.5c0.3-0.1,0.5-0.2,0.9-0.2c0.3-0.1,0.7-0.1,1-0.1c0.3,0,0.7,0,0.9,0.1c0.3,0.1,0.6,0.2,0.8,0.4s0.4,0.4,0.5,0.7
		C124.9,3.7,125,4,125,4.4z"/>
	<path class="st0" d="M127.4,12.4h-1l3.1-10.1h1L127.4,12.4z"/>
	<path class="st0" d="M135.3,11h-1V7c0-0.4-0.1-0.7-0.2-0.9c-0.1-0.2-0.4-0.3-0.7-0.3c-0.2,0-0.5,0.1-0.7,0.3
		c-0.2,0.2-0.5,0.4-0.7,0.6V11h-1V5h0.9l0.1,0.7c0.2-0.2,0.5-0.4,0.7-0.6c0.3-0.2,0.6-0.3,0.9-0.3c0.7,0,1.2,0.3,1.4,0.9
		c0.3-0.3,0.6-0.5,0.9-0.6c0.3-0.2,0.6-0.3,1-0.3c0.5,0,0.9,0.2,1.2,0.5c0.3,0.3,0.4,0.8,0.4,1.3V11h-1V7c0-0.2,0-0.3,0-0.5
		c0-0.1-0.1-0.3-0.1-0.4s-0.2-0.2-0.3-0.3c-0.1-0.1-0.3-0.1-0.4-0.1c-0.2,0-0.5,0.1-0.7,0.2c-0.3,0.1-0.5,0.3-0.7,0.5
		c0,0,0,0.1,0,0.2c0,0.1,0,0.1,0,0.2V11z"/>
	<path class="st0" d="M144.9,8c0,0.4,0,0.8-0.1,1.2c-0.1,0.4-0.2,0.7-0.5,1s-0.5,0.5-0.8,0.7c-0.3,0.2-0.7,0.2-1.2,0.2
		c-0.4,0-0.8-0.1-1.2-0.2s-0.6-0.4-0.8-0.7c-0.2-0.3-0.4-0.6-0.5-1c-0.1-0.4-0.1-0.8-0.1-1.2c0-0.4,0-0.8,0.1-1.2
		c0.1-0.4,0.2-0.7,0.4-1c0.2-0.3,0.5-0.5,0.8-0.7c0.3-0.2,0.7-0.3,1.2-0.3c0.5,0,0.8,0.1,1.2,0.3c0.3,0.2,0.6,0.4,0.8,0.7
		s0.4,0.6,0.4,1C144.9,7.2,144.9,7.6,144.9,8z M143.9,8c0-0.3,0-0.5-0.1-0.8c0-0.3-0.1-0.5-0.2-0.7c-0.1-0.2-0.3-0.4-0.5-0.5
		c-0.2-0.1-0.5-0.2-0.8-0.2c-0.3,0-0.6,0.1-0.8,0.2c-0.2,0.1-0.4,0.3-0.5,0.5c-0.1,0.2-0.2,0.4-0.2,0.7c0,0.3-0.1,0.5-0.1,0.8
		c0,0.3,0,0.6,0.1,0.8s0.1,0.5,0.2,0.7c0.1,0.2,0.3,0.4,0.5,0.5c0.2,0.1,0.5,0.2,0.8,0.2c0.3,0,0.6-0.1,0.8-0.2
		c0.2-0.1,0.4-0.3,0.5-0.5c0.1-0.2,0.2-0.5,0.2-0.7S143.9,8.3,143.9,8z"/>
	<path class="st0" d="M150.7,11h-1V7c0-0.4-0.1-0.7-0.2-0.9c-0.2-0.2-0.4-0.3-0.8-0.3c-0.3,0-0.6,0.1-0.8,0.3
		c-0.3,0.2-0.5,0.4-0.7,0.6V11h-1V5h0.9l0.1,0.7c0.3-0.3,0.6-0.5,0.8-0.7c0.3-0.1,0.6-0.2,1-0.2c0.6,0,1,0.2,1.3,0.5
		c0.3,0.3,0.5,0.7,0.5,1.3V11z"/>
	<path class="st0" d="M153.7,5h1.5v0.8h-1.5v3.5c0,0.3,0.1,0.5,0.2,0.7s0.3,0.2,0.7,0.2c0.2,0,0.3,0,0.5,0s0.3-0.1,0.4-0.1v0.8
		c-0.2,0.1-0.4,0.1-0.5,0.1c-0.2,0-0.4,0-0.6,0c-0.6,0-1-0.1-1.2-0.4c-0.3-0.2-0.4-0.6-0.4-1.2V5.9h-1.1V5h1.1V3.4h1V5z"/>
	<path class="st0" d="M161.1,11h-1v-4c0-0.4-0.1-0.7-0.2-0.9c-0.2-0.2-0.4-0.3-0.9-0.3c-0.2,0-0.5,0.1-0.7,0.2
		c-0.2,0.1-0.5,0.3-0.7,0.6V11h-1V2.3h1v3.4c0.2-0.2,0.5-0.4,0.7-0.6s0.6-0.3,1-0.3c0.6,0,1,0.2,1.3,0.5c0.3,0.3,0.5,0.7,0.5,1.3V11
		z"/>
	<path class="st0" d="M164.2,10.3c0,0.2-0.1,0.4-0.2,0.6c-0.2,0.2-0.4,0.2-0.6,0.2c-0.2,0-0.4-0.1-0.6-0.2c-0.2-0.1-0.2-0.3-0.2-0.6
		c0-0.2,0.1-0.5,0.2-0.6c0.2-0.2,0.4-0.2,0.6-0.2c0.2,0,0.4,0.1,0.6,0.2C164.2,9.8,164.2,10,164.2,10.3z"/>
</g>
<rect class="st1" width="167.5" height="15.7"/>
</svg>
