<!-- Generator: Adobe Illustrator 19.0.1, SVG Export Plug-In  -->
<svg version="1.1"
	 xmlns="http://www.w3.org/2000/svg" xmlns:xlink="http://www.w3.org/1999/xlink" xmlns:a="http://ns.adobe.com/AdobeSVGViewerExtensions/3.0/"
	 x="0px" y="0px" width="287.6px" height="26.2px" viewBox="0 0 287.6 26.2" style="enable-background:new 0 0 287.6 26.2;"
	 xml:space="preserve">
<style type="text/css">
	.st0{fill:#FFFFFF;}
	.st1{fill:none;}
</style>
<defs>
</defs>
<g>
	<path class="st0" d="M10.9,19.8c1.2,0,2-0.3,2.6-1c0.5-0.6,0.8-1.5,0.8-2.5V4.1h2.1v12c0,1.7-0.5,3.1-1.4,4.1
		c-0.9,1-2.3,1.5-4.2,1.5c-1.7,0-3.1-0.4-4.1-1.3c-1-0.9-1.5-2.2-1.5-4V4.1h2.1V16c0,1.3,0.3,2.3,1,2.9S9.9,19.8,10.9,19.8z"/>
	<path class="st0" d="M28.7,21.4h-2v-8c0-0.8-0.2-1.4-0.5-1.8c-0.3-0.4-0.8-0.6-1.6-0.6c-0.6,0-1.1,0.2-1.6,0.5
		c-0.5,0.3-1,0.7-1.3,1.1v8.8h-2V9.5h1.7l0.2,1.5c0.6-0.6,1.1-1,1.7-1.3c0.5-0.3,1.2-0.4,1.9-0.4c1.1,0,2,0.3,2.6,0.9
		c0.6,0.6,0.9,1.5,0.9,2.6V21.4z"/>
	<path class="st0" d="M33.7,21.4h-2V4.1h2V21.4z"/>
	<path class="st0" d="M36.5,5.1c0-0.4,0.1-0.7,0.4-1c0.3-0.3,0.6-0.4,1-0.4c0.4,0,0.7,0.1,1,0.4c0.3,0.3,0.4,0.6,0.4,1
		c0,0.4-0.1,0.7-0.4,1c-0.3,0.3-0.6,0.4-1,0.4c-0.4,0-0.7-0.1-1-0.4C36.7,5.8,36.5,5.5,36.5,5.1z M38.9,21.4h-2V9.5h2V21.4z"/>
	<path class="st0" d="M50.6,21.4h-2v-8c0-0.7-0.1-1.3-0.4-1.8s-0.7-0.7-1.4-0.7c-0.5,0-1,0.2-1.5,0.5c-0.5,0.3-0.9,0.7-1.3,1.1v8.8
		h-2V9.5h1.7L44,11c0.4-0.5,0.9-0.9,1.5-1.2c0.5-0.4,1.2-0.5,1.9-0.5c1.4,0,2.3,0.6,2.9,1.8c0.5-0.5,1.1-0.9,1.7-1.3
		c0.6-0.3,1.2-0.5,1.9-0.5c1.1,0,1.9,0.3,2.4,1s0.8,1.5,0.8,2.6v8.6h-2v-8c0-0.4,0-0.7-0.1-1c0-0.3-0.1-0.6-0.3-0.8
		c-0.1-0.2-0.3-0.4-0.6-0.5c-0.2-0.1-0.5-0.2-0.9-0.2c-0.5,0-0.9,0.1-1.5,0.4c-0.5,0.3-1,0.6-1.4,1c0,0.1,0,0.2,0,0.4
		c0,0.1,0,0.3,0,0.4V21.4z"/>
	<path class="st0" d="M59.8,5.1c0-0.4,0.1-0.7,0.4-1c0.3-0.3,0.6-0.4,1-0.4c0.4,0,0.7,0.1,1,0.4c0.3,0.3,0.4,0.6,0.4,1
		c0,0.4-0.1,0.7-0.4,1c-0.3,0.3-0.6,0.4-1,0.4c-0.4,0-0.7-0.1-1-0.4C60,5.8,59.8,5.5,59.8,5.1z M62.2,21.4h-2V9.5h2V21.4z"/>
	<path class="st0" d="M68.1,9.5h3.1v1.7h-3.1v7c0,0.6,0.1,1.1,0.4,1.3c0.2,0.3,0.7,0.4,1.3,0.4c0.4,0,0.7,0,1-0.1
		c0.3-0.1,0.6-0.2,0.8-0.3v1.7c-0.3,0.1-0.7,0.2-1.1,0.3c-0.4,0.1-0.8,0.1-1.1,0.1c-1.1,0-1.9-0.2-2.5-0.7c-0.5-0.5-0.8-1.3-0.8-2.4
		v-7.3h-2.2V9.5h2.2V6.3h2V9.5z"/>
	<path class="st0" d="M74.5,16c0,0.5,0.1,1,0.2,1.5c0.1,0.5,0.3,0.9,0.6,1.3c0.3,0.4,0.6,0.7,1.1,0.9c0.5,0.2,1,0.3,1.7,0.3
		c1.1,0,2.2-0.3,3.3-0.8v1.7c-0.5,0.3-1.1,0.4-1.8,0.6c-0.7,0.1-1.3,0.2-1.9,0.2c-0.9,0-1.7-0.2-2.4-0.5c-0.7-0.3-1.2-0.7-1.6-1.3
		c-0.4-0.5-0.7-1.2-0.9-2c-0.2-0.8-0.3-1.6-0.3-2.5c0-0.8,0.1-1.6,0.3-2.4c0.2-0.8,0.5-1.4,0.9-2s0.9-1,1.5-1.3
		c0.6-0.3,1.3-0.5,2.2-0.5c0.8,0,1.5,0.2,2.1,0.5s1,0.7,1.4,1.2c0.4,0.5,0.6,1.1,0.8,1.8c0.2,0.7,0.2,1.4,0.2,2.1c0,0.3,0,0.5,0,0.6
		c0,0.2,0,0.3,0,0.5H74.5z M79.7,14.3c0-0.4,0-0.9-0.1-1.3c-0.1-0.4-0.2-0.8-0.4-1.1c-0.2-0.3-0.4-0.6-0.8-0.8
		c-0.3-0.2-0.8-0.3-1.3-0.3c-0.4,0-0.8,0.1-1.1,0.3c-0.3,0.2-0.6,0.4-0.8,0.7c-0.2,0.3-0.4,0.7-0.5,1.1c-0.1,0.4-0.2,0.9-0.2,1.4
		H79.7z"/>
	<path class="st0" d="M93.1,21.4h-1.7l-0.2-1.1c-0.3,0.3-0.7,0.6-1.2,0.9c-0.5,0.3-1.1,0.4-1.9,0.4c-0.8,0-1.5-0.2-2.1-0.5
		s-1.1-0.7-1.5-1.3c-0.4-0.5-0.7-1.2-0.8-1.9c-0.2-0.7-0.3-1.5-0.3-2.4c0-0.9,0.1-1.7,0.3-2.5c0.2-0.8,0.5-1.5,0.9-2
		c0.4-0.6,0.9-1,1.5-1.4s1.4-0.5,2.2-0.5c0.6,0,1.1,0.1,1.6,0.3c0.5,0.2,0.8,0.4,1.1,0.7V4.1h2V21.4z M91.1,11.8
		c-0.4-0.3-0.7-0.5-1.1-0.6c-0.4-0.2-0.8-0.3-1.3-0.3c-0.6,0-1.2,0.1-1.6,0.4c-0.4,0.2-0.7,0.6-1,1c-0.2,0.4-0.4,0.9-0.5,1.4
		s-0.1,1.1-0.1,1.8c0,0.6,0.1,1.2,0.2,1.7c0.1,0.5,0.3,1,0.5,1.4c0.2,0.4,0.6,0.7,1,1c0.4,0.2,0.9,0.4,1.5,0.4c0.9,0,1.7-0.3,2.5-1
		V11.8z"/>
	<path class="st0" d="M110.6,15.2c0,0.9-0.1,1.8-0.3,2.6c-0.2,0.8-0.5,1.5-0.9,2.1c-0.4,0.6-1,1-1.6,1.3c-0.7,0.3-1.5,0.5-2.5,0.5
		c-0.4,0-0.7,0-1.1-0.1c-0.4,0-0.8-0.1-1.2-0.2s-0.8-0.2-1.1-0.3c-0.4-0.1-0.7-0.3-0.9-0.4V4.1h2v6.6c0.5-0.4,0.9-0.8,1.4-1.1
		s1.1-0.4,1.9-0.4c0.8,0,1.5,0.2,2,0.5c0.5,0.3,1,0.8,1.3,1.3c0.3,0.6,0.6,1.2,0.7,1.9C110.5,13.7,110.6,14.4,110.6,15.2z
		 M108.5,15.3c0-0.5,0-1.1-0.1-1.6c-0.1-0.5-0.3-1-0.5-1.4c-0.2-0.4-0.5-0.7-0.9-1s-0.8-0.4-1.4-0.4c-0.5,0-1,0.1-1.5,0.4
		s-0.9,0.6-1.3,1v7.1c0.4,0.2,0.7,0.3,1.1,0.4c0.4,0.1,0.8,0.2,1.3,0.2c0.6,0,1.1-0.1,1.5-0.4c0.4-0.2,0.7-0.6,1-1
		c0.2-0.4,0.4-0.9,0.5-1.5C108.4,16.5,108.5,15.9,108.5,15.3z"/>
	<path class="st0" d="M112.9,9.5h2v8c0,0.8,0.2,1.4,0.5,1.8c0.3,0.4,0.8,0.7,1.6,0.7c0.6,0,1.1-0.2,1.6-0.5c0.5-0.3,1-0.7,1.3-1.1
		V9.5h2v11.9h-1.7l-0.2-1.5c-0.2,0.2-0.4,0.4-0.7,0.6s-0.5,0.4-0.8,0.6c-0.3,0.2-0.6,0.3-1,0.4c-0.4,0.1-0.7,0.2-1.2,0.2
		c-1.1,0-2-0.3-2.6-0.9c-0.6-0.6-0.9-1.5-0.9-2.6V9.5z"/>
	<path class="st0" d="M131.4,18.1c0,0.6-0.1,1.1-0.3,1.6c-0.2,0.4-0.5,0.8-0.9,1.1c-0.4,0.3-0.8,0.5-1.2,0.6c-0.5,0.1-1,0.2-1.5,0.2
		c-0.6,0-1.1-0.1-1.7-0.2c-0.6-0.1-1.1-0.3-1.7-0.5v-1.8c0.5,0.2,1,0.4,1.5,0.6c0.5,0.2,1.1,0.3,1.7,0.3c0.6,0,1.1-0.1,1.5-0.4
		c0.4-0.2,0.6-0.7,0.6-1.2c0-0.4-0.1-0.8-0.4-1.1c-0.2-0.3-0.6-0.5-0.9-0.8c-0.4-0.2-0.8-0.4-1.2-0.7c-0.4-0.2-0.8-0.5-1.2-0.7
		c-0.4-0.3-0.7-0.6-0.9-1c-0.2-0.4-0.4-0.9-0.4-1.6c0-0.5,0.1-0.9,0.3-1.4c0.2-0.4,0.5-0.8,0.8-1c0.3-0.3,0.7-0.5,1.2-0.6
		c0.5-0.2,1-0.2,1.5-0.2c1,0,1.9,0.2,2.9,0.6v1.9c-0.4-0.2-0.9-0.4-1.3-0.6c-0.4-0.2-0.9-0.2-1.5-0.2c-0.5,0-1,0.1-1.3,0.4
		c-0.3,0.2-0.5,0.6-0.5,1.1c0,0.4,0.1,0.7,0.4,1c0.2,0.3,0.5,0.5,0.9,0.7c0.4,0.2,0.8,0.4,1.2,0.6c0.4,0.2,0.8,0.5,1.2,0.7
		c0.4,0.3,0.7,0.6,0.9,1.1C131.3,16.9,131.4,17.5,131.4,18.1z"/>
	<path class="st0" d="M133.4,5.1c0-0.4,0.1-0.7,0.4-1c0.3-0.3,0.6-0.4,1-0.4c0.4,0,0.7,0.1,1,0.4c0.3,0.3,0.4,0.6,0.4,1
		c0,0.4-0.1,0.7-0.4,1c-0.3,0.3-0.6,0.4-1,0.4c-0.4,0-0.7-0.1-1-0.4C133.5,5.8,133.4,5.5,133.4,5.1z M135.7,21.4h-2V9.5h2V21.4z"/>
	<path class="st0" d="M147.9,21.4h-2v-8c0-0.8-0.2-1.4-0.5-1.8c-0.3-0.4-0.8-0.6-1.6-0.6c-0.6,0-1.1,0.2-1.6,0.5
		c-0.5,0.3-1,0.7-1.3,1.1v8.8h-2V9.5h1.7l0.2,1.5c0.6-0.6,1.1-1,1.7-1.3c0.5-0.3,1.2-0.4,1.9-0.4c1.1,0,2,0.3,2.6,0.9
		c0.6,0.6,0.9,1.5,0.9,2.6V21.4z"/>
	<path class="st0" d="M152.2,16c0,0.5,0.1,1,0.2,1.5c0.1,0.5,0.3,0.9,0.6,1.3c0.3,0.4,0.6,0.7,1.1,0.9c0.5,0.2,1,0.3,1.7,0.3
		c1.1,0,2.2-0.3,3.3-0.8v1.7c-0.5,0.3-1.1,0.4-1.8,0.6c-0.7,0.1-1.3,0.2-1.9,0.2c-0.9,0-1.7-0.2-2.4-0.5c-0.7-0.3-1.2-0.7-1.6-1.3
		c-0.4-0.5-0.7-1.2-0.9-2c-0.2-0.8-0.3-1.6-0.3-2.5c0-0.8,0.1-1.6,0.3-2.4c0.2-0.8,0.5-1.4,0.9-2s0.9-1,1.5-1.3
		c0.6-0.3,1.3-0.5,2.2-0.5c0.8,0,1.5,0.2,2.1,0.5s1,0.7,1.4,1.2c0.4,0.5,0.6,1.1,0.8,1.8c0.2,0.7,0.2,1.4,0.2,2.1c0,0.3,0,0.5,0,0.6
		c0,0.2,0,0.3,0,0.5H152.2z M157.4,14.3c0-0.4,0-0.9-0.1-1.3c-0.1-0.4-0.2-0.8-0.4-1.1s-0.4-0.6-0.8-0.8c-0.3-0.2-0.8-0.3-1.3-0.3
		c-0.4,0-0.8,0.1-1.1,0.3c-0.3,0.2-0.6,0.4-0.8,0.7c-0.2,0.3-0.4,0.7-0.5,1.1c-0.1,0.4-0.2,0.9-0.2,1.4H157.4z"/>
	<path class="st0" d="M168.4,18.1c0,0.6-0.1,1.1-0.3,1.6c-0.2,0.4-0.5,0.8-0.9,1.1c-0.4,0.3-0.8,0.5-1.2,0.6c-0.5,0.1-1,0.2-1.5,0.2
		c-0.6,0-1.1-0.1-1.7-0.2c-0.6-0.1-1.1-0.3-1.7-0.5v-1.8c0.5,0.2,1,0.4,1.5,0.6c0.5,0.2,1.1,0.3,1.7,0.3c0.6,0,1.1-0.1,1.5-0.4
		c0.4-0.2,0.6-0.7,0.6-1.2c0-0.4-0.1-0.8-0.4-1.1c-0.2-0.3-0.6-0.5-0.9-0.8c-0.4-0.2-0.8-0.4-1.2-0.7c-0.4-0.2-0.8-0.5-1.2-0.7
		c-0.4-0.3-0.7-0.6-0.9-1c-0.2-0.4-0.4-0.9-0.4-1.6c0-0.5,0.1-0.9,0.3-1.4c0.2-0.4,0.5-0.8,0.8-1c0.3-0.3,0.7-0.5,1.2-0.6
		c0.5-0.2,1-0.2,1.5-0.2c1,0,1.9,0.2,2.9,0.6v1.9c-0.4-0.2-0.9-0.4-1.3-0.6c-0.4-0.2-0.9-0.2-1.5-0.2c-0.5,0-1,0.1-1.3,0.4
		c-0.3,0.2-0.5,0.6-0.5,1.1c0,0.4,0.1,0.7,0.4,1c0.2,0.3,0.5,0.5,0.9,0.7c0.4,0.2,0.8,0.4,1.2,0.6s0.8,0.5,1.2,0.7
		c0.4,0.3,0.7,0.6,0.9,1.1C168.3,16.9,168.4,17.5,168.4,18.1z"/>
	<path class="st0" d="M177.1,18.1c0,0.6-0.1,1.1-0.3,1.6c-0.2,0.4-0.5,0.8-0.9,1.1c-0.4,0.3-0.8,0.5-1.2,0.6c-0.5,0.1-1,0.2-1.5,0.2
		c-0.6,0-1.1-0.1-1.7-0.2c-0.6-0.1-1.1-0.3-1.7-0.5v-1.8c0.5,0.2,1,0.4,1.5,0.6s1.1,0.3,1.7,0.3c0.6,0,1.1-0.1,1.5-0.4
		c0.4-0.2,0.6-0.7,0.6-1.2c0-0.4-0.1-0.8-0.4-1.1c-0.2-0.3-0.6-0.5-0.9-0.8c-0.4-0.2-0.8-0.4-1.2-0.7c-0.4-0.2-0.8-0.5-1.2-0.7
		c-0.4-0.3-0.7-0.6-0.9-1s-0.4-0.9-0.4-1.6c0-0.5,0.1-0.9,0.3-1.4c0.2-0.4,0.5-0.8,0.8-1c0.3-0.3,0.7-0.5,1.2-0.6
		c0.5-0.2,1-0.2,1.5-0.2c1,0,1.9,0.2,2.9,0.6v1.9c-0.4-0.2-0.9-0.4-1.3-0.6c-0.4-0.2-0.9-0.2-1.5-0.2c-0.5,0-1,0.1-1.3,0.4
		c-0.3,0.2-0.5,0.6-0.5,1.1c0,0.4,0.1,0.7,0.4,1c0.2,0.3,0.5,0.5,0.9,0.7c0.4,0.2,0.8,0.4,1.2,0.6s0.8,0.5,1.2,0.7
		c0.4,0.3,0.7,0.6,0.9,1.1C177,16.9,177.1,17.5,177.1,18.1z"/>
	<path class="st0" d="M193.7,15.2c0,0.9-0.1,1.8-0.3,2.6c-0.2,0.8-0.5,1.5-0.9,2.1c-0.4,0.6-1,1-1.6,1.3s-1.5,0.5-2.5,0.5
		c-0.4,0-0.7,0-1.1-0.1c-0.4,0-0.8-0.1-1.2-0.2s-0.8-0.2-1.1-0.3c-0.4-0.1-0.7-0.3-0.9-0.4V4.1h2v6.6c0.5-0.4,0.9-0.8,1.4-1.1
		c0.5-0.3,1.1-0.4,1.9-0.4c0.8,0,1.5,0.2,2,0.5c0.5,0.3,1,0.8,1.3,1.3c0.3,0.6,0.6,1.2,0.7,1.9C193.6,13.7,193.7,14.4,193.7,15.2z
		 M191.7,15.3c0-0.5,0-1.1-0.1-1.6c-0.1-0.5-0.3-1-0.5-1.4s-0.5-0.7-0.9-1c-0.4-0.2-0.8-0.4-1.3-0.4c-0.5,0-1,0.1-1.5,0.4
		c-0.5,0.2-0.9,0.6-1.3,1v7.1c0.4,0.2,0.8,0.3,1.1,0.4c0.4,0.1,0.8,0.2,1.3,0.2c0.6,0,1.1-0.1,1.5-0.4c0.4-0.2,0.7-0.6,1-1
		c0.2-0.4,0.4-0.9,0.5-1.5C191.6,16.5,191.7,15.9,191.7,15.3z"/>
	<path class="st0" d="M198.1,11.4c0.3-0.6,0.8-1.1,1.4-1.5s1.2-0.7,1.9-0.7c0.2,0,0.5,0,0.7,0.1v1.6c-0.1,0-0.2,0-0.3,0
		s-0.2,0-0.3,0c-0.6,0-1.1,0.1-1.7,0.4c-0.6,0.3-1.1,0.7-1.6,1.2v8.9h-2V9.5h1.7L198.1,11.4z"/>
	<path class="st0" d="M212.9,15.5c0,0.8-0.1,1.6-0.3,2.4c-0.2,0.7-0.5,1.4-0.9,2s-0.9,1-1.6,1.3c-0.6,0.3-1.4,0.5-2.3,0.5
		c-0.9,0-1.7-0.2-2.3-0.5s-1.2-0.8-1.6-1.3s-0.7-1.2-0.9-2s-0.3-1.5-0.3-2.4c0-0.8,0.1-1.6,0.3-2.4s0.5-1.4,0.9-2s0.9-1,1.6-1.4
		c0.6-0.3,1.4-0.5,2.3-0.5s1.7,0.2,2.3,0.5c0.6,0.3,1.2,0.8,1.6,1.4c0.4,0.6,0.7,1.2,0.9,2C212.8,13.9,212.9,14.6,212.9,15.5z
		 M210.8,15.4c0-0.5,0-1.1-0.1-1.6c-0.1-0.5-0.2-1-0.4-1.4c-0.2-0.4-0.5-0.8-0.9-1c-0.4-0.3-0.9-0.4-1.6-0.4c-0.7,0-1.2,0.1-1.6,0.4
		c-0.4,0.3-0.7,0.6-0.9,1c-0.2,0.4-0.4,0.9-0.4,1.4c-0.1,0.5-0.1,1.1-0.1,1.6c0,0.6,0,1.1,0.1,1.7s0.2,1,0.5,1.5
		c0.2,0.4,0.5,0.8,0.9,1c0.4,0.3,0.9,0.4,1.5,0.4c0.6,0,1.2-0.1,1.6-0.4s0.7-0.6,0.9-1c0.2-0.4,0.4-0.9,0.4-1.5
		C210.8,16.5,210.8,16,210.8,15.4z"/>
	<path class="st0" d="M221.4,21.4l-0.2-1c-0.4,0.3-0.8,0.6-1.3,0.8s-1.1,0.4-1.8,0.4c-1.1,0-2-0.3-2.7-1c-0.7-0.6-1-1.5-1-2.7
		c0-0.7,0.1-1.3,0.3-1.8c0.2-0.5,0.5-0.9,1-1.3c0.4-0.3,0.9-0.6,1.5-0.8c0.6-0.2,1.2-0.3,1.9-0.3h2.1v-0.6c0-0.9-0.2-1.5-0.5-1.8
		c-0.4-0.3-1-0.5-1.8-0.5c-0.5,0-1,0.1-1.6,0.2c-0.6,0.1-1.1,0.3-1.6,0.5V9.7c0.4-0.1,0.9-0.2,1.6-0.3s1.3-0.2,1.9-0.2
		c1.4,0,2.4,0.3,3.1,1c0.6,0.6,1,1.7,1,3v8.2H221.4z M221.1,15.6h-1.9c-0.9,0-1.5,0.2-2,0.5c-0.5,0.3-0.7,0.9-0.7,1.7
		c0,0.7,0.2,1.2,0.5,1.6c0.4,0.4,0.9,0.5,1.6,0.5c0.5,0,1-0.1,1.4-0.3s0.8-0.4,1.1-0.7V15.6z"/>
	<path class="st0" d="M235,21.4h-1.7l-0.2-1.1c-0.3,0.3-0.7,0.6-1.2,0.9c-0.5,0.3-1.1,0.4-1.9,0.4c-0.8,0-1.5-0.2-2.1-0.5
		c-0.6-0.3-1.1-0.7-1.5-1.3c-0.4-0.5-0.7-1.2-0.8-1.9c-0.2-0.7-0.3-1.5-0.3-2.4c0-0.9,0.1-1.7,0.3-2.5c0.2-0.8,0.5-1.5,0.9-2
		s0.9-1,1.5-1.4s1.4-0.5,2.2-0.5c0.6,0,1.1,0.1,1.6,0.3c0.5,0.2,0.8,0.4,1.1,0.7V4.1h2V21.4z M233,11.8c-0.4-0.3-0.7-0.5-1.1-0.6
		c-0.4-0.2-0.8-0.3-1.3-0.3c-0.6,0-1.2,0.1-1.6,0.4c-0.4,0.2-0.7,0.6-1,1c-0.2,0.4-0.4,0.9-0.5,1.4s-0.1,1.1-0.1,1.8
		c0,0.6,0.1,1.2,0.2,1.7c0.1,0.5,0.3,1,0.5,1.4s0.6,0.7,1,1s0.9,0.4,1.5,0.4c0.9,0,1.7-0.3,2.5-1V11.8z"/>
	<path class="st0" d="M247.8,15.2c0,0.9-0.1,1.8-0.3,2.6s-0.5,1.5-0.9,2.1c-0.4,0.6-1,1-1.6,1.3c-0.7,0.3-1.5,0.5-2.5,0.5
		c-0.4,0-0.7,0-1.1-0.1c-0.4,0-0.8-0.1-1.2-0.2c-0.4-0.1-0.8-0.2-1.1-0.3c-0.4-0.1-0.7-0.3-0.9-0.4V4.1h2v6.6
		c0.5-0.4,0.9-0.8,1.4-1.1s1.1-0.4,1.9-0.4c0.8,0,1.5,0.2,2,0.5c0.5,0.3,1,0.8,1.3,1.3c0.3,0.6,0.6,1.2,0.7,1.9
		C247.8,13.7,247.8,14.4,247.8,15.2z M245.8,15.3c0-0.5,0-1.1-0.1-1.6c-0.1-0.5-0.3-1-0.5-1.4c-0.2-0.4-0.5-0.7-0.9-1
		s-0.8-0.4-1.3-0.4c-0.5,0-1,0.1-1.5,0.4s-0.9,0.6-1.3,1v7.1c0.4,0.2,0.7,0.3,1.1,0.4c0.4,0.1,0.8,0.2,1.3,0.2
		c0.6,0,1.1-0.1,1.5-0.4c0.4-0.2,0.7-0.6,1-1c0.2-0.4,0.4-0.9,0.5-1.5C245.7,16.5,245.8,15.9,245.8,15.3z"/>
	<path class="st0" d="M256.4,21.4l-0.2-1c-0.4,0.3-0.8,0.6-1.3,0.8c-0.5,0.3-1.1,0.4-1.8,0.4c-1.1,0-2-0.3-2.7-1
		c-0.7-0.6-1-1.5-1-2.7c0-0.7,0.1-1.3,0.3-1.8c0.2-0.5,0.6-0.9,1-1.3s0.9-0.6,1.5-0.8s1.2-0.3,1.9-0.3h2.1v-0.6
		c0-0.9-0.2-1.5-0.5-1.8s-1-0.5-1.8-0.5c-0.5,0-1,0.1-1.6,0.2c-0.6,0.1-1.1,0.3-1.6,0.5V9.7c0.4-0.1,0.9-0.2,1.6-0.3
		s1.3-0.2,1.9-0.2c1.4,0,2.4,0.3,3.1,1s1,1.7,1,3v8.2H256.4z M256.1,15.6h-1.9c-0.9,0-1.5,0.2-2,0.5c-0.5,0.3-0.7,0.9-0.7,1.7
		c0,0.7,0.2,1.2,0.5,1.6c0.4,0.4,0.9,0.5,1.6,0.5c0.5,0,1-0.1,1.4-0.3c0.4-0.2,0.8-0.4,1.1-0.7V15.6z"/>
	<path class="st0" d="M270,21.4h-2v-8c0-0.8-0.2-1.4-0.5-1.8c-0.3-0.4-0.8-0.6-1.6-0.6c-0.6,0-1.1,0.2-1.6,0.5
		c-0.5,0.3-1,0.7-1.3,1.1v8.8h-2V9.5h1.7l0.2,1.5c0.6-0.6,1.1-1,1.7-1.3c0.5-0.3,1.2-0.4,1.9-0.4c1.1,0,2,0.3,2.6,0.9
		c0.6,0.6,0.9,1.5,0.9,2.6V21.4z"/>
	<path class="st0" d="M282,21.4h-1.7l-0.2-1.1c-0.3,0.3-0.7,0.6-1.2,0.9c-0.5,0.3-1.1,0.4-1.9,0.4c-0.8,0-1.5-0.2-2.1-0.5
		c-0.6-0.3-1.1-0.7-1.5-1.3s-0.7-1.2-0.8-1.9s-0.3-1.5-0.3-2.4c0-0.9,0.1-1.7,0.3-2.5c0.2-0.8,0.5-1.5,0.9-2c0.4-0.6,0.9-1,1.5-1.4
		s1.4-0.5,2.2-0.5c0.6,0,1.1,0.1,1.6,0.3c0.5,0.2,0.8,0.4,1.1,0.7V4.1h2V21.4z M280,11.8c-0.4-0.3-0.7-0.5-1.1-0.6s-0.8-0.3-1.3-0.3
		c-0.6,0-1.2,0.1-1.6,0.4c-0.4,0.2-0.7,0.6-1,1c-0.2,0.4-0.4,0.9-0.5,1.4s-0.1,1.1-0.1,1.8c0,0.6,0.1,1.2,0.2,1.7
		c0.1,0.5,0.3,1,0.5,1.4c0.2,0.4,0.6,0.7,1,1c0.4,0.2,0.9,0.4,1.5,0.4c0.9,0,1.7-0.3,2.5-1V11.8z"/>
</g>
<rect class="st1" width="287.6" height="26.2"/>
</svg>
