<!-- Generator: Adobe Illustrator 19.0.1, SVG Export Plug-In  -->
<svg version="1.1"
	 xmlns="http://www.w3.org/2000/svg" xmlns:xlink="http://www.w3.org/1999/xlink" xmlns:a="http://ns.adobe.com/AdobeSVGViewerExtensions/3.0/"
	 x="0px" y="0px" width="294.2px" height="54.8px" viewBox="0 0 294.2 54.8" style="enable-background:new 0 0 294.2 54.8;"
	 xml:space="preserve">
<style type="text/css">
	.st0{fill:#FFFFFF;}
	.st1{fill:none;}
</style>
<defs>
</defs>
<g>
	<path class="st0" d="M10.8,21c1.2,0,2.1-0.3,2.7-1c0.6-0.7,0.9-1.5,0.9-2.6V4.6h2.2v12.5c0,1.8-0.5,3.2-1.4,4.2
		c-1,1-2.4,1.6-4.4,1.6c-1.8,0-3.2-0.5-4.3-1.4c-1-0.9-1.5-2.3-1.5-4.2V4.6H7V17c0,1.4,0.3,2.4,1,3S9.7,21,10.8,21z"/>
	<path class="st0" d="M29.2,22.6h-2.1v-8.4c0-0.8-0.2-1.4-0.5-1.9c-0.3-0.4-0.9-0.7-1.7-0.7c-0.6,0-1.2,0.2-1.7,0.5
		c-0.5,0.4-1,0.8-1.4,1.2v9.2h-2.1V10.3h1.8l0.2,1.5c0.6-0.6,1.2-1.1,1.7-1.4c0.6-0.3,1.2-0.5,2-0.5c1.1,0,2,0.3,2.7,1
		c0.6,0.6,1,1.5,1,2.7V22.6z"/>
	<path class="st0" d="M34.4,22.6h-2.1v-18h2.1V22.6z"/>
	<path class="st0" d="M37.2,5.7c0-0.4,0.1-0.7,0.4-1c0.3-0.3,0.6-0.4,1-0.4s0.7,0.1,1,0.4c0.3,0.3,0.4,0.6,0.4,1s-0.1,0.7-0.4,1
		c-0.3,0.3-0.6,0.4-1,0.4s-0.7-0.1-1-0.4C37.3,6.4,37.2,6.1,37.2,5.7z M39.7,22.6h-2.1V10.3h2.1V22.6z"/>
	<path class="st0" d="M51.8,22.6h-2.1v-8.4c0-0.8-0.1-1.4-0.4-1.9c-0.3-0.5-0.8-0.7-1.5-0.7c-0.5,0-1,0.2-1.5,0.5
		c-0.5,0.4-0.9,0.7-1.4,1.2v9.2h-2.1V10.3h1.8l0.2,1.5c0.5-0.5,1-0.9,1.5-1.3c0.6-0.4,1.2-0.6,2-0.6c1.5,0,2.4,0.6,3,1.9
		c0.6-0.5,1.2-1,1.8-1.3s1.3-0.5,2-0.5c1.1,0,2,0.3,2.6,1c0.6,0.7,0.9,1.6,0.9,2.7v9h-2.1v-8.4c0-0.4,0-0.7-0.1-1
		c-0.1-0.3-0.1-0.6-0.3-0.8c-0.1-0.2-0.3-0.4-0.6-0.5s-0.6-0.2-0.9-0.2c-0.5,0-1,0.2-1.5,0.5c-0.5,0.3-1,0.7-1.4,1
		c0,0.1,0,0.2,0,0.4c0,0.1,0,0.3,0,0.4V22.6z"/>
	<path class="st0" d="M61.3,5.7c0-0.4,0.1-0.7,0.4-1c0.3-0.3,0.6-0.4,1-0.4s0.7,0.1,1,0.4c0.3,0.3,0.4,0.6,0.4,1s-0.1,0.7-0.4,1
		c-0.3,0.3-0.6,0.4-1,0.4S62,7,61.7,6.7C61.5,6.4,61.3,6.1,61.3,5.7z M63.8,22.6h-2.1V10.3h2.1V22.6z"/>
	<path class="st0" d="M69.9,10.3h3.2V12h-3.2v7.3c0,0.6,0.1,1.1,0.4,1.4c0.3,0.3,0.7,0.4,1.4,0.4c0.4,0,0.7,0,1-0.1
		c0.3-0.1,0.6-0.2,0.9-0.3v1.8c-0.3,0.1-0.7,0.2-1.1,0.3c-0.4,0.1-0.8,0.1-1.2,0.1c-1.2,0-2-0.3-2.6-0.8c-0.5-0.5-0.8-1.3-0.8-2.5
		V12h-2.3v-1.8h2.3V7h2.1V10.3z"/>
	<path class="st0" d="M76.4,17.1c0,0.5,0.1,1.1,0.2,1.6s0.3,0.9,0.6,1.3c0.3,0.4,0.7,0.7,1.1,0.9c0.5,0.2,1.1,0.3,1.7,0.3
		c1.1,0,2.3-0.3,3.5-0.9v1.8c-0.5,0.3-1.1,0.5-1.8,0.6c-0.7,0.1-1.4,0.2-2,0.2c-0.9,0-1.8-0.2-2.5-0.5c-0.7-0.3-1.3-0.8-1.7-1.3
		c-0.5-0.6-0.8-1.2-1-2c-0.2-0.8-0.3-1.7-0.3-2.6c0-0.9,0.1-1.7,0.3-2.5c0.2-0.8,0.5-1.5,0.9-2c0.4-0.6,1-1.1,1.6-1.4
		s1.4-0.5,2.3-0.5c0.8,0,1.6,0.2,2.1,0.5c0.6,0.3,1.1,0.8,1.4,1.3s0.6,1.2,0.8,1.9c0.2,0.7,0.2,1.5,0.2,2.2c0,0.3,0,0.5,0,0.7
		c0,0.2,0,0.3,0,0.5H76.4z M81.8,15.3c0-0.5,0-0.9-0.1-1.3s-0.2-0.8-0.4-1.1c-0.2-0.3-0.5-0.6-0.8-0.8s-0.8-0.3-1.3-0.3
		c-0.4,0-0.8,0.1-1.1,0.3c-0.3,0.2-0.6,0.4-0.9,0.7c-0.2,0.3-0.4,0.7-0.6,1.1c-0.1,0.4-0.2,0.9-0.2,1.4H81.8z"/>
	<path class="st0" d="M95.8,22.6H94l-0.3-1.1c-0.3,0.3-0.8,0.6-1.3,0.9c-0.5,0.3-1.2,0.4-1.9,0.4c-0.9,0-1.6-0.2-2.2-0.5
		s-1.1-0.8-1.5-1.3c-0.4-0.6-0.7-1.2-0.9-2c-0.2-0.8-0.3-1.6-0.3-2.5c0-0.9,0.1-1.8,0.3-2.6c0.2-0.8,0.5-1.5,0.9-2.1
		c0.4-0.6,0.9-1.1,1.6-1.4s1.4-0.5,2.3-0.5c0.6,0,1.2,0.1,1.7,0.3s0.9,0.5,1.2,0.7V4.6h2.1V22.6z M93.7,12.7
		c-0.4-0.3-0.8-0.5-1.2-0.7c-0.4-0.2-0.9-0.3-1.4-0.3c-0.7,0-1.2,0.1-1.6,0.4c-0.4,0.3-0.8,0.6-1,1c-0.2,0.4-0.4,0.9-0.5,1.5
		s-0.1,1.2-0.1,1.8c0,0.6,0.1,1.2,0.2,1.8s0.3,1.1,0.5,1.5c0.3,0.4,0.6,0.8,1,1c0.4,0.3,0.9,0.4,1.5,0.4c0.9,0,1.8-0.3,2.6-1V12.7z"
		/>
	<path class="st0" d="M113.8,16.2c0,1-0.1,1.9-0.3,2.7c-0.2,0.8-0.5,1.5-0.9,2.1c-0.4,0.6-1,1.1-1.7,1.4c-0.7,0.3-1.6,0.5-2.6,0.5
		c-0.4,0-0.8,0-1.2-0.1c-0.4,0-0.8-0.1-1.2-0.2c-0.4-0.1-0.8-0.2-1.2-0.3c-0.4-0.1-0.7-0.3-1-0.4V4.6h2.1v6.9c0.5-0.5,1-0.8,1.5-1.1
		s1.2-0.4,2-0.4c0.8,0,1.5,0.2,2.1,0.5c0.6,0.3,1,0.8,1.4,1.4c0.4,0.6,0.6,1.2,0.8,2S113.8,15.4,113.8,16.2z M111.7,16.3
		c0-0.6-0.1-1.1-0.1-1.7c-0.1-0.5-0.3-1-0.5-1.5c-0.2-0.4-0.5-0.8-0.9-1c-0.4-0.3-0.8-0.4-1.4-0.4c-0.5,0-1,0.1-1.5,0.4
		c-0.5,0.3-1,0.6-1.4,1v7.4c0.4,0.2,0.8,0.3,1.2,0.4s0.9,0.2,1.3,0.2c0.6,0,1.2-0.1,1.6-0.4c0.4-0.3,0.8-0.6,1-1.1
		c0.3-0.4,0.4-1,0.5-1.6C111.6,17.6,111.7,16.9,111.7,16.3z"/>
	<path class="st0" d="M116.1,10.3h2.1v8.3c0,0.8,0.2,1.4,0.5,1.9c0.3,0.5,0.9,0.7,1.7,0.7c0.6,0,1.2-0.2,1.7-0.5
		c0.5-0.4,1-0.8,1.4-1.2v-9.1h2.1v12.3h-1.8l-0.2-1.5c-0.2,0.2-0.4,0.4-0.7,0.7s-0.5,0.4-0.8,0.6c-0.3,0.2-0.6,0.3-1,0.4
		s-0.8,0.2-1.2,0.2c-1.1,0-2-0.3-2.7-1c-0.6-0.6-1-1.5-1-2.7V10.3z"/>
	<path class="st0" d="M135.4,19.2c0,0.6-0.1,1.2-0.3,1.6c-0.2,0.5-0.5,0.9-0.9,1.2s-0.8,0.5-1.3,0.7c-0.5,0.2-1,0.2-1.6,0.2
		c-0.6,0-1.2-0.1-1.8-0.2c-0.6-0.1-1.2-0.3-1.8-0.5v-1.9c0.5,0.2,1,0.4,1.6,0.6c0.6,0.2,1.1,0.3,1.8,0.3c0.6,0,1.1-0.1,1.5-0.4
		s0.6-0.7,0.6-1.3c0-0.5-0.1-0.8-0.4-1.1c-0.3-0.3-0.6-0.6-1-0.8c-0.4-0.2-0.8-0.5-1.2-0.7s-0.9-0.5-1.2-0.8c-0.4-0.3-0.7-0.7-1-1.1
		c-0.3-0.4-0.4-1-0.4-1.7c0-0.5,0.1-1,0.3-1.4c0.2-0.4,0.5-0.8,0.8-1.1s0.8-0.5,1.2-0.7s1-0.2,1.6-0.2c1,0,2,0.2,3,0.6v2
		c-0.4-0.2-0.9-0.4-1.4-0.6c-0.5-0.2-1-0.2-1.5-0.2c-0.6,0-1,0.1-1.4,0.4s-0.5,0.6-0.5,1.1c0,0.4,0.1,0.8,0.4,1.1
		c0.3,0.3,0.6,0.5,1,0.8c0.4,0.2,0.8,0.5,1.3,0.7s0.9,0.5,1.3,0.8c0.4,0.3,0.7,0.7,1,1.1S135.4,18.6,135.4,19.2z"/>
	<path class="st0" d="M137.3,5.7c0-0.4,0.1-0.7,0.4-1c0.3-0.3,0.6-0.4,1-0.4s0.7,0.1,1,0.4c0.3,0.3,0.4,0.6,0.4,1s-0.1,0.7-0.4,1
		c-0.3,0.3-0.6,0.4-1,0.4s-0.7-0.1-1-0.4C137.5,6.4,137.3,6.1,137.3,5.7z M139.8,22.6h-2.1V10.3h2.1V22.6z"/>
	<path class="st0" d="M152.4,22.6h-2.1v-8.4c0-0.8-0.2-1.4-0.5-1.9c-0.3-0.4-0.9-0.7-1.7-0.7c-0.6,0-1.2,0.2-1.7,0.5
		c-0.5,0.4-1,0.8-1.4,1.2v9.2H143V10.3h1.8l0.2,1.5c0.6-0.6,1.2-1.1,1.7-1.4c0.6-0.3,1.2-0.5,2-0.5c1.1,0,2,0.3,2.7,1
		c0.6,0.6,1,1.5,1,2.7V22.6z"/>
	<path class="st0" d="M156.9,17.1c0,0.5,0.1,1.1,0.2,1.6s0.3,0.9,0.6,1.3c0.3,0.4,0.7,0.7,1.1,0.9c0.5,0.2,1.1,0.3,1.7,0.3
		c1.1,0,2.3-0.3,3.5-0.9v1.8c-0.5,0.3-1.1,0.5-1.8,0.6c-0.7,0.1-1.4,0.2-2,0.2c-0.9,0-1.8-0.2-2.5-0.5c-0.7-0.3-1.3-0.8-1.7-1.3
		c-0.5-0.6-0.8-1.2-1-2c-0.2-0.8-0.3-1.7-0.3-2.6c0-0.9,0.1-1.7,0.3-2.5c0.2-0.8,0.5-1.5,0.9-2c0.4-0.6,1-1.1,1.6-1.4
		s1.4-0.5,2.3-0.5c0.8,0,1.6,0.2,2.1,0.5c0.6,0.3,1.1,0.8,1.4,1.3s0.6,1.2,0.8,1.9c0.2,0.7,0.2,1.5,0.2,2.2c0,0.3,0,0.5,0,0.7
		c0,0.2,0,0.3,0,0.5H156.9z M162.3,15.3c0-0.5,0-0.9-0.1-1.3s-0.2-0.8-0.4-1.1c-0.2-0.3-0.5-0.6-0.8-0.8s-0.8-0.3-1.3-0.3
		c-0.4,0-0.8,0.1-1.1,0.3c-0.3,0.2-0.6,0.4-0.9,0.7c-0.2,0.3-0.4,0.7-0.6,1.1c-0.1,0.4-0.2,0.9-0.2,1.4H162.3z"/>
	<path class="st0" d="M173.6,19.2c0,0.6-0.1,1.2-0.3,1.6c-0.2,0.5-0.5,0.9-0.9,1.2s-0.8,0.5-1.3,0.7c-0.5,0.2-1,0.2-1.6,0.2
		c-0.6,0-1.2-0.1-1.8-0.2c-0.6-0.1-1.2-0.3-1.8-0.5v-1.9c0.5,0.2,1,0.4,1.6,0.6c0.6,0.2,1.1,0.3,1.8,0.3c0.6,0,1.1-0.1,1.5-0.4
		s0.6-0.7,0.6-1.3c0-0.5-0.1-0.8-0.4-1.1c-0.3-0.3-0.6-0.6-1-0.8c-0.4-0.2-0.8-0.5-1.2-0.7s-0.9-0.5-1.2-0.8c-0.4-0.3-0.7-0.7-1-1.1
		c-0.3-0.4-0.4-1-0.4-1.7c0-0.5,0.1-1,0.3-1.4c0.2-0.4,0.5-0.8,0.8-1.1s0.8-0.5,1.2-0.7s1-0.2,1.6-0.2c1,0,2,0.2,3,0.6v2
		c-0.4-0.2-0.9-0.4-1.4-0.6c-0.5-0.2-1-0.2-1.5-0.2c-0.6,0-1,0.1-1.4,0.4s-0.5,0.6-0.5,1.1c0,0.4,0.1,0.8,0.4,1.1
		c0.3,0.3,0.6,0.5,1,0.8c0.4,0.2,0.8,0.5,1.3,0.7s0.9,0.5,1.3,0.8c0.4,0.3,0.7,0.7,1,1.1S173.6,18.6,173.6,19.2z"/>
	<path class="st0" d="M182.6,19.2c0,0.6-0.1,1.2-0.3,1.6c-0.2,0.5-0.5,0.9-0.9,1.2s-0.8,0.5-1.3,0.7c-0.5,0.2-1,0.2-1.6,0.2
		c-0.6,0-1.2-0.1-1.8-0.2c-0.6-0.1-1.2-0.3-1.8-0.5v-1.9c0.5,0.2,1,0.4,1.6,0.6c0.6,0.2,1.1,0.3,1.8,0.3c0.6,0,1.1-0.1,1.5-0.4
		s0.6-0.7,0.6-1.3c0-0.5-0.1-0.8-0.4-1.1c-0.3-0.3-0.6-0.6-1-0.8c-0.4-0.2-0.8-0.5-1.2-0.7s-0.9-0.5-1.2-0.8c-0.4-0.3-0.7-0.7-1-1.1
		c-0.3-0.4-0.4-1-0.4-1.7c0-0.5,0.1-1,0.3-1.4c0.2-0.4,0.5-0.8,0.8-1.1s0.8-0.5,1.2-0.7s1-0.2,1.6-0.2c1,0,2,0.2,3,0.6v2
		c-0.4-0.2-0.9-0.4-1.4-0.6c-0.5-0.2-1-0.2-1.5-0.2c-0.6,0-1,0.1-1.4,0.4s-0.5,0.6-0.5,1.1c0,0.4,0.1,0.8,0.4,1.1
		c0.3,0.3,0.6,0.5,1,0.8c0.4,0.2,0.8,0.5,1.3,0.7s0.9,0.5,1.3,0.8c0.4,0.3,0.7,0.7,1,1.1S182.6,18.6,182.6,19.2z"/>
	<path class="st0" d="M199.8,16.2c0,1-0.1,1.9-0.3,2.7c-0.2,0.8-0.5,1.5-0.9,2.1c-0.4,0.6-1,1.1-1.7,1.4c-0.7,0.3-1.6,0.5-2.6,0.5
		c-0.4,0-0.8,0-1.2-0.1c-0.4,0-0.8-0.1-1.2-0.2c-0.4-0.1-0.8-0.2-1.2-0.3c-0.4-0.1-0.7-0.3-1-0.4V4.6h2.1v6.9c0.5-0.5,1-0.8,1.5-1.1
		s1.2-0.4,2-0.4c0.8,0,1.5,0.2,2.1,0.5c0.6,0.3,1,0.8,1.4,1.4c0.4,0.6,0.6,1.2,0.8,2S199.8,15.4,199.8,16.2z M197.6,16.3
		c0-0.6-0.1-1.1-0.1-1.7c-0.1-0.5-0.3-1-0.5-1.5c-0.2-0.4-0.5-0.8-0.9-1c-0.4-0.3-0.8-0.4-1.4-0.4c-0.5,0-1,0.1-1.5,0.4
		c-0.5,0.3-1,0.6-1.4,1v7.4c0.4,0.2,0.8,0.3,1.2,0.4s0.9,0.2,1.3,0.2c0.6,0,1.2-0.1,1.6-0.4c0.4-0.3,0.8-0.6,1-1.1
		c0.3-0.4,0.4-1,0.5-1.6C197.6,17.6,197.6,16.9,197.6,16.3z"/>
	<path class="st0" d="M204.2,12.3c0.3-0.6,0.8-1.2,1.4-1.6c0.6-0.5,1.3-0.7,2-0.7c0.2,0,0.5,0,0.8,0.1v1.7c-0.1,0-0.2,0-0.4,0
		s-0.2,0-0.4,0c-0.6,0-1.2,0.1-1.8,0.5c-0.6,0.3-1.2,0.7-1.7,1.2v9.2h-2.1V10.3h1.8L204.2,12.3z"/>
	<path class="st0" d="M219.6,16.5c0,0.9-0.1,1.7-0.3,2.5c-0.2,0.8-0.5,1.5-0.9,2c-0.4,0.6-1,1.1-1.6,1.4c-0.7,0.3-1.5,0.5-2.4,0.5
		c-0.9,0-1.7-0.2-2.4-0.5c-0.7-0.3-1.2-0.8-1.7-1.4c-0.4-0.6-0.8-1.3-1-2s-0.3-1.6-0.3-2.5c0-0.9,0.1-1.7,0.3-2.5s0.5-1.5,0.9-2.1
		c0.4-0.6,1-1.1,1.6-1.4c0.7-0.3,1.5-0.5,2.4-0.5c1,0,1.8,0.2,2.4,0.5c0.7,0.3,1.2,0.8,1.6,1.4c0.4,0.6,0.7,1.3,0.9,2.1
		C219.5,14.8,219.6,15.6,219.6,16.5z M217.4,16.4c0-0.6,0-1.1-0.1-1.7c-0.1-0.6-0.2-1.1-0.5-1.5s-0.6-0.8-1-1.1s-1-0.4-1.6-0.4
		c-0.7,0-1.2,0.1-1.6,0.4c-0.4,0.3-0.7,0.6-1,1.1s-0.4,0.9-0.5,1.5c-0.1,0.6-0.1,1.1-0.1,1.7c0,0.6,0,1.2,0.1,1.8
		c0.1,0.6,0.2,1.1,0.5,1.5c0.2,0.4,0.6,0.8,1,1.1c0.4,0.3,0.9,0.4,1.6,0.4s1.2-0.1,1.6-0.4s0.7-0.6,1-1.1c0.2-0.4,0.4-1,0.5-1.5
		C217.4,17.6,217.4,17,217.4,16.4z"/>
	<path class="st0" d="M228.4,22.6l-0.2-1c-0.4,0.3-0.8,0.6-1.4,0.9s-1.1,0.4-1.8,0.4c-1.2,0-2.1-0.3-2.8-1c-0.7-0.7-1-1.6-1-2.8
		c0-0.7,0.1-1.3,0.4-1.9s0.6-1,1-1.3s0.9-0.6,1.5-0.8c0.6-0.2,1.2-0.3,1.9-0.3h2.1v-0.7c0-0.9-0.2-1.5-0.6-1.9
		c-0.4-0.4-1-0.5-1.9-0.5c-0.5,0-1.1,0.1-1.7,0.2c-0.6,0.1-1.2,0.3-1.6,0.5v-1.9c0.4-0.1,1-0.3,1.7-0.4c0.7-0.1,1.3-0.2,2-0.2
		c1.4,0,2.5,0.3,3.2,1c0.7,0.7,1,1.7,1,3.1v8.5H228.4z M228.1,16.6h-2c-0.9,0-1.6,0.2-2.1,0.5c-0.5,0.4-0.7,1-0.7,1.8
		c0,0.7,0.2,1.3,0.6,1.7s0.9,0.6,1.7,0.6c0.5,0,1-0.1,1.4-0.3c0.4-0.2,0.8-0.5,1.2-0.7V16.6z"/>
	<path class="st0" d="M242.4,22.6h-1.7l-0.3-1.1c-0.3,0.3-0.8,0.6-1.3,0.9c-0.5,0.3-1.2,0.4-1.9,0.4c-0.9,0-1.6-0.2-2.2-0.5
		s-1.1-0.8-1.5-1.3c-0.4-0.6-0.7-1.2-0.9-2c-0.2-0.8-0.3-1.6-0.3-2.5c0-0.9,0.1-1.8,0.3-2.6c0.2-0.8,0.5-1.5,0.9-2.1
		c0.4-0.6,0.9-1.1,1.6-1.4s1.4-0.5,2.3-0.5c0.6,0,1.2,0.1,1.7,0.3s0.9,0.5,1.2,0.7V4.6h2.1V22.6z M240.3,12.7
		c-0.4-0.3-0.8-0.5-1.2-0.7c-0.4-0.2-0.9-0.3-1.4-0.3c-0.7,0-1.2,0.1-1.6,0.4c-0.4,0.3-0.8,0.6-1,1c-0.2,0.4-0.4,0.9-0.5,1.5
		s-0.1,1.2-0.1,1.8c0,0.6,0.1,1.2,0.2,1.8s0.3,1.1,0.5,1.5c0.3,0.4,0.6,0.8,1,1c0.4,0.3,0.9,0.4,1.5,0.4c0.9,0,1.8-0.3,2.6-1V12.7z"
		/>
	<path class="st0" d="M255.8,16.2c0,1-0.1,1.9-0.3,2.7c-0.2,0.8-0.5,1.5-0.9,2.1c-0.4,0.6-1,1.1-1.7,1.4c-0.7,0.3-1.6,0.5-2.6,0.5
		c-0.4,0-0.8,0-1.2-0.1c-0.4,0-0.8-0.1-1.2-0.2c-0.4-0.1-0.8-0.2-1.2-0.3c-0.4-0.1-0.7-0.3-1-0.4V4.6h2.1v6.9c0.5-0.5,1-0.8,1.5-1.1
		s1.2-0.4,2-0.4c0.8,0,1.5,0.2,2.1,0.5c0.6,0.3,1,0.8,1.4,1.4c0.4,0.6,0.6,1.2,0.8,2S255.8,15.4,255.8,16.2z M253.6,16.3
		c0-0.6-0.1-1.1-0.1-1.7c-0.1-0.5-0.3-1-0.5-1.5c-0.2-0.4-0.5-0.8-0.9-1c-0.4-0.3-0.8-0.4-1.4-0.4c-0.5,0-1,0.1-1.5,0.4
		c-0.5,0.3-1,0.6-1.4,1v7.4c0.4,0.2,0.8,0.3,1.2,0.4s0.9,0.2,1.3,0.2c0.6,0,1.2-0.1,1.6-0.4c0.4-0.3,0.8-0.6,1-1.1
		c0.3-0.4,0.4-1,0.5-1.6C253.5,17.6,253.6,16.9,253.6,16.3z"/>
	<path class="st0" d="M264.6,22.6l-0.2-1c-0.4,0.3-0.8,0.6-1.4,0.9s-1.1,0.4-1.8,0.4c-1.2,0-2.1-0.3-2.8-1c-0.7-0.7-1-1.6-1-2.8
		c0-0.7,0.1-1.3,0.4-1.9s0.6-1,1-1.3s0.9-0.6,1.5-0.8c0.6-0.2,1.2-0.3,1.9-0.3h2.1v-0.7c0-0.9-0.2-1.5-0.6-1.9
		c-0.4-0.4-1-0.5-1.9-0.5c-0.5,0-1.1,0.1-1.7,0.2c-0.6,0.1-1.2,0.3-1.6,0.5v-1.9c0.4-0.1,1-0.3,1.7-0.4c0.7-0.1,1.3-0.2,2-0.2
		c1.4,0,2.5,0.3,3.2,1c0.7,0.7,1,1.7,1,3.1v8.5H264.6z M264.3,16.6h-2c-0.9,0-1.6,0.2-2.1,0.5c-0.5,0.4-0.7,1-0.7,1.8
		c0,0.7,0.2,1.3,0.6,1.7s0.9,0.6,1.7,0.6c0.5,0,1-0.1,1.4-0.3c0.4-0.2,0.8-0.5,1.2-0.7V16.6z"/>
	<path class="st0" d="M278.7,22.6h-2.1v-8.4c0-0.8-0.2-1.4-0.5-1.9c-0.3-0.4-0.9-0.7-1.7-0.7c-0.6,0-1.2,0.2-1.7,0.5
		c-0.5,0.4-1,0.8-1.4,1.2v9.2h-2.1V10.3h1.8l0.2,1.5c0.6-0.6,1.2-1.1,1.7-1.4c0.6-0.3,1.2-0.5,2-0.5c1.1,0,2,0.3,2.7,1
		c0.6,0.6,1,1.5,1,2.7V22.6z"/>
	<path class="st0" d="M291.1,22.6h-1.7l-0.3-1.1c-0.3,0.3-0.8,0.6-1.3,0.9c-0.5,0.3-1.2,0.4-1.9,0.4c-0.9,0-1.6-0.2-2.2-0.5
		s-1.1-0.8-1.5-1.3c-0.4-0.6-0.7-1.2-0.9-2c-0.2-0.8-0.3-1.6-0.3-2.5c0-0.9,0.1-1.8,0.3-2.6c0.2-0.8,0.5-1.5,0.9-2.1
		c0.4-0.6,0.9-1.1,1.6-1.4s1.4-0.5,2.3-0.5c0.6,0,1.2,0.1,1.7,0.3s0.9,0.5,1.2,0.7V4.6h2.1V22.6z M289,12.7
		c-0.4-0.3-0.8-0.5-1.2-0.7c-0.4-0.2-0.9-0.3-1.4-0.3c-0.7,0-1.2,0.1-1.6,0.4c-0.4,0.3-0.8,0.6-1,1c-0.2,0.4-0.4,0.9-0.5,1.5
		s-0.1,1.2-0.1,1.8c0,0.6,0.1,1.2,0.2,1.8s0.3,1.1,0.5,1.5c0.3,0.4,0.6,0.8,1,1c0.4,0.3,0.9,0.4,1.5,0.4c0.9,0,1.8-0.3,2.6-1V12.7z"
		/>
	<path class="st0" d="M11.1,48.6l-0.2-1c-0.4,0.3-0.8,0.6-1.4,0.9s-1.1,0.4-1.8,0.4c-1.2,0-2.1-0.3-2.8-1c-0.7-0.7-1-1.6-1-2.8
		c0-0.7,0.1-1.3,0.4-1.9s0.6-1,1-1.3s0.9-0.6,1.5-0.8c0.6-0.2,1.2-0.3,1.9-0.3h2.1v-0.7c0-0.9-0.2-1.5-0.6-1.9
		c-0.4-0.4-1-0.5-1.9-0.5c-0.5,0-1.1,0.1-1.7,0.2c-0.6,0.1-1.2,0.3-1.6,0.5v-1.9c0.4-0.1,1-0.3,1.7-0.4C7.4,36,8.1,36,8.7,36
		c1.4,0,2.5,0.3,3.2,1c0.7,0.7,1,1.7,1,3.1v8.5H11.1z M10.8,42.6h-2c-0.9,0-1.6,0.2-2.1,0.5c-0.5,0.4-0.7,1-0.7,1.8
		c0,0.7,0.2,1.3,0.6,1.7s0.9,0.6,1.7,0.6c0.5,0,1-0.1,1.4-0.3c0.4-0.2,0.8-0.5,1.2-0.7V42.6z"/>
	<path class="st0" d="M25.2,48.6h-2.1v-8.4c0-0.8-0.2-1.4-0.5-1.9c-0.3-0.4-0.9-0.7-1.7-0.7c-0.6,0-1.2,0.2-1.7,0.5
		c-0.5,0.4-1,0.8-1.4,1.2v9.2h-2.1V36.3h1.8l0.2,1.5c0.6-0.6,1.2-1.1,1.7-1.4c0.6-0.3,1.2-0.5,2-0.5c1.1,0,2,0.3,2.7,1
		c0.6,0.6,1,1.5,1,2.7V48.6z"/>
	<path class="st0" d="M37.7,48.6h-1.7l-0.3-1.1c-0.3,0.3-0.8,0.6-1.3,0.9c-0.5,0.3-1.2,0.4-1.9,0.4c-0.9,0-1.6-0.2-2.2-0.5
		s-1.1-0.8-1.5-1.3c-0.4-0.6-0.7-1.2-0.9-2c-0.2-0.8-0.3-1.6-0.3-2.5c0-0.9,0.1-1.8,0.3-2.6c0.2-0.8,0.5-1.5,0.9-2.1
		c0.4-0.6,0.9-1.1,1.6-1.4s1.4-0.5,2.3-0.5c0.6,0,1.2,0.1,1.7,0.3s0.9,0.5,1.2,0.7v-6.4h2.1V48.6z M35.6,38.7
		c-0.4-0.3-0.8-0.5-1.2-0.7c-0.4-0.2-0.9-0.3-1.4-0.3c-0.7,0-1.2,0.1-1.6,0.4c-0.4,0.3-0.8,0.6-1,1c-0.2,0.4-0.4,0.9-0.5,1.5
		s-0.1,1.2-0.1,1.8c0,0.6,0.1,1.2,0.2,1.8s0.3,1.1,0.5,1.5c0.3,0.4,0.6,0.8,1,1c0.4,0.3,0.9,0.4,1.5,0.4c0.9,0,1.8-0.3,2.6-1V38.7z"
		/>
	<path class="st0" d="M45.5,36.3h2.1v8.3c0,0.8,0.2,1.4,0.5,1.9c0.3,0.5,0.9,0.7,1.7,0.7c0.6,0,1.2-0.2,1.7-0.5
		c0.5-0.4,1-0.8,1.4-1.2v-9.1h2.1v12.3h-1.8l-0.2-1.5c-0.2,0.2-0.4,0.4-0.7,0.7s-0.5,0.4-0.8,0.6c-0.3,0.2-0.6,0.3-1,0.4
		s-0.8,0.2-1.2,0.2c-1.1,0-2-0.3-2.7-1c-0.6-0.6-1-1.5-1-2.7V36.3z"/>
	<path class="st0" d="M67.5,48.6h-2.1v-8.4c0-0.8-0.2-1.4-0.5-1.9c-0.3-0.4-0.9-0.7-1.7-0.7c-0.6,0-1.2,0.2-1.7,0.5
		c-0.5,0.4-1,0.8-1.4,1.2v9.2h-2.1V36.3h1.8l0.2,1.5c0.6-0.6,1.2-1.1,1.7-1.4c0.6-0.3,1.2-0.5,2-0.5c1.1,0,2,0.3,2.7,1
		c0.6,0.6,1,1.5,1,2.7V48.6z"/>
	<path class="st0" d="M72.7,48.6h-2.1v-18h2.1V48.6z"/>
	<path class="st0" d="M75.5,31.7c0-0.4,0.1-0.7,0.4-1c0.3-0.3,0.6-0.4,1-0.4s0.7,0.1,1,0.4c0.3,0.3,0.4,0.6,0.4,1s-0.1,0.7-0.4,1
		c-0.3,0.3-0.6,0.4-1,0.4s-0.7-0.1-1-0.4C75.6,32.4,75.5,32.1,75.5,31.7z M78,48.6h-2.1V36.3H78V48.6z"/>
	<path class="st0" d="M90.1,48.6H88v-8.4c0-0.8-0.1-1.4-0.4-1.9c-0.3-0.5-0.8-0.7-1.5-0.7c-0.5,0-1,0.2-1.5,0.5
		c-0.5,0.4-0.9,0.7-1.4,1.2v9.2h-2.1V36.3H83l0.2,1.5c0.5-0.5,1-0.9,1.5-1.3c0.6-0.4,1.2-0.6,2-0.6c1.5,0,2.4,0.6,3,1.9
		c0.6-0.5,1.2-1,1.8-1.3s1.3-0.5,2-0.5c1.1,0,2,0.3,2.6,1c0.6,0.7,0.9,1.6,0.9,2.7v9h-2.1v-8.4c0-0.4,0-0.7-0.1-1
		c-0.1-0.3-0.1-0.6-0.3-0.8c-0.1-0.2-0.3-0.4-0.6-0.5s-0.6-0.2-0.9-0.2c-0.5,0-1,0.2-1.5,0.5c-0.5,0.3-1,0.7-1.4,1
		c0,0.1,0,0.2,0,0.4c0,0.1,0,0.3,0,0.4V48.6z"/>
	<path class="st0" d="M99.6,31.7c0-0.4,0.1-0.7,0.4-1c0.3-0.3,0.6-0.4,1-0.4s0.7,0.1,1,0.4c0.3,0.3,0.4,0.6,0.4,1s-0.1,0.7-0.4,1
		c-0.3,0.3-0.6,0.4-1,0.4s-0.7-0.1-1-0.4C99.8,32.4,99.6,32.1,99.6,31.7z M102.1,48.6H100V36.3h2.1V48.6z"/>
	<path class="st0" d="M108.2,36.3h3.2V38h-3.2v7.3c0,0.6,0.1,1.1,0.4,1.4c0.3,0.3,0.7,0.4,1.4,0.4c0.4,0,0.7,0,1-0.1
		c0.3-0.1,0.6-0.2,0.9-0.3v1.8c-0.3,0.1-0.7,0.2-1.1,0.3c-0.4,0.1-0.8,0.1-1.2,0.1c-1.2,0-2-0.3-2.6-0.8c-0.5-0.5-0.8-1.3-0.8-2.5
		V38h-2.3v-1.8h2.3V33h2.1V36.3z"/>
	<path class="st0" d="M114.7,43.1c0,0.5,0.1,1.1,0.2,1.6s0.3,0.9,0.6,1.3c0.3,0.4,0.7,0.7,1.1,0.9c0.5,0.2,1.1,0.3,1.7,0.3
		c1.1,0,2.3-0.3,3.5-0.9v1.8c-0.5,0.3-1.1,0.5-1.8,0.6c-0.7,0.1-1.4,0.2-2,0.2c-0.9,0-1.8-0.2-2.5-0.5c-0.7-0.3-1.3-0.8-1.7-1.3
		c-0.5-0.6-0.8-1.2-1-2c-0.2-0.8-0.3-1.7-0.3-2.6c0-0.9,0.1-1.7,0.3-2.5c0.2-0.8,0.5-1.5,0.9-2c0.4-0.6,1-1.1,1.6-1.4
		s1.4-0.5,2.3-0.5c0.8,0,1.6,0.2,2.1,0.5c0.6,0.3,1.1,0.8,1.4,1.3s0.6,1.2,0.8,1.9c0.2,0.7,0.2,1.5,0.2,2.2c0,0.3,0,0.5,0,0.7
		c0,0.2,0,0.3,0,0.5H114.7z M120.1,41.3c0-0.5,0-0.9-0.1-1.3s-0.2-0.8-0.4-1.1c-0.2-0.3-0.5-0.6-0.8-0.8s-0.8-0.3-1.3-0.3
		c-0.4,0-0.8,0.1-1.1,0.3c-0.3,0.2-0.6,0.4-0.9,0.7c-0.2,0.3-0.4,0.7-0.6,1.1c-0.1,0.4-0.2,0.9-0.2,1.4H120.1z"/>
	<path class="st0" d="M134.1,48.6h-1.7l-0.3-1.1c-0.3,0.3-0.8,0.6-1.3,0.9c-0.5,0.3-1.2,0.4-1.9,0.4c-0.9,0-1.6-0.2-2.2-0.5
		s-1.1-0.8-1.5-1.3c-0.4-0.6-0.7-1.2-0.9-2c-0.2-0.8-0.3-1.6-0.3-2.5c0-0.9,0.1-1.8,0.3-2.6c0.2-0.8,0.5-1.5,0.9-2.1
		c0.4-0.6,0.9-1.1,1.6-1.4s1.4-0.5,2.3-0.5c0.6,0,1.2,0.1,1.7,0.3s0.9,0.5,1.2,0.7v-6.4h2.1V48.6z M132,38.7
		c-0.4-0.3-0.8-0.5-1.2-0.7c-0.4-0.2-0.9-0.3-1.4-0.3c-0.7,0-1.2,0.1-1.6,0.4c-0.4,0.3-0.8,0.6-1,1c-0.2,0.4-0.4,0.9-0.5,1.5
		s-0.1,1.2-0.1,1.8c0,0.6,0.1,1.2,0.2,1.8s0.3,1.1,0.5,1.5c0.3,0.4,0.6,0.8,1,1c0.4,0.3,0.9,0.4,1.5,0.4c0.9,0,1.8-0.3,2.6-1V38.7z"
		/>
	<path class="st0" d="M148,47c1.2,0,2.1-0.3,2.7-1c0.6-0.7,0.9-1.5,0.9-2.6V30.6h2.2v12.5c0,1.8-0.5,3.2-1.4,4.2
		c-1,1-2.4,1.6-4.4,1.6c-1.8,0-3.2-0.5-4.3-1.4c-1-0.9-1.5-2.3-1.5-4.2V30.6h2.2V43c0,1.4,0.3,2.4,1,3S146.9,47,148,47z"/>
	<path class="st0" d="M159.5,39h0.2l6.2-8.4h2.7l-6.7,8.7l7.2,9.4h-2.9l-6.5-8.6h-0.3v8.6h-2.2v-18h2.2V39z"/>
	<path class="st0" d="M180.8,47.2c0.5,0,1-0.1,1.5-0.2c0.5-0.1,0.9-0.3,1.4-0.5v1.8c-0.4,0.2-0.9,0.3-1.5,0.4s-1.1,0.2-1.7,0.2
		c-1,0-1.9-0.2-2.6-0.5c-0.7-0.3-1.3-0.7-1.8-1.3c-0.5-0.6-0.8-1.2-1-2c-0.2-0.8-0.3-1.7-0.3-2.7c0-0.8,0.1-1.6,0.3-2.4s0.6-1.5,1-2
		c0.5-0.6,1.1-1.1,1.8-1.4s1.5-0.5,2.5-0.5c0.5,0,1.1,0,1.5,0.1c0.5,0.1,1,0.2,1.5,0.4v1.9c-0.4-0.2-0.8-0.3-1.3-0.5
		c-0.5-0.1-1-0.2-1.6-0.2c-0.6,0-1.2,0.1-1.7,0.4s-0.8,0.6-1.1,1c-0.3,0.4-0.5,0.9-0.7,1.5s-0.2,1.2-0.2,1.8c0,0.6,0.1,1.2,0.2,1.8
		s0.3,1.1,0.6,1.5c0.3,0.4,0.7,0.8,1.2,1C179.4,47,180,47.2,180.8,47.2z"/>
	<path class="st0" d="M192.2,48.6l-0.2-1c-0.4,0.3-0.8,0.6-1.4,0.9s-1.1,0.4-1.8,0.4c-1.2,0-2.1-0.3-2.8-1c-0.7-0.7-1-1.6-1-2.8
		c0-0.7,0.1-1.3,0.4-1.9s0.6-1,1-1.3s0.9-0.6,1.5-0.8c0.6-0.2,1.2-0.3,1.9-0.3h2.1v-0.7c0-0.9-0.2-1.5-0.6-1.9
		c-0.4-0.4-1-0.5-1.9-0.5c-0.5,0-1.1,0.1-1.7,0.2c-0.6,0.1-1.2,0.3-1.6,0.5v-1.9c0.4-0.1,1-0.3,1.7-0.4c0.7-0.1,1.3-0.2,2-0.2
		c1.4,0,2.5,0.3,3.2,1c0.7,0.7,1,1.7,1,3.1v8.5H192.2z M191.9,42.6h-2c-0.9,0-1.6,0.2-2.1,0.5c-0.5,0.4-0.7,1-0.7,1.8
		c0,0.7,0.2,1.3,0.6,1.7s0.9,0.6,1.7,0.6c0.5,0,1-0.1,1.4-0.3c0.4-0.2,0.8-0.5,1.2-0.7V42.6z"/>
	<path class="st0" d="M199,48.6h-2.1v-18h2.1V48.6z"/>
	<path class="st0" d="M204.3,48.6h-2.1v-18h2.1V48.6z"/>
	<path class="st0" d="M214.2,45.2c0,0.6-0.1,1.2-0.3,1.6c-0.2,0.5-0.5,0.9-0.9,1.2s-0.8,0.5-1.3,0.7c-0.5,0.2-1,0.2-1.6,0.2
		c-0.6,0-1.2-0.1-1.8-0.2c-0.6-0.1-1.2-0.3-1.8-0.5v-1.9c0.5,0.2,1,0.4,1.6,0.6c0.6,0.2,1.1,0.3,1.8,0.3c0.6,0,1.1-0.1,1.5-0.4
		s0.6-0.7,0.6-1.3c0-0.5-0.1-0.8-0.4-1.1c-0.3-0.3-0.6-0.6-1-0.8c-0.4-0.2-0.8-0.5-1.2-0.7s-0.9-0.5-1.2-0.8c-0.4-0.3-0.7-0.7-1-1.1
		c-0.3-0.4-0.4-1-0.4-1.7c0-0.5,0.1-1,0.3-1.4c0.2-0.4,0.5-0.8,0.8-1.1s0.8-0.5,1.2-0.7s1-0.2,1.6-0.2c1,0,2,0.2,3,0.6v2
		c-0.4-0.2-0.9-0.4-1.4-0.6c-0.5-0.2-1-0.2-1.5-0.2c-0.6,0-1,0.1-1.4,0.4s-0.5,0.6-0.5,1.1c0,0.4,0.1,0.8,0.4,1.1
		c0.3,0.3,0.6,0.5,1,0.8c0.4,0.2,0.8,0.5,1.3,0.7s0.9,0.5,1.3,0.8c0.4,0.3,0.7,0.7,1,1.1S214.2,44.6,214.2,45.2z"/>
</g>
<rect class="st1" width="294.2" height="54.8"/>
</svg>
