<?xml version="1.0" encoding="utf-8"?>
<!-- Generator: Adobe Illustrator 17.0.0, SVG Export Plug-In . SVG Version: 6.00 Build 0)  -->
<!DOCTYPE svg PUBLIC "-//W3C//DTD SVG 1.1//EN" "http://www.w3.org/Graphics/SVG/1.1/DTD/svg11.dtd">
<svg version="1.1" id="Layer_1" xmlns="http://www.w3.org/2000/svg" xmlns:xlink="http://www.w3.org/1999/xlink" x="0px" y="0px"
	 width="300px" height="600px" viewBox="0 0 300 600" enable-background="new 0 0 300 600" xml:space="preserve">
<g>
	<g>
		<path fill="#FFFFFF" d="M65.416,160.764h6.115v18.928h12.046v5.198H65.416V160.764z"/>
		<path fill="#FFFFFF" d="M98.551,185.257c-7.981,0-13.693-4.687-13.693-12.338s5.712-12.338,13.693-12.338
			s13.693,4.687,13.693,12.338S106.532,185.257,98.551,185.257z M98.551,179.985c4.979,0,7.432-2.966,7.432-7.067
			s-2.453-7.066-7.432-7.066c-4.98,0-7.432,2.965-7.432,7.066S93.571,179.985,98.551,179.985z"/>
		<path fill="#FFFFFF" d="M117.406,160.764h5.308l14.132,14.681h0.073v-14.681h6.114v24.126h-5.052l-14.388-15.048h-0.075v15.048
			h-6.114v-24.126H117.406z"/>
		<path fill="#FFFFFF" d="M149.476,160.764h10.142c2.49,0,4.21,0.183,5.784,0.549c5.235,1.244,9.409,4.759,9.409,11.13
			c0,6.516-4.394,9.885-8.458,11.313c-2.819,0.989-6.004,1.135-8.823,1.135h-8.054V160.764z M157.896,179.693
			c2.197,0,3.918-0.148,5.346-0.55c2.966-0.841,5.309-3.112,5.309-6.7c0-3.552-2.234-5.382-4.723-6.078
			c-1.391-0.403-2.819-0.403-5.163-0.403h-3.075v13.73h2.306V179.693z"/>
		<path fill="#FFFFFF" d="M192.384,185.257c-7.981,0-13.693-4.687-13.693-12.338s5.712-12.338,13.693-12.338
			c7.981,0,13.693,4.687,13.693,12.338S200.366,185.257,192.384,185.257z M192.384,179.985c4.979,0,7.432-2.966,7.432-7.067
			s-2.453-7.066-7.432-7.066c-4.98,0-7.432,2.965-7.432,7.066S187.405,179.985,192.384,179.985z"/>
		<path fill="#FFFFFF" d="M211.239,160.764h5.308l14.132,14.681h0.073v-14.681h6.114v24.126h-5.052l-14.388-15.048h-0.073v15.048
			h-6.114v-24.126H211.239z"/>
		<path fill="#FFFFFF" d="M76.886,203.394h19.967v5.278H76.886V203.394z"/>
		<path fill="#FFFFFF" d="M108.664,193.97h9.446c2.05,0,3.477,0.183,4.76,0.549c3.77,1.061,6.15,3.587,6.15,7.578
			c0,4.063-2.452,6.919-6.919,7.981c-1.208,0.293-2.6,0.403-4.504,0.403h-2.819v7.615h-6.115V193.97H108.664z M117.378,205.429
			c1.538,0,2.343-0.146,2.966-0.33c1.721-0.514,2.416-1.574,2.416-2.929c0-1.356-0.696-2.308-2.307-2.783
			c-0.622-0.183-1.28-0.22-2.49-0.22h-3.186v6.26h2.601V205.429z"/>
		<path fill="#FFFFFF" d="M130.85,218.097l10.984-24.237h5.455l11.899,24.237h-6.846l-2.343-5.09h-10.433l-2.087,5.09H130.85z
			 M144.543,201.145h-0.073l-2.782,6.736h5.931L144.543,201.145z"/>
		<path fill="#FFFFFF" d="M176.395,208.432c2.013,1.135,2.71,5.162,5.675,5.162c0.658,0,1.28-0.146,1.866-0.366l1.098,4.612
			c-1.244,0.476-2.746,0.622-3.881,0.622c-7.798,0-8.567-8.933-11.167-8.933h-1.318v8.567h-6.114V193.97h9.957
			c6.591,0,10.215,2.526,10.215,7.615c0,3.587-2.269,6.04-6.333,6.773v0.074H176.395z M171.892,204.624
			c3.258,0,4.576-1.025,4.576-2.819c0-1.941-1.318-2.635-4.138-2.635h-3.66v5.455H171.892z"/>
		<path fill="#FFFFFF" d="M188.695,193.97h6.115v24.126h-6.115V193.97z"/>
		<path fill="#FFFFFF" d="M201.985,211.25c2.269,1.391,5.528,2.087,8.274,2.087c3.478,0,5.273-0.841,5.273-2.416
			c0-3.588-15.048-0.037-15.048-9.372c0-5.126,4.504-7.762,10.215-7.762c3.66,0,8.018,0.916,10.691,2.49l-2.049,4.504
			c-2.197-1.136-5.784-1.867-8.42-1.867c-3.002,0-4.174,0.842-4.174,2.124c0,4.321,15.048,0.22,15.048,9.703
			c0,4.979-4.759,7.725-11.496,7.725c-3.881,0-7.908-0.878-10.691-2.71L201.985,211.25z"/>
	</g>
</g>
<rect x="40" y="146.666" fill="#444661" width="220" height="4.635"/>
<rect x="40" y="228.666" fill="#444661" width="220" height="4.635"/>
</svg>
