<?xml version="1.0" encoding="utf-8"?>
<!-- Generator: Adobe Illustrator 17.0.0, SVG Export Plug-In . SVG Version: 6.00 Build 0)  -->
<!DOCTYPE svg PUBLIC "-//W3C//DTD SVG 1.1//EN" "http://www.w3.org/Graphics/SVG/1.1/DTD/svg11.dtd">
<svg version="1.1" id="Layer_1" xmlns="http://www.w3.org/2000/svg" xmlns:xlink="http://www.w3.org/1999/xlink" x="0px" y="0px"
	 width="300px" height="600px" viewBox="0 0 300 600" enable-background="new 0 0 300 600" xml:space="preserve">
<g>
	<path fill="#FFFFFF" d="M25.941,277.578h5.065c0.91,0,1.643,0.067,2.31,0.244c1.887,0.466,3.064,1.576,3.064,3.509
		c0,1.489-0.822,2.621-2.198,3.154v0.044c0.488,0.045,0.978,0.177,1.444,0.401c1.154,0.555,1.909,1.665,1.909,3.044
		c0,1.909-1.111,3.242-3.021,3.842c-0.934,0.289-1.977,0.401-3.243,0.401h-5.331V277.578z M30.651,284.019
		c0.91,0,1.532-0.067,2.042-0.244c1.244-0.356,1.954-1.2,1.954-2.332c0-1.244-0.711-1.932-1.799-2.221
		c-0.533-0.132-1.111-0.177-1.954-0.177h-3.31v4.975L30.651,284.019L30.651,284.019z M31.25,290.748
		c1.043,0,1.889-0.088,2.576-0.288c1.176-0.378,1.977-1.177,1.977-2.487c0-0.956-0.489-1.666-1.377-2.066
		c-0.667-0.312-1.533-0.444-2.71-0.444h-4.132v5.286H31.25z"/>
	<path fill="#FFFFFF" d="M44.645,286.484l-6.375-8.905h1.889l5.331,7.397h0.045l5.13-7.397h1.866l-6.241,8.905v5.731h-1.643
		C44.645,292.215,44.645,286.484,44.645,286.484z"/>
	<path fill="#FFFFFF" d="M60.661,277.578h1.643v6.463h9.795v-6.463h1.643v14.636h-1.643v-6.707h-9.795v6.707h-1.643V277.578z"/>
	<path fill="#FFFFFF" d="M78.497,277.578h1.643v14.636h-1.643V277.578z"/>
	<path fill="#FFFFFF" d="M92.846,277.467c2.088,0,4.064,0.421,5.841,1.155l-0.51,1.399c-1.511-0.666-3.333-1.087-5.264-1.087
		c-4.442,0-7.129,2.554-7.129,6.063c0,3.665,2.377,5.974,7.241,5.974c1.287,0,3.109-0.266,4.353-0.755v-4.219h-5.442v-1.466h7.086
		v6.664c-1.223,0.621-3.821,1.244-6.131,1.244c-5.908,0-8.839-2.999-8.839-7.353C84.05,280.711,87.403,277.467,92.846,277.467z"/>
	<path fill="#FFFFFF" d="M103.553,277.578h1.643v6.463h9.795v-6.463h1.643v14.636h-1.643v-6.707h-9.795v6.707h-1.643V277.578z"/>
	<path fill="#FFFFFF" d="M120.945,285.841h6.374v1.444h-6.374C120.945,287.285,120.945,285.841,120.945,285.841z"/>
	<path fill="#FFFFFF" d="M130.095,289.549c1.177,0.888,2.82,1.421,4.82,1.421c2.487,0,4.553-0.911,4.553-2.932
		c0-3.132-5.974-1.754-8.508-3.843c-0.711-0.577-1.155-1.376-1.155-2.62c0-2.643,2.287-4.109,5.62-4.109
		c2.221,0,4.264,0.666,5.352,1.399l-0.69,1.267c-0.955-0.578-2.665-1.199-4.552-1.199c-2.865,0-3.998,1.222-3.998,2.554
		c0,4.286,9.662,0.777,9.662,6.529c0,2.999-2.932,4.421-6.285,4.421c-2.487,0-4.442-0.69-5.642-1.621L130.095,289.549z"/>
	<path fill="#FFFFFF" d="M145.2,277.578h4.177c1.399,0,2.487,0.132,3.397,0.488c1.71,0.6,2.932,1.866,2.932,4.043
		c0,2.421-1.511,3.842-3.597,4.397c-0.844,0.222-1.799,0.333-3.265,0.333h-1.999v5.376H145.2L145.2,277.578L145.2,277.578z
		 M148.865,285.396c1.223,0,2.111-0.067,2.799-0.266c1.465-0.444,2.31-1.399,2.31-2.954c0-1.444-0.689-2.287-1.799-2.732
		c-0.777-0.312-1.71-0.401-3.044-0.401h-2.287v6.353h2.02V285.396z"/>
	<path fill="#FFFFFF" d="M159.327,277.578h10.084v1.465h-8.44v4.975h7.618v1.444h-7.618v5.286h8.573v1.466h-10.218L159.327,277.578
		L159.327,277.578z"/>
	<path fill="#FFFFFF" d="M173.233,277.578h10.083v1.465h-8.44v4.975h7.618v1.444h-7.618v5.286h8.572v1.466h-10.216V277.578z"/>
	<path fill="#FFFFFF" d="M187.138,277.578h5.241c1.822,0,3.266,0.199,4.465,0.622c2.91,0.978,4.665,3.153,4.665,6.463
		c0,3.709-2.11,6.108-5.663,7.064c-1.2,0.333-2.532,0.488-4.244,0.488h-4.463L187.138,277.578L187.138,277.578z M191.535,290.748
		c1.576,0,2.82-0.132,3.863-0.421c2.999-0.843,4.376-2.864,4.376-5.686c0-2.62-1.332-4.242-3.487-5.019
		c-1.087-0.423-2.442-0.578-4.131-0.578h-3.376v11.705H191.535z"/>
	<path fill="#FFFFFF" d="M212.77,279.043h-5.708v-1.465h13.082v1.465h-5.731v13.172h-1.643v-13.172H212.77z"/>
	<path fill="#FFFFFF" d="M222.811,277.578h4.397c1.31,0,2.265,0.112,3.065,0.356c1.844,0.6,2.999,1.844,2.999,3.775
		c0,2.221-1.621,3.709-4.486,4.087v0.045c1.066,0.51,1.932,3.376,3.51,4.508c0.421,0.312,0.91,0.489,1.421,0.489
		c0.266,0,0.6-0.045,0.843-0.112l0.334,1.399c-0.356,0.134-0.844,0.2-1.334,0.2c-0.888,0-1.577-0.266-2.22-0.734
		c-2.31-1.6-3.177-5.508-4.887-5.508h-1.998v6.13h-1.643L222.811,277.578L222.811,277.578z M226.786,284.619
		c1.087,0,1.889-0.068,2.509-0.245c1.489-0.444,2.243-1.376,2.243-2.688c0-1.176-0.754-1.976-1.71-2.31
		c-0.754-0.288-1.555-0.333-2.62-0.333h-2.755v5.576L226.786,284.619L226.786,284.619z"/>
	<path fill="#FFFFFF" d="M243.445,277.512h1.177l7.485,14.703h-1.844l-2.332-4.665h-7.663l-2.265,4.665h-1.822L243.445,277.512z
		 M247.199,286.107l-3.153-6.263h-0.045l-3.044,6.263H247.199z"/>
	<path fill="#FFFFFF" d="M254.951,277.578h1.644v14.636h-1.644V277.578z"/>
	<path fill="#FFFFFF" d="M261.348,277.578h1.312l11.593,11.771h0.045v-11.771h1.643v14.636h-1.132l-11.771-11.95h-0.045v11.95
		h-1.644L261.348,277.578L261.348,277.578z"/>
</g>
</svg>
