<?xml version="1.0" encoding="utf-8"?>
<!-- Generator: Adobe Illustrator 17.0.0, SVG Export Plug-In . SVG Version: 6.00 Build 0)  -->
<!DOCTYPE svg PUBLIC "-//W3C//DTD SVG 1.1//EN" "http://www.w3.org/Graphics/SVG/1.1/DTD/svg11.dtd">
<svg version="1.1" id="Layer_1" xmlns="http://www.w3.org/2000/svg" xmlns:xlink="http://www.w3.org/1999/xlink" x="0px" y="0px"
	 width="300px" height="600px" viewBox="0 0 300 600" enable-background="new 0 0 300 600" xml:space="preserve">
<g>
	<path fill="#FFFFFF" d="M133.486,265.155h8.762v1.274h-7.334v4.323h6.619v1.254h-6.619v5.867h-1.427v-12.717H133.486z"/>
	<path fill="#FFFFFF" d="M143.307,268.666h3.301v3.378h0.039c0.733-1.988,2.412-3.686,4.728-3.628l-0.194,1.486
		c-1.853-0.019-3.434,1.544-4.188,3.938c-0.289,0.906-0.386,1.91-0.386,3.088v0.945h-1.428v-7.971h-1.871v-1.234H143.307z"/>
	<path fill="#FFFFFF" d="M152.491,273.26c0-2.702,1.988-4.843,5.095-4.843c3.088,0,5.076,2.141,5.076,4.843
		c0,2.664-1.968,4.805-5.115,4.805C154.478,278.065,152.491,275.924,152.491,273.26z M161.176,273.26c0-2.084-1.468-3.57-3.59-3.57
		c-2.141,0-3.609,1.506-3.609,3.57c0,2.027,1.468,3.532,3.571,3.532C159.709,276.791,161.176,275.287,161.176,273.26z"/>
	<path fill="#FFFFFF" d="M164.047,268.666h3.301v3.184h0.039c0.655-1.659,2.007-3.434,4.399-3.434c1.814,0,3.03,1.042,3.03,3.068
		v0.444h0.039c0.714-1.794,2.104-3.512,4.497-3.512c1.871,0,3.029,1.042,3.029,3.127v4.246c0,0.695,0.387,0.906,0.985,0.906
		c0.231,0,0.579-0.057,0.771-0.116l0.308,1.176c-0.463,0.135-0.926,0.213-1.37,0.213c-1.313,0-2.103-0.618-2.103-1.91v-4.17
		c0-1.486-0.58-2.2-1.853-2.2c-1.738,0-3.185,1.582-3.86,3.898c-0.29,0.965-0.405,2.065-0.405,3.261v1.023h-1.409v-6.002
		c0-1.487-0.618-2.181-1.853-2.181c-1.718,0-3.165,1.582-3.841,3.898c-0.29,0.965-0.405,2.065-0.405,3.261v1.023h-1.428V269.9
		h-1.871v-1.233H164.047z"/>
</g>
<g>
	<path fill="#FFFFFF" d="M73.648,348.349v-3.153c-9.808-0.962-15.5-5.954-18.039-11.383l2.364-1.226
		c2.101,4.554,6.917,9.02,15.675,9.984v-5.255c-6.479-0.787-9.545-4.028-11.034-7.092l2.364-1.226
		c1.051,2.276,3.328,4.904,8.67,5.692V322.08c-9.195-0.351-16.2-7.531-16.2-16.901c0-9.282,7.005-16.55,16.2-16.901v-2.627h2.627
		v2.627h5.254v-2.627h2.627v2.715c7.618,0.7,12.872,4.553,15.5,9.72l-2.364,1.226c-2.189-4.378-6.83-7.793-13.135-8.319v5.341
		c4.466,0.612,7.093,2.627,8.495,5.341l-2.364,1.226c-1.051-1.926-2.803-3.416-6.13-3.942v12.609
		c9.195,0.351,16.287,7.619,16.287,16.901c0,9.37-7.092,16.638-16.287,16.901v2.978h-2.627v-2.978h-5.254v2.978L73.648,348.349
		L73.648,348.349z M73.648,319.452v-5.255c-4.729-0.35-8.319-4.116-8.319-9.019c0-4.817,3.59-8.67,8.319-9.02v-5.254
		c-7.705,0.351-13.574,6.479-13.574,14.274C60.076,313.059,65.943,319.102,73.648,319.452z M73.648,311.57v-12.784
		c-3.24,0.351-5.692,3.065-5.692,6.393C67.956,308.593,70.409,311.22,73.648,311.57z M81.53,296.158v-5.254h-5.254v5.254H81.53z
		 M76.276,298.786v36.079h5.254v-36.079H76.276z M81.53,342.745v-5.254h-5.254v5.254H81.53z M84.156,314.198v5.255
		c4.729,0.35,8.407,4.203,8.407,9.019c0,4.904-3.678,8.758-8.407,9.02v5.254c7.705-0.263,13.662-6.393,13.662-14.274
		C97.818,320.678,91.863,314.548,84.156,314.198z M84.156,322.079v12.784c3.24-0.263,5.779-2.978,5.779-6.393
		C89.936,325.143,87.397,322.429,84.156,322.079z"/>
	<path fill="#FFFFFF" d="M129.252,286.35l-20.753,21.279l-1.926-1.925l18.916-19.354H129.252z M154.385,347.648h-44.659v-2.627
		h18.565v-5.254h-18.565v-2.627h18.565v-38.617l-14.187,14.537l-1.926-1.926l24.258-24.782h2.363v50.79h15.588v2.627h-23.468v5.254
		h23.468v2.626H154.385z M130.916,295.896v41.244h5.255v-46.674L130.916,295.896z"/>
	<path fill="#FFFFFF" d="M179.689,286.35l-20.753,21.279l-1.926-1.925l18.916-19.354H179.689z M204.821,347.648h-44.659v-2.627
		h18.565v-5.254h-18.565v-2.627h18.565v-38.617l-14.187,14.537l-1.926-1.926l24.258-24.782h2.363v50.79h15.588v2.627h-23.468v5.254
		h23.468v2.626H204.821z M181.353,295.896v41.244h5.255v-46.674L181.353,295.896z"/>
	<path fill="#FFFFFF" d="M209.198,329.698c0-7.356,3.503-11.297,8.232-13.836c-3.854-2.451-6.567-6.392-6.567-12.697
		c0-10.683,8.495-17.512,21.542-17.512s21.541,6.829,21.541,17.512c0,6.306-2.715,10.246-6.566,12.697
		c4.728,2.539,8.231,6.479,8.231,13.836c0,10.333-8.319,18.652-23.204,18.652C217.517,348.349,209.198,340.031,209.198,329.698z
		 M252.982,329.698c0-6.479-3.591-10.158-8.32-12.434c-2.013,0.875-4.466,1.664-6.654,2.189c5.167,1.576,9.72,4.203,9.72,10.071
		c0,6.129-4.816,10.946-15.324,10.946s-15.325-4.817-15.325-10.946c0-5.867,4.554-8.495,9.721-10.071
		c-2.189-0.526-4.641-1.314-6.655-2.189c-4.729,2.276-8.319,5.955-8.319,12.434c0,8.932,7.443,16.024,20.579,16.024
		C245.538,345.722,252.982,338.629,252.982,329.698z M246.063,302.901c0,5.341-3.853,7.792-8.932,9.37
		c2.539,0.612,4.992,1.401,7.356,2.276c3.941-2.101,6.83-5.429,6.83-11.384c0-9.106-7.444-14.886-18.915-14.886
		s-18.915,5.78-18.915,14.886c0,5.955,2.89,9.283,6.829,11.384c2.364-0.875,4.817-1.664,7.356-2.276
		c-5.079-1.577-8.933-4.029-8.933-9.37c0-5.78,4.554-9.37,13.662-9.37C241.508,293.531,246.063,297.121,246.063,302.901z
		 M245.1,329.523c0-5.604-5.691-7.443-12.696-9.02c-7.005,1.577-12.697,3.416-12.697,9.02c0,4.728,3.941,8.319,12.697,8.319
		C241.16,337.841,245.1,334.25,245.1,329.523z M243.437,302.901c0-4.203-3.678-6.743-11.033-6.743
		c-7.356,0-11.034,2.54-11.034,6.743c0,4.728,4.816,6.479,11.034,8.056C238.621,309.382,243.437,307.629,243.437,302.901z
		 M241.16,315.949c-2.188-0.788-4.378-1.314-8.757-2.364c-4.379,1.05-6.567,1.576-8.758,2.364c2.364,0.787,6.042,1.576,8.758,2.101
		C235.118,317.525,238.796,316.737,241.16,315.949z"/>
</g>
<g>
	<path fill="#FFFFFF" d="M116.103,365.987c0-2.563,1.885-4.594,4.833-4.594c2.929,0,4.813,2.031,4.813,4.594
		c0,2.526-1.867,4.557-4.85,4.557C117.988,370.543,116.103,368.512,116.103,365.987z M124.339,365.987
		c0-1.977-1.391-3.385-3.405-3.385c-2.032,0-3.423,1.427-3.423,3.385c0,1.921,1.39,3.348,3.385,3.348
		C122.948,369.336,124.339,367.908,124.339,365.987z"/>
	<path fill="#FFFFFF" d="M127.061,361.63h3.13v3.24h0.036c0.732-1.812,2.288-3.478,4.558-3.478c1.848,0,2.946,1.026,2.946,3.057
		v3.935c0,0.659,0.367,0.86,0.934,0.86c0.22,0,0.55-0.055,0.732-0.11l0.292,1.117c-0.44,0.128-0.878,0.2-1.3,0.2
		c-1.245,0-1.995-0.586-1.995-1.812v-3.99c0-1.299-0.476-2.049-1.812-2.049c-1.776,0-3.368,1.793-4.045,4.082
		c-0.274,0.914-0.348,1.812-0.348,2.819v0.86h-1.354v-7.559h-1.776v-1.172H127.061z"/>
	<path fill="#FFFFFF" d="M140.93,366.115c0-2.727,1.921-4.723,5.033-4.723c2.013,0,3.643,0.878,3.643,2.544
		c0,1.593-1.373,2.635-4.65,2.635c-0.878,0-1.793-0.037-2.562-0.147c0.073,1.849,1.445,2.91,3.569,2.91
		c1.281,0,2.141-0.291,2.947-0.64l0.421,1.081c-0.897,0.421-2.05,0.769-3.478,0.769C142.651,370.543,140.93,368.64,140.93,366.115z
		 M144.902,365.401c2.49,0,3.276-0.64,3.276-1.501c0-0.878-0.914-1.299-2.215-1.299c-1.903,0-3.257,1.006-3.514,2.634
		C143.182,365.346,144.06,365.401,144.902,365.401z"/>
	<path fill="#FFFFFF" d="M155.111,361.63l3.13,6.79h0.055l2.855-6.79h1.007l2.947,6.79h0.055l3.02-6.79h1.5l-4.082,8.785h-0.989
		l-2.947-6.735h-0.036l-2.855,6.735h-0.99l-4.173-8.785H155.111z"/>
	<path fill="#FFFFFF" d="M170.46,366.682c0-1.904,0.842-3.46,2.362-4.375c0.952-0.567,2.159-0.914,3.824-0.914
		c0.86,0,1.757,0.073,2.526,0.147v6.79c0,0.695,0.385,0.914,0.897,0.914c0.256,0,0.586-0.073,0.769-0.128l0.274,1.117
		c-0.403,0.147-0.878,0.219-1.336,0.219c-1.043,0-1.812-0.512-1.885-1.72c0-0.292-0.018-0.623,0-1.081h-0.036
		c-0.659,1.629-2.05,2.892-3.971,2.892C172.035,370.543,170.46,369.28,170.46,366.682z M177.818,363.168v-0.512
		c-0.348-0.037-0.768-0.055-1.372-0.055c-1.171,0-2.159,0.274-2.892,0.75c-1.062,0.677-1.684,1.812-1.684,3.276
		c0,1.648,0.787,2.708,2.197,2.708C175.879,369.336,177.818,367.377,177.818,363.168z"/>
	<path fill="#FFFFFF" d="M185.943,369.573l-4.521-7.943h1.536l3.716,6.478h0.036l3.332-6.478h1.464l-6.791,13.068h-1.445
		L185.943,369.573z"/>
	<path fill="#FFFFFF" d="M195.475,362.143l-2.104,1.3l-0.622-1.025l2.233-1.282l-2.233-1.281l0.622-1.025l2.104,1.3l-0.036-2.307
		h1.245l-0.037,2.307l2.123-1.318l0.623,1.026l-2.252,1.299l2.252,1.3l-0.623,1.026l-2.123-1.318l0.037,2.233h-1.245
		L195.475,362.143z"/>
</g>
</svg>
