<?xml version="1.0" encoding="utf-8"?>
<!-- Generator: Adobe Illustrator 17.0.0, SVG Export Plug-In . SVG Version: 6.00 Build 0)  -->
<!DOCTYPE svg PUBLIC "-//W3C//DTD SVG 1.1//EN" "http://www.w3.org/Graphics/SVG/1.1/DTD/svg11.dtd">
<svg version="1.1" id="Layer_1" xmlns="http://www.w3.org/2000/svg" xmlns:xlink="http://www.w3.org/1999/xlink" x="0px" y="0px"
	 width="300px" height="600px" viewBox="0 0 300 600" enable-background="new 0 0 300 600" xml:space="preserve">
<g>
	<path fill="#FFFFFF" d="M66.907,252.026c0.92,0.493,2.084,0.855,3.53,0.855c1.805,0,2.972-0.507,2.972-1.522
		c0-1.709-4.039-0.897-5.976-2.144c-0.606-0.39-0.986-0.97-0.986-1.883c0-1.884,1.774-2.811,4.221-2.811
		c1.658,0,3.233,0.42,4.25,0.942l-0.672,1.216c-0.885-0.39-2.167-0.752-3.463-0.752c-1.889,0-2.513,0.651-2.513,1.318
		c0,2.361,6.962,0.232,6.962,4.042c0,2.099-2.314,2.998-4.811,2.998c-1.79,0-3.249-0.42-4.301-1.029L66.907,252.026z"/>
	<path fill="#FFFFFF" d="M79.605,245.971h-4.022v-1.376h9.784v1.376h-4.021v8.171h-1.74v-8.171H79.605z"/>
	<path fill="#FFFFFF" d="M89.574,244.552h1.216l5.549,9.589h-1.921l-1.542-2.709h-5.27l-1.461,2.709h-1.921L89.574,244.552z
		 M92.085,250.056l-1.904-3.347h-0.033l-1.805,3.347H92.085z"/>
	<path fill="#FFFFFF" d="M97.92,244.596h1.363l7.797,6.91h0.033v-6.91h1.74v9.545h-1.248l-7.912-7.011h-0.033v7.011h-1.74v-9.545
		H97.92z"/>
	<path fill="#FFFFFF" d="M111.817,244.596h4.056c1.017,0,1.871,0.072,2.643,0.231c2.511,0.536,4.171,1.97,4.171,4.389
		c0,2.435-1.708,3.984-4.317,4.621c-0.887,0.217-1.872,0.304-3.087,0.304h-3.465v-9.545L111.817,244.596L111.817,244.596z
		 M115.249,252.765c1.066,0,1.955-0.086,2.709-0.275c1.805-0.464,2.906-1.506,2.906-3.274c0-1.781-1.166-2.664-2.807-3.042
		c-0.69-0.159-1.461-0.203-2.397-0.203h-2.101v6.794H115.249C115.249,252.765,115.249,252.765,115.249,252.765z"/>
	<path fill="#FFFFFF" d="M129.045,244.552h1.216l5.549,9.589h-1.921l-1.542-2.709h-5.27l-1.461,2.709h-1.921L129.045,244.552z
		 M131.557,250.056l-1.904-3.347h-0.033l-1.805,3.347H131.557z"/>
	<path fill="#FFFFFF" d="M137.391,244.596h3.235c0.822,0,1.559,0.042,2.183,0.187c1.411,0.333,2.544,1.145,2.544,2.651
		c0,1.637-1.331,2.463-3.103,2.724v0.028c0.706,0.348,1.148,1.623,2.018,2.245c0.329,0.231,0.69,0.377,1.15,0.377
		c0.197,0,0.509-0.028,0.756-0.087l0.362,1.304c-0.312,0.116-0.855,0.187-1.362,0.187c-0.822,0-1.461-0.261-1.986-0.636
		c-1.495-1.073-2.069-3.129-3.169-3.129h-0.885v3.695h-1.74v-9.545L137.391,244.596L137.391,244.596z M140.446,249.072
		c0.706,0,1.264-0.029,1.707-0.145c0.836-0.217,1.378-0.68,1.378-1.464c0-0.725-0.525-1.187-1.231-1.361
		c-0.459-0.116-0.951-0.13-1.641-0.13h-1.527v3.1H140.446z"/>
	<path fill="#FFFFFF" d="M148.084,244.596h4.056c1.017,0,1.871,0.072,2.643,0.231c2.511,0.536,4.17,1.97,4.17,4.389
		c0,2.435-1.707,3.984-4.316,4.621c-0.887,0.217-1.872,0.304-3.087,0.304h-3.465v-9.545L148.084,244.596L148.084,244.596z
		 M151.516,252.765c1.066,0,1.955-0.086,2.709-0.275c1.804-0.464,2.905-1.506,2.905-3.274c0-1.781-1.166-2.664-2.807-3.042
		c-0.69-0.159-1.461-0.203-2.397-0.203h-2.101v6.794H151.516L151.516,252.765L151.516,252.765z"/>
	<path fill="#FFFFFF" d="M165.248,244.596h3.202c0.805,0,1.477,0.028,2.117,0.174c1.429,0.333,2.709,1.159,2.709,2.883
		c0,1.854-1.527,2.751-3.052,3.028c-0.575,0.101-1.166,0.145-1.986,0.145h-1.249v3.317h-1.74v-9.546L165.248,244.596
		L165.248,244.596z M168.302,249.449c0.64,0,1.132-0.014,1.559-0.101c0.887-0.188,1.593-0.68,1.593-1.651
		c0-0.941-0.593-1.39-1.363-1.593c-0.492-0.13-1.066-0.13-1.773-0.13h-1.331v3.477h1.314L168.302,249.449L168.302,249.449z"/>
	<path fill="#FFFFFF" d="M175.547,244.596h3.235c0.822,0,1.559,0.042,2.183,0.187c1.411,0.333,2.544,1.145,2.544,2.651
		c0,1.637-1.331,2.463-3.103,2.724v0.028c0.706,0.348,1.148,1.623,2.018,2.245c0.329,0.231,0.69,0.377,1.15,0.377
		c0.197,0,0.509-0.028,0.756-0.087l0.362,1.304c-0.312,0.116-0.855,0.187-1.362,0.187c-0.822,0-1.461-0.261-1.986-0.636
		c-1.495-1.073-2.069-3.129-3.169-3.129h-0.885v3.695h-1.74v-9.545L175.547,244.596L175.547,244.596z M178.602,249.072
		c0.706,0,1.264-0.029,1.707-0.145c0.836-0.217,1.378-0.68,1.378-1.464c0-0.725-0.525-1.187-1.231-1.361
		c-0.459-0.116-0.951-0.13-1.641-0.13h-1.527v3.1H178.602z"/>
	<path fill="#FFFFFF" d="M186.24,244.596h7.716v1.376h-5.975v2.638h5.417v1.376h-5.417v2.782h6.075v1.377h-7.814v-9.548h-0.001
		V244.596z"/>
	<path fill="#FFFFFF" d="M196.523,244.596h1.396l4.86,5.157h0.033l4.86-5.157h1.363v9.545h-1.74v-6.852h-0.033l-4.367,4.635h-0.229
		l-4.367-4.635h-0.033v6.852h-1.74v-9.545H196.523z"/>
	<path fill="#FFFFFF" d="M211.994,244.596h1.74v9.545h-1.74V244.596z"/>
	<path fill="#FFFFFF" d="M216.693,244.596h7.717v1.376h-5.976v2.638h5.417v1.376h-5.417v2.782h6.075v1.377h-7.814v-9.548h-0.001
		V244.596z"/>
	<path fill="#FFFFFF" d="M226.975,244.596h3.235c0.822,0,1.559,0.042,2.183,0.187c1.411,0.333,2.544,1.145,2.544,2.651
		c0,1.637-1.331,2.463-3.103,2.724v0.028c0.706,0.348,1.148,1.623,2.018,2.245c0.329,0.231,0.69,0.377,1.15,0.377
		c0.197,0,0.509-0.028,0.756-0.087l0.362,1.304c-0.312,0.116-0.855,0.187-1.362,0.187c-0.822,0-1.461-0.261-1.986-0.636
		c-1.495-1.073-2.069-3.129-3.169-3.129h-0.885v3.695h-1.74v-9.545L226.975,244.596L226.975,244.596z M230.029,249.072
		c0.706,0,1.264-0.029,1.707-0.145c0.836-0.217,1.378-0.68,1.378-1.464c0-0.725-0.525-1.187-1.231-1.361
		c-0.459-0.116-0.951-0.13-1.641-0.13h-1.527v3.1H230.029z"/>
</g>
</svg>
