<?xml version="1.0" encoding="utf-8"?>
<!-- Generator: Adobe Illustrator 17.0.0, SVG Export Plug-In . SVG Version: 6.00 Build 0)  -->
<!DOCTYPE svg PUBLIC "-//W3C//DTD SVG 1.1//EN" "http://www.w3.org/Graphics/SVG/1.1/DTD/svg11.dtd">
<svg version="1.1" id="Layer_1" xmlns="http://www.w3.org/2000/svg" xmlns:xlink="http://www.w3.org/1999/xlink" x="0px" y="0px"
	 width="300px" height="600px" viewBox="0 0 300 600" enable-background="new 0 0 300 600" xml:space="preserve">
<g>
	<path fill="#444662" d="M93.835,562.165l-2.1,0.972l-0.619-0.765l2.228-0.961l-2.228-0.961l0.619-0.765l2.1,0.972l-0.036-1.726
		h1.24l-0.036,1.726l2.119-0.986l0.619,0.765l-2.244,0.972l2.244,0.972l-0.619,0.765l-2.119-0.986l0.036,1.673h-1.24L93.835,562.165
		z"/>
	<path fill="#444662" d="M103.788,560.196h-4.691v-0.906h10.749v0.906h-4.707v8.115h-1.352V560.196L103.788,560.196z"/>
	<path fill="#444662" d="M109.78,566.971c0.837,0.358,1.844,0.575,3.176,0.575c1.224,0,2.557-0.248,2.557-1.109
		c0-0.204-0.091-0.368-0.256-0.491c-0.876-0.685-4.071-0.248-5.2-1.368c-0.256-0.248-0.423-0.562-0.423-0.986
		c0-1.274,1.443-1.986,3.523-1.986c1.369,0,2.593,0.235,3.616,0.603l-0.475,0.796c-1.004-0.341-1.952-0.491-3.103-0.491
		c-1.26,0-2.153,0.327-2.153,1.01c0,0.207,0.091,0.385,0.237,0.522c0.821,0.74,3.888,0.315,5.111,1.248
		c0.329,0.245,0.545,0.572,0.545,1.067c0,1.561-2.007,2.094-3.943,2.094c-1.516,0-2.867-0.26-3.76-0.681L109.78,566.971z"/>
	<path fill="#444662" d="M119.204,565.834c0-1.382,1.312-2.094,2.847-2.421v-0.027c-1.224-0.385-1.991-0.933-1.991-1.906
		c0-1.341,1.552-2.257,4.603-2.257c2.811,0,4.764,0.836,4.764,2.315c0,1.106-1.08,1.902-3.504,2.133v0.031
		c1.24,0.368,2.573,0.916,3.867,1.832c0.439-0.438,0.805-0.957,1.115-1.558l1.203,0.327c-0.329,0.699-0.804,1.354-1.424,1.93
		c0.696,0.562,1.333,1.248,1.955,2.08h-1.571c-0.401-0.505-0.837-0.957-1.295-1.368c-1.369,0.916-3.231,1.505-5.659,1.505
		C121.067,568.449,119.204,567.435,119.204,565.834z M128.913,566.259c-1.696-1.274-3.575-1.877-5.184-2.315
		c-1.661,0.164-3.12,0.673-3.12,1.81c0,1.106,1.279,1.806,3.485,1.806C126.012,567.559,127.637,567.134,128.913,566.259z
		 M128.02,561.523c0-0.849-1.241-1.411-3.34-1.411c-2.119,0-3.212,0.548-3.212,1.385c0,0.902,1.187,1.231,2.719,1.628
		C127.089,562.917,128.02,562.386,128.02,561.523z"/>
	<path fill="#444662" d="M141.371,559.222c1.552,0,2.956,0.221,4.327,0.659l-0.42,0.859c-1.093-0.368-2.335-0.615-3.796-0.615
		c-3.449,0-5.603,1.561-5.603,3.712c0,2.284,1.952,3.708,5.584,3.708c1.385,0,2.684-0.248,3.815-0.589l0.456,0.863
		c-1.495,0.452-2.959,0.628-4.399,0.628c-4.472,0-6.883-1.818-6.883-4.53C134.453,561.208,137.155,559.222,141.371,559.222z"/>
	<path fill="#444662" d="M147.731,566.971c0.837,0.358,1.844,0.575,3.176,0.575c1.224,0,2.557-0.248,2.557-1.109
		c0-0.204-0.091-0.368-0.256-0.491c-0.876-0.685-4.071-0.248-5.2-1.368c-0.256-0.248-0.423-0.562-0.423-0.986
		c0-1.274,1.443-1.986,3.523-1.986c1.372,0,2.593,0.235,3.616,0.603l-0.475,0.796c-1.004-0.341-1.952-0.491-3.103-0.491
		c-1.26,0-2.153,0.327-2.153,1.01c0,0.207,0.091,0.385,0.237,0.522c0.821,0.74,3.888,0.315,5.111,1.248
		c0.329,0.245,0.545,0.572,0.545,1.067c0,1.561-2.007,2.094-3.943,2.094c-1.516,0-2.867-0.26-3.76-0.681L147.731,566.971z"/>
	<path fill="#444662" d="M160.97,565.559c0-1.421,0.84-2.585,2.353-3.27c0.949-0.425,2.153-0.685,3.817-0.685
		c0.856,0,1.753,0.056,2.517,0.11v5.08c0,0.519,0.384,0.685,0.897,0.685c0.253,0,0.584-0.056,0.765-0.098l0.273,0.836
		c-0.401,0.106-0.876,0.164-1.331,0.164c-1.041,0-1.808-0.385-1.881-1.288c0-0.221-0.019-0.464,0-0.81h-0.036
		c-0.657,1.221-2.045,2.164-3.961,2.164C162.541,568.449,160.97,567.505,160.97,565.559z M168.31,562.931v-0.382
		c-0.347-0.027-0.767-0.039-1.372-0.039c-1.169,0-2.153,0.204-2.883,0.558c-1.059,0.509-1.677,1.358-1.677,2.452
		c0,1.234,0.785,2.027,2.189,2.027C166.374,567.547,168.31,566.081,168.31,562.931z"/>
	<path fill="#444662" d="M174.122,562.66h-1.772v-0.877h3.12v0.983c0,0.221,0,0.548-0.019,0.877h0.039
		c0.564-1.067,1.897-2.039,3.833-2.039c1.971,0,3.431,1.027,3.431,2.835c0,2.176-2.061,4.01-5.549,4.01
		c-0.528,0-1.151-0.039-1.735-0.164v3.27h-1.349L174.122,562.66L174.122,562.66z M177.188,567.547c2.045,0,4.161-1.014,4.161-3.106
		c0-1.109-0.785-1.93-2.209-1.93c-1.753,0-3.668,1.394-3.668,4.571v0.26C176.037,567.492,176.677,567.547,177.188,567.547z"/>
	<path fill="#444662" d="M185.846,562.66h-1.772v-0.877h3.12v0.983c0,0.221,0,0.548-0.019,0.877h0.039
		c0.564-1.067,1.897-2.039,3.833-2.039c1.971,0,3.431,1.027,3.431,2.835c0,2.176-2.061,4.01-5.549,4.01
		c-0.528,0-1.151-0.039-1.735-0.164v3.27h-1.349L185.846,562.66L185.846,562.66z M188.91,567.547c2.045,0,4.161-1.014,4.161-3.106
		c0-1.109-0.785-1.93-2.209-1.93c-1.753,0-3.668,1.394-3.668,4.571v0.26C187.759,567.492,188.401,567.547,188.91,567.547z"/>
	<path fill="#444662" d="M195.651,558.621h3.12v8.213c0,0.495,0.365,0.646,0.911,0.646c0.237,0,0.567-0.043,0.749-0.084l0.273,0.836
		c-0.423,0.094-0.859,0.151-1.295,0.151c-1.241,0-1.991-0.438-1.991-1.358v-7.527h-1.769L195.651,558.621L195.651,558.621z"/>
	<path fill="#444662" d="M205.566,567.723l-4.508-5.939h1.535l3.705,4.845h0.036l3.321-4.845h1.461l-6.771,9.771h-1.443
		L205.566,567.723z"/>
</g>
</svg>
