<!-- Generator: Adobe Illustrator 19.0.1, SVG Export Plug-In  -->
<svg version="1.1"
	 xmlns="http://www.w3.org/2000/svg" xmlns:xlink="http://www.w3.org/1999/xlink" xmlns:a="http://ns.adobe.com/AdobeSVGViewerExtensions/3.0/"
	 x="0px" y="0px" width="153.8px" height="67.1px" viewBox="0 0 153.8 67.1" style="enable-background:new 0 0 153.8 67.1;"
	 xml:space="preserve">
<style type="text/css">
	.st0{fill:#FFFFFF;}
	.st1{fill:none;}
</style>
<defs>
</defs>
<g>
	<path class="st0" d="M14.5,17.5c0,0.9-0.1,1.6-0.4,2.3c-0.3,0.7-0.7,1.3-1.2,1.8c-0.5,0.5-1.2,0.9-1.9,1.2
		c-0.7,0.3-1.6,0.4-2.4,0.4H2.2V3.1h5.9c1.8,0,3.2,0.4,4.2,1.3c1,0.9,1.5,2.1,1.5,3.6c0,1.1-0.2,2-0.7,2.8c-0.5,0.8-1.2,1.4-2.3,1.9
		c0.5,0.2,1,0.4,1.4,0.7s0.8,0.7,1.1,1.1c0.3,0.4,0.6,0.9,0.7,1.4S14.5,17,14.5,17.5z M11.3,8.5c0-1.1-0.3-1.9-1-2.4
		C9.7,5.5,8.8,5.3,7.8,5.3H4.6v6.6h3.2c1.1,0,1.9-0.3,2.5-0.9S11.3,9.6,11.3,8.5z M11.9,17.6c0-0.5-0.1-1-0.3-1.5
		c-0.2-0.4-0.5-0.8-0.9-1.1s-0.8-0.5-1.3-0.7S8.5,14,7.9,14H4.6v7.1h3.1c0.6,0,1.1-0.1,1.6-0.2c0.5-0.1,1-0.3,1.3-0.6
		s0.7-0.7,0.9-1.1C11.8,18.8,11.9,18.2,11.9,17.6z"/>
	<path class="st0" d="M17.5,9.5h2.3v9.3c0,0.9,0.2,1.6,0.5,2.1c0.4,0.5,1,0.8,1.9,0.8c0.7,0,1.3-0.2,1.9-0.6
		c0.6-0.4,1.1-0.8,1.5-1.3V9.5H28v13.8h-2l-0.3-1.7c-0.2,0.2-0.5,0.5-0.8,0.7c-0.3,0.2-0.6,0.5-0.9,0.6c-0.3,0.2-0.7,0.3-1.1,0.5
		c-0.4,0.1-0.9,0.2-1.4,0.2c-1.3,0-2.3-0.4-3-1.1c-0.7-0.7-1.1-1.7-1.1-3V9.5z"/>
	<path class="st0" d="M39.3,19.5c0,0.7-0.1,1.3-0.4,1.8c-0.2,0.5-0.6,1-1,1.3s-0.9,0.6-1.5,0.8c-0.6,0.2-1.1,0.3-1.8,0.3
		c-0.7,0-1.3-0.1-2-0.2c-0.7-0.1-1.3-0.3-2-0.6v-2.1c0.6,0.3,1.2,0.5,1.8,0.7c0.6,0.2,1.3,0.3,2,0.3c0.7,0,1.3-0.1,1.7-0.4
		s0.7-0.8,0.7-1.4c0-0.5-0.1-0.9-0.4-1.3c-0.3-0.3-0.6-0.6-1.1-0.9c-0.4-0.3-0.9-0.5-1.4-0.8c-0.5-0.2-1-0.5-1.4-0.9
		c-0.4-0.3-0.8-0.7-1.1-1.2c-0.3-0.5-0.4-1.1-0.4-1.8c0-0.6,0.1-1.1,0.3-1.6c0.2-0.5,0.5-0.9,0.9-1.2c0.4-0.3,0.9-0.6,1.4-0.8
		c0.5-0.2,1.1-0.3,1.8-0.3c1.1,0,2.3,0.2,3.4,0.7V12c-0.5-0.2-1-0.5-1.5-0.6s-1.1-0.3-1.7-0.3c-0.6,0-1.2,0.1-1.6,0.4
		c-0.4,0.3-0.6,0.7-0.6,1.2c0,0.5,0.1,0.9,0.4,1.2c0.3,0.3,0.6,0.6,1.1,0.9c0.4,0.3,0.9,0.5,1.4,0.7c0.5,0.2,1,0.5,1.4,0.9
		s0.8,0.7,1.1,1.2C39.2,18.1,39.3,18.7,39.3,19.5z"/>
	<path class="st0" d="M41.8,4.3c0-0.4,0.2-0.8,0.5-1.1c0.3-0.3,0.7-0.5,1.1-0.5c0.4,0,0.8,0.2,1.1,0.5S45,3.9,45,4.3
		c0,0.4-0.2,0.8-0.5,1.1s-0.7,0.5-1.1,0.5c-0.4,0-0.8-0.2-1.1-0.5C41.9,5.1,41.8,4.8,41.8,4.3z M44.6,23.3h-2.3V9.5h2.3V23.3z"/>
	<path class="st0" d="M58.9,23.3h-2.3v-9.4c0-0.9-0.2-1.6-0.5-2.1c-0.4-0.5-1-0.7-1.9-0.7c-0.7,0-1.3,0.2-1.9,0.6
		c-0.6,0.4-1.1,0.8-1.5,1.3v10.3h-2.3V9.5h2l0.3,1.7c0.7-0.7,1.3-1.2,1.9-1.5c0.6-0.3,1.4-0.5,2.2-0.5c1.3,0,2.3,0.4,3,1.1
		c0.7,0.7,1.1,1.7,1.1,3V23.3z"/>
	<path class="st0" d="M64.2,17.1c0,0.6,0.1,1.2,0.2,1.7c0.1,0.6,0.4,1,0.7,1.5c0.3,0.4,0.8,0.8,1.3,1s1.2,0.4,1.9,0.4
		c1.2,0,2.5-0.3,3.9-1v2c-0.6,0.3-1.3,0.5-2.1,0.7c-0.8,0.1-1.5,0.2-2.3,0.2c-1.1,0-2-0.2-2.8-0.5c-0.8-0.4-1.4-0.8-1.9-1.5
		s-0.9-1.4-1.1-2.3c-0.2-0.9-0.4-1.9-0.4-3c0-1,0.1-1.9,0.4-2.8c0.2-0.9,0.6-1.6,1.1-2.3s1.1-1.2,1.8-1.6c0.7-0.4,1.6-0.6,2.5-0.6
		c1,0,1.8,0.2,2.4,0.5s1.2,0.8,1.6,1.5c0.4,0.6,0.7,1.3,0.9,2.1c0.2,0.8,0.3,1.6,0.3,2.5c0,0.3,0,0.6,0,0.8s0,0.4,0,0.6H64.2z
		 M70.3,15.1c0-0.5,0-1-0.1-1.5c-0.1-0.5-0.2-0.9-0.4-1.3c-0.2-0.4-0.5-0.7-0.9-0.9c-0.4-0.2-0.9-0.3-1.5-0.3
		c-0.5,0-0.9,0.1-1.3,0.3c-0.4,0.2-0.7,0.5-1,0.8c-0.3,0.4-0.5,0.8-0.6,1.3s-0.2,1-0.3,1.6H70.3z"/>
	<path class="st0" d="M83.2,19.5c0,0.7-0.1,1.3-0.4,1.8c-0.2,0.5-0.6,1-1,1.3s-0.9,0.6-1.5,0.8c-0.6,0.2-1.1,0.3-1.8,0.3
		c-0.7,0-1.3-0.1-2-0.2c-0.7-0.1-1.3-0.3-2-0.6v-2.1c0.6,0.3,1.2,0.5,1.8,0.7c0.6,0.2,1.3,0.3,2,0.3c0.7,0,1.3-0.1,1.7-0.4
		s0.7-0.8,0.7-1.4c0-0.5-0.1-0.9-0.4-1.3c-0.3-0.3-0.6-0.6-1.1-0.9c-0.4-0.3-0.9-0.5-1.4-0.8c-0.5-0.2-1-0.5-1.4-0.9
		c-0.4-0.3-0.8-0.7-1.1-1.2c-0.3-0.5-0.4-1.1-0.4-1.8c0-0.6,0.1-1.1,0.3-1.6c0.2-0.5,0.5-0.9,0.9-1.2c0.4-0.3,0.9-0.6,1.4-0.8
		c0.5-0.2,1.1-0.3,1.8-0.3c1.1,0,2.3,0.2,3.4,0.7V12c-0.5-0.2-1-0.5-1.5-0.6s-1.1-0.3-1.7-0.3c-0.6,0-1.2,0.1-1.6,0.4
		c-0.4,0.3-0.6,0.7-0.6,1.2c0,0.5,0.1,0.9,0.4,1.2c0.3,0.3,0.6,0.6,1.1,0.9c0.4,0.3,0.9,0.5,1.4,0.7c0.5,0.2,1,0.5,1.4,0.9
		s0.8,0.7,1.1,1.2C83.1,18.1,83.2,18.7,83.2,19.5z"/>
	<path class="st0" d="M93.6,19.5c0,0.7-0.1,1.3-0.4,1.8c-0.2,0.5-0.6,1-1,1.3s-0.9,0.6-1.5,0.8c-0.6,0.2-1.1,0.3-1.8,0.3
		c-0.7,0-1.3-0.1-2-0.2c-0.7-0.1-1.3-0.3-2-0.6v-2.1c0.6,0.3,1.2,0.5,1.8,0.7c0.6,0.2,1.3,0.3,2,0.3c0.7,0,1.3-0.1,1.7-0.4
		s0.7-0.8,0.7-1.4c0-0.5-0.1-0.9-0.4-1.3c-0.3-0.3-0.6-0.6-1.1-0.9c-0.4-0.3-0.9-0.5-1.4-0.8c-0.5-0.2-1-0.5-1.4-0.9
		c-0.4-0.3-0.8-0.7-1.1-1.2c-0.3-0.5-0.4-1.1-0.4-1.8c0-0.6,0.1-1.1,0.3-1.6c0.2-0.5,0.5-0.9,0.9-1.2c0.4-0.3,0.9-0.6,1.4-0.8
		c0.5-0.2,1.1-0.3,1.8-0.3c1.1,0,2.3,0.2,3.4,0.7V12c-0.5-0.2-1-0.5-1.5-0.6s-1.1-0.3-1.7-0.3c-0.6,0-1.2,0.1-1.6,0.4
		c-0.4,0.3-0.6,0.7-0.6,1.2c0,0.5,0.1,0.9,0.4,1.2c0.3,0.3,0.6,0.6,1.1,0.9c0.4,0.3,0.9,0.5,1.4,0.7c0.5,0.2,1,0.5,1.4,0.9
		s0.8,0.7,1.1,1.2C93.5,18.1,93.6,18.7,93.6,19.5z"/>
	<path class="st0" d="M113.9,20.2l2.9-10.8h2.2l-4,13.8h-2.3l-2.9-10.9l-2.9,10.9h-2.3l-4.2-13.8h2.4l3.1,10.7l2.9-10.7h2.4
		L113.9,20.2z"/>
	<path class="st0" d="M120.8,4.3c0-0.4,0.2-0.8,0.5-1.1c0.3-0.3,0.7-0.5,1.1-0.5c0.4,0,0.8,0.2,1.1,0.5s0.5,0.7,0.5,1.1
		c0,0.4-0.2,0.8-0.5,1.1s-0.7,0.5-1.1,0.5c-0.4,0-0.8-0.2-1.1-0.5C120.9,5.1,120.8,4.8,120.8,4.3z M123.6,23.3h-2.3V9.5h2.3V23.3z"
		/>
	<path class="st0" d="M130.7,9.5h3.6v2h-3.6v8.2c0,0.7,0.1,1.2,0.4,1.6c0.3,0.3,0.8,0.5,1.5,0.5c0.4,0,0.8,0,1.1-0.1s0.7-0.2,1-0.3
		v2c-0.4,0.1-0.8,0.3-1.3,0.3c-0.5,0.1-0.9,0.1-1.3,0.1c-1.3,0-2.3-0.3-2.9-0.9c-0.6-0.6-0.9-1.5-0.9-2.8v-8.5h-2.6v-2h2.6V5.7h2.3
		V9.5z"/>
	<path class="st0" d="M147.7,23.3h-2.3v-9.4c0-0.9-0.2-1.6-0.6-2.1c-0.4-0.5-1-0.7-2-0.7c-0.6,0-1.1,0.2-1.7,0.5
		c-0.6,0.3-1.1,0.8-1.6,1.4v10.3h-2.3V3.1h2.3v8c0.5-0.5,1.1-1,1.7-1.4c0.7-0.4,1.5-0.6,2.4-0.6c1.3,0,2.3,0.4,3,1.1
		c0.7,0.7,1.1,1.7,1.1,3V23.3z"/>
</g>
<g>
	<path class="st0" d="M20.8,62.3h-3.9V46.6c0-1.5-0.3-2.7-0.9-3.5c-0.6-0.8-1.6-1.3-3.1-1.3c-1.1,0-2.2,0.3-3.2,1
		c-1,0.7-1.9,1.4-2.6,2.2v17.2H3.2V39.1h3.3L7,41.9c1.1-1.1,2.2-2,3.2-2.6c1.1-0.6,2.3-0.9,3.8-0.9c2.2,0,3.8,0.6,5,1.8
		c1.2,1.2,1.8,2.9,1.8,5.1V62.3z"/>
	<path class="st0" d="M44.8,50.7c0,1.7-0.2,3.2-0.6,4.7s-1,2.7-1.8,3.9c-0.8,1.1-1.8,2-3.1,2.6c-1.3,0.6-2.8,1-4.6,1
		c-1.8,0-3.3-0.3-4.5-1c-1.3-0.6-2.3-1.5-3.1-2.6c-0.8-1.1-1.4-2.4-1.8-3.9s-0.6-3-0.6-4.7c0-1.6,0.2-3.1,0.6-4.6s1-2.8,1.8-3.9
		c0.8-1.1,1.8-2,3.1-2.7s2.8-1,4.6-1c1.8,0,3.3,0.3,4.6,1s2.3,1.6,3.1,2.7s1.4,2.4,1.8,3.9S44.8,49.1,44.8,50.7z M40.8,50.6
		c0-1.1-0.1-2.1-0.2-3.2c-0.1-1.1-0.4-2-0.9-2.8c-0.4-0.8-1.1-1.5-1.8-2c-0.8-0.5-1.8-0.8-3.1-0.8c-1.3,0-2.3,0.3-3.1,0.8
		c-0.8,0.5-1.4,1.2-1.8,2c-0.4,0.8-0.7,1.8-0.9,2.8c-0.1,1.1-0.2,2.1-0.2,3.2c0,1.1,0.1,2.2,0.2,3.3c0.2,1.1,0.5,2,0.9,2.9
		c0.4,0.8,1,1.5,1.8,2c0.8,0.5,1.8,0.8,3,0.8c1.3,0,2.3-0.3,3.1-0.8c0.8-0.5,1.4-1.2,1.8-2c0.4-0.8,0.7-1.8,0.9-2.9
		C40.7,52.8,40.8,51.7,40.8,50.6z"/>
	<path class="st0" d="M61.5,62.3h-3.9V28.4h3.9V62.3z"/>
	<path class="st0" d="M66.5,30.5c0-0.7,0.3-1.3,0.8-1.9c0.5-0.5,1.1-0.8,1.9-0.8c0.7,0,1.4,0.3,1.9,0.8c0.5,0.5,0.8,1.2,0.8,1.9
		c0,0.7-0.3,1.3-0.8,1.9c-0.5,0.5-1.2,0.8-1.9,0.8c-0.7,0-1.4-0.3-1.9-0.8C66.7,31.8,66.5,31.2,66.5,30.5z M71.1,62.3h-3.9V39.1h3.9
		V62.3z"/>
	<path class="st0" d="M93.5,62.3h-3.9V46.6c0-1.5-0.2-2.6-0.7-3.5c-0.5-0.9-1.4-1.3-2.8-1.3c-1,0-1.9,0.3-2.8,1
		c-0.9,0.7-1.8,1.4-2.6,2.2v17.3h-3.9V39.1h3.3l0.5,2.9c0.9-0.9,1.8-1.7,2.9-2.4s2.3-1.1,3.7-1.1c2.7,0,4.6,1.2,5.6,3.5
		c1.1-1,2.2-1.8,3.4-2.5c1.2-0.7,2.4-1,3.8-1c2.1,0,3.7,0.6,4.8,1.9c1.1,1.3,1.6,2.9,1.6,5v16.9h-3.9V46.6c0-0.7,0-1.3-0.1-1.9
		c-0.1-0.6-0.3-1.1-0.5-1.5c-0.3-0.4-0.6-0.8-1.1-1c-0.5-0.2-1-0.4-1.8-0.4c-0.9,0-1.9,0.3-2.8,0.8c-1,0.6-1.9,1.2-2.7,2
		c0,0.2,0.1,0.4,0.1,0.7c0,0.3,0,0.5,0,0.7V62.3z"/>
	<path class="st0" d="M111.2,30.5c0-0.7,0.3-1.3,0.8-1.9c0.5-0.5,1.1-0.8,1.9-0.8c0.7,0,1.4,0.3,1.9,0.8c0.5,0.5,0.8,1.2,0.8,1.9
		c0,0.7-0.3,1.3-0.8,1.9c-0.5,0.5-1.2,0.8-1.9,0.8c-0.7,0-1.4-0.3-1.9-0.8C111.4,31.8,111.2,31.2,111.2,30.5z M115.8,62.3h-3.9V39.1
		h3.9V62.3z"/>
	<path class="st0" d="M127,39.1h6.1v3.3H127v13.7c0,1.2,0.2,2.1,0.7,2.6c0.5,0.6,1.3,0.8,2.6,0.8c0.7,0,1.4-0.1,1.9-0.2
		c0.6-0.1,1.1-0.3,1.6-0.5v3.3c-0.7,0.3-1.4,0.4-2.1,0.5c-0.8,0.1-1.5,0.2-2.2,0.2c-2.2,0-3.8-0.5-4.8-1.4c-1-1-1.6-2.5-1.6-4.7
		V42.4h-4.4v-3.3h4.4v-6.3h3.9V39.1z"/>
	<path class="st0" d="M149.7,55.9c0,1.2-0.2,2.2-0.6,3.1c-0.4,0.9-1,1.6-1.7,2.2c-0.7,0.6-1.5,1-2.4,1.3c-0.9,0.3-1.9,0.4-3,0.4
		c-1.1,0-2.2-0.1-3.4-0.3c-1.1-0.2-2.2-0.6-3.3-1v-3.6c0.9,0.4,1.9,0.8,3,1.2c1.1,0.3,2.2,0.5,3.3,0.5c1.2,0,2.1-0.2,2.9-0.7
		c0.8-0.5,1.1-1.3,1.1-2.4c0-0.9-0.2-1.6-0.7-2.1c-0.5-0.6-1.1-1.1-1.8-1.5c-0.7-0.4-1.5-0.9-2.3-1.3s-1.6-0.9-2.3-1.4
		c-0.7-0.5-1.3-1.2-1.8-2c-0.5-0.8-0.7-1.8-0.7-3.1c0-1,0.2-1.9,0.6-2.7c0.4-0.8,0.9-1.5,1.6-2c0.7-0.5,1.4-1,2.4-1.3
		c0.9-0.3,1.9-0.4,3-0.4c1.9,0,3.8,0.4,5.7,1.1v3.7c-0.8-0.4-1.7-0.8-2.6-1.1c-0.9-0.3-1.8-0.5-2.9-0.5c-1.1,0-1.9,0.2-2.6,0.7
		c-0.7,0.5-1,1.2-1,2.1c0,0.8,0.2,1.5,0.7,2c0.5,0.5,1.1,1,1.8,1.4s1.5,0.8,2.4,1.3c0.8,0.4,1.6,0.9,2.4,1.5
		c0.7,0.6,1.3,1.3,1.8,2.1C149.4,53.6,149.7,54.6,149.7,55.9z"/>
</g>
<rect class="st1" width="153.8" height="67.1"/>
</svg>
