<!-- Generator: Adobe Illustrator 19.0.1, SVG Export Plug-In  -->
<svg version="1.1"
	 xmlns="http://www.w3.org/2000/svg" xmlns:xlink="http://www.w3.org/1999/xlink" xmlns:a="http://ns.adobe.com/AdobeSVGViewerExtensions/3.0/"
	 x="0px" y="0px" width="165.1px" height="26.2px" viewBox="0 0 165.1 26.2" style="enable-background:new 0 0 165.1 26.2;"
	 xml:space="preserve">
<style type="text/css">
	.st0{fill:#FFFFFF;}
	.st1{fill:none;}
</style>
<defs>
</defs>
<g>
	<path class="st0" d="M10.2,19.8c1.2,0,2-0.3,2.6-1c0.5-0.6,0.8-1.5,0.8-2.5V4.1h2.1v12c0,1.7-0.5,3.1-1.4,4.1
		c-0.9,1-2.3,1.5-4.2,1.5c-1.7,0-3.1-0.4-4.1-1.3c-1-0.9-1.5-2.2-1.5-4V4.1h2.1V16c0,1.3,0.3,2.3,1,2.9C8.2,19.5,9.1,19.8,10.2,19.8
		z"/>
	<path class="st0" d="M27.4,21.4h-2v-8c0-0.8-0.2-1.4-0.5-1.8c-0.3-0.4-0.8-0.6-1.6-0.6c-0.6,0-1.1,0.2-1.6,0.5
		c-0.5,0.3-1,0.7-1.3,1.1v8.8h-2V9.5h1.7l0.2,1.5c0.6-0.6,1.1-1,1.7-1.3c0.5-0.3,1.2-0.4,1.9-0.4c1.1,0,2,0.3,2.6,0.9
		c0.6,0.6,0.9,1.5,0.9,2.6V21.4z"/>
	<path class="st0" d="M32,21.4h-2V4.1h2V21.4z"/>
	<path class="st0" d="M34.3,5.1c0-0.4,0.1-0.7,0.4-1c0.3-0.3,0.6-0.4,1-0.4c0.4,0,0.7,0.1,1,0.4c0.3,0.3,0.4,0.6,0.4,1
		s-0.1,0.7-0.4,1c-0.3,0.3-0.6,0.4-1,0.4c-0.4,0-0.7-0.1-1-0.4C34.4,5.8,34.3,5.5,34.3,5.1z M36.6,21.4h-2V9.5h2V21.4z"/>
	<path class="st0" d="M47.8,21.4h-2v-8c0-0.7-0.1-1.3-0.4-1.8c-0.2-0.4-0.7-0.7-1.4-0.7c-0.5,0-1,0.2-1.5,0.5
		c-0.5,0.3-0.9,0.7-1.3,1.1v8.8h-2V9.5H41l0.2,1.5c0.4-0.5,0.9-0.9,1.5-1.2c0.5-0.4,1.2-0.5,1.9-0.5c1.4,0,2.3,0.6,2.9,1.8
		c0.5-0.5,1.1-0.9,1.7-1.3s1.2-0.5,1.9-0.5c1.1,0,1.9,0.3,2.4,1s0.8,1.5,0.8,2.6v8.6h-2v-8c0-0.4,0-0.7-0.1-1s-0.1-0.6-0.3-0.8
		c-0.1-0.2-0.3-0.4-0.6-0.5s-0.5-0.2-0.9-0.2c-0.5,0-0.9,0.1-1.5,0.4c-0.5,0.3-1,0.6-1.4,1c0,0.1,0,0.2,0,0.4c0,0.1,0,0.3,0,0.4
		V21.4z"/>
	<path class="st0" d="M56.6,5.1c0-0.4,0.1-0.7,0.4-1c0.3-0.3,0.6-0.4,1-0.4c0.4,0,0.7,0.1,1,0.4c0.3,0.3,0.4,0.6,0.4,1
		s-0.1,0.7-0.4,1c-0.3,0.3-0.6,0.4-1,0.4c-0.4,0-0.7-0.1-1-0.4C56.7,5.8,56.6,5.5,56.6,5.1z M58.9,21.4h-2V9.5h2V21.4z"/>
	<path class="st0" d="M64.4,9.5h3.1v1.7h-3.1v7c0,0.6,0.1,1.1,0.4,1.3C65,19.8,65.4,20,66,20c0.4,0,0.7,0,1-0.1
		c0.3-0.1,0.6-0.2,0.8-0.3v1.7c-0.3,0.1-0.7,0.2-1.1,0.3c-0.4,0.1-0.8,0.1-1.1,0.1c-1.1,0-1.9-0.2-2.5-0.7c-0.5-0.5-0.8-1.3-0.8-2.4
		v-7.3h-2.2V9.5h2.2V6.3h2V9.5z"/>
	<path class="st0" d="M70.2,16c0,0.5,0.1,1,0.2,1.5c0.1,0.5,0.3,0.9,0.6,1.3c0.3,0.4,0.6,0.7,1.1,0.9c0.5,0.2,1,0.3,1.7,0.3
		c1.1,0,2.2-0.3,3.3-0.8v1.7c-0.5,0.3-1.1,0.4-1.8,0.6c-0.7,0.1-1.3,0.2-1.9,0.2c-0.9,0-1.7-0.2-2.4-0.5c-0.7-0.3-1.2-0.7-1.6-1.3
		c-0.4-0.5-0.7-1.2-0.9-2c-0.2-0.8-0.3-1.6-0.3-2.5c0-0.8,0.1-1.6,0.3-2.4c0.2-0.8,0.5-1.4,0.9-2s0.9-1,1.5-1.3
		c0.6-0.3,1.3-0.5,2.2-0.5c0.8,0,1.5,0.2,2.1,0.5s1,0.7,1.4,1.2c0.4,0.5,0.6,1.1,0.8,1.8c0.2,0.7,0.2,1.4,0.2,2.1c0,0.3,0,0.5,0,0.6
		c0,0.2,0,0.3,0,0.5H70.2z M75.4,14.3c0-0.4,0-0.9-0.1-1.3c-0.1-0.4-0.2-0.8-0.4-1.1c-0.2-0.3-0.4-0.6-0.8-0.8
		c-0.3-0.2-0.8-0.3-1.3-0.3c-0.4,0-0.8,0.1-1.1,0.3c-0.3,0.2-0.6,0.4-0.8,0.7s-0.4,0.7-0.5,1.1c-0.1,0.4-0.2,0.9-0.2,1.4H75.4z"/>
	<path class="st0" d="M88.3,21.4h-1.7l-0.2-1.1c-0.3,0.3-0.7,0.6-1.2,0.9c-0.5,0.3-1.1,0.4-1.9,0.4c-0.8,0-1.5-0.2-2.1-0.5
		c-0.6-0.3-1.1-0.7-1.5-1.3c-0.4-0.5-0.7-1.2-0.8-1.9c-0.2-0.7-0.3-1.5-0.3-2.4c0-0.9,0.1-1.7,0.3-2.5c0.2-0.8,0.5-1.5,0.9-2
		c0.4-0.6,0.9-1,1.5-1.4s1.4-0.5,2.2-0.5c0.6,0,1.1,0.1,1.6,0.3c0.5,0.2,0.8,0.4,1.1,0.7V4.1h2V21.4z M86.3,11.8
		c-0.4-0.3-0.7-0.5-1.1-0.6s-0.8-0.3-1.3-0.3c-0.6,0-1.2,0.1-1.6,0.4c-0.4,0.2-0.7,0.6-1,1c-0.2,0.4-0.4,0.9-0.5,1.4
		c-0.1,0.6-0.1,1.1-0.1,1.8c0,0.6,0.1,1.2,0.2,1.7c0.1,0.5,0.3,1,0.5,1.4c0.2,0.4,0.6,0.7,1,1c0.4,0.2,0.9,0.4,1.5,0.4
		c0.9,0,1.7-0.3,2.5-1V11.8z"/>
	<path class="st0" d="M100.9,19.8c1.2,0,2-0.3,2.6-1s0.8-1.5,0.8-2.5V4.1h2.1v12c0,1.7-0.5,3.1-1.4,4.1s-2.3,1.5-4.2,1.5
		c-1.7,0-3.1-0.4-4.1-1.3c-1-0.9-1.5-2.2-1.5-4V4.1h2.1V16c0,1.3,0.3,2.3,1,2.9C98.9,19.5,99.8,19.8,100.9,19.8z"/>
	<path class="st0" d="M111.4,12.1h0.2l6-8h2.6l-6.4,8.3l7,9H118l-6.3-8.3h-0.3v8.3h-2.1V4.1h2.1V12.1z"/>
	<path class="st0" d="M131,20c0.5,0,1-0.1,1.4-0.2c0.4-0.1,0.9-0.3,1.4-0.4v1.7c-0.4,0.2-0.9,0.3-1.4,0.4c-0.5,0.1-1.1,0.2-1.6,0.2
		c-1,0-1.8-0.1-2.5-0.4c-0.7-0.3-1.3-0.7-1.7-1.2c-0.4-0.5-0.8-1.2-1-2c-0.2-0.8-0.3-1.6-0.3-2.6c0-0.8,0.1-1.5,0.3-2.3
		c0.2-0.7,0.5-1.4,1-2c0.4-0.6,1-1,1.7-1.4s1.5-0.5,2.4-0.5c0.5,0,1,0,1.5,0.1s0.9,0.2,1.4,0.4v1.8c-0.4-0.2-0.8-0.3-1.3-0.5
		c-0.5-0.1-1-0.2-1.5-0.2c-0.6,0-1.2,0.1-1.6,0.4c-0.4,0.2-0.8,0.6-1.1,1c-0.3,0.4-0.5,0.9-0.6,1.4c-0.1,0.5-0.2,1.1-0.2,1.7
		c0,0.6,0.1,1.2,0.2,1.7c0.1,0.5,0.3,1,0.6,1.4c0.3,0.4,0.7,0.7,1.1,1S130.3,20,131,20z"/>
	<path class="st0" d="M141.5,21.4l-0.2-1c-0.4,0.3-0.8,0.6-1.3,0.8s-1.1,0.4-1.8,0.4c-1.1,0-2-0.3-2.7-1c-0.7-0.6-1-1.5-1-2.7
		c0-0.7,0.1-1.3,0.3-1.8c0.2-0.5,0.5-0.9,1-1.3c0.4-0.3,0.9-0.6,1.5-0.8s1.2-0.3,1.9-0.3h2.1v-0.6c0-0.9-0.2-1.5-0.5-1.8
		s-1-0.5-1.8-0.5c-0.5,0-1,0.1-1.6,0.2c-0.6,0.1-1.1,0.3-1.6,0.5V9.7c0.4-0.1,0.9-0.2,1.6-0.3c0.7-0.1,1.3-0.2,1.9-0.2
		c1.4,0,2.4,0.3,3.1,1s1,1.7,1,3v8.2H141.5z M141.2,15.6h-1.9c-0.9,0-1.5,0.2-2,0.5c-0.5,0.3-0.7,0.9-0.7,1.7c0,0.7,0.2,1.2,0.5,1.6
		c0.4,0.4,0.9,0.5,1.6,0.5c0.5,0,1-0.1,1.4-0.3s0.8-0.4,1.1-0.7V15.6z"/>
	<path class="st0" d="M147.6,21.4h-2V4.1h2V21.4z"/>
	<path class="st0" d="M152.3,21.4h-2V4.1h2V21.4z"/>
	<path class="st0" d="M161.4,18.1c0,0.6-0.1,1.1-0.3,1.6c-0.2,0.4-0.5,0.8-0.9,1.1c-0.4,0.3-0.8,0.5-1.2,0.6c-0.5,0.1-1,0.2-1.5,0.2
		c-0.6,0-1.1-0.1-1.7-0.2c-0.6-0.1-1.1-0.3-1.7-0.5v-1.8c0.5,0.2,1,0.4,1.5,0.6s1.1,0.3,1.7,0.3s1.1-0.1,1.5-0.4
		c0.4-0.2,0.6-0.7,0.6-1.2c0-0.4-0.1-0.8-0.4-1.1c-0.2-0.3-0.6-0.5-0.9-0.8c-0.4-0.2-0.8-0.4-1.2-0.7c-0.4-0.2-0.8-0.5-1.2-0.7
		s-0.7-0.6-0.9-1c-0.2-0.4-0.4-0.9-0.4-1.6c0-0.5,0.1-0.9,0.3-1.4c0.2-0.4,0.5-0.8,0.8-1c0.3-0.3,0.7-0.5,1.2-0.6
		c0.5-0.2,1-0.2,1.5-0.2c1,0,1.9,0.2,2.9,0.6v1.9c-0.4-0.2-0.9-0.4-1.3-0.6c-0.4-0.2-0.9-0.2-1.5-0.2c-0.5,0-1,0.1-1.3,0.4
		c-0.3,0.2-0.5,0.6-0.5,1.1c0,0.4,0.1,0.7,0.4,1c0.2,0.3,0.5,0.5,0.9,0.7s0.8,0.4,1.2,0.6c0.4,0.2,0.8,0.5,1.2,0.7
		c0.4,0.3,0.7,0.6,0.9,1.1C161.3,16.9,161.4,17.5,161.4,18.1z"/>
</g>
<rect class="st1" width="165.1" height="26.2"/>
</svg>
