<?xml version="1.0" encoding="utf-8"?>
<!-- Generator: Adobe Illustrator 21.1.0, SVG Export Plug-In . SVG Version: 6.00 Build 0)  -->
<svg version="1.1" id="Layer_1" xmlns="http://www.w3.org/2000/svg" xmlns:xlink="http://www.w3.org/1999/xlink" x="0px" y="0px"
	 viewBox="0 0 58.2 29.9" style="enable-background:new 0 0 58.2 29.9;" xml:space="preserve">
<style type="text/css">
	.st0{fill:#141214;}
	.st1{fill:#8E8E8F;}
	.st2{fill:#FFFFFF;}
	.st3{fill:#D9D8D9;}
	.st4{fill:none;stroke:#545455;stroke-width:2.0211;stroke-linecap:round;stroke-linejoin:round;stroke-miterlimit:10;}
</style>
<g>
	<path class="st0" d="M34.3,21.2l0.8,4.4c0.3,1.8,1.5,3.2,3.2,3.9l0,0c1.8,0.8,3.9,0.4,5.4-0.9l0,0c1.8-1.5,3.1-3.5,3.8-5.8l1.1-3.8
		c0.2-0.7-0.3-1.3-1-1.4l-4.3-0.3L34.3,21.2z"/>
	<path class="st0" d="M22.3,4.3l9.6-4c1.7-0.7,3.6-0.1,4.6,1.4L38,4c0.4,0.6,1.1,1.1,1.8,1.3l6.9,1.5c1.3,0.3,2,1.7,1.4,2.9l0,0
		c-0.2,0.4-0.5,0.7-0.9,0.9l-5,2.7L22.3,4.3z"/>
	<path class="st1" d="M1,18.1l1.9,1.6l-1.1,1.2c-0.4,0.4-0.4,1.1-0.1,1.5h0c0.2,0.3,0.6,0.5,1,0.5l1,0c0.7,0,1.3,0.2,1.8,0.6
		l2.2,1.6c2.4,1.8,5.2,3.1,8.1,3.8l1.7,0.4c3.9,1,8,0.9,11.9-0.2l0,0c3.2-0.9,6.2-2.5,8.7-4.7l7.6-6.5c0.7-0.6,2.6-0.6,3.6,0.2
		l3.7,3c0.7,0.5,1.7,0.3,2.1-0.4l0.3-0.5c1.4-2.4,1.9-5.2,1.5-7.9v0C56.8,10,55.9,8,54.7,6.3L54.4,6c-0.5-0.7-1.6-0.7-2.2-0.1
		l-4.1,4.7c-0.7,0.8-2.7,1-3.6,0.2l-3.4-2.7c-2.1-1.7-4.6-2.9-7.3-3.6l0,0c-4.8-1.2-9.8-1.2-14.5-0.1l0,0C14,5.8,9.1,8.4,5.1,12.1
		L1,16c-0.4,0.3-0.5,0.8-0.5,1.2l0,0C0.6,17.5,0.8,17.8,1,18.1z"/>
	<path class="st2" d="M23.1,17.5l-4.3,5.3c-1.4,1.7-3.9,1.9-5.5,0.5l0,0c-0.9-0.8-2.2-1.1-3.4-0.9l-4.4,1l2.2,1.6
		c2.4,1.8,5.2,3.1,8.1,3.8l1.7,0.4c3.9,1,8,0.9,11.9-0.2c3.2-0.9,6.2-2.5,8.7-4.7l7.6-6.5c0.5-0.5,1.8-0.6,2.8-0.2l-6.3-3.8
		c-3.2-1.7-6.9-2.3-10.4-1.6l0,0C28.4,12.9,25.4,14.8,23.1,17.5z"/>
	<path class="st3" d="M17.6,29.3c3.9,1,8,0.9,11.9-0.2c0.8-0.2,1.6-0.5,2.4-0.8l-1.3-2c-1-1.5-3-2.1-4.6-1.4l-9.7,4.1L17.6,29.3z"/>
	<ellipse transform="matrix(0.9909 -0.1344 0.1344 0.9909 -1.5499 1.7)" class="st2" cx="11.8" cy="12.3" rx="2.1" ry="2.1"/>
	<ellipse transform="matrix(0.9909 -0.1344 0.1344 0.9909 -1.5499 1.7)" class="st0" cx="11.8" cy="12.3" rx="1.2" ry="1.2"/>
	<path class="st0" d="M4,13.2l0.6,0.9c0.4,0.6,1,1.2,1.7,1.6l4.4,2.5c0.4,0.2,1,0.2,1.3-0.2c0.5-0.5,0.3-1.4-0.4-1.7L8.7,15
		c-1.1-0.5-2-1.4-2.5-2.5l-0.4-1c-0.2,0.2-0.5,0.4-0.7,0.6L4,13.2z"/>
	<path class="st0" d="M15.4,23.1l5.1,2c3.2,1.2,6.7,1.1,9.7-0.5l4.6-2.4c0.9-0.5,0.9-1.8,0.1-2.3l-2-1.2c-2.2-1.3-4.9-1.4-7.2-0.5
		l-4.1,1.6c-1.5,0.6-3.3,0.6-4.8-0.1l0,0c-0.6-0.3-1.3-0.2-1.9,0.3l0,0C13.9,21,14.2,22.6,15.4,23.1z"/>
	<path class="st4" d="M1,18.1l2.2,1.8C4,20.5,5,20.6,5.9,20.1L6.1,20"/>
	<line class="st4" x1="51.9" y1="11.2" x2="55.7" y2="8"/>
	<line class="st4" x1="52.6" y1="13.4" x2="57.2" y2="13.3"/>
	<line class="st4" x1="52.5" y1="16.2" x2="56.3" y2="18.4"/>
</g>
</svg>
