<?xml version="1.0" encoding="utf-8"?>
<!-- Generator: Adobe Illustrator 17.0.0, SVG Export Plug-In . SVG Version: 6.00 Build 0)  -->
<!DOCTYPE svg PUBLIC "-//W3C//DTD SVG 1.1//EN" "http://www.w3.org/Graphics/SVG/1.1/DTD/svg11.dtd">
<svg version="1.1" id="Layer_1" xmlns="http://www.w3.org/2000/svg" xmlns:xlink="http://www.w3.org/1999/xlink" x="0px" y="0px"
	 width="300px" height="600px" viewBox="0 0 300 600" enable-background="new 0 0 300 600" xml:space="preserve">
<g>
	<path fill="#FFFFFF" d="M89.598,242.575c0.672,0.408,1.523,0.708,2.579,0.708c1.319,0,2.171-0.42,2.171-1.26
		c0-1.415-2.951-0.743-4.366-1.775c-0.443-0.323-0.72-0.803-0.72-1.559c0-1.56,1.296-2.327,3.083-2.327
		c1.211,0,2.362,0.348,3.105,0.78l-0.491,1.007c-0.647-0.323-1.583-0.623-2.53-0.623c-1.38,0-1.836,0.539-1.836,1.091
		c0,1.955,5.086,0.192,5.086,3.347c0,1.738-1.691,2.482-3.515,2.482c-1.307,0-2.374-0.348-3.142-0.852L89.598,242.575z"/>
	<path fill="#FFFFFF" d="M98.874,237.562h-2.938v-1.139h7.148v1.139h-2.938v6.765h-1.271V237.562z"/>
	<path fill="#FFFFFF" d="M106.157,236.387h0.888l4.054,7.939h-1.403l-1.127-2.243h-3.85l-1.067,2.243h-1.403L106.157,236.387z
		 M107.992,240.944l-1.391-2.771h-0.024l-1.319,2.771H107.992z"/>
	<path fill="#FFFFFF" d="M112.254,236.423h0.996l5.696,5.721h0.024v-5.721h1.271v7.903h-0.912l-5.78-5.805h-0.024v5.805h-1.271
		V236.423z"/>
	<path fill="#FFFFFF" d="M122.407,236.423h2.963c0.743,0,1.367,0.06,1.931,0.191c1.835,0.444,3.047,1.631,3.047,3.634
		c0,2.016-1.248,3.299-3.154,3.826c-0.648,0.18-1.368,0.252-2.255,0.252h-2.531V236.423z M124.914,243.187
		c0.779,0,1.428-0.071,1.979-0.228c1.319-0.384,2.123-1.247,2.123-2.711c0-1.475-0.852-2.206-2.051-2.519
		c-0.504-0.132-1.067-0.168-1.751-0.168h-1.535v5.625H124.914z"/>
	<path fill="#FFFFFF" d="M134.993,236.387h0.888l4.054,7.939h-1.403l-1.127-2.243h-3.85l-1.067,2.243h-1.403L134.993,236.387z
		 M136.828,240.944l-1.391-2.771h-0.024l-1.319,2.771H136.828z"/>
	<path fill="#FFFFFF" d="M141.09,236.423h2.363c0.6,0,1.139,0.035,1.595,0.155c1.031,0.276,1.859,0.948,1.859,2.195
		c0,1.355-0.972,2.039-2.267,2.255v0.023c0.516,0.288,0.839,1.344,1.475,1.859c0.24,0.191,0.504,0.312,0.84,0.312
		c0.144,0,0.372-0.023,0.552-0.072l0.264,1.08c-0.228,0.096-0.624,0.155-0.995,0.155c-0.6,0-1.067-0.216-1.451-0.527
		c-1.092-0.888-1.512-2.591-2.315-2.591h-0.647v3.059h-1.271V236.423z M143.322,240.129c0.516,0,0.923-0.024,1.247-0.12
		c0.611-0.18,1.007-0.563,1.007-1.212c0-0.6-0.383-0.983-0.899-1.127c-0.335-0.096-0.695-0.108-1.199-0.108h-1.115v2.567H143.322z"
		/>
	<path fill="#FFFFFF" d="M148.902,236.423h2.963c0.743,0,1.367,0.06,1.931,0.191c1.835,0.444,3.046,1.631,3.046,3.634
		c0,2.016-1.247,3.299-3.153,3.826c-0.648,0.18-1.368,0.252-2.255,0.252h-2.531V236.423z M151.409,243.187
		c0.779,0,1.428-0.071,1.979-0.228c1.318-0.384,2.122-1.247,2.122-2.711c0-1.475-0.852-2.206-2.051-2.519
		c-0.504-0.132-1.067-0.168-1.751-0.168h-1.535v5.625H151.409z"/>
	<path fill="#FFFFFF" d="M161.441,236.423h2.339c0.588,0,1.079,0.023,1.547,0.144c1.044,0.276,1.979,0.96,1.979,2.387
		c0,1.535-1.115,2.278-2.23,2.507c-0.42,0.084-0.852,0.12-1.451,0.12h-0.912v2.746h-1.271V236.423z M163.672,240.441
		c0.468,0,0.827-0.012,1.139-0.084c0.648-0.156,1.164-0.563,1.164-1.367c0-0.779-0.433-1.151-0.996-1.319
		c-0.359-0.108-0.779-0.108-1.295-0.108h-0.972v2.879H163.672z"/>
	<path fill="#FFFFFF" d="M168.965,236.423h2.363c0.6,0,1.139,0.035,1.595,0.155c1.031,0.276,1.859,0.948,1.859,2.195
		c0,1.355-0.972,2.039-2.267,2.255v0.023c0.516,0.288,0.839,1.344,1.475,1.859c0.24,0.191,0.504,0.312,0.84,0.312
		c0.144,0,0.372-0.023,0.552-0.072l0.264,1.08c-0.228,0.096-0.624,0.155-0.995,0.155c-0.6,0-1.067-0.216-1.451-0.527
		c-1.092-0.888-1.512-2.591-2.315-2.591h-0.647v3.059h-1.271V236.423z M171.197,240.129c0.516,0,0.923-0.024,1.247-0.12
		c0.611-0.18,1.007-0.563,1.007-1.212c0-0.6-0.383-0.983-0.899-1.127c-0.335-0.096-0.695-0.108-1.199-0.108h-1.115v2.567H171.197z"
		/>
	<path fill="#FFFFFF" d="M176.777,236.423h5.637v1.139h-4.365v2.184h3.958v1.139h-3.958v2.303h4.438v1.14h-5.709V236.423z"/>
	<path fill="#FFFFFF" d="M184.289,236.423h1.02l3.55,4.27h0.024l3.55-4.27h0.996v7.903h-1.271v-5.673h-0.024l-3.19,3.838h-0.167
		l-3.19-3.838h-0.024v5.673h-1.271V236.423z"/>
	<path fill="#FFFFFF" d="M195.592,236.423h1.271v7.903h-1.271V236.423z"/>
	<path fill="#FFFFFF" d="M199.024,236.423h5.638v1.139h-4.366v2.184h3.958v1.139h-3.958v2.303h4.438v1.14h-5.709V236.423z"/>
	<path fill="#FFFFFF" d="M206.536,236.423h2.363c0.6,0,1.139,0.035,1.595,0.155c1.031,0.276,1.859,0.948,1.859,2.195
		c0,1.355-0.972,2.039-2.267,2.255v0.023c0.516,0.288,0.839,1.344,1.475,1.859c0.24,0.191,0.504,0.312,0.84,0.312
		c0.144,0,0.372-0.023,0.552-0.072l0.264,1.08c-0.228,0.096-0.624,0.155-0.995,0.155c-0.6,0-1.067-0.216-1.451-0.527
		c-1.092-0.888-1.512-2.591-2.315-2.591h-0.647v3.059h-1.271V236.423z M208.767,240.129c0.516,0,0.923-0.024,1.247-0.12
		c0.611-0.18,1.007-0.563,1.007-1.212c0-0.6-0.383-0.983-0.899-1.127c-0.335-0.096-0.695-0.108-1.199-0.108h-1.115v2.567H208.767z"
		/>
</g>
</svg>
