<?xml version="1.0" encoding="utf-8"?>
<!-- Generator: Adobe Illustrator 17.0.0, SVG Export Plug-In . SVG Version: 6.00 Build 0)  -->
<!DOCTYPE svg PUBLIC "-//W3C//DTD SVG 1.1//EN" "http://www.w3.org/Graphics/SVG/1.1/DTD/svg11.dtd">
<svg version="1.1" id="Layer_1" xmlns="http://www.w3.org/2000/svg" xmlns:xlink="http://www.w3.org/1999/xlink" x="0px" y="0px"
	 width="300px" height="600px" viewBox="0 0 300 600" enable-background="new 0 0 300 600" xml:space="preserve">
<g>
	<path fill="#FFFFFF" d="M42.393,276.549h4.398c0.79,0,1.427,0.058,2.006,0.212c1.639,0.405,2.661,1.369,2.661,3.047
		c0,1.293-0.714,2.276-1.909,2.739v0.038c0.424,0.039,0.849,0.154,1.254,0.348c1.002,0.482,1.658,1.446,1.658,2.643
		c0,1.658-0.965,2.815-2.623,3.336c-0.811,0.251-1.717,0.348-2.816,0.348h-4.629V276.549z M46.483,282.142
		c0.79,0,1.33-0.058,1.773-0.212c1.08-0.309,1.697-1.042,1.697-2.025c0-1.08-0.617-1.678-1.562-1.929
		c-0.463-0.115-0.965-0.154-1.697-0.154h-2.874v4.32H46.483z M47.003,287.985c0.906,0,1.64-0.076,2.237-0.25
		c1.021-0.328,1.717-1.022,1.717-2.16c0-0.83-0.425-1.447-1.196-1.794c-0.579-0.271-1.331-0.386-2.353-0.386h-3.588v4.59H47.003z"/>
	<path fill="#FFFFFF" d="M58.635,284.282l-5.536-7.733h1.64l4.629,6.423h0.039l4.455-6.423h1.62l-5.42,7.733v4.977h-1.427V284.282z"
		/>
	<path fill="#FFFFFF" d="M72.543,276.549h1.427v5.612h8.506v-5.612h1.427v12.71h-1.427v-5.824H73.97v5.824h-1.427V276.549z"/>
	<path fill="#FFFFFF" d="M88.032,276.549h1.427v12.71h-1.427V276.549z"/>
	<path fill="#FFFFFF" d="M100.492,276.452c1.813,0,3.529,0.366,5.072,1.003l-0.443,1.215c-1.312-0.578-2.894-0.944-4.571-0.944
		c-3.857,0-6.191,2.218-6.191,5.265c0,3.183,2.064,5.188,6.288,5.188c1.118,0,2.7-0.231,3.78-0.656v-3.664h-4.726v-1.273h6.153
		v5.787c-1.062,0.539-3.318,1.08-5.324,1.08c-5.13,0-7.676-2.604-7.676-6.385C92.854,279.269,95.766,276.452,100.492,276.452z"/>
	<path fill="#FFFFFF" d="M109.79,276.549h1.427v5.612h8.506v-5.612h1.427v12.71h-1.427v-5.824h-8.506v5.824h-1.427V276.549z"/>
	<path fill="#FFFFFF" d="M124.893,283.724h5.535v1.254h-5.535V283.724z"/>
	<path fill="#FFFFFF" d="M132.839,286.944c1.022,0.771,2.449,1.234,4.186,1.234c2.16,0,3.954-0.791,3.954-2.546
		c0-2.72-5.188-1.523-7.388-3.337c-0.617-0.501-1.003-1.195-1.003-2.275c0-2.295,1.986-3.568,4.88-3.568
		c1.929,0,3.703,0.578,4.648,1.215l-0.599,1.1c-0.829-0.502-2.314-1.041-3.953-1.041c-2.488,0-3.472,1.061-3.472,2.218
		c0,3.722,8.39,0.675,8.39,5.67c0,2.604-2.546,3.839-5.458,3.839c-2.16,0-3.857-0.599-4.899-1.408L132.839,286.944z"/>
	<path fill="#FFFFFF" d="M145.956,276.549h3.627c1.215,0,2.16,0.115,2.95,0.424c1.485,0.521,2.546,1.62,2.546,3.511
		c0,2.102-1.312,3.336-3.124,3.818c-0.733,0.193-1.562,0.289-2.835,0.289h-1.736v4.668h-1.428V276.549z M149.138,283.338
		c1.062,0,1.833-0.058,2.431-0.231c1.272-0.386,2.006-1.215,2.006-2.565c0-1.254-0.598-1.986-1.562-2.372
		c-0.675-0.271-1.485-0.348-2.643-0.348h-1.986v5.517H149.138z"/>
	<path fill="#FFFFFF" d="M158.223,276.549h8.757v1.272h-7.329v4.32h6.615v1.254h-6.615v4.59h7.445v1.273h-8.873V276.549z"/>
	<path fill="#FFFFFF" d="M170.299,276.549h8.756v1.272h-7.329v4.32h6.615v1.254h-6.615v4.59h7.444v1.273h-8.871V276.549z"/>
	<path fill="#FFFFFF" d="M182.374,276.549h4.551c1.582,0,2.836,0.173,3.877,0.54c2.527,0.849,4.051,2.738,4.051,5.612
		c0,3.221-1.832,5.304-4.918,6.134c-1.042,0.289-2.199,0.424-3.685,0.424h-3.876V276.549z M186.192,287.985
		c1.369,0,2.449-0.115,3.355-0.366c2.604-0.732,3.8-2.487,3.8-4.938c0-2.275-1.157-3.684-3.028-4.358
		c-0.944-0.367-2.121-0.502-3.587-0.502H183.8v10.164H186.192z"/>
	<path fill="#FFFFFF" d="M204.632,277.821h-4.957v-1.272h11.36v1.272h-4.977v11.438h-1.427V277.821z"/>
	<path fill="#FFFFFF" d="M213.352,276.549h3.818c1.138,0,1.967,0.097,2.662,0.309c1.601,0.521,2.604,1.601,2.604,3.278
		c0,1.929-1.408,3.221-3.896,3.549v0.039c0.926,0.443,1.678,2.932,3.048,3.915c0.366,0.271,0.79,0.425,1.234,0.425
		c0.231,0,0.521-0.039,0.732-0.097l0.29,1.215c-0.309,0.116-0.733,0.174-1.158,0.174c-0.771,0-1.369-0.231-1.928-0.637
		c-2.006-1.389-2.759-4.783-4.244-4.783h-1.735v5.323h-1.427V276.549z M216.804,282.663c0.944,0,1.64-0.059,2.179-0.213
		c1.293-0.386,1.948-1.195,1.948-2.334c0-1.021-0.655-1.716-1.485-2.006c-0.655-0.25-1.35-0.289-2.275-0.289h-2.392v4.842H216.804z"
		/>
	<path fill="#FFFFFF" d="M231.27,276.491h1.022l6.5,12.768h-1.601l-2.025-4.051h-6.654l-1.967,4.051h-1.582L231.27,276.491z
		 M234.53,283.955l-2.738-5.439h-0.039l-2.643,5.439H234.53z"/>
	<path fill="#FFFFFF" d="M241.262,276.549h1.428v12.71h-1.428V276.549z"/>
	<path fill="#FFFFFF" d="M246.817,276.549h1.139l10.067,10.222h0.039v-10.222h1.427v12.71h-0.983l-10.222-10.377h-0.039v10.377
		h-1.428V276.549z"/>
</g>
</svg>
