<?xml version="1.0" encoding="utf-8"?>
<!-- Generator: Adobe Illustrator 17.0.0, SVG Export Plug-In . SVG Version: 6.00 Build 0)  -->
<!DOCTYPE svg PUBLIC "-//W3C//DTD SVG 1.1//EN" "http://www.w3.org/Graphics/SVG/1.1/DTD/svg11.dtd">
<svg version="1.1" id="Layer_1" xmlns="http://www.w3.org/2000/svg" xmlns:xlink="http://www.w3.org/1999/xlink" x="0px" y="0px"
	 width="300px" height="600px" viewBox="0 0 300 600" enable-background="new 0 0 300 600" xml:space="preserve">
<g>
	<g>
		<rect x="42.16" y="172.77" fill="#444662" width="221.254" height="4.13"/>
		<rect x="42.158" y="258.666" fill="#444662" width="221.257" height="4.131"/>
	</g>
	<g>
		<g>
			<path fill="#FFFFFF" d="M62.341,188.042h6.442v19.943h12.69v5.478H62.341V188.042z"/>
			<path fill="#FFFFFF" d="M97.25,213.849c-8.408,0-14.426-4.938-14.426-13c0-8.062,6.018-12.999,14.426-12.999
				c8.41,0,14.428,4.938,14.428,12.999C111.678,208.911,105.661,213.849,97.25,213.849z M97.25,208.294
				c5.246,0,7.831-3.125,7.831-7.445s-2.585-7.444-7.831-7.444s-7.83,3.124-7.83,7.444S92.004,208.294,97.25,208.294z"/>
			<path fill="#FFFFFF" d="M117.116,188.042h5.594l14.889,15.469h0.078v-15.469h6.441v25.421h-5.323l-15.159-15.854h-0.078v15.854
				h-6.441V188.042z"/>
			<path fill="#FFFFFF" d="M150.906,188.042h10.685c2.623,0,4.437,0.193,6.096,0.579c5.516,1.312,9.913,5.015,9.913,11.727
				c0,6.866-4.629,10.415-8.911,11.919c-2.97,1.042-6.326,1.196-9.296,1.196h-8.486V188.042z M159.778,207.985
				c2.314,0,4.127-0.154,5.632-0.578c3.124-0.888,5.593-3.279,5.593-7.06c0-3.741-2.353-5.671-4.976-6.403
				c-1.466-0.424-2.97-0.424-5.438-0.424h-3.24v14.465H159.778z"/>
			<path fill="#FFFFFF" d="M196.114,213.849c-8.408,0-14.426-4.938-14.426-13c0-8.062,6.018-12.999,14.426-12.999
				c8.41,0,14.428,4.938,14.428,12.999C210.542,208.911,204.524,213.849,196.114,213.849z M196.114,208.294
				c5.246,0,7.831-3.125,7.831-7.445s-2.585-7.444-7.831-7.444s-7.83,3.124-7.83,7.444S190.868,208.294,196.114,208.294z"/>
			<path fill="#FFFFFF" d="M215.979,188.042h5.594l14.889,15.469h0.078v-15.469h6.441v25.421h-5.323l-15.159-15.854h-0.078v15.854
				h-6.441V188.042z"/>
			<path fill="#FFFFFF" d="M74.425,232.954h21.043v5.562H74.425V232.954z"/>
			<path fill="#FFFFFF" d="M107.908,223.028h9.952c2.16,0,3.664,0.192,5.015,0.578c3.974,1.119,6.48,3.78,6.48,7.984
				c0,4.282-2.585,7.291-7.29,8.41c-1.273,0.309-2.739,0.424-4.745,0.424h-2.97v8.023h-6.442V223.028z M117.088,235.102
				c1.62,0,2.469-0.154,3.125-0.347c1.812-0.541,2.545-1.659,2.545-3.086c0-1.428-0.732-2.431-2.43-2.932
				c-0.656-0.193-1.35-0.232-2.623-0.232h-3.355v6.597H117.088z"/>
			<path fill="#FFFFFF" d="M131.283,248.448l11.572-25.536h5.747l12.537,25.536h-7.213l-2.469-5.361h-10.994l-2.199,5.361H131.283z
				 M145.709,230.589h-0.077l-2.932,7.098h6.249L145.709,230.589z"/>
			<path fill="#FFFFFF" d="M179.268,238.265c2.121,1.195,2.854,5.439,5.979,5.439c0.695,0,1.351-0.154,1.968-0.387l1.157,4.861
				c-1.312,0.501-2.893,0.655-4.089,0.655c-8.216,0-9.026-9.412-11.765-9.412h-1.389v9.026h-6.442v-25.42h10.492
				c6.943,0,10.763,2.661,10.763,8.023c0,3.779-2.393,6.364-6.674,7.136V238.265z M174.524,234.253c3.433,0,4.821-1.08,4.821-2.971
				c0-2.044-1.389-2.777-4.358-2.777h-3.857v5.748H174.524z"/>
			<path fill="#FFFFFF" d="M192.228,223.028h6.442v25.42h-6.442V223.028z"/>
			<path fill="#FFFFFF" d="M206.23,241.235c2.392,1.465,5.825,2.198,8.718,2.198c3.664,0,5.555-0.888,5.555-2.546
				c0-3.78-15.854-0.039-15.854-9.875c0-5.4,4.744-8.178,10.762-8.178c3.857,0,8.447,0.965,11.264,2.623l-2.16,4.744
				c-2.314-1.195-6.095-1.967-8.872-1.967c-3.163,0-4.397,0.887-4.397,2.237c0,4.552,15.854,0.231,15.854,10.222
				c0,5.246-5.014,8.14-12.111,8.14c-4.09,0-8.332-0.926-11.264-2.854L206.23,241.235z"/>
		</g>
	</g>
</g>
</svg>
