<?xml version="1.0" encoding="utf-8"?>
<!-- Generator: Adobe Illustrator 17.0.0, SVG Export Plug-In . SVG Version: 6.00 Build 0)  -->
<!DOCTYPE svg PUBLIC "-//W3C//DTD SVG 1.1//EN" "http://www.w3.org/Graphics/SVG/1.1/DTD/svg11.dtd">
<svg version="1.1" id="Layer_1" xmlns="http://www.w3.org/2000/svg" xmlns:xlink="http://www.w3.org/1999/xlink" x="0px" y="0px"
	 width="78.218px" height="8.237px" viewBox="0 0 78.218 8.237" enable-background="new 0 0 78.218 8.237" xml:space="preserve">
<g>
	<path fill="#FFFFFF" d="M1.143,8.237V0.063h3.733c1.502,0,3.04,0.57,3.04,2.158c0,0.818-0.435,1.414-1.241,1.65v0.024
		c1.067,0.174,1.7,0.855,1.7,1.897c0,1.961-1.837,2.444-3.362,2.444H1.143z M4.691,3.263c0.781,0,1.104-0.285,1.104-0.744
		c0-0.521-0.408-0.695-1.115-0.695H3.166v1.439H4.691z M4.791,6.476c1.104,0,1.463-0.235,1.463-0.757
		c0-0.496-0.297-0.744-1.078-0.744h-2.01v1.501H4.791z"/>
	<path fill="#FFFFFF" d="M14.454,8.361c-2.704,0-4.64-1.588-4.64-4.181S11.75,0,14.454,0s4.64,1.588,4.64,4.181
		S17.158,8.361,14.454,8.361z M14.454,6.575c1.688,0,2.519-1.005,2.519-2.395s-0.831-2.395-2.519-2.395
		c-1.687,0-2.519,1.005-2.519,2.395S12.767,6.575,14.454,6.575z"/>
	<path fill="#FFFFFF" d="M25.171,8.361c-2.703,0-4.639-1.588-4.639-4.181S22.468,0,25.171,0c2.705,0,4.641,1.588,4.641,4.181
		S27.877,8.361,25.171,8.361z M25.171,6.575c1.688,0,2.52-1.005,2.52-2.395s-0.832-2.395-2.52-2.395
		c-1.687,0-2.518,1.005-2.518,2.395S23.485,6.575,25.171,6.575z"/>
	<path fill="#FFFFFF" d="M35.605,3.697l3.834,4.54h-2.605l-2.605-3.151l-0.471,0.472v2.68h-2.072V0.063h2.072v3.126h0.023
		l2.854-3.126h2.605L35.605,3.697z"/>
	<path fill="#FFFFFF" d="M43.73,0.063h1.799l4.789,4.975h0.025V0.063h2.07v8.175h-1.711l-4.875-5.099h-0.025v5.099H43.73V0.063z"/>
	<path fill="#FFFFFF" d="M58.927,8.361c-2.705,0-4.641-1.588-4.641-4.181S56.222,0,58.927,0s4.639,1.588,4.639,4.181
		S61.632,8.361,58.927,8.361z M58.927,6.575c1.688,0,2.518-1.005,2.518-2.395s-0.83-2.395-2.518-2.395s-2.52,1.005-2.52,2.395
		S57.24,6.575,58.927,6.575z"/>
	<path fill="#FFFFFF" d="M66.396,0.063l1.947,5.16h0.023l1.875-5.16h1.822l2.061,5.16h0.023l1.787-5.16h2.283l-3.189,8.212h-1.736
		L71.171,2.94h-0.025l-1.91,5.334h-1.787l-3.361-8.212H66.396z"/>
</g>
</svg>
