<?xml version="1.0" encoding="utf-8"?>
<!-- Generator: Adobe Illustrator 17.0.0, SVG Export Plug-In . SVG Version: 6.00 Build 0)  -->
<!DOCTYPE svg PUBLIC "-//W3C//DTD SVG 1.1//EN" "http://www.w3.org/Graphics/SVG/1.1/DTD/svg11.dtd">
<svg version="1.1" id="Layer_1" xmlns="http://www.w3.org/2000/svg" xmlns:xlink="http://www.w3.org/1999/xlink" x="0px" y="0px"
	 width="300px" height="600px" viewBox="0 0 300 600" enable-background="new 0 0 300 600" xml:space="preserve">
<g>
	<path fill="#444662" d="M126.024,423.381l-0.92,0.568l-0.271-0.447l0.976-0.561l-0.976-0.561l0.271-0.447l0.92,0.568l-0.016-1.008
		h0.543l-0.016,1.008l0.928-0.576l0.271,0.447l-0.983,0.568l0.983,0.568l-0.271,0.447l-0.928-0.576l0.016,0.977h-0.543
		L126.024,423.381z"/>
	<path fill="#444662" d="M130.384,422.231h-2.055v-0.529h4.709v0.529h-2.062v4.74h-0.592V422.231z"/>
	<path fill="#444662" d="M133.009,426.188c0.367,0.209,0.808,0.336,1.391,0.336c0.536,0,1.12-0.145,1.12-0.648
		c0-0.119-0.04-0.215-0.112-0.287c-0.384-0.4-1.783-0.145-2.278-0.799c-0.112-0.145-0.185-0.328-0.185-0.576
		c0-0.744,0.632-1.16,1.543-1.16c0.6,0,1.136,0.137,1.584,0.352l-0.208,0.465c-0.44-0.199-0.855-0.287-1.359-0.287
		c-0.552,0-0.943,0.191-0.943,0.59c0,0.121,0.04,0.225,0.104,0.305c0.36,0.432,1.703,0.184,2.239,0.729
		c0.144,0.143,0.239,0.334,0.239,0.623c0,0.912-0.879,1.223-1.727,1.223c-0.664,0-1.256-0.152-1.647-0.398L133.009,426.188z"/>
	<path fill="#444662" d="M137.137,425.524c0-0.807,0.575-1.223,1.247-1.414v-0.016c-0.536-0.225-0.872-0.545-0.872-1.113
		c0-0.783,0.68-1.318,2.016-1.318c1.231,0,2.087,0.488,2.087,1.352c0,0.646-0.473,1.111-1.535,1.246v0.018
		c0.543,0.215,1.127,0.535,1.694,1.07c0.192-0.256,0.353-0.559,0.488-0.91l0.527,0.191c-0.144,0.408-0.352,0.791-0.624,1.127
		c0.305,0.328,0.584,0.729,0.856,1.215h-0.688c-0.176-0.295-0.367-0.559-0.567-0.799c-0.6,0.535-1.415,0.879-2.479,0.879
		C137.953,427.051,137.137,426.459,137.137,425.524z M141.39,425.772c-0.743-0.744-1.566-1.096-2.271-1.352
		c-0.728,0.096-1.367,0.393-1.367,1.057c0,0.646,0.56,1.055,1.527,1.055C140.119,426.531,140.831,426.283,141.39,425.772z
		 M140.999,423.006c0-0.496-0.544-0.824-1.463-0.824c-0.928,0-1.407,0.32-1.407,0.809c0,0.527,0.52,0.719,1.191,0.951
		C140.591,423.82,140.999,423.51,140.999,423.006z"/>
	<path fill="#444662" d="M146.847,421.662c0.68,0,1.295,0.129,1.895,0.385l-0.184,0.502c-0.479-0.215-1.023-0.359-1.663-0.359
		c-1.511,0-2.454,0.912-2.454,2.168c0,1.334,0.855,2.166,2.446,2.166c0.607,0,1.176-0.145,1.671-0.344l0.2,0.504
		c-0.655,0.264-1.296,0.367-1.927,0.367c-1.959,0-3.015-1.062-3.015-2.646C143.817,422.822,145,421.662,146.847,421.662z"/>
	<path fill="#444662" d="M149.633,426.188c0.367,0.209,0.808,0.336,1.391,0.336c0.536,0,1.12-0.145,1.12-0.648
		c0-0.119-0.04-0.215-0.112-0.287c-0.384-0.4-1.783-0.145-2.278-0.799c-0.112-0.145-0.185-0.328-0.185-0.576
		c0-0.744,0.632-1.16,1.543-1.16c0.601,0,1.136,0.137,1.584,0.352l-0.208,0.465c-0.44-0.199-0.855-0.287-1.359-0.287
		c-0.552,0-0.943,0.191-0.943,0.59c0,0.121,0.04,0.225,0.104,0.305c0.36,0.432,1.703,0.184,2.239,0.729
		c0.144,0.143,0.239,0.334,0.239,0.623c0,0.912-0.879,1.223-1.727,1.223c-0.664,0-1.256-0.152-1.647-0.398L149.633,426.188z"/>
	<path fill="#444662" d="M155.433,425.363c0-0.83,0.368-1.51,1.031-1.91c0.416-0.248,0.943-0.4,1.672-0.4
		c0.375,0,0.768,0.033,1.103,0.064v2.967c0,0.303,0.168,0.4,0.393,0.4c0.111,0,0.256-0.033,0.335-0.057l0.12,0.488
		c-0.176,0.062-0.384,0.096-0.583,0.096c-0.456,0-0.792-0.225-0.824-0.752c0-0.129-0.008-0.271,0-0.473h-0.016
		c-0.288,0.713-0.896,1.264-1.735,1.264C156.121,427.051,155.433,426.5,155.433,425.363z M158.648,423.828v-0.223
		c-0.152-0.016-0.336-0.023-0.601-0.023c-0.512,0-0.943,0.119-1.263,0.326c-0.464,0.297-0.735,0.793-0.735,1.432
		c0,0.721,0.344,1.184,0.959,1.184C157.8,426.524,158.648,425.668,158.648,423.828z"/>
	<path fill="#444662" d="M161.194,423.67h-0.776v-0.512h1.367v0.574c0,0.129,0,0.32-0.008,0.512h0.017
		c0.247-0.623,0.831-1.191,1.679-1.191c0.863,0,1.503,0.6,1.503,1.656c0,1.271-0.903,2.342-2.431,2.342
		c-0.231,0-0.504-0.023-0.76-0.096v1.91h-0.591V423.67z M162.537,426.524c0.896,0,1.823-0.592,1.823-1.814
		c0-0.648-0.344-1.127-0.968-1.127c-0.768,0-1.607,0.814-1.607,2.67v0.152C162.033,426.492,162.313,426.524,162.537,426.524z"/>
	<path fill="#444662" d="M166.33,423.67h-0.776v-0.512h1.367v0.574c0,0.129,0,0.32-0.008,0.512h0.017
		c0.247-0.623,0.831-1.191,1.679-1.191c0.863,0,1.503,0.6,1.503,1.656c0,1.271-0.903,2.342-2.431,2.342
		c-0.231,0-0.504-0.023-0.76-0.096v1.91h-0.591V423.67z M167.672,426.524c0.896,0,1.823-0.592,1.823-1.814
		c0-0.648-0.344-1.127-0.968-1.127c-0.768,0-1.607,0.814-1.607,2.67v0.152C167.168,426.492,167.449,426.524,167.672,426.524z"/>
	<path fill="#444662" d="M170.625,421.311h1.367v4.797c0,0.289,0.16,0.377,0.399,0.377c0.104,0,0.248-0.025,0.328-0.049l0.12,0.488
		c-0.185,0.055-0.376,0.088-0.567,0.088c-0.544,0-0.872-0.256-0.872-0.793v-4.396h-0.775V421.311z"/>
	<path fill="#444662" d="M174.968,426.627l-1.975-3.469h0.672l1.623,2.83h0.016l1.455-2.83h0.64l-2.966,5.707h-0.632
		L174.968,426.627z"/>
</g>
</svg>
