<?xml version="1.0" encoding="utf-8"?>
<!-- Generator: Adobe Illustrator 20.1.0, SVG Export Plug-In . SVG Version: 6.00 Build 0)  -->
<svg version="1.1" id="logo" xmlns="http://www.w3.org/2000/svg" xmlns:xlink="http://www.w3.org/1999/xlink" x="0px" y="0px"
	 viewBox="0 0 300 250" enable-background="new 0 0 300 250" xml:space="preserve">
<path fill="#FFFFFF" d="M190.1,224.5l3.4,3.5c-2.6,2.6-5.3,4.3-10,4.3c-7.2,0-12.5-5.6-12.5-12.7l0,0c0-7,5.3-12.7,12.7-12.7
	c4.6,0,7.3,1.4,9.6,3.8l-3.4,3.9c-2-1.7-3.9-2.8-6.3-2.8c-4,0-7,3.5-7,7.7l0,0c0,4.2,2.9,7.7,7,7.7
	C186.5,227.1,188.2,226,190.1,224.5z M217.3,231.6H211l-5.2-7.8h-4.2v7.8h-5.3V207h11.2c5.7,0,9.2,3.2,9.2,8.3
	c0,3.9-2.1,6.4-5.4,7.5L217.3,231.6z M211.3,215.5c0-2.5-1.6-3.6-4.3-3.6h-5.3v7.1h5.4C209.8,219,211.3,217.6,211.3,215.5z
	 M244.8,231.6h-5.6l-2.3-5.5h-10.3l-2.3,5.5h-5.4l10.5-24.8h5L244.8,231.6z M235,221.3l-3.3-8l-3.3,8H235z M242.9,212h7.3v19.6h5.4
	V212h7.4V207h-20.2V212z M271.8,226.8v-5.2h11.5v-4.8h-11.5v-5.1h13V207h-18.3v24.6H285v-4.8H271.8z M78.4,206.8H73v25.1h17.8v-5.1
	H78.4V206.8z M89.7,227.8v2.9H74.1v-22.9h3.3v19v1h1H89.7z M105.6,206.4c-7.6,0-13.2,5.8-13.2,12.9l0,0c0,7.1,5.4,12.9,13.2,12.9
	c7.6,0,13.2-5.8,13.2-12.9l0,0C118.8,212,113.2,206.4,105.6,206.4z M117.6,219.3c0,3.2-1.1,6.2-3.4,8.4c-2.3,2.3-5.3,3.5-8.7,3.5
	c-6.9,0-12-5.1-12-11.9l0,0c0-3.2,1.1-6.2,3.4-8.4c2.3-2.3,5.3-3.5,8.7-3.5C112.5,207.4,117.6,212.5,117.6,219.3L117.6,219.3z
	 M105.5,210.3c-4.9,0-8.4,3.8-8.4,8.8l0,0c0,5.1,3.7,9,8.6,9s8.4-3.8,8.4-8.8l0,0C114.1,214.2,110.3,210.3,105.5,210.3z
	 M113.1,219.4c0,4.3-3,7.8-7.4,7.8c-4.4,0-7.4-3.6-7.4-7.8l0,0c0-4.3,3-7.8,7.4-7.8C109.9,211.5,113.1,214.9,113.1,219.4
	L113.1,219.4z M134.1,206.4c-7.6,0-13.2,5.8-13.2,12.9l0,0c0,7.1,5.4,12.9,13.2,12.9c7.6,0,13.2-5.8,13.2-12.9l0,0
	C147.3,212,141.7,206.4,134.1,206.4z M146.1,219.3c0,3.2-1.1,6.2-3.4,8.4c-2.3,2.3-5.3,3.5-8.7,3.5c-6.9,0-12-5.1-12-11.9l0,0
	c0-3.2,1.1-6.2,3.4-8.4c2.3-2.3,5.3-3.5,8.7-3.5C141,207.4,146.1,212.5,146.1,219.3L146.1,219.3z M134.1,210.3
	c-4.9,0-8.4,3.8-8.4,8.8l0,0c0,5.1,3.7,9,8.6,9s8.4-3.8,8.4-8.8l0,0C142.6,214.2,138.8,210.3,134.1,210.3z M141.6,219.4
	c0,4.3-3,7.8-7.4,7.8c-4.4,0-7.4-3.6-7.4-7.8l0,0c0-4.3,3-7.8,7.4-7.8C138.4,211.5,141.6,214.9,141.6,219.4L141.6,219.4z
	 M149.4,211.9h7.6v20h5.4v-20h7.6v-5.1h-20.5v5.1H149.4z M150.4,207.8h18.3v2.9h-6.4h-1v1v18.8H158v-18.8v-1h-1h-6.4v-2.9H150.4z
	 M18.7,236.7h38.7v3.2H18.7V236.7z M18.7,201.2h38.7V198H18.7V201.2z M18.7,214.9h38.7v-0.7H18.7V214.9z M18.7,223.3h38.7v-0.7H18.7
	V223.3z M18.7,231.7h38.7V231H18.7V231.7z M18.1,198v42h-1.9c-0.7,0-1.3-0.6-1.3-1.3v-39.4c0-0.7,0.6-1.3,1.3-1.3H18.1z M17.1,238.4
	c0-0.3-0.3-0.6-0.6-0.6c-0.3,0-0.6,0.3-0.6,0.6s0.3,0.6,0.6,0.6C16.9,239,17.1,238.7,17.1,238.4z M17.1,199.6c0-0.3-0.3-0.6-0.6-0.6
	c-0.3,0-0.6,0.3-0.6,0.6c0,0.3,0.3,0.6,0.6,0.6C16.9,200.2,17.1,199.9,17.1,199.6z M61.2,199.3v39.4c0,0.7-0.6,1.3-1.3,1.3h-1.9v-42
	H60C60.7,198,61.1,198.6,61.2,199.3z M60.2,238.4c0-0.3-0.3-0.6-0.6-0.6c-0.3,0-0.6,0.3-0.6,0.6s0.3,0.6,0.6,0.6
	C60,239,60.2,238.7,60.2,238.4z M60.2,199.6c0-0.3-0.3-0.6-0.6-0.6c-0.3,0-0.6,0.3-0.6,0.6c0,0.3,0.3,0.6,0.6,0.6
	C60,200.2,60.2,199.9,60.2,199.6z M18.7,206.5h38.7v-0.7H18.7V206.5z"/>
</svg>
