<?xml version="1.0" encoding="utf-8"?>
<!-- Generator: Adobe Illustrator 21.0.0, SVG Export Plug-In . SVG Version: 6.00 Build 0)  -->
<svg version="1.1" id="Layer_2" xmlns="http://www.w3.org/2000/svg" xmlns:xlink="http://www.w3.org/1999/xlink" x="0px" y="0px"
	 viewBox="0 0 300 250" style="enable-background:new 0 0 300 250;" xml:space="preserve">
<style type="text/css">
	.st0{fill:#444661;}
	.st1{fill:#FFFFFF;}
</style>
<g>
	<g>
		<rect x="38.9" y="27.8" class="st0" width="224.1" height="2.4"/>
		<rect x="38.9" y="55.5" class="st0" width="224.1" height="2.4"/>
	</g>
	<g>
		<g>
			<path class="st1" d="M50.5,35.4h3.8v11.7h7.4v3.2H50.5V35.4z"/>
			<path class="st1" d="M71,50.5c-4.9,0-8.5-2.9-8.5-7.6s3.5-7.6,8.5-7.6s8.5,2.9,8.5,7.6S75.9,50.5,71,50.5z M71,47.3
				c3.1,0,4.6-1.8,4.6-4.4c0-2.5-1.5-4.4-4.6-4.4s-4.6,1.8-4.6,4.4C66.4,45.5,67.9,47.3,71,47.3z"/>
			<path class="st1" d="M82.6,35.4h3.3l8.7,9.1h0v-9.1h3.8v14.9h-3.1L86.5,41h0v9.3h-3.8V35.4z"/>
			<path class="st1" d="M102.4,35.4h6.3c1.5,0,2.6,0.1,3.6,0.3c3.2,0.8,5.8,2.9,5.8,6.9c0,4-2.7,6.1-5.2,7c-1.7,0.6-3.7,0.7-5.4,0.7
				h-5V35.4z M107.6,47.1c1.4,0,2.4-0.1,3.3-0.3c1.8-0.5,3.3-1.9,3.3-4.1c0-2.2-1.4-3.3-2.9-3.8c-0.9-0.2-1.7-0.2-3.2-0.2h-1.9v8.5
				H107.6z"/>
			<path class="st1" d="M128.9,50.5c-4.9,0-8.5-2.9-8.5-7.6s3.5-7.6,8.5-7.6s8.5,2.9,8.5,7.6S133.9,50.5,128.9,50.5z M128.9,47.3
				c3.1,0,4.6-1.8,4.6-4.4c0-2.5-1.5-4.4-4.6-4.4s-4.6,1.8-4.6,4.4C124.3,45.5,125.9,47.3,128.9,47.3z"/>
			<path class="st1" d="M140.6,35.4h3.3l8.7,9.1h0v-9.1h3.8v14.9h-3.1l-8.9-9.3h0v9.3h-3.8V35.4z"/>
			<path class="st1" d="M165.3,42.8h7.2v2.9h-7.2V42.8z"/>
			<path class="st1" d="M181.5,35.4h5.8c1.3,0,2.1,0.1,2.9,0.3c2.3,0.7,3.8,2.2,3.8,4.7c0,2.5-1.5,4.3-4.3,4.9
				c-0.7,0.2-1.6,0.2-2.8,0.2h-1.7v4.7h-3.8V35.4z M186.8,42.5c0.9,0,1.4-0.1,1.8-0.2c1.1-0.3,1.5-1,1.5-1.8c0-0.8-0.4-1.4-1.4-1.7
				c-0.4-0.1-0.8-0.1-1.5-0.1h-2v3.9H186.8z"/>
			<path class="st1" d="M195.2,50.3l6.8-15h3.4l7.3,15h-4.2l-1.4-3.1h-6.4l-1.3,3.1H195.2z M203.6,39.9L203.6,39.9l-1.8,4.2h3.7
				L203.6,39.9z"/>
			<path class="st1" d="M223.3,44.4c1.2,0.7,1.7,3.2,3.5,3.2c0.4,0,0.8-0.1,1.2-0.2l0.7,2.8c-0.8,0.3-1.7,0.4-2.4,0.4
				c-4.8,0-5.3-5.5-6.9-5.5h-0.8v5.3h-3.8V35.4h6.1c4.1,0,6.3,1.6,6.3,4.7C227.2,42.3,225.8,43.9,223.3,44.4L223.3,44.4z M220.5,42
				c2,0,2.8-0.6,2.8-1.7c0-1.2-0.8-1.6-2.6-1.6h-2.3V42H220.5z"/>
			<path class="st1" d="M230.9,35.4h3.8v14.9h-3.8V35.4z"/>
			<path class="st1" d="M239.1,46.1c1.4,0.9,3.4,1.3,5.1,1.3c2.1,0,3.3-0.5,3.3-1.5c0-2.2-9.3,0-9.3-5.8c0-3.2,2.8-4.8,6.3-4.8
				c2.3,0,4.9,0.6,6.6,1.5l-1.3,2.8c-1.4-0.7-3.6-1.2-5.2-1.2c-1.9,0-2.6,0.5-2.6,1.3c0,2.7,9.3,0.1,9.3,6c0,3.1-2.9,4.8-7.1,4.8
				c-2.4,0-4.9-0.5-6.6-1.7L239.1,46.1z"/>
		</g>
	</g>
</g>
</svg>
