<?xml version="1.0" encoding="utf-8"?>
<!-- Generator: Adobe Illustrator 21.0.0, SVG Export Plug-In . SVG Version: 6.00 Build 0)  -->
<svg version="1.1" id="Layer_2" xmlns="http://www.w3.org/2000/svg" xmlns:xlink="http://www.w3.org/1999/xlink" x="0px" y="0px"
	 viewBox="0 0 300 250" style="enable-background:new 0 0 300 250;" xml:space="preserve">
<style type="text/css">
	.st0{fill:#FFFFFF;}
</style>
<g>
	<path class="st0" d="M90.1,66.2c0.7,0.4,1.5,0.7,2.6,0.7c1.3,0,2.2-0.4,2.2-1.3c0-1.4-3-0.7-4.4-1.8c-0.4-0.3-0.7-0.8-0.7-1.6
		c0-1.6,1.3-2.3,3.1-2.3c1.2,0,2.4,0.3,3.1,0.8l-0.5,1c-0.6-0.3-1.6-0.6-2.5-0.6c-1.4,0-1.8,0.5-1.8,1.1c0,2,5.1,0.2,5.1,3.3
		c0,1.7-1.7,2.5-3.5,2.5c-1.3,0-2.4-0.3-3.1-0.9L90.1,66.2z"/>
	<path class="st0" d="M99.3,61.2h-2.9v-1.1h7.1v1.1h-2.9V68h-1.3V61.2z"/>
	<path class="st0" d="M106.6,60h0.9l4.1,7.9h-1.4l-1.1-2.2h-3.8l-1.1,2.2h-1.4L106.6,60z M108.5,64.6l-1.4-2.8h0l-1.3,2.8H108.5z"/>
	<path class="st0" d="M112.7,60.1h1l5.7,5.7h0v-5.7h1.3V68h-0.9l-5.8-5.8h0V68h-1.3V60.1z"/>
	<path class="st0" d="M122.9,60.1h3c0.7,0,1.4,0.1,1.9,0.2c1.8,0.4,3,1.6,3,3.6c0,2-1.2,3.3-3.2,3.8c-0.6,0.2-1.4,0.3-2.3,0.3h-2.5
		V60.1z M125.4,66.8c0.8,0,1.4-0.1,2-0.2c1.3-0.4,2.1-1.2,2.1-2.7c0-1.5-0.9-2.2-2.1-2.5c-0.5-0.1-1.1-0.2-1.8-0.2h-1.5v5.6H125.4z"
		/>
	<path class="st0" d="M135.5,60h0.9l4.1,7.9H139l-1.1-2.2H134L133,68h-1.4L135.5,60z M137.3,64.6l-1.4-2.8h0l-1.3,2.8H137.3z"/>
	<path class="st0" d="M141.6,60.1h2.4c0.6,0,1.1,0,1.6,0.2c1,0.3,1.9,0.9,1.9,2.2c0,1.4-1,2-2.3,2.3v0c0.5,0.3,0.8,1.3,1.5,1.9
		c0.2,0.2,0.5,0.3,0.8,0.3c0.1,0,0.4,0,0.6-0.1l0.3,1.1c-0.2,0.1-0.6,0.2-1,0.2c-0.6,0-1.1-0.2-1.5-0.5c-1.1-0.9-1.5-2.6-2.3-2.6
		h-0.6V68h-1.3V60.1z M143.8,63.8c0.5,0,0.9,0,1.2-0.1c0.6-0.2,1-0.6,1-1.2c0-0.6-0.4-1-0.9-1.1c-0.3-0.1-0.7-0.1-1.2-0.1h-1.1v2.6
		H143.8z"/>
	<path class="st0" d="M149.4,60.1h3c0.7,0,1.4,0.1,1.9,0.2c1.8,0.4,3,1.6,3,3.6c0,2-1.2,3.3-3.2,3.8c-0.6,0.2-1.4,0.3-2.3,0.3h-2.5
		V60.1z M151.9,66.8c0.8,0,1.4-0.1,2-0.2c1.3-0.4,2.1-1.2,2.1-2.7c0-1.5-0.9-2.2-2.1-2.5c-0.5-0.1-1.1-0.2-1.8-0.2h-1.5v5.6H151.9z"
		/>
	<path class="st0" d="M161.9,60.1h2.3c0.6,0,1.1,0,1.5,0.1c1,0.3,2,1,2,2.4c0,1.5-1.1,2.3-2.2,2.5c-0.4,0.1-0.9,0.1-1.5,0.1h-0.9V68
		h-1.3V60.1z M164.1,64.1c0.5,0,0.8,0,1.1-0.1c0.6-0.2,1.2-0.6,1.2-1.4c0-0.8-0.4-1.2-1-1.3c-0.4-0.1-0.8-0.1-1.3-0.1h-1v2.9H164.1z
		"/>
	<path class="st0" d="M169.4,60.1h2.4c0.6,0,1.1,0,1.6,0.2c1,0.3,1.9,0.9,1.9,2.2c0,1.4-1,2-2.3,2.3v0c0.5,0.3,0.8,1.3,1.5,1.9
		c0.2,0.2,0.5,0.3,0.8,0.3c0.1,0,0.4,0,0.6-0.1l0.3,1.1c-0.2,0.1-0.6,0.2-1,0.2c-0.6,0-1.1-0.2-1.5-0.5c-1.1-0.9-1.5-2.6-2.3-2.6
		h-0.6V68h-1.3V60.1z M171.7,63.8c0.5,0,0.9,0,1.2-0.1c0.6-0.2,1-0.6,1-1.2c0-0.6-0.4-1-0.9-1.1c-0.3-0.1-0.7-0.1-1.2-0.1h-1.1v2.6
		H171.7z"/>
	<path class="st0" d="M177.3,60.1h5.6v1.1h-4.4v2.2h4v1.1h-4v2.3h4.4V68h-5.7V60.1z"/>
	<path class="st0" d="M184.8,60.1h1l3.5,4.3h0l3.5-4.3h1V68h-1.3v-5.7h0l-3.2,3.8h-0.2l-3.2-3.8h0V68h-1.3V60.1z"/>
	<path class="st0" d="M196.1,60.1h1.3V68h-1.3V60.1z"/>
	<path class="st0" d="M199.5,60.1h5.6v1.1h-4.4v2.2h4v1.1h-4v2.3h4.4V68h-5.7V60.1z"/>
	<path class="st0" d="M207,60.1h2.4c0.6,0,1.1,0,1.6,0.2c1,0.3,1.9,0.9,1.9,2.2c0,1.4-1,2-2.3,2.3v0c0.5,0.3,0.8,1.3,1.5,1.9
		c0.2,0.2,0.5,0.3,0.8,0.3c0.1,0,0.4,0,0.6-0.1l0.3,1.1c-0.2,0.1-0.6,0.2-1,0.2c-0.6,0-1.1-0.2-1.5-0.5c-1.1-0.9-1.5-2.6-2.3-2.6
		h-0.6V68H207V60.1z M209.2,63.8c0.5,0,0.9,0,1.2-0.1c0.6-0.2,1-0.6,1-1.2c0-0.6-0.4-1-0.9-1.1c-0.3-0.1-0.7-0.1-1.2-0.1h-1.1v2.6
		H209.2z"/>
</g>
</svg>
