<?xml version="1.0" encoding="utf-8"?>
<!-- Generator: Adobe Illustrator 21.0.0, SVG Export Plug-In . SVG Version: 6.00 Build 0)  -->
<svg version="1.1" id="Layer_2" xmlns="http://www.w3.org/2000/svg" xmlns:xlink="http://www.w3.org/1999/xlink" x="0px" y="0px"
	 viewBox="0 0 300 250" style="enable-background:new 0 0 300 250;" xml:space="preserve">
<style type="text/css">
	.st0{fill:#FFFFFF;}
	.st1{fill:#444661;}
</style>
<g>
	<path class="st0" d="M67.9,89.9c1.1,0.8,2.5,1.3,4.3,1.3c2.2,0,4.1-0.8,4.1-2.6c0-2.8-5.4-1.6-7.7-3.5c-0.6-0.5-1-1.2-1-2.4
		c0-2.4,2.1-3.7,5.1-3.7c2,0,3.8,0.6,4.8,1.3l-0.6,1.1c-0.9-0.5-2.4-1.1-4.1-1.1c-2.6,0-3.6,1.1-3.6,2.3c0,3.9,8.7,0.7,8.7,5.9
		c0,2.7-2.6,4-5.7,4c-2.2,0-4-0.6-5.1-1.5L67.9,89.9z"/>
	<path class="st0" d="M86.2,79.1h1.1L94,92.3h-1.7l-2.1-4.2h-6.9l-2,4.2h-1.6L86.2,79.1z M89.5,86.8l-2.8-5.6h0l-2.7,5.6H89.5z"/>
	<path class="st0" d="M94.6,79.1l5.6,11.1h0l5.4-11.1h1.6l-6.5,13.2h-1l-6.8-13.2H94.6z"/>
	<path class="st0" d="M109.4,79.1h9.1v1.3h-7.6v4.5h6.9v1.3h-6.9V91h7.7v1.3h-9.2V79.1z"/>
	<path class="st0" d="M127.3,88.8c0.5-9.4,11.1-7.2,14.4-9.6c0.6-0.4,1-1.1,1-2c0-2-2.1-3.1-5.6-3.1c-3.6,0-6.4,1-8.7,2.2l-1.5-2.7
		c2.5-1.4,5.9-2.6,10.1-2.6c4.7,0,9.2,1.7,9.2,6.2c0,9.2-15,3.6-15.4,11.5l0,0.7h15.7v2.9h-19.4L127.3,88.8z"/>
	<path class="st0" d="M149.5,81.9c0-6.4,5.2-10.8,11.3-10.8S172,75.4,172,81.9c0,6.6-5.3,10.8-11.3,10.8
		C154.8,92.6,149.5,88.5,149.5,81.9z M168.4,81.9c0-4.5-3.4-7.7-7.7-7.7c-4.3,0-7.7,3.2-7.7,7.7c0,4.4,3.4,7.6,7.7,7.6
		C165.1,89.5,168.4,86.3,168.4,81.9z"/>
	<path class="st0" d="M174,79.4c0-2.2,1.7-3.7,3.8-3.7c2.1,0,3.8,1.5,3.8,3.7c0,2.2-1.7,3.7-3.8,3.7C175.7,83.1,174,81.6,174,79.4z
		 M187.4,75.8h2l-12,14.5h-2L187.4,75.8z M179.9,79.4c0-1.3-0.9-2.2-2-2.2s-2,0.9-2,2.2c0,1.3,0.9,2.2,2,2.2S179.9,80.7,179.9,79.4z
		 M183,86.8c0-2.2,1.7-3.7,3.8-3.7c2.1,0,3.8,1.5,3.8,3.7c0,2.2-1.7,3.7-3.8,3.7C184.8,90.5,183,89,183,86.8z M188.9,86.8
		c0-1.3-0.9-2.2-2-2.2c-1.2,0-2,0.9-2,2.2c0,1.3,0.9,2.2,2,2.2C188,89,188.9,88.1,188.9,86.8z"/>
	<path class="st0" d="M198,85.8c0-4,2.9-6.8,7.3-6.8c4.4,0,7.3,2.8,7.3,6.8c0,4.1-3,6.7-7.3,6.7C201,92.5,198,89.9,198,85.8z
		 M211,85.8c0-3.1-2.2-5.4-5.7-5.4c-3.6,0-5.7,2.3-5.7,5.4s2.1,5.4,5.7,5.4C208.9,91.2,211,88.9,211,85.8z"/>
	<path class="st0" d="M215.9,79.1h1.2l10.4,10.6h0V79.1h1.5v13.2h-1l-10.6-10.8h0v10.8h-1.5V79.1z"/>
	<path class="st0" d="M46.2,114.9c1.1,0.8,2.5,1.3,4.3,1.3c2.2,0,4.1-0.8,4.1-2.6c0-2.8-5.4-1.6-7.7-3.5c-0.6-0.5-1-1.2-1-2.4
		c0-2.4,2.1-3.7,5.1-3.7c2,0,3.8,0.6,4.8,1.3l-0.6,1.1c-0.9-0.5-2.4-1.1-4.1-1.1c-2.6,0-3.6,1.1-3.6,2.3c0,3.9,8.7,0.7,8.7,5.9
		c0,2.7-2.6,4-5.7,4c-2.2,0-4-0.6-5.1-1.5L46.2,114.9z"/>
	<path class="st0" d="M62.1,105.4H57v-1.3h11.8v1.3h-5.2v11.9h-1.5V105.4z"/>
	<path class="st0" d="M74.2,104.1h1.1l6.7,13.2h-1.7l-2.1-4.2h-6.9l-2,4.2h-1.6L74.2,104.1z M77.5,111.8l-2.8-5.6h0l-2.7,5.6H77.5z"
		/>
	<path class="st0" d="M84.3,104.1h1.2l10.4,10.6h0v-10.6h1.5v13.2h-1l-10.6-10.8h0v10.8h-1.5V104.1z"/>
	<path class="st0" d="M101.5,104.1h4.7c1.6,0,2.9,0.2,4,0.6c2.6,0.9,4.2,2.8,4.2,5.8c0,3.3-1.9,5.5-5.1,6.4
		c-1.1,0.3-2.3,0.4-3.8,0.4h-4V104.1z M105.5,116c1.4,0,2.5-0.1,3.5-0.4c2.7-0.8,3.9-2.6,3.9-5.1c0-2.4-1.2-3.8-3.1-4.5
		c-1-0.4-2.2-0.5-3.7-0.5h-3V116H105.5z"/>
	<path class="st0" d="M122.6,104.1h1.1l6.7,13.2h-1.7l-2.1-4.2h-6.9l-2,4.2h-1.6L122.6,104.1z M126,111.8l-2.8-5.6h0l-2.7,5.6H126z"
		/>
	<path class="st0" d="M132.8,104.1h4c1.2,0,2,0.1,2.8,0.3c1.7,0.5,2.7,1.7,2.7,3.4c0,2-1.5,3.3-4,3.7v0c1,0.5,1.7,3,3.2,4.1
		c0.4,0.3,0.8,0.4,1.3,0.4c0.2,0,0.5,0,0.8-0.1l0.3,1.3c-0.3,0.1-0.8,0.2-1.2,0.2c-0.8,0-1.4-0.2-2-0.7c-2.1-1.4-2.9-5-4.4-5h-1.8
		v5.5h-1.5V104.1z M136.4,110.5c1,0,1.7-0.1,2.3-0.2c1.3-0.4,2-1.2,2-2.4c0-1.1-0.7-1.8-1.5-2.1c-0.7-0.3-1.4-0.3-2.4-0.3h-2.5v5
		H136.4z"/>
	<path class="st0" d="M145.8,104.1h4.7c1.6,0,2.9,0.2,4,0.6c2.6,0.9,4.2,2.8,4.2,5.8c0,3.3-1.9,5.5-5.1,6.4
		c-1.1,0.3-2.3,0.4-3.8,0.4h-4V104.1z M149.8,116c1.4,0,2.5-0.1,3.5-0.4c2.7-0.8,3.9-2.6,3.9-5.1c0-2.4-1.2-3.8-3.1-4.5
		c-1-0.4-2.2-0.5-3.7-0.5h-3V116H149.8z"/>
	<path class="st0" d="M166.9,104.1h3.8c1.3,0,2.2,0.1,3.1,0.4c1.5,0.5,2.6,1.7,2.6,3.6c0,2.2-1.4,3.5-3.2,4
		c-0.8,0.2-1.6,0.3-2.9,0.3h-1.8v4.8h-1.5V104.1z M170.2,111.2c1.1,0,1.9-0.1,2.5-0.2c1.3-0.4,2.1-1.3,2.1-2.7
		c0-1.3-0.6-2.1-1.6-2.5c-0.7-0.3-1.5-0.4-2.7-0.4h-2.1v5.7H170.2z"/>
	<path class="st0" d="M179.4,104.1h4c1.2,0,2,0.1,2.8,0.3c1.7,0.5,2.7,1.7,2.7,3.4c0,2-1.5,3.3-4,3.7v0c1,0.5,1.7,3,3.2,4.1
		c0.4,0.3,0.8,0.4,1.3,0.4c0.2,0,0.5,0,0.8-0.1l0.3,1.3c-0.3,0.1-0.8,0.2-1.2,0.2c-0.8,0-1.4-0.2-2-0.7c-2.1-1.4-2.9-5-4.4-5h-1.8
		v5.5h-1.5V104.1z M183,110.5c1,0,1.7-0.1,2.3-0.2c1.3-0.4,2-1.2,2-2.4c0-1.1-0.7-1.8-1.5-2.1c-0.7-0.3-1.4-0.3-2.4-0.3h-2.5v5H183z
		"/>
	<path class="st0" d="M192.4,104.1h9.1v1.3h-7.6v4.5h6.9v1.3h-6.9v4.8h7.7v1.3h-9.2V104.1z"/>
	<path class="st0" d="M204.8,104.1h1.2l6.3,7.7h0l6.3-7.7h1.2v13.2h-1.5v-10.6h0l-5.9,7.2h-0.3l-5.9-7.2h0v10.6h-1.5V104.1z"/>
	<path class="st0" d="M223.9,104.1h1.5v13.2h-1.5V104.1z"/>
	<path class="st0" d="M229.4,104.1h9.1v1.3h-7.6v4.5h6.9v1.3h-6.9v4.8h7.7v1.3h-9.2V104.1z"/>
	<path class="st0" d="M241.8,104.1h4c1.2,0,2,0.1,2.8,0.3c1.7,0.5,2.7,1.7,2.7,3.4c0,2-1.5,3.3-4,3.7v0c1,0.5,1.7,3,3.2,4.1
		c0.4,0.3,0.8,0.4,1.3,0.4c0.2,0,0.5,0,0.8-0.1l0.3,1.3c-0.3,0.1-0.8,0.2-1.2,0.2c-0.8,0-1.4-0.2-2-0.7c-2.1-1.4-2.9-5-4.4-5h-1.8
		v5.5h-1.5V104.1z M245.3,110.5c1,0,1.7-0.1,2.3-0.2c1.3-0.4,2-1.2,2-2.4c0-1.1-0.7-1.8-1.5-2.1c-0.7-0.3-1.4-0.3-2.4-0.3h-2.5v5
		H245.3z"/>
	<path class="st1" d="M49.6,142.6c1.2,0.8,3,1.1,4.5,1.1c1.9,0,2.9-0.5,2.9-1.3c0-2-8.2,0-8.2-5.1c0-2.8,2.5-4.2,5.6-4.2
		c2,0,4.4,0.5,5.8,1.4l-1.1,2.5c-1.2-0.6-3.2-1-4.6-1c-1.6,0-2.3,0.5-2.3,1.2c0,2.4,8.2,0.1,8.2,5.3c0,2.7-2.6,4.2-6.3,4.2
		c-2.1,0-4.3-0.5-5.8-1.5L49.6,142.6z"/>
	<path class="st1" d="M61.6,146.3l6-13.2h3l6.5,13.2h-3.7l-1.3-2.8h-5.7l-1.1,2.8H61.6z M69.1,137L69.1,137l-1.6,3.7h3.2L69.1,137z"
		/>
	<path class="st1" d="M78.9,133.1h3.3v10.3h6.6v2.8h-9.9V133.1z"/>
	<path class="st1" d="M90.6,133.1h10.2v2.8H94v2.3h6.3v2.8H94v2.4h7v2.8H90.6V133.1z"/>
	<path class="st1" d="M108.7,133.1h10.2v2.8H112v2.3h6.3v2.8H112v2.4h7v2.8h-10.4V133.1z"/>
	<path class="st1" d="M121.9,133.1h2.9l7.7,8h0v-8h3.3v13.2h-2.8l-7.9-8.2h0v8.2h-3.3V133.1z"/>
	<path class="st1" d="M139.5,133.1h5.5c1.4,0,2.3,0.1,3.2,0.3c2.9,0.7,5.1,2.6,5.1,6.1c0,3.6-2.4,5.4-4.6,6.2
		c-1.5,0.5-3.3,0.6-4.8,0.6h-4.4V133.1z M144.1,143.5c1.2,0,2.1-0.1,2.9-0.3c1.6-0.5,2.9-1.7,2.9-3.7c0-1.9-1.2-2.9-2.6-3.3
		c-0.8-0.2-1.5-0.2-2.8-0.2h-1.7v7.5H144.1z"/>
	<path class="st1" d="M156.5,142.6c1.2,0.8,3,1.1,4.5,1.1c1.9,0,2.9-0.5,2.9-1.3c0-2-8.2,0-8.2-5.1c0-2.8,2.5-4.2,5.6-4.2
		c2,0,4.4,0.5,5.8,1.4l-1.1,2.5c-1.2-0.6-3.2-1-4.6-1c-1.6,0-2.3,0.5-2.3,1.2c0,2.4,8.2,0.1,8.2,5.3c0,2.7-2.6,4.2-6.3,4.2
		c-2.1,0-4.3-0.5-5.8-1.5L156.5,142.6z"/>
	<path class="st1" d="M172.7,146.3l6-13.2h3l6.5,13.2h-3.7l-1.3-2.8h-5.7l-1.1,2.8H172.7z M180.2,137L180.2,137l-1.6,3.7h3.2
		L180.2,137z"/>
	<path class="st1" d="M190,133.1h5.2c1.1,0,1.9,0.1,2.6,0.3c2.1,0.6,3.4,2,3.4,4.1c0,2.2-1.3,3.8-3.8,4.4c-0.7,0.2-1.4,0.2-2.5,0.2
		h-1.5v4.2H190V133.1z M194.8,139.4c0.8,0,1.3-0.1,1.6-0.2c0.9-0.3,1.3-0.9,1.3-1.6s-0.4-1.3-1.3-1.5c-0.3-0.1-0.7-0.1-1.4-0.1h-1.7
		v3.4H194.8z"/>
	<path class="st1" d="M211.4,141c1.1,0.6,1.5,2.8,3.1,2.8c0.4,0,0.7-0.1,1-0.2l0.6,2.5c-0.7,0.3-1.5,0.3-2.1,0.3
		c-4.3,0-4.7-4.9-6.1-4.9h-0.7v4.7h-3.3v-13.2h5.4c3.6,0,5.6,1.4,5.6,4.2C214.8,139.2,213.6,140.6,211.4,141L211.4,141z
		 M208.9,138.9c1.8,0,2.5-0.6,2.5-1.5c0-1.1-0.7-1.4-2.3-1.4h-2v3H208.9z"/>
	<path class="st1" d="M218.1,133.1h3.3v13.2h-3.3V133.1z"/>
	<path class="st1" d="M224.9,133.1h3.3v10.3h6.6v2.8h-9.9V133.1z"/>
	<path class="st1" d="M245.6,133.1h3.3l-4.7,7.3h3.4v-3.4h3v3.4h3.4v2.6h-3.4v3.5h-3V143h-6l-1.2-1.7L245.6,133.1z"/>
</g>
</svg>
