<?xml version="1.0" encoding="utf-8"?>
<!-- Generator: Adobe Illustrator 21.0.0, SVG Export Plug-In . SVG Version: 6.00 Build 0)  -->
<svg version="1.1" id="Layer_2" xmlns="http://www.w3.org/2000/svg" xmlns:xlink="http://www.w3.org/1999/xlink" x="0px" y="0px"
	 viewBox="0 0 300 250" style="enable-background:new 0 0 300 250;" xml:space="preserve">
<style type="text/css">
	.st0{fill:#FFFFFF;}
</style>
<g>
	<path class="st0" d="M861.3,585.3h6.7v1h-5.6v3.3h5.1v1h-5.1v4.5h-1.1V585.3z"/>
	<path class="st0" d="M868.8,587.9h2.5v2.6h0c0.6-1.5,1.8-2.8,3.6-2.8l-0.1,1.1c-1.4,0-2.6,1.2-3.2,3c-0.2,0.7-0.3,1.5-0.3,2.4v0.7
		h-1.1v-6.1h-1.4V587.9z"/>
	<path class="st0" d="M875.9,591.5c0-2.1,1.5-3.7,3.9-3.7c2.4,0,3.9,1.6,3.9,3.7c0,2-1.5,3.7-3.9,3.7
		C877.4,595.1,875.9,593.5,875.9,591.5z M882.5,591.5c0-1.6-1.1-2.7-2.7-2.7c-1.6,0-2.8,1.2-2.8,2.7c0,1.6,1.1,2.7,2.7,2.7
		C881.4,594.2,882.5,593,882.5,591.5z"/>
	<path class="st0" d="M884.7,587.9h2.5v2.4h0c0.5-1.3,1.5-2.6,3.4-2.6c1.4,0,2.3,0.8,2.3,2.3v0.3h0c0.5-1.4,1.6-2.7,3.4-2.7
		c1.4,0,2.3,0.8,2.3,2.4v3.2c0,0.5,0.3,0.7,0.8,0.7c0.2,0,0.4,0,0.6-0.1l0.2,0.9c-0.4,0.1-0.7,0.2-1,0.2c-1,0-1.6-0.5-1.6-1.5v-3.2
		c0-1.1-0.4-1.7-1.4-1.7c-1.3,0-2.4,1.2-3,3c-0.2,0.7-0.3,1.6-0.3,2.5v0.8h-1.1v-4.6c0-1.1-0.5-1.7-1.4-1.7c-1.3,0-2.4,1.2-2.9,3
		c-0.2,0.7-0.3,1.6-0.3,2.5v0.8h-1.1v-6.1h-1.4V587.9z"/>
</g>
<g>
	<path class="st0" d="M920.8,614.4V612c-7.5-0.7-11.9-4.6-13.8-8.7l1.8-0.9c1.6,3.5,5.3,6.9,12,7.6v-4c-5-0.6-7.3-3.1-8.4-5.4
		l1.8-0.9c0.8,1.7,2.5,3.8,6.6,4.4v-9.6c-7-0.3-12.4-5.8-12.4-12.9c0-7.1,5.4-12.7,12.4-12.9v-2h2v2h4v-2h2v2.1
		c5.8,0.5,9.8,3.5,11.9,7.4l-1.8,0.9c-1.7-3.4-5.2-6-10.1-6.4v4.1c3.4,0.5,5.4,2,6.5,4.1l-1.8,0.9c-0.8-1.5-2.1-2.6-4.7-3v9.6
		c7,0.3,12.5,5.8,12.5,12.9c0,7.2-5.4,12.7-12.5,12.9v2.3h-2v-2.3h-4v2.3H920.8z M920.8,592.3v-4c-3.6-0.3-6.4-3.1-6.4-6.9
		c0-3.7,2.7-6.6,6.4-6.9v-4c-5.9,0.3-10.4,5-10.4,10.9C910.4,587.4,914.9,592,920.8,592.3z M920.8,586.2v-9.8
		c-2.5,0.3-4.4,2.3-4.4,4.9C916.5,583.9,918.3,586,920.8,586.2z M926.8,574.4v-4h-4v4H926.8z M922.8,576.4V604h4v-27.6H922.8z
		 M926.8,610.1v-4h-4v4H926.8z M928.9,588.2v4c3.6,0.3,6.4,3.2,6.4,6.9c0,3.8-2.8,6.7-6.4,6.9v4c5.9-0.2,10.5-4.9,10.5-10.9
		C939.3,593.2,934.8,588.5,928.9,588.2z M928.9,594.3v9.8c2.5-0.2,4.4-2.3,4.4-4.9C933.3,596.6,931.3,594.5,928.9,594.3z"/>
	<path class="st0" d="M963.4,566.9l-15.9,16.3l-1.5-1.5l14.5-14.8H963.4z M982.6,613.8h-34.2v-2h14.2v-4h-14.2v-2h14.2v-29.5
		l-10.9,11.1l-1.5-1.5l18.6-19h1.8v38.9h11.9v2h-18v4h18V613.8z M964.6,574.2v31.6h4v-35.7L964.6,574.2z"/>
	<path class="st0" d="M1002,566.9l-15.9,16.3l-1.5-1.5l14.5-14.8H1002z M1021.2,613.8H987v-2h14.2v-4H987v-2h14.2v-29.5l-10.9,11.1
		l-1.5-1.5l18.6-19h1.8v38.9h11.9v2h-18v4h18V613.8z M1003.2,574.2v31.6h4v-35.7L1003.2,574.2z"/>
	<path class="st0" d="M1024.5,600.1c0-5.6,2.7-8.6,6.3-10.6c-2.9-1.9-5-4.9-5-9.7c0-8.2,6.5-13.4,16.5-13.4c10,0,16.5,5.2,16.5,13.4
		c0,4.8-2.1,7.8-5,9.7c3.6,1.9,6.3,5,6.3,10.6c0,7.9-6.4,14.3-17.8,14.3C1030.9,614.4,1024.5,608,1024.5,600.1z M1058,600.1
		c0-5-2.7-7.8-6.4-9.5c-1.5,0.7-3.4,1.3-5.1,1.7c4,1.2,7.4,3.2,7.4,7.7c0,4.7-3.7,8.4-11.7,8.4c-8,0-11.7-3.7-11.7-8.4
		c0-4.5,3.5-6.5,7.4-7.7c-1.7-0.4-3.6-1-5.1-1.7c-3.6,1.7-6.4,4.6-6.4,9.5c0,6.8,5.7,12.3,15.7,12.3
		C1052.3,612.4,1058,606.9,1058,600.1z M1052.7,579.6c0,4.1-2.9,6-6.8,7.2c1.9,0.5,3.8,1.1,5.6,1.7c3-1.6,5.2-4.2,5.2-8.7
		c0-7-5.7-11.4-14.5-11.4s-14.5,4.4-14.5,11.4c0,4.6,2.2,7.1,5.2,8.7c1.8-0.7,3.7-1.3,5.6-1.7c-3.9-1.2-6.8-3.1-6.8-7.2
		c0-4.4,3.5-7.2,10.5-7.2C1049.3,572.4,1052.7,575.2,1052.7,579.6z M1052,600c0-4.3-4.4-5.7-9.7-6.9c-5.4,1.2-9.7,2.6-9.7,6.9
		c0,3.6,3,6.4,9.7,6.4C1049,606.3,1052,603.6,1052,600z M1050.7,579.6c0-3.2-2.8-5.2-8.4-5.2c-5.6,0-8.4,1.9-8.4,5.2
		c0,3.6,3.7,5,8.4,6.2C1047,584.6,1050.7,583.2,1050.7,579.6z M1049,589.6c-1.7-0.6-3.3-1-6.7-1.8c-3.4,0.8-5,1.2-6.7,1.8
		c1.8,0.6,4.6,1.2,6.7,1.6C1044.4,590.8,1047.2,590.2,1049,589.6z"/>
</g>
<path class="st0" d="M1068.9,583.7c0-2.1,1.5-3.8,4-3.8c2.4,0,4,1.7,4,3.8c0,2.1-1.5,3.7-4,3.7
	C1070.4,587.4,1068.9,585.8,1068.9,583.7z M1075.6,583.7c0-1.6-1.1-2.8-2.8-2.8c-1.7,0-2.8,1.2-2.8,2.8c0,1.6,1.1,2.8,2.8,2.8
	C1074.5,586.4,1075.6,585.3,1075.6,583.7z M1077.9,580.1h2.6v2.7h0c0.6-1.5,1.9-2.9,3.7-2.9c1.5,0,2.4,0.8,2.4,2.5v3.2
	c0,0.5,0.3,0.7,0.8,0.7c0.2,0,0.5,0,0.6-0.1l0.2,0.9c-0.4,0.1-0.7,0.2-1.1,0.2c-1,0-1.6-0.5-1.6-1.5v-3.3c0-1.1-0.4-1.7-1.5-1.7
	c-1.5,0-2.8,1.5-3.3,3.4c-0.2,0.8-0.3,1.5-0.3,2.3v0.7h-1.1v-6.2h-1.5V580.1z M1089.3,583.8c0-2.2,1.6-3.9,4.1-3.9
	c1.7,0,3,0.7,3,2.1c0,1.3-1.1,2.2-3.8,2.2c-0.7,0-1.5,0-2.1-0.1c0.1,1.5,1.2,2.4,2.9,2.4c1.1,0,1.8-0.2,2.4-0.5l0.3,0.9
	c-0.7,0.3-1.7,0.6-2.9,0.6C1090.7,587.4,1089.3,585.9,1089.3,583.8z M1092.5,583.2c2,0,2.7-0.5,2.7-1.2c0-0.7-0.8-1.1-1.8-1.1
	c-1.6,0-2.7,0.8-2.9,2.2C1091.1,583.2,1091.8,583.2,1092.5,583.2z M1068.3,590l2.6,5.6h0l2.3-5.6h0.8l2.4,5.6h0l2.5-5.6h1.2
	l-3.4,7.2h-0.8l-2.4-5.5h0l-2.3,5.5h-0.8l-3.4-7.2H1068.3z M1080.9,594.1c0-1.6,0.7-2.8,1.9-3.6c0.8-0.5,1.8-0.8,3.1-0.8
	c0.7,0,1.4,0.1,2.1,0.1v5.6c0,0.6,0.3,0.8,0.7,0.8c0.2,0,0.5-0.1,0.6-0.1l0.2,0.9c-0.3,0.1-0.7,0.2-1.1,0.2c-0.9,0-1.5-0.4-1.5-1.4
	c0-0.2,0-0.5,0-0.9h0c-0.5,1.3-1.7,2.4-3.3,2.4C1082.2,597.3,1080.9,596.3,1080.9,594.1z M1087,591.2v-0.4c-0.3,0-0.6,0-1.1,0
	c-1,0-1.8,0.2-2.4,0.6c-0.9,0.6-1.4,1.5-1.4,2.7c0,1.4,0.6,2.2,1.8,2.2C1085.4,596.3,1087,594.7,1087,591.2z M1093.7,596.5l-3.7-6.5
	h1.3l3.1,5.3h0l2.7-5.3h1.2l-5.6,10.7h-1.2L1093.7,596.5z M1100.4,589.9l-0.9,0.6l-0.3-0.4l1-0.6l-1-0.6l0.3-0.4l0.9,0.6l0-1h0.5
	l0,1l0.9-0.6l0.3,0.4l-1,0.6l1,0.6l-0.3,0.4l-0.9-0.6l0,1h-0.5L1100.4,589.9z"/>
<g>
	<path class="st0" d="M29.3,100.3H36v1h-5.6v3.3h5.1v1h-5.1v4.5h-1.1V100.3z"/>
	<path class="st0" d="M36.8,102.9h2.5v2.6h0c0.6-1.5,1.8-2.8,3.6-2.8l-0.1,1.1c-1.4,0-2.6,1.2-3.2,3c-0.2,0.7-0.3,1.5-0.3,2.4v0.7
		h-1.1v-6.1h-1.4V102.9z"/>
	<path class="st0" d="M43.9,106.5c0-2.1,1.5-3.7,3.9-3.7c2.4,0,3.9,1.6,3.9,3.7c0,2-1.5,3.7-3.9,3.7
		C45.4,110.1,43.9,108.5,43.9,106.5z M50.5,106.5c0-1.6-1.1-2.7-2.7-2.7c-1.6,0-2.8,1.2-2.8,2.7c0,1.6,1.1,2.7,2.7,2.7
		C49.4,109.2,50.5,108,50.5,106.5z"/>
	<path class="st0" d="M52.7,102.9h2.5v2.4h0c0.5-1.3,1.5-2.6,3.4-2.6c1.4,0,2.3,0.8,2.3,2.3v0.3h0c0.5-1.4,1.6-2.7,3.4-2.7
		c1.4,0,2.3,0.8,2.3,2.4v3.2c0,0.5,0.3,0.7,0.8,0.7c0.2,0,0.4,0,0.6-0.1l0.2,0.9c-0.4,0.1-0.7,0.2-1,0.2c-1,0-1.6-0.5-1.6-1.5v-3.2
		c0-1.1-0.4-1.7-1.4-1.7c-1.3,0-2.4,1.2-3,3c-0.2,0.7-0.3,1.6-0.3,2.5v0.8h-1.1v-4.6c0-1.1-0.5-1.7-1.4-1.7c-1.3,0-2.4,1.2-2.9,3
		c-0.2,0.7-0.3,1.6-0.3,2.5v0.8h-1.1v-6.1h-1.4V102.9z"/>
</g>
<g>
	<path class="st0" d="M88.8,129.4V127c-7.5-0.7-11.9-4.6-13.8-8.7l1.8-0.9c1.6,3.5,5.3,6.9,12,7.6v-4c-5-0.6-7.3-3.1-8.4-5.4
		l1.8-0.9c0.8,1.7,2.5,3.8,6.6,4.4v-9.6c-7-0.3-12.4-5.8-12.4-12.9c0-7.1,5.4-12.7,12.4-12.9v-2h2v2h4v-2h2v2.1
		c5.8,0.5,9.8,3.5,11.9,7.4l-1.8,0.9c-1.7-3.4-5.2-6-10.1-6.4v4.1c3.4,0.5,5.4,2,6.5,4.1l-1.8,0.9c-0.8-1.5-2.1-2.6-4.7-3v9.6
		c7,0.3,12.5,5.8,12.5,12.9c0,7.2-5.4,12.7-12.5,12.9v2.3h-2v-2.3h-4v2.3H88.8z M88.8,107.3v-4c-3.6-0.3-6.4-3.1-6.4-6.9
		c0-3.7,2.7-6.6,6.4-6.9v-4c-5.9,0.3-10.4,5-10.4,10.9C78.4,102.4,82.9,107,88.8,107.3z M88.8,101.2v-9.8c-2.5,0.3-4.4,2.3-4.4,4.9
		C84.5,98.9,86.3,101,88.8,101.2z M94.8,89.4v-4h-4v4H94.8z M90.8,91.4V119h4V91.4H90.8z M94.8,125.1v-4h-4v4H94.8z M96.9,103.2v4
		c3.6,0.3,6.4,3.2,6.4,6.9c0,3.8-2.8,6.7-6.4,6.9v4c5.9-0.2,10.5-4.9,10.5-10.9C107.3,108.2,102.8,103.5,96.9,103.2z M96.9,109.3
		v9.8c2.5-0.2,4.4-2.3,4.4-4.9C101.3,111.6,99.3,109.5,96.9,109.3z"/>
	<path class="st0" d="M131.4,81.9l-15.9,16.3l-1.5-1.5l14.5-14.8H131.4z M150.6,128.8h-34.2v-2h14.2v-4h-14.2v-2h14.2V91.2
		l-10.9,11.1l-1.5-1.5l18.6-19h1.8v38.9h11.9v2h-18v4h18V128.8z M132.6,89.2v31.6h4V85.1L132.6,89.2z"/>
	<path class="st0" d="M170,81.9l-15.9,16.3l-1.5-1.5l14.5-14.8H170z M189.2,128.8H155v-2h14.2v-4H155v-2h14.2V91.2l-10.9,11.1
		l-1.5-1.5l18.6-19h1.8v38.9h11.9v2h-18v4h18V128.8z M171.2,89.2v31.6h4V85.1L171.2,89.2z"/>
	<path class="st0" d="M192.5,115.1c0-5.6,2.7-8.6,6.3-10.6c-2.9-1.9-5-4.9-5-9.7c0-8.2,6.5-13.4,16.5-13.4c10,0,16.5,5.2,16.5,13.4
		c0,4.8-2.1,7.8-5,9.7c3.6,1.9,6.3,5,6.3,10.6c0,7.9-6.4,14.3-17.8,14.3C198.9,129.4,192.5,123,192.5,115.1z M226,115.1
		c0-5-2.7-7.8-6.4-9.5c-1.5,0.7-3.4,1.3-5.1,1.7c4,1.2,7.4,3.2,7.4,7.7c0,4.7-3.7,8.4-11.7,8.4c-8,0-11.7-3.7-11.7-8.4
		c0-4.5,3.5-6.5,7.4-7.7c-1.7-0.4-3.6-1-5.1-1.7c-3.6,1.7-6.4,4.6-6.4,9.5c0,6.8,5.7,12.3,15.7,12.3
		C220.3,127.4,226,121.9,226,115.1z M220.7,94.6c0,4.1-2.9,6-6.8,7.2c1.9,0.5,3.8,1.1,5.6,1.7c3-1.6,5.2-4.2,5.2-8.7
		c0-7-5.7-11.4-14.5-11.4s-14.5,4.4-14.5,11.4c0,4.6,2.2,7.1,5.2,8.7c1.8-0.7,3.7-1.3,5.6-1.7c-3.9-1.2-6.8-3.1-6.8-7.2
		c0-4.4,3.5-7.2,10.5-7.2C217.3,87.4,220.7,90.2,220.7,94.6z M220,115c0-4.3-4.4-5.7-9.7-6.9c-5.4,1.2-9.7,2.6-9.7,6.9
		c0,3.6,3,6.4,9.7,6.4C217,121.3,220,118.6,220,115z M218.7,94.6c0-3.2-2.8-5.2-8.4-5.2c-5.6,0-8.4,1.9-8.4,5.2c0,3.6,3.7,5,8.4,6.2
		C215,99.6,218.7,98.2,218.7,94.6z M217,104.6c-1.7-0.6-3.3-1-6.7-1.8c-3.4,0.8-5,1.2-6.7,1.8c1.8,0.6,4.6,1.2,6.7,1.6
		C212.4,105.8,215.2,105.2,217,104.6z"/>
</g>
<path class="st0" d="M236.9,98.7c0-2.1,1.5-3.8,4-3.8c2.4,0,4,1.7,4,3.8c0,2.1-1.5,3.7-4,3.7C238.4,102.4,236.9,100.8,236.9,98.7z
	 M243.6,98.7c0-1.6-1.1-2.8-2.8-2.8c-1.7,0-2.8,1.2-2.8,2.8c0,1.6,1.1,2.8,2.8,2.8C242.5,101.4,243.6,100.3,243.6,98.7z M245.9,95.1
	h2.6v2.7h0c0.6-1.5,1.9-2.9,3.7-2.9c1.5,0,2.4,0.8,2.4,2.5v3.2c0,0.5,0.3,0.7,0.8,0.7c0.2,0,0.5,0,0.6-0.1l0.2,0.9
	c-0.4,0.1-0.7,0.2-1.1,0.2c-1,0-1.6-0.5-1.6-1.5v-3.3c0-1.1-0.4-1.7-1.5-1.7c-1.5,0-2.8,1.5-3.3,3.4c-0.2,0.8-0.3,1.5-0.3,2.3v0.7
	h-1.1v-6.2h-1.5V95.1z M257.3,98.8c0-2.2,1.6-3.9,4.1-3.9c1.7,0,3,0.7,3,2.1c0,1.3-1.1,2.2-3.8,2.2c-0.7,0-1.5,0-2.1-0.1
	c0.1,1.5,1.2,2.4,2.9,2.4c1.1,0,1.8-0.2,2.4-0.5l0.3,0.9c-0.7,0.3-1.7,0.6-2.9,0.6C258.7,102.4,257.3,100.9,257.3,98.8z M260.5,98.2
	c2,0,2.7-0.5,2.7-1.2c0-0.7-0.8-1.1-1.8-1.1c-1.6,0-2.7,0.8-2.9,2.2C259.1,98.2,259.8,98.2,260.5,98.2z M236.3,105l2.6,5.6h0
	l2.3-5.6h0.8l2.4,5.6h0l2.5-5.6h1.2l-3.4,7.2h-0.8l-2.4-5.5h0l-2.3,5.5h-0.8l-3.4-7.2H236.3z M248.9,109.1c0-1.6,0.7-2.8,1.9-3.6
	c0.8-0.5,1.8-0.8,3.1-0.8c0.7,0,1.4,0.1,2.1,0.1v5.6c0,0.6,0.3,0.8,0.7,0.8c0.2,0,0.5-0.1,0.6-0.1l0.2,0.9c-0.3,0.1-0.7,0.2-1.1,0.2
	c-0.9,0-1.5-0.4-1.5-1.4c0-0.2,0-0.5,0-0.9h0c-0.5,1.3-1.7,2.4-3.3,2.4C250.2,112.3,248.9,111.3,248.9,109.1z M255,106.2v-0.4
	c-0.3,0-0.6,0-1.1,0c-1,0-1.8,0.2-2.4,0.6c-0.9,0.6-1.4,1.5-1.4,2.7c0,1.4,0.6,2.2,1.8,2.2C253.4,111.3,255,109.7,255,106.2z
	 M261.7,111.5l-3.7-6.5h1.3l3.1,5.3h0l2.7-5.3h1.2l-5.6,10.7h-1.2L261.7,111.5z M268.4,104.9l-0.9,0.6l-0.3-0.4l1-0.6l-1-0.6
	l0.3-0.4l0.9,0.6l0-1h0.5l0,1l0.9-0.6l0.3,0.4l-1,0.6l1,0.6l-0.3,0.4l-0.9-0.6l0,1h-0.5L268.4,104.9z"/>
</svg>
