<?xml version="1.0" encoding="utf-8"?>
<!-- Generator: Adobe Illustrator 21.0.0, SVG Export Plug-In . SVG Version: 6.00 Build 0)  -->
<svg version="1.1" id="Layer_2" xmlns="http://www.w3.org/2000/svg" xmlns:xlink="http://www.w3.org/1999/xlink" x="0px" y="0px"
	 viewBox="0 0 300 250" style="enable-background:new 0 0 300 250;" xml:space="preserve">
<style type="text/css">
	.st0{fill:#454762;}
	.st1{fill:#FFFFFF;}
</style>
<g>
	<g>
		<rect x="61" y="28.1" class="st0" width="180.9" height="2"/>
		<rect x="61" y="50.4" class="st0" width="180.9" height="2"/>
	</g>
	<g>
		<g>
			<path class="st1" d="M70.3,34.2h3v9.4h6v2.6h-9.1L70.3,34.2L70.3,34.2z"/>
			<path class="st1" d="M86.9,46.4c-4,0-6.8-2.3-6.8-6.2c0-3.8,2.8-6.1,6.8-6.1s6.8,2.3,6.8,6.1C93.7,44.1,90.8,46.4,86.9,46.4z
				 M86.9,43.8c2.5,0,3.7-1.5,3.7-3.5s-1.2-3.5-3.7-3.5s-3.7,1.5-3.7,3.5S84.4,43.8,86.9,43.8z"/>
			<path class="st1" d="M96.3,34.2h2.6l7,7.3l0,0v-7.3h3v12h-2.5l-7.2-7.5l0,0v7.5h-3L96.3,34.2L96.3,34.2z"/>
			<path class="st1" d="M112.2,34.2h5.1c1.2,0,2.1,0.1,2.9,0.3c2.6,0.6,4.7,2.4,4.7,5.5c0,3.2-2.2,4.9-4.2,5.6
				c-1.4,0.5-3,0.6-4.4,0.6h-4L112.2,34.2L112.2,34.2z M116.4,43.6c1.1,0,2-0.1,2.7-0.3c1.5-0.4,2.6-1.6,2.6-3.3
				c0-1.8-1.1-2.7-2.4-3c-0.7-0.2-1.4-0.2-2.6-0.2h-1.5v6.8H116.4z"/>
			<path class="st1" d="M133.6,46.4c-4,0-6.8-2.3-6.8-6.2c0-3.8,2.8-6.1,6.8-6.1s6.8,2.3,6.8,6.1C140.4,44.1,137.6,46.4,133.6,46.4z
				 M133.6,43.8c2.5,0,3.7-1.5,3.7-3.5s-1.2-3.5-3.7-3.5s-3.7,1.5-3.7,3.5S131.1,43.8,133.6,43.8z"/>
			<path class="st1" d="M143,34.2h2.6l7,7.3l0,0v-7.3h3v12h-2.5l-7.2-7.5l0,0v7.5h-3L143,34.2L143,34.2z"/>
			<path class="st1" d="M163,40.1h5.8v2.4H163V40.1z"/>
			<path class="st1" d="M176,34.2h4.7c1,0,1.7,0.1,2.4,0.3c1.9,0.5,3.1,1.8,3.1,3.8s-1.2,3.4-3.4,4c-0.6,0.1-1.3,0.2-2.2,0.2h-1.4
				v3.8h-3V34.2H176z M180.3,39.9c0.8,0,1.2-0.1,1.5-0.2c0.9-0.3,1.2-0.8,1.2-1.5s-0.3-1.1-1.1-1.4c-0.3-0.1-0.6-0.1-1.2-0.1h-1.6
				v3.1h1.2V39.9z"/>
			<path class="st1" d="M187.1,46.2l5.5-12.1h2.7l5.9,12.1h-3.4l-1.2-2.5h-5.2l-1,2.5C190.4,46.2,187.1,46.2,187.1,46.2z
				 M193.9,37.8L193.9,37.8l-1.4,3.4h3L193.9,37.8z"/>
			<path class="st1" d="M209.8,41.4c1,0.6,1.4,2.6,2.8,2.6c0.3,0,0.6-0.1,0.9-0.2l0.5,2.3c-0.6,0.2-1.4,0.3-1.9,0.3
				c-3.9,0-4.3-4.5-5.6-4.5h-0.7v4.3h-3v-12h5c3.3,0,5.1,1.3,5.1,3.8C212.9,39.8,211.8,41,209.8,41.4L209.8,41.4z M207.5,39.5
				c1.6,0,2.3-0.5,2.3-1.4c0-1-0.7-1.3-2.1-1.3h-1.8v2.7H207.5z"/>
			<path class="st1" d="M215.9,34.2h3v12h-3V34.2z"/>
			<path class="st1" d="M222.5,42.8c1.1,0.7,2.8,1,4.1,1c1.7,0,2.6-0.4,2.6-1.2c0-1.8-7.5,0-7.5-4.7c0-2.6,2.2-3.9,5.1-3.9
				c1.8,0,4,0.5,5.3,1.2l-1,2.2c-1.1-0.6-2.9-0.9-4.2-0.9c-1.5,0-2.1,0.4-2.1,1.1c0,2.2,7.5,0.1,7.5,4.8c0,2.5-2.4,3.9-5.7,3.9
				c-1.9,0-3.9-0.4-5.3-1.4L222.5,42.8z"/>
		</g>
	</g>
</g>
</svg>
