<?xml version="1.0" encoding="utf-8"?>
<!-- Generator: Adobe Illustrator 21.0.0, SVG Export Plug-In . SVG Version: 6.00 Build 0)  -->
<svg version="1.1" id="Layer_2" xmlns="http://www.w3.org/2000/svg" xmlns:xlink="http://www.w3.org/1999/xlink" x="0px" y="0px"
	 viewBox="0 0 300 250" style="enable-background:new 0 0 300 250;" xml:space="preserve">
<style type="text/css">
	.st0{fill:#FFFFFF;}
</style>
<g>
	<path class="st0" d="M55.2,72.5h3.9c0.7,0,1.3,0.1,1.8,0.2c1.4,0.4,2.3,1.2,2.3,2.7c0,1.1-0.6,2-1.7,2.4v0c0.4,0,0.7,0.1,1.1,0.3
		c0.9,0.4,1.5,1.3,1.5,2.3c0,1.5-0.9,2.5-2.3,2.9c-0.7,0.2-1.5,0.3-2.5,0.3h-4.1V72.5z M58.8,77.4c0.7,0,1.2-0.1,1.6-0.2
		c1-0.3,1.5-0.9,1.5-1.8c0-1-0.5-1.5-1.4-1.7c-0.4-0.1-0.8-0.1-1.5-0.1h-2.5v3.8H58.8z M59.3,82.6c0.8,0,1.4-0.1,2-0.2
		c0.9-0.3,1.5-0.9,1.5-1.9c0-0.7-0.4-1.3-1.1-1.6c-0.5-0.2-1.2-0.3-2.1-0.3h-3.2v4H59.3z"/>
	<path class="st0" d="M69.5,79.3l-4.9-6.8h1.4l4.1,5.7h0l3.9-5.7h1.4l-4.8,6.8v4.4h-1.3V79.3z"/>
	<path class="st0" d="M81.8,72.5h1.3v4.9h7.5v-4.9h1.3v11.2h-1.3v-5.1h-7.5v5.1h-1.3V72.5z"/>
	<path class="st0" d="M95.4,72.5h1.3v11.2h-1.3V72.5z"/>
	<path class="st0" d="M106.4,72.4c1.6,0,3.1,0.3,4.5,0.9l-0.4,1.1c-1.2-0.5-2.5-0.8-4-0.8c-3.4,0-5.5,2-5.5,4.6
		c0,2.8,1.8,4.6,5.5,4.6c1,0,2.4-0.2,3.3-0.6v-3.2h-4.2v-1.1h5.4v5.1c-0.9,0.5-2.9,1-4.7,1c-4.5,0-6.8-2.3-6.8-5.6
		C99.7,74.9,102.3,72.4,106.4,72.4z"/>
	<path class="st0" d="M114.6,72.5h1.3v4.9h7.5v-4.9h1.3v11.2h-1.3v-5.1h-7.5v5.1h-1.3V72.5z"/>
	<path class="st0" d="M127.9,78.8h4.9v1.1h-4.9V78.8z"/>
	<path class="st0" d="M134.9,81.7c0.9,0.7,2.2,1.1,3.7,1.1c1.9,0,3.5-0.7,3.5-2.2c0-2.4-4.6-1.3-6.5-2.9c-0.5-0.4-0.9-1.1-0.9-2
		c0-2,1.8-3.1,4.3-3.1c1.7,0,3.3,0.5,4.1,1.1l-0.5,1c-0.7-0.4-2-0.9-3.5-0.9c-2.2,0-3.1,0.9-3.1,2c0,3.3,7.4,0.6,7.4,5
		c0,2.3-2.2,3.4-4.8,3.4c-1.9,0-3.4-0.5-4.3-1.2L134.9,81.7z"/>
	<path class="st0" d="M146.5,72.5h3.2c1.1,0,1.9,0.1,2.6,0.4c1.3,0.5,2.2,1.4,2.2,3.1c0,1.9-1.2,2.9-2.8,3.4
		c-0.6,0.2-1.4,0.3-2.5,0.3h-1.5v4.1h-1.3V72.5z M149.3,78.5c0.9,0,1.6-0.1,2.1-0.2c1.1-0.3,1.8-1.1,1.8-2.3c0-1.1-0.5-1.8-1.4-2.1
		c-0.6-0.2-1.3-0.3-2.3-0.3h-1.8v4.9H149.3z"/>
	<path class="st0" d="M157.3,72.5h7.7v1.1h-6.5v3.8h5.8v1.1h-5.8v4h6.6v1.1h-7.8V72.5z"/>
	<path class="st0" d="M167.9,72.5h7.7v1.1h-6.5v3.8h5.8v1.1h-5.8v4h6.6v1.1h-7.8V72.5z"/>
	<path class="st0" d="M178.6,72.5h4c1.4,0,2.5,0.2,3.4,0.5c2.2,0.7,3.6,2.4,3.6,4.9c0,2.8-1.6,4.7-4.3,5.4c-0.9,0.3-1.9,0.4-3.2,0.4
		h-3.4V72.5z M182,82.6c1.2,0,2.2-0.1,3-0.3c2.3-0.6,3.3-2.2,3.3-4.4c0-2-1-3.2-2.7-3.8c-0.8-0.3-1.9-0.4-3.2-0.4h-2.6v9H182z"/>
	<path class="st0" d="M198.2,73.6h-4.4v-1.1h10v1.1h-4.4v10.1h-1.3V73.6z"/>
	<path class="st0" d="M205.9,72.5h3.4c1,0,1.7,0.1,2.3,0.3c1.4,0.5,2.3,1.4,2.3,2.9c0,1.7-1.2,2.8-3.4,3.1v0
		c0.8,0.4,1.5,2.6,2.7,3.5c0.3,0.2,0.7,0.4,1.1,0.4c0.2,0,0.5,0,0.6-0.1l0.3,1.1c-0.3,0.1-0.6,0.2-1,0.2c-0.7,0-1.2-0.2-1.7-0.6
		c-1.8-1.2-2.4-4.2-3.7-4.2h-1.5v4.7h-1.3V72.5z M208.9,77.9c0.8,0,1.4-0.1,1.9-0.2c1.1-0.3,1.7-1.1,1.7-2.1c0-0.9-0.6-1.5-1.3-1.8
		c-0.6-0.2-1.2-0.3-2-0.3h-2.1v4.3H208.9z"/>
	<path class="st0" d="M221.7,72.5h0.9l5.7,11.3h-1.4l-1.8-3.6h-5.9l-1.7,3.6h-1.4L221.7,72.5z M224.6,79l-2.4-4.8h0l-2.3,4.8H224.6z
		"/>
	<path class="st0" d="M230.5,72.5h1.3v11.2h-1.3V72.5z"/>
	<path class="st0" d="M235.4,72.5h1l8.9,9h0v-9h1.3v11.2h-0.9l-9-9.1h0v9.1h-1.3V72.5z"/>
</g>
</svg>
