<?xml version="1.0" encoding="utf-8"?>
<!-- Generator: Adobe Illustrator 21.0.0, SVG Export Plug-In . SVG Version: 6.00 Build 0)  -->
<svg version="1.1" id="Layer_3" xmlns="http://www.w3.org/2000/svg" xmlns:xlink="http://www.w3.org/1999/xlink" x="0px" y="0px"
	 viewBox="0 0 113 27" style="enable-background:new 0 0 113 27;" xml:space="preserve">
<style type="text/css">
	.st0{fill:#444661;}
	.st1{opacity:0.3;fill:#FFFFFF;}
</style>
<g>
	<path class="st0" d="M107.8,26.7H5.2c-2.5,0-4.6-2-4.6-4.6V5.3c0-2.5,2-4.6,4.6-4.6h102.5c2.5,0,4.6,2,4.6,4.6v16.8
		C112.3,24.7,110.3,26.7,107.8,26.7z"/>
	<path class="st1" d="M109.7,1.9c0.7,1,1.1,2.1,1.1,3.4v13.9c0,3.3-2.7,6-6,6H5.2c-1.3,0-2.4-0.4-3.4-1.1c1.1,1.6,2.9,2.6,4.9,2.6
		h99.6c3.3,0,6-2.7,6-6V6.8C112.3,4.8,111.3,2.9,109.7,1.9z"/>
</g>
</svg>
