<?xml version="1.0" encoding="utf-8"?>
<!-- Generator: Adobe Illustrator 21.0.0, SVG Export Plug-In . SVG Version: 6.00 Build 0)  -->
<svg version="1.1" id="Layer_3" xmlns="http://www.w3.org/2000/svg" xmlns:xlink="http://www.w3.org/1999/xlink" x="0px" y="0px"
	 viewBox="0 0 79 11" style="enable-background:new 0 0 79 11;" xml:space="preserve">
<style type="text/css">
	.st0{fill:#FFFFFF;}
</style>
<g>
	<path class="st0" d="M1.3,9.7V1.6H5c1.5,0,3,0.6,3,2.2c0,0.8-0.4,1.4-1.2,1.7v0c1.1,0.2,1.7,0.9,1.7,1.9c0,2-1.8,2.4-3.4,2.4H1.3z
		 M4.8,4.8c0.8,0,1.1-0.3,1.1-0.7c0-0.5-0.4-0.7-1.1-0.7H3.3v1.4H4.8z M4.9,8C6,8,6.4,7.8,6.4,7.2c0-0.5-0.3-0.7-1.1-0.7h-2V8H4.9z"
		/>
	<path class="st0" d="M14.6,9.9c-2.7,0-4.6-1.6-4.6-4.2s1.9-4.2,4.6-4.2s4.6,1.6,4.6,4.2S17.3,9.9,14.6,9.9z M14.6,8.1
		c1.7,0,2.5-1,2.5-2.4s-0.8-2.4-2.5-2.4c-1.7,0-2.5,1-2.5,2.4S12.9,8.1,14.6,8.1z"/>
	<path class="st0" d="M25.3,9.9c-2.7,0-4.6-1.6-4.6-4.2s1.9-4.2,4.6-4.2c2.7,0,4.6,1.6,4.6,4.2S28,9.9,25.3,9.9z M25.3,8.1
		c1.7,0,2.5-1,2.5-2.4S27,3.3,25.3,3.3c-1.7,0-2.5,1-2.5,2.4S23.6,8.1,25.3,8.1z"/>
	<path class="st0" d="M35.7,5.2l3.8,4.5h-2.6l-2.6-3.2l-0.5,0.5v2.7h-2.1V1.6h2.1v3.1h0l2.9-3.1h2.6L35.7,5.2z"/>
	<path class="st0" d="M43.8,1.6h1.8l4.8,5h0v-5h2.1v8.2h-1.7l-4.9-5.1h0v5.1h-2.1V1.6z"/>
	<path class="st0" d="M59,9.9c-2.7,0-4.6-1.6-4.6-4.2s1.9-4.2,4.6-4.2s4.6,1.6,4.6,4.2S61.7,9.9,59,9.9z M59,8.1
		c1.7,0,2.5-1,2.5-2.4S60.7,3.3,59,3.3s-2.5,1-2.5,2.4S57.4,8.1,59,8.1z"/>
	<path class="st0" d="M66.5,1.6l1.9,5.2h0l1.9-5.2h1.8l2.1,5.2h0L76,1.6h2.3l-3.2,8.2h-1.7l-2.1-5.3h0l-1.9,5.3h-1.8l-3.4-8.2H66.5z
		"/>
</g>
</svg>
