<?xml version="1.0" encoding="utf-8"?>
<!-- Generator: Adobe Illustrator 21.0.0, SVG Export Plug-In . SVG Version: 6.00 Build 0)  -->
<svg version="1.1" xmlns="http://www.w3.org/2000/svg" xmlns:xlink="http://www.w3.org/1999/xlink" x="0px" y="0px"
	 viewBox="0 0 300 250" style="enable-background:new 0 0 300 250;" xml:space="preserve">
<style type="text/css">
	.st0{fill:#444661;}
</style>
<g id="Layer_2">
	<g>
		<path class="st0" d="M126.3,183.8l-0.9,0.6l-0.3-0.4l1-0.6l-1-0.6l0.3-0.4l0.9,0.6l0-1h0.5l0,1l0.9-0.6l0.3,0.4l-1,0.6l1,0.6
			l-0.3,0.4l-0.9-0.6l0,1h-0.5L126.3,183.8z"/>
		<path class="st0" d="M130.7,182.7h-2.1v-0.5h4.7v0.5h-2.1v4.7h-0.6V182.7z"/>
		<path class="st0" d="M133.3,186.6c0.4,0.2,0.8,0.3,1.4,0.3c0.5,0,1.1-0.1,1.1-0.6c0-0.1,0-0.2-0.1-0.3c-0.4-0.4-1.8-0.1-2.3-0.8
			c-0.1-0.1-0.2-0.3-0.2-0.6c0-0.7,0.6-1.2,1.5-1.2c0.6,0,1.1,0.1,1.6,0.4l-0.2,0.5c-0.4-0.2-0.9-0.3-1.4-0.3
			c-0.6,0-0.9,0.2-0.9,0.6c0,0.1,0,0.2,0.1,0.3c0.4,0.4,1.7,0.2,2.2,0.7c0.1,0.1,0.2,0.3,0.2,0.6c0,0.9-0.9,1.2-1.7,1.2
			c-0.7,0-1.3-0.2-1.6-0.4L133.3,186.6z"/>
		<path class="st0" d="M137.4,186c0-0.8,0.6-1.2,1.2-1.4v0c-0.5-0.2-0.9-0.5-0.9-1.1c0-0.8,0.7-1.3,2-1.3c1.2,0,2.1,0.5,2.1,1.4
			c0,0.6-0.5,1.1-1.5,1.2v0c0.5,0.2,1.1,0.5,1.7,1.1c0.2-0.3,0.4-0.6,0.5-0.9l0.5,0.2c-0.1,0.4-0.4,0.8-0.6,1.1
			c0.3,0.3,0.6,0.7,0.9,1.2h-0.7c-0.2-0.3-0.4-0.6-0.6-0.8c-0.6,0.5-1.4,0.9-2.5,0.9C138.2,187.5,137.4,186.9,137.4,186z
			 M141.7,186.2c-0.7-0.7-1.6-1.1-2.3-1.4c-0.7,0.1-1.4,0.4-1.4,1.1c0,0.6,0.6,1.1,1.5,1.1C140.4,187,141.1,186.7,141.7,186.2z
			 M141.3,183.5c0-0.5-0.5-0.8-1.5-0.8c-0.9,0-1.4,0.3-1.4,0.8c0,0.5,0.5,0.7,1.2,1C140.9,184.3,141.3,184,141.3,183.5z"/>
		<path class="st0" d="M147.1,182.1c0.7,0,1.3,0.1,1.9,0.4l-0.2,0.5c-0.5-0.2-1-0.4-1.7-0.4c-1.5,0-2.5,0.9-2.5,2.2
			c0,1.3,0.9,2.2,2.4,2.2c0.6,0,1.2-0.1,1.7-0.3l0.2,0.5c-0.7,0.3-1.3,0.4-1.9,0.4c-2,0-3-1.1-3-2.6S145.3,182.1,147.1,182.1z"/>
		<path class="st0" d="M149.9,186.6c0.4,0.2,0.8,0.3,1.4,0.3c0.5,0,1.1-0.1,1.1-0.6c0-0.1,0-0.2-0.1-0.3c-0.4-0.4-1.8-0.1-2.3-0.8
			c-0.1-0.1-0.2-0.3-0.2-0.6c0-0.7,0.6-1.2,1.5-1.2c0.6,0,1.1,0.1,1.6,0.4l-0.2,0.5c-0.4-0.2-0.9-0.3-1.4-0.3
			c-0.6,0-0.9,0.2-0.9,0.6c0,0.1,0,0.2,0.1,0.3c0.4,0.4,1.7,0.2,2.2,0.7c0.1,0.1,0.2,0.3,0.2,0.6c0,0.9-0.9,1.2-1.7,1.2
			c-0.7,0-1.3-0.2-1.6-0.4L149.9,186.6z"/>
		<path class="st0" d="M155.7,185.8c0-0.8,0.4-1.5,1-1.9c0.4-0.2,0.9-0.4,1.7-0.4c0.4,0,0.8,0,1.1,0.1v3c0,0.3,0.2,0.4,0.4,0.4
			c0.1,0,0.3,0,0.3-0.1l0.1,0.5c-0.2,0.1-0.4,0.1-0.6,0.1c-0.5,0-0.8-0.2-0.8-0.8c0-0.1,0-0.3,0-0.5h0c-0.3,0.7-0.9,1.3-1.7,1.3
			C156.4,187.5,155.7,186.9,155.7,185.8z M158.9,184.3v-0.2c-0.2,0-0.3,0-0.6,0c-0.5,0-0.9,0.1-1.3,0.3c-0.5,0.3-0.7,0.8-0.7,1.4
			c0,0.7,0.3,1.2,1,1.2C158.1,187,158.9,186.1,158.9,184.3z"/>
		<path class="st0" d="M161.5,184.1h-0.8v-0.5h1.4v0.6c0,0.1,0,0.3,0,0.5h0c0.2-0.6,0.8-1.2,1.7-1.2c0.9,0,1.5,0.6,1.5,1.7
			c0,1.3-0.9,2.3-2.4,2.3c-0.2,0-0.5,0-0.8-0.1v1.9h-0.6V184.1z M162.8,187c0.9,0,1.8-0.6,1.8-1.8c0-0.6-0.3-1.1-1-1.1
			c-0.8,0-1.6,0.8-1.6,2.7v0.2C162.3,186.9,162.6,187,162.8,187z"/>
		<path class="st0" d="M166.6,184.1h-0.8v-0.5h1.4v0.6c0,0.1,0,0.3,0,0.5h0c0.2-0.6,0.8-1.2,1.7-1.2c0.9,0,1.5,0.6,1.5,1.7
			c0,1.3-0.9,2.3-2.4,2.3c-0.2,0-0.5,0-0.8-0.1v1.9h-0.6V184.1z M168,187c0.9,0,1.8-0.6,1.8-1.8c0-0.6-0.3-1.1-1-1.1
			c-0.8,0-1.6,0.8-1.6,2.7v0.2C167.4,186.9,167.7,187,168,187z"/>
		<path class="st0" d="M170.9,181.8h1.4v4.8c0,0.3,0.2,0.4,0.4,0.4c0.1,0,0.2,0,0.3,0l0.1,0.5c-0.2,0.1-0.4,0.1-0.6,0.1
			c-0.5,0-0.9-0.3-0.9-0.8v-4.4h-0.8V181.8z"/>
		<path class="st0" d="M175.2,187.1l-2-3.5h0.7l1.6,2.8h0l1.5-2.8h0.6l-3,5.7h-0.6L175.2,187.1z"/>
	</g>
</g>
<g id="Layer_3">
	<g>
		<path class="st0" d="M126.3,183.8l-0.9,0.6l-0.3-0.4l1-0.6l-1-0.6l0.3-0.4l0.9,0.6l0-1h0.5l0,1l0.9-0.6l0.3,0.4l-1,0.6l1,0.6
			l-0.3,0.4l-0.9-0.6l0,1h-0.5L126.3,183.8z"/>
		<path class="st0" d="M130.7,182.7h-2.1v-0.5h4.7v0.5h-2.1v4.7h-0.6V182.7z"/>
		<path class="st0" d="M133.3,186.6c0.4,0.2,0.8,0.3,1.4,0.3c0.5,0,1.1-0.1,1.1-0.6c0-0.1,0-0.2-0.1-0.3c-0.4-0.4-1.8-0.1-2.3-0.8
			c-0.1-0.1-0.2-0.3-0.2-0.6c0-0.7,0.6-1.2,1.5-1.2c0.6,0,1.1,0.1,1.6,0.4l-0.2,0.5c-0.4-0.2-0.9-0.3-1.4-0.3
			c-0.6,0-0.9,0.2-0.9,0.6c0,0.1,0,0.2,0.1,0.3c0.4,0.4,1.7,0.2,2.2,0.7c0.1,0.1,0.2,0.3,0.2,0.6c0,0.9-0.9,1.2-1.7,1.2
			c-0.7,0-1.3-0.2-1.6-0.4L133.3,186.6z"/>
		<path class="st0" d="M137.4,186c0-0.8,0.6-1.2,1.2-1.4v0c-0.5-0.2-0.9-0.5-0.9-1.1c0-0.8,0.7-1.3,2-1.3c1.2,0,2.1,0.5,2.1,1.4
			c0,0.6-0.5,1.1-1.5,1.2v0c0.5,0.2,1.1,0.5,1.7,1.1c0.2-0.3,0.4-0.6,0.5-0.9l0.5,0.2c-0.1,0.4-0.4,0.8-0.6,1.1
			c0.3,0.3,0.6,0.7,0.9,1.2h-0.7c-0.2-0.3-0.4-0.6-0.6-0.8c-0.6,0.5-1.4,0.9-2.5,0.9C138.2,187.5,137.4,186.9,137.4,186z
			 M141.7,186.2c-0.7-0.7-1.6-1.1-2.3-1.4c-0.7,0.1-1.4,0.4-1.4,1.1c0,0.6,0.6,1.1,1.5,1.1C140.4,187,141.1,186.7,141.7,186.2z
			 M141.3,183.5c0-0.5-0.5-0.8-1.5-0.8c-0.9,0-1.4,0.3-1.4,0.8c0,0.5,0.5,0.7,1.2,1C140.9,184.3,141.3,184,141.3,183.5z"/>
		<path class="st0" d="M147.1,182.1c0.7,0,1.3,0.1,1.9,0.4l-0.2,0.5c-0.5-0.2-1-0.4-1.7-0.4c-1.5,0-2.5,0.9-2.5,2.2
			c0,1.3,0.9,2.2,2.4,2.2c0.6,0,1.2-0.1,1.7-0.3l0.2,0.5c-0.7,0.3-1.3,0.4-1.9,0.4c-2,0-3-1.1-3-2.6S145.3,182.1,147.1,182.1z"/>
		<path class="st0" d="M149.9,186.6c0.4,0.2,0.8,0.3,1.4,0.3c0.5,0,1.1-0.1,1.1-0.6c0-0.1,0-0.2-0.1-0.3c-0.4-0.4-1.8-0.1-2.3-0.8
			c-0.1-0.1-0.2-0.3-0.2-0.6c0-0.7,0.6-1.2,1.5-1.2c0.6,0,1.1,0.1,1.6,0.4l-0.2,0.5c-0.4-0.2-0.9-0.3-1.4-0.3
			c-0.6,0-0.9,0.2-0.9,0.6c0,0.1,0,0.2,0.1,0.3c0.4,0.4,1.7,0.2,2.2,0.7c0.1,0.1,0.2,0.3,0.2,0.6c0,0.9-0.9,1.2-1.7,1.2
			c-0.7,0-1.3-0.2-1.6-0.4L149.9,186.6z"/>
		<path class="st0" d="M155.7,185.8c0-0.8,0.4-1.5,1-1.9c0.4-0.2,0.9-0.4,1.7-0.4c0.4,0,0.8,0,1.1,0.1v3c0,0.3,0.2,0.4,0.4,0.4
			c0.1,0,0.3,0,0.3-0.1l0.1,0.5c-0.2,0.1-0.4,0.1-0.6,0.1c-0.5,0-0.8-0.2-0.8-0.8c0-0.1,0-0.3,0-0.5h0c-0.3,0.7-0.9,1.3-1.7,1.3
			C156.4,187.5,155.7,186.9,155.7,185.8z M158.9,184.3v-0.2c-0.2,0-0.3,0-0.6,0c-0.5,0-0.9,0.1-1.3,0.3c-0.5,0.3-0.7,0.8-0.7,1.4
			c0,0.7,0.3,1.2,1,1.2C158.1,187,158.9,186.1,158.9,184.3z"/>
		<path class="st0" d="M161.5,184.1h-0.8v-0.5h1.4v0.6c0,0.1,0,0.3,0,0.5h0c0.2-0.6,0.8-1.2,1.7-1.2c0.9,0,1.5,0.6,1.5,1.7
			c0,1.3-0.9,2.3-2.4,2.3c-0.2,0-0.5,0-0.8-0.1v1.9h-0.6V184.1z M162.8,187c0.9,0,1.8-0.6,1.8-1.8c0-0.6-0.3-1.1-1-1.1
			c-0.8,0-1.6,0.8-1.6,2.7v0.2C162.3,186.9,162.6,187,162.8,187z"/>
		<path class="st0" d="M166.6,184.1h-0.8v-0.5h1.4v0.6c0,0.1,0,0.3,0,0.5h0c0.2-0.6,0.8-1.2,1.7-1.2c0.9,0,1.5,0.6,1.5,1.7
			c0,1.3-0.9,2.3-2.4,2.3c-0.2,0-0.5,0-0.8-0.1v1.9h-0.6V184.1z M168,187c0.9,0,1.8-0.6,1.8-1.8c0-0.6-0.3-1.1-1-1.1
			c-0.8,0-1.6,0.8-1.6,2.7v0.2C167.4,186.9,167.7,187,168,187z"/>
		<path class="st0" d="M170.9,181.8h1.4v4.8c0,0.3,0.2,0.4,0.4,0.4c0.1,0,0.2,0,0.3,0l0.1,0.5c-0.2,0.1-0.4,0.1-0.6,0.1
			c-0.5,0-0.9-0.3-0.9-0.8v-4.4h-0.8V181.8z"/>
		<path class="st0" d="M175.2,187.1l-2-3.5h0.7l1.6,2.8h0l1.5-2.8h0.6l-3,5.7h-0.6L175.2,187.1z"/>
	</g>
</g>
</svg>
