<?xml version="1.0" encoding="utf-8"?>
<!-- Generator: Adobe Illustrator 17.0.0, SVG Export Plug-In . SVG Version: 6.00 Build 0)  -->
<!DOCTYPE svg PUBLIC "-//W3C//DTD SVG 1.1//EN" "http://www.w3.org/Graphics/SVG/1.1/DTD/svg11.dtd">
<svg version="1.1" id="Layer_1" xmlns="http://www.w3.org/2000/svg" xmlns:xlink="http://www.w3.org/1999/xlink" x="0px" y="0px"
	 width="300px" height="600px" viewBox="0 0 300 600" enable-background="new 0 0 300 600" xml:space="preserve">
<g>
	<path fill="#FFFFFF" d="M76.815,248.026c0.812,0.493,1.839,0.855,3.115,0.855c1.593,0,2.622-0.507,2.622-1.522
		c0-1.709-3.564-0.897-5.273-2.144c-0.535-0.39-0.87-0.97-0.87-1.883c0-1.884,1.565-2.811,3.724-2.811
		c1.463,0,2.853,0.42,3.75,0.942l-0.593,1.216c-0.781-0.39-1.912-0.752-3.056-0.752c-1.667,0-2.217,0.651-2.217,1.318
		c0,2.361,6.143,0.232,6.143,4.042c0,2.099-2.042,2.998-4.245,2.998c-1.579,0-2.867-0.42-3.795-1.029L76.815,248.026z"/>
	<path fill="#FFFFFF" d="M88.019,241.971H84.47v-1.376h8.633v1.376h-3.548v8.171H88.02v-8.171H88.019z"/>
	<path fill="#FFFFFF" d="M96.815,240.552h1.073l4.896,9.589h-1.695l-1.361-2.709h-4.65l-1.289,2.709h-1.695L96.815,240.552z
		 M99.031,246.056l-1.68-3.347h-0.029l-1.593,3.347H99.031z"/>
	<path fill="#FFFFFF" d="M104.179,240.596h1.203l6.88,6.91h0.029v-6.91h1.535v9.545h-1.101l-6.981-7.011h-0.029v7.011h-1.535
		V240.596z"/>
	<path fill="#FFFFFF" d="M116.441,240.596h3.579c0.897,0,1.651,0.072,2.332,0.231c2.216,0.536,3.68,1.97,3.68,4.389
		c0,2.435-1.507,3.984-3.809,4.621c-0.783,0.217-1.652,0.304-2.724,0.304h-3.057v-9.545H116.441z M119.469,248.765
		c0.941,0,1.725-0.086,2.39-0.275c1.593-0.464,2.564-1.506,2.564-3.274c0-1.781-1.029-2.664-2.477-3.042
		c-0.609-0.159-1.289-0.203-2.115-0.203h-1.854v6.794h1.492V248.765z"/>
	<path fill="#FFFFFF" d="M131.642,240.552h1.073l4.896,9.589h-1.695l-1.361-2.709h-4.65l-1.289,2.709h-1.695L131.642,240.552z
		 M133.859,246.056l-1.68-3.347h-0.029l-1.593,3.347H133.859z"/>
	<path fill="#FFFFFF" d="M139.006,240.596h2.854c0.725,0,1.376,0.042,1.926,0.187c1.245,0.333,2.245,1.145,2.245,2.651
		c0,1.637-1.174,2.463-2.738,2.724v0.028c0.623,0.348,1.013,1.623,1.781,2.245c0.29,0.231,0.609,0.377,1.015,0.377
		c0.174,0,0.449-0.028,0.667-0.087l0.319,1.304c-0.275,0.116-0.754,0.187-1.202,0.187c-0.725,0-1.289-0.261-1.752-0.636
		c-1.319-1.073-1.826-3.129-2.796-3.129h-0.781v3.695h-1.535v-9.545H139.006z M141.702,245.072c0.623,0,1.115-0.029,1.506-0.145
		c0.738-0.217,1.216-0.68,1.216-1.464c0-0.725-0.463-1.187-1.086-1.361c-0.405-0.116-0.839-0.13-1.448-0.13h-1.347v3.1H141.702z"/>
	<path fill="#FFFFFF" d="M148.441,240.596h3.579c0.897,0,1.651,0.072,2.332,0.231c2.216,0.536,3.679,1.97,3.679,4.389
		c0,2.435-1.506,3.984-3.808,4.621c-0.783,0.217-1.652,0.304-2.724,0.304h-3.057v-9.545H148.441z M151.469,248.765
		c0.941,0,1.725-0.086,2.39-0.275c1.592-0.464,2.563-1.506,2.563-3.274c0-1.781-1.029-2.664-2.477-3.042
		c-0.609-0.159-1.289-0.203-2.115-0.203h-1.854v6.794h1.493V248.765z"/>
	<path fill="#FFFFFF" d="M163.586,240.596h2.825c0.71,0,1.303,0.028,1.868,0.174c1.261,0.333,2.39,1.159,2.39,2.883
		c0,1.854-1.347,2.751-2.693,3.028c-0.507,0.101-1.029,0.145-1.752,0.145h-1.102v3.317h-1.535v-9.546H163.586z M166.28,245.449
		c0.565,0,0.999-0.014,1.376-0.101c0.783-0.188,1.406-0.68,1.406-1.651c0-0.941-0.523-1.39-1.203-1.593
		c-0.434-0.13-0.941-0.13-1.564-0.13h-1.174v3.477h1.159V245.449z"/>
	<path fill="#FFFFFF" d="M172.673,240.596h2.854c0.725,0,1.376,0.042,1.926,0.187c1.245,0.333,2.245,1.145,2.245,2.651
		c0,1.637-1.174,2.463-2.738,2.724v0.028c0.623,0.348,1.013,1.623,1.781,2.245c0.29,0.231,0.609,0.377,1.015,0.377
		c0.174,0,0.449-0.028,0.667-0.087l0.319,1.304c-0.275,0.116-0.754,0.187-1.202,0.187c-0.725,0-1.289-0.261-1.752-0.636
		c-1.319-1.073-1.826-3.129-2.796-3.129h-0.781v3.695h-1.535v-9.545H172.673z M175.369,245.072c0.623,0,1.115-0.029,1.506-0.145
		c0.738-0.217,1.216-0.68,1.216-1.464c0-0.725-0.463-1.187-1.086-1.361c-0.405-0.116-0.839-0.13-1.448-0.13h-1.347v3.1H175.369z"/>
	<path fill="#FFFFFF" d="M182.108,240.596h6.808v1.376h-5.272v2.638h4.78v1.376h-4.78v2.782h5.36v1.377h-6.895v-9.548H182.108z"/>
	<path fill="#FFFFFF" d="M191.181,240.596h1.232l4.288,5.157h0.029l4.288-5.157h1.203v9.545h-1.535v-6.852h-0.029l-3.853,4.635
		h-0.202l-3.853-4.635h-0.029v6.852h-1.535v-9.545H191.181z"/>
	<path fill="#FFFFFF" d="M204.832,240.596h1.535v9.545h-1.535V240.596z"/>
	<path fill="#FFFFFF" d="M208.978,240.596h6.809v1.376h-5.273v2.638h4.78v1.376h-4.78v2.782h5.36v1.377h-6.895v-9.548H208.978z"/>
	<path fill="#FFFFFF" d="M218.05,240.596h2.854c0.725,0,1.376,0.042,1.926,0.187c1.245,0.333,2.245,1.145,2.245,2.651
		c0,1.637-1.174,2.463-2.738,2.724v0.028c0.623,0.348,1.013,1.623,1.781,2.245c0.29,0.231,0.609,0.377,1.015,0.377
		c0.174,0,0.449-0.028,0.667-0.087l0.319,1.304c-0.275,0.116-0.754,0.187-1.202,0.187c-0.725,0-1.289-0.261-1.752-0.636
		c-1.319-1.073-1.826-3.129-2.796-3.129h-0.781v3.695h-1.535v-9.545H218.05z M220.745,245.072c0.623,0,1.115-0.029,1.506-0.145
		c0.738-0.217,1.216-0.68,1.216-1.464c0-0.725-0.463-1.187-1.086-1.361c-0.405-0.116-0.839-0.13-1.448-0.13h-1.347v3.1H220.745z"/>
</g>
</svg>
