<?xml version="1.0" encoding="utf-8"?>
<!-- Generator: Adobe Illustrator 17.0.0, SVG Export Plug-In . SVG Version: 6.00 Build 0)  -->
<!DOCTYPE svg PUBLIC "-//W3C//DTD SVG 1.1//EN" "http://www.w3.org/Graphics/SVG/1.1/DTD/svg11.dtd">
<svg version="1.1" id="Layer_1" xmlns="http://www.w3.org/2000/svg" xmlns:xlink="http://www.w3.org/1999/xlink" x="0px" y="0px"
	 width="300px" height="600px" viewBox="0 0 300 600" enable-background="new 0 0 300 600" xml:space="preserve">
<g>
	<path fill="#FFFFFF" d="M46.029,205.1c1.372,1.035,3.288,1.657,5.619,1.657c2.9,0,5.308-1.062,5.308-3.418
		c0-3.65-6.965-2.045-9.918-4.479c-0.829-0.672-1.347-1.606-1.347-3.055c0-3.081,2.668-4.791,6.551-4.791
		c2.59,0,4.972,0.777,6.24,1.631l-0.802,1.476c-1.114-0.672-3.107-1.399-5.308-1.399c-3.34,0-4.661,1.424-4.661,2.978
		c0,4.998,11.264,0.906,11.264,7.612c0,3.496-3.417,5.154-7.327,5.154c-2.901,0-5.179-0.802-6.578-1.891L46.029,205.1z"/>
	<path fill="#FFFFFF" d="M69.615,191.065h1.372l8.727,17.142h-2.149l-2.719-5.438h-8.933l-2.641,5.438h-2.123L69.615,191.065z
		 M73.992,201.086l-3.677-7.302h-0.053l-3.547,7.302H73.992z"/>
	<path fill="#FFFFFF" d="M80.487,191.143l7.303,14.423h0.052l6.94-14.423h2.124l-8.468,17.142h-1.295l-8.779-17.142H80.487z"/>
	<path fill="#FFFFFF" d="M99.726,191.143h11.756v1.709h-9.84v5.801h8.882v1.684h-8.882v6.163h9.996v1.709H99.726V191.143z"/>
	<path fill="#FFFFFF" d="M122.812,203.65c0.663-12.18,14.333-9.281,18.6-12.428c0.787-0.58,1.243-1.409,1.243-2.528
		c0-2.527-2.692-3.976-7.249-3.976c-4.599,0-8.327,1.325-11.227,2.859l-1.906-3.522c3.274-1.863,7.623-3.356,13.092-3.356
		c6.09,0,11.89,2.236,11.89,7.995c0,11.849-19.429,4.599-19.926,14.874l-0.041,0.869h20.383v3.77h-25.109L122.812,203.65z"/>
	<path fill="#FFFFFF" d="M151.56,194.702c0-8.327,6.795-14.003,14.583-14.003c7.787,0,14.582,5.675,14.582,14.003
		c0,8.575-6.918,13.918-14.582,13.918C158.478,208.62,151.56,203.277,151.56,194.702z M176.126,194.702
		c0-5.801-4.391-9.984-9.983-9.984c-5.593,0-9.984,4.184-9.984,9.984c0,5.758,4.391,9.9,9.984,9.9
		C171.777,204.602,176.126,200.46,176.126,194.702z"/>
	<path fill="#FFFFFF" d="M183.34,191.52c0-2.877,2.25-4.814,4.955-4.814c2.734,0,4.957,1.966,4.957,4.814
		c0,2.82-2.223,4.785-4.957,4.785C185.59,196.305,183.34,194.368,183.34,191.52z M200.712,186.85h2.592l-15.551,18.769h-2.591
		L200.712,186.85z M190.915,191.52c0-1.681-1.11-2.82-2.62-2.82c-1.509,0-2.62,1.139-2.62,2.82c0,1.651,1.112,2.79,2.62,2.79
		C189.805,194.31,190.915,193.171,190.915,191.52z M195.016,201.118c0-2.876,2.251-4.813,4.957-4.813
		c2.734,0,4.955,1.964,4.955,4.813c0,2.82-2.221,4.785-4.955,4.785C197.266,205.903,195.016,203.966,195.016,201.118z
		 M202.593,201.118c0-1.681-1.112-2.82-2.62-2.82c-1.51,0-2.62,1.139-2.62,2.82c0,1.652,1.11,2.791,2.62,2.791
		C201.481,203.909,202.593,202.77,202.593,201.118z"/>
	<path fill="#FFFFFF" d="M214.382,199.764c0-5.178,3.807-8.751,9.451-8.751c5.646,0,9.451,3.573,9.451,8.751
		c0,5.335-3.884,8.701-9.451,8.701C218.24,208.466,214.382,205.1,214.382,199.764z M231.265,199.764
		c0-4.064-2.796-7.042-7.432-7.042c-4.661,0-7.432,2.978-7.432,7.042c0,4.065,2.771,6.993,7.432,6.993
		C228.469,206.757,231.265,203.831,231.265,199.764z"/>
	<path fill="#FFFFFF" d="M237.58,191.143h1.528l13.517,13.725h0.052v-13.725h1.916v17.065h-1.321l-13.724-13.931h-0.053v13.931
		h-1.915L237.58,191.143L237.58,191.143z"/>
	<path fill="#FFFFFF" d="M17.945,237.462c1.372,1.035,3.288,1.657,5.619,1.657c2.9,0,5.308-1.062,5.308-3.418
		c0-3.65-6.965-2.045-9.918-4.479c-0.829-0.672-1.347-1.606-1.347-3.055c0-3.081,2.668-4.791,6.551-4.791
		c2.59,0,4.972,0.777,6.24,1.631l-0.802,1.476c-1.114-0.672-3.107-1.399-5.308-1.399c-3.34,0-4.661,1.424-4.661,2.978
		c0,4.998,11.264,0.906,11.264,7.612c0,3.496-3.417,5.154-7.327,5.154c-2.901,0-5.179-0.802-6.578-1.891L17.945,237.462z"/>
	<path fill="#FFFFFF" d="M38.478,225.214h-6.655v-1.709h15.251v1.709h-6.68v15.356h-1.916
		C38.478,240.57,38.478,225.214,38.478,225.214z"/>
	<path fill="#FFFFFF" d="M54.09,223.427h1.372l8.727,17.142H62.04l-2.719-5.438h-8.933l-2.641,5.438h-2.123L54.09,223.427z
		 M58.466,233.448l-3.677-7.302h-0.053l-3.547,7.302H58.466z"/>
	<path fill="#FFFFFF" d="M67.241,223.505h1.528l13.517,13.725h0.052v-13.725h1.916v17.065h-1.321l-13.724-13.931h-0.052v13.931
		h-1.916V223.505z"/>
	<path fill="#FFFFFF" d="M89.533,223.505h6.111c2.123,0,3.806,0.233,5.204,0.725c3.392,1.139,5.437,3.677,5.437,7.535
		c0,4.325-2.46,7.122-6.603,8.234c-1.399,0.388-2.952,0.57-4.946,0.57h-5.204v-17.065H89.533z M94.659,238.861
		c1.839,0,3.288-0.156,4.506-0.492c3.496-0.985,5.102-3.34,5.102-6.629c0-3.055-1.554-4.946-4.065-5.852
		c-1.268-0.492-2.848-0.674-4.816-0.674h-3.937v13.647h3.21V238.861z"/>
	<path fill="#FFFFFF" d="M116.822,223.427h1.372l8.727,17.142h-2.149l-2.719-5.438h-8.933l-2.641,5.438h-2.124L116.822,223.427z
		 M121.197,233.448l-3.677-7.302h-0.052l-3.548,7.302H121.197z"/>
	<path fill="#FFFFFF" d="M129.973,223.505h5.126c1.529,0,2.641,0.13,3.573,0.415c2.149,0.699,3.496,2.149,3.496,4.402
		c0,2.59-1.891,4.324-5.231,4.764v0.052c1.243,0.595,2.253,3.936,4.092,5.256c0.491,0.362,1.061,0.57,1.657,0.57
		c0.31,0,0.699-0.052,0.984-0.129l0.39,1.631c-0.415,0.155-0.985,0.232-1.554,0.232c-1.036,0-1.839-0.31-2.59-0.854
		c-2.693-1.863-3.703-6.422-5.697-6.422h-2.331v7.147h-1.915v-17.065H129.973z M134.607,231.714c1.269,0,2.201-0.077,2.926-0.285
		c1.734-0.518,2.615-1.606,2.615-3.133c0-1.372-0.88-2.306-1.994-2.693c-0.88-0.337-1.811-0.39-3.055-0.39h-3.211v6.5h2.719V231.714
		z"/>
	<path fill="#FFFFFF" d="M146.879,223.505h6.111c2.123,0,3.806,0.233,5.204,0.725c3.392,1.139,5.437,3.677,5.437,7.535
		c0,4.325-2.46,7.122-6.603,8.234c-1.399,0.388-2.952,0.57-4.946,0.57h-5.204v-17.065H146.879z M152.006,238.861
		c1.839,0,3.288-0.156,4.506-0.492c3.496-0.985,5.102-3.34,5.102-6.629c0-3.055-1.554-4.946-4.065-5.852
		c-1.268-0.492-2.848-0.674-4.816-0.674h-3.936v13.647h3.209V238.861z"/>
	<path fill="#FFFFFF" d="M174.09,223.505h4.868c1.631,0,2.901,0.156,3.963,0.57c1.994,0.7,3.417,2.176,3.417,4.712
		c0,2.823-1.761,4.48-4.195,5.127c-0.985,0.259-2.098,0.388-3.807,0.388h-2.33v6.266h-1.916V223.505z M178.363,232.62
		c1.424,0,2.46-0.077,3.263-0.31c1.709-0.518,2.693-1.631,2.693-3.444c0-1.683-0.802-2.668-2.098-3.186
		c-0.906-0.362-1.994-0.467-3.548-0.467h-2.667v7.406h2.356V232.62z"/>
	<path fill="#FFFFFF" d="M190.297,223.505h5.126c1.529,0,2.641,0.13,3.573,0.415c2.149,0.699,3.496,2.149,3.496,4.402
		c0,2.59-1.891,4.324-5.231,4.764v0.052c1.242,0.595,2.253,3.936,4.092,5.256c0.491,0.362,1.061,0.57,1.657,0.57
		c0.31,0,0.699-0.052,0.984-0.129l0.39,1.631c-0.415,0.155-0.985,0.232-1.554,0.232c-1.036,0-1.839-0.31-2.59-0.854
		c-2.693-1.863-3.703-6.422-5.697-6.422h-2.33v7.147h-1.916v-17.065H190.297z M194.931,231.714c1.269,0,2.201-0.077,2.926-0.285
		c1.734-0.518,2.615-1.606,2.615-3.133c0-1.372-0.88-2.306-1.994-2.693c-0.88-0.337-1.811-0.39-3.055-0.39h-3.21v6.5h2.718V231.714z
		"/>
	<path fill="#FFFFFF" d="M207.204,223.505h11.756v1.709h-9.841v5.801h8.882v1.684h-8.882v6.163h9.996v1.709h-11.911V223.505z"/>
	<path fill="#FFFFFF" d="M223.152,223.505h1.579l8.157,10.02h0.052l8.157-10.02h1.528v17.065h-1.916v-13.673h-0.052l-7.588,9.296
		h-0.337l-7.612-9.296h-0.052v13.673h-1.916V223.505z"/>
	<path fill="#FFFFFF" d="M247.903,223.505h1.916v17.065h-1.916V223.505z"/>
	<path fill="#FFFFFF" d="M255.101,223.505h11.756v1.709h-9.84v5.801h8.882v1.684h-8.882v6.163h9.996v1.709h-11.911v-17.066H255.101z
		"/>
	<path fill="#FFFFFF" d="M271.049,223.505h5.126c1.529,0,2.641,0.13,3.573,0.415c2.149,0.699,3.496,2.149,3.496,4.402
		c0,2.59-1.891,4.324-5.231,4.764v0.052c1.242,0.595,2.253,3.936,4.092,5.256c0.491,0.362,1.061,0.57,1.657,0.57
		c0.31,0,0.699-0.052,0.984-0.129l0.39,1.631c-0.415,0.155-0.985,0.232-1.554,0.232c-1.036,0-1.839-0.31-2.59-0.854
		c-2.693-1.863-3.703-6.422-5.697-6.422h-2.33v7.147h-1.916v-17.065H271.049z M275.683,231.714c1.269,0,2.201-0.077,2.926-0.285
		c1.734-0.518,2.615-1.606,2.615-3.133c0-1.372-0.88-2.306-1.994-2.693c-0.88-0.337-1.811-0.39-3.055-0.39h-3.21v6.5h2.718V231.714z
		"/>
	<path fill="#444662" d="M22.256,273.269c1.606,0.985,3.91,1.477,5.852,1.477c2.46,0,3.73-0.595,3.73-1.709
		c0-2.539-10.643-0.025-10.643-6.629c0-3.625,3.186-5.489,7.224-5.489c2.591,0,5.671,0.647,7.562,1.761l-1.449,3.186
		c-1.554-0.802-4.092-1.321-5.956-1.321c-2.124,0-2.953,0.595-2.953,1.501c0,3.055,10.643,0.156,10.643,6.862
		c0,3.522-3.367,5.464-8.132,5.464c-2.745,0-5.593-0.621-7.561-1.916L22.256,273.269z"/>
	<path fill="#444662" d="M37.789,278.112l7.77-17.142h3.857l8.416,17.142h-4.842l-1.657-3.6h-7.379l-1.477,3.6H37.789z
		 M47.474,266.122h-0.052l-1.968,4.764h4.195L47.474,266.122z"/>
	<path fill="#444662" d="M60.21,261.047h4.325v13.388h8.519v3.677H60.21V261.047z"/>
	<path fill="#444662" d="M75.382,261.047H88.64v3.678h-8.933v2.952h8.131v3.678h-8.131v3.081h9.089v3.677H75.382V261.047z"/>
	<path fill="#444662" d="M98.734,261.047h13.258v3.678h-8.933v2.952h8.131v3.678h-8.131v3.081h9.089v3.677H98.735v-17.066H98.734z"
		/>
	<path fill="#444662" d="M115.925,261.047h3.755l9.995,10.385h0.052v-10.385h4.325v17.065h-3.573l-10.177-10.643h-0.052v10.643
		h-4.325C115.925,278.112,115.925,261.047,115.925,261.047z"/>
	<path fill="#444662" d="M138.606,261.047h7.173c1.762,0,2.978,0.13,4.092,0.39c3.702,0.88,6.655,3.367,6.655,7.871
		c0,4.609-3.107,6.992-5.983,8.002c-1.994,0.7-4.246,0.802-6.24,0.802h-5.697V261.047z M144.562,274.435
		c1.553,0,2.771-0.105,3.781-0.39c2.097-0.595,3.754-2.201,3.754-4.739c0-2.511-1.58-3.807-3.34-4.298
		c-0.985-0.285-1.994-0.285-3.65-0.285h-2.176v9.71h1.631V274.435z"/>
	<path fill="#444662" d="M160.69,273.269c1.606,0.985,3.91,1.477,5.852,1.477c2.46,0,3.73-0.595,3.73-1.709
		c0-2.539-10.643-0.025-10.643-6.629c0-3.625,3.186-5.489,7.224-5.489c2.591,0,5.671,0.647,7.562,1.761l-1.449,3.186
		c-1.554-0.802-4.092-1.321-5.956-1.321c-2.124,0-2.953,0.595-2.953,1.501c0,3.055,10.643,0.156,10.643,6.862
		c0,3.522-3.367,5.464-8.132,5.464c-2.745,0-5.593-0.621-7.561-1.916L160.69,273.269z"/>
	<path fill="#444662" d="M181.608,278.112l7.769-17.142h3.858l8.416,17.142h-4.842l-1.657-3.6h-7.379l-1.477,3.6H181.608z
		 M191.293,266.122h-0.052l-1.968,4.764h4.195L191.293,266.122z"/>
	<path fill="#444662" d="M204.029,261.047h6.68c1.451,0,2.46,0.13,3.368,0.39c2.667,0.751,4.349,2.538,4.349,5.36
		c0,2.873-1.734,4.894-4.893,5.645c-0.854,0.207-1.839,0.286-3.186,0.286h-1.994v5.386h-4.325v-17.066H204.029z M210.192,269.152
		c1.086,0,1.657-0.105,2.097-0.233c1.217-0.363,1.709-1.114,1.709-2.072c0-0.957-0.491-1.631-1.631-1.968
		c-0.439-0.129-0.906-0.155-1.761-0.155h-2.253v4.427h1.839V269.152z"/>
	<path fill="#444662" d="M231.682,271.275c1.424,0.802,1.916,3.65,4.013,3.65c0.467,0,0.907-0.103,1.321-0.258l0.777,3.262
		c-0.88,0.338-1.942,0.44-2.745,0.44c-5.516,0-6.06-6.318-7.899-6.318h-0.932v6.06h-4.325v-17.065h7.043
		c4.661,0,7.224,1.787,7.224,5.387c0,2.538-1.606,4.272-4.479,4.791v0.051H231.682z M228.496,268.582
		c2.305,0,3.237-0.724,3.237-1.994c0-1.372-0.933-1.863-2.926-1.863h-2.59v3.857H228.496z"/>
	<path fill="#444662" d="M240.379,261.047h4.325v17.065h-4.325V261.047z"/>
	<path fill="#444662" d="M249.26,261.047h4.325v13.388h8.519v3.677H249.26L249.26,261.047L249.26,261.047z"/>
	<path fill="#444662" d="M276.032,261.047h4.272l-6.137,9.504h4.454v-4.35h3.91v4.35h4.455v3.34h-4.455v4.479h-3.91v-4.479h-7.819
		l-1.606-2.253L276.032,261.047z"/>
</g>
</svg>
