<?xml version="1.0" encoding="utf-8"?>
<!-- Generator: Adobe Illustrator 17.0.0, SVG Export Plug-In . SVG Version: 6.00 Build 0)  -->
<!DOCTYPE svg PUBLIC "-//W3C//DTD SVG 1.1//EN" "http://www.w3.org/Graphics/SVG/1.1/DTD/svg11.dtd">
<svg version="1.1" id="Layer_1" xmlns="http://www.w3.org/2000/svg" xmlns:xlink="http://www.w3.org/1999/xlink" x="0px" y="0px"
	 width="300px" height="600px" viewBox="0 0 300 600" enable-background="new 0 0 300 600" xml:space="preserve">
<g>
	<path fill="#FFFFFF" d="M134.731,268.236H143v1.202h-6.921v4.08h6.247v1.183h-6.247v5.537h-1.347V268.236z"/>
	<path fill="#FFFFFF" d="M143.999,271.55h3.115v3.188h0.037c0.692-1.876,2.276-3.479,4.462-3.424l-0.183,1.402
		c-1.749-0.018-3.241,1.457-3.952,3.716c-0.273,0.855-0.364,1.803-0.364,2.914v0.892h-1.348v-7.523h-1.766V271.55z"/>
	<path fill="#FFFFFF" d="M152.666,275.885c0-2.55,1.876-4.571,4.808-4.571c2.914,0,4.79,2.021,4.79,4.571
		c0,2.514-1.857,4.535-4.827,4.535C154.542,280.42,152.666,278.399,152.666,275.885z M160.863,275.885
		c0-1.967-1.385-3.369-3.388-3.369c-2.021,0-3.406,1.421-3.406,3.369c0,1.913,1.385,3.333,3.37,3.333
		C159.478,279.218,160.863,277.798,160.863,275.885z"/>
	<path fill="#FFFFFF" d="M163.572,271.55h3.115v3.005h0.037c0.618-1.566,1.894-3.241,4.152-3.241c1.712,0,2.86,0.983,2.86,2.895
		v0.419h0.037c0.674-1.693,1.986-3.314,4.244-3.314c1.766,0,2.859,0.983,2.859,2.951v4.007c0,0.656,0.365,0.855,0.93,0.855
		c0.218,0,0.546-0.054,0.728-0.109l0.291,1.11c-0.437,0.127-0.874,0.201-1.293,0.201c-1.239,0-1.985-0.583-1.985-1.803v-3.935
		c0-1.402-0.547-2.076-1.749-2.076c-1.64,0-3.006,1.493-3.643,3.679c-0.274,0.911-0.382,1.949-0.382,3.078v0.965h-1.33v-5.664
		c0-1.403-0.583-2.058-1.749-2.058c-1.621,0-2.987,1.493-3.625,3.679c-0.274,0.911-0.382,1.949-0.382,3.078v0.965h-1.348v-7.523
		h-1.766V271.55z"/>
</g>
<g>
	<path fill="#FFFFFF" d="M78.259,346.75v-2.976c-9.256-0.908-14.628-5.619-17.024-10.743l2.231-1.157
		c1.983,4.298,6.528,8.513,14.793,9.422v-4.959c-6.115-0.743-9.008-3.801-10.413-6.693l2.231-1.157
		c0.992,2.148,3.141,4.628,8.182,5.372v-11.9c-8.678-0.331-15.289-7.107-15.289-15.95c0-8.76,6.611-15.619,15.289-15.95v-2.479
		h2.479v2.479h4.958v-2.479h2.479v2.562c7.189,0.661,12.148,4.297,14.628,9.173l-2.231,1.157c-2.066-4.132-6.446-7.355-12.396-7.851
		v5.041c4.215,0.578,6.694,2.479,8.017,5.041l-2.231,1.157c-0.992-1.818-2.645-3.224-5.785-3.72v11.9
		c8.678,0.331,15.371,7.19,15.371,15.95c0,8.843-6.693,15.702-15.371,15.95v2.81h-2.479v-2.81h-4.958v2.81H78.259z M78.259,319.479
		v-4.959c-4.463-0.33-7.851-3.884-7.851-8.512c0-4.546,3.388-8.182,7.851-8.513v-4.958c-7.272,0.331-12.81,6.115-12.81,13.471
		C65.45,313.445,70.987,319.148,78.259,319.479z M78.259,312.04v-12.065c-3.058,0.331-5.372,2.893-5.372,6.033
		C72.887,309.231,75.202,311.71,78.259,312.04z M85.697,297.495v-4.958h-4.958v4.958H85.697z M80.739,299.975v34.049h4.958v-34.049
		H80.739z M85.697,341.461v-4.958h-4.958v4.958H85.697z M88.176,314.52v4.959c4.463,0.33,7.934,3.967,7.934,8.512
		c0,4.628-3.471,8.265-7.934,8.513v4.958c7.272-0.248,12.893-6.033,12.893-13.471C101.069,320.636,95.449,314.851,88.176,314.52z
		 M88.176,321.958v12.065c3.058-0.248,5.454-2.81,5.454-6.033C93.63,324.85,91.234,322.288,88.176,321.958z"/>
	<path fill="#FFFFFF" d="M130.735,288.239l-19.586,20.082l-1.818-1.817l17.852-18.265H130.735z M154.454,346.089h-42.147v-2.479
		h17.521v-4.958h-17.521v-2.479h17.521v-36.445l-13.389,13.719l-1.818-1.818l22.893-23.388h2.23v47.933h14.711v2.479h-22.148v4.958
		h22.148V346.089z M132.305,297.248v38.924h4.959v-44.048L132.305,297.248z"/>
	<path fill="#FFFFFF" d="M178.334,288.239l-19.586,20.082l-1.818-1.817l17.852-18.265H178.334z M202.053,346.089h-42.147v-2.479
		h17.521v-4.958h-17.521v-2.479h17.521v-36.445l-13.389,13.719l-1.818-1.818l22.893-23.388h2.23v47.933h14.711v2.479h-22.148v4.958
		h22.148V346.089z M179.905,297.248v38.924h4.959v-44.048L179.905,297.248z"/>
	<path fill="#FFFFFF" d="M206.183,329.148c0-6.942,3.306-10.661,7.769-13.058c-3.637-2.313-6.198-6.032-6.198-11.983
		c0-10.082,8.017-16.527,20.33-16.527s20.329,6.445,20.329,16.527c0,5.951-2.562,9.67-6.197,11.983
		c4.462,2.396,7.768,6.115,7.768,13.058c0,9.752-7.851,17.603-21.899,17.603C214.034,346.75,206.183,338.9,206.183,329.148z
		 M247.504,329.148c0-6.115-3.389-9.587-7.852-11.735c-1.9,0.826-4.215,1.57-6.28,2.066c4.876,1.487,9.173,3.967,9.173,9.504
		c0,5.784-4.545,10.33-14.462,10.33s-14.463-4.546-14.463-10.33c0-5.537,4.298-8.017,9.174-9.504
		c-2.066-0.496-4.38-1.24-6.281-2.066c-4.463,2.148-7.851,5.62-7.851,11.735c0,8.43,7.024,15.123,19.421,15.123
		C240.479,344.271,247.504,337.577,247.504,329.148z M240.975,303.859c0,5.041-3.636,7.354-8.43,8.843
		c2.396,0.578,4.711,1.322,6.942,2.148c3.719-1.983,6.446-5.124,6.446-10.744c0-8.594-7.025-14.049-17.851-14.049
		c-10.826,0-17.851,5.455-17.851,14.049c0,5.62,2.727,8.761,6.445,10.744c2.231-0.826,4.546-1.57,6.942-2.148
		c-4.793-1.488-8.43-3.802-8.43-8.843c0-5.455,4.298-8.843,12.893-8.843S240.975,298.404,240.975,303.859z M240.066,328.983
		c0-5.289-5.371-7.024-11.982-8.513c-6.611,1.488-11.983,3.224-11.983,8.513c0,4.462,3.719,7.851,11.983,7.851
		C236.347,336.833,240.066,333.444,240.066,328.983z M238.496,303.859c0-3.967-3.471-6.364-10.412-6.364
		c-6.942,0-10.413,2.397-10.413,6.364c0,4.462,4.545,6.115,10.413,7.603C233.951,309.975,238.496,308.321,238.496,303.859z
		 M236.347,316.173c-2.065-0.744-4.132-1.24-8.264-2.231c-4.133,0.991-6.198,1.487-8.265,2.231c2.231,0.743,5.702,1.487,8.265,1.983
		C230.645,317.66,234.116,316.916,236.347,316.173z"/>
</g>
<g>
	<path fill="#FFFFFF" d="M118.325,363.396c0-2.419,1.779-4.336,4.561-4.336c2.764,0,4.542,1.917,4.542,4.336
		c0,2.384-1.762,4.301-4.577,4.301C120.104,367.696,118.325,365.779,118.325,363.396z M126.098,363.396
		c0-1.866-1.313-3.195-3.213-3.195c-1.918,0-3.23,1.347-3.23,3.195c0,1.813,1.312,3.16,3.195,3.16
		C124.785,366.556,126.098,365.209,126.098,363.396z"/>
	<path fill="#FFFFFF" d="M128.667,359.284h2.954v3.058h0.034c0.691-1.71,2.159-3.282,4.302-3.282c1.744,0,2.78,0.968,2.78,2.885
		v3.714c0,0.622,0.346,0.812,0.881,0.812c0.208,0,0.519-0.052,0.691-0.104l0.276,1.054c-0.415,0.121-0.829,0.189-1.227,0.189
		c-1.175,0-1.883-0.553-1.883-1.71v-3.766c0-1.226-0.449-1.934-1.71-1.934c-1.676,0-3.179,1.692-3.817,3.852
		c-0.259,0.863-0.328,1.71-0.328,2.66v0.812h-1.278v-7.134h-1.676V359.284z"/>
	<path fill="#FFFFFF" d="M141.756,363.517c0-2.574,1.813-4.457,4.75-4.457c1.9,0,3.438,0.829,3.438,2.401
		c0,1.503-1.296,2.487-4.388,2.487c-0.829,0-1.692-0.035-2.418-0.139c0.069,1.745,1.364,2.746,3.368,2.746
		c1.209,0,2.021-0.275,2.781-0.604l0.397,1.02c-0.847,0.397-1.935,0.726-3.282,0.726C143.38,367.696,141.756,365.9,141.756,363.517z
		 M145.504,362.843c2.35,0,3.092-0.604,3.092-1.417c0-0.829-0.863-1.226-2.09-1.226c-1.796,0-3.074,0.949-3.316,2.486
		C143.881,362.791,144.71,362.843,145.504,362.843z"/>
	<path fill="#FFFFFF" d="M155.139,359.284l2.954,6.408h0.052l2.694-6.408h0.95l2.781,6.408h0.052l2.85-6.408h1.416l-3.852,8.291
		h-0.933l-2.781-6.356h-0.034l-2.694,6.356h-0.934l-3.938-8.291H155.139z"/>
	<path fill="#FFFFFF" d="M169.625,364.052c0-1.797,0.795-3.265,2.229-4.129c0.898-0.535,2.038-0.863,3.609-0.863
		c0.812,0,1.658,0.069,2.384,0.139v6.408c0,0.656,0.363,0.863,0.847,0.863c0.242,0,0.553-0.069,0.726-0.121l0.259,1.054
		c-0.38,0.139-0.829,0.207-1.261,0.207c-0.984,0-1.71-0.483-1.779-1.623c0-0.276-0.017-0.588,0-1.02h-0.034
		c-0.622,1.537-1.935,2.729-3.748,2.729C171.111,367.696,169.625,366.504,169.625,364.052z M176.569,360.735v-0.483
		c-0.328-0.035-0.725-0.052-1.295-0.052c-1.105,0-2.038,0.259-2.729,0.708c-1.002,0.639-1.589,1.71-1.589,3.092
		c0,1.555,0.743,2.556,2.073,2.556C174.739,366.556,176.569,364.708,176.569,360.735z"/>
	<path fill="#FFFFFF" d="M184.237,366.78l-4.267-7.496h1.45l3.507,6.114h0.034l3.145-6.114h1.382l-6.409,12.333h-1.364
		L184.237,366.78z"/>
	<path fill="#FFFFFF" d="M193.232,359.768l-1.986,1.227l-0.587-0.967l2.107-1.21l-2.107-1.209l0.587-0.967l1.986,1.227l-0.034-2.177
		h1.175l-0.035,2.177l2.004-1.244l0.588,0.968l-2.125,1.226l2.125,1.227l-0.588,0.968l-2.004-1.244l0.035,2.107h-1.175
		L193.232,359.768z"/>
</g>
</svg>
