<?xml version="1.0" encoding="utf-8"?>
<!-- Generator: Adobe Illustrator 17.0.0, SVG Export Plug-In . SVG Version: 6.00 Build 0)  -->
<!DOCTYPE svg PUBLIC "-//W3C//DTD SVG 1.1//EN" "http://www.w3.org/Graphics/SVG/1.1/DTD/svg11.dtd">
<svg version="1.1" id="Layer_1" xmlns="http://www.w3.org/2000/svg" xmlns:xlink="http://www.w3.org/1999/xlink" x="0px" y="0px"
	 width="300px" height="600px" viewBox="0 0 300 600" enable-background="new 0 0 300 600" xml:space="preserve">
<g>
	<path fill="#FFFFFF" d="M55.708,207.332c1.247,0.94,2.988,1.506,5.106,1.506c2.635,0,4.823-0.965,4.823-3.106
		c0-3.317-6.329-1.858-9.012-4.07c-0.753-0.611-1.224-1.459-1.224-2.776c0-2.8,2.424-4.353,5.953-4.353
		c2.353,0,4.518,0.706,5.67,1.482l-0.729,1.341c-1.012-0.611-2.823-1.271-4.823-1.271c-3.035,0-4.235,1.294-4.235,2.706
		c0,4.541,10.235,0.823,10.235,6.917c0,3.177-3.105,4.683-6.658,4.683c-2.636,0-4.706-0.729-5.977-1.718L55.708,207.332z"/>
	<path fill="#FFFFFF" d="M77.14,194.579h1.247l7.93,15.576h-1.953l-2.471-4.941h-8.117l-2.4,4.941h-1.929L77.14,194.579z
		 M81.117,203.685l-3.341-6.635h-0.048l-3.223,6.635H81.117z"/>
	<path fill="#FFFFFF" d="M87.019,194.65l6.636,13.105h0.047l6.306-13.105h1.93l-7.694,15.576h-1.177L85.09,194.65H87.019z"/>
	<path fill="#FFFFFF" d="M104.5,194.65h10.682v1.553h-8.941v5.271h8.071v1.53h-8.071v5.6h9.083v1.553H104.5V194.65z"/>
	<path fill="#FFFFFF" d="M125.477,206.015c0.602-11.067,13.024-8.433,16.901-11.293c0.715-0.527,1.129-1.28,1.129-2.297
		c0-2.296-2.446-3.613-6.587-3.613c-4.179,0-7.566,1.204-10.201,2.598l-1.732-3.2c2.975-1.693,6.927-3.049,11.896-3.049
		c5.534,0,10.804,2.032,10.804,7.265c0,10.767-17.654,4.179-18.106,13.515l-0.037,0.79h18.521v3.426H125.25L125.477,206.015z"/>
	<path fill="#FFFFFF" d="M151.599,197.884c0-7.566,6.174-12.724,13.251-12.724c7.076,0,13.25,5.157,13.25,12.724
		c0,7.792-6.286,12.647-13.25,12.647C157.885,210.531,151.599,205.676,151.599,197.884z M173.921,197.884
		c0-5.271-3.99-9.072-9.071-9.072c-5.082,0-9.072,3.802-9.072,9.072c0,5.232,3.99,8.996,9.072,8.996
		C169.969,206.88,173.921,203.116,173.921,197.884z"/>
	<path fill="#FFFFFF" d="M180.476,194.993c0-2.614,2.044-4.374,4.502-4.374c2.484,0,4.504,1.786,4.504,4.374
		c0,2.562-2.02,4.348-4.504,4.348C182.52,199.341,180.476,197.581,180.476,194.993z M196.261,190.749h2.355l-14.13,17.054h-2.354
		L196.261,190.749z M187.359,194.993c0-1.527-1.009-2.562-2.381-2.562c-1.371,0-2.381,1.035-2.381,2.562
		c0,1.5,1.01,2.535,2.381,2.535C186.35,197.528,187.359,196.493,187.359,194.993z M191.085,203.714c0-2.613,2.045-4.373,4.504-4.373
		c2.484,0,4.502,1.785,4.502,4.373c0,2.562-2.018,4.348-4.502,4.348C193.13,208.062,191.085,206.302,191.085,203.714z
		 M197.97,203.714c0-1.527-1.01-2.562-2.381-2.562c-1.372,0-2.381,1.035-2.381,2.562c0,1.501,1.009,2.536,2.381,2.536
		C196.96,206.25,197.97,205.215,197.97,203.714z"/>
	<path fill="#FFFFFF" d="M208.682,202.484c0-4.705,3.459-7.952,8.588-7.952c5.13,0,8.588,3.247,8.588,7.952
		c0,4.848-3.529,7.906-8.588,7.906C212.188,210.391,208.682,207.332,208.682,202.484z M224.023,202.484
		c0-3.693-2.541-6.399-6.753-6.399c-4.235,0-6.753,2.706-6.753,6.399c0,3.694,2.518,6.354,6.753,6.354
		C221.482,208.838,224.023,206.179,224.023,202.484z"/>
	<path fill="#FFFFFF" d="M229.761,194.65h1.388l12.282,12.471h0.047V194.65h1.741v15.506h-1.2l-12.47-12.658h-0.048v12.658h-1.74
		V194.65z"/>
	<path fill="#FFFFFF" d="M30.19,236.738c1.247,0.94,2.988,1.506,5.106,1.506c2.635,0,4.823-0.965,4.823-3.106
		c0-3.317-6.329-1.858-9.012-4.07c-0.753-0.611-1.224-1.459-1.224-2.776c0-2.8,2.424-4.353,5.953-4.353
		c2.353,0,4.518,0.706,5.67,1.482l-0.729,1.341c-1.012-0.611-2.823-1.271-4.823-1.271c-3.035,0-4.235,1.294-4.235,2.706
		c0,4.541,10.235,0.823,10.235,6.917c0,3.177-3.105,4.683-6.658,4.683c-2.636,0-4.706-0.729-5.977-1.718L30.19,236.738z"/>
	<path fill="#FFFFFF" d="M48.847,225.609H42.8v-1.553h13.858v1.553h-6.07v13.953h-1.741V225.609z"/>
	<path fill="#FFFFFF" d="M63.033,223.985h1.247l7.93,15.576h-1.953l-2.471-4.941h-8.117l-2.4,4.941h-1.929L63.033,223.985z
		 M67.009,233.091l-3.341-6.635h-0.048l-3.223,6.635H67.009z"/>
	<path fill="#FFFFFF" d="M74.983,224.056h1.388l12.282,12.471H88.7v-12.471h1.741v15.506h-1.2l-12.47-12.658h-0.047v12.658h-1.741
		V224.056z"/>
	<path fill="#FFFFFF" d="M95.238,224.056h5.553c1.929,0,3.458,0.212,4.729,0.659c3.082,1.035,4.94,3.341,4.94,6.847
		c0,3.93-2.235,6.471-6,7.482c-1.271,0.353-2.682,0.518-4.494,0.518h-4.729V224.056z M99.896,238.009
		c1.671,0,2.988-0.142,4.094-0.447c3.177-0.895,4.636-3.035,4.636-6.023c0-2.776-1.412-4.494-3.694-5.317
		c-1.152-0.447-2.588-0.612-4.376-0.612h-3.577v12.4H99.896z"/>
	<path fill="#FFFFFF" d="M120.034,223.985h1.247l7.93,15.576h-1.953l-2.471-4.941h-8.117l-2.4,4.941h-1.93L120.034,223.985z
		 M124.01,233.091l-3.341-6.635h-0.047l-3.224,6.635H124.01z"/>
	<path fill="#FFFFFF" d="M131.984,224.056h4.658c1.389,0,2.4,0.118,3.247,0.377c1.953,0.635,3.177,1.953,3.177,4
		c0,2.353-1.718,3.929-4.753,4.329v0.047c1.129,0.541,2.047,3.576,3.718,4.776c0.446,0.329,0.964,0.518,1.506,0.518
		c0.282,0,0.635-0.047,0.894-0.117l0.354,1.482c-0.377,0.141-0.895,0.211-1.412,0.211c-0.941,0-1.671-0.282-2.353-0.776
		c-2.447-1.693-3.365-5.835-5.177-5.835h-2.118v6.494h-1.74V224.056z M136.195,231.515c1.153,0,2-0.07,2.659-0.259
		c1.576-0.471,2.376-1.459,2.376-2.847c0-1.247-0.8-2.095-1.812-2.447c-0.8-0.306-1.646-0.354-2.776-0.354h-2.918v5.906H136.195z"/>
	<path fill="#FFFFFF" d="M147.346,224.056h5.553c1.929,0,3.458,0.212,4.729,0.659c3.082,1.035,4.94,3.341,4.94,6.847
		c0,3.93-2.235,6.471-6,7.482c-1.271,0.353-2.682,0.518-4.494,0.518h-4.729V224.056z M152.004,238.009
		c1.671,0,2.988-0.142,4.094-0.447c3.177-0.895,4.636-3.035,4.636-6.023c0-2.776-1.412-4.494-3.694-5.317
		c-1.152-0.447-2.588-0.612-4.376-0.612h-3.576v12.4H152.004z"/>
	<path fill="#FFFFFF" d="M172.071,224.056h4.423c1.482,0,2.636,0.142,3.601,0.518c1.812,0.636,3.105,1.977,3.105,4.282
		c0,2.565-1.6,4.071-3.812,4.659c-0.895,0.235-1.906,0.353-3.459,0.353h-2.117v5.694h-1.741V224.056z M175.953,232.338
		c1.294,0,2.235-0.07,2.965-0.282c1.553-0.471,2.447-1.482,2.447-3.129c0-1.529-0.729-2.424-1.906-2.895
		c-0.823-0.329-1.812-0.424-3.224-0.424h-2.423v6.729H175.953z"/>
	<path fill="#FFFFFF" d="M186.797,224.056h4.658c1.389,0,2.4,0.118,3.247,0.377c1.953,0.635,3.177,1.953,3.177,4
		c0,2.353-1.718,3.929-4.753,4.329v0.047c1.129,0.541,2.047,3.576,3.718,4.776c0.446,0.329,0.964,0.518,1.506,0.518
		c0.282,0,0.635-0.047,0.894-0.117l0.354,1.482c-0.377,0.141-0.895,0.211-1.412,0.211c-0.941,0-1.671-0.282-2.353-0.776
		c-2.447-1.693-3.365-5.835-5.177-5.835h-2.117v6.494h-1.741V224.056z M191.008,231.515c1.153,0,2-0.07,2.659-0.259
		c1.576-0.471,2.376-1.459,2.376-2.847c0-1.247-0.8-2.095-1.812-2.447c-0.8-0.306-1.646-0.354-2.776-0.354h-2.917v5.906H191.008z"/>
	<path fill="#FFFFFF" d="M202.16,224.056h10.682v1.553H203.9v5.271h8.071v1.53H203.9v5.6h9.083v1.553H202.16V224.056z"/>
	<path fill="#FFFFFF" d="M216.651,224.056h1.435l7.412,9.105h0.047l7.412-9.105h1.388v15.506h-1.741v-12.424h-0.047l-6.895,8.447
		h-0.306l-6.917-8.447h-0.047v12.424h-1.741V224.056z"/>
	<path fill="#FFFFFF" d="M239.141,224.056h1.741v15.506h-1.741V224.056z"/>
	<path fill="#FFFFFF" d="M245.681,224.056h10.682v1.553h-8.941v5.271h8.071v1.53h-8.071v5.6h9.083v1.553h-10.823V224.056z"/>
	<path fill="#FFFFFF" d="M260.172,224.056h4.658c1.389,0,2.4,0.118,3.247,0.377c1.953,0.635,3.177,1.953,3.177,4
		c0,2.353-1.718,3.929-4.753,4.329v0.047c1.129,0.541,2.047,3.576,3.718,4.776c0.446,0.329,0.964,0.518,1.506,0.518
		c0.282,0,0.635-0.047,0.894-0.117l0.354,1.482c-0.377,0.141-0.895,0.211-1.412,0.211c-0.941,0-1.671-0.282-2.353-0.776
		c-2.447-1.693-3.365-5.835-5.177-5.835h-2.117v6.494h-1.741V224.056z M264.383,231.515c1.153,0,2-0.07,2.659-0.259
		c1.576-0.471,2.376-1.459,2.376-2.847c0-1.247-0.8-2.095-1.812-2.447c-0.8-0.306-1.646-0.354-2.776-0.354h-2.917v5.906H264.383z"/>
	<path fill="#444662" d="M34.107,269.274c1.459,0.895,3.553,1.342,5.317,1.342c2.235,0,3.389-0.541,3.389-1.553
		c0-2.307-9.671-0.023-9.671-6.023c0-3.294,2.895-4.988,6.564-4.988c2.354,0,5.153,0.588,6.871,1.6l-1.317,2.895
		c-1.412-0.729-3.718-1.2-5.412-1.2c-1.93,0-2.683,0.541-2.683,1.364c0,2.776,9.671,0.142,9.671,6.235
		c0,3.2-3.059,4.965-7.389,4.965c-2.494,0-5.082-0.564-6.87-1.741L34.107,269.274z"/>
	<path fill="#444662" d="M48.221,273.674l7.06-15.576h3.505l7.647,15.576h-4.4l-1.506-3.271h-6.705l-1.342,3.271H48.221z
		 M57.021,262.78h-0.047l-1.788,4.329h3.812L57.021,262.78z"/>
	<path fill="#444662" d="M68.594,258.168h3.93v12.165h7.741v3.341H68.594V258.168z"/>
	<path fill="#444662" d="M82.38,258.168h12.047v3.342H86.31v2.682h7.388v3.342H86.31v2.8h8.259v3.341H82.38V258.168z"/>
	<path fill="#444662" d="M103.599,258.168h12.047v3.342h-8.117v2.682h7.388v3.342h-7.388v2.8h8.259v3.341h-12.188V258.168z"/>
	<path fill="#444662" d="M119.219,258.168h3.412l9.082,9.436h0.047v-9.436h3.93v15.506h-3.247l-9.247-9.671h-0.047v9.671h-3.93
		V258.168z"/>
	<path fill="#444662" d="M139.828,258.168h6.518c1.601,0,2.706,0.118,3.718,0.354c3.364,0.8,6.047,3.059,6.047,7.152
		c0,4.188-2.823,6.353-5.436,7.271c-1.812,0.636-3.858,0.729-5.67,0.729h-5.177V258.168z M145.24,270.333
		c1.411,0,2.518-0.095,3.436-0.354c1.905-0.541,3.411-2,3.411-4.306c0-2.282-1.436-3.459-3.035-3.905
		c-0.895-0.259-1.812-0.259-3.317-0.259h-1.977v8.823H145.24z"/>
	<path fill="#444662" d="M159.895,269.274c1.459,0.895,3.553,1.342,5.317,1.342c2.235,0,3.389-0.541,3.389-1.553
		c0-2.307-9.671-0.023-9.671-6.023c0-3.294,2.895-4.988,6.564-4.988c2.354,0,5.153,0.588,6.871,1.6l-1.317,2.895
		c-1.412-0.729-3.718-1.2-5.412-1.2c-1.93,0-2.683,0.541-2.683,1.364c0,2.776,9.671,0.142,9.671,6.235
		c0,3.2-3.059,4.965-7.389,4.965c-2.494,0-5.082-0.564-6.87-1.741L159.895,269.274z"/>
	<path fill="#444662" d="M178.902,273.674l7.059-15.576h3.506l7.647,15.576h-4.4l-1.506-3.271h-6.705l-1.342,3.271H178.902z
		 M187.702,262.78h-0.047l-1.788,4.329h3.812L187.702,262.78z"/>
	<path fill="#444662" d="M199.275,258.168h6.07c1.318,0,2.235,0.118,3.06,0.354c2.423,0.682,3.952,2.306,3.952,4.87
		c0,2.611-1.576,4.447-4.446,5.129c-0.776,0.188-1.671,0.26-2.895,0.26h-1.812v4.894h-3.93V258.168z M204.875,265.533
		c0.987,0,1.506-0.095,1.905-0.212c1.106-0.33,1.553-1.012,1.553-1.883c0-0.87-0.446-1.482-1.482-1.788
		c-0.399-0.117-0.823-0.141-1.6-0.141h-2.047v4.023H204.875z"/>
	<path fill="#444662" d="M224.402,267.462c1.294,0.729,1.741,3.317,3.646,3.317c0.424,0,0.824-0.094,1.2-0.234l0.706,2.964
		c-0.8,0.307-1.765,0.4-2.494,0.4c-5.012,0-5.506-5.741-7.177-5.741h-0.847v5.506h-3.93v-15.506h6.4
		c4.235,0,6.564,1.624,6.564,4.895c0,2.306-1.459,3.882-4.07,4.353V267.462z M221.507,265.015c2.094,0,2.941-0.658,2.941-1.812
		c0-1.247-0.848-1.693-2.659-1.693h-2.353v3.505H221.507z"/>
	<path fill="#444662" d="M232.304,258.168h3.93v15.506h-3.93V258.168z"/>
	<path fill="#444662" d="M240.374,258.168h3.93v12.165h7.741v3.341h-11.671V258.168z"/>
	<path fill="#444662" d="M264.7,258.168h3.882l-5.576,8.636h4.047v-3.953h3.553v3.953h4.048v3.035h-4.048v4.07h-3.553v-4.07h-7.105
		l-1.459-2.047L264.7,258.168z"/>
</g>
</svg>
