<?xml version="1.0" encoding="utf-8"?>
<!-- Generator: Adobe Illustrator 17.0.0, SVG Export Plug-In . SVG Version: 6.00 Build 0)  -->
<!DOCTYPE svg PUBLIC "-//W3C//DTD SVG 1.1//EN" "http://www.w3.org/Graphics/SVG/1.1/DTD/svg11.dtd">
<svg version="1.1" id="Layer_1" xmlns="http://www.w3.org/2000/svg" xmlns:xlink="http://www.w3.org/1999/xlink" x="0px" y="0px"
	 width="300px" height="600px" viewBox="0 0 300 600" enable-background="new 0 0 300 600" xml:space="preserve">
<g>
	<g>
		<rect x="53.762" y="149.32" fill="#444662" width="194.997" height="3.64"/>
		<rect x="53.76" y="225.022" fill="#444662" width="195" height="3.641"/>
	</g>
	<g>
		<g>
			<path fill="#FFFFFF" d="M71.548,162.78h5.678v17.576h11.186v4.827H71.548V162.78z"/>
			<path fill="#FFFFFF" d="M102.316,185.524c-7.411,0-12.715-4.352-12.715-11.457s5.304-11.457,12.715-11.457
				s12.715,4.352,12.715,11.457S109.727,185.524,102.316,185.524z M102.316,180.628c4.623,0,6.901-2.754,6.901-6.562
				s-2.278-6.561-6.901-6.561c-4.624,0-6.901,2.753-6.901,6.561S97.692,180.628,102.316,180.628z"/>
			<path fill="#FFFFFF" d="M119.824,162.78h4.929l13.123,13.632h0.068V162.78h5.677v22.403h-4.691l-13.36-13.973H125.5v13.973
				h-5.677V162.78z"/>
			<path fill="#FFFFFF" d="M149.603,162.78h9.418c2.312,0,3.909,0.17,5.371,0.51c4.861,1.155,8.737,4.419,8.737,10.335
				c0,6.051-4.08,9.179-7.854,10.505c-2.618,0.918-5.575,1.054-8.193,1.054h-7.479V162.78z M157.422,180.357
				c2.04,0,3.638-0.137,4.964-0.511c2.754-0.781,4.93-2.89,4.93-6.221c0-3.298-2.074-4.998-4.386-5.644
				c-1.292-0.374-2.618-0.374-4.794-0.374h-2.855v12.749H157.422z"/>
			<path fill="#FFFFFF" d="M189.447,185.524c-7.411,0-12.715-4.352-12.715-11.457s5.304-11.457,12.715-11.457
				s12.715,4.352,12.715,11.457S196.858,185.524,189.447,185.524z M189.447,180.628c4.623,0,6.901-2.754,6.901-6.562
				s-2.278-6.561-6.901-6.561c-4.624,0-6.901,2.753-6.901,6.561S184.823,180.628,189.447,180.628z"/>
			<path fill="#FFFFFF" d="M206.955,162.78h4.929l13.123,13.632h0.068V162.78h5.677v22.403h-4.691l-13.36-13.973h-0.068v13.973
				h-5.677V162.78z"/>
			<path fill="#FFFFFF" d="M82.198,202.365h18.541v4.901H82.198V202.365z"/>
			<path fill="#FFFFFF" d="M111.707,193.614h8.771c1.904,0,3.229,0.17,4.42,0.51c3.501,0.985,5.711,3.331,5.711,7.037
				c0,3.773-2.277,6.425-6.425,7.411c-1.122,0.272-2.414,0.374-4.182,0.374h-2.618v7.071h-5.678V193.614z M119.798,204.255
				c1.428,0,2.176-0.136,2.754-0.306c1.598-0.477,2.243-1.462,2.243-2.72c0-1.259-0.646-2.143-2.142-2.584
				c-0.578-0.17-1.189-0.204-2.312-0.204h-2.958v5.813H119.798z"/>
			<path fill="#FFFFFF" d="M132.308,216.018l10.199-22.506h5.065l11.049,22.506h-6.357l-2.176-4.726H140.4l-1.938,4.726H132.308z
				 M145.023,200.277h-0.068l-2.583,6.255h5.507L145.023,200.277z"/>
			<path fill="#FFFFFF" d="M174.6,207.043c1.869,1.054,2.516,4.793,5.27,4.793c0.611,0,1.189-0.136,1.733-0.34l1.02,4.283
				c-1.155,0.442-2.55,0.578-3.604,0.578c-7.241,0-7.955-8.295-10.369-8.295h-1.224v7.955h-5.677v-22.403h9.246
				c6.12,0,9.485,2.346,9.485,7.071c0,3.331-2.107,5.609-5.881,6.289V207.043z M170.418,203.507c3.025,0,4.249-0.952,4.249-2.618
				c0-1.802-1.224-2.447-3.842-2.447h-3.399v5.065H170.418z"/>
			<path fill="#FFFFFF" d="M186.021,193.614h5.678v22.403h-5.678V193.614z"/>
			<path fill="#FFFFFF" d="M198.362,209.66c2.107,1.292,5.133,1.938,7.683,1.938c3.23,0,4.896-0.781,4.896-2.243
				c0-3.332-13.973-0.034-13.973-8.703c0-4.76,4.182-7.208,9.485-7.208c3.399,0,7.445,0.851,9.927,2.312l-1.903,4.182
				c-2.04-1.055-5.371-1.734-7.819-1.734c-2.788,0-3.876,0.782-3.876,1.972c0,4.012,13.973,0.204,13.973,9.01
				c0,4.623-4.419,7.173-10.675,7.173c-3.604,0-7.343-0.815-9.927-2.516L198.362,209.66z"/>
		</g>
	</g>
</g>
</svg>
