<?xml version="1.0" encoding="utf-8"?>
<!-- Generator: Adobe Illustrator 17.0.0, SVG Export Plug-In . SVG Version: 6.00 Build 0)  -->
<!DOCTYPE svg PUBLIC "-//W3C//DTD SVG 1.1//EN" "http://www.w3.org/Graphics/SVG/1.1/DTD/svg11.dtd">
<svg version="1.1" id="Layer_1" xmlns="http://www.w3.org/2000/svg" xmlns:xlink="http://www.w3.org/1999/xlink" x="0px" y="0px"
	 width="300px" height="600px" viewBox="0 0 300 600" enable-background="new 0 0 300 600" xml:space="preserve">
<g>
	<g>
		<path fill="#FFFFFF" d="M50.591,184.178h7.279v22.534h14.339v6.19H50.591V184.178z"/>
		<path fill="#FFFFFF" d="M90.035,213.338c-9.5,0-16.3-5.579-16.3-14.689s6.8-14.688,16.3-14.688
			c9.503,0,16.302,5.579,16.302,14.688C106.338,207.758,99.539,213.338,90.035,213.338z M90.035,207.061
			c5.927,0,8.848-3.531,8.848-8.412s-2.921-8.411-8.848-8.411s-8.847,3.53-8.847,8.411S84.108,207.061,90.035,207.061z"/>
		<path fill="#FFFFFF" d="M112.482,184.178h6.321l16.823,17.479h0.088v-17.479h7.278v28.723h-6.015l-17.128-17.914h-0.088v17.914
			h-7.278v-28.723H112.482z"/>
		<path fill="#FFFFFF" d="M150.662,184.178h12.073c2.964,0,5.013,0.218,6.888,0.654c6.233,1.482,11.201,5.666,11.201,13.25
			c0,7.758-5.23,11.768-10.069,13.467c-3.356,1.177-7.148,1.351-10.504,1.351h-9.588v-28.723H150.662z M160.686,206.712
			c2.615,0,4.663-0.174,6.364-0.653c3.53-1.003,6.32-3.705,6.32-7.977c0-4.227-2.659-6.408-5.622-7.235
			c-1.656-0.479-3.356-0.479-6.144-0.479h-3.661v16.344H160.686z"/>
		<path fill="#FFFFFF" d="M201.743,213.338c-9.5,0-16.3-5.579-16.3-14.689s6.8-14.688,16.3-14.688
			c9.503,0,16.302,5.579,16.302,14.688C218.045,207.758,211.245,213.338,201.743,213.338z M201.743,207.061
			c5.928,0,8.848-3.531,8.848-8.412s-2.921-8.411-8.848-8.411c-5.927,0-8.847,3.53-8.847,8.411S195.815,207.061,201.743,207.061z"/>
		<path fill="#FFFFFF" d="M224.188,184.178h6.321l16.823,17.479h0.088v-17.479h7.278v28.723h-6.014l-17.128-17.914h-0.088v17.914
			h-7.278v-28.723H224.188z"/>
		<path fill="#FFFFFF" d="M64.245,234.925h23.777v6.285H64.245V234.925z"/>
		<path fill="#FFFFFF" d="M102.078,223.709h11.245c2.441,0,4.14,0.217,5.666,0.653c4.49,1.264,7.322,4.271,7.322,9.021
			c0,4.838-2.921,8.238-8.237,9.503c-1.438,0.349-3.095,0.479-5.361,0.479h-3.356v9.065h-7.279
			C102.078,252.43,102.078,223.709,102.078,223.709z M112.45,237.352c1.83,0,2.79-0.174,3.531-0.392
			c2.047-0.611,2.876-1.875,2.876-3.487c0-1.613-0.827-2.747-2.746-3.313c-0.741-0.218-1.525-0.262-2.964-0.262h-3.791v7.454H112.45
			z"/>
		<path fill="#FFFFFF" d="M128.49,252.432l13.075-28.853h6.494l14.166,28.853h-8.15l-2.79-6.057h-12.422l-2.485,6.057H128.49z
			 M144.79,232.253h-0.087l-3.313,8.02h7.061L144.79,232.253z"/>
		<path fill="#FFFFFF" d="M182.708,240.926c2.397,1.35,3.225,6.146,6.756,6.146c0.785,0,1.527-0.174,2.224-0.437l1.307,5.492
			c-1.482,0.566-3.269,0.74-4.62,0.74c-9.283,0-10.199-10.635-13.293-10.635h-1.569v10.199h-7.279v-28.722h11.855
			c7.845,0,12.161,3.007,12.161,9.065c0,4.27-2.704,7.191-7.541,8.063V240.926z M177.348,236.393c3.879,0,5.447-1.22,5.447-3.357
			c0-2.31-1.569-3.138-4.924-3.138h-4.358v6.495L177.348,236.393L177.348,236.393z"/>
		<path fill="#FFFFFF" d="M197.352,223.709h7.279v28.722h-7.279V223.709z"/>
		<path fill="#FFFFFF" d="M213.173,244.282c2.703,1.655,6.582,2.484,9.851,2.484c4.14,0,6.277-1.003,6.277-2.877
			c0-4.271-17.914-0.044-17.914-11.158c0-6.102,5.36-9.24,12.16-9.24c4.358,0,9.544,1.09,12.727,2.964l-2.441,5.36
			c-2.615-1.35-6.887-2.223-10.025-2.223c-3.574,0-4.968,1.002-4.968,2.528c0,5.143,17.914,0.261,17.914,11.55
			c0,5.928-5.665,9.197-13.684,9.197c-4.621,0-9.414-1.046-12.727-3.225L213.173,244.282z"/>
	</g>
</g>
<rect x="28.507" y="264.666" fill="#444661" width="250" height="4.635"/>
<rect x="28.507" y="167.666" fill="#444661" width="250" height="4.635"/>
</svg>
