<?xml version="1.0" encoding="utf-8"?>
<!-- Generator: Adobe Illustrator 17.0.0, SVG Export Plug-In . SVG Version: 6.00 Build 0)  -->
<!DOCTYPE svg PUBLIC "-//W3C//DTD SVG 1.1//EN" "http://www.w3.org/Graphics/SVG/1.1/DTD/svg11.dtd">
<svg version="1.1" id="Layer_1" xmlns="http://www.w3.org/2000/svg" xmlns:xlink="http://www.w3.org/1999/xlink" x="0px" y="0px"
	 width="111.609px" height="25.951px" viewBox="0 0 111.609 25.951" enable-background="new 0 0 111.609 25.951"
	 xml:space="preserve">
<g>
	<path fill="#444662" d="M107.057,25.951H4.553C2.049,25.951,0,23.902,0,21.398V4.553C0,2.049,2.049,0,4.553,0h102.504
		c2.504,0,4.553,2.049,4.553,4.553v16.845C111.609,23.902,109.561,25.951,107.057,25.951z"/>
	<path opacity="0.3" fill="#FFFFFF" d="M109.019,1.077c0.677,0.972,1.077,2.149,1.077,3.416v13.938c0,3.304-2.703,6.006-6.006,6.006
		H4.493c-1.267,0-2.444-0.4-3.416-1.077c1.088,1.562,2.893,2.591,4.929,2.591h99.596c3.304,0,6.006-2.703,6.006-6.006V6.006
		C111.609,3.97,110.58,2.165,109.019,1.077z"/>
</g>
</svg>
