<?xml version="1.0" encoding="utf-8"?>
<!-- Generator: Adobe Illustrator 17.0.0, SVG Export Plug-In . SVG Version: 6.00 Build 0)  -->
<!DOCTYPE svg PUBLIC "-//W3C//DTD SVG 1.1//EN" "http://www.w3.org/Graphics/SVG/1.1/DTD/svg11.dtd">
<svg version="1.1" id="Layer_1" xmlns="http://www.w3.org/2000/svg" xmlns:xlink="http://www.w3.org/1999/xlink" x="0px" y="0px"
	 width="300px" height="600px" viewBox="0 0 300 600" enable-background="new 0 0 300 600" xml:space="preserve">
<g>
	<path fill="#444662" d="M108.155,532.165l-1.575,0.972l-0.464-0.765l1.671-0.961l-1.671-0.961l0.464-0.765l1.575,0.972
		l-0.027-1.726h0.93l-0.027,1.726l1.589-0.986l0.464,0.765l-1.683,0.972l1.683,0.972l-0.464,0.765l-1.589-0.986l0.027,1.673h-0.93
		L108.155,532.165z"/>
	<path fill="#444662" d="M115.62,530.196h-3.518v-0.906h8.062v0.906h-3.53v8.115h-1.014L115.62,530.196L115.62,530.196z"/>
	<path fill="#444662" d="M120.114,536.971c0.628,0.358,1.383,0.575,2.382,0.575c0.918,0,1.918-0.248,1.918-1.109
		c0-0.204-0.068-0.368-0.192-0.491c-0.657-0.685-3.053-0.248-3.9-1.368c-0.192-0.248-0.317-0.562-0.317-0.986
		c0-1.274,1.082-1.986,2.642-1.986c1.027,0,1.945,0.235,2.712,0.603l-0.356,0.796c-0.753-0.341-1.464-0.491-2.327-0.491
		c-0.945,0-1.615,0.327-1.615,1.01c0,0.207,0.068,0.385,0.178,0.522c0.616,0.74,2.916,0.315,3.833,1.248
		c0.247,0.245,0.409,0.572,0.409,1.067c0,1.561-1.505,2.094-2.957,2.094c-1.137,0-2.15-0.26-2.82-0.681L120.114,536.971z"/>
	<path fill="#444662" d="M127.182,535.834c0-1.382,0.984-2.094,2.135-2.421v-0.027c-0.918-0.385-1.493-0.933-1.493-1.906
		c0-1.341,1.164-2.257,3.452-2.257c2.108,0,3.573,0.836,3.573,2.315c0,1.106-0.81,1.902-2.628,2.133v0.031
		c0.93,0.368,1.93,0.916,2.9,1.832c0.329-0.438,0.604-0.957,0.836-1.558l0.902,0.327c-0.247,0.699-0.603,1.354-1.068,1.93
		c0.522,0.562,1,1.248,1.466,2.08h-1.178c-0.301-0.505-0.628-0.957-0.971-1.368c-1.027,0.916-2.423,1.505-4.244,1.505
		C128.579,538.449,127.182,537.435,127.182,535.834z M134.464,536.259c-1.272-1.274-2.681-1.877-3.888-2.315
		c-1.246,0.164-2.34,0.673-2.34,1.81c0,1.106,0.959,1.806,2.614,1.806C132.288,537.559,133.507,537.134,134.464,536.259z
		 M133.794,531.523c0-0.849-0.931-1.411-2.505-1.411c-1.589,0-2.409,0.548-2.409,1.385c0,0.902,0.89,1.231,2.039,1.628
		C133.096,532.917,133.794,532.386,133.794,531.523z"/>
	<path fill="#444662" d="M143.807,529.222c1.164,0,2.217,0.221,3.245,0.659l-0.315,0.859c-0.82-0.368-1.751-0.615-2.847-0.615
		c-2.587,0-4.202,1.561-4.202,3.712c0,2.284,1.464,3.708,4.188,3.708c1.039,0,2.013-0.248,2.861-0.589l0.342,0.863
		c-1.121,0.452-2.219,0.628-3.299,0.628c-3.354,0-5.162-1.818-5.162-4.53C138.619,531.208,140.645,529.222,143.807,529.222z"/>
	<path fill="#444662" d="M148.577,536.971c0.628,0.358,1.383,0.575,2.382,0.575c0.918,0,1.918-0.248,1.918-1.109
		c0-0.204-0.068-0.368-0.192-0.491c-0.657-0.685-3.053-0.248-3.9-1.368c-0.192-0.248-0.317-0.562-0.317-0.986
		c0-1.274,1.082-1.986,2.642-1.986c1.029,0,1.945,0.235,2.712,0.603l-0.356,0.796c-0.753-0.341-1.464-0.491-2.327-0.491
		c-0.945,0-1.615,0.327-1.615,1.01c0,0.207,0.068,0.385,0.178,0.522c0.616,0.74,2.916,0.315,3.833,1.248
		c0.247,0.245,0.409,0.572,0.409,1.067c0,1.561-1.505,2.094-2.957,2.094c-1.137,0-2.15-0.26-2.82-0.681L148.577,536.971z"/>
	<path fill="#444662" d="M158.507,535.559c0-1.421,0.63-2.585,1.765-3.27c0.712-0.425,1.615-0.685,2.863-0.685
		c0.642,0,1.315,0.056,1.888,0.11v5.08c0,0.519,0.288,0.685,0.673,0.685c0.19,0,0.438-0.056,0.574-0.098l0.205,0.836
		c-0.301,0.106-0.657,0.164-0.998,0.164c-0.781,0-1.356-0.385-1.411-1.288c0-0.221-0.014-0.464,0-0.81h-0.027
		c-0.493,1.221-1.534,2.164-2.971,2.164C159.685,538.449,158.507,537.505,158.507,535.559z M164.012,532.931v-0.382
		c-0.26-0.027-0.575-0.039-1.029-0.039c-0.877,0-1.615,0.204-2.162,0.558c-0.794,0.509-1.258,1.358-1.258,2.452
		c0,1.234,0.589,2.027,1.642,2.027C162.56,537.547,164.012,536.081,164.012,532.931z"/>
	<path fill="#444662" d="M168.371,532.66h-1.329v-0.877h2.34v0.983c0,0.221,0,0.548-0.014,0.877h0.029
		c0.423-1.067,1.423-2.039,2.875-2.039c1.478,0,2.573,1.027,2.573,2.835c0,2.176-1.546,4.01-4.162,4.01
		c-0.396,0-0.863-0.039-1.301-0.164v3.27h-1.012L168.371,532.66L168.371,532.66z M170.67,537.547c1.534,0,3.121-1.014,3.121-3.106
		c0-1.109-0.589-1.93-1.657-1.93c-1.315,0-2.751,1.394-2.751,4.571v0.26C169.807,537.492,170.287,537.547,170.67,537.547z"/>
	<path fill="#444662" d="M177.164,532.66h-1.329v-0.877h2.34v0.983c0,0.221,0,0.548-0.014,0.877h0.029
		c0.423-1.067,1.423-2.039,2.875-2.039c1.478,0,2.573,1.027,2.573,2.835c0,2.176-1.546,4.01-4.162,4.01
		c-0.396,0-0.863-0.039-1.301-0.164v3.27h-1.012L177.164,532.66L177.164,532.66z M179.462,537.547c1.534,0,3.121-1.014,3.121-3.106
		c0-1.109-0.589-1.93-1.657-1.93c-1.315,0-2.751,1.394-2.751,4.571v0.26C178.599,537.492,179.08,537.547,179.462,537.547z"/>
	<path fill="#444662" d="M184.518,528.621h2.34v8.213c0,0.495,0.274,0.646,0.683,0.646c0.178,0,0.425-0.043,0.562-0.084l0.205,0.836
		c-0.317,0.094-0.644,0.151-0.971,0.151c-0.931,0-1.493-0.438-1.493-1.358v-7.527h-1.327L184.518,528.621L184.518,528.621z"/>
	<path fill="#444662" d="M191.954,537.723l-3.381-5.939h1.151l2.779,4.845h0.027l2.491-4.845h1.096l-5.078,9.771h-1.082
		L191.954,537.723z"/>
</g>
</svg>
