<!-- Generator: Adobe Illustrator 19.0.1, SVG Export Plug-In  -->
<svg version="1.1"
	 xmlns="http://www.w3.org/2000/svg" xmlns:xlink="http://www.w3.org/1999/xlink" xmlns:a="http://ns.adobe.com/AdobeSVGViewerExtensions/3.0/"
	 x="0px" y="0px" width="98.3px" height="19px" viewBox="0 0 98.3 19" style="enable-background:new 0 0 98.3 19;"
	 xml:space="preserve">
<style type="text/css">
	.st0{fill:#FFFFFF;}
	.st1{fill:none;}
</style>
<defs>
</defs>
<g>
	<path class="st0" d="M5.5,14.8H4V2.4h6.5v1.3h-5v4.1h4.5v1.3H5.5V14.8z"/>
	<path class="st0" d="M11.7,3.1c0-0.3,0.1-0.5,0.3-0.7c0.2-0.2,0.4-0.3,0.7-0.3s0.5,0.1,0.7,0.3c0.2,0.2,0.3,0.4,0.3,0.7
		c0,0.3-0.1,0.5-0.3,0.7c-0.2,0.2-0.4,0.3-0.7,0.3S12.1,4,11.9,3.8C11.8,3.6,11.7,3.4,11.7,3.1z M13.4,14.8h-1.4V6.3h1.4V14.8z"/>
	<path class="st0" d="M22,14.8h-1.4V9c0-0.6-0.1-1-0.3-1.3c-0.2-0.3-0.6-0.5-1.2-0.5c-0.4,0-0.8,0.1-1.2,0.4
		c-0.4,0.2-0.7,0.5-0.9,0.8v6.3h-1.4V6.3h1.2l0.2,1.1c0.4-0.4,0.8-0.7,1.2-0.9c0.4-0.2,0.9-0.3,1.4-0.3c0.8,0,1.4,0.2,1.8,0.7
		C21.8,7.2,22,7.8,22,8.6V14.8z"/>
	<path class="st0" d="M30.5,14.8h-1.2L29.1,14c-0.2,0.2-0.5,0.4-0.9,0.6c-0.4,0.2-0.8,0.3-1.3,0.3c-0.6,0-1.1-0.1-1.5-0.3
		c-0.4-0.2-0.8-0.5-1-0.9c-0.3-0.4-0.5-0.9-0.6-1.4c-0.1-0.5-0.2-1.1-0.2-1.7c0-0.6,0.1-1.2,0.2-1.8s0.3-1,0.6-1.5
		c0.3-0.4,0.7-0.7,1.1-1c0.4-0.2,1-0.4,1.6-0.4c0.4,0,0.8,0.1,1.2,0.2c0.3,0.2,0.6,0.3,0.8,0.5V2.4h1.4V14.8z M29.1,7.9
		c-0.3-0.2-0.5-0.3-0.8-0.5c-0.3-0.1-0.6-0.2-1-0.2c-0.5,0-0.8,0.1-1.1,0.3c-0.3,0.2-0.5,0.4-0.7,0.7c-0.2,0.3-0.3,0.6-0.4,1
		c-0.1,0.4-0.1,0.8-0.1,1.3c0,0.4,0,0.8,0.1,1.2c0.1,0.4,0.2,0.7,0.4,1c0.2,0.3,0.4,0.5,0.7,0.7c0.3,0.2,0.6,0.3,1.1,0.3
		c0.6,0,1.2-0.2,1.8-0.7V7.9z"/>
	<path class="st0" d="M42.7,10.5c0,0.6-0.1,1.2-0.2,1.7c-0.1,0.5-0.4,1-0.7,1.4c-0.3,0.4-0.7,0.7-1.1,1c-0.5,0.2-1,0.4-1.7,0.4
		c-0.6,0-1.2-0.1-1.7-0.4c-0.5-0.2-0.8-0.6-1.1-1c-0.3-0.4-0.5-0.9-0.7-1.4c-0.1-0.5-0.2-1.1-0.2-1.7c0-0.6,0.1-1.1,0.2-1.7
		c0.1-0.5,0.4-1,0.6-1.4c0.3-0.4,0.7-0.7,1.1-1c0.5-0.2,1-0.4,1.7-0.4c0.7,0,1.2,0.1,1.7,0.4c0.5,0.2,0.8,0.6,1.1,1
		c0.3,0.4,0.5,0.9,0.6,1.4C42.6,9.4,42.7,9.9,42.7,10.5z M41.2,10.5c0-0.4,0-0.8-0.1-1.2c-0.1-0.4-0.2-0.7-0.3-1
		c-0.2-0.3-0.4-0.5-0.7-0.7c-0.3-0.2-0.7-0.3-1.1-0.3c-0.5,0-0.8,0.1-1.1,0.3c-0.3,0.2-0.5,0.4-0.7,0.7c-0.2,0.3-0.3,0.6-0.3,1
		c-0.1,0.4-0.1,0.8-0.1,1.2c0,0.4,0,0.8,0.1,1.2c0.1,0.4,0.2,0.7,0.3,1c0.2,0.3,0.4,0.6,0.7,0.7c0.3,0.2,0.7,0.3,1.1,0.3
		c0.5,0,0.8-0.1,1.1-0.3c0.3-0.2,0.5-0.4,0.7-0.7c0.2-0.3,0.3-0.7,0.3-1C41.2,11.3,41.2,10.9,41.2,10.5z"/>
	<path class="st0" d="M44.2,6.3h1.4V12c0,0.5,0.1,1,0.3,1.3c0.2,0.3,0.6,0.5,1.2,0.5c0.4,0,0.8-0.1,1.2-0.4c0.4-0.2,0.7-0.5,0.9-0.8
		V6.3h1.4v8.5h-1.2l-0.2-1.1c-0.1,0.1-0.3,0.3-0.5,0.4c-0.2,0.1-0.4,0.3-0.6,0.4c-0.2,0.1-0.4,0.2-0.7,0.3C47.3,14.9,47,15,46.7,15
		c-0.8,0-1.4-0.2-1.8-0.7c-0.4-0.4-0.7-1.1-0.7-1.9V6.3z"/>
	<path class="st0" d="M54.8,6.3h2.2v1.2h-2.2v5c0,0.4,0.1,0.8,0.3,1c0.2,0.2,0.5,0.3,0.9,0.3c0.3,0,0.5,0,0.7-0.1
		c0.2,0,0.4-0.1,0.6-0.2v1.2c-0.2,0.1-0.5,0.2-0.8,0.2C56.3,15,56,15,55.8,15c-0.8,0-1.4-0.2-1.8-0.5c-0.4-0.4-0.6-0.9-0.6-1.7V7.5
		h-1.6V6.3h1.6V4h1.4V6.3z"/>
	<path class="st0" d="M68,14.8h-1.4V9c0-0.5-0.1-1-0.3-1.3c-0.2-0.3-0.5-0.5-1-0.5c-0.4,0-0.7,0.1-1,0.4c-0.3,0.2-0.7,0.5-0.9,0.8
		v6.3h-1.4V6.3H63l0.2,1.1c0.3-0.3,0.7-0.6,1.1-0.9c0.4-0.3,0.8-0.4,1.4-0.4c1,0,1.7,0.4,2.1,1.3c0.4-0.4,0.8-0.7,1.2-0.9
		c0.4-0.2,0.9-0.4,1.4-0.4c0.8,0,1.4,0.2,1.8,0.7c0.4,0.5,0.6,1.1,0.6,1.8v6.2h-1.4V9c0-0.3,0-0.5-0.1-0.7c0-0.2-0.1-0.4-0.2-0.6
		c-0.1-0.2-0.2-0.3-0.4-0.4c-0.2-0.1-0.4-0.1-0.6-0.1c-0.3,0-0.7,0.1-1,0.3c-0.4,0.2-0.7,0.4-1,0.7c0,0.1,0,0.2,0,0.3
		c0,0.1,0,0.2,0,0.3V14.8z"/>
	<path class="st0" d="M81.6,10.5c0,0.6-0.1,1.2-0.2,1.7c-0.1,0.5-0.4,1-0.7,1.4c-0.3,0.4-0.7,0.7-1.1,1c-0.5,0.2-1,0.4-1.7,0.4
		c-0.6,0-1.2-0.1-1.7-0.4s-0.8-0.6-1.1-1c-0.3-0.4-0.5-0.9-0.7-1.4c-0.1-0.5-0.2-1.1-0.2-1.7c0-0.6,0.1-1.1,0.2-1.7
		c0.1-0.5,0.4-1,0.6-1.4c0.3-0.4,0.7-0.7,1.1-1c0.5-0.2,1-0.4,1.7-0.4s1.2,0.1,1.7,0.4c0.5,0.2,0.8,0.6,1.1,1
		c0.3,0.4,0.5,0.9,0.6,1.4C81.5,9.4,81.6,9.9,81.6,10.5z M80.1,10.5c0-0.4,0-0.8-0.1-1.2c-0.1-0.4-0.2-0.7-0.3-1
		C79.5,8,79.3,7.7,79,7.6c-0.3-0.2-0.7-0.3-1.1-0.3c-0.5,0-0.8,0.1-1.1,0.3c-0.3,0.2-0.5,0.4-0.7,0.7c-0.2,0.3-0.3,0.6-0.3,1
		c-0.1,0.4-0.1,0.8-0.1,1.2c0,0.4,0,0.8,0.1,1.2c0.1,0.4,0.2,0.7,0.3,1c0.2,0.3,0.4,0.6,0.7,0.7c0.3,0.2,0.7,0.3,1.1,0.3
		c0.5,0,0.8-0.1,1.1-0.3c0.3-0.2,0.5-0.4,0.7-0.7c0.2-0.3,0.3-0.7,0.3-1C80,11.3,80.1,10.9,80.1,10.5z"/>
	<path class="st0" d="M84.6,7.6c0.2-0.4,0.6-0.8,1-1.1c0.4-0.3,0.9-0.5,1.4-0.5c0.2,0,0.3,0,0.5,0v1.2c-0.1,0-0.2,0-0.2,0
		s-0.1,0-0.2,0c-0.4,0-0.8,0.1-1.2,0.3c-0.4,0.2-0.8,0.5-1.2,0.9v6.4h-1.4V6.3h1.2L84.6,7.6z"/>
	<path class="st0" d="M89.3,10.9c0,0.4,0,0.7,0.1,1.1c0.1,0.3,0.2,0.6,0.4,0.9c0.2,0.3,0.5,0.5,0.8,0.6c0.3,0.2,0.7,0.2,1.2,0.2
		c0.8,0,1.6-0.2,2.4-0.6v1.2c-0.4,0.2-0.8,0.3-1.3,0.4C92.5,14.9,92,15,91.6,15c-0.7,0-1.2-0.1-1.7-0.3c-0.5-0.2-0.9-0.5-1.2-0.9
		c-0.3-0.4-0.5-0.9-0.7-1.4c-0.1-0.5-0.2-1.2-0.2-1.8c0-0.6,0.1-1.2,0.2-1.7c0.1-0.5,0.4-1,0.7-1.4c0.3-0.4,0.7-0.7,1.1-1
		c0.4-0.2,1-0.4,1.6-0.4c0.6,0,1.1,0.1,1.5,0.3c0.4,0.2,0.7,0.5,1,0.9c0.3,0.4,0.4,0.8,0.5,1.3c0.1,0.5,0.2,1,0.2,1.5
		c0,0.2,0,0.4,0,0.5c0,0.1,0,0.2,0,0.3H89.3z M93,9.7c0-0.3,0-0.6-0.1-0.9c0-0.3-0.1-0.6-0.3-0.8c-0.1-0.2-0.3-0.4-0.6-0.6
		c-0.2-0.1-0.6-0.2-0.9-0.2c-0.3,0-0.6,0.1-0.8,0.2C90.2,7.6,90,7.8,89.8,8c-0.2,0.2-0.3,0.5-0.4,0.8c-0.1,0.3-0.1,0.6-0.2,1H93z"/>
</g>
<rect class="st1" width="98.3" height="19"/>
</svg>
