<!-- Generator: Adobe Illustrator 19.0.1, SVG Export Plug-In  -->
<svg version="1.1"
	 xmlns="http://www.w3.org/2000/svg" xmlns:xlink="http://www.w3.org/1999/xlink" xmlns:a="http://ns.adobe.com/AdobeSVGViewerExtensions/3.0/"
	 x="0px" y="0px" width="225.2px" height="70.1px" viewBox="0 0 225.2 70.1" style="enable-background:new 0 0 225.2 70.1;"
	 xml:space="preserve">
<style type="text/css">
	.st0{fill:#FFFFFF;}
	.st1{fill:none;}
</style>
<defs>
</defs>
<g>
	<path class="st0" d="M9.9,8.9c0.3,0,0.6,0,0.9,0.1c0.3,0,0.6,0.1,0.8,0.1v1.5c-0.2-0.1-0.5-0.1-0.8-0.1s-0.6,0-0.9,0
		c-0.7,0-1.1,0.2-1.3,0.5c-0.2,0.3-0.4,0.8-0.4,1.4v1.7h3.1v1.5H8.2V25H6.4v-9.3H4.4v-1.5h1.9v-1.6c0-1.2,0.3-2.1,0.8-2.7
		C7.8,9.2,8.6,8.9,9.9,8.9z"/>
	<path class="st0" d="M13.9,15.9c0.3-0.5,0.7-1,1.2-1.4c0.5-0.4,1.1-0.6,1.8-0.6c0.2,0,0.4,0,0.7,0.1v1.5c-0.1,0-0.2,0-0.3,0
		s-0.2,0-0.3,0c-0.5,0-1,0.1-1.6,0.4c-0.5,0.3-1,0.6-1.5,1.1V25h-1.8V14.1h1.6L13.9,15.9z"/>
	<path class="st0" d="M26.8,19.5c0,0.8-0.1,1.5-0.3,2.2c-0.2,0.7-0.5,1.3-0.8,1.8c-0.4,0.5-0.9,0.9-1.5,1.2
		c-0.6,0.3-1.3,0.5-2.1,0.5c-0.8,0-1.5-0.2-2.1-0.5c-0.6-0.3-1.1-0.7-1.5-1.2c-0.4-0.5-0.7-1.1-0.8-1.8c-0.2-0.7-0.3-1.4-0.3-2.2
		c0-0.7,0.1-1.5,0.3-2.2c0.2-0.7,0.5-1.3,0.8-1.8s0.9-0.9,1.5-1.3c0.6-0.3,1.3-0.5,2.1-0.5s1.6,0.2,2.1,0.5c0.6,0.3,1.1,0.7,1.5,1.3
		s0.6,1.1,0.8,1.8C26.7,18.1,26.8,18.8,26.8,19.5z M24.9,19.5c0-0.5,0-1-0.1-1.5c-0.1-0.5-0.2-0.9-0.4-1.3c-0.2-0.4-0.5-0.7-0.9-0.9
		c-0.4-0.2-0.8-0.4-1.4-0.4c-0.6,0-1.1,0.1-1.4,0.4c-0.4,0.2-0.6,0.6-0.8,0.9c-0.2,0.4-0.3,0.8-0.4,1.3s-0.1,1-0.1,1.5
		c0,0.5,0,1,0.1,1.5s0.2,0.9,0.4,1.3s0.5,0.7,0.8,0.9c0.4,0.2,0.8,0.4,1.4,0.4c0.6,0,1.1-0.1,1.4-0.4c0.4-0.2,0.6-0.5,0.8-0.9
		c0.2-0.4,0.3-0.8,0.4-1.3C24.9,20.5,24.9,20,24.9,19.5z"/>
	<path class="st0" d="M36.1,25h-1.8v-7.4c0-0.7-0.1-1.2-0.3-1.6c-0.2-0.4-0.7-0.6-1.3-0.6c-0.5,0-0.9,0.2-1.3,0.5s-0.8,0.7-1.2,1V25
		h-1.8V14.1h1.6l0.2,1.4c0.4-0.4,0.9-0.8,1.4-1.1s1.1-0.5,1.7-0.5c1.3,0,2.1,0.5,2.6,1.6c0.5-0.5,1-0.9,1.6-1.2
		c0.6-0.3,1.1-0.5,1.8-0.5c1,0,1.7,0.3,2.2,0.9c0.5,0.6,0.8,1.4,0.8,2.3V25h-1.8v-7.4c0-0.3,0-0.6-0.1-0.9c0-0.3-0.1-0.5-0.3-0.7
		c-0.1-0.2-0.3-0.4-0.5-0.5c-0.2-0.1-0.5-0.2-0.8-0.2c-0.4,0-0.9,0.1-1.3,0.4c-0.5,0.3-0.9,0.6-1.2,0.9c0,0.1,0,0.2,0,0.3
		s0,0.2,0,0.3V25z"/>
</g>
<g>
	<path class="st0" d="M152.4,63l-0.2-0.9c-0.3,0.3-0.7,0.5-1.2,0.8c-0.5,0.2-1,0.4-1.6,0.4c-1.1,0-1.9-0.3-2.5-0.9
		c-0.6-0.6-0.9-1.4-0.9-2.5c0-0.6,0.1-1.2,0.3-1.7c0.2-0.5,0.5-0.9,0.9-1.2c0.4-0.3,0.8-0.5,1.3-0.7s1.1-0.2,1.7-0.2h1.9v-0.6
		c0-0.8-0.2-1.4-0.5-1.7s-0.9-0.5-1.6-0.5c-0.4,0-0.9,0.1-1.5,0.2c-0.5,0.1-1,0.3-1.4,0.4v-1.7c0.4-0.1,0.9-0.2,1.5-0.3
		c0.6-0.1,1.2-0.1,1.7-0.1c1.3,0,2.2,0.3,2.8,0.9c0.6,0.6,0.9,1.5,0.9,2.8V63H152.4z M152.1,57.6h-1.8c-0.8,0-1.4,0.2-1.8,0.5
		s-0.6,0.8-0.6,1.6c0,0.6,0.2,1.1,0.5,1.5c0.3,0.3,0.8,0.5,1.5,0.5c0.5,0,0.9-0.1,1.3-0.3c0.4-0.2,0.7-0.4,1-0.6V57.6z"/>
	<path class="st0" d="M167.3,63h-1.8v-7.4c0-0.7-0.1-1.2-0.3-1.6c-0.2-0.4-0.7-0.6-1.3-0.6c-0.5,0-0.9,0.2-1.3,0.5s-0.8,0.7-1.2,1
		V63h-1.8V52.1h1.6l0.2,1.4c0.4-0.4,0.9-0.8,1.4-1.1s1.1-0.5,1.7-0.5c1.3,0,2.1,0.5,2.6,1.6c0.5-0.5,1-0.9,1.6-1.2
		c0.6-0.3,1.1-0.5,1.8-0.5c1,0,1.7,0.3,2.2,0.9c0.5,0.6,0.8,1.4,0.8,2.3V63h-1.8v-7.4c0-0.3,0-0.6-0.1-0.9c0-0.3-0.1-0.5-0.3-0.7
		c-0.1-0.2-0.3-0.4-0.5-0.5c-0.2-0.1-0.5-0.2-0.8-0.2c-0.4,0-0.9,0.1-1.3,0.4c-0.5,0.3-0.9,0.6-1.2,0.9c0,0.1,0,0.2,0,0.3
		s0,0.2,0,0.3V63z"/>
	<path class="st0" d="M184.1,57.5c0,0.8-0.1,1.5-0.3,2.2c-0.2,0.7-0.5,1.3-0.8,1.8c-0.4,0.5-0.9,0.9-1.5,1.2
		c-0.6,0.3-1.3,0.5-2.1,0.5c-0.8,0-1.5-0.2-2.1-0.5c-0.6-0.3-1.1-0.7-1.5-1.2c-0.4-0.5-0.7-1.1-0.8-1.8c-0.2-0.7-0.3-1.4-0.3-2.2
		c0-0.7,0.1-1.5,0.3-2.2c0.2-0.7,0.5-1.3,0.8-1.8s0.9-0.9,1.5-1.3c0.6-0.3,1.3-0.5,2.1-0.5s1.6,0.2,2.1,0.5c0.6,0.3,1.1,0.7,1.5,1.3
		s0.6,1.1,0.8,1.8C184,56.1,184.1,56.8,184.1,57.5z M182.2,57.5c0-0.5,0-1-0.1-1.5c-0.1-0.5-0.2-0.9-0.4-1.3
		c-0.2-0.4-0.5-0.7-0.9-0.9c-0.4-0.2-0.8-0.4-1.4-0.4c-0.6,0-1.1,0.1-1.4,0.4c-0.4,0.2-0.6,0.6-0.8,0.9c-0.2,0.4-0.3,0.8-0.4,1.3
		s-0.1,1-0.1,1.5c0,0.5,0,1,0.1,1.5s0.2,0.9,0.4,1.3s0.5,0.7,0.8,0.9c0.4,0.2,0.8,0.4,1.4,0.4c0.6,0,1.1-0.1,1.4-0.4
		c0.4-0.2,0.6-0.5,0.8-0.9c0.2-0.4,0.3-0.8,0.4-1.3C182.1,58.5,182.2,58,182.2,57.5z"/>
	<path class="st0" d="M193.8,63H192v-7.4c0-0.7-0.1-1.3-0.4-1.7c-0.3-0.4-0.8-0.6-1.5-0.6c-0.5,0-1,0.2-1.5,0.5
		c-0.5,0.3-0.9,0.7-1.2,1V63h-1.8V52.1h1.6l0.2,1.3c0.5-0.5,1-0.9,1.5-1.2s1.1-0.4,1.8-0.4c1,0,1.8,0.3,2.4,0.9
		c0.6,0.6,0.8,1.4,0.8,2.4V63z"/>
	<path class="st0" d="M198.4,52.1h2.8v1.5h-2.8v6.4c0,0.6,0.1,1,0.3,1.2c0.2,0.3,0.6,0.4,1.2,0.4c0.3,0,0.6,0,0.9-0.1
		c0.3-0.1,0.5-0.1,0.8-0.2v1.5c-0.3,0.1-0.6,0.2-1,0.3c-0.4,0.1-0.7,0.1-1,0.1c-1,0-1.8-0.2-2.3-0.7c-0.5-0.4-0.7-1.2-0.7-2.2v-6.7
		h-2v-1.5h2v-2.9h1.8V52.1z"/>
	<path class="st0" d="M211,63h-1.8v-7.4c0-0.7-0.1-1.3-0.4-1.6s-0.8-0.6-1.6-0.6c-0.4,0-0.9,0.1-1.3,0.4s-0.9,0.6-1.3,1.1V63h-1.8
		V47.1h1.8v6.3c0.4-0.4,0.8-0.8,1.4-1.1c0.5-0.3,1.1-0.5,1.9-0.5c1,0,1.8,0.3,2.4,0.9c0.6,0.6,0.8,1.4,0.8,2.4V63z"/>
	<path class="st0" d="M215.9,61.7c0,0.4-0.2,0.8-0.5,1.1c-0.3,0.3-0.7,0.4-1.1,0.4c-0.4,0-0.8-0.1-1.1-0.4c-0.3-0.3-0.5-0.6-0.5-1.1
		c0-0.5,0.1-0.8,0.4-1.1s0.7-0.4,1.1-0.4c0.4,0,0.8,0.1,1.1,0.4C215.8,60.8,215.9,61.2,215.9,61.7z"/>
</g>
<g>
	<path class="st0" d="M44.3,47.4H50l2.7-16.9h-6.1v-4.3h6.8l0.6-3.5c0.9-5.6,2.6-9.7,5.2-12.2s5.9-3.8,10-3.8c2.4,0,4.3,0.4,5.8,1.2
		v4.9c-0.8-0.4-1.8-0.7-2.8-1c-1.1-0.2-2.1-0.3-3.1-0.3c-1.2,0-2.2,0.1-3.2,0.4c-1,0.3-1.9,0.8-2.6,1.7S61.6,15.6,61,17
		s-1.1,3.3-1.5,5.6l-0.6,3.5h12.6v4.3H58.1l-2.7,16.9h19.2V52H44.3V47.4z"/>
</g>
<g>
	<path class="st0" d="M109.1,20c0,4.3-0.7,8.1-2.2,11.4c-1.5,3.4-3.4,6.7-5.9,9.9c-2.3,3-4.8,5.9-7.6,8.7c-2.8,2.9-5.5,5.5-8.1,7.8
		h25.9V64H76.4v-5.8c1.6-1.5,3.3-3,4.9-4.5c1.6-1.5,3.2-3.1,4.7-4.6c1.5-1.6,2.9-3.1,4.3-4.6c1.3-1.5,2.5-2.9,3.6-4.2
		c2.9-3.8,5-7.2,6.2-10.2c1.2-3,1.8-5.9,1.8-8.7c0-7.2-3.5-10.7-10.4-10.7c-2.2,0-4.4,0.3-6.7,0.9c-2.3,0.6-4.5,1.4-6.5,2.3V7.2
		c1.9-0.9,4-1.6,6.3-2.2s4.9-0.9,7.9-0.9c5.1,0,9.2,1.4,12.2,4.1C107.6,11.1,109.1,15,109.1,20z"/>
	<path class="st0" d="M152.8,11.2c-3,3.5-5.6,7.3-8,11.6c-2.4,4.3-4.5,8.7-6.4,13.3c-1.8,4.6-3.3,9.3-4.5,14.1
		c-1.2,4.8-2,9.4-2.3,13.8h-7.2c0.4-4.7,1.2-9.6,2.4-14.5c1.2-4.9,2.8-9.7,4.6-14.3c1.9-4.7,4-9.1,6.4-13.2c2.4-4.2,5-7.9,7.8-11.1
		h-30.8v-6h38V11.2z"/>
</g>
<g>
	<path class="st0" d="M157.6,40.7c0,1.1-0.4,2-1.1,2.7c-0.8,0.7-1.7,1.1-2.8,1.1c-1,0-2-0.3-2.7-1c-0.8-0.7-1.1-1.6-1.1-2.8
		c0-1.2,0.4-2.1,1.1-2.8c0.7-0.7,1.7-1.1,2.7-1.1c1,0,2,0.4,2.7,1.1C157.3,38.6,157.6,39.5,157.6,40.7z"/>
	<path class="st0" d="M186.9,23.9c0,2.7-0.2,5.2-0.6,7.7c-0.4,2.5-1.1,4.7-2.2,6.6c-1,1.9-2.4,3.5-4.1,4.6c-1.7,1.2-3.8,1.7-6.4,1.7
		c-2.5,0-4.6-0.6-6.3-1.7c-1.7-1.2-3-2.7-4-4.6c-1-1.9-1.7-4.1-2.2-6.6c-0.4-2.5-0.6-5.1-0.6-7.7c0-2.7,0.2-5.3,0.6-7.8
		c0.4-2.5,1.1-4.7,2.2-6.6c1-1.9,2.4-3.4,4-4.6c1.7-1.2,3.8-1.7,6.3-1.7c2.5,0,4.7,0.6,6.4,1.7c1.7,1.2,3.1,2.7,4.1,4.6
		c1,1.9,1.7,4.1,2.2,6.6C186.7,18.6,186.9,21.2,186.9,23.9z M182,23.8c0-1.7-0.1-3.6-0.3-5.5s-0.5-3.8-1.1-5.4s-1.4-3-2.5-4.1
		c-1.1-1.1-2.6-1.6-4.5-1.6c-1.8,0-3.3,0.5-4.4,1.6c-1.1,1.1-1.9,2.4-2.5,4.1c-0.6,1.6-1,3.4-1.1,5.4s-0.3,3.8-0.3,5.5
		c0,1.8,0.1,3.6,0.3,5.6c0.2,2,0.6,3.8,1.1,5.4c0.6,1.6,1.4,3,2.5,4.1c1.1,1.1,2.5,1.6,4.3,1.6c1.8,0,3.3-0.5,4.4-1.6
		c1.1-1.1,1.9-2.4,2.5-4.1c0.6-1.6,1-3.4,1.1-5.4S182,25.6,182,23.8z"/>
	<path class="st0" d="M215.8,23.9c0,2.7-0.2,5.2-0.6,7.7c-0.4,2.5-1.1,4.7-2.2,6.6c-1,1.9-2.4,3.5-4.1,4.6c-1.7,1.2-3.8,1.7-6.4,1.7
		c-2.5,0-4.6-0.6-6.3-1.7c-1.7-1.2-3-2.7-4-4.6c-1-1.9-1.7-4.1-2.2-6.6c-0.4-2.5-0.6-5.1-0.6-7.7c0-2.7,0.2-5.3,0.6-7.8
		c0.4-2.5,1.1-4.7,2.2-6.6c1-1.9,2.4-3.4,4-4.6c1.7-1.2,3.8-1.7,6.3-1.7c2.5,0,4.7,0.6,6.4,1.7c1.7,1.2,3.1,2.7,4.1,4.6
		c1,1.9,1.7,4.1,2.2,6.6C215.6,18.6,215.8,21.2,215.8,23.9z M210.8,23.8c0-1.7-0.1-3.6-0.3-5.5s-0.5-3.8-1.1-5.4s-1.4-3-2.5-4.1
		c-1.1-1.1-2.6-1.6-4.5-1.6c-1.8,0-3.3,0.5-4.4,1.6c-1.1,1.1-1.9,2.4-2.5,4.1c-0.6,1.6-1,3.4-1.1,5.4s-0.3,3.8-0.3,5.5
		c0,1.8,0.1,3.6,0.3,5.6c0.2,2,0.6,3.8,1.1,5.4c0.6,1.6,1.4,3,2.5,4.1c1.1,1.1,2.5,1.6,4.3,1.6c1.8,0,3.3-0.5,4.4-1.6
		c1.1-1.1,1.9-2.4,2.5-4.1c0.6-1.6,1-3.4,1.1-5.4S210.8,25.6,210.8,23.8z"/>
</g>
<rect class="st1" width="225.2" height="70.1"/>
</svg>
